<?xml version="1.0" encoding="utf-8" standalone="no"?>
<!DOCTYPE svg PUBLIC "-//W3C//DTD SVG 1.1//EN"
  "http://www.w3.org/Graphics/SVG/1.1/DTD/svg11.dtd">
<!-- Created with matplotlib (https://matplotlib.org/) -->
<svg height="262.19625pt" version="1.1" viewBox="0 0 887.98125 262.19625" width="887.98125pt" xmlns="http://www.w3.org/2000/svg" xmlns:xlink="http://www.w3.org/1999/xlink">
 <metadata>
  <rdf:RDF xmlns:cc="http://creativecommons.org/ns#" xmlns:dc="http://purl.org/dc/elements/1.1/" xmlns:rdf="http://www.w3.org/1999/02/22-rdf-syntax-ns#">
   <cc:Work>
    <dc:type rdf:resource="http://purl.org/dc/dcmitype/StillImage"/>
    <dc:date>2020-12-16T15:40:15.117623</dc:date>
    <dc:format>image/svg+xml</dc:format>
    <dc:creator>
     <cc:Agent>
      <dc:title>Matplotlib v3.3.3, https://matplotlib.org/</dc:title>
     </cc:Agent>
    </dc:creator>
   </cc:Work>
  </rdf:RDF>
 </metadata>
 <defs>
  <style type="text/css">*{stroke-linecap:butt;stroke-linejoin:round;}</style>
 </defs>
 <g id="figure_1">
  <g id="patch_1">
   <path d="M 0 262.19625 
L 887.98125 262.19625 
L 887.98125 0 
L 0 0 
z
" style="fill:none;"/>
  </g>
  <g id="axes_1">
   <g id="patch_2">
    <path d="M 43.78125 224.64 
L 880.78125 224.64 
L 880.78125 7.2 
L 43.78125 7.2 
z
" style="fill:#ffffff;"/>
   </g>
   <g id="matplotlib.axis_1">
    <g id="xtick_1">
     <g id="line2d_1">
      <defs>
       <path d="M 0 0 
L 0 3.5 
" id="m37ae6fa63c" style="stroke:#000000;stroke-width:0.8;"/>
      </defs>
      <g>
       <use style="stroke:#000000;stroke-width:0.8;" x="81.826705" xlink:href="#m37ae6fa63c" y="224.64"/>
      </g>
     </g>
     <g id="text_1">
      <!-- 0 -->
      <g transform="translate(78.645455 239.238438)scale(0.1 -0.1)">
       <defs>
        <path d="M 31.78125 66.40625 
Q 24.171875 66.40625 20.328125 58.90625 
Q 16.5 51.421875 16.5 36.375 
Q 16.5 21.390625 20.328125 13.890625 
Q 24.171875 6.390625 31.78125 6.390625 
Q 39.453125 6.390625 43.28125 13.890625 
Q 47.125 21.390625 47.125 36.375 
Q 47.125 51.421875 43.28125 58.90625 
Q 39.453125 66.40625 31.78125 66.40625 
z
M 31.78125 74.21875 
Q 44.046875 74.21875 50.515625 64.515625 
Q 56.984375 54.828125 56.984375 36.375 
Q 56.984375 17.96875 50.515625 8.265625 
Q 44.046875 -1.421875 31.78125 -1.421875 
Q 19.53125 -1.421875 13.0625 8.265625 
Q 6.59375 17.96875 6.59375 36.375 
Q 6.59375 54.828125 13.0625 64.515625 
Q 19.53125 74.21875 31.78125 74.21875 
z
" id="DejaVuSans-48"/>
       </defs>
       <use xlink:href="#DejaVuSans-48"/>
      </g>
     </g>
    </g>
    <g id="xtick_2">
     <g id="line2d_2">
      <g>
       <use style="stroke:#000000;stroke-width:0.8;" x="177.418299" xlink:href="#m37ae6fa63c" y="224.64"/>
      </g>
     </g>
     <g id="text_2">
      <!-- 25 -->
      <g transform="translate(171.055799 239.238438)scale(0.1 -0.1)">
       <defs>
        <path d="M 19.1875 8.296875 
L 53.609375 8.296875 
L 53.609375 0 
L 7.328125 0 
L 7.328125 8.296875 
Q 12.9375 14.109375 22.625 23.890625 
Q 32.328125 33.6875 34.8125 36.53125 
Q 39.546875 41.84375 41.421875 45.53125 
Q 43.3125 49.21875 43.3125 52.78125 
Q 43.3125 58.59375 39.234375 62.25 
Q 35.15625 65.921875 28.609375 65.921875 
Q 23.96875 65.921875 18.8125 64.3125 
Q 13.671875 62.703125 7.8125 59.421875 
L 7.8125 69.390625 
Q 13.765625 71.78125 18.9375 73 
Q 24.125 74.21875 28.421875 74.21875 
Q 39.75 74.21875 46.484375 68.546875 
Q 53.21875 62.890625 53.21875 53.421875 
Q 53.21875 48.921875 51.53125 44.890625 
Q 49.859375 40.875 45.40625 35.40625 
Q 44.1875 33.984375 37.640625 27.21875 
Q 31.109375 20.453125 19.1875 8.296875 
z
" id="DejaVuSans-50"/>
        <path d="M 10.796875 72.90625 
L 49.515625 72.90625 
L 49.515625 64.59375 
L 19.828125 64.59375 
L 19.828125 46.734375 
Q 21.96875 47.46875 24.109375 47.828125 
Q 26.265625 48.1875 28.421875 48.1875 
Q 40.625 48.1875 47.75 41.5 
Q 54.890625 34.8125 54.890625 23.390625 
Q 54.890625 11.625 47.5625 5.09375 
Q 40.234375 -1.421875 26.90625 -1.421875 
Q 22.3125 -1.421875 17.546875 -0.640625 
Q 12.796875 0.140625 7.71875 1.703125 
L 7.71875 11.625 
Q 12.109375 9.234375 16.796875 8.0625 
Q 21.484375 6.890625 26.703125 6.890625 
Q 35.15625 6.890625 40.078125 11.328125 
Q 45.015625 15.765625 45.015625 23.390625 
Q 45.015625 31 40.078125 35.4375 
Q 35.15625 39.890625 26.703125 39.890625 
Q 22.75 39.890625 18.8125 39.015625 
Q 14.890625 38.140625 10.796875 36.28125 
z
" id="DejaVuSans-53"/>
       </defs>
       <use xlink:href="#DejaVuSans-50"/>
       <use x="63.623047" xlink:href="#DejaVuSans-53"/>
      </g>
     </g>
    </g>
    <g id="xtick_3">
     <g id="line2d_3">
      <g>
       <use style="stroke:#000000;stroke-width:0.8;" x="273.009893" xlink:href="#m37ae6fa63c" y="224.64"/>
      </g>
     </g>
     <g id="text_3">
      <!-- 50 -->
      <g transform="translate(266.647393 239.238438)scale(0.1 -0.1)">
       <use xlink:href="#DejaVuSans-53"/>
       <use x="63.623047" xlink:href="#DejaVuSans-48"/>
      </g>
     </g>
    </g>
    <g id="xtick_4">
     <g id="line2d_4">
      <g>
       <use style="stroke:#000000;stroke-width:0.8;" x="368.601488" xlink:href="#m37ae6fa63c" y="224.64"/>
      </g>
     </g>
     <g id="text_4">
      <!-- 75 -->
      <g transform="translate(362.238988 239.238438)scale(0.1 -0.1)">
       <defs>
        <path d="M 8.203125 72.90625 
L 55.078125 72.90625 
L 55.078125 68.703125 
L 28.609375 0 
L 18.3125 0 
L 43.21875 64.59375 
L 8.203125 64.59375 
z
" id="DejaVuSans-55"/>
       </defs>
       <use xlink:href="#DejaVuSans-55"/>
       <use x="63.623047" xlink:href="#DejaVuSans-53"/>
      </g>
     </g>
    </g>
    <g id="xtick_5">
     <g id="line2d_5">
      <g>
       <use style="stroke:#000000;stroke-width:0.8;" x="464.193082" xlink:href="#m37ae6fa63c" y="224.64"/>
      </g>
     </g>
     <g id="text_5">
      <!-- 100 -->
      <g transform="translate(454.649332 239.238438)scale(0.1 -0.1)">
       <defs>
        <path d="M 12.40625 8.296875 
L 28.515625 8.296875 
L 28.515625 63.921875 
L 10.984375 60.40625 
L 10.984375 69.390625 
L 28.421875 72.90625 
L 38.28125 72.90625 
L 38.28125 8.296875 
L 54.390625 8.296875 
L 54.390625 0 
L 12.40625 0 
z
" id="DejaVuSans-49"/>
       </defs>
       <use xlink:href="#DejaVuSans-49"/>
       <use x="63.623047" xlink:href="#DejaVuSans-48"/>
       <use x="127.246094" xlink:href="#DejaVuSans-48"/>
      </g>
     </g>
    </g>
    <g id="xtick_6">
     <g id="line2d_6">
      <g>
       <use style="stroke:#000000;stroke-width:0.8;" x="559.784676" xlink:href="#m37ae6fa63c" y="224.64"/>
      </g>
     </g>
     <g id="text_6">
      <!-- 125 -->
      <g transform="translate(550.240926 239.238438)scale(0.1 -0.1)">
       <use xlink:href="#DejaVuSans-49"/>
       <use x="63.623047" xlink:href="#DejaVuSans-50"/>
       <use x="127.246094" xlink:href="#DejaVuSans-53"/>
      </g>
     </g>
    </g>
    <g id="xtick_7">
     <g id="line2d_7">
      <g>
       <use style="stroke:#000000;stroke-width:0.8;" x="655.376271" xlink:href="#m37ae6fa63c" y="224.64"/>
      </g>
     </g>
     <g id="text_7">
      <!-- 150 -->
      <g transform="translate(645.832521 239.238438)scale(0.1 -0.1)">
       <use xlink:href="#DejaVuSans-49"/>
       <use x="63.623047" xlink:href="#DejaVuSans-53"/>
       <use x="127.246094" xlink:href="#DejaVuSans-48"/>
      </g>
     </g>
    </g>
    <g id="xtick_8">
     <g id="line2d_8">
      <g>
       <use style="stroke:#000000;stroke-width:0.8;" x="750.967865" xlink:href="#m37ae6fa63c" y="224.64"/>
      </g>
     </g>
     <g id="text_8">
      <!-- 175 -->
      <g transform="translate(741.424115 239.238438)scale(0.1 -0.1)">
       <use xlink:href="#DejaVuSans-49"/>
       <use x="63.623047" xlink:href="#DejaVuSans-55"/>
       <use x="127.246094" xlink:href="#DejaVuSans-53"/>
      </g>
     </g>
    </g>
    <g id="xtick_9">
     <g id="line2d_9">
      <g>
       <use style="stroke:#000000;stroke-width:0.8;" x="846.559459" xlink:href="#m37ae6fa63c" y="224.64"/>
      </g>
     </g>
     <g id="text_9">
      <!-- 200 -->
      <g transform="translate(837.015709 239.238438)scale(0.1 -0.1)">
       <use xlink:href="#DejaVuSans-50"/>
       <use x="63.623047" xlink:href="#DejaVuSans-48"/>
       <use x="127.246094" xlink:href="#DejaVuSans-48"/>
      </g>
     </g>
    </g>
    <g id="text_10">
     <!-- epoch -->
     <g transform="translate(447.053125 252.916563)scale(0.1 -0.1)">
      <defs>
       <path d="M 56.203125 29.59375 
L 56.203125 25.203125 
L 14.890625 25.203125 
Q 15.484375 15.921875 20.484375 11.0625 
Q 25.484375 6.203125 34.421875 6.203125 
Q 39.59375 6.203125 44.453125 7.46875 
Q 49.3125 8.734375 54.109375 11.28125 
L 54.109375 2.78125 
Q 49.265625 0.734375 44.1875 -0.34375 
Q 39.109375 -1.421875 33.890625 -1.421875 
Q 20.796875 -1.421875 13.15625 6.1875 
Q 5.515625 13.8125 5.515625 26.8125 
Q 5.515625 40.234375 12.765625 48.109375 
Q 20.015625 56 32.328125 56 
Q 43.359375 56 49.78125 48.890625 
Q 56.203125 41.796875 56.203125 29.59375 
z
M 47.21875 32.234375 
Q 47.125 39.59375 43.09375 43.984375 
Q 39.0625 48.390625 32.421875 48.390625 
Q 24.90625 48.390625 20.390625 44.140625 
Q 15.875 39.890625 15.1875 32.171875 
z
" id="DejaVuSans-101"/>
       <path d="M 18.109375 8.203125 
L 18.109375 -20.796875 
L 9.078125 -20.796875 
L 9.078125 54.6875 
L 18.109375 54.6875 
L 18.109375 46.390625 
Q 20.953125 51.265625 25.265625 53.625 
Q 29.59375 56 35.59375 56 
Q 45.5625 56 51.78125 48.09375 
Q 58.015625 40.1875 58.015625 27.296875 
Q 58.015625 14.40625 51.78125 6.484375 
Q 45.5625 -1.421875 35.59375 -1.421875 
Q 29.59375 -1.421875 25.265625 0.953125 
Q 20.953125 3.328125 18.109375 8.203125 
z
M 48.6875 27.296875 
Q 48.6875 37.203125 44.609375 42.84375 
Q 40.53125 48.484375 33.40625 48.484375 
Q 26.265625 48.484375 22.1875 42.84375 
Q 18.109375 37.203125 18.109375 27.296875 
Q 18.109375 17.390625 22.1875 11.75 
Q 26.265625 6.109375 33.40625 6.109375 
Q 40.53125 6.109375 44.609375 11.75 
Q 48.6875 17.390625 48.6875 27.296875 
z
" id="DejaVuSans-112"/>
       <path d="M 30.609375 48.390625 
Q 23.390625 48.390625 19.1875 42.75 
Q 14.984375 37.109375 14.984375 27.296875 
Q 14.984375 17.484375 19.15625 11.84375 
Q 23.34375 6.203125 30.609375 6.203125 
Q 37.796875 6.203125 41.984375 11.859375 
Q 46.1875 17.53125 46.1875 27.296875 
Q 46.1875 37.015625 41.984375 42.703125 
Q 37.796875 48.390625 30.609375 48.390625 
z
M 30.609375 56 
Q 42.328125 56 49.015625 48.375 
Q 55.71875 40.765625 55.71875 27.296875 
Q 55.71875 13.875 49.015625 6.21875 
Q 42.328125 -1.421875 30.609375 -1.421875 
Q 18.84375 -1.421875 12.171875 6.21875 
Q 5.515625 13.875 5.515625 27.296875 
Q 5.515625 40.765625 12.171875 48.375 
Q 18.84375 56 30.609375 56 
z
" id="DejaVuSans-111"/>
       <path d="M 48.78125 52.59375 
L 48.78125 44.1875 
Q 44.96875 46.296875 41.140625 47.34375 
Q 37.3125 48.390625 33.40625 48.390625 
Q 24.65625 48.390625 19.8125 42.84375 
Q 14.984375 37.3125 14.984375 27.296875 
Q 14.984375 17.28125 19.8125 11.734375 
Q 24.65625 6.203125 33.40625 6.203125 
Q 37.3125 6.203125 41.140625 7.25 
Q 44.96875 8.296875 48.78125 10.40625 
L 48.78125 2.09375 
Q 45.015625 0.34375 40.984375 -0.53125 
Q 36.96875 -1.421875 32.421875 -1.421875 
Q 20.0625 -1.421875 12.78125 6.34375 
Q 5.515625 14.109375 5.515625 27.296875 
Q 5.515625 40.671875 12.859375 48.328125 
Q 20.21875 56 33.015625 56 
Q 37.15625 56 41.109375 55.140625 
Q 45.0625 54.296875 48.78125 52.59375 
z
" id="DejaVuSans-99"/>
       <path d="M 54.890625 33.015625 
L 54.890625 0 
L 45.90625 0 
L 45.90625 32.71875 
Q 45.90625 40.484375 42.875 44.328125 
Q 39.84375 48.1875 33.796875 48.1875 
Q 26.515625 48.1875 22.3125 43.546875 
Q 18.109375 38.921875 18.109375 30.90625 
L 18.109375 0 
L 9.078125 0 
L 9.078125 75.984375 
L 18.109375 75.984375 
L 18.109375 46.1875 
Q 21.34375 51.125 25.703125 53.5625 
Q 30.078125 56 35.796875 56 
Q 45.21875 56 50.046875 50.171875 
Q 54.890625 44.34375 54.890625 33.015625 
z
" id="DejaVuSans-104"/>
      </defs>
      <use xlink:href="#DejaVuSans-101"/>
      <use x="61.523438" xlink:href="#DejaVuSans-112"/>
      <use x="125" xlink:href="#DejaVuSans-111"/>
      <use x="186.181641" xlink:href="#DejaVuSans-99"/>
      <use x="241.162109" xlink:href="#DejaVuSans-104"/>
     </g>
    </g>
   </g>
   <g id="matplotlib.axis_2">
    <g id="ytick_1">
     <g id="line2d_10">
      <defs>
       <path d="M 0 0 
L -3.5 0 
" id="m839761d61d" style="stroke:#000000;stroke-width:0.8;"/>
      </defs>
      <g>
       <use style="stroke:#000000;stroke-width:0.8;" x="43.78125" xlink:href="#m839761d61d" y="198.458879"/>
      </g>
     </g>
     <g id="text_11">
      <!-- 0.1 -->
      <g transform="translate(20.878125 202.258098)scale(0.1 -0.1)">
       <defs>
        <path d="M 10.6875 12.40625 
L 21 12.40625 
L 21 0 
L 10.6875 0 
z
" id="DejaVuSans-46"/>
       </defs>
       <use xlink:href="#DejaVuSans-48"/>
       <use x="63.623047" xlink:href="#DejaVuSans-46"/>
       <use x="95.410156" xlink:href="#DejaVuSans-49"/>
      </g>
     </g>
    </g>
    <g id="ytick_2">
     <g id="line2d_11">
      <g>
       <use style="stroke:#000000;stroke-width:0.8;" x="43.78125" xlink:href="#m839761d61d" y="172.172613"/>
      </g>
     </g>
     <g id="text_12">
      <!-- 0.2 -->
      <g transform="translate(20.878125 175.971831)scale(0.1 -0.1)">
       <use xlink:href="#DejaVuSans-48"/>
       <use x="63.623047" xlink:href="#DejaVuSans-46"/>
       <use x="95.410156" xlink:href="#DejaVuSans-50"/>
      </g>
     </g>
    </g>
    <g id="ytick_3">
     <g id="line2d_12">
      <g>
       <use style="stroke:#000000;stroke-width:0.8;" x="43.78125" xlink:href="#m839761d61d" y="145.886346"/>
      </g>
     </g>
     <g id="text_13">
      <!-- 0.3 -->
      <g transform="translate(20.878125 149.685565)scale(0.1 -0.1)">
       <defs>
        <path d="M 40.578125 39.3125 
Q 47.65625 37.796875 51.625 33 
Q 55.609375 28.21875 55.609375 21.1875 
Q 55.609375 10.40625 48.1875 4.484375 
Q 40.765625 -1.421875 27.09375 -1.421875 
Q 22.515625 -1.421875 17.65625 -0.515625 
Q 12.796875 0.390625 7.625 2.203125 
L 7.625 11.71875 
Q 11.71875 9.328125 16.59375 8.109375 
Q 21.484375 6.890625 26.8125 6.890625 
Q 36.078125 6.890625 40.9375 10.546875 
Q 45.796875 14.203125 45.796875 21.1875 
Q 45.796875 27.640625 41.28125 31.265625 
Q 36.765625 34.90625 28.71875 34.90625 
L 20.21875 34.90625 
L 20.21875 43.015625 
L 29.109375 43.015625 
Q 36.375 43.015625 40.234375 45.921875 
Q 44.09375 48.828125 44.09375 54.296875 
Q 44.09375 59.90625 40.109375 62.90625 
Q 36.140625 65.921875 28.71875 65.921875 
Q 24.65625 65.921875 20.015625 65.03125 
Q 15.375 64.15625 9.8125 62.3125 
L 9.8125 71.09375 
Q 15.4375 72.65625 20.34375 73.4375 
Q 25.25 74.21875 29.59375 74.21875 
Q 40.828125 74.21875 47.359375 69.109375 
Q 53.90625 64.015625 53.90625 55.328125 
Q 53.90625 49.265625 50.4375 45.09375 
Q 46.96875 40.921875 40.578125 39.3125 
z
" id="DejaVuSans-51"/>
       </defs>
       <use xlink:href="#DejaVuSans-48"/>
       <use x="63.623047" xlink:href="#DejaVuSans-46"/>
       <use x="95.410156" xlink:href="#DejaVuSans-51"/>
      </g>
     </g>
    </g>
    <g id="ytick_4">
     <g id="line2d_13">
      <g>
       <use style="stroke:#000000;stroke-width:0.8;" x="43.78125" xlink:href="#m839761d61d" y="119.60008"/>
      </g>
     </g>
     <g id="text_14">
      <!-- 0.4 -->
      <g transform="translate(20.878125 123.399299)scale(0.1 -0.1)">
       <defs>
        <path d="M 37.796875 64.3125 
L 12.890625 25.390625 
L 37.796875 25.390625 
z
M 35.203125 72.90625 
L 47.609375 72.90625 
L 47.609375 25.390625 
L 58.015625 25.390625 
L 58.015625 17.1875 
L 47.609375 17.1875 
L 47.609375 0 
L 37.796875 0 
L 37.796875 17.1875 
L 4.890625 17.1875 
L 4.890625 26.703125 
z
" id="DejaVuSans-52"/>
       </defs>
       <use xlink:href="#DejaVuSans-48"/>
       <use x="63.623047" xlink:href="#DejaVuSans-46"/>
       <use x="95.410156" xlink:href="#DejaVuSans-52"/>
      </g>
     </g>
    </g>
    <g id="ytick_5">
     <g id="line2d_14">
      <g>
       <use style="stroke:#000000;stroke-width:0.8;" x="43.78125" xlink:href="#m839761d61d" y="93.313814"/>
      </g>
     </g>
     <g id="text_15">
      <!-- 0.5 -->
      <g transform="translate(20.878125 97.113033)scale(0.1 -0.1)">
       <use xlink:href="#DejaVuSans-48"/>
       <use x="63.623047" xlink:href="#DejaVuSans-46"/>
       <use x="95.410156" xlink:href="#DejaVuSans-53"/>
      </g>
     </g>
    </g>
    <g id="ytick_6">
     <g id="line2d_15">
      <g>
       <use style="stroke:#000000;stroke-width:0.8;" x="43.78125" xlink:href="#m839761d61d" y="67.027548"/>
      </g>
     </g>
     <g id="text_16">
      <!-- 0.6 -->
      <g transform="translate(20.878125 70.826767)scale(0.1 -0.1)">
       <defs>
        <path d="M 33.015625 40.375 
Q 26.375 40.375 22.484375 35.828125 
Q 18.609375 31.296875 18.609375 23.390625 
Q 18.609375 15.53125 22.484375 10.953125 
Q 26.375 6.390625 33.015625 6.390625 
Q 39.65625 6.390625 43.53125 10.953125 
Q 47.40625 15.53125 47.40625 23.390625 
Q 47.40625 31.296875 43.53125 35.828125 
Q 39.65625 40.375 33.015625 40.375 
z
M 52.59375 71.296875 
L 52.59375 62.3125 
Q 48.875 64.0625 45.09375 64.984375 
Q 41.3125 65.921875 37.59375 65.921875 
Q 27.828125 65.921875 22.671875 59.328125 
Q 17.53125 52.734375 16.796875 39.40625 
Q 19.671875 43.65625 24.015625 45.921875 
Q 28.375 48.1875 33.59375 48.1875 
Q 44.578125 48.1875 50.953125 41.515625 
Q 57.328125 34.859375 57.328125 23.390625 
Q 57.328125 12.15625 50.6875 5.359375 
Q 44.046875 -1.421875 33.015625 -1.421875 
Q 20.359375 -1.421875 13.671875 8.265625 
Q 6.984375 17.96875 6.984375 36.375 
Q 6.984375 53.65625 15.1875 63.9375 
Q 23.390625 74.21875 37.203125 74.21875 
Q 40.921875 74.21875 44.703125 73.484375 
Q 48.484375 72.75 52.59375 71.296875 
z
" id="DejaVuSans-54"/>
       </defs>
       <use xlink:href="#DejaVuSans-48"/>
       <use x="63.623047" xlink:href="#DejaVuSans-46"/>
       <use x="95.410156" xlink:href="#DejaVuSans-54"/>
      </g>
     </g>
    </g>
    <g id="ytick_7">
     <g id="line2d_16">
      <g>
       <use style="stroke:#000000;stroke-width:0.8;" x="43.78125" xlink:href="#m839761d61d" y="40.741282"/>
      </g>
     </g>
     <g id="text_17">
      <!-- 0.7 -->
      <g transform="translate(20.878125 44.5405)scale(0.1 -0.1)">
       <use xlink:href="#DejaVuSans-48"/>
       <use x="63.623047" xlink:href="#DejaVuSans-46"/>
       <use x="95.410156" xlink:href="#DejaVuSans-55"/>
      </g>
     </g>
    </g>
    <g id="ytick_8">
     <g id="line2d_17">
      <g>
       <use style="stroke:#000000;stroke-width:0.8;" x="43.78125" xlink:href="#m839761d61d" y="14.455015"/>
      </g>
     </g>
     <g id="text_18">
      <!-- 0.8 -->
      <g transform="translate(20.878125 18.254234)scale(0.1 -0.1)">
       <defs>
        <path d="M 31.78125 34.625 
Q 24.75 34.625 20.71875 30.859375 
Q 16.703125 27.09375 16.703125 20.515625 
Q 16.703125 13.921875 20.71875 10.15625 
Q 24.75 6.390625 31.78125 6.390625 
Q 38.8125 6.390625 42.859375 10.171875 
Q 46.921875 13.96875 46.921875 20.515625 
Q 46.921875 27.09375 42.890625 30.859375 
Q 38.875 34.625 31.78125 34.625 
z
M 21.921875 38.8125 
Q 15.578125 40.375 12.03125 44.71875 
Q 8.5 49.078125 8.5 55.328125 
Q 8.5 64.0625 14.71875 69.140625 
Q 20.953125 74.21875 31.78125 74.21875 
Q 42.671875 74.21875 48.875 69.140625 
Q 55.078125 64.0625 55.078125 55.328125 
Q 55.078125 49.078125 51.53125 44.71875 
Q 48 40.375 41.703125 38.8125 
Q 48.828125 37.15625 52.796875 32.3125 
Q 56.78125 27.484375 56.78125 20.515625 
Q 56.78125 9.90625 50.3125 4.234375 
Q 43.84375 -1.421875 31.78125 -1.421875 
Q 19.734375 -1.421875 13.25 4.234375 
Q 6.78125 9.90625 6.78125 20.515625 
Q 6.78125 27.484375 10.78125 32.3125 
Q 14.796875 37.15625 21.921875 38.8125 
z
M 18.3125 54.390625 
Q 18.3125 48.734375 21.84375 45.5625 
Q 25.390625 42.390625 31.78125 42.390625 
Q 38.140625 42.390625 41.71875 45.5625 
Q 45.3125 48.734375 45.3125 54.390625 
Q 45.3125 60.0625 41.71875 63.234375 
Q 38.140625 66.40625 31.78125 66.40625 
Q 25.390625 66.40625 21.84375 63.234375 
Q 18.3125 60.0625 18.3125 54.390625 
z
" id="DejaVuSans-56"/>
       </defs>
       <use xlink:href="#DejaVuSans-48"/>
       <use x="63.623047" xlink:href="#DejaVuSans-46"/>
       <use x="95.410156" xlink:href="#DejaVuSans-56"/>
      </g>
     </g>
    </g>
    <g id="text_19">
     <!-- score -->
     <g transform="translate(14.798438 129.352813)rotate(-90)scale(0.1 -0.1)">
      <defs>
       <path d="M 44.28125 53.078125 
L 44.28125 44.578125 
Q 40.484375 46.53125 36.375 47.5 
Q 32.28125 48.484375 27.875 48.484375 
Q 21.1875 48.484375 17.84375 46.4375 
Q 14.5 44.390625 14.5 40.28125 
Q 14.5 37.15625 16.890625 35.375 
Q 19.28125 33.59375 26.515625 31.984375 
L 29.59375 31.296875 
Q 39.15625 29.25 43.1875 25.515625 
Q 47.21875 21.78125 47.21875 15.09375 
Q 47.21875 7.46875 41.1875 3.015625 
Q 35.15625 -1.421875 24.609375 -1.421875 
Q 20.21875 -1.421875 15.453125 -0.5625 
Q 10.6875 0.296875 5.421875 2 
L 5.421875 11.28125 
Q 10.40625 8.6875 15.234375 7.390625 
Q 20.0625 6.109375 24.8125 6.109375 
Q 31.15625 6.109375 34.5625 8.28125 
Q 37.984375 10.453125 37.984375 14.40625 
Q 37.984375 18.0625 35.515625 20.015625 
Q 33.0625 21.96875 24.703125 23.78125 
L 21.578125 24.515625 
Q 13.234375 26.265625 9.515625 29.90625 
Q 5.8125 33.546875 5.8125 39.890625 
Q 5.8125 47.609375 11.28125 51.796875 
Q 16.75 56 26.8125 56 
Q 31.78125 56 36.171875 55.265625 
Q 40.578125 54.546875 44.28125 53.078125 
z
" id="DejaVuSans-115"/>
       <path d="M 41.109375 46.296875 
Q 39.59375 47.171875 37.8125 47.578125 
Q 36.03125 48 33.890625 48 
Q 26.265625 48 22.1875 43.046875 
Q 18.109375 38.09375 18.109375 28.8125 
L 18.109375 0 
L 9.078125 0 
L 9.078125 54.6875 
L 18.109375 54.6875 
L 18.109375 46.1875 
Q 20.953125 51.171875 25.484375 53.578125 
Q 30.03125 56 36.53125 56 
Q 37.453125 56 38.578125 55.875 
Q 39.703125 55.765625 41.0625 55.515625 
z
" id="DejaVuSans-114"/>
      </defs>
      <use xlink:href="#DejaVuSans-115"/>
      <use x="52.099609" xlink:href="#DejaVuSans-99"/>
      <use x="107.080078" xlink:href="#DejaVuSans-111"/>
      <use x="168.261719" xlink:href="#DejaVuSans-114"/>
      <use x="207.125" xlink:href="#DejaVuSans-101"/>
     </g>
    </g>
   </g>
   <g id="line2d_18">
    <path clip-path="url(#pc75931b901)" d="M 81.826705 214.756364 
L 85.650368 179.00704 
L 89.474032 211.076286 
L 93.297696 135.371834 
L 100.945023 106.982666 
L 104.768687 121.702978 
L 108.592351 116.971447 
L 112.416015 110.662743 
L 116.239679 133.794661 
L 120.063342 119.600075 
L 123.887006 109.611293 
L 127.71067 103.828318 
L 131.534334 111.188475 
L 135.357997 118.022901 
L 139.181661 110.662747 
L 143.005325 104.879771 
L 146.828989 111.714192 
L 154.476316 103.302592 
L 158.29998 101.725411 
L 162.123644 94.890984 
L 165.947308 92.788083 
L 169.770971 85.427929 
L 173.594635 113.291375 
L 177.418299 95.416707 
L 181.241963 92.788086 
L 185.065626 111.714195 
L 188.88929 103.828314 
L 192.712954 96.993888 
L 196.536618 71.233342 
L 200.360282 99.09679 
L 204.183945 74.913425 
L 208.007609 73.86197 
L 211.831273 86.47938 
L 215.654937 93.313811 
L 219.4786 85.427923 
L 223.302264 89.108006 
L 227.125928 88.582278 
L 230.949592 81.747848 
L 234.773255 71.759068 
L 238.596919 72.810519 
L 242.420583 90.685185 
L 246.244247 78.5935 
L 250.067911 69.130444 
L 253.891574 88.582284 
L 257.715238 77.016327 
L 265.362566 70.707618 
L 269.186229 66.501817 
L 273.009893 70.707622 
L 276.833557 68.604719 
L 280.657221 72.28479 
L 284.480885 74.913423 
L 288.304548 62.296009 
L 292.128212 64.398914 
L 295.951876 70.18189 
L 299.77554 77.016327 
L 303.599203 73.861967 
L 307.422867 76.490598 
L 311.246531 65.976092 
L 315.070195 62.821734 
L 318.893858 53.358684 
L 322.717522 69.65617 
L 326.541186 64.398914 
L 330.36485 64.398914 
L 334.188514 74.913414 
L 338.012177 53.358684 
L 341.835841 58.615935 
L 345.659505 53.884412 
L 349.483169 54.935858 
L 353.306832 65.450367 
L 357.130496 48.101432 
L 360.95416 47.575704 
L 364.777824 54.41013 
L 368.601488 55.987314 
L 372.425151 59.141666 
L 376.248815 58.615938 
L 380.072479 57.038757 
L 383.896143 83.850748 
L 387.719806 57.564485 
L 391.54347 61.244561 
L 395.367134 54.410136 
L 399.190798 63.347465 
L 403.014462 53.358684 
L 406.838125 45.472805 
L 410.661789 55.46158 
L 414.485453 45.998527 
L 418.309117 56.513036 
L 422.13278 53.884412 
L 425.956444 49.152882 
L 429.780108 58.090213 
L 433.603772 54.935861 
L 437.427435 57.038764 
L 441.251099 55.461583 
L 445.074763 49.152882 
L 448.898427 64.924639 
L 452.722091 53.884405 
L 456.545754 54.935858 
L 460.369418 52.832962 
L 464.193082 53.884412 
L 468.016746 53.884412 
L 471.840409 56.513036 
L 475.664073 52.307234 
L 479.487737 54.935861 
L 483.311401 41.267 
L 487.135065 61.77029 
L 490.958728 49.678604 
L 494.782392 51.255778 
L 498.606056 57.564482 
L 502.42972 55.987311 
L 506.253383 61.244568 
L 510.077047 53.358684 
L 517.724375 55.461583 
L 521.548038 50.204338 
L 525.371702 52.307234 
L 529.195366 48.627157 
L 533.01903 61.244562 
L 536.842694 50.730056 
L 540.666357 51.255783 
L 544.490021 50.730059 
L 548.313685 62.821741 
L 552.137349 54.410136 
L 555.961012 59.667388 
L 559.784676 49.152879 
L 563.60834 50.730056 
L 567.432004 60.718834 
L 571.255668 54.410136 
L 575.079331 51.255784 
L 578.902995 58.090209 
L 582.726659 44.94708 
L 586.550323 52.307231 
L 590.373986 55.987308 
L 594.19765 53.884405 
L 598.021314 52.307234 
L 601.844978 49.152879 
L 605.668642 55.987308 
L 609.492305 56.513039 
L 613.315969 45.472802 
L 617.139633 47.049983 
L 620.963297 55.987308 
L 624.78696 58.615935 
L 628.610624 48.101432 
L 632.434288 55.987308 
L 636.257952 47.575707 
L 640.081615 53.884415 
L 643.905279 48.101426 
L 647.728943 53.358677 
L 651.552607 61.244562 
L 655.376271 54.41013 
L 659.199934 53.358687 
L 663.023598 61.77029 
L 666.847262 61.244562 
L 670.670926 49.152882 
L 674.494589 55.461586 
L 678.318253 54.935861 
L 682.141917 52.832959 
L 685.965581 44.947077 
L 689.789245 54.935861 
L 693.612908 54.935863 
L 697.436572 53.358684 
L 701.260236 51.255778 
L 705.0839 52.307228 
L 708.907563 50.204335 
L 712.731227 50.730056 
L 716.554891 59.141663 
L 720.378555 55.461586 
L 724.202218 44.421352 
L 728.025882 48.627154 
L 731.849546 51.781509 
L 735.67321 54.410133 
L 739.496874 48.627157 
L 743.320537 54.410136 
L 747.144201 46.524252 
L 750.967865 47.049976 
L 754.791529 51.781512 
L 758.615192 47.575711 
L 762.438856 52.832959 
L 770.086184 52.832962 
L 773.909848 50.204332 
L 777.733511 42.844178 
L 781.557175 58.090212 
L 785.380839 48.101429 
L 789.204503 51.781506 
L 793.028166 43.895627 
L 796.85183 48.101429 
L 800.675494 48.62716 
L 804.499158 43.895624 
L 808.322821 55.987308 
L 812.146485 49.152882 
L 815.970149 45.472805 
L 819.793813 47.575701 
L 823.617477 49.152888 
L 827.44114 44.94708 
L 831.264804 49.152882 
L 835.088468 44.421349 
L 838.912132 50.730056 
L 842.735795 51.781509 
L 842.735795 51.781509 
" style="fill:none;stroke:#1f77b4;stroke-linecap:square;stroke-width:1.5;"/>
   </g>
   <g id="line2d_19">
    <path clip-path="url(#pc75931b901)" d="M 81.826705 155.3494 
L 85.650368 166.389632 
L 89.474032 130.114585 
L 93.297696 125.90878 
L 97.12136 91.736632 
L 100.945023 87.005105 
L 104.768687 81.222126 
L 108.592351 82.799296 
L 112.416015 88.582281 
L 116.239679 89.633732 
L 120.063342 83.325027 
L 123.887006 95.41671 
L 127.71067 90.685187 
L 131.534334 92.788088 
L 139.181661 81.222123 
L 143.005325 83.325028 
L 146.828989 90.159459 
L 150.652652 73.336252 
L 154.476316 82.273582 
L 158.29998 85.953651 
L 162.123644 81.222126 
L 165.947308 77.542046 
L 169.770971 73.336246 
L 173.594635 85.427928 
L 177.418299 83.325028 
L 181.241963 77.542047 
L 185.065626 72.810521 
L 188.88929 82.7993 
L 192.712954 64.398914 
L 196.536618 69.130444 
L 200.360282 67.553266 
L 204.183945 64.398916 
L 208.007609 68.078988 
L 211.831273 84.376478 
L 215.654937 60.718836 
L 219.4786 65.45037 
L 223.302264 79.119231 
L 227.125928 53.358684 
L 230.949592 64.924639 
L 234.773255 89.108006 
L 238.596919 57.564488 
L 242.420583 46.524252 
L 246.244247 63.873186 
L 250.067911 75.964865 
L 253.891574 53.884408 
L 257.715238 54.410133 
L 261.538902 65.450361 
L 265.362566 37.58692 
L 269.186229 48.101429 
L 273.009893 48.627152 
L 276.833557 48.101426 
L 280.657221 67.553266 
L 284.480885 37.061202 
L 288.304548 31.803944 
L 292.128212 74.913425 
L 295.951876 60.718834 
L 299.77554 43.369903 
L 303.599203 29.17532 
L 307.422867 29.701042 
L 311.246531 53.884408 
L 315.070195 28.123873 
L 318.893858 22.340878 
L 322.717522 30.752494 
L 326.541186 47.575701 
L 330.36485 62.296017 
L 334.188514 27.072414 
L 338.012177 22.866616 
L 341.835841 36.535474 
L 345.659505 24.443787 
L 349.483169 32.855397 
L 353.306832 25.495246 
L 357.130496 39.164101 
L 360.95416 39.164104 
L 364.777824 30.752491 
L 368.601488 24.969521 
L 372.425151 31.278225 
L 376.248815 26.546693 
L 380.072479 19.186539 
L 383.896143 27.598142 
L 387.719806 37.061205 
L 391.54347 47.575704 
L 395.367134 69.656175 
L 399.190798 33.906846 
L 403.014462 67.027546 
L 406.838125 37.58692 
L 410.661789 23.39235 
L 414.485453 22.866622 
L 418.309117 24.443781 
L 422.13278 21.289438 
L 425.956444 30.752494 
L 429.780108 20.76371 
L 433.603772 25.49524 
L 437.427435 22.866616 
L 441.251099 24.443793 
L 445.074763 22.866609 
L 448.898427 20.237992 
L 452.722091 26.020971 
L 456.545754 20.237982 
L 464.193082 29.701048 
L 468.016746 20.237988 
L 471.840409 25.495246 
L 475.664073 18.660814 
L 479.487737 33.906849 
L 483.311401 20.763716 
L 487.135065 33.381122 
L 490.958728 26.020968 
L 494.782392 24.443793 
L 498.606056 24.44379 
L 502.42972 25.495234 
L 506.253383 36.009749 
L 510.077047 19.71226 
L 513.900711 18.135083 
L 517.724375 20.763716 
L 521.548038 23.918059 
L 525.371702 18.660817 
L 529.195366 20.237988 
L 533.01903 23.392347 
L 536.842694 20.763707 
L 540.666357 22.340891 
L 544.490021 26.546696 
L 548.313685 22.340888 
L 552.137349 19.712264 
L 555.961012 17.609349 
L 559.784676 20.763707 
L 563.60834 17.083636 
L 567.432004 21.289438 
L 571.255668 17.609355 
L 575.079331 20.237988 
L 578.902995 21.289441 
L 582.726659 20.76371 
L 586.550323 21.289441 
L 590.373986 19.186529 
L 594.19765 20.237988 
L 598.021314 21.815169 
L 601.844978 19.186533 
L 609.492305 20.237988 
L 613.315969 21.289438 
L 617.139633 20.763713 
L 620.963297 20.763707 
L 624.78696 19.712254 
L 628.610624 18.135083 
L 632.434288 17.609364 
L 636.257952 20.763713 
L 640.081615 18.660805 
L 643.905279 21.289432 
L 647.728943 20.237988 
L 651.552607 19.71226 
L 655.376271 20.76371 
L 659.199934 21.289438 
L 663.023598 20.763713 
L 666.847262 23.392334 
L 670.670926 18.660808 
L 674.494589 22.866606 
L 678.318253 23.918059 
L 682.141917 19.71226 
L 689.789245 20.763713 
L 697.436572 19.712257 
L 701.260236 19.712251 
L 705.0839 20.237985 
L 708.907563 19.712264 
L 712.731227 19.71226 
L 716.554891 20.237985 
L 720.378555 19.186536 
L 724.202218 20.237988 
L 728.025882 19.712264 
L 731.849546 19.71226 
L 735.67321 22.866613 
L 739.496874 19.712264 
L 743.320537 19.712267 
L 747.144201 20.763716 
L 750.967865 20.76371 
L 758.615192 19.712264 
L 762.438856 20.76371 
L 766.26252 23.392334 
L 770.086184 22.340888 
L 773.909848 22.340891 
L 777.733511 20.763713 
L 781.557175 19.71226 
L 785.380839 20.763713 
L 789.204503 21.289441 
L 793.028166 18.660811 
L 796.85183 21.289441 
L 800.675494 18.660805 
L 804.499158 18.660814 
L 808.322821 22.340885 
L 812.146485 18.660817 
L 815.970149 19.186533 
L 819.793813 20.237982 
L 823.617477 20.763713 
L 827.44114 21.815169 
L 831.264804 19.71226 
L 835.088468 21.289435 
L 838.912132 18.660814 
L 842.735795 19.71226 
L 842.735795 19.71226 
" style="fill:none;stroke:#ff7f0e;stroke-linecap:square;stroke-width:1.5;"/>
   </g>
   <g id="line2d_20">
    <path clip-path="url(#pc75931b901)" d="M 81.826705 147.989246 
L 85.650368 130.114583 
L 89.474032 144.834892 
L 93.297696 125.90878 
L 97.12136 96.993888 
L 100.945023 143.783442 
L 104.768687 96.468158 
L 108.592351 88.056555 
L 112.416015 98.045342 
L 116.239679 92.262357 
L 120.063342 94.365254 
L 123.887006 83.325025 
L 127.71067 90.685184 
L 131.534334 84.376481 
L 135.357997 99.09679 
L 139.181661 94.365264 
L 146.828989 73.336247 
L 150.652652 88.582286 
L 154.476316 93.313809 
L 158.29998 104.879768 
L 162.123644 100.14824 
L 165.947308 88.58228 
L 169.770971 80.170676 
L 173.594635 101.199689 
L 177.418299 94.365255 
L 181.241963 84.376479 
L 185.065626 91.210908 
L 188.88929 85.953652 
L 192.712954 89.633726 
L 200.360282 80.170675 
L 204.183945 101.199691 
L 208.007609 85.953649 
L 211.831273 88.582281 
L 215.654937 89.108003 
L 219.4786 87.530825 
L 223.302264 89.633732 
L 227.125928 87.005107 
L 230.949592 87.005104 
L 234.773255 95.942435 
L 238.596919 92.26236 
L 242.420583 84.376475 
L 246.244247 93.839534 
L 250.067911 95.942433 
L 253.891574 75.964873 
L 257.715238 73.336252 
L 261.538902 89.633732 
L 265.362566 79.119234 
L 269.186229 72.284787 
L 273.009893 78.593502 
L 276.833557 80.170679 
L 280.657221 87.0051 
L 284.480885 81.222124 
L 288.304548 85.427929 
L 292.128212 83.325031 
L 295.951876 78.067772 
L 299.77554 70.707618 
L 303.599203 70.181897 
L 307.422867 83.850753 
L 311.246531 65.450362 
L 315.070195 76.490596 
L 318.893858 69.130444 
L 322.717522 75.964873 
L 326.541186 73.336249 
L 330.36485 82.273577 
L 334.188514 65.976089 
L 338.012177 66.501817 
L 341.835841 74.387689 
L 345.659505 86.479376 
L 349.483169 74.387698 
L 353.306832 82.273577 
L 357.130496 93.839534 
L 360.95416 77.542052 
L 364.777824 65.976095 
L 368.601488 79.644951 
L 372.425151 55.987311 
L 376.248815 60.718834 
L 380.072479 65.976093 
L 383.896143 59.667381 
L 387.719806 60.193111 
L 391.54347 54.410121 
L 395.367134 49.152879 
L 399.190798 94.365259 
L 403.014462 52.832962 
L 406.838125 42.844181 
L 410.661789 44.947077 
L 414.485453 45.472802 
L 418.309117 49.678604 
L 422.13278 41.266994 
L 425.956444 40.741272 
L 429.780108 43.369906 
L 433.603772 39.164101 
L 437.427435 51.255781 
L 441.251099 41.792725 
L 445.074763 73.861977 
L 448.898427 50.204328 
L 452.722091 52.832953 
L 456.545754 52.307231 
L 460.369418 41.792725 
L 464.193082 45.472799 
L 468.016746 41.266997 
L 471.840409 38.638376 
L 475.664073 40.215544 
L 479.487737 28.649598 
L 483.311401 46.524255 
L 487.135065 28.123864 
L 490.958728 37.061195 
L 494.782392 34.958299 
L 498.606056 33.906843 
L 502.42972 29.175317 
L 506.253383 31.278219 
L 510.077047 29.701035 
L 513.900711 31.278216 
L 517.724375 35.484021 
L 521.548038 35.484021 
L 525.371702 34.432568 
L 529.195366 35.484021 
L 533.01903 40.741275 
L 536.842694 31.278216 
L 540.666357 36.009746 
L 544.490021 33.381122 
L 548.313685 34.958299 
L 552.137349 31.278216 
L 555.961012 31.278225 
L 559.784676 34.432568 
L 563.60834 33.381115 
L 567.432004 28.123867 
L 571.255668 31.278219 
L 575.079331 30.226766 
L 578.902995 36.009743 
L 582.726659 30.752497 
L 586.550323 27.598148 
L 590.373986 30.226769 
L 598.021314 32.329672 
L 601.844978 33.906846 
L 605.668642 36.535467 
L 609.492305 33.906853 
L 613.315969 32.855397 
L 617.139633 30.752497 
L 620.963297 33.906849 
L 624.78696 32.8554 
L 628.610624 32.855397 
L 632.434288 27.598142 
L 636.257952 31.278225 
L 640.081615 30.226763 
L 643.905279 26.020971 
L 647.728943 29.175323 
L 651.552607 31.278219 
L 655.376271 26.546689 
L 659.199934 26.546696 
L 663.023598 25.495243 
L 666.847262 27.072414 
L 670.670926 25.495237 
L 678.318253 28.649589 
L 682.141917 26.546696 
L 685.965581 28.649595 
L 689.789245 25.49524 
L 693.612908 24.969518 
L 697.436572 24.969509 
L 701.260236 28.123867 
L 705.0839 27.072417 
L 708.907563 28.123867 
L 712.731227 28.649589 
L 716.554891 27.072421 
L 720.378555 27.072421 
L 724.202218 30.226766 
L 728.025882 26.020961 
L 731.849546 28.123861 
L 735.67321 28.649589 
L 739.496874 28.12387 
L 743.320537 27.072417 
L 747.144201 27.598145 
L 750.967865 28.649595 
L 754.791529 30.226769 
L 758.615192 28.649595 
L 762.438856 28.649589 
L 766.26252 28.123864 
L 770.086184 28.649592 
L 777.733511 27.598145 
L 781.557175 26.546689 
L 785.380839 26.546686 
L 789.204503 25.495243 
L 793.028166 27.598139 
L 796.85183 27.598139 
L 800.675494 28.649598 
L 804.499158 27.072421 
L 808.322821 27.598148 
L 812.146485 29.701045 
L 815.970149 29.175317 
L 819.793813 28.123867 
L 823.617477 27.598148 
L 827.44114 31.803944 
L 831.264804 35.484024 
L 835.088468 28.649586 
L 838.912132 67.553266 
L 842.735795 118.548629 
L 842.735795 118.548629 
" style="fill:none;stroke:#2ca02c;stroke-linecap:square;stroke-width:1.5;"/>
   </g>
   <g id="patch_3">
    <path d="M 43.78125 224.64 
L 43.78125 7.2 
" style="fill:none;stroke:#000000;stroke-linecap:square;stroke-linejoin:miter;stroke-width:0.8;"/>
   </g>
   <g id="patch_4">
    <path d="M 880.78125 224.64 
L 880.78125 7.2 
" style="fill:none;stroke:#000000;stroke-linecap:square;stroke-linejoin:miter;stroke-width:0.8;"/>
   </g>
   <g id="patch_5">
    <path d="M 43.78125 224.64 
L 880.78125 224.64 
" style="fill:none;stroke:#000000;stroke-linecap:square;stroke-linejoin:miter;stroke-width:0.8;"/>
   </g>
   <g id="patch_6">
    <path d="M 43.78125 7.2 
L 880.78125 7.2 
" style="fill:none;stroke:#000000;stroke-linecap:square;stroke-linejoin:miter;stroke-width:0.8;"/>
   </g>
   <g id="legend_1">
    <g id="patch_7">
     <path d="M 50.78125 60.06875 
L 191.59375 60.06875 
Q 193.59375 60.06875 193.59375 58.06875 
L 193.59375 14.2 
Q 193.59375 12.2 191.59375 12.2 
L 50.78125 12.2 
Q 48.78125 12.2 48.78125 14.2 
L 48.78125 58.06875 
Q 48.78125 60.06875 50.78125 60.06875 
z
" style="fill:#ffffff;opacity:0.8;stroke:#cccccc;stroke-linejoin:miter;"/>
    </g>
    <g id="line2d_21">
     <path d="M 52.78125 20.298438 
L 72.78125 20.298438 
" style="fill:none;stroke:#1f77b4;stroke-linecap:square;stroke-width:1.5;"/>
    </g>
    <g id="line2d_22"/>
    <g id="text_20">
     <!-- segnet_bce_score_val -->
     <g transform="translate(80.78125 23.798438)scale(0.1 -0.1)">
      <defs>
       <path d="M 45.40625 27.984375 
Q 45.40625 37.75 41.375 43.109375 
Q 37.359375 48.484375 30.078125 48.484375 
Q 22.859375 48.484375 18.828125 43.109375 
Q 14.796875 37.75 14.796875 27.984375 
Q 14.796875 18.265625 18.828125 12.890625 
Q 22.859375 7.515625 30.078125 7.515625 
Q 37.359375 7.515625 41.375 12.890625 
Q 45.40625 18.265625 45.40625 27.984375 
z
M 54.390625 6.78125 
Q 54.390625 -7.171875 48.1875 -13.984375 
Q 42 -20.796875 29.203125 -20.796875 
Q 24.46875 -20.796875 20.265625 -20.09375 
Q 16.0625 -19.390625 12.109375 -17.921875 
L 12.109375 -9.1875 
Q 16.0625 -11.328125 19.921875 -12.34375 
Q 23.78125 -13.375 27.78125 -13.375 
Q 36.625 -13.375 41.015625 -8.765625 
Q 45.40625 -4.15625 45.40625 5.171875 
L 45.40625 9.625 
Q 42.625 4.78125 38.28125 2.390625 
Q 33.9375 0 27.875 0 
Q 17.828125 0 11.671875 7.65625 
Q 5.515625 15.328125 5.515625 27.984375 
Q 5.515625 40.671875 11.671875 48.328125 
Q 17.828125 56 27.875 56 
Q 33.9375 56 38.28125 53.609375 
Q 42.625 51.21875 45.40625 46.390625 
L 45.40625 54.6875 
L 54.390625 54.6875 
z
" id="DejaVuSans-103"/>
       <path d="M 54.890625 33.015625 
L 54.890625 0 
L 45.90625 0 
L 45.90625 32.71875 
Q 45.90625 40.484375 42.875 44.328125 
Q 39.84375 48.1875 33.796875 48.1875 
Q 26.515625 48.1875 22.3125 43.546875 
Q 18.109375 38.921875 18.109375 30.90625 
L 18.109375 0 
L 9.078125 0 
L 9.078125 54.6875 
L 18.109375 54.6875 
L 18.109375 46.1875 
Q 21.34375 51.125 25.703125 53.5625 
Q 30.078125 56 35.796875 56 
Q 45.21875 56 50.046875 50.171875 
Q 54.890625 44.34375 54.890625 33.015625 
z
" id="DejaVuSans-110"/>
       <path d="M 18.3125 70.21875 
L 18.3125 54.6875 
L 36.8125 54.6875 
L 36.8125 47.703125 
L 18.3125 47.703125 
L 18.3125 18.015625 
Q 18.3125 11.328125 20.140625 9.421875 
Q 21.96875 7.515625 27.59375 7.515625 
L 36.8125 7.515625 
L 36.8125 0 
L 27.59375 0 
Q 17.1875 0 13.234375 3.875 
Q 9.28125 7.765625 9.28125 18.015625 
L 9.28125 47.703125 
L 2.6875 47.703125 
L 2.6875 54.6875 
L 9.28125 54.6875 
L 9.28125 70.21875 
z
" id="DejaVuSans-116"/>
       <path d="M 50.984375 -16.609375 
L 50.984375 -23.578125 
L -0.984375 -23.578125 
L -0.984375 -16.609375 
z
" id="DejaVuSans-95"/>
       <path d="M 48.6875 27.296875 
Q 48.6875 37.203125 44.609375 42.84375 
Q 40.53125 48.484375 33.40625 48.484375 
Q 26.265625 48.484375 22.1875 42.84375 
Q 18.109375 37.203125 18.109375 27.296875 
Q 18.109375 17.390625 22.1875 11.75 
Q 26.265625 6.109375 33.40625 6.109375 
Q 40.53125 6.109375 44.609375 11.75 
Q 48.6875 17.390625 48.6875 27.296875 
z
M 18.109375 46.390625 
Q 20.953125 51.265625 25.265625 53.625 
Q 29.59375 56 35.59375 56 
Q 45.5625 56 51.78125 48.09375 
Q 58.015625 40.1875 58.015625 27.296875 
Q 58.015625 14.40625 51.78125 6.484375 
Q 45.5625 -1.421875 35.59375 -1.421875 
Q 29.59375 -1.421875 25.265625 0.953125 
Q 20.953125 3.328125 18.109375 8.203125 
L 18.109375 0 
L 9.078125 0 
L 9.078125 75.984375 
L 18.109375 75.984375 
z
" id="DejaVuSans-98"/>
       <path d="M 2.984375 54.6875 
L 12.5 54.6875 
L 29.59375 8.796875 
L 46.6875 54.6875 
L 56.203125 54.6875 
L 35.6875 0 
L 23.484375 0 
z
" id="DejaVuSans-118"/>
       <path d="M 34.28125 27.484375 
Q 23.390625 27.484375 19.1875 25 
Q 14.984375 22.515625 14.984375 16.5 
Q 14.984375 11.71875 18.140625 8.90625 
Q 21.296875 6.109375 26.703125 6.109375 
Q 34.1875 6.109375 38.703125 11.40625 
Q 43.21875 16.703125 43.21875 25.484375 
L 43.21875 27.484375 
z
M 52.203125 31.203125 
L 52.203125 0 
L 43.21875 0 
L 43.21875 8.296875 
Q 40.140625 3.328125 35.546875 0.953125 
Q 30.953125 -1.421875 24.3125 -1.421875 
Q 15.921875 -1.421875 10.953125 3.296875 
Q 6 8.015625 6 15.921875 
Q 6 25.140625 12.171875 29.828125 
Q 18.359375 34.515625 30.609375 34.515625 
L 43.21875 34.515625 
L 43.21875 35.40625 
Q 43.21875 41.609375 39.140625 45 
Q 35.0625 48.390625 27.6875 48.390625 
Q 23 48.390625 18.546875 47.265625 
Q 14.109375 46.140625 10.015625 43.890625 
L 10.015625 52.203125 
Q 14.9375 54.109375 19.578125 55.046875 
Q 24.21875 56 28.609375 56 
Q 40.484375 56 46.34375 49.84375 
Q 52.203125 43.703125 52.203125 31.203125 
z
" id="DejaVuSans-97"/>
       <path d="M 9.421875 75.984375 
L 18.40625 75.984375 
L 18.40625 0 
L 9.421875 0 
z
" id="DejaVuSans-108"/>
      </defs>
      <use xlink:href="#DejaVuSans-115"/>
      <use x="52.099609" xlink:href="#DejaVuSans-101"/>
      <use x="113.623047" xlink:href="#DejaVuSans-103"/>
      <use x="177.099609" xlink:href="#DejaVuSans-110"/>
      <use x="240.478516" xlink:href="#DejaVuSans-101"/>
      <use x="302.001953" xlink:href="#DejaVuSans-116"/>
      <use x="341.210938" xlink:href="#DejaVuSans-95"/>
      <use x="391.210938" xlink:href="#DejaVuSans-98"/>
      <use x="454.6875" xlink:href="#DejaVuSans-99"/>
      <use x="509.667969" xlink:href="#DejaVuSans-101"/>
      <use x="571.191406" xlink:href="#DejaVuSans-95"/>
      <use x="621.191406" xlink:href="#DejaVuSans-115"/>
      <use x="673.291016" xlink:href="#DejaVuSans-99"/>
      <use x="728.271484" xlink:href="#DejaVuSans-111"/>
      <use x="789.453125" xlink:href="#DejaVuSans-114"/>
      <use x="828.316406" xlink:href="#DejaVuSans-101"/>
      <use x="889.839844" xlink:href="#DejaVuSans-95"/>
      <use x="939.839844" xlink:href="#DejaVuSans-118"/>
      <use x="999.019531" xlink:href="#DejaVuSans-97"/>
      <use x="1060.298828" xlink:href="#DejaVuSans-108"/>
     </g>
    </g>
    <g id="line2d_23">
     <path d="M 52.78125 35.254688 
L 72.78125 35.254688 
" style="fill:none;stroke:#ff7f0e;stroke-linecap:square;stroke-width:1.5;"/>
    </g>
    <g id="line2d_24"/>
    <g id="text_21">
     <!-- unet_bce_score_val -->
     <g transform="translate(80.78125 38.754688)scale(0.1 -0.1)">
      <defs>
       <path d="M 8.5 21.578125 
L 8.5 54.6875 
L 17.484375 54.6875 
L 17.484375 21.921875 
Q 17.484375 14.15625 20.5 10.265625 
Q 23.53125 6.390625 29.59375 6.390625 
Q 36.859375 6.390625 41.078125 11.03125 
Q 45.3125 15.671875 45.3125 23.6875 
L 45.3125 54.6875 
L 54.296875 54.6875 
L 54.296875 0 
L 45.3125 0 
L 45.3125 8.40625 
Q 42.046875 3.421875 37.71875 1 
Q 33.40625 -1.421875 27.6875 -1.421875 
Q 18.265625 -1.421875 13.375 4.4375 
Q 8.5 10.296875 8.5 21.578125 
z
M 31.109375 56 
z
" id="DejaVuSans-117"/>
      </defs>
      <use xlink:href="#DejaVuSans-117"/>
      <use x="63.378906" xlink:href="#DejaVuSans-110"/>
      <use x="126.757812" xlink:href="#DejaVuSans-101"/>
      <use x="188.28125" xlink:href="#DejaVuSans-116"/>
      <use x="227.490234" xlink:href="#DejaVuSans-95"/>
      <use x="277.490234" xlink:href="#DejaVuSans-98"/>
      <use x="340.966797" xlink:href="#DejaVuSans-99"/>
      <use x="395.947266" xlink:href="#DejaVuSans-101"/>
      <use x="457.470703" xlink:href="#DejaVuSans-95"/>
      <use x="507.470703" xlink:href="#DejaVuSans-115"/>
      <use x="559.570312" xlink:href="#DejaVuSans-99"/>
      <use x="614.550781" xlink:href="#DejaVuSans-111"/>
      <use x="675.732422" xlink:href="#DejaVuSans-114"/>
      <use x="714.595703" xlink:href="#DejaVuSans-101"/>
      <use x="776.119141" xlink:href="#DejaVuSans-95"/>
      <use x="826.119141" xlink:href="#DejaVuSans-118"/>
      <use x="885.298828" xlink:href="#DejaVuSans-97"/>
      <use x="946.578125" xlink:href="#DejaVuSans-108"/>
     </g>
    </g>
    <g id="line2d_25">
     <path d="M 52.78125 50.210938 
L 72.78125 50.210938 
" style="fill:none;stroke:#2ca02c;stroke-linecap:square;stroke-width:1.5;"/>
    </g>
    <g id="line2d_26"/>
    <g id="text_22">
     <!-- unet2_bce_score_val -->
     <g transform="translate(80.78125 53.710938)scale(0.1 -0.1)">
      <use xlink:href="#DejaVuSans-117"/>
      <use x="63.378906" xlink:href="#DejaVuSans-110"/>
      <use x="126.757812" xlink:href="#DejaVuSans-101"/>
      <use x="188.28125" xlink:href="#DejaVuSans-116"/>
      <use x="227.490234" xlink:href="#DejaVuSans-50"/>
      <use x="291.113281" xlink:href="#DejaVuSans-95"/>
      <use x="341.113281" xlink:href="#DejaVuSans-98"/>
      <use x="404.589844" xlink:href="#DejaVuSans-99"/>
      <use x="459.570312" xlink:href="#DejaVuSans-101"/>
      <use x="521.09375" xlink:href="#DejaVuSans-95"/>
      <use x="571.09375" xlink:href="#DejaVuSans-115"/>
      <use x="623.193359" xlink:href="#DejaVuSans-99"/>
      <use x="678.173828" xlink:href="#DejaVuSans-111"/>
      <use x="739.355469" xlink:href="#DejaVuSans-114"/>
      <use x="778.21875" xlink:href="#DejaVuSans-101"/>
      <use x="839.742188" xlink:href="#DejaVuSans-95"/>
      <use x="889.742188" xlink:href="#DejaVuSans-118"/>
      <use x="948.921875" xlink:href="#DejaVuSans-97"/>
      <use x="1010.201172" xlink:href="#DejaVuSans-108"/>
     </g>
    </g>
   </g>
  </g>
 </g>
 <defs>
  <clipPath id="pc75931b901">
   <rect height="217.44" width="837" x="43.78125" y="7.2"/>
  </clipPath>
 </defs>
</svg>
