<?xml version="1.0" encoding="utf-8" standalone="no"?>
<!DOCTYPE svg PUBLIC "-//W3C//DTD SVG 1.1//EN"
  "http://www.w3.org/Graphics/SVG/1.1/DTD/svg11.dtd">
<!-- Created with matplotlib (https://matplotlib.org/) -->
<svg height="262.19625pt" version="1.1" viewBox="0 0 894.34375 262.19625" width="894.34375pt" xmlns="http://www.w3.org/2000/svg" xmlns:xlink="http://www.w3.org/1999/xlink">
 <metadata>
  <rdf:RDF xmlns:cc="http://creativecommons.org/ns#" xmlns:dc="http://purl.org/dc/elements/1.1/" xmlns:rdf="http://www.w3.org/1999/02/22-rdf-syntax-ns#">
   <cc:Work>
    <dc:type rdf:resource="http://purl.org/dc/dcmitype/StillImage"/>
    <dc:date>2020-12-16T15:40:16.388637</dc:date>
    <dc:format>image/svg+xml</dc:format>
    <dc:creator>
     <cc:Agent>
      <dc:title>Matplotlib v3.3.3, https://matplotlib.org/</dc:title>
     </cc:Agent>
    </dc:creator>
   </cc:Work>
  </rdf:RDF>
 </metadata>
 <defs>
  <style type="text/css">*{stroke-linecap:butt;stroke-linejoin:round;}</style>
 </defs>
 <g id="figure_1">
  <g id="patch_1">
   <path d="M 0 262.19625 
L 894.34375 262.19625 
L 894.34375 0 
L 0 0 
z
" style="fill:none;"/>
  </g>
  <g id="axes_1">
   <g id="patch_2">
    <path d="M 50.14375 224.64 
L 887.14375 224.64 
L 887.14375 7.2 
L 50.14375 7.2 
z
" style="fill:#ffffff;"/>
   </g>
   <g id="matplotlib.axis_1">
    <g id="xtick_1">
     <g id="line2d_1">
      <defs>
       <path d="M 0 0 
L 0 3.5 
" id="m78be2629e9" style="stroke:#000000;stroke-width:0.8;"/>
      </defs>
      <g>
       <use style="stroke:#000000;stroke-width:0.8;" x="88.189205" xlink:href="#m78be2629e9" y="224.64"/>
      </g>
     </g>
     <g id="text_1">
      <!-- 0 -->
      <g transform="translate(85.007955 239.238437)scale(0.1 -0.1)">
       <defs>
        <path d="M 31.78125 66.40625 
Q 24.171875 66.40625 20.328125 58.90625 
Q 16.5 51.421875 16.5 36.375 
Q 16.5 21.390625 20.328125 13.890625 
Q 24.171875 6.390625 31.78125 6.390625 
Q 39.453125 6.390625 43.28125 13.890625 
Q 47.125 21.390625 47.125 36.375 
Q 47.125 51.421875 43.28125 58.90625 
Q 39.453125 66.40625 31.78125 66.40625 
z
M 31.78125 74.21875 
Q 44.046875 74.21875 50.515625 64.515625 
Q 56.984375 54.828125 56.984375 36.375 
Q 56.984375 17.96875 50.515625 8.265625 
Q 44.046875 -1.421875 31.78125 -1.421875 
Q 19.53125 -1.421875 13.0625 8.265625 
Q 6.59375 17.96875 6.59375 36.375 
Q 6.59375 54.828125 13.0625 64.515625 
Q 19.53125 74.21875 31.78125 74.21875 
z
" id="DejaVuSans-48"/>
       </defs>
       <use xlink:href="#DejaVuSans-48"/>
      </g>
     </g>
    </g>
    <g id="xtick_2">
     <g id="line2d_2">
      <g>
       <use style="stroke:#000000;stroke-width:0.8;" x="183.780799" xlink:href="#m78be2629e9" y="224.64"/>
      </g>
     </g>
     <g id="text_2">
      <!-- 25 -->
      <g transform="translate(177.418299 239.238437)scale(0.1 -0.1)">
       <defs>
        <path d="M 19.1875 8.296875 
L 53.609375 8.296875 
L 53.609375 0 
L 7.328125 0 
L 7.328125 8.296875 
Q 12.9375 14.109375 22.625 23.890625 
Q 32.328125 33.6875 34.8125 36.53125 
Q 39.546875 41.84375 41.421875 45.53125 
Q 43.3125 49.21875 43.3125 52.78125 
Q 43.3125 58.59375 39.234375 62.25 
Q 35.15625 65.921875 28.609375 65.921875 
Q 23.96875 65.921875 18.8125 64.3125 
Q 13.671875 62.703125 7.8125 59.421875 
L 7.8125 69.390625 
Q 13.765625 71.78125 18.9375 73 
Q 24.125 74.21875 28.421875 74.21875 
Q 39.75 74.21875 46.484375 68.546875 
Q 53.21875 62.890625 53.21875 53.421875 
Q 53.21875 48.921875 51.53125 44.890625 
Q 49.859375 40.875 45.40625 35.40625 
Q 44.1875 33.984375 37.640625 27.21875 
Q 31.109375 20.453125 19.1875 8.296875 
z
" id="DejaVuSans-50"/>
        <path d="M 10.796875 72.90625 
L 49.515625 72.90625 
L 49.515625 64.59375 
L 19.828125 64.59375 
L 19.828125 46.734375 
Q 21.96875 47.46875 24.109375 47.828125 
Q 26.265625 48.1875 28.421875 48.1875 
Q 40.625 48.1875 47.75 41.5 
Q 54.890625 34.8125 54.890625 23.390625 
Q 54.890625 11.625 47.5625 5.09375 
Q 40.234375 -1.421875 26.90625 -1.421875 
Q 22.3125 -1.421875 17.546875 -0.640625 
Q 12.796875 0.140625 7.71875 1.703125 
L 7.71875 11.625 
Q 12.109375 9.234375 16.796875 8.0625 
Q 21.484375 6.890625 26.703125 6.890625 
Q 35.15625 6.890625 40.078125 11.328125 
Q 45.015625 15.765625 45.015625 23.390625 
Q 45.015625 31 40.078125 35.4375 
Q 35.15625 39.890625 26.703125 39.890625 
Q 22.75 39.890625 18.8125 39.015625 
Q 14.890625 38.140625 10.796875 36.28125 
z
" id="DejaVuSans-53"/>
       </defs>
       <use xlink:href="#DejaVuSans-50"/>
       <use x="63.623047" xlink:href="#DejaVuSans-53"/>
      </g>
     </g>
    </g>
    <g id="xtick_3">
     <g id="line2d_3">
      <g>
       <use style="stroke:#000000;stroke-width:0.8;" x="279.372393" xlink:href="#m78be2629e9" y="224.64"/>
      </g>
     </g>
     <g id="text_3">
      <!-- 50 -->
      <g transform="translate(273.009893 239.238437)scale(0.1 -0.1)">
       <use xlink:href="#DejaVuSans-53"/>
       <use x="63.623047" xlink:href="#DejaVuSans-48"/>
      </g>
     </g>
    </g>
    <g id="xtick_4">
     <g id="line2d_4">
      <g>
       <use style="stroke:#000000;stroke-width:0.8;" x="374.963988" xlink:href="#m78be2629e9" y="224.64"/>
      </g>
     </g>
     <g id="text_4">
      <!-- 75 -->
      <g transform="translate(368.601488 239.238437)scale(0.1 -0.1)">
       <defs>
        <path d="M 8.203125 72.90625 
L 55.078125 72.90625 
L 55.078125 68.703125 
L 28.609375 0 
L 18.3125 0 
L 43.21875 64.59375 
L 8.203125 64.59375 
z
" id="DejaVuSans-55"/>
       </defs>
       <use xlink:href="#DejaVuSans-55"/>
       <use x="63.623047" xlink:href="#DejaVuSans-53"/>
      </g>
     </g>
    </g>
    <g id="xtick_5">
     <g id="line2d_5">
      <g>
       <use style="stroke:#000000;stroke-width:0.8;" x="470.555582" xlink:href="#m78be2629e9" y="224.64"/>
      </g>
     </g>
     <g id="text_5">
      <!-- 100 -->
      <g transform="translate(461.011832 239.238437)scale(0.1 -0.1)">
       <defs>
        <path d="M 12.40625 8.296875 
L 28.515625 8.296875 
L 28.515625 63.921875 
L 10.984375 60.40625 
L 10.984375 69.390625 
L 28.421875 72.90625 
L 38.28125 72.90625 
L 38.28125 8.296875 
L 54.390625 8.296875 
L 54.390625 0 
L 12.40625 0 
z
" id="DejaVuSans-49"/>
       </defs>
       <use xlink:href="#DejaVuSans-49"/>
       <use x="63.623047" xlink:href="#DejaVuSans-48"/>
       <use x="127.246094" xlink:href="#DejaVuSans-48"/>
      </g>
     </g>
    </g>
    <g id="xtick_6">
     <g id="line2d_6">
      <g>
       <use style="stroke:#000000;stroke-width:0.8;" x="566.147176" xlink:href="#m78be2629e9" y="224.64"/>
      </g>
     </g>
     <g id="text_6">
      <!-- 125 -->
      <g transform="translate(556.603426 239.238437)scale(0.1 -0.1)">
       <use xlink:href="#DejaVuSans-49"/>
       <use x="63.623047" xlink:href="#DejaVuSans-50"/>
       <use x="127.246094" xlink:href="#DejaVuSans-53"/>
      </g>
     </g>
    </g>
    <g id="xtick_7">
     <g id="line2d_7">
      <g>
       <use style="stroke:#000000;stroke-width:0.8;" x="661.738771" xlink:href="#m78be2629e9" y="224.64"/>
      </g>
     </g>
     <g id="text_7">
      <!-- 150 -->
      <g transform="translate(652.195021 239.238437)scale(0.1 -0.1)">
       <use xlink:href="#DejaVuSans-49"/>
       <use x="63.623047" xlink:href="#DejaVuSans-53"/>
       <use x="127.246094" xlink:href="#DejaVuSans-48"/>
      </g>
     </g>
    </g>
    <g id="xtick_8">
     <g id="line2d_8">
      <g>
       <use style="stroke:#000000;stroke-width:0.8;" x="757.330365" xlink:href="#m78be2629e9" y="224.64"/>
      </g>
     </g>
     <g id="text_8">
      <!-- 175 -->
      <g transform="translate(747.786615 239.238437)scale(0.1 -0.1)">
       <use xlink:href="#DejaVuSans-49"/>
       <use x="63.623047" xlink:href="#DejaVuSans-55"/>
       <use x="127.246094" xlink:href="#DejaVuSans-53"/>
      </g>
     </g>
    </g>
    <g id="xtick_9">
     <g id="line2d_9">
      <g>
       <use style="stroke:#000000;stroke-width:0.8;" x="852.921959" xlink:href="#m78be2629e9" y="224.64"/>
      </g>
     </g>
     <g id="text_9">
      <!-- 200 -->
      <g transform="translate(843.378209 239.238437)scale(0.1 -0.1)">
       <use xlink:href="#DejaVuSans-50"/>
       <use x="63.623047" xlink:href="#DejaVuSans-48"/>
       <use x="127.246094" xlink:href="#DejaVuSans-48"/>
      </g>
     </g>
    </g>
    <g id="text_10">
     <!-- epoch -->
     <g transform="translate(453.415625 252.916562)scale(0.1 -0.1)">
      <defs>
       <path d="M 56.203125 29.59375 
L 56.203125 25.203125 
L 14.890625 25.203125 
Q 15.484375 15.921875 20.484375 11.0625 
Q 25.484375 6.203125 34.421875 6.203125 
Q 39.59375 6.203125 44.453125 7.46875 
Q 49.3125 8.734375 54.109375 11.28125 
L 54.109375 2.78125 
Q 49.265625 0.734375 44.1875 -0.34375 
Q 39.109375 -1.421875 33.890625 -1.421875 
Q 20.796875 -1.421875 13.15625 6.1875 
Q 5.515625 13.8125 5.515625 26.8125 
Q 5.515625 40.234375 12.765625 48.109375 
Q 20.015625 56 32.328125 56 
Q 43.359375 56 49.78125 48.890625 
Q 56.203125 41.796875 56.203125 29.59375 
z
M 47.21875 32.234375 
Q 47.125 39.59375 43.09375 43.984375 
Q 39.0625 48.390625 32.421875 48.390625 
Q 24.90625 48.390625 20.390625 44.140625 
Q 15.875 39.890625 15.1875 32.171875 
z
" id="DejaVuSans-101"/>
       <path d="M 18.109375 8.203125 
L 18.109375 -20.796875 
L 9.078125 -20.796875 
L 9.078125 54.6875 
L 18.109375 54.6875 
L 18.109375 46.390625 
Q 20.953125 51.265625 25.265625 53.625 
Q 29.59375 56 35.59375 56 
Q 45.5625 56 51.78125 48.09375 
Q 58.015625 40.1875 58.015625 27.296875 
Q 58.015625 14.40625 51.78125 6.484375 
Q 45.5625 -1.421875 35.59375 -1.421875 
Q 29.59375 -1.421875 25.265625 0.953125 
Q 20.953125 3.328125 18.109375 8.203125 
z
M 48.6875 27.296875 
Q 48.6875 37.203125 44.609375 42.84375 
Q 40.53125 48.484375 33.40625 48.484375 
Q 26.265625 48.484375 22.1875 42.84375 
Q 18.109375 37.203125 18.109375 27.296875 
Q 18.109375 17.390625 22.1875 11.75 
Q 26.265625 6.109375 33.40625 6.109375 
Q 40.53125 6.109375 44.609375 11.75 
Q 48.6875 17.390625 48.6875 27.296875 
z
" id="DejaVuSans-112"/>
       <path d="M 30.609375 48.390625 
Q 23.390625 48.390625 19.1875 42.75 
Q 14.984375 37.109375 14.984375 27.296875 
Q 14.984375 17.484375 19.15625 11.84375 
Q 23.34375 6.203125 30.609375 6.203125 
Q 37.796875 6.203125 41.984375 11.859375 
Q 46.1875 17.53125 46.1875 27.296875 
Q 46.1875 37.015625 41.984375 42.703125 
Q 37.796875 48.390625 30.609375 48.390625 
z
M 30.609375 56 
Q 42.328125 56 49.015625 48.375 
Q 55.71875 40.765625 55.71875 27.296875 
Q 55.71875 13.875 49.015625 6.21875 
Q 42.328125 -1.421875 30.609375 -1.421875 
Q 18.84375 -1.421875 12.171875 6.21875 
Q 5.515625 13.875 5.515625 27.296875 
Q 5.515625 40.765625 12.171875 48.375 
Q 18.84375 56 30.609375 56 
z
" id="DejaVuSans-111"/>
       <path d="M 48.78125 52.59375 
L 48.78125 44.1875 
Q 44.96875 46.296875 41.140625 47.34375 
Q 37.3125 48.390625 33.40625 48.390625 
Q 24.65625 48.390625 19.8125 42.84375 
Q 14.984375 37.3125 14.984375 27.296875 
Q 14.984375 17.28125 19.8125 11.734375 
Q 24.65625 6.203125 33.40625 6.203125 
Q 37.3125 6.203125 41.140625 7.25 
Q 44.96875 8.296875 48.78125 10.40625 
L 48.78125 2.09375 
Q 45.015625 0.34375 40.984375 -0.53125 
Q 36.96875 -1.421875 32.421875 -1.421875 
Q 20.0625 -1.421875 12.78125 6.34375 
Q 5.515625 14.109375 5.515625 27.296875 
Q 5.515625 40.671875 12.859375 48.328125 
Q 20.21875 56 33.015625 56 
Q 37.15625 56 41.109375 55.140625 
Q 45.0625 54.296875 48.78125 52.59375 
z
" id="DejaVuSans-99"/>
       <path d="M 54.890625 33.015625 
L 54.890625 0 
L 45.90625 0 
L 45.90625 32.71875 
Q 45.90625 40.484375 42.875 44.328125 
Q 39.84375 48.1875 33.796875 48.1875 
Q 26.515625 48.1875 22.3125 43.546875 
Q 18.109375 38.921875 18.109375 30.90625 
L 18.109375 0 
L 9.078125 0 
L 9.078125 75.984375 
L 18.109375 75.984375 
L 18.109375 46.1875 
Q 21.34375 51.125 25.703125 53.5625 
Q 30.078125 56 35.796875 56 
Q 45.21875 56 50.046875 50.171875 
Q 54.890625 44.34375 54.890625 33.015625 
z
" id="DejaVuSans-104"/>
      </defs>
      <use xlink:href="#DejaVuSans-101"/>
      <use x="61.523438" xlink:href="#DejaVuSans-112"/>
      <use x="125" xlink:href="#DejaVuSans-111"/>
      <use x="186.181641" xlink:href="#DejaVuSans-99"/>
      <use x="241.162109" xlink:href="#DejaVuSans-104"/>
     </g>
    </g>
   </g>
   <g id="matplotlib.axis_2">
    <g id="ytick_1">
     <g id="line2d_10">
      <defs>
       <path d="M 0 0 
L -3.5 0 
" id="m0d9b05a55c" style="stroke:#000000;stroke-width:0.8;"/>
      </defs>
      <g>
       <use style="stroke:#000000;stroke-width:0.8;" x="50.14375" xlink:href="#m0d9b05a55c" y="207.480068"/>
      </g>
     </g>
     <g id="text_11">
      <!-- 0.05 -->
      <g transform="translate(20.878125 211.279287)scale(0.1 -0.1)">
       <defs>
        <path d="M 10.6875 12.40625 
L 21 12.40625 
L 21 0 
L 10.6875 0 
z
" id="DejaVuSans-46"/>
       </defs>
       <use xlink:href="#DejaVuSans-48"/>
       <use x="63.623047" xlink:href="#DejaVuSans-46"/>
       <use x="95.410156" xlink:href="#DejaVuSans-48"/>
       <use x="159.033203" xlink:href="#DejaVuSans-53"/>
      </g>
     </g>
    </g>
    <g id="ytick_2">
     <g id="line2d_11">
      <g>
       <use style="stroke:#000000;stroke-width:0.8;" x="50.14375" xlink:href="#m0d9b05a55c" y="177.162166"/>
      </g>
     </g>
     <g id="text_12">
      <!-- 0.10 -->
      <g transform="translate(20.878125 180.961385)scale(0.1 -0.1)">
       <use xlink:href="#DejaVuSans-48"/>
       <use x="63.623047" xlink:href="#DejaVuSans-46"/>
       <use x="95.410156" xlink:href="#DejaVuSans-49"/>
       <use x="159.033203" xlink:href="#DejaVuSans-48"/>
      </g>
     </g>
    </g>
    <g id="ytick_3">
     <g id="line2d_12">
      <g>
       <use style="stroke:#000000;stroke-width:0.8;" x="50.14375" xlink:href="#m0d9b05a55c" y="146.844264"/>
      </g>
     </g>
     <g id="text_13">
      <!-- 0.15 -->
      <g transform="translate(20.878125 150.643483)scale(0.1 -0.1)">
       <use xlink:href="#DejaVuSans-48"/>
       <use x="63.623047" xlink:href="#DejaVuSans-46"/>
       <use x="95.410156" xlink:href="#DejaVuSans-49"/>
       <use x="159.033203" xlink:href="#DejaVuSans-53"/>
      </g>
     </g>
    </g>
    <g id="ytick_4">
     <g id="line2d_13">
      <g>
       <use style="stroke:#000000;stroke-width:0.8;" x="50.14375" xlink:href="#m0d9b05a55c" y="116.526362"/>
      </g>
     </g>
     <g id="text_14">
      <!-- 0.20 -->
      <g transform="translate(20.878125 120.325581)scale(0.1 -0.1)">
       <use xlink:href="#DejaVuSans-48"/>
       <use x="63.623047" xlink:href="#DejaVuSans-46"/>
       <use x="95.410156" xlink:href="#DejaVuSans-50"/>
       <use x="159.033203" xlink:href="#DejaVuSans-48"/>
      </g>
     </g>
    </g>
    <g id="ytick_5">
     <g id="line2d_14">
      <g>
       <use style="stroke:#000000;stroke-width:0.8;" x="50.14375" xlink:href="#m0d9b05a55c" y="86.208461"/>
      </g>
     </g>
     <g id="text_15">
      <!-- 0.25 -->
      <g transform="translate(20.878125 90.007679)scale(0.1 -0.1)">
       <use xlink:href="#DejaVuSans-48"/>
       <use x="63.623047" xlink:href="#DejaVuSans-46"/>
       <use x="95.410156" xlink:href="#DejaVuSans-50"/>
       <use x="159.033203" xlink:href="#DejaVuSans-53"/>
      </g>
     </g>
    </g>
    <g id="ytick_6">
     <g id="line2d_15">
      <g>
       <use style="stroke:#000000;stroke-width:0.8;" x="50.14375" xlink:href="#m0d9b05a55c" y="55.890559"/>
      </g>
     </g>
     <g id="text_16">
      <!-- 0.30 -->
      <g transform="translate(20.878125 59.689778)scale(0.1 -0.1)">
       <defs>
        <path d="M 40.578125 39.3125 
Q 47.65625 37.796875 51.625 33 
Q 55.609375 28.21875 55.609375 21.1875 
Q 55.609375 10.40625 48.1875 4.484375 
Q 40.765625 -1.421875 27.09375 -1.421875 
Q 22.515625 -1.421875 17.65625 -0.515625 
Q 12.796875 0.390625 7.625 2.203125 
L 7.625 11.71875 
Q 11.71875 9.328125 16.59375 8.109375 
Q 21.484375 6.890625 26.8125 6.890625 
Q 36.078125 6.890625 40.9375 10.546875 
Q 45.796875 14.203125 45.796875 21.1875 
Q 45.796875 27.640625 41.28125 31.265625 
Q 36.765625 34.90625 28.71875 34.90625 
L 20.21875 34.90625 
L 20.21875 43.015625 
L 29.109375 43.015625 
Q 36.375 43.015625 40.234375 45.921875 
Q 44.09375 48.828125 44.09375 54.296875 
Q 44.09375 59.90625 40.109375 62.90625 
Q 36.140625 65.921875 28.71875 65.921875 
Q 24.65625 65.921875 20.015625 65.03125 
Q 15.375 64.15625 9.8125 62.3125 
L 9.8125 71.09375 
Q 15.4375 72.65625 20.34375 73.4375 
Q 25.25 74.21875 29.59375 74.21875 
Q 40.828125 74.21875 47.359375 69.109375 
Q 53.90625 64.015625 53.90625 55.328125 
Q 53.90625 49.265625 50.4375 45.09375 
Q 46.96875 40.921875 40.578125 39.3125 
z
" id="DejaVuSans-51"/>
       </defs>
       <use xlink:href="#DejaVuSans-48"/>
       <use x="63.623047" xlink:href="#DejaVuSans-46"/>
       <use x="95.410156" xlink:href="#DejaVuSans-51"/>
       <use x="159.033203" xlink:href="#DejaVuSans-48"/>
      </g>
     </g>
    </g>
    <g id="ytick_7">
     <g id="line2d_16">
      <g>
       <use style="stroke:#000000;stroke-width:0.8;" x="50.14375" xlink:href="#m0d9b05a55c" y="25.572657"/>
      </g>
     </g>
     <g id="text_17">
      <!-- 0.35 -->
      <g transform="translate(20.878125 29.371876)scale(0.1 -0.1)">
       <use xlink:href="#DejaVuSans-48"/>
       <use x="63.623047" xlink:href="#DejaVuSans-46"/>
       <use x="95.410156" xlink:href="#DejaVuSans-51"/>
       <use x="159.033203" xlink:href="#DejaVuSans-53"/>
      </g>
     </g>
    </g>
    <g id="text_18">
     <!-- score -->
     <g transform="translate(14.798437 129.352812)rotate(-90)scale(0.1 -0.1)">
      <defs>
       <path d="M 44.28125 53.078125 
L 44.28125 44.578125 
Q 40.484375 46.53125 36.375 47.5 
Q 32.28125 48.484375 27.875 48.484375 
Q 21.1875 48.484375 17.84375 46.4375 
Q 14.5 44.390625 14.5 40.28125 
Q 14.5 37.15625 16.890625 35.375 
Q 19.28125 33.59375 26.515625 31.984375 
L 29.59375 31.296875 
Q 39.15625 29.25 43.1875 25.515625 
Q 47.21875 21.78125 47.21875 15.09375 
Q 47.21875 7.46875 41.1875 3.015625 
Q 35.15625 -1.421875 24.609375 -1.421875 
Q 20.21875 -1.421875 15.453125 -0.5625 
Q 10.6875 0.296875 5.421875 2 
L 5.421875 11.28125 
Q 10.40625 8.6875 15.234375 7.390625 
Q 20.0625 6.109375 24.8125 6.109375 
Q 31.15625 6.109375 34.5625 8.28125 
Q 37.984375 10.453125 37.984375 14.40625 
Q 37.984375 18.0625 35.515625 20.015625 
Q 33.0625 21.96875 24.703125 23.78125 
L 21.578125 24.515625 
Q 13.234375 26.265625 9.515625 29.90625 
Q 5.8125 33.546875 5.8125 39.890625 
Q 5.8125 47.609375 11.28125 51.796875 
Q 16.75 56 26.8125 56 
Q 31.78125 56 36.171875 55.265625 
Q 40.578125 54.546875 44.28125 53.078125 
z
" id="DejaVuSans-115"/>
       <path d="M 41.109375 46.296875 
Q 39.59375 47.171875 37.8125 47.578125 
Q 36.03125 48 33.890625 48 
Q 26.265625 48 22.1875 43.046875 
Q 18.109375 38.09375 18.109375 28.8125 
L 18.109375 0 
L 9.078125 0 
L 9.078125 54.6875 
L 18.109375 54.6875 
L 18.109375 46.1875 
Q 20.953125 51.171875 25.484375 53.578125 
Q 30.03125 56 36.53125 56 
Q 37.453125 56 38.578125 55.875 
Q 39.703125 55.765625 41.0625 55.515625 
z
" id="DejaVuSans-114"/>
      </defs>
      <use xlink:href="#DejaVuSans-115"/>
      <use x="52.099609" xlink:href="#DejaVuSans-99"/>
      <use x="107.080078" xlink:href="#DejaVuSans-111"/>
      <use x="168.261719" xlink:href="#DejaVuSans-114"/>
      <use x="207.125" xlink:href="#DejaVuSans-101"/>
     </g>
    </g>
   </g>
   <g id="line2d_17">
    <path clip-path="url(#p61e837d22d)" d="M 88.189205 214.756364 
L 92.012868 179.587596 
L 95.836532 160.184137 
L 99.660196 155.333269 
L 103.48386 161.396854 
L 107.307523 161.396854 
L 111.131187 163.822287 
L 114.954851 152.907842 
L 118.778515 163.822288 
L 122.602179 72.868578 
L 126.425842 122.589942 
L 130.249506 123.802655 
L 134.07317 95.910184 
L 137.896834 97.122902 
L 141.720497 75.294012 
L 145.544161 84.995733 
L 149.367825 66.804995 
L 153.191489 94.697467 
L 157.015152 66.804998 
L 160.838816 72.868575 
L 164.66248 97.122893 
L 168.486144 69.230425 
L 172.309808 80.14488 
L 176.133471 72.868582 
L 179.957135 81.357594 
L 183.780799 61.954135 
L 187.604463 74.08129 
L 191.428126 81.357592 
L 195.25179 83.783024 
L 199.075454 70.44314 
L 202.899118 87.421172 
L 206.722782 60.741424 
L 210.546445 78.932157 
L 214.370109 76.506727 
L 218.193773 76.506732 
L 222.017437 77.719441 
L 225.8411 74.081297 
L 229.664764 60.741424 
L 233.488428 93.484747 
L 237.312092 82.570309 
L 241.135755 72.868587 
L 244.959419 71.655862 
L 248.783083 88.633892 
L 252.606747 70.443149 
L 256.430411 77.719445 
L 260.254074 68.017717 
L 264.077738 60.74142 
L 267.901402 83.783025 
L 271.725066 60.74142 
L 275.548729 80.14487 
L 279.372393 69.230432 
L 283.196057 57.103265 
L 287.019721 66.805 
L 290.843385 83.783027 
L 294.667048 78.932158 
L 298.490712 57.103267 
L 302.314376 92.272036 
L 306.13804 78.932163 
L 309.961703 71.65586 
L 313.785367 75.294008 
L 317.609031 71.655865 
L 321.432695 70.443154 
L 325.256358 54.677837 
L 329.080022 84.995739 
L 332.903686 69.230432 
L 336.72735 59.528704 
L 340.551014 105.611908 
L 344.374677 60.741413 
L 348.198341 83.783025 
L 352.022005 71.655862 
L 355.845669 71.655865 
L 359.669332 58.315983 
L 363.492996 71.655853 
L 367.31666 57.103259 
L 371.140324 43.763393 
L 374.963988 58.31598 
L 378.787651 47.401542 
L 382.611315 66.804997 
L 386.434979 89.846605 
L 390.258643 63.166856 
L 394.082306 65.592285 
L 397.90597 74.081299 
L 401.729634 53.465125 
L 405.553298 58.315987 
L 409.376962 54.677828 
L 417.024289 69.230434 
L 420.847953 59.528696 
L 424.671617 71.655862 
L 428.49528 51.039697 
L 432.318944 49.826966 
L 436.142608 77.719438 
L 439.966272 77.719442 
L 443.789935 65.592285 
L 447.613599 49.826973 
L 451.437263 58.315983 
L 455.260927 68.017717 
L 459.084591 70.443147 
L 462.908254 69.23043 
L 466.731918 63.166845 
L 470.555582 76.506725 
L 474.379246 92.272032 
L 478.202909 58.315983 
L 482.026573 53.46512 
L 485.850237 63.166847 
L 489.673901 86.208452 
L 493.497565 76.506723 
L 497.321228 60.741411 
L 501.144892 74.081293 
L 504.968556 101.973767 
L 508.79222 86.208455 
L 512.615883 81.357583 
L 516.439547 77.719442 
L 520.263211 103.186479 
L 524.086875 57.103274 
L 527.910538 68.01771 
L 531.734202 59.528696 
L 535.557866 58.315981 
L 539.38153 59.528704 
L 543.205194 74.08129 
L 547.028857 36.487099 
L 550.852521 65.592276 
L 554.676185 41.337958 
L 558.499849 51.039688 
L 562.323512 44.976112 
L 566.147176 66.805 
L 569.97084 60.741411 
L 573.794504 76.506727 
L 577.618168 77.719438 
L 585.265495 65.592284 
L 589.089159 71.655862 
L 592.912823 59.5287 
L 596.736486 66.805002 
L 604.383814 61.954139 
L 608.207478 80.144875 
L 612.031142 70.443138 
L 615.854805 64.379563 
L 619.678469 68.017719 
L 623.502133 61.95413 
L 627.325797 60.741413 
L 631.14946 42.550678 
L 634.973124 59.528704 
L 638.796788 55.89055 
L 642.620452 76.506728 
L 646.444115 71.65586 
L 650.267779 59.528704 
L 654.091443 57.103267 
L 657.915107 77.719447 
L 661.738771 61.954131 
L 665.562434 60.741417 
L 669.386098 53.465118 
L 673.209762 66.804998 
L 677.033426 64.379565 
L 680.857089 52.252407 
L 684.680753 54.677833 
L 688.504417 68.017717 
L 692.328081 64.379565 
L 696.151745 58.315989 
L 699.975408 76.506724 
L 703.799072 68.017717 
L 707.622736 65.592287 
L 711.4464 58.315983 
L 715.270063 57.10327 
L 719.093727 68.017715 
L 722.917391 75.294007 
L 726.741055 72.868578 
L 730.564718 57.10327 
L 734.388382 64.37957 
L 738.212046 53.465115 
L 742.03571 71.655862 
L 745.859374 61.954137 
L 749.683037 71.655862 
L 753.506701 68.017717 
L 757.330365 74.081299 
L 761.154029 61.954139 
L 764.977692 48.614253 
L 768.801356 69.230427 
L 772.62502 66.804997 
L 776.448684 74.0813 
L 780.272348 75.294012 
L 784.096011 71.655864 
L 787.919675 71.655856 
L 791.743339 70.443149 
L 795.567003 86.208453 
L 799.390666 86.208457 
L 803.21433 78.93216 
L 807.037994 75.29401 
L 810.861658 64.379561 
L 814.685321 80.144873 
L 822.332649 70.443147 
L 826.156313 64.379563 
L 829.979977 70.443146 
L 833.80364 64.379567 
L 837.627304 70.443143 
L 841.450968 77.719445 
L 845.274632 69.230425 
L 849.098295 43.763388 
L 849.098295 43.763388 
" style="fill:none;stroke:#1f77b4;stroke-linecap:square;stroke-width:1.5;"/>
   </g>
   <g id="line2d_18">
    <path clip-path="url(#p61e837d22d)" d="M 88.189205 111.675496 
L 92.012868 92.272034 
L 95.836532 101.973768 
L 99.660196 212.33093 
L 103.48386 111.675489 
L 107.307523 98.335617 
L 111.131187 58.315987 
L 114.954851 99.548334 
L 118.778515 76.506729 
L 122.602179 95.910187 
L 126.425842 77.719439 
L 130.249506 108.037343 
L 134.07317 103.18648 
L 137.896834 87.421167 
L 141.720497 87.421172 
L 145.544161 68.017711 
L 149.367825 86.208453 
L 153.191489 86.208459 
L 157.015152 89.846599 
L 160.838816 47.401544 
L 164.66248 61.95413 
L 168.486144 89.846607 
L 172.309808 81.357588 
L 176.133471 84.99574 
L 179.957135 82.570301 
L 183.780799 84.995742 
L 187.604463 64.37957 
L 195.25179 98.335615 
L 199.075454 55.89055 
L 202.899118 53.465118 
L 206.722782 84.995734 
L 210.546445 60.74142 
L 214.370109 63.166853 
L 218.193773 87.421175 
L 222.017437 71.655865 
L 225.8411 57.103261 
L 229.664764 48.61426 
L 233.488428 84.995741 
L 237.312092 83.783027 
L 241.135755 64.379569 
L 244.959419 89.846603 
L 248.783083 44.976108 
L 252.606747 76.506731 
L 256.430411 103.186475 
L 260.254074 81.357587 
L 264.077738 66.804998 
L 267.901402 88.633891 
L 271.725066 52.252398 
L 275.548729 82.570309 
L 279.372393 89.846602 
L 283.196057 72.868578 
L 287.019721 72.868575 
L 290.843385 87.421174 
L 294.667048 64.379563 
L 298.490712 76.506723 
L 302.314376 52.252407 
L 306.13804 84.995733 
L 309.961703 69.230423 
L 313.785367 101.973771 
L 317.609031 92.272037 
L 321.432695 68.017715 
L 325.256358 83.783022 
L 329.080022 89.846604 
L 332.903686 100.761052 
L 336.72735 37.699812 
L 340.551014 118.951792 
L 344.374677 80.144877 
L 348.198341 91.059322 
L 352.022005 77.719444 
L 355.845669 91.059318 
L 363.492996 86.208451 
L 367.31666 80.144879 
L 371.140324 72.868584 
L 374.963988 101.973762 
L 378.787651 105.611914 
L 382.611315 83.783024 
L 386.434979 82.570307 
L 390.258643 75.294005 
L 394.082306 77.719442 
L 397.90597 53.465113 
L 401.729634 105.61191 
L 405.553298 95.910181 
L 409.376962 80.144879 
L 413.200625 80.144872 
L 417.024289 86.20845 
L 420.847953 74.081302 
L 424.671617 81.357592 
L 428.49528 89.846598 
L 432.318944 74.081298 
L 436.142608 70.443143 
L 439.966272 63.166852 
L 443.789935 88.633887 
L 447.613599 97.122897 
L 451.437263 65.592287 
L 455.260927 58.315983 
L 459.084591 99.54833 
L 462.908254 58.315983 
L 466.731918 82.570307 
L 470.555582 71.655861 
L 474.379246 51.03969 
L 478.202909 84.995742 
L 482.026573 75.294005 
L 485.850237 76.506729 
L 489.673901 80.144875 
L 493.497565 59.5287 
L 497.321228 69.23043 
L 501.144892 92.272037 
L 504.968556 84.995746 
L 508.79222 59.528697 
L 512.615883 54.677833 
L 516.439547 80.144873 
L 520.263211 81.357587 
L 524.086875 77.71945 
L 527.910538 70.443147 
L 531.734202 75.294014 
L 535.557866 84.99574 
L 539.38153 66.804997 
L 543.205194 68.017719 
L 547.028857 87.421176 
L 550.852521 71.655865 
L 554.676185 100.761054 
L 558.499849 98.335619 
L 562.323512 135.92982 
L 566.147176 112.888208 
L 569.97084 99.548328 
L 573.794504 77.719442 
L 577.618168 93.484751 
L 581.441831 72.868575 
L 585.265495 51.039687 
L 589.089159 55.890553 
L 592.912823 71.655865 
L 596.736486 89.846603 
L 600.56015 70.443145 
L 604.383814 70.443149 
L 608.207478 103.186482 
L 612.031142 63.16685 
L 615.854805 82.570312 
L 619.678469 76.506729 
L 623.502133 65.592278 
L 627.325797 81.357586 
L 631.14946 64.379567 
L 634.973124 69.230429 
L 638.796788 98.335613 
L 642.620452 70.443144 
L 646.444115 80.144879 
L 650.267779 83.783027 
L 654.091443 82.570312 
L 657.915107 60.741416 
L 661.738771 36.487097 
L 665.562434 101.973767 
L 669.386098 88.633889 
L 673.209762 81.357588 
L 677.033426 91.059326 
L 680.857089 89.846602 
L 684.680753 53.465118 
L 688.504417 66.804998 
L 692.328081 63.166841 
L 696.151745 77.719449 
L 699.975408 70.443143 
L 703.799072 68.017719 
L 707.622736 77.719444 
L 711.4464 76.506723 
L 715.270063 70.443142 
L 719.093727 72.868575 
L 722.917391 71.655856 
L 726.741055 51.03969 
L 730.564718 80.144875 
L 734.388382 88.63389 
L 738.212046 63.166848 
L 742.03571 81.357592 
L 745.859374 59.528702 
L 749.683037 83.783029 
L 753.506701 86.208453 
L 757.330365 98.335613 
L 761.154029 58.31599 
L 764.977692 61.954137 
L 768.801356 66.804995 
L 772.62502 52.252398 
L 776.448684 40.125241 
L 784.096011 71.655865 
L 787.919675 59.528707 
L 791.743339 74.081292 
L 795.567003 68.017713 
L 799.390666 43.763389 
L 803.21433 49.826966 
L 807.037994 53.465122 
L 810.861658 38.912521 
L 814.685321 74.081293 
L 818.508985 37.699815 
L 822.332649 46.188821 
L 826.156313 49.826966 
L 833.80364 64.379567 
L 837.627304 51.039688 
L 841.450968 17.083642 
L 845.274632 76.506721 
L 849.098295 32.848952 
L 849.098295 32.848952 
" style="fill:none;stroke:#ff7f0e;stroke-linecap:square;stroke-width:1.5;"/>
   </g>
   <g id="line2d_19">
    <path clip-path="url(#p61e837d22d)" d="M 88.189205 123.802656 
L 92.012868 205.054634 
L 95.836532 167.460435 
L 99.660196 144.418831 
L 103.48386 125.015372 
L 107.307523 117.739076 
L 111.131187 125.01537 
L 114.954851 84.99574 
L 118.778515 97.122902 
L 122.602179 110.46278 
L 126.425842 88.633892 
L 130.249506 109.250066 
L 134.07317 94.697469 
L 137.896834 117.739076 
L 141.720497 101.973771 
L 145.544161 95.910183 
L 149.367825 87.42117 
L 153.191489 71.655864 
L 157.015152 97.1229 
L 160.838816 70.443145 
L 164.66248 91.059321 
L 168.486144 115.313642 
L 172.309808 100.761048 
L 179.957135 83.783022 
L 183.780799 98.335619 
L 187.604463 78.932158 
L 191.428126 97.122898 
L 195.25179 123.802656 
L 199.075454 84.99574 
L 202.899118 115.313638 
L 206.722782 93.484759 
L 210.546445 82.57031 
L 214.370109 84.995742 
L 218.193773 89.846606 
L 222.017437 101.97376 
L 225.8411 80.144882 
L 229.664764 82.570305 
L 233.488428 97.122904 
L 237.312092 88.633883 
L 241.135755 99.548333 
L 244.959419 97.122898 
L 248.783083 86.208457 
L 252.606747 101.973769 
L 256.430411 78.932157 
L 260.254074 92.272037 
L 264.077738 99.54833 
L 267.901402 86.208452 
L 271.725066 95.910187 
L 279.372393 81.357594 
L 283.196057 101.973764 
L 287.019721 94.697464 
L 290.843385 75.294012 
L 294.667048 110.462781 
L 298.490712 70.443147 
L 302.314376 105.611914 
L 306.13804 83.783023 
L 309.961703 84.99574 
L 313.785367 77.719438 
L 317.609031 81.357592 
L 321.432695 76.506729 
L 325.256358 84.995738 
L 329.080022 86.208452 
L 332.903686 91.059317 
L 336.72735 91.05932 
L 340.551014 76.506732 
L 344.374677 103.186482 
L 348.198341 80.144881 
L 352.022005 106.824632 
L 355.845669 83.783025 
L 359.669332 98.335613 
L 363.492996 95.910184 
L 367.31666 92.272033 
L 371.140324 83.783022 
L 374.963988 112.888212 
L 378.787651 71.655862 
L 382.611315 87.42117 
L 386.434979 87.42117 
L 390.258643 83.783022 
L 394.082306 84.995735 
L 397.90597 75.294013 
L 401.729634 103.186483 
L 405.553298 81.357592 
L 409.376962 106.824634 
L 417.024289 92.272033 
L 420.847953 98.335612 
L 424.671617 82.570305 
L 428.49528 80.144878 
L 432.318944 89.846595 
L 436.142608 81.357588 
L 439.966272 93.484752 
L 443.789935 103.18648 
L 447.613599 68.017715 
L 451.437263 81.357587 
L 455.260927 100.761047 
L 459.084591 66.804989 
L 462.908254 57.10327 
L 466.731918 71.65586 
L 470.555582 97.122901 
L 474.379246 59.528707 
L 478.202909 63.166845 
L 482.026573 81.357597 
L 485.850237 80.144875 
L 489.673901 77.719443 
L 493.497565 69.230426 
L 497.321228 64.379567 
L 501.144892 78.932162 
L 504.968556 78.932161 
L 508.79222 84.995744 
L 512.615883 52.2524 
L 516.439547 89.846604 
L 520.263211 84.995742 
L 524.086875 54.677844 
L 527.910538 82.570305 
L 531.734202 100.761052 
L 535.557866 68.017713 
L 539.38153 57.103265 
L 543.205194 61.954132 
L 547.028857 75.29401 
L 550.852521 64.379569 
L 554.676185 70.443152 
L 558.499849 66.804995 
L 562.323512 69.230427 
L 566.147176 47.401544 
L 569.97084 57.103272 
L 573.794504 83.783022 
L 577.618168 87.421177 
L 581.441831 82.570309 
L 585.265495 80.144882 
L 589.089159 44.976112 
L 592.912823 53.465124 
L 596.736486 52.252407 
L 600.56015 87.42117 
L 604.383814 66.805004 
L 608.207478 68.017714 
L 612.031142 71.655866 
L 615.854805 64.379561 
L 619.678469 81.35759 
L 623.502133 63.166852 
L 627.325797 65.592275 
L 631.14946 60.741422 
L 634.973124 49.826968 
L 638.796788 54.677835 
L 642.620452 47.401536 
L 646.444115 64.379567 
L 650.267779 42.550673 
L 654.091443 94.697469 
L 657.915107 84.995738 
L 661.738771 54.677842 
L 665.562434 57.103263 
L 669.386098 61.954135 
L 673.209762 27.998083 
L 677.033426 47.401535 
L 680.857089 47.401536 
L 684.680753 69.230432 
L 688.504417 44.976105 
L 692.328081 60.741418 
L 696.151745 42.550673 
L 699.975408 53.465108 
L 703.799072 42.550673 
L 707.622736 55.89055 
L 711.4464 35.274373 
L 715.270063 17.083636 
L 719.093727 29.210795 
L 722.917391 49.826971 
L 726.741055 46.188818 
L 730.564718 52.252398 
L 734.388382 82.570302 
L 738.212046 91.059319 
L 745.859374 57.103261 
L 749.683037 61.954133 
L 753.506701 53.465118 
L 757.330365 66.80499 
L 761.154029 46.188827 
L 764.977692 91.059313 
L 768.801356 69.23043 
L 772.62502 42.550677 
L 776.448684 71.65586 
L 780.272348 77.71944 
L 784.096011 59.528691 
L 787.919675 38.91253 
L 791.743339 38.912532 
L 795.567003 44.97611 
L 799.390666 40.125243 
L 803.21433 54.67784 
L 807.037994 57.103272 
L 810.861658 37.699815 
L 814.685321 35.274376 
L 818.508985 63.166845 
L 822.332649 60.741415 
L 826.156313 23.147216 
L 829.979977 43.763392 
L 833.80364 49.826972 
L 837.627304 34.061654 
L 841.450968 35.274377 
L 845.274632 26.785363 
L 849.098295 37.699813 
L 849.098295 37.699813 
" style="fill:none;stroke:#2ca02c;stroke-linecap:square;stroke-width:1.5;"/>
   </g>
   <g id="patch_3">
    <path d="M 50.14375 224.64 
L 50.14375 7.2 
" style="fill:none;stroke:#000000;stroke-linecap:square;stroke-linejoin:miter;stroke-width:0.8;"/>
   </g>
   <g id="patch_4">
    <path d="M 887.14375 224.64 
L 887.14375 7.2 
" style="fill:none;stroke:#000000;stroke-linecap:square;stroke-linejoin:miter;stroke-width:0.8;"/>
   </g>
   <g id="patch_5">
    <path d="M 50.14375 224.64 
L 887.14375 224.64 
" style="fill:none;stroke:#000000;stroke-linecap:square;stroke-linejoin:miter;stroke-width:0.8;"/>
   </g>
   <g id="patch_6">
    <path d="M 50.14375 7.2 
L 887.14375 7.2 
" style="fill:none;stroke:#000000;stroke-linecap:square;stroke-linejoin:miter;stroke-width:0.8;"/>
   </g>
   <g id="legend_1">
    <g id="patch_7">
     <path d="M 703.678125 219.64 
L 880.14375 219.64 
Q 882.14375 219.64 882.14375 217.64 
L 882.14375 173.77125 
Q 882.14375 171.77125 880.14375 171.77125 
L 703.678125 171.77125 
Q 701.678125 171.77125 701.678125 173.77125 
L 701.678125 217.64 
Q 701.678125 219.64 703.678125 219.64 
z
" style="fill:#ffffff;opacity:0.8;stroke:#cccccc;stroke-linejoin:miter;"/>
    </g>
    <g id="line2d_20">
     <path d="M 705.678125 179.869687 
L 725.678125 179.869687 
" style="fill:none;stroke:#1f77b4;stroke-linecap:square;stroke-width:1.5;"/>
    </g>
    <g id="line2d_21"/>
    <g id="text_19">
     <!-- segnet_correlation_score_val -->
     <g transform="translate(733.678125 183.369687)scale(0.1 -0.1)">
      <defs>
       <path d="M 45.40625 27.984375 
Q 45.40625 37.75 41.375 43.109375 
Q 37.359375 48.484375 30.078125 48.484375 
Q 22.859375 48.484375 18.828125 43.109375 
Q 14.796875 37.75 14.796875 27.984375 
Q 14.796875 18.265625 18.828125 12.890625 
Q 22.859375 7.515625 30.078125 7.515625 
Q 37.359375 7.515625 41.375 12.890625 
Q 45.40625 18.265625 45.40625 27.984375 
z
M 54.390625 6.78125 
Q 54.390625 -7.171875 48.1875 -13.984375 
Q 42 -20.796875 29.203125 -20.796875 
Q 24.46875 -20.796875 20.265625 -20.09375 
Q 16.0625 -19.390625 12.109375 -17.921875 
L 12.109375 -9.1875 
Q 16.0625 -11.328125 19.921875 -12.34375 
Q 23.78125 -13.375 27.78125 -13.375 
Q 36.625 -13.375 41.015625 -8.765625 
Q 45.40625 -4.15625 45.40625 5.171875 
L 45.40625 9.625 
Q 42.625 4.78125 38.28125 2.390625 
Q 33.9375 0 27.875 0 
Q 17.828125 0 11.671875 7.65625 
Q 5.515625 15.328125 5.515625 27.984375 
Q 5.515625 40.671875 11.671875 48.328125 
Q 17.828125 56 27.875 56 
Q 33.9375 56 38.28125 53.609375 
Q 42.625 51.21875 45.40625 46.390625 
L 45.40625 54.6875 
L 54.390625 54.6875 
z
" id="DejaVuSans-103"/>
       <path d="M 54.890625 33.015625 
L 54.890625 0 
L 45.90625 0 
L 45.90625 32.71875 
Q 45.90625 40.484375 42.875 44.328125 
Q 39.84375 48.1875 33.796875 48.1875 
Q 26.515625 48.1875 22.3125 43.546875 
Q 18.109375 38.921875 18.109375 30.90625 
L 18.109375 0 
L 9.078125 0 
L 9.078125 54.6875 
L 18.109375 54.6875 
L 18.109375 46.1875 
Q 21.34375 51.125 25.703125 53.5625 
Q 30.078125 56 35.796875 56 
Q 45.21875 56 50.046875 50.171875 
Q 54.890625 44.34375 54.890625 33.015625 
z
" id="DejaVuSans-110"/>
       <path d="M 18.3125 70.21875 
L 18.3125 54.6875 
L 36.8125 54.6875 
L 36.8125 47.703125 
L 18.3125 47.703125 
L 18.3125 18.015625 
Q 18.3125 11.328125 20.140625 9.421875 
Q 21.96875 7.515625 27.59375 7.515625 
L 36.8125 7.515625 
L 36.8125 0 
L 27.59375 0 
Q 17.1875 0 13.234375 3.875 
Q 9.28125 7.765625 9.28125 18.015625 
L 9.28125 47.703125 
L 2.6875 47.703125 
L 2.6875 54.6875 
L 9.28125 54.6875 
L 9.28125 70.21875 
z
" id="DejaVuSans-116"/>
       <path d="M 50.984375 -16.609375 
L 50.984375 -23.578125 
L -0.984375 -23.578125 
L -0.984375 -16.609375 
z
" id="DejaVuSans-95"/>
       <path d="M 9.421875 75.984375 
L 18.40625 75.984375 
L 18.40625 0 
L 9.421875 0 
z
" id="DejaVuSans-108"/>
       <path d="M 34.28125 27.484375 
Q 23.390625 27.484375 19.1875 25 
Q 14.984375 22.515625 14.984375 16.5 
Q 14.984375 11.71875 18.140625 8.90625 
Q 21.296875 6.109375 26.703125 6.109375 
Q 34.1875 6.109375 38.703125 11.40625 
Q 43.21875 16.703125 43.21875 25.484375 
L 43.21875 27.484375 
z
M 52.203125 31.203125 
L 52.203125 0 
L 43.21875 0 
L 43.21875 8.296875 
Q 40.140625 3.328125 35.546875 0.953125 
Q 30.953125 -1.421875 24.3125 -1.421875 
Q 15.921875 -1.421875 10.953125 3.296875 
Q 6 8.015625 6 15.921875 
Q 6 25.140625 12.171875 29.828125 
Q 18.359375 34.515625 30.609375 34.515625 
L 43.21875 34.515625 
L 43.21875 35.40625 
Q 43.21875 41.609375 39.140625 45 
Q 35.0625 48.390625 27.6875 48.390625 
Q 23 48.390625 18.546875 47.265625 
Q 14.109375 46.140625 10.015625 43.890625 
L 10.015625 52.203125 
Q 14.9375 54.109375 19.578125 55.046875 
Q 24.21875 56 28.609375 56 
Q 40.484375 56 46.34375 49.84375 
Q 52.203125 43.703125 52.203125 31.203125 
z
" id="DejaVuSans-97"/>
       <path d="M 9.421875 54.6875 
L 18.40625 54.6875 
L 18.40625 0 
L 9.421875 0 
z
M 9.421875 75.984375 
L 18.40625 75.984375 
L 18.40625 64.59375 
L 9.421875 64.59375 
z
" id="DejaVuSans-105"/>
       <path d="M 2.984375 54.6875 
L 12.5 54.6875 
L 29.59375 8.796875 
L 46.6875 54.6875 
L 56.203125 54.6875 
L 35.6875 0 
L 23.484375 0 
z
" id="DejaVuSans-118"/>
      </defs>
      <use xlink:href="#DejaVuSans-115"/>
      <use x="52.099609" xlink:href="#DejaVuSans-101"/>
      <use x="113.623047" xlink:href="#DejaVuSans-103"/>
      <use x="177.099609" xlink:href="#DejaVuSans-110"/>
      <use x="240.478516" xlink:href="#DejaVuSans-101"/>
      <use x="302.001953" xlink:href="#DejaVuSans-116"/>
      <use x="341.210938" xlink:href="#DejaVuSans-95"/>
      <use x="391.210938" xlink:href="#DejaVuSans-99"/>
      <use x="446.191406" xlink:href="#DejaVuSans-111"/>
      <use x="507.373047" xlink:href="#DejaVuSans-114"/>
      <use x="546.736328" xlink:href="#DejaVuSans-114"/>
      <use x="585.599609" xlink:href="#DejaVuSans-101"/>
      <use x="647.123047" xlink:href="#DejaVuSans-108"/>
      <use x="674.90625" xlink:href="#DejaVuSans-97"/>
      <use x="736.185547" xlink:href="#DejaVuSans-116"/>
      <use x="775.394531" xlink:href="#DejaVuSans-105"/>
      <use x="803.177734" xlink:href="#DejaVuSans-111"/>
      <use x="864.359375" xlink:href="#DejaVuSans-110"/>
      <use x="927.738281" xlink:href="#DejaVuSans-95"/>
      <use x="977.738281" xlink:href="#DejaVuSans-115"/>
      <use x="1029.837891" xlink:href="#DejaVuSans-99"/>
      <use x="1084.818359" xlink:href="#DejaVuSans-111"/>
      <use x="1146" xlink:href="#DejaVuSans-114"/>
      <use x="1184.863281" xlink:href="#DejaVuSans-101"/>
      <use x="1246.386719" xlink:href="#DejaVuSans-95"/>
      <use x="1296.386719" xlink:href="#DejaVuSans-118"/>
      <use x="1355.566406" xlink:href="#DejaVuSans-97"/>
      <use x="1416.845703" xlink:href="#DejaVuSans-108"/>
     </g>
    </g>
    <g id="line2d_22">
     <path d="M 705.678125 194.825937 
L 725.678125 194.825937 
" style="fill:none;stroke:#ff7f0e;stroke-linecap:square;stroke-width:1.5;"/>
    </g>
    <g id="line2d_23"/>
    <g id="text_20">
     <!-- unet_correlation_score_val -->
     <g transform="translate(733.678125 198.325937)scale(0.1 -0.1)">
      <defs>
       <path d="M 8.5 21.578125 
L 8.5 54.6875 
L 17.484375 54.6875 
L 17.484375 21.921875 
Q 17.484375 14.15625 20.5 10.265625 
Q 23.53125 6.390625 29.59375 6.390625 
Q 36.859375 6.390625 41.078125 11.03125 
Q 45.3125 15.671875 45.3125 23.6875 
L 45.3125 54.6875 
L 54.296875 54.6875 
L 54.296875 0 
L 45.3125 0 
L 45.3125 8.40625 
Q 42.046875 3.421875 37.71875 1 
Q 33.40625 -1.421875 27.6875 -1.421875 
Q 18.265625 -1.421875 13.375 4.4375 
Q 8.5 10.296875 8.5 21.578125 
z
M 31.109375 56 
z
" id="DejaVuSans-117"/>
      </defs>
      <use xlink:href="#DejaVuSans-117"/>
      <use x="63.378906" xlink:href="#DejaVuSans-110"/>
      <use x="126.757812" xlink:href="#DejaVuSans-101"/>
      <use x="188.28125" xlink:href="#DejaVuSans-116"/>
      <use x="227.490234" xlink:href="#DejaVuSans-95"/>
      <use x="277.490234" xlink:href="#DejaVuSans-99"/>
      <use x="332.470703" xlink:href="#DejaVuSans-111"/>
      <use x="393.652344" xlink:href="#DejaVuSans-114"/>
      <use x="433.015625" xlink:href="#DejaVuSans-114"/>
      <use x="471.878906" xlink:href="#DejaVuSans-101"/>
      <use x="533.402344" xlink:href="#DejaVuSans-108"/>
      <use x="561.185547" xlink:href="#DejaVuSans-97"/>
      <use x="622.464844" xlink:href="#DejaVuSans-116"/>
      <use x="661.673828" xlink:href="#DejaVuSans-105"/>
      <use x="689.457031" xlink:href="#DejaVuSans-111"/>
      <use x="750.638672" xlink:href="#DejaVuSans-110"/>
      <use x="814.017578" xlink:href="#DejaVuSans-95"/>
      <use x="864.017578" xlink:href="#DejaVuSans-115"/>
      <use x="916.117188" xlink:href="#DejaVuSans-99"/>
      <use x="971.097656" xlink:href="#DejaVuSans-111"/>
      <use x="1032.279297" xlink:href="#DejaVuSans-114"/>
      <use x="1071.142578" xlink:href="#DejaVuSans-101"/>
      <use x="1132.666016" xlink:href="#DejaVuSans-95"/>
      <use x="1182.666016" xlink:href="#DejaVuSans-118"/>
      <use x="1241.845703" xlink:href="#DejaVuSans-97"/>
      <use x="1303.125" xlink:href="#DejaVuSans-108"/>
     </g>
    </g>
    <g id="line2d_24">
     <path d="M 705.678125 209.782187 
L 725.678125 209.782187 
" style="fill:none;stroke:#2ca02c;stroke-linecap:square;stroke-width:1.5;"/>
    </g>
    <g id="line2d_25"/>
    <g id="text_21">
     <!-- unet2_correlation_score_val -->
     <g transform="translate(733.678125 213.282187)scale(0.1 -0.1)">
      <use xlink:href="#DejaVuSans-117"/>
      <use x="63.378906" xlink:href="#DejaVuSans-110"/>
      <use x="126.757812" xlink:href="#DejaVuSans-101"/>
      <use x="188.28125" xlink:href="#DejaVuSans-116"/>
      <use x="227.490234" xlink:href="#DejaVuSans-50"/>
      <use x="291.113281" xlink:href="#DejaVuSans-95"/>
      <use x="341.113281" xlink:href="#DejaVuSans-99"/>
      <use x="396.09375" xlink:href="#DejaVuSans-111"/>
      <use x="457.275391" xlink:href="#DejaVuSans-114"/>
      <use x="496.638672" xlink:href="#DejaVuSans-114"/>
      <use x="535.501953" xlink:href="#DejaVuSans-101"/>
      <use x="597.025391" xlink:href="#DejaVuSans-108"/>
      <use x="624.808594" xlink:href="#DejaVuSans-97"/>
      <use x="686.087891" xlink:href="#DejaVuSans-116"/>
      <use x="725.296875" xlink:href="#DejaVuSans-105"/>
      <use x="753.080078" xlink:href="#DejaVuSans-111"/>
      <use x="814.261719" xlink:href="#DejaVuSans-110"/>
      <use x="877.640625" xlink:href="#DejaVuSans-95"/>
      <use x="927.640625" xlink:href="#DejaVuSans-115"/>
      <use x="979.740234" xlink:href="#DejaVuSans-99"/>
      <use x="1034.720703" xlink:href="#DejaVuSans-111"/>
      <use x="1095.902344" xlink:href="#DejaVuSans-114"/>
      <use x="1134.765625" xlink:href="#DejaVuSans-101"/>
      <use x="1196.289062" xlink:href="#DejaVuSans-95"/>
      <use x="1246.289062" xlink:href="#DejaVuSans-118"/>
      <use x="1305.46875" xlink:href="#DejaVuSans-97"/>
      <use x="1366.748047" xlink:href="#DejaVuSans-108"/>
     </g>
    </g>
   </g>
  </g>
 </g>
 <defs>
  <clipPath id="p61e837d22d">
   <rect height="217.44" width="837" x="50.14375" y="7.2"/>
  </clipPath>
 </defs>
</svg>
