<?xml version="1.0" encoding="utf-8" standalone="no"?>
<!DOCTYPE svg PUBLIC "-//W3C//DTD SVG 1.1//EN"
  "http://www.w3.org/Graphics/SVG/1.1/DTD/svg11.dtd">
<!-- Created with matplotlib (https://matplotlib.org/) -->
<svg height="262.19625pt" version="1.1" viewBox="0 0 887.98125 262.19625" width="887.98125pt" xmlns="http://www.w3.org/2000/svg" xmlns:xlink="http://www.w3.org/1999/xlink">
 <metadata>
  <rdf:RDF xmlns:cc="http://creativecommons.org/ns#" xmlns:dc="http://purl.org/dc/elements/1.1/" xmlns:rdf="http://www.w3.org/1999/02/22-rdf-syntax-ns#">
   <cc:Work>
    <dc:type rdf:resource="http://purl.org/dc/dcmitype/StillImage"/>
    <dc:date>2020-12-16T15:40:15.957781</dc:date>
    <dc:format>image/svg+xml</dc:format>
    <dc:creator>
     <cc:Agent>
      <dc:title>Matplotlib v3.3.3, https://matplotlib.org/</dc:title>
     </cc:Agent>
    </dc:creator>
   </cc:Work>
  </rdf:RDF>
 </metadata>
 <defs>
  <style type="text/css">*{stroke-linecap:butt;stroke-linejoin:round;}</style>
 </defs>
 <g id="figure_1">
  <g id="patch_1">
   <path d="M 0 262.19625 
L 887.98125 262.19625 
L 887.98125 0 
L 0 0 
z
" style="fill:none;"/>
  </g>
  <g id="axes_1">
   <g id="patch_2">
    <path d="M 43.78125 224.64 
L 880.78125 224.64 
L 880.78125 7.2 
L 43.78125 7.2 
z
" style="fill:#ffffff;"/>
   </g>
   <g id="matplotlib.axis_1">
    <g id="xtick_1">
     <g id="line2d_1">
      <defs>
       <path d="M 0 0 
L 0 3.5 
" id="mee0cc4dfb3" style="stroke:#000000;stroke-width:0.8;"/>
      </defs>
      <g>
       <use style="stroke:#000000;stroke-width:0.8;" x="81.826705" xlink:href="#mee0cc4dfb3" y="224.64"/>
      </g>
     </g>
     <g id="text_1">
      <!-- 0 -->
      <g transform="translate(78.645455 239.238437)scale(0.1 -0.1)">
       <defs>
        <path d="M 31.78125 66.40625 
Q 24.171875 66.40625 20.328125 58.90625 
Q 16.5 51.421875 16.5 36.375 
Q 16.5 21.390625 20.328125 13.890625 
Q 24.171875 6.390625 31.78125 6.390625 
Q 39.453125 6.390625 43.28125 13.890625 
Q 47.125 21.390625 47.125 36.375 
Q 47.125 51.421875 43.28125 58.90625 
Q 39.453125 66.40625 31.78125 66.40625 
z
M 31.78125 74.21875 
Q 44.046875 74.21875 50.515625 64.515625 
Q 56.984375 54.828125 56.984375 36.375 
Q 56.984375 17.96875 50.515625 8.265625 
Q 44.046875 -1.421875 31.78125 -1.421875 
Q 19.53125 -1.421875 13.0625 8.265625 
Q 6.59375 17.96875 6.59375 36.375 
Q 6.59375 54.828125 13.0625 64.515625 
Q 19.53125 74.21875 31.78125 74.21875 
z
" id="DejaVuSans-48"/>
       </defs>
       <use xlink:href="#DejaVuSans-48"/>
      </g>
     </g>
    </g>
    <g id="xtick_2">
     <g id="line2d_2">
      <g>
       <use style="stroke:#000000;stroke-width:0.8;" x="177.418299" xlink:href="#mee0cc4dfb3" y="224.64"/>
      </g>
     </g>
     <g id="text_2">
      <!-- 25 -->
      <g transform="translate(171.055799 239.238437)scale(0.1 -0.1)">
       <defs>
        <path d="M 19.1875 8.296875 
L 53.609375 8.296875 
L 53.609375 0 
L 7.328125 0 
L 7.328125 8.296875 
Q 12.9375 14.109375 22.625 23.890625 
Q 32.328125 33.6875 34.8125 36.53125 
Q 39.546875 41.84375 41.421875 45.53125 
Q 43.3125 49.21875 43.3125 52.78125 
Q 43.3125 58.59375 39.234375 62.25 
Q 35.15625 65.921875 28.609375 65.921875 
Q 23.96875 65.921875 18.8125 64.3125 
Q 13.671875 62.703125 7.8125 59.421875 
L 7.8125 69.390625 
Q 13.765625 71.78125 18.9375 73 
Q 24.125 74.21875 28.421875 74.21875 
Q 39.75 74.21875 46.484375 68.546875 
Q 53.21875 62.890625 53.21875 53.421875 
Q 53.21875 48.921875 51.53125 44.890625 
Q 49.859375 40.875 45.40625 35.40625 
Q 44.1875 33.984375 37.640625 27.21875 
Q 31.109375 20.453125 19.1875 8.296875 
z
" id="DejaVuSans-50"/>
        <path d="M 10.796875 72.90625 
L 49.515625 72.90625 
L 49.515625 64.59375 
L 19.828125 64.59375 
L 19.828125 46.734375 
Q 21.96875 47.46875 24.109375 47.828125 
Q 26.265625 48.1875 28.421875 48.1875 
Q 40.625 48.1875 47.75 41.5 
Q 54.890625 34.8125 54.890625 23.390625 
Q 54.890625 11.625 47.5625 5.09375 
Q 40.234375 -1.421875 26.90625 -1.421875 
Q 22.3125 -1.421875 17.546875 -0.640625 
Q 12.796875 0.140625 7.71875 1.703125 
L 7.71875 11.625 
Q 12.109375 9.234375 16.796875 8.0625 
Q 21.484375 6.890625 26.703125 6.890625 
Q 35.15625 6.890625 40.078125 11.328125 
Q 45.015625 15.765625 45.015625 23.390625 
Q 45.015625 31 40.078125 35.4375 
Q 35.15625 39.890625 26.703125 39.890625 
Q 22.75 39.890625 18.8125 39.015625 
Q 14.890625 38.140625 10.796875 36.28125 
z
" id="DejaVuSans-53"/>
       </defs>
       <use xlink:href="#DejaVuSans-50"/>
       <use x="63.623047" xlink:href="#DejaVuSans-53"/>
      </g>
     </g>
    </g>
    <g id="xtick_3">
     <g id="line2d_3">
      <g>
       <use style="stroke:#000000;stroke-width:0.8;" x="273.009893" xlink:href="#mee0cc4dfb3" y="224.64"/>
      </g>
     </g>
     <g id="text_3">
      <!-- 50 -->
      <g transform="translate(266.647393 239.238437)scale(0.1 -0.1)">
       <use xlink:href="#DejaVuSans-53"/>
       <use x="63.623047" xlink:href="#DejaVuSans-48"/>
      </g>
     </g>
    </g>
    <g id="xtick_4">
     <g id="line2d_4">
      <g>
       <use style="stroke:#000000;stroke-width:0.8;" x="368.601488" xlink:href="#mee0cc4dfb3" y="224.64"/>
      </g>
     </g>
     <g id="text_4">
      <!-- 75 -->
      <g transform="translate(362.238988 239.238437)scale(0.1 -0.1)">
       <defs>
        <path d="M 8.203125 72.90625 
L 55.078125 72.90625 
L 55.078125 68.703125 
L 28.609375 0 
L 18.3125 0 
L 43.21875 64.59375 
L 8.203125 64.59375 
z
" id="DejaVuSans-55"/>
       </defs>
       <use xlink:href="#DejaVuSans-55"/>
       <use x="63.623047" xlink:href="#DejaVuSans-53"/>
      </g>
     </g>
    </g>
    <g id="xtick_5">
     <g id="line2d_5">
      <g>
       <use style="stroke:#000000;stroke-width:0.8;" x="464.193082" xlink:href="#mee0cc4dfb3" y="224.64"/>
      </g>
     </g>
     <g id="text_5">
      <!-- 100 -->
      <g transform="translate(454.649332 239.238437)scale(0.1 -0.1)">
       <defs>
        <path d="M 12.40625 8.296875 
L 28.515625 8.296875 
L 28.515625 63.921875 
L 10.984375 60.40625 
L 10.984375 69.390625 
L 28.421875 72.90625 
L 38.28125 72.90625 
L 38.28125 8.296875 
L 54.390625 8.296875 
L 54.390625 0 
L 12.40625 0 
z
" id="DejaVuSans-49"/>
       </defs>
       <use xlink:href="#DejaVuSans-49"/>
       <use x="63.623047" xlink:href="#DejaVuSans-48"/>
       <use x="127.246094" xlink:href="#DejaVuSans-48"/>
      </g>
     </g>
    </g>
    <g id="xtick_6">
     <g id="line2d_6">
      <g>
       <use style="stroke:#000000;stroke-width:0.8;" x="559.784676" xlink:href="#mee0cc4dfb3" y="224.64"/>
      </g>
     </g>
     <g id="text_6">
      <!-- 125 -->
      <g transform="translate(550.240926 239.238437)scale(0.1 -0.1)">
       <use xlink:href="#DejaVuSans-49"/>
       <use x="63.623047" xlink:href="#DejaVuSans-50"/>
       <use x="127.246094" xlink:href="#DejaVuSans-53"/>
      </g>
     </g>
    </g>
    <g id="xtick_7">
     <g id="line2d_7">
      <g>
       <use style="stroke:#000000;stroke-width:0.8;" x="655.376271" xlink:href="#mee0cc4dfb3" y="224.64"/>
      </g>
     </g>
     <g id="text_7">
      <!-- 150 -->
      <g transform="translate(645.832521 239.238437)scale(0.1 -0.1)">
       <use xlink:href="#DejaVuSans-49"/>
       <use x="63.623047" xlink:href="#DejaVuSans-53"/>
       <use x="127.246094" xlink:href="#DejaVuSans-48"/>
      </g>
     </g>
    </g>
    <g id="xtick_8">
     <g id="line2d_8">
      <g>
       <use style="stroke:#000000;stroke-width:0.8;" x="750.967865" xlink:href="#mee0cc4dfb3" y="224.64"/>
      </g>
     </g>
     <g id="text_8">
      <!-- 175 -->
      <g transform="translate(741.424115 239.238437)scale(0.1 -0.1)">
       <use xlink:href="#DejaVuSans-49"/>
       <use x="63.623047" xlink:href="#DejaVuSans-55"/>
       <use x="127.246094" xlink:href="#DejaVuSans-53"/>
      </g>
     </g>
    </g>
    <g id="xtick_9">
     <g id="line2d_9">
      <g>
       <use style="stroke:#000000;stroke-width:0.8;" x="846.559459" xlink:href="#mee0cc4dfb3" y="224.64"/>
      </g>
     </g>
     <g id="text_9">
      <!-- 200 -->
      <g transform="translate(837.015709 239.238437)scale(0.1 -0.1)">
       <use xlink:href="#DejaVuSans-50"/>
       <use x="63.623047" xlink:href="#DejaVuSans-48"/>
       <use x="127.246094" xlink:href="#DejaVuSans-48"/>
      </g>
     </g>
    </g>
    <g id="text_10">
     <!-- epoch -->
     <g transform="translate(447.053125 252.916562)scale(0.1 -0.1)">
      <defs>
       <path d="M 56.203125 29.59375 
L 56.203125 25.203125 
L 14.890625 25.203125 
Q 15.484375 15.921875 20.484375 11.0625 
Q 25.484375 6.203125 34.421875 6.203125 
Q 39.59375 6.203125 44.453125 7.46875 
Q 49.3125 8.734375 54.109375 11.28125 
L 54.109375 2.78125 
Q 49.265625 0.734375 44.1875 -0.34375 
Q 39.109375 -1.421875 33.890625 -1.421875 
Q 20.796875 -1.421875 13.15625 6.1875 
Q 5.515625 13.8125 5.515625 26.8125 
Q 5.515625 40.234375 12.765625 48.109375 
Q 20.015625 56 32.328125 56 
Q 43.359375 56 49.78125 48.890625 
Q 56.203125 41.796875 56.203125 29.59375 
z
M 47.21875 32.234375 
Q 47.125 39.59375 43.09375 43.984375 
Q 39.0625 48.390625 32.421875 48.390625 
Q 24.90625 48.390625 20.390625 44.140625 
Q 15.875 39.890625 15.1875 32.171875 
z
" id="DejaVuSans-101"/>
       <path d="M 18.109375 8.203125 
L 18.109375 -20.796875 
L 9.078125 -20.796875 
L 9.078125 54.6875 
L 18.109375 54.6875 
L 18.109375 46.390625 
Q 20.953125 51.265625 25.265625 53.625 
Q 29.59375 56 35.59375 56 
Q 45.5625 56 51.78125 48.09375 
Q 58.015625 40.1875 58.015625 27.296875 
Q 58.015625 14.40625 51.78125 6.484375 
Q 45.5625 -1.421875 35.59375 -1.421875 
Q 29.59375 -1.421875 25.265625 0.953125 
Q 20.953125 3.328125 18.109375 8.203125 
z
M 48.6875 27.296875 
Q 48.6875 37.203125 44.609375 42.84375 
Q 40.53125 48.484375 33.40625 48.484375 
Q 26.265625 48.484375 22.1875 42.84375 
Q 18.109375 37.203125 18.109375 27.296875 
Q 18.109375 17.390625 22.1875 11.75 
Q 26.265625 6.109375 33.40625 6.109375 
Q 40.53125 6.109375 44.609375 11.75 
Q 48.6875 17.390625 48.6875 27.296875 
z
" id="DejaVuSans-112"/>
       <path d="M 30.609375 48.390625 
Q 23.390625 48.390625 19.1875 42.75 
Q 14.984375 37.109375 14.984375 27.296875 
Q 14.984375 17.484375 19.15625 11.84375 
Q 23.34375 6.203125 30.609375 6.203125 
Q 37.796875 6.203125 41.984375 11.859375 
Q 46.1875 17.53125 46.1875 27.296875 
Q 46.1875 37.015625 41.984375 42.703125 
Q 37.796875 48.390625 30.609375 48.390625 
z
M 30.609375 56 
Q 42.328125 56 49.015625 48.375 
Q 55.71875 40.765625 55.71875 27.296875 
Q 55.71875 13.875 49.015625 6.21875 
Q 42.328125 -1.421875 30.609375 -1.421875 
Q 18.84375 -1.421875 12.171875 6.21875 
Q 5.515625 13.875 5.515625 27.296875 
Q 5.515625 40.765625 12.171875 48.375 
Q 18.84375 56 30.609375 56 
z
" id="DejaVuSans-111"/>
       <path d="M 48.78125 52.59375 
L 48.78125 44.1875 
Q 44.96875 46.296875 41.140625 47.34375 
Q 37.3125 48.390625 33.40625 48.390625 
Q 24.65625 48.390625 19.8125 42.84375 
Q 14.984375 37.3125 14.984375 27.296875 
Q 14.984375 17.28125 19.8125 11.734375 
Q 24.65625 6.203125 33.40625 6.203125 
Q 37.3125 6.203125 41.140625 7.25 
Q 44.96875 8.296875 48.78125 10.40625 
L 48.78125 2.09375 
Q 45.015625 0.34375 40.984375 -0.53125 
Q 36.96875 -1.421875 32.421875 -1.421875 
Q 20.0625 -1.421875 12.78125 6.34375 
Q 5.515625 14.109375 5.515625 27.296875 
Q 5.515625 40.671875 12.859375 48.328125 
Q 20.21875 56 33.015625 56 
Q 37.15625 56 41.109375 55.140625 
Q 45.0625 54.296875 48.78125 52.59375 
z
" id="DejaVuSans-99"/>
       <path d="M 54.890625 33.015625 
L 54.890625 0 
L 45.90625 0 
L 45.90625 32.71875 
Q 45.90625 40.484375 42.875 44.328125 
Q 39.84375 48.1875 33.796875 48.1875 
Q 26.515625 48.1875 22.3125 43.546875 
Q 18.109375 38.921875 18.109375 30.90625 
L 18.109375 0 
L 9.078125 0 
L 9.078125 75.984375 
L 18.109375 75.984375 
L 18.109375 46.1875 
Q 21.34375 51.125 25.703125 53.5625 
Q 30.078125 56 35.796875 56 
Q 45.21875 56 50.046875 50.171875 
Q 54.890625 44.34375 54.890625 33.015625 
z
" id="DejaVuSans-104"/>
      </defs>
      <use xlink:href="#DejaVuSans-101"/>
      <use x="61.523438" xlink:href="#DejaVuSans-112"/>
      <use x="125" xlink:href="#DejaVuSans-111"/>
      <use x="186.181641" xlink:href="#DejaVuSans-99"/>
      <use x="241.162109" xlink:href="#DejaVuSans-104"/>
     </g>
    </g>
   </g>
   <g id="matplotlib.axis_2">
    <g id="ytick_1">
     <g id="line2d_10">
      <defs>
       <path d="M 0 0 
L -3.5 0 
" id="me7952ef9db" style="stroke:#000000;stroke-width:0.8;"/>
      </defs>
      <g>
       <use style="stroke:#000000;stroke-width:0.8;" x="43.78125" xlink:href="#me7952ef9db" y="219.972003"/>
      </g>
     </g>
     <g id="text_11">
      <!-- 0.0 -->
      <g transform="translate(20.878125 223.771221)scale(0.1 -0.1)">
       <defs>
        <path d="M 10.6875 12.40625 
L 21 12.40625 
L 21 0 
L 10.6875 0 
z
" id="DejaVuSans-46"/>
       </defs>
       <use xlink:href="#DejaVuSans-48"/>
       <use x="63.623047" xlink:href="#DejaVuSans-46"/>
       <use x="95.410156" xlink:href="#DejaVuSans-48"/>
      </g>
     </g>
    </g>
    <g id="ytick_2">
     <g id="line2d_11">
      <g>
       <use style="stroke:#000000;stroke-width:0.8;" x="43.78125" xlink:href="#me7952ef9db" y="193.893808"/>
      </g>
     </g>
     <g id="text_12">
      <!-- 0.1 -->
      <g transform="translate(20.878125 197.693027)scale(0.1 -0.1)">
       <use xlink:href="#DejaVuSans-48"/>
       <use x="63.623047" xlink:href="#DejaVuSans-46"/>
       <use x="95.410156" xlink:href="#DejaVuSans-49"/>
      </g>
     </g>
    </g>
    <g id="ytick_3">
     <g id="line2d_12">
      <g>
       <use style="stroke:#000000;stroke-width:0.8;" x="43.78125" xlink:href="#me7952ef9db" y="167.815613"/>
      </g>
     </g>
     <g id="text_13">
      <!-- 0.2 -->
      <g transform="translate(20.878125 171.614832)scale(0.1 -0.1)">
       <use xlink:href="#DejaVuSans-48"/>
       <use x="63.623047" xlink:href="#DejaVuSans-46"/>
       <use x="95.410156" xlink:href="#DejaVuSans-50"/>
      </g>
     </g>
    </g>
    <g id="ytick_4">
     <g id="line2d_13">
      <g>
       <use style="stroke:#000000;stroke-width:0.8;" x="43.78125" xlink:href="#me7952ef9db" y="141.737419"/>
      </g>
     </g>
     <g id="text_14">
      <!-- 0.3 -->
      <g transform="translate(20.878125 145.536637)scale(0.1 -0.1)">
       <defs>
        <path d="M 40.578125 39.3125 
Q 47.65625 37.796875 51.625 33 
Q 55.609375 28.21875 55.609375 21.1875 
Q 55.609375 10.40625 48.1875 4.484375 
Q 40.765625 -1.421875 27.09375 -1.421875 
Q 22.515625 -1.421875 17.65625 -0.515625 
Q 12.796875 0.390625 7.625 2.203125 
L 7.625 11.71875 
Q 11.71875 9.328125 16.59375 8.109375 
Q 21.484375 6.890625 26.8125 6.890625 
Q 36.078125 6.890625 40.9375 10.546875 
Q 45.796875 14.203125 45.796875 21.1875 
Q 45.796875 27.640625 41.28125 31.265625 
Q 36.765625 34.90625 28.71875 34.90625 
L 20.21875 34.90625 
L 20.21875 43.015625 
L 29.109375 43.015625 
Q 36.375 43.015625 40.234375 45.921875 
Q 44.09375 48.828125 44.09375 54.296875 
Q 44.09375 59.90625 40.109375 62.90625 
Q 36.140625 65.921875 28.71875 65.921875 
Q 24.65625 65.921875 20.015625 65.03125 
Q 15.375 64.15625 9.8125 62.3125 
L 9.8125 71.09375 
Q 15.4375 72.65625 20.34375 73.4375 
Q 25.25 74.21875 29.59375 74.21875 
Q 40.828125 74.21875 47.359375 69.109375 
Q 53.90625 64.015625 53.90625 55.328125 
Q 53.90625 49.265625 50.4375 45.09375 
Q 46.96875 40.921875 40.578125 39.3125 
z
" id="DejaVuSans-51"/>
       </defs>
       <use xlink:href="#DejaVuSans-48"/>
       <use x="63.623047" xlink:href="#DejaVuSans-46"/>
       <use x="95.410156" xlink:href="#DejaVuSans-51"/>
      </g>
     </g>
    </g>
    <g id="ytick_5">
     <g id="line2d_14">
      <g>
       <use style="stroke:#000000;stroke-width:0.8;" x="43.78125" xlink:href="#me7952ef9db" y="115.659224"/>
      </g>
     </g>
     <g id="text_15">
      <!-- 0.4 -->
      <g transform="translate(20.878125 119.458443)scale(0.1 -0.1)">
       <defs>
        <path d="M 37.796875 64.3125 
L 12.890625 25.390625 
L 37.796875 25.390625 
z
M 35.203125 72.90625 
L 47.609375 72.90625 
L 47.609375 25.390625 
L 58.015625 25.390625 
L 58.015625 17.1875 
L 47.609375 17.1875 
L 47.609375 0 
L 37.796875 0 
L 37.796875 17.1875 
L 4.890625 17.1875 
L 4.890625 26.703125 
z
" id="DejaVuSans-52"/>
       </defs>
       <use xlink:href="#DejaVuSans-48"/>
       <use x="63.623047" xlink:href="#DejaVuSans-46"/>
       <use x="95.410156" xlink:href="#DejaVuSans-52"/>
      </g>
     </g>
    </g>
    <g id="ytick_6">
     <g id="line2d_15">
      <g>
       <use style="stroke:#000000;stroke-width:0.8;" x="43.78125" xlink:href="#me7952ef9db" y="89.581029"/>
      </g>
     </g>
     <g id="text_16">
      <!-- 0.5 -->
      <g transform="translate(20.878125 93.380248)scale(0.1 -0.1)">
       <use xlink:href="#DejaVuSans-48"/>
       <use x="63.623047" xlink:href="#DejaVuSans-46"/>
       <use x="95.410156" xlink:href="#DejaVuSans-53"/>
      </g>
     </g>
    </g>
    <g id="ytick_7">
     <g id="line2d_16">
      <g>
       <use style="stroke:#000000;stroke-width:0.8;" x="43.78125" xlink:href="#me7952ef9db" y="63.502835"/>
      </g>
     </g>
     <g id="text_17">
      <!-- 0.6 -->
      <g transform="translate(20.878125 67.302053)scale(0.1 -0.1)">
       <defs>
        <path d="M 33.015625 40.375 
Q 26.375 40.375 22.484375 35.828125 
Q 18.609375 31.296875 18.609375 23.390625 
Q 18.609375 15.53125 22.484375 10.953125 
Q 26.375 6.390625 33.015625 6.390625 
Q 39.65625 6.390625 43.53125 10.953125 
Q 47.40625 15.53125 47.40625 23.390625 
Q 47.40625 31.296875 43.53125 35.828125 
Q 39.65625 40.375 33.015625 40.375 
z
M 52.59375 71.296875 
L 52.59375 62.3125 
Q 48.875 64.0625 45.09375 64.984375 
Q 41.3125 65.921875 37.59375 65.921875 
Q 27.828125 65.921875 22.671875 59.328125 
Q 17.53125 52.734375 16.796875 39.40625 
Q 19.671875 43.65625 24.015625 45.921875 
Q 28.375 48.1875 33.59375 48.1875 
Q 44.578125 48.1875 50.953125 41.515625 
Q 57.328125 34.859375 57.328125 23.390625 
Q 57.328125 12.15625 50.6875 5.359375 
Q 44.046875 -1.421875 33.015625 -1.421875 
Q 20.359375 -1.421875 13.671875 8.265625 
Q 6.984375 17.96875 6.984375 36.375 
Q 6.984375 53.65625 15.1875 63.9375 
Q 23.390625 74.21875 37.203125 74.21875 
Q 40.921875 74.21875 44.703125 73.484375 
Q 48.484375 72.75 52.59375 71.296875 
z
" id="DejaVuSans-54"/>
       </defs>
       <use xlink:href="#DejaVuSans-48"/>
       <use x="63.623047" xlink:href="#DejaVuSans-46"/>
       <use x="95.410156" xlink:href="#DejaVuSans-54"/>
      </g>
     </g>
    </g>
    <g id="ytick_8">
     <g id="line2d_17">
      <g>
       <use style="stroke:#000000;stroke-width:0.8;" x="43.78125" xlink:href="#me7952ef9db" y="37.42464"/>
      </g>
     </g>
     <g id="text_18">
      <!-- 0.7 -->
      <g transform="translate(20.878125 41.223859)scale(0.1 -0.1)">
       <use xlink:href="#DejaVuSans-48"/>
       <use x="63.623047" xlink:href="#DejaVuSans-46"/>
       <use x="95.410156" xlink:href="#DejaVuSans-55"/>
      </g>
     </g>
    </g>
    <g id="ytick_9">
     <g id="line2d_18">
      <g>
       <use style="stroke:#000000;stroke-width:0.8;" x="43.78125" xlink:href="#me7952ef9db" y="11.346445"/>
      </g>
     </g>
     <g id="text_19">
      <!-- 0.8 -->
      <g transform="translate(20.878125 15.145664)scale(0.1 -0.1)">
       <defs>
        <path d="M 31.78125 34.625 
Q 24.75 34.625 20.71875 30.859375 
Q 16.703125 27.09375 16.703125 20.515625 
Q 16.703125 13.921875 20.71875 10.15625 
Q 24.75 6.390625 31.78125 6.390625 
Q 38.8125 6.390625 42.859375 10.171875 
Q 46.921875 13.96875 46.921875 20.515625 
Q 46.921875 27.09375 42.890625 30.859375 
Q 38.875 34.625 31.78125 34.625 
z
M 21.921875 38.8125 
Q 15.578125 40.375 12.03125 44.71875 
Q 8.5 49.078125 8.5 55.328125 
Q 8.5 64.0625 14.71875 69.140625 
Q 20.953125 74.21875 31.78125 74.21875 
Q 42.671875 74.21875 48.875 69.140625 
Q 55.078125 64.0625 55.078125 55.328125 
Q 55.078125 49.078125 51.53125 44.71875 
Q 48 40.375 41.703125 38.8125 
Q 48.828125 37.15625 52.796875 32.3125 
Q 56.78125 27.484375 56.78125 20.515625 
Q 56.78125 9.90625 50.3125 4.234375 
Q 43.84375 -1.421875 31.78125 -1.421875 
Q 19.734375 -1.421875 13.25 4.234375 
Q 6.78125 9.90625 6.78125 20.515625 
Q 6.78125 27.484375 10.78125 32.3125 
Q 14.796875 37.15625 21.921875 38.8125 
z
M 18.3125 54.390625 
Q 18.3125 48.734375 21.84375 45.5625 
Q 25.390625 42.390625 31.78125 42.390625 
Q 38.140625 42.390625 41.71875 45.5625 
Q 45.3125 48.734375 45.3125 54.390625 
Q 45.3125 60.0625 41.71875 63.234375 
Q 38.140625 66.40625 31.78125 66.40625 
Q 25.390625 66.40625 21.84375 63.234375 
Q 18.3125 60.0625 18.3125 54.390625 
z
" id="DejaVuSans-56"/>
       </defs>
       <use xlink:href="#DejaVuSans-48"/>
       <use x="63.623047" xlink:href="#DejaVuSans-46"/>
       <use x="95.410156" xlink:href="#DejaVuSans-56"/>
      </g>
     </g>
    </g>
    <g id="text_20">
     <!-- score -->
     <g transform="translate(14.798438 129.352812)rotate(-90)scale(0.1 -0.1)">
      <defs>
       <path d="M 44.28125 53.078125 
L 44.28125 44.578125 
Q 40.484375 46.53125 36.375 47.5 
Q 32.28125 48.484375 27.875 48.484375 
Q 21.1875 48.484375 17.84375 46.4375 
Q 14.5 44.390625 14.5 40.28125 
Q 14.5 37.15625 16.890625 35.375 
Q 19.28125 33.59375 26.515625 31.984375 
L 29.59375 31.296875 
Q 39.15625 29.25 43.1875 25.515625 
Q 47.21875 21.78125 47.21875 15.09375 
Q 47.21875 7.46875 41.1875 3.015625 
Q 35.15625 -1.421875 24.609375 -1.421875 
Q 20.21875 -1.421875 15.453125 -0.5625 
Q 10.6875 0.296875 5.421875 2 
L 5.421875 11.28125 
Q 10.40625 8.6875 15.234375 7.390625 
Q 20.0625 6.109375 24.8125 6.109375 
Q 31.15625 6.109375 34.5625 8.28125 
Q 37.984375 10.453125 37.984375 14.40625 
Q 37.984375 18.0625 35.515625 20.015625 
Q 33.0625 21.96875 24.703125 23.78125 
L 21.578125 24.515625 
Q 13.234375 26.265625 9.515625 29.90625 
Q 5.8125 33.546875 5.8125 39.890625 
Q 5.8125 47.609375 11.28125 51.796875 
Q 16.75 56 26.8125 56 
Q 31.78125 56 36.171875 55.265625 
Q 40.578125 54.546875 44.28125 53.078125 
z
" id="DejaVuSans-115"/>
       <path d="M 41.109375 46.296875 
Q 39.59375 47.171875 37.8125 47.578125 
Q 36.03125 48 33.890625 48 
Q 26.265625 48 22.1875 43.046875 
Q 18.109375 38.09375 18.109375 28.8125 
L 18.109375 0 
L 9.078125 0 
L 9.078125 54.6875 
L 18.109375 54.6875 
L 18.109375 46.1875 
Q 20.953125 51.171875 25.484375 53.578125 
Q 30.03125 56 36.53125 56 
Q 37.453125 56 38.578125 55.875 
Q 39.703125 55.765625 41.0625 55.515625 
z
" id="DejaVuSans-114"/>
      </defs>
      <use xlink:href="#DejaVuSans-115"/>
      <use x="52.099609" xlink:href="#DejaVuSans-99"/>
      <use x="107.080078" xlink:href="#DejaVuSans-111"/>
      <use x="168.261719" xlink:href="#DejaVuSans-114"/>
      <use x="207.125" xlink:href="#DejaVuSans-101"/>
     </g>
    </g>
   </g>
   <g id="line2d_19">
    <path clip-path="url(#p8f4827a2af)" d="M 81.826705 214.756364 
L 85.650368 207.976033 
L 89.474032 200.152574 
L 93.297696 144.345238 
L 97.12136 124.525809 
L 100.945023 125.047371 
L 104.768687 114.094529 
L 108.592351 112.529839 
L 112.416015 105.227944 
L 116.239679 82.800691 
L 120.063342 119.310162 
L 123.887006 93.231975 
L 127.71067 104.184814 
L 131.534334 79.671309 
L 135.357997 109.922019 
L 139.181661 97.404483 
L 143.005325 100.533871 
L 146.828989 92.710405 
L 150.652652 90.624155 
L 154.476316 93.23197 
L 158.29998 84.886949 
L 162.123644 85.930076 
L 165.947308 80.714438 
L 169.770971 105.749505 
L 173.594635 92.710408 
L 177.418299 100.012302 
L 181.241963 69.761592 
L 185.065626 81.236004 
L 188.88929 85.930081 
L 192.712954 76.020359 
L 196.536618 78.628179 
L 200.360282 79.149746 
L 204.183945 68.718465 
L 208.007609 74.977234 
L 211.831273 71.84785 
L 215.654937 70.28316 
L 219.4786 91.145715 
L 223.302264 73.934103 
L 227.125928 82.279132 
L 230.949592 74.455669 
L 234.773255 71.847855 
L 238.596919 54.636244 
L 242.420583 67.675336 
L 246.244247 65.067522 
L 250.067911 65.067519 
L 253.891574 62.981263 
L 257.715238 51.506858 
L 261.538902 66.632215 
L 265.362566 65.067517 
L 269.186229 55.679368 
L 273.009893 53.071557 
L 276.833557 63.502833 
L 280.657221 48.899044 
L 284.480885 55.679368 
L 288.304548 53.071545 
L 292.128212 54.636241 
L 295.951876 54.636244 
L 299.77554 52.549985 
L 303.599203 56.200935 
L 307.422867 49.420601 
L 311.246531 57.765625 
L 315.070195 65.067519 
L 318.893858 54.636244 
L 322.717522 55.679365 
L 326.541186 62.981265 
L 330.36485 54.636241 
L 334.188514 70.283165 
L 338.012177 59.330312 
L 341.835841 55.157808 
L 345.659505 55.679371 
L 349.483169 57.244061 
L 353.306832 59.851888 
L 357.130496 52.549991 
L 360.95416 49.942165 
L 364.777824 52.549991 
L 368.601488 49.942165 
L 372.425151 46.291224 
L 376.248815 51.506855 
L 380.072479 52.028424 
L 383.896143 49.942171 
L 387.719806 41.597144 
L 391.54347 41.597147 
L 395.367134 43.683394 
L 399.190798 46.812781 
L 403.014462 44.20497 
L 406.838125 42.640271 
L 410.661789 49.420601 
L 418.309117 46.291221 
L 422.13278 45.769654 
L 425.956444 45.769654 
L 429.780108 39.510887 
L 433.603772 48.377474 
L 437.427435 56.200935 
L 441.251099 45.76966 
L 445.074763 42.118707 
L 448.898427 47.855911 
L 452.722091 41.597144 
L 456.545754 46.291218 
L 460.369418 50.463737 
L 464.193082 46.812781 
L 468.016746 49.420604 
L 471.840409 50.985294 
L 475.664073 54.114678 
L 479.487737 46.291221 
L 483.311401 43.683398 
L 487.135065 47.855905 
L 490.958728 41.597144 
L 494.782392 50.985296 
L 498.606056 49.420604 
L 502.42972 36.90307 
L 506.253383 44.204964 
L 510.077047 44.726527 
L 513.900711 47.334348 
L 517.724375 45.769654 
L 521.548038 52.028421 
L 525.371702 50.463734 
L 529.195366 45.769654 
L 533.01903 43.161843 
L 536.842694 49.942168 
L 540.666357 46.812781 
L 544.490021 44.726531 
L 548.313685 41.075581 
L 552.137349 44.726524 
L 555.961012 43.683404 
L 559.784676 48.377465 
L 563.60834 41.075581 
L 567.432004 48.377471 
L 571.255668 48.899041 
L 575.079331 41.597144 
L 578.902995 45.769657 
L 582.726659 46.812787 
L 586.550323 49.420604 
L 590.373986 41.075581 
L 594.19765 42.640274 
L 598.021314 46.291221 
L 601.844978 45.248094 
L 605.668642 45.248094 
L 609.492305 44.204967 
L 613.315969 48.377471 
L 617.139633 44.726534 
L 620.963297 44.204961 
L 624.78696 44.204961 
L 628.610624 39.510887 
L 632.434288 48.377471 
L 636.257952 53.071557 
L 640.081615 45.76966 
L 643.905279 47.855908 
L 647.728943 42.640274 
L 651.552607 40.032457 
L 655.376271 44.726531 
L 659.199934 44.726534 
L 663.023598 46.291218 
L 666.847262 38.989321 
L 670.670926 45.769657 
L 674.494589 40.032451 
L 678.318253 53.593115 
L 682.141917 47.855911 
L 685.965581 39.510887 
L 689.789245 41.597144 
L 693.612908 41.597144 
L 697.436572 39.510893 
L 701.260236 42.118707 
L 705.0839 47.334348 
L 708.907563 45.76966 
L 712.731227 46.291222 
L 716.554891 44.726531 
L 720.378555 42.640274 
L 724.202218 49.942169 
L 728.025882 37.424634 
L 731.849546 39.510887 
L 735.67321 42.118704 
L 739.496874 38.989327 
L 743.320537 41.07559 
L 747.144201 43.683398 
L 750.967865 45.76966 
L 754.791529 38.467767 
L 758.615192 40.03246 
L 762.438856 40.55402 
L 766.26252 40.032454 
L 770.086184 41.597147 
L 773.909848 39.510893 
L 777.733511 37.946197 
L 781.557175 40.032451 
L 785.380839 40.554017 
L 789.204503 37.424631 
L 793.028166 42.11871 
L 796.85183 45.248094 
L 800.675494 47.334351 
L 804.499158 41.075584 
L 808.322821 43.683398 
L 812.146485 41.075581 
L 815.970149 43.16184 
L 819.793813 38.467764 
L 823.617477 43.683404 
L 827.44114 44.726527 
L 831.264804 40.032454 
L 835.088468 37.9462 
L 838.912132 45.248091 
L 842.735795 38.989327 
L 842.735795 38.989327 
" style="fill:none;stroke:#1f77b4;stroke-linecap:square;stroke-width:1.5;"/>
   </g>
   <g id="line2d_20">
    <path clip-path="url(#p8f4827a2af)" d="M 81.826705 132.870832 
L 85.650368 125.568935 
L 89.474032 86.451646 
L 93.297696 97.926042 
L 97.12136 91.667283 
L 100.945023 91.667278 
L 104.768687 75.498791 
L 108.592351 89.059463 
L 112.416015 74.977232 
L 116.239679 83.843823 
L 120.063342 73.934107 
L 123.887006 73.934101 
L 127.71067 66.110644 
L 131.534334 77.585051 
L 135.357997 72.89098 
L 139.181661 82.800693 
L 143.005325 79.671312 
L 146.828989 77.585059 
L 150.652652 82.279129 
L 154.476316 69.240034 
L 158.29998 74.455669 
L 162.123644 75.4988 
L 165.947308 70.283159 
L 169.770971 78.628181 
L 173.594635 70.804725 
L 177.418299 82.279132 
L 181.241963 72.89097 
L 185.065626 79.149743 
L 188.88929 77.063489 
L 192.712954 83.32225 
L 196.536618 78.106619 
L 200.360282 65.067519 
L 204.183945 84.365378 
L 208.007609 83.322259 
L 211.831273 69.240032 
L 215.654937 85.408513 
L 219.4786 62.459698 
L 223.302264 89.05946 
L 227.125928 78.628179 
L 230.949592 71.84785 
L 234.773255 81.235999 
L 238.596919 68.718469 
L 242.420583 54.636244 
L 246.244247 67.67534 
L 250.067911 67.153772 
L 253.891574 73.934107 
L 257.715238 70.283156 
L 261.538902 56.200935 
L 265.362566 81.757569 
L 269.186229 69.761592 
L 273.009893 80.714439 
L 276.833557 67.675337 
L 280.657221 59.851878 
L 284.480885 71.326284 
L 288.304548 71.847854 
L 292.128212 69.240029 
L 295.951876 76.541924 
L 299.77554 58.28719 
L 303.599203 76.54193 
L 307.422867 57.765625 
L 311.246531 66.110644 
L 315.070195 49.942165 
L 318.893858 51.506855 
L 322.717522 50.463731 
L 326.541186 53.593111 
L 330.36485 53.071551 
L 334.188514 37.424631 
L 338.012177 46.291218 
L 341.835841 45.2481 
L 345.659505 49.942168 
L 349.483169 52.549985 
L 353.306832 39.510893 
L 357.130496 47.334348 
L 360.95416 52.028424 
L 364.777824 37.946197 
L 368.601488 30.644306 
L 372.425151 32.730554 
L 376.248815 43.161837 
L 380.072479 48.377477 
L 383.896143 41.075581 
L 387.719806 44.726531 
L 391.54347 42.640271 
L 395.367134 35.859947 
L 399.190798 38.989324 
L 403.014462 36.381504 
L 406.838125 40.032451 
L 410.661789 32.208987 
L 414.485453 31.165864 
L 418.309117 29.60118 
L 422.13278 32.208997 
L 425.956444 32.209 
L 429.780108 33.773684 
L 433.603772 32.208994 
L 437.427435 28.036483 
L 441.251099 33.252117 
L 445.074763 26.47179 
L 448.898427 31.687433 
L 452.722091 26.471793 
L 456.545754 32.73056 
L 460.369418 27.514914 
L 464.193082 21.256153 
L 468.016746 21.777716 
L 471.840409 28.036489 
L 475.664073 25.428663 
L 479.487737 24.385543 
L 483.311401 32.73056 
L 487.135065 26.99336 
L 490.958728 23.863979 
L 494.782392 22.299286 
L 498.606056 23.863973 
L 502.42972 21.256153 
L 506.253383 22.820846 
L 510.077047 21.25615 
L 513.900711 17.083636 
L 517.724375 21.256147 
L 521.548038 21.777713 
L 525.371702 19.691463 
L 529.195366 19.691456 
L 533.01903 22.299273 
L 536.842694 20.734586 
L 540.666357 24.385539 
L 544.490021 20.213029 
L 548.313685 23.86397 
L 552.137349 20.21302 
L 559.784676 20.213029 
L 563.60834 22.299277 
L 567.432004 22.29928 
L 571.255668 22.820843 
L 575.079331 26.993353 
L 578.902995 19.691456 
L 582.726659 20.734586 
L 586.550323 20.734586 
L 590.373986 20.213032 
L 594.19765 23.863976 
L 598.021314 19.691463 
L 601.844978 21.25615 
L 605.668642 20.213026 
L 609.492305 23.863973 
L 613.315969 21.777716 
L 617.139633 19.169887 
L 620.963297 22.299286 
L 624.78696 20.21302 
L 628.610624 19.69146 
L 632.434288 25.428663 
L 636.257952 21.256147 
L 640.081615 19.691463 
L 643.905279 22.820846 
L 647.728943 21.256156 
L 651.552607 20.213023 
L 655.376271 22.299283 
L 659.199934 20.213026 
L 663.023598 20.734583 
L 666.847262 20.213026 
L 670.670926 21.256153 
L 674.494589 20.734586 
L 678.318253 19.69146 
L 682.141917 21.777716 
L 685.965581 20.213026 
L 689.789245 21.77771 
L 693.612908 20.734589 
L 701.260236 22.820837 
L 705.0839 21.25614 
L 708.907563 20.213026 
L 712.731227 21.77771 
L 716.554891 77.585053 
L 720.378555 82.279128 
L 724.202218 80.192871 
L 728.025882 57.244065 
L 731.849546 56.200938 
L 735.67321 73.934106 
L 739.496874 52.549988 
L 743.320537 36.38151 
L 747.144201 38.989327 
L 750.967865 35.338377 
L 754.791529 48.899038 
L 758.615192 47.334348 
L 762.438856 31.165867 
L 766.26252 37.424631 
L 770.086184 31.165867 
L 773.909848 34.816817 
L 777.733511 37.424631 
L 781.557175 32.73056 
L 785.380839 33.252127 
L 789.204503 31.68743 
L 793.028166 36.381507 
L 796.85183 33.252123 
L 800.675494 28.55805 
L 804.499158 29.079607 
L 808.322821 26.993353 
L 812.146485 29.07961 
L 815.970149 27.514914 
L 819.793813 28.558047 
L 823.617477 23.863967 
L 827.44114 27.514917 
L 831.264804 26.47179 
L 835.088468 29.079607 
L 838.912132 28.036483 
L 842.735795 28.55805 
L 842.735795 28.55805 
" style="fill:none;stroke:#ff7f0e;stroke-linecap:square;stroke-width:1.5;"/>
   </g>
   <g id="line2d_21">
    <path clip-path="url(#p8f4827a2af)" d="M 81.826705 176.682198 
L 85.650368 209.540725 
L 89.474032 151.64713 
L 93.297696 154.776516 
L 97.12136 142.258981 
L 100.945023 210.583852 
L 104.768687 145.388365 
L 108.592351 120.353296 
L 112.416015 113.572966 
L 116.239679 143.30211 
L 120.063342 82.800694 
L 123.887006 95.83979 
L 127.71067 87.494766 
L 131.534334 78.106614 
L 135.357997 85.408511 
L 139.181661 92.188845 
L 143.005325 114.094528 
L 146.828989 77.585053 
L 150.652652 87.494769 
L 154.476316 78.10661 
L 158.29998 70.28316 
L 162.123644 80.192877 
L 165.947308 75.498804 
L 169.770971 77.58506 
L 173.594635 71.326286 
L 177.418299 76.020359 
L 181.241963 80.192877 
L 185.065626 82.800693 
L 188.88929 82.800693 
L 192.712954 80.714438 
L 196.536618 81.757564 
L 200.360282 102.620125 
L 204.183945 77.585056 
L 208.007609 82.800696 
L 211.831273 77.585054 
L 215.654937 78.106614 
L 219.4786 79.671309 
L 223.302264 85.408511 
L 227.125928 92.710408 
L 230.949592 79.671306 
L 234.773255 85.408516 
L 238.596919 76.020364 
L 242.420583 80.714434 
L 246.244247 72.89098 
L 250.067911 82.279125 
L 253.891574 74.977239 
L 257.715238 73.934109 
L 261.538902 74.977232 
L 265.362566 79.149747 
L 269.186229 92.188843 
L 273.009893 89.059457 
L 276.833557 79.671312 
L 280.657221 90.624156 
L 284.480885 83.843824 
L 288.304548 89.05946 
L 292.128212 82.279129 
L 295.951876 89.581022 
L 299.77554 77.063488 
L 303.599203 74.977229 
L 307.422867 88.016328 
L 311.246531 70.804719 
L 315.070195 79.671308 
L 318.893858 76.541929 
L 322.717522 84.886949 
L 326.541186 86.973205 
L 330.36485 79.149749 
L 334.188514 75.498799 
L 338.012177 74.977229 
L 341.835841 85.930076 
L 345.659505 107.835759 
L 349.483169 83.322258 
L 353.306832 79.671305 
L 357.130496 80.192871 
L 360.95416 84.365388 
L 364.777824 79.149746 
L 368.601488 81.236003 
L 372.425151 71.326286 
L 376.248815 85.930078 
L 383.896143 84.886948 
L 387.719806 88.016334 
L 391.54347 86.973203 
L 395.367134 89.059463 
L 399.190798 76.020364 
L 406.838125 77.063491 
L 410.661789 90.102583 
L 414.485453 77.585057 
L 418.309117 69.761594 
L 422.13278 76.020365 
L 425.956444 85.408516 
L 429.780108 77.063491 
L 433.603772 95.839792 
L 437.427435 86.451641 
L 441.251099 73.412544 
L 445.074763 89.581022 
L 448.898427 74.455672 
L 452.722091 72.890977 
L 456.545754 68.718469 
L 464.193082 87.494766 
L 468.016746 74.455664 
L 471.840409 166.25092 
L 475.664073 141.737417 
L 479.487737 143.302109 
L 483.311401 95.83979 
L 487.135065 105.227944 
L 490.958728 110.443579 
L 494.782392 99.490738 
L 498.606056 114.616086 
L 502.42972 93.231972 
L 506.253383 95.839788 
L 510.077047 89.059466 
L 513.900711 84.886949 
L 517.724375 77.063494 
L 521.548038 84.886948 
L 525.371702 91.145721 
L 529.195366 81.757564 
L 533.01903 85.930075 
L 536.842694 91.667286 
L 540.666357 82.279126 
L 544.490021 90.102588 
L 548.313685 85.408516 
L 552.137349 96.361355 
L 555.961012 89.059458 
L 559.784676 79.671309 
L 563.60834 65.58908 
L 567.432004 78.106617 
L 571.255668 89.581026 
L 575.079331 78.106616 
L 578.902995 74.977239 
L 582.726659 81.235998 
L 586.550323 86.451641 
L 590.373986 85.930076 
L 594.19765 83.843823 
L 598.021314 85.408507 
L 601.844978 91.145713 
L 605.668642 83.843823 
L 609.492305 81.757566 
L 613.315969 86.451641 
L 617.139633 90.624153 
L 620.963297 86.451641 
L 624.78696 89.581029 
L 628.610624 83.843818 
L 632.434288 87.494765 
L 636.257952 93.231973 
L 640.081615 79.671312 
L 643.905279 91.145713 
L 647.728943 86.973203 
L 651.552607 85.408516 
L 655.376271 92.188848 
L 659.199934 83.843821 
L 663.023598 88.016334 
L 666.847262 86.973208 
L 670.670926 96.882918 
L 674.494589 86.973206 
L 678.318253 85.930078 
L 682.141917 84.365383 
L 685.965581 95.318225 
L 689.789245 82.800693 
L 693.612908 80.192876 
L 697.436572 95.318225 
L 701.260236 91.145716 
L 705.0839 90.10259 
L 708.907563 86.973203 
L 712.731227 95.31823 
L 716.554891 83.843816 
L 720.378555 96.882915 
L 724.202218 82.279136 
L 728.025882 94.275097 
L 731.849546 87.494766 
L 735.67321 89.05946 
L 739.496874 97.404482 
L 743.320537 75.498799 
L 747.144201 83.843819 
L 750.967865 89.05946 
L 754.791529 91.667281 
L 758.615192 80.192873 
L 762.438856 84.365388 
L 766.26252 70.804728 
L 770.086184 117.745474 
L 773.909848 77.063492 
L 777.733511 97.92605 
L 781.557175 88.537893 
L 785.380839 74.977237 
L 789.204503 83.843819 
L 793.028166 82.279129 
L 796.85183 80.19287 
L 800.675494 85.408516 
L 808.322821 89.581023 
L 812.146485 78.106619 
L 815.970149 95.83979 
L 819.793813 82.279131 
L 823.617477 92.710407 
L 827.44114 94.796665 
L 831.264804 82.800693 
L 835.088468 86.451641 
L 838.912132 84.365388 
L 842.735795 93.231973 
L 842.735795 93.231973 
" style="fill:none;stroke:#2ca02c;stroke-linecap:square;stroke-width:1.5;"/>
   </g>
   <g id="patch_3">
    <path d="M 43.78125 224.64 
L 43.78125 7.2 
" style="fill:none;stroke:#000000;stroke-linecap:square;stroke-linejoin:miter;stroke-width:0.8;"/>
   </g>
   <g id="patch_4">
    <path d="M 880.78125 224.64 
L 880.78125 7.2 
" style="fill:none;stroke:#000000;stroke-linecap:square;stroke-linejoin:miter;stroke-width:0.8;"/>
   </g>
   <g id="patch_5">
    <path d="M 43.78125 224.64 
L 880.78125 224.64 
" style="fill:none;stroke:#000000;stroke-linecap:square;stroke-linejoin:miter;stroke-width:0.8;"/>
   </g>
   <g id="patch_6">
    <path d="M 43.78125 7.2 
L 880.78125 7.2 
" style="fill:none;stroke:#000000;stroke-linecap:square;stroke-linejoin:miter;stroke-width:0.8;"/>
   </g>
   <g id="legend_1">
    <g id="patch_7">
     <path d="M 50.78125 60.06875 
L 197.6375 60.06875 
Q 199.6375 60.06875 199.6375 58.06875 
L 199.6375 14.2 
Q 199.6375 12.2 197.6375 12.2 
L 50.78125 12.2 
Q 48.78125 12.2 48.78125 14.2 
L 48.78125 58.06875 
Q 48.78125 60.06875 50.78125 60.06875 
z
" style="fill:#ffffff;opacity:0.8;stroke:#cccccc;stroke-linejoin:miter;"/>
    </g>
    <g id="line2d_22">
     <path d="M 52.78125 20.298437 
L 72.78125 20.298437 
" style="fill:none;stroke:#1f77b4;stroke-linecap:square;stroke-width:1.5;"/>
    </g>
    <g id="line2d_23"/>
    <g id="text_21">
     <!-- segnet_focal_score_val -->
     <g transform="translate(80.78125 23.798437)scale(0.1 -0.1)">
      <defs>
       <path d="M 45.40625 27.984375 
Q 45.40625 37.75 41.375 43.109375 
Q 37.359375 48.484375 30.078125 48.484375 
Q 22.859375 48.484375 18.828125 43.109375 
Q 14.796875 37.75 14.796875 27.984375 
Q 14.796875 18.265625 18.828125 12.890625 
Q 22.859375 7.515625 30.078125 7.515625 
Q 37.359375 7.515625 41.375 12.890625 
Q 45.40625 18.265625 45.40625 27.984375 
z
M 54.390625 6.78125 
Q 54.390625 -7.171875 48.1875 -13.984375 
Q 42 -20.796875 29.203125 -20.796875 
Q 24.46875 -20.796875 20.265625 -20.09375 
Q 16.0625 -19.390625 12.109375 -17.921875 
L 12.109375 -9.1875 
Q 16.0625 -11.328125 19.921875 -12.34375 
Q 23.78125 -13.375 27.78125 -13.375 
Q 36.625 -13.375 41.015625 -8.765625 
Q 45.40625 -4.15625 45.40625 5.171875 
L 45.40625 9.625 
Q 42.625 4.78125 38.28125 2.390625 
Q 33.9375 0 27.875 0 
Q 17.828125 0 11.671875 7.65625 
Q 5.515625 15.328125 5.515625 27.984375 
Q 5.515625 40.671875 11.671875 48.328125 
Q 17.828125 56 27.875 56 
Q 33.9375 56 38.28125 53.609375 
Q 42.625 51.21875 45.40625 46.390625 
L 45.40625 54.6875 
L 54.390625 54.6875 
z
" id="DejaVuSans-103"/>
       <path d="M 54.890625 33.015625 
L 54.890625 0 
L 45.90625 0 
L 45.90625 32.71875 
Q 45.90625 40.484375 42.875 44.328125 
Q 39.84375 48.1875 33.796875 48.1875 
Q 26.515625 48.1875 22.3125 43.546875 
Q 18.109375 38.921875 18.109375 30.90625 
L 18.109375 0 
L 9.078125 0 
L 9.078125 54.6875 
L 18.109375 54.6875 
L 18.109375 46.1875 
Q 21.34375 51.125 25.703125 53.5625 
Q 30.078125 56 35.796875 56 
Q 45.21875 56 50.046875 50.171875 
Q 54.890625 44.34375 54.890625 33.015625 
z
" id="DejaVuSans-110"/>
       <path d="M 18.3125 70.21875 
L 18.3125 54.6875 
L 36.8125 54.6875 
L 36.8125 47.703125 
L 18.3125 47.703125 
L 18.3125 18.015625 
Q 18.3125 11.328125 20.140625 9.421875 
Q 21.96875 7.515625 27.59375 7.515625 
L 36.8125 7.515625 
L 36.8125 0 
L 27.59375 0 
Q 17.1875 0 13.234375 3.875 
Q 9.28125 7.765625 9.28125 18.015625 
L 9.28125 47.703125 
L 2.6875 47.703125 
L 2.6875 54.6875 
L 9.28125 54.6875 
L 9.28125 70.21875 
z
" id="DejaVuSans-116"/>
       <path d="M 50.984375 -16.609375 
L 50.984375 -23.578125 
L -0.984375 -23.578125 
L -0.984375 -16.609375 
z
" id="DejaVuSans-95"/>
       <path d="M 37.109375 75.984375 
L 37.109375 68.5 
L 28.515625 68.5 
Q 23.6875 68.5 21.796875 66.546875 
Q 19.921875 64.59375 19.921875 59.515625 
L 19.921875 54.6875 
L 34.71875 54.6875 
L 34.71875 47.703125 
L 19.921875 47.703125 
L 19.921875 0 
L 10.890625 0 
L 10.890625 47.703125 
L 2.296875 47.703125 
L 2.296875 54.6875 
L 10.890625 54.6875 
L 10.890625 58.5 
Q 10.890625 67.625 15.140625 71.796875 
Q 19.390625 75.984375 28.609375 75.984375 
z
" id="DejaVuSans-102"/>
       <path d="M 34.28125 27.484375 
Q 23.390625 27.484375 19.1875 25 
Q 14.984375 22.515625 14.984375 16.5 
Q 14.984375 11.71875 18.140625 8.90625 
Q 21.296875 6.109375 26.703125 6.109375 
Q 34.1875 6.109375 38.703125 11.40625 
Q 43.21875 16.703125 43.21875 25.484375 
L 43.21875 27.484375 
z
M 52.203125 31.203125 
L 52.203125 0 
L 43.21875 0 
L 43.21875 8.296875 
Q 40.140625 3.328125 35.546875 0.953125 
Q 30.953125 -1.421875 24.3125 -1.421875 
Q 15.921875 -1.421875 10.953125 3.296875 
Q 6 8.015625 6 15.921875 
Q 6 25.140625 12.171875 29.828125 
Q 18.359375 34.515625 30.609375 34.515625 
L 43.21875 34.515625 
L 43.21875 35.40625 
Q 43.21875 41.609375 39.140625 45 
Q 35.0625 48.390625 27.6875 48.390625 
Q 23 48.390625 18.546875 47.265625 
Q 14.109375 46.140625 10.015625 43.890625 
L 10.015625 52.203125 
Q 14.9375 54.109375 19.578125 55.046875 
Q 24.21875 56 28.609375 56 
Q 40.484375 56 46.34375 49.84375 
Q 52.203125 43.703125 52.203125 31.203125 
z
" id="DejaVuSans-97"/>
       <path d="M 9.421875 75.984375 
L 18.40625 75.984375 
L 18.40625 0 
L 9.421875 0 
z
" id="DejaVuSans-108"/>
       <path d="M 2.984375 54.6875 
L 12.5 54.6875 
L 29.59375 8.796875 
L 46.6875 54.6875 
L 56.203125 54.6875 
L 35.6875 0 
L 23.484375 0 
z
" id="DejaVuSans-118"/>
      </defs>
      <use xlink:href="#DejaVuSans-115"/>
      <use x="52.099609" xlink:href="#DejaVuSans-101"/>
      <use x="113.623047" xlink:href="#DejaVuSans-103"/>
      <use x="177.099609" xlink:href="#DejaVuSans-110"/>
      <use x="240.478516" xlink:href="#DejaVuSans-101"/>
      <use x="302.001953" xlink:href="#DejaVuSans-116"/>
      <use x="341.210938" xlink:href="#DejaVuSans-95"/>
      <use x="391.210938" xlink:href="#DejaVuSans-102"/>
      <use x="426.416016" xlink:href="#DejaVuSans-111"/>
      <use x="487.597656" xlink:href="#DejaVuSans-99"/>
      <use x="542.578125" xlink:href="#DejaVuSans-97"/>
      <use x="603.857422" xlink:href="#DejaVuSans-108"/>
      <use x="631.640625" xlink:href="#DejaVuSans-95"/>
      <use x="681.640625" xlink:href="#DejaVuSans-115"/>
      <use x="733.740234" xlink:href="#DejaVuSans-99"/>
      <use x="788.720703" xlink:href="#DejaVuSans-111"/>
      <use x="849.902344" xlink:href="#DejaVuSans-114"/>
      <use x="888.765625" xlink:href="#DejaVuSans-101"/>
      <use x="950.289062" xlink:href="#DejaVuSans-95"/>
      <use x="1000.289062" xlink:href="#DejaVuSans-118"/>
      <use x="1059.46875" xlink:href="#DejaVuSans-97"/>
      <use x="1120.748047" xlink:href="#DejaVuSans-108"/>
     </g>
    </g>
    <g id="line2d_24">
     <path d="M 52.78125 35.254687 
L 72.78125 35.254687 
" style="fill:none;stroke:#ff7f0e;stroke-linecap:square;stroke-width:1.5;"/>
    </g>
    <g id="line2d_25"/>
    <g id="text_22">
     <!-- unet_focal_score_val -->
     <g transform="translate(80.78125 38.754687)scale(0.1 -0.1)">
      <defs>
       <path d="M 8.5 21.578125 
L 8.5 54.6875 
L 17.484375 54.6875 
L 17.484375 21.921875 
Q 17.484375 14.15625 20.5 10.265625 
Q 23.53125 6.390625 29.59375 6.390625 
Q 36.859375 6.390625 41.078125 11.03125 
Q 45.3125 15.671875 45.3125 23.6875 
L 45.3125 54.6875 
L 54.296875 54.6875 
L 54.296875 0 
L 45.3125 0 
L 45.3125 8.40625 
Q 42.046875 3.421875 37.71875 1 
Q 33.40625 -1.421875 27.6875 -1.421875 
Q 18.265625 -1.421875 13.375 4.4375 
Q 8.5 10.296875 8.5 21.578125 
z
M 31.109375 56 
z
" id="DejaVuSans-117"/>
      </defs>
      <use xlink:href="#DejaVuSans-117"/>
      <use x="63.378906" xlink:href="#DejaVuSans-110"/>
      <use x="126.757812" xlink:href="#DejaVuSans-101"/>
      <use x="188.28125" xlink:href="#DejaVuSans-116"/>
      <use x="227.490234" xlink:href="#DejaVuSans-95"/>
      <use x="277.490234" xlink:href="#DejaVuSans-102"/>
      <use x="312.695312" xlink:href="#DejaVuSans-111"/>
      <use x="373.876953" xlink:href="#DejaVuSans-99"/>
      <use x="428.857422" xlink:href="#DejaVuSans-97"/>
      <use x="490.136719" xlink:href="#DejaVuSans-108"/>
      <use x="517.919922" xlink:href="#DejaVuSans-95"/>
      <use x="567.919922" xlink:href="#DejaVuSans-115"/>
      <use x="620.019531" xlink:href="#DejaVuSans-99"/>
      <use x="675" xlink:href="#DejaVuSans-111"/>
      <use x="736.181641" xlink:href="#DejaVuSans-114"/>
      <use x="775.044922" xlink:href="#DejaVuSans-101"/>
      <use x="836.568359" xlink:href="#DejaVuSans-95"/>
      <use x="886.568359" xlink:href="#DejaVuSans-118"/>
      <use x="945.748047" xlink:href="#DejaVuSans-97"/>
      <use x="1007.027344" xlink:href="#DejaVuSans-108"/>
     </g>
    </g>
    <g id="line2d_26">
     <path d="M 52.78125 50.210937 
L 72.78125 50.210937 
" style="fill:none;stroke:#2ca02c;stroke-linecap:square;stroke-width:1.5;"/>
    </g>
    <g id="line2d_27"/>
    <g id="text_23">
     <!-- unet2_focal_score_val -->
     <g transform="translate(80.78125 53.710937)scale(0.1 -0.1)">
      <use xlink:href="#DejaVuSans-117"/>
      <use x="63.378906" xlink:href="#DejaVuSans-110"/>
      <use x="126.757812" xlink:href="#DejaVuSans-101"/>
      <use x="188.28125" xlink:href="#DejaVuSans-116"/>
      <use x="227.490234" xlink:href="#DejaVuSans-50"/>
      <use x="291.113281" xlink:href="#DejaVuSans-95"/>
      <use x="341.113281" xlink:href="#DejaVuSans-102"/>
      <use x="376.318359" xlink:href="#DejaVuSans-111"/>
      <use x="437.5" xlink:href="#DejaVuSans-99"/>
      <use x="492.480469" xlink:href="#DejaVuSans-97"/>
      <use x="553.759766" xlink:href="#DejaVuSans-108"/>
      <use x="581.542969" xlink:href="#DejaVuSans-95"/>
      <use x="631.542969" xlink:href="#DejaVuSans-115"/>
      <use x="683.642578" xlink:href="#DejaVuSans-99"/>
      <use x="738.623047" xlink:href="#DejaVuSans-111"/>
      <use x="799.804688" xlink:href="#DejaVuSans-114"/>
      <use x="838.667969" xlink:href="#DejaVuSans-101"/>
      <use x="900.191406" xlink:href="#DejaVuSans-95"/>
      <use x="950.191406" xlink:href="#DejaVuSans-118"/>
      <use x="1009.371094" xlink:href="#DejaVuSans-97"/>
      <use x="1070.650391" xlink:href="#DejaVuSans-108"/>
     </g>
    </g>
   </g>
  </g>
 </g>
 <defs>
  <clipPath id="p8f4827a2af">
   <rect height="217.44" width="837" x="43.78125" y="7.2"/>
  </clipPath>
 </defs>
</svg>
