<?xml version="1.0" encoding="utf-8" standalone="no"?>
<!DOCTYPE svg PUBLIC "-//W3C//DTD SVG 1.1//EN"
  "http://www.w3.org/Graphics/SVG/1.1/DTD/svg11.dtd">
<!-- Created with matplotlib (https://matplotlib.org/) -->
<svg height="262.19625pt" version="1.1" viewBox="0 0 887.98125 262.19625" width="887.98125pt" xmlns="http://www.w3.org/2000/svg" xmlns:xlink="http://www.w3.org/1999/xlink">
 <metadata>
  <rdf:RDF xmlns:cc="http://creativecommons.org/ns#" xmlns:dc="http://purl.org/dc/elements/1.1/" xmlns:rdf="http://www.w3.org/1999/02/22-rdf-syntax-ns#">
   <cc:Work>
    <dc:type rdf:resource="http://purl.org/dc/dcmitype/StillImage"/>
    <dc:date>2020-12-16T15:40:13.841763</dc:date>
    <dc:format>image/svg+xml</dc:format>
    <dc:creator>
     <cc:Agent>
      <dc:title>Matplotlib v3.3.3, https://matplotlib.org/</dc:title>
     </cc:Agent>
    </dc:creator>
   </cc:Work>
  </rdf:RDF>
 </metadata>
 <defs>
  <style type="text/css">*{stroke-linecap:butt;stroke-linejoin:round;}</style>
 </defs>
 <g id="figure_1">
  <g id="patch_1">
   <path d="M 0 262.19625 
L 887.98125 262.19625 
L 887.98125 0 
L 0 0 
z
" style="fill:none;"/>
  </g>
  <g id="axes_1">
   <g id="patch_2">
    <path d="M 43.78125 224.64 
L 880.78125 224.64 
L 880.78125 7.2 
L 43.78125 7.2 
z
" style="fill:#ffffff;"/>
   </g>
   <g id="matplotlib.axis_1">
    <g id="xtick_1">
     <g id="line2d_1">
      <defs>
       <path d="M 0 0 
L 0 3.5 
" id="md6b34d2e48" style="stroke:#000000;stroke-width:0.8;"/>
      </defs>
      <g>
       <use style="stroke:#000000;stroke-width:0.8;" x="81.826705" xlink:href="#md6b34d2e48" y="224.64"/>
      </g>
     </g>
     <g id="text_1">
      <!-- 0 -->
      <g transform="translate(78.645455 239.238437)scale(0.1 -0.1)">
       <defs>
        <path d="M 31.78125 66.40625 
Q 24.171875 66.40625 20.328125 58.90625 
Q 16.5 51.421875 16.5 36.375 
Q 16.5 21.390625 20.328125 13.890625 
Q 24.171875 6.390625 31.78125 6.390625 
Q 39.453125 6.390625 43.28125 13.890625 
Q 47.125 21.390625 47.125 36.375 
Q 47.125 51.421875 43.28125 58.90625 
Q 39.453125 66.40625 31.78125 66.40625 
z
M 31.78125 74.21875 
Q 44.046875 74.21875 50.515625 64.515625 
Q 56.984375 54.828125 56.984375 36.375 
Q 56.984375 17.96875 50.515625 8.265625 
Q 44.046875 -1.421875 31.78125 -1.421875 
Q 19.53125 -1.421875 13.0625 8.265625 
Q 6.59375 17.96875 6.59375 36.375 
Q 6.59375 54.828125 13.0625 64.515625 
Q 19.53125 74.21875 31.78125 74.21875 
z
" id="DejaVuSans-48"/>
       </defs>
       <use xlink:href="#DejaVuSans-48"/>
      </g>
     </g>
    </g>
    <g id="xtick_2">
     <g id="line2d_2">
      <g>
       <use style="stroke:#000000;stroke-width:0.8;" x="177.418299" xlink:href="#md6b34d2e48" y="224.64"/>
      </g>
     </g>
     <g id="text_2">
      <!-- 25 -->
      <g transform="translate(171.055799 239.238437)scale(0.1 -0.1)">
       <defs>
        <path d="M 19.1875 8.296875 
L 53.609375 8.296875 
L 53.609375 0 
L 7.328125 0 
L 7.328125 8.296875 
Q 12.9375 14.109375 22.625 23.890625 
Q 32.328125 33.6875 34.8125 36.53125 
Q 39.546875 41.84375 41.421875 45.53125 
Q 43.3125 49.21875 43.3125 52.78125 
Q 43.3125 58.59375 39.234375 62.25 
Q 35.15625 65.921875 28.609375 65.921875 
Q 23.96875 65.921875 18.8125 64.3125 
Q 13.671875 62.703125 7.8125 59.421875 
L 7.8125 69.390625 
Q 13.765625 71.78125 18.9375 73 
Q 24.125 74.21875 28.421875 74.21875 
Q 39.75 74.21875 46.484375 68.546875 
Q 53.21875 62.890625 53.21875 53.421875 
Q 53.21875 48.921875 51.53125 44.890625 
Q 49.859375 40.875 45.40625 35.40625 
Q 44.1875 33.984375 37.640625 27.21875 
Q 31.109375 20.453125 19.1875 8.296875 
z
" id="DejaVuSans-50"/>
        <path d="M 10.796875 72.90625 
L 49.515625 72.90625 
L 49.515625 64.59375 
L 19.828125 64.59375 
L 19.828125 46.734375 
Q 21.96875 47.46875 24.109375 47.828125 
Q 26.265625 48.1875 28.421875 48.1875 
Q 40.625 48.1875 47.75 41.5 
Q 54.890625 34.8125 54.890625 23.390625 
Q 54.890625 11.625 47.5625 5.09375 
Q 40.234375 -1.421875 26.90625 -1.421875 
Q 22.3125 -1.421875 17.546875 -0.640625 
Q 12.796875 0.140625 7.71875 1.703125 
L 7.71875 11.625 
Q 12.109375 9.234375 16.796875 8.0625 
Q 21.484375 6.890625 26.703125 6.890625 
Q 35.15625 6.890625 40.078125 11.328125 
Q 45.015625 15.765625 45.015625 23.390625 
Q 45.015625 31 40.078125 35.4375 
Q 35.15625 39.890625 26.703125 39.890625 
Q 22.75 39.890625 18.8125 39.015625 
Q 14.890625 38.140625 10.796875 36.28125 
z
" id="DejaVuSans-53"/>
       </defs>
       <use xlink:href="#DejaVuSans-50"/>
       <use x="63.623047" xlink:href="#DejaVuSans-53"/>
      </g>
     </g>
    </g>
    <g id="xtick_3">
     <g id="line2d_3">
      <g>
       <use style="stroke:#000000;stroke-width:0.8;" x="273.009893" xlink:href="#md6b34d2e48" y="224.64"/>
      </g>
     </g>
     <g id="text_3">
      <!-- 50 -->
      <g transform="translate(266.647393 239.238437)scale(0.1 -0.1)">
       <use xlink:href="#DejaVuSans-53"/>
       <use x="63.623047" xlink:href="#DejaVuSans-48"/>
      </g>
     </g>
    </g>
    <g id="xtick_4">
     <g id="line2d_4">
      <g>
       <use style="stroke:#000000;stroke-width:0.8;" x="368.601488" xlink:href="#md6b34d2e48" y="224.64"/>
      </g>
     </g>
     <g id="text_4">
      <!-- 75 -->
      <g transform="translate(362.238988 239.238437)scale(0.1 -0.1)">
       <defs>
        <path d="M 8.203125 72.90625 
L 55.078125 72.90625 
L 55.078125 68.703125 
L 28.609375 0 
L 18.3125 0 
L 43.21875 64.59375 
L 8.203125 64.59375 
z
" id="DejaVuSans-55"/>
       </defs>
       <use xlink:href="#DejaVuSans-55"/>
       <use x="63.623047" xlink:href="#DejaVuSans-53"/>
      </g>
     </g>
    </g>
    <g id="xtick_5">
     <g id="line2d_5">
      <g>
       <use style="stroke:#000000;stroke-width:0.8;" x="464.193082" xlink:href="#md6b34d2e48" y="224.64"/>
      </g>
     </g>
     <g id="text_5">
      <!-- 100 -->
      <g transform="translate(454.649332 239.238437)scale(0.1 -0.1)">
       <defs>
        <path d="M 12.40625 8.296875 
L 28.515625 8.296875 
L 28.515625 63.921875 
L 10.984375 60.40625 
L 10.984375 69.390625 
L 28.421875 72.90625 
L 38.28125 72.90625 
L 38.28125 8.296875 
L 54.390625 8.296875 
L 54.390625 0 
L 12.40625 0 
z
" id="DejaVuSans-49"/>
       </defs>
       <use xlink:href="#DejaVuSans-49"/>
       <use x="63.623047" xlink:href="#DejaVuSans-48"/>
       <use x="127.246094" xlink:href="#DejaVuSans-48"/>
      </g>
     </g>
    </g>
    <g id="xtick_6">
     <g id="line2d_6">
      <g>
       <use style="stroke:#000000;stroke-width:0.8;" x="559.784676" xlink:href="#md6b34d2e48" y="224.64"/>
      </g>
     </g>
     <g id="text_6">
      <!-- 125 -->
      <g transform="translate(550.240926 239.238437)scale(0.1 -0.1)">
       <use xlink:href="#DejaVuSans-49"/>
       <use x="63.623047" xlink:href="#DejaVuSans-50"/>
       <use x="127.246094" xlink:href="#DejaVuSans-53"/>
      </g>
     </g>
    </g>
    <g id="xtick_7">
     <g id="line2d_7">
      <g>
       <use style="stroke:#000000;stroke-width:0.8;" x="655.376271" xlink:href="#md6b34d2e48" y="224.64"/>
      </g>
     </g>
     <g id="text_7">
      <!-- 150 -->
      <g transform="translate(645.832521 239.238437)scale(0.1 -0.1)">
       <use xlink:href="#DejaVuSans-49"/>
       <use x="63.623047" xlink:href="#DejaVuSans-53"/>
       <use x="127.246094" xlink:href="#DejaVuSans-48"/>
      </g>
     </g>
    </g>
    <g id="xtick_8">
     <g id="line2d_8">
      <g>
       <use style="stroke:#000000;stroke-width:0.8;" x="750.967865" xlink:href="#md6b34d2e48" y="224.64"/>
      </g>
     </g>
     <g id="text_8">
      <!-- 175 -->
      <g transform="translate(741.424115 239.238437)scale(0.1 -0.1)">
       <use xlink:href="#DejaVuSans-49"/>
       <use x="63.623047" xlink:href="#DejaVuSans-55"/>
       <use x="127.246094" xlink:href="#DejaVuSans-53"/>
      </g>
     </g>
    </g>
    <g id="xtick_9">
     <g id="line2d_9">
      <g>
       <use style="stroke:#000000;stroke-width:0.8;" x="846.559459" xlink:href="#md6b34d2e48" y="224.64"/>
      </g>
     </g>
     <g id="text_9">
      <!-- 200 -->
      <g transform="translate(837.015709 239.238437)scale(0.1 -0.1)">
       <use xlink:href="#DejaVuSans-50"/>
       <use x="63.623047" xlink:href="#DejaVuSans-48"/>
       <use x="127.246094" xlink:href="#DejaVuSans-48"/>
      </g>
     </g>
    </g>
    <g id="text_10">
     <!-- epoch -->
     <g transform="translate(447.053125 252.916562)scale(0.1 -0.1)">
      <defs>
       <path d="M 56.203125 29.59375 
L 56.203125 25.203125 
L 14.890625 25.203125 
Q 15.484375 15.921875 20.484375 11.0625 
Q 25.484375 6.203125 34.421875 6.203125 
Q 39.59375 6.203125 44.453125 7.46875 
Q 49.3125 8.734375 54.109375 11.28125 
L 54.109375 2.78125 
Q 49.265625 0.734375 44.1875 -0.34375 
Q 39.109375 -1.421875 33.890625 -1.421875 
Q 20.796875 -1.421875 13.15625 6.1875 
Q 5.515625 13.8125 5.515625 26.8125 
Q 5.515625 40.234375 12.765625 48.109375 
Q 20.015625 56 32.328125 56 
Q 43.359375 56 49.78125 48.890625 
Q 56.203125 41.796875 56.203125 29.59375 
z
M 47.21875 32.234375 
Q 47.125 39.59375 43.09375 43.984375 
Q 39.0625 48.390625 32.421875 48.390625 
Q 24.90625 48.390625 20.390625 44.140625 
Q 15.875 39.890625 15.1875 32.171875 
z
" id="DejaVuSans-101"/>
       <path d="M 18.109375 8.203125 
L 18.109375 -20.796875 
L 9.078125 -20.796875 
L 9.078125 54.6875 
L 18.109375 54.6875 
L 18.109375 46.390625 
Q 20.953125 51.265625 25.265625 53.625 
Q 29.59375 56 35.59375 56 
Q 45.5625 56 51.78125 48.09375 
Q 58.015625 40.1875 58.015625 27.296875 
Q 58.015625 14.40625 51.78125 6.484375 
Q 45.5625 -1.421875 35.59375 -1.421875 
Q 29.59375 -1.421875 25.265625 0.953125 
Q 20.953125 3.328125 18.109375 8.203125 
z
M 48.6875 27.296875 
Q 48.6875 37.203125 44.609375 42.84375 
Q 40.53125 48.484375 33.40625 48.484375 
Q 26.265625 48.484375 22.1875 42.84375 
Q 18.109375 37.203125 18.109375 27.296875 
Q 18.109375 17.390625 22.1875 11.75 
Q 26.265625 6.109375 33.40625 6.109375 
Q 40.53125 6.109375 44.609375 11.75 
Q 48.6875 17.390625 48.6875 27.296875 
z
" id="DejaVuSans-112"/>
       <path d="M 30.609375 48.390625 
Q 23.390625 48.390625 19.1875 42.75 
Q 14.984375 37.109375 14.984375 27.296875 
Q 14.984375 17.484375 19.15625 11.84375 
Q 23.34375 6.203125 30.609375 6.203125 
Q 37.796875 6.203125 41.984375 11.859375 
Q 46.1875 17.53125 46.1875 27.296875 
Q 46.1875 37.015625 41.984375 42.703125 
Q 37.796875 48.390625 30.609375 48.390625 
z
M 30.609375 56 
Q 42.328125 56 49.015625 48.375 
Q 55.71875 40.765625 55.71875 27.296875 
Q 55.71875 13.875 49.015625 6.21875 
Q 42.328125 -1.421875 30.609375 -1.421875 
Q 18.84375 -1.421875 12.171875 6.21875 
Q 5.515625 13.875 5.515625 27.296875 
Q 5.515625 40.765625 12.171875 48.375 
Q 18.84375 56 30.609375 56 
z
" id="DejaVuSans-111"/>
       <path d="M 48.78125 52.59375 
L 48.78125 44.1875 
Q 44.96875 46.296875 41.140625 47.34375 
Q 37.3125 48.390625 33.40625 48.390625 
Q 24.65625 48.390625 19.8125 42.84375 
Q 14.984375 37.3125 14.984375 27.296875 
Q 14.984375 17.28125 19.8125 11.734375 
Q 24.65625 6.203125 33.40625 6.203125 
Q 37.3125 6.203125 41.140625 7.25 
Q 44.96875 8.296875 48.78125 10.40625 
L 48.78125 2.09375 
Q 45.015625 0.34375 40.984375 -0.53125 
Q 36.96875 -1.421875 32.421875 -1.421875 
Q 20.0625 -1.421875 12.78125 6.34375 
Q 5.515625 14.109375 5.515625 27.296875 
Q 5.515625 40.671875 12.859375 48.328125 
Q 20.21875 56 33.015625 56 
Q 37.15625 56 41.109375 55.140625 
Q 45.0625 54.296875 48.78125 52.59375 
z
" id="DejaVuSans-99"/>
       <path d="M 54.890625 33.015625 
L 54.890625 0 
L 45.90625 0 
L 45.90625 32.71875 
Q 45.90625 40.484375 42.875 44.328125 
Q 39.84375 48.1875 33.796875 48.1875 
Q 26.515625 48.1875 22.3125 43.546875 
Q 18.109375 38.921875 18.109375 30.90625 
L 18.109375 0 
L 9.078125 0 
L 9.078125 75.984375 
L 18.109375 75.984375 
L 18.109375 46.1875 
Q 21.34375 51.125 25.703125 53.5625 
Q 30.078125 56 35.796875 56 
Q 45.21875 56 50.046875 50.171875 
Q 54.890625 44.34375 54.890625 33.015625 
z
" id="DejaVuSans-104"/>
      </defs>
      <use xlink:href="#DejaVuSans-101"/>
      <use x="61.523438" xlink:href="#DejaVuSans-112"/>
      <use x="125" xlink:href="#DejaVuSans-111"/>
      <use x="186.181641" xlink:href="#DejaVuSans-99"/>
      <use x="241.162109" xlink:href="#DejaVuSans-104"/>
     </g>
    </g>
   </g>
   <g id="matplotlib.axis_2">
    <g id="ytick_1">
     <g id="line2d_10">
      <defs>
       <path d="M 0 0 
L -3.5 0 
" id="m94ade7bf35" style="stroke:#000000;stroke-width:0.8;"/>
      </defs>
      <g>
       <use style="stroke:#000000;stroke-width:0.8;" x="43.78125" xlink:href="#m94ade7bf35" y="216.436302"/>
      </g>
     </g>
     <g id="text_11">
      <!-- 0.0 -->
      <g transform="translate(20.878125 220.235521)scale(0.1 -0.1)">
       <defs>
        <path d="M 10.6875 12.40625 
L 21 12.40625 
L 21 0 
L 10.6875 0 
z
" id="DejaVuSans-46"/>
       </defs>
       <use xlink:href="#DejaVuSans-48"/>
       <use x="63.623047" xlink:href="#DejaVuSans-46"/>
       <use x="95.410156" xlink:href="#DejaVuSans-48"/>
      </g>
     </g>
    </g>
    <g id="ytick_2">
     <g id="line2d_11">
      <g>
       <use style="stroke:#000000;stroke-width:0.8;" x="43.78125" xlink:href="#m94ade7bf35" y="188.437333"/>
      </g>
     </g>
     <g id="text_12">
      <!-- 0.1 -->
      <g transform="translate(20.878125 192.236551)scale(0.1 -0.1)">
       <use xlink:href="#DejaVuSans-48"/>
       <use x="63.623047" xlink:href="#DejaVuSans-46"/>
       <use x="95.410156" xlink:href="#DejaVuSans-49"/>
      </g>
     </g>
    </g>
    <g id="ytick_3">
     <g id="line2d_12">
      <g>
       <use style="stroke:#000000;stroke-width:0.8;" x="43.78125" xlink:href="#m94ade7bf35" y="160.438363"/>
      </g>
     </g>
     <g id="text_13">
      <!-- 0.2 -->
      <g transform="translate(20.878125 164.237582)scale(0.1 -0.1)">
       <use xlink:href="#DejaVuSans-48"/>
       <use x="63.623047" xlink:href="#DejaVuSans-46"/>
       <use x="95.410156" xlink:href="#DejaVuSans-50"/>
      </g>
     </g>
    </g>
    <g id="ytick_4">
     <g id="line2d_13">
      <g>
       <use style="stroke:#000000;stroke-width:0.8;" x="43.78125" xlink:href="#m94ade7bf35" y="132.439394"/>
      </g>
     </g>
     <g id="text_14">
      <!-- 0.3 -->
      <g transform="translate(20.878125 136.238612)scale(0.1 -0.1)">
       <defs>
        <path d="M 40.578125 39.3125 
Q 47.65625 37.796875 51.625 33 
Q 55.609375 28.21875 55.609375 21.1875 
Q 55.609375 10.40625 48.1875 4.484375 
Q 40.765625 -1.421875 27.09375 -1.421875 
Q 22.515625 -1.421875 17.65625 -0.515625 
Q 12.796875 0.390625 7.625 2.203125 
L 7.625 11.71875 
Q 11.71875 9.328125 16.59375 8.109375 
Q 21.484375 6.890625 26.8125 6.890625 
Q 36.078125 6.890625 40.9375 10.546875 
Q 45.796875 14.203125 45.796875 21.1875 
Q 45.796875 27.640625 41.28125 31.265625 
Q 36.765625 34.90625 28.71875 34.90625 
L 20.21875 34.90625 
L 20.21875 43.015625 
L 29.109375 43.015625 
Q 36.375 43.015625 40.234375 45.921875 
Q 44.09375 48.828125 44.09375 54.296875 
Q 44.09375 59.90625 40.109375 62.90625 
Q 36.140625 65.921875 28.71875 65.921875 
Q 24.65625 65.921875 20.015625 65.03125 
Q 15.375 64.15625 9.8125 62.3125 
L 9.8125 71.09375 
Q 15.4375 72.65625 20.34375 73.4375 
Q 25.25 74.21875 29.59375 74.21875 
Q 40.828125 74.21875 47.359375 69.109375 
Q 53.90625 64.015625 53.90625 55.328125 
Q 53.90625 49.265625 50.4375 45.09375 
Q 46.96875 40.921875 40.578125 39.3125 
z
" id="DejaVuSans-51"/>
       </defs>
       <use xlink:href="#DejaVuSans-48"/>
       <use x="63.623047" xlink:href="#DejaVuSans-46"/>
       <use x="95.410156" xlink:href="#DejaVuSans-51"/>
      </g>
     </g>
    </g>
    <g id="ytick_5">
     <g id="line2d_14">
      <g>
       <use style="stroke:#000000;stroke-width:0.8;" x="43.78125" xlink:href="#m94ade7bf35" y="104.440424"/>
      </g>
     </g>
     <g id="text_15">
      <!-- 0.4 -->
      <g transform="translate(20.878125 108.239643)scale(0.1 -0.1)">
       <defs>
        <path d="M 37.796875 64.3125 
L 12.890625 25.390625 
L 37.796875 25.390625 
z
M 35.203125 72.90625 
L 47.609375 72.90625 
L 47.609375 25.390625 
L 58.015625 25.390625 
L 58.015625 17.1875 
L 47.609375 17.1875 
L 47.609375 0 
L 37.796875 0 
L 37.796875 17.1875 
L 4.890625 17.1875 
L 4.890625 26.703125 
z
" id="DejaVuSans-52"/>
       </defs>
       <use xlink:href="#DejaVuSans-48"/>
       <use x="63.623047" xlink:href="#DejaVuSans-46"/>
       <use x="95.410156" xlink:href="#DejaVuSans-52"/>
      </g>
     </g>
    </g>
    <g id="ytick_6">
     <g id="line2d_15">
      <g>
       <use style="stroke:#000000;stroke-width:0.8;" x="43.78125" xlink:href="#m94ade7bf35" y="76.441455"/>
      </g>
     </g>
     <g id="text_16">
      <!-- 0.5 -->
      <g transform="translate(20.878125 80.240674)scale(0.1 -0.1)">
       <use xlink:href="#DejaVuSans-48"/>
       <use x="63.623047" xlink:href="#DejaVuSans-46"/>
       <use x="95.410156" xlink:href="#DejaVuSans-53"/>
      </g>
     </g>
    </g>
    <g id="ytick_7">
     <g id="line2d_16">
      <g>
       <use style="stroke:#000000;stroke-width:0.8;" x="43.78125" xlink:href="#m94ade7bf35" y="48.442486"/>
      </g>
     </g>
     <g id="text_17">
      <!-- 0.6 -->
      <g transform="translate(20.878125 52.241704)scale(0.1 -0.1)">
       <defs>
        <path d="M 33.015625 40.375 
Q 26.375 40.375 22.484375 35.828125 
Q 18.609375 31.296875 18.609375 23.390625 
Q 18.609375 15.53125 22.484375 10.953125 
Q 26.375 6.390625 33.015625 6.390625 
Q 39.65625 6.390625 43.53125 10.953125 
Q 47.40625 15.53125 47.40625 23.390625 
Q 47.40625 31.296875 43.53125 35.828125 
Q 39.65625 40.375 33.015625 40.375 
z
M 52.59375 71.296875 
L 52.59375 62.3125 
Q 48.875 64.0625 45.09375 64.984375 
Q 41.3125 65.921875 37.59375 65.921875 
Q 27.828125 65.921875 22.671875 59.328125 
Q 17.53125 52.734375 16.796875 39.40625 
Q 19.671875 43.65625 24.015625 45.921875 
Q 28.375 48.1875 33.59375 48.1875 
Q 44.578125 48.1875 50.953125 41.515625 
Q 57.328125 34.859375 57.328125 23.390625 
Q 57.328125 12.15625 50.6875 5.359375 
Q 44.046875 -1.421875 33.015625 -1.421875 
Q 20.359375 -1.421875 13.671875 8.265625 
Q 6.984375 17.96875 6.984375 36.375 
Q 6.984375 53.65625 15.1875 63.9375 
Q 23.390625 74.21875 37.203125 74.21875 
Q 40.921875 74.21875 44.703125 73.484375 
Q 48.484375 72.75 52.59375 71.296875 
z
" id="DejaVuSans-54"/>
       </defs>
       <use xlink:href="#DejaVuSans-48"/>
       <use x="63.623047" xlink:href="#DejaVuSans-46"/>
       <use x="95.410156" xlink:href="#DejaVuSans-54"/>
      </g>
     </g>
    </g>
    <g id="ytick_8">
     <g id="line2d_17">
      <g>
       <use style="stroke:#000000;stroke-width:0.8;" x="43.78125" xlink:href="#m94ade7bf35" y="20.443516"/>
      </g>
     </g>
     <g id="text_18">
      <!-- 0.7 -->
      <g transform="translate(20.878125 24.242735)scale(0.1 -0.1)">
       <use xlink:href="#DejaVuSans-48"/>
       <use x="63.623047" xlink:href="#DejaVuSans-46"/>
       <use x="95.410156" xlink:href="#DejaVuSans-55"/>
      </g>
     </g>
    </g>
    <g id="text_19">
     <!-- score -->
     <g transform="translate(14.798438 129.352812)rotate(-90)scale(0.1 -0.1)">
      <defs>
       <path d="M 44.28125 53.078125 
L 44.28125 44.578125 
Q 40.484375 46.53125 36.375 47.5 
Q 32.28125 48.484375 27.875 48.484375 
Q 21.1875 48.484375 17.84375 46.4375 
Q 14.5 44.390625 14.5 40.28125 
Q 14.5 37.15625 16.890625 35.375 
Q 19.28125 33.59375 26.515625 31.984375 
L 29.59375 31.296875 
Q 39.15625 29.25 43.1875 25.515625 
Q 47.21875 21.78125 47.21875 15.09375 
Q 47.21875 7.46875 41.1875 3.015625 
Q 35.15625 -1.421875 24.609375 -1.421875 
Q 20.21875 -1.421875 15.453125 -0.5625 
Q 10.6875 0.296875 5.421875 2 
L 5.421875 11.28125 
Q 10.40625 8.6875 15.234375 7.390625 
Q 20.0625 6.109375 24.8125 6.109375 
Q 31.15625 6.109375 34.5625 8.28125 
Q 37.984375 10.453125 37.984375 14.40625 
Q 37.984375 18.0625 35.515625 20.015625 
Q 33.0625 21.96875 24.703125 23.78125 
L 21.578125 24.515625 
Q 13.234375 26.265625 9.515625 29.90625 
Q 5.8125 33.546875 5.8125 39.890625 
Q 5.8125 47.609375 11.28125 51.796875 
Q 16.75 56 26.8125 56 
Q 31.78125 56 36.171875 55.265625 
Q 40.578125 54.546875 44.28125 53.078125 
z
" id="DejaVuSans-115"/>
       <path d="M 41.109375 46.296875 
Q 39.59375 47.171875 37.8125 47.578125 
Q 36.03125 48 33.890625 48 
Q 26.265625 48 22.1875 43.046875 
Q 18.109375 38.09375 18.109375 28.8125 
L 18.109375 0 
L 9.078125 0 
L 9.078125 54.6875 
L 18.109375 54.6875 
L 18.109375 46.1875 
Q 20.953125 51.171875 25.484375 53.578125 
Q 30.03125 56 36.53125 56 
Q 37.453125 56 38.578125 55.875 
Q 39.703125 55.765625 41.0625 55.515625 
z
" id="DejaVuSans-114"/>
      </defs>
      <use xlink:href="#DejaVuSans-115"/>
      <use x="52.099609" xlink:href="#DejaVuSans-99"/>
      <use x="107.080078" xlink:href="#DejaVuSans-111"/>
      <use x="168.261719" xlink:href="#DejaVuSans-114"/>
      <use x="207.125" xlink:href="#DejaVuSans-101"/>
     </g>
    </g>
   </g>
   <g id="line2d_18">
    <path clip-path="url(#pa077b0c68f)" d="M 81.826705 205.796693 
L 85.650368 167.718093 
L 89.474032 201.876837 
L 93.297696 121.2398 
L 100.945023 91.000912 
L 104.768687 106.680338 
L 108.592351 101.640521 
L 112.416015 94.920767 
L 116.239679 119.559865 
L 120.063342 104.440419 
L 123.887006 93.800809 
L 127.71067 87.64104 
L 131.534334 95.480754 
L 135.357997 102.760483 
L 139.181661 94.920772 
L 143.005325 88.761001 
L 146.828989 96.040725 
L 154.476316 87.08106 
L 158.29998 85.401117 
L 162.123644 78.121387 
L 165.947308 75.881469 
L 169.770971 68.041759 
L 173.594635 97.72067 
L 177.418299 78.681364 
L 181.241963 75.881473 
L 185.065626 96.040728 
L 188.88929 87.641035 
L 192.712954 80.361307 
L 196.536618 52.922311 
L 200.360282 82.601226 
L 204.183945 56.842173 
L 208.007609 55.722211 
L 211.831273 69.161718 
L 215.654937 76.441452 
L 219.4786 68.041752 
L 223.302264 71.961614 
L 227.125928 71.401632 
L 230.949592 64.121898 
L 234.773255 53.482292 
L 238.596919 54.602251 
L 242.420583 73.641556 
L 246.244247 60.762027 
L 250.067911 50.682398 
L 253.891574 71.401639 
L 257.715238 59.082092 
L 265.362566 52.362334 
L 269.186229 47.8825 
L 273.009893 52.362338 
L 276.833557 50.122419 
L 280.657221 54.042267 
L 284.480885 56.842172 
L 288.304548 43.402659 
L 292.128212 45.642581 
L 295.951876 51.802352 
L 299.77554 59.082092 
L 303.599203 55.722207 
L 307.422867 58.522108 
L 311.246531 47.322521 
L 315.070195 43.962638 
L 318.893858 33.883015 
L 322.717522 51.242378 
L 326.541186 45.642581 
L 330.36485 45.642581 
L 334.188514 56.842162 
L 338.012177 33.883015 
L 341.835841 39.482807 
L 345.659505 34.442998 
L 349.483169 35.562952 
L 353.306832 46.762542 
L 357.130496 28.283223 
L 360.95416 27.723241 
L 364.777824 35.00297 
L 368.601488 36.682916 
L 372.425151 40.042793 
L 376.248815 39.482811 
L 380.072479 37.802867 
L 383.896143 66.361816 
L 387.719806 38.362849 
L 391.54347 42.282703 
L 395.367134 35.002976 
L 399.190798 44.522624 
L 403.014462 33.883015 
L 406.838125 25.483326 
L 410.661789 36.122927 
L 414.485453 26.043301 
L 418.309117 37.242892 
L 422.13278 34.442998 
L 425.956444 29.403181 
L 429.780108 38.922832 
L 433.603772 35.562955 
L 437.427435 37.802874 
L 441.251099 36.122931 
L 445.074763 29.403181 
L 448.898427 46.20256 
L 452.722091 34.442991 
L 456.545754 35.562952 
L 460.369418 33.32304 
L 464.193082 34.442998 
L 468.016746 34.442998 
L 471.840409 37.242892 
L 475.664073 32.763058 
L 479.487737 35.562955 
L 483.311401 21.003488 
L 487.135065 42.842687 
L 490.958728 29.963157 
L 494.782392 31.643093 
L 498.606056 38.362846 
L 502.42972 36.682913 
L 506.253383 42.282711 
L 510.077047 33.883015 
L 517.724375 36.122931 
L 521.548038 30.523146 
L 525.371702 32.763058 
L 529.195366 28.843202 
L 533.01903 42.282705 
L 536.842694 31.083118 
L 540.666357 31.643098 
L 544.490021 31.083121 
L 548.313685 43.962646 
L 552.137349 35.002976 
L 555.961012 40.602768 
L 559.784676 29.403178 
L 563.60834 31.083118 
L 567.432004 41.722723 
L 571.255668 35.002976 
L 575.079331 31.6431 
L 578.902995 38.922827 
L 582.726659 24.923347 
L 586.550323 32.763054 
L 590.373986 36.68291 
L 594.19765 34.442991 
L 598.021314 32.763058 
L 601.844978 29.403178 
L 605.668642 36.68291 
L 609.492305 37.242895 
L 613.315969 25.483323 
L 617.139633 27.163266 
L 620.963297 36.68291 
L 624.78696 39.482807 
L 628.610624 28.283223 
L 632.434288 36.68291 
L 636.257952 27.723245 
L 640.081615 34.443001 
L 643.905279 28.283217 
L 647.728943 33.883009 
L 651.552607 42.282705 
L 655.376271 35.00297 
L 659.199934 33.883019 
L 663.023598 42.842687 
L 666.847262 42.282705 
L 670.670926 29.403181 
L 674.494589 36.122934 
L 678.318253 35.562955 
L 682.141917 33.323036 
L 685.965581 24.923344 
L 689.789245 35.562955 
L 693.612908 35.562957 
L 697.436572 33.883015 
L 701.260236 31.643093 
L 705.0839 32.763051 
L 708.907563 30.523142 
L 712.731227 31.083118 
L 716.554891 40.042789 
L 720.378555 36.122934 
L 724.202218 24.363365 
L 728.025882 28.843199 
L 731.849546 32.203079 
L 735.67321 35.002973 
L 739.496874 28.843202 
L 743.320537 35.002976 
L 747.144201 26.60328 
L 750.967865 27.163259 
L 754.791529 32.203082 
L 758.615192 27.723248 
L 762.438856 33.323036 
L 770.086184 33.32304 
L 773.909848 30.523139 
L 777.733511 22.683428 
L 781.557175 38.92283 
L 785.380839 28.28322 
L 789.204503 32.203075 
L 793.028166 23.803386 
L 796.85183 28.28322 
L 800.675494 28.843206 
L 804.499158 23.803383 
L 808.322821 36.68291 
L 812.146485 29.403181 
L 815.970149 25.483326 
L 819.793813 27.723238 
L 823.617477 29.403188 
L 827.44114 24.923347 
L 831.264804 29.403181 
L 835.088468 24.363361 
L 838.912132 31.083118 
L 842.735795 32.203079 
L 842.735795 32.203079 
" style="fill:none;stroke:#1f77b4;stroke-linecap:square;stroke-width:1.5;"/>
   </g>
   <g id="line2d_19">
    <path clip-path="url(#pa077b0c68f)" d="M 81.826705 214.756364 
L 85.650368 208.59659 
L 89.474032 202.996796 
L 93.297696 208.59659 
L 97.12136 213.076425 
L 100.945023 196.277043 
L 104.768687 195.157084 
L 108.592351 174.997826 
L 112.416015 191.797208 
L 116.239679 200.756878 
L 120.063342 213.076425 
L 123.887006 196.837023 
L 127.71067 183.957496 
L 131.534334 195.717063 
L 135.357997 188.997311 
L 139.181661 177.797724 
L 143.005325 146.998858 
L 146.828989 187.317373 
L 150.652652 171.637951 
L 154.476316 152.59865 
L 158.29998 148.118817 
L 162.123644 106.68034 
L 165.947308 121.799782 
L 169.770971 95.480751 
L 173.594635 92.120873 
L 177.418299 84.281162 
L 181.241963 116.199984 
L 185.065626 103.880439 
L 188.88929 70.281674 
L 192.712954 73.081575 
L 196.536618 104.440419 
L 200.360282 81.481265 
L 204.183945 62.441969 
L 208.007609 60.20205 
L 211.831273 63.561923 
L 215.654937 51.242373 
L 219.4786 66.361822 
L 223.302264 44.52262 
L 227.125928 58.522115 
L 230.949592 67.481783 
L 234.773255 74.76151 
L 238.596919 75.321492 
L 242.420583 60.202046 
L 246.244247 32.763058 
L 250.067911 50.12242 
L 253.891574 44.522624 
L 257.715238 31.083124 
L 261.538902 45.642585 
L 265.362566 47.882498 
L 269.186229 35.562952 
L 273.009893 35.002978 
L 276.833557 32.763058 
L 280.657221 32.763064 
L 284.480885 59.642069 
L 288.304548 49.002461 
L 292.128212 54.042271 
L 295.951876 37.802867 
L 299.77554 26.603284 
L 303.599203 43.962648 
L 307.422867 35.00297 
L 311.246531 50.682394 
L 315.070195 30.523136 
L 318.893858 54.042277 
L 322.717522 37.802871 
L 326.541186 33.883019 
L 330.36485 20.443513 
L 334.188514 41.16274 
L 338.012177 21.003485 
L 341.835841 46.762544 
L 345.659505 29.403181 
L 349.483169 19.883534 
L 353.306832 47.8825 
L 357.130496 27.723245 
L 360.95416 22.123453 
L 364.777824 32.763054 
L 368.601488 23.24341 
L 372.425151 22.683432 
L 376.248815 26.043308 
L 380.072479 20.443509 
L 383.896143 25.483333 
L 387.719806 22.123449 
L 391.54347 19.883534 
L 395.367134 26.043305 
L 399.190798 24.363368 
L 403.014462 31.083114 
L 406.838125 18.76357 
L 410.661789 22.123449 
L 414.485453 21.003488 
L 418.309117 22.683428 
L 422.13278 21.003492 
L 425.956444 21.563467 
L 429.780108 24.363368 
L 433.603772 23.243414 
L 437.427435 23.803396 
L 441.251099 22.683428 
L 445.074763 25.483326 
L 448.898427 19.883537 
L 452.722091 21.003492 
L 456.545754 22.683428 
L 460.369418 22.123449 
L 464.193082 23.243407 
L 468.016746 22.123446 
L 471.840409 17.083636 
L 479.487737 21.563471 
L 483.311401 23.243407 
L 487.135065 20.443516 
L 490.958728 23.243414 
L 494.782392 18.76357 
L 498.606056 21.563467 
L 502.42972 22.683432 
L 506.253383 22.683428 
L 510.077047 19.323555 
L 513.900711 19.323558 
L 517.724375 24.923347 
L 521.548038 21.563474 
L 525.371702 18.763573 
L 529.195366 18.763573 
L 533.01903 24.363365 
L 536.842694 21.563471 
L 540.666357 19.883531 
L 544.490021 22.683428 
L 548.313685 23.243414 
L 552.137349 23.243404 
L 559.784676 22.123446 
L 563.60834 24.363361 
L 567.432004 21.563471 
L 571.255668 23.803389 
L 575.079331 22.123449 
L 578.902995 23.803386 
L 582.726659 26.043308 
L 586.550323 18.763566 
L 590.373986 22.683422 
L 594.19765 22.683428 
L 598.021314 28.843206 
L 601.844978 21.563474 
L 605.668642 19.883537 
L 609.492305 23.803389 
L 613.315969 19.883531 
L 617.139633 22.123449 
L 620.963297 21.563474 
L 624.78696 23.243404 
L 628.610624 26.043301 
L 632.434288 20.443513 
L 636.257952 24.363368 
L 640.081615 20.443513 
L 643.905279 22.683428 
L 647.728943 23.243407 
L 651.552607 26.603284 
L 655.376271 21.003485 
L 659.199934 23.24341 
L 663.023598 21.563464 
L 666.847262 24.92334 
L 670.670926 21.563474 
L 674.494589 21.003492 
L 678.318253 21.003495 
L 682.141917 23.243407 
L 685.965581 23.803389 
L 689.789245 22.123446 
L 693.612908 22.683425 
L 701.260236 22.683428 
L 705.0839 23.243404 
L 708.907563 22.683432 
L 712.731227 21.003488 
L 716.554891 21.563474 
L 720.378555 22.683432 
L 724.202218 22.123453 
L 728.025882 22.683435 
L 735.67321 22.683428 
L 739.496874 22.123446 
L 743.320537 24.363365 
L 747.144201 21.003485 
L 750.967865 20.443509 
L 754.791529 21.563471 
L 758.615192 24.363368 
L 762.438856 24.363365 
L 766.26252 23.243404 
L 770.086184 24.363365 
L 773.909848 22.123453 
L 777.733511 24.923347 
L 781.557175 23.803389 
L 785.380839 25.483323 
L 789.204503 22.123449 
L 796.85183 22.123449 
L 800.675494 24.363368 
L 804.499158 23.803389 
L 808.322821 22.683428 
L 812.146485 24.363361 
L 815.970149 22.683425 
L 819.793813 23.243407 
L 823.617477 24.92335 
L 827.44114 24.92334 
L 831.264804 23.803389 
L 835.088468 21.563471 
L 838.912132 27.723245 
L 842.735795 22.123453 
L 842.735795 22.123453 
" style="fill:none;stroke:#ff7f0e;stroke-linecap:square;stroke-width:1.5;"/>
   </g>
   <g id="line2d_20">
    <path clip-path="url(#pa077b0c68f)" d="M 81.826705 210.836508 
L 85.650368 203.556776 
L 89.474032 195.157084 
L 93.297696 135.239291 
L 97.12136 113.960073 
L 100.945023 114.52005 
L 104.768687 102.760483 
L 108.592351 101.080546 
L 112.416015 93.240834 
L 116.239679 69.161715 
L 120.063342 108.36027 
L 123.887006 80.361309 
L 127.71067 92.120873 
L 131.534334 65.80184 
L 135.357997 98.280649 
L 139.181661 84.841141 
L 143.005325 88.201023 
L 146.828989 79.801323 
L 150.652652 77.561411 
L 154.476316 80.361304 
L 158.29998 71.401635 
L 162.123644 72.521593 
L 165.947308 66.921799 
L 169.770971 93.800811 
L 173.594635 79.801326 
L 177.418299 87.641037 
L 181.241963 55.162228 
L 185.065626 67.481782 
L 188.88929 72.521598 
L 192.712954 61.881981 
L 196.536618 64.681879 
L 200.360282 65.241861 
L 204.183945 54.042271 
L 208.007609 60.762025 
L 211.831273 57.402149 
L 215.654937 55.722212 
L 219.4786 78.121387 
L 223.302264 59.642063 
L 227.125928 68.601741 
L 230.949592 60.202045 
L 234.773255 57.402154 
L 238.596919 38.922832 
L 242.420583 52.92231 
L 246.244247 50.122419 
L 250.067911 50.122415 
L 253.891574 47.882498 
L 257.715238 35.562952 
L 261.538902 51.802359 
L 265.362566 50.122414 
L 269.186229 40.042786 
L 273.009893 37.242898 
L 276.833557 48.442484 
L 280.657221 32.763061 
L 284.480885 40.042786 
L 288.304548 37.242885 
L 292.128212 38.922828 
L 295.951876 38.922832 
L 299.77554 36.68291 
L 303.599203 40.602768 
L 307.422867 33.323033 
L 311.246531 42.282705 
L 315.070195 50.122415 
L 318.893858 38.922832 
L 322.717522 40.042783 
L 326.541186 47.8825 
L 330.36485 38.922828 
L 334.188514 55.722217 
L 338.012177 43.962638 
L 341.835841 39.482811 
L 345.659505 40.042789 
L 349.483169 41.722726 
L 353.306832 44.52263 
L 357.130496 36.682916 
L 360.95416 33.883012 
L 364.777824 36.682916 
L 368.601488 33.883012 
L 372.425151 29.963163 
L 376.248815 35.562949 
L 380.072479 36.122934 
L 383.896143 33.883019 
L 387.719806 24.923344 
L 391.54347 24.923347 
L 395.367134 27.163256 
L 399.190798 30.523136 
L 403.014462 27.723248 
L 406.838125 26.043301 
L 410.661789 33.323033 
L 418.309117 29.96316 
L 422.13278 29.403178 
L 425.956444 29.403178 
L 429.780108 22.683425 
L 433.603772 32.203075 
L 437.427435 40.602768 
L 441.251099 29.403184 
L 445.074763 25.483323 
L 448.898427 31.643097 
L 452.722091 24.923344 
L 456.545754 29.963157 
L 460.369418 34.443001 
L 464.193082 30.523136 
L 468.016746 33.323036 
L 471.840409 35.002973 
L 475.664073 38.362849 
L 479.487737 29.96316 
L 483.311401 27.163259 
L 487.135065 31.64309 
L 490.958728 24.923344 
L 494.782392 35.002975 
L 498.606056 33.323036 
L 502.42972 19.883531 
L 506.253383 27.723241 
L 510.077047 28.28322 
L 513.900711 31.083118 
L 517.724375 29.403178 
L 521.548038 36.122931 
L 525.371702 34.442998 
L 529.195366 29.403178 
L 533.01903 26.60329 
L 536.842694 33.883015 
L 540.666357 30.523136 
L 544.490021 28.283223 
L 548.313685 24.363365 
L 552.137349 28.283217 
L 555.961012 27.163266 
L 559.784676 32.203065 
L 563.60834 24.363365 
L 567.432004 32.203072 
L 571.255668 32.763058 
L 575.079331 24.923344 
L 578.902995 29.403181 
L 582.726659 30.523142 
L 586.550323 33.323036 
L 590.373986 24.363365 
L 594.19765 26.043305 
L 598.021314 29.96316 
L 601.844978 28.843202 
L 605.668642 28.843202 
L 609.492305 27.723245 
L 613.315969 32.203072 
L 617.139633 28.283227 
L 620.963297 27.723238 
L 624.78696 27.723238 
L 628.610624 22.683425 
L 632.434288 32.203072 
L 636.257952 37.242898 
L 640.081615 29.403184 
L 643.905279 31.643093 
L 647.728943 26.043305 
L 651.552607 23.24341 
L 655.376271 28.283223 
L 659.199934 28.283227 
L 663.023598 29.963157 
L 666.847262 22.123443 
L 670.670926 29.403181 
L 674.494589 23.243404 
L 678.318253 37.802871 
L 682.141917 31.643097 
L 685.965581 22.683425 
L 689.789245 24.923344 
L 693.612908 24.923344 
L 697.436572 22.683432 
L 701.260236 25.483323 
L 705.0839 31.083118 
L 708.907563 29.403184 
L 712.731227 29.963162 
L 716.554891 28.283223 
L 720.378555 26.043305 
L 724.202218 33.883017 
L 728.025882 20.443509 
L 731.849546 22.683425 
L 735.67321 25.483319 
L 739.496874 22.123449 
L 743.320537 24.363375 
L 747.144201 27.163259 
L 750.967865 29.403184 
L 754.791529 21.563474 
L 758.615192 23.243414 
L 762.438856 23.803389 
L 766.26252 23.243407 
L 770.086184 24.923347 
L 773.909848 22.683432 
L 777.733511 21.003488 
L 781.557175 23.243404 
L 785.380839 23.803386 
L 789.204503 20.443506 
L 793.028166 25.483326 
L 796.85183 28.843202 
L 800.675494 31.083121 
L 804.499158 24.363368 
L 808.322821 27.163259 
L 812.146485 24.363365 
L 815.970149 26.603287 
L 819.793813 21.563471 
L 823.617477 27.163266 
L 827.44114 28.28322 
L 831.264804 23.243407 
L 835.088468 21.003492 
L 838.912132 28.843199 
L 842.735795 22.123449 
L 842.735795 22.123449 
" style="fill:none;stroke:#2ca02c;stroke-linecap:square;stroke-width:1.5;"/>
   </g>
   <g id="line2d_21">
    <path clip-path="url(#pa077b0c68f)" d="M 81.826705 205.796693 
L 85.650368 189.55729 
L 89.474032 180.597619 
L 93.297696 178.3577 
L 97.12136 181.157599 
L 100.945023 181.157599 
L 104.768687 182.277558 
L 108.592351 177.237744 
L 112.416015 182.277559 
L 116.239679 140.279103 
L 120.063342 163.238259 
L 123.887006 163.798238 
L 127.71067 150.918711 
L 131.534334 151.478691 
L 135.357997 141.399062 
L 139.181661 145.878894 
L 143.005325 137.479204 
L 146.828989 150.358731 
L 150.652652 137.479206 
L 154.476316 140.279101 
L 158.29998 151.478687 
L 162.123644 138.599162 
L 165.947308 143.638981 
L 169.770971 140.279104 
L 173.594635 144.19896 
L 177.418299 135.239289 
L 181.241963 140.83908 
L 185.065626 144.198959 
L 188.88929 145.318917 
L 192.712954 139.159141 
L 196.536618 146.998856 
L 200.360282 134.679312 
L 204.183945 143.078999 
L 208.007609 141.959041 
L 211.831273 141.959043 
L 215.654937 142.519019 
L 219.4786 140.839083 
L 223.302264 134.679312 
L 227.125928 149.79875 
L 230.949592 144.758939 
L 234.773255 140.279106 
L 238.596919 139.719123 
L 242.420583 147.558837 
L 246.244247 139.159145 
L 250.067911 142.519021 
L 253.891574 138.039186 
L 257.715238 134.67931 
L 261.538902 145.318918 
L 265.362566 134.67931 
L 269.186229 143.638977 
L 273.009893 138.599165 
L 276.833557 132.999368 
L 280.657221 137.479207 
L 284.480885 145.318919 
L 288.304548 143.078999 
L 292.128212 132.999369 
L 295.951876 149.238773 
L 299.77554 143.079002 
L 303.599203 139.719122 
L 307.422867 141.39906 
L 311.246531 139.719125 
L 315.070195 139.159147 
L 318.893858 131.879412 
L 322.717522 145.878897 
L 326.541186 138.599165 
L 330.36485 134.11933 
L 334.188514 155.398544 
L 338.012177 134.679307 
L 341.835841 145.318918 
L 345.659505 139.719123 
L 349.483169 139.719125 
L 353.306832 133.559349 
L 357.130496 139.719119 
L 360.95416 132.999366 
L 364.777824 126.839598 
L 368.601488 133.559347 
L 372.425151 128.519536 
L 376.248815 137.479205 
L 380.072479 148.118815 
L 383.896143 135.79927 
L 387.719806 136.919228 
L 391.54347 140.839084 
L 395.367134 131.319434 
L 399.190798 133.559351 
L 403.014462 131.879407 
L 410.661789 138.599166 
L 414.485453 134.119327 
L 418.309117 139.719123 
L 422.13278 130.199477 
L 425.956444 129.639491 
L 429.780108 142.519018 
L 433.603772 142.51902 
L 437.427435 136.919228 
L 441.251099 129.639494 
L 445.074763 133.559349 
L 448.898427 138.039186 
L 452.722091 139.159144 
L 456.545754 138.599164 
L 460.369418 135.799265 
L 464.193082 141.95904 
L 468.016746 149.238771 
L 471.840409 133.559349 
L 475.664073 131.319432 
L 479.487737 135.799266 
L 483.311401 146.438874 
L 487.135065 141.959039 
L 490.958728 134.679306 
L 494.782392 140.839082 
L 498.606056 153.718609 
L 502.42972 146.438876 
L 506.253383 144.198955 
L 510.077047 142.51902 
L 513.900711 154.278587 
L 517.724375 132.999373 
L 521.548038 138.039183 
L 525.371702 134.119327 
L 529.195366 133.559348 
L 533.01903 134.11933 
L 536.842694 140.83908 
L 540.666357 123.479722 
L 544.490021 136.919224 
L 548.313685 125.719637 
L 552.137349 130.199473 
L 555.961012 127.399578 
L 559.784676 137.479207 
L 563.60834 134.679306 
L 567.432004 141.959041 
L 571.255668 142.519018 
L 578.902995 136.919227 
L 582.726659 139.719123 
L 586.550323 134.119329 
L 590.373986 137.479208 
L 598.021314 135.239291 
L 601.844978 143.638979 
L 605.668642 139.15914 
L 609.492305 136.359246 
L 613.315969 138.039187 
L 617.139633 135.239286 
L 620.963297 134.679307 
L 624.78696 126.279619 
L 628.610624 134.11933 
L 632.434288 132.43939 
L 636.257952 141.959041 
L 640.081615 139.719122 
L 643.905279 134.11933 
L 647.728943 132.999369 
L 651.552607 142.519022 
L 655.376271 135.239287 
L 659.199934 134.679308 
L 663.023598 131.319431 
L 666.847262 137.479206 
L 670.670926 136.359247 
L 674.494589 130.759454 
L 678.318253 131.87941 
L 682.141917 138.039186 
L 685.965581 136.359247 
L 689.789245 133.559351 
L 693.612908 141.95904 
L 697.436572 138.039186 
L 701.260236 136.919229 
L 705.0839 133.559349 
L 708.907563 132.999371 
L 712.731227 138.039186 
L 716.554891 141.39906 
L 720.378555 140.279103 
L 724.202218 132.999371 
L 728.025882 136.359249 
L 731.849546 131.319429 
L 735.67321 139.719123 
L 739.496874 135.23929 
L 743.320537 139.719123 
L 747.144201 138.039186 
L 750.967865 140.839084 
L 754.791529 135.239291 
L 758.615192 129.079513 
L 762.438856 138.599163 
L 766.26252 137.479205 
L 770.086184 140.839084 
L 773.909848 141.399062 
L 777.733511 139.719124 
L 781.557175 139.719121 
L 785.380839 139.159145 
L 789.204503 146.438875 
L 793.028166 146.438877 
L 796.85183 143.079 
L 800.675494 141.399061 
L 804.499158 136.359245 
L 808.322821 143.638978 
L 815.970149 139.159144 
L 819.793813 136.359246 
L 823.617477 139.159144 
L 827.44114 136.359247 
L 831.264804 139.159142 
L 835.088468 142.519021 
L 838.912132 138.599162 
L 842.735795 126.839595 
L 842.735795 126.839595 
" style="fill:none;stroke:#d62728;stroke-linecap:square;stroke-width:1.5;"/>
   </g>
   <g id="patch_3">
    <path d="M 43.78125 224.64 
L 43.78125 7.2 
" style="fill:none;stroke:#000000;stroke-linecap:square;stroke-linejoin:miter;stroke-width:0.8;"/>
   </g>
   <g id="patch_4">
    <path d="M 880.78125 224.64 
L 880.78125 7.2 
" style="fill:none;stroke:#000000;stroke-linecap:square;stroke-linejoin:miter;stroke-width:0.8;"/>
   </g>
   <g id="patch_5">
    <path d="M 43.78125 224.64 
L 880.78125 224.64 
" style="fill:none;stroke:#000000;stroke-linecap:square;stroke-linejoin:miter;stroke-width:0.8;"/>
   </g>
   <g id="patch_6">
    <path d="M 43.78125 7.2 
L 880.78125 7.2 
" style="fill:none;stroke:#000000;stroke-linecap:square;stroke-linejoin:miter;stroke-width:0.8;"/>
   </g>
   <g id="legend_1">
    <g id="patch_7">
     <path d="M 697.315625 219.64 
L 873.78125 219.64 
Q 875.78125 219.64 875.78125 217.64 
L 875.78125 158.815 
Q 875.78125 156.815 873.78125 156.815 
L 697.315625 156.815 
Q 695.315625 156.815 695.315625 158.815 
L 695.315625 217.64 
Q 695.315625 219.64 697.315625 219.64 
z
" style="fill:#ffffff;opacity:0.8;stroke:#cccccc;stroke-linejoin:miter;"/>
    </g>
    <g id="line2d_22">
     <path d="M 699.315625 164.913437 
L 719.315625 164.913437 
" style="fill:none;stroke:#1f77b4;stroke-linecap:square;stroke-width:1.5;"/>
    </g>
    <g id="line2d_23"/>
    <g id="text_20">
     <!-- segnet_bce_score_val -->
     <g transform="translate(727.315625 168.413437)scale(0.1 -0.1)">
      <defs>
       <path d="M 45.40625 27.984375 
Q 45.40625 37.75 41.375 43.109375 
Q 37.359375 48.484375 30.078125 48.484375 
Q 22.859375 48.484375 18.828125 43.109375 
Q 14.796875 37.75 14.796875 27.984375 
Q 14.796875 18.265625 18.828125 12.890625 
Q 22.859375 7.515625 30.078125 7.515625 
Q 37.359375 7.515625 41.375 12.890625 
Q 45.40625 18.265625 45.40625 27.984375 
z
M 54.390625 6.78125 
Q 54.390625 -7.171875 48.1875 -13.984375 
Q 42 -20.796875 29.203125 -20.796875 
Q 24.46875 -20.796875 20.265625 -20.09375 
Q 16.0625 -19.390625 12.109375 -17.921875 
L 12.109375 -9.1875 
Q 16.0625 -11.328125 19.921875 -12.34375 
Q 23.78125 -13.375 27.78125 -13.375 
Q 36.625 -13.375 41.015625 -8.765625 
Q 45.40625 -4.15625 45.40625 5.171875 
L 45.40625 9.625 
Q 42.625 4.78125 38.28125 2.390625 
Q 33.9375 0 27.875 0 
Q 17.828125 0 11.671875 7.65625 
Q 5.515625 15.328125 5.515625 27.984375 
Q 5.515625 40.671875 11.671875 48.328125 
Q 17.828125 56 27.875 56 
Q 33.9375 56 38.28125 53.609375 
Q 42.625 51.21875 45.40625 46.390625 
L 45.40625 54.6875 
L 54.390625 54.6875 
z
" id="DejaVuSans-103"/>
       <path d="M 54.890625 33.015625 
L 54.890625 0 
L 45.90625 0 
L 45.90625 32.71875 
Q 45.90625 40.484375 42.875 44.328125 
Q 39.84375 48.1875 33.796875 48.1875 
Q 26.515625 48.1875 22.3125 43.546875 
Q 18.109375 38.921875 18.109375 30.90625 
L 18.109375 0 
L 9.078125 0 
L 9.078125 54.6875 
L 18.109375 54.6875 
L 18.109375 46.1875 
Q 21.34375 51.125 25.703125 53.5625 
Q 30.078125 56 35.796875 56 
Q 45.21875 56 50.046875 50.171875 
Q 54.890625 44.34375 54.890625 33.015625 
z
" id="DejaVuSans-110"/>
       <path d="M 18.3125 70.21875 
L 18.3125 54.6875 
L 36.8125 54.6875 
L 36.8125 47.703125 
L 18.3125 47.703125 
L 18.3125 18.015625 
Q 18.3125 11.328125 20.140625 9.421875 
Q 21.96875 7.515625 27.59375 7.515625 
L 36.8125 7.515625 
L 36.8125 0 
L 27.59375 0 
Q 17.1875 0 13.234375 3.875 
Q 9.28125 7.765625 9.28125 18.015625 
L 9.28125 47.703125 
L 2.6875 47.703125 
L 2.6875 54.6875 
L 9.28125 54.6875 
L 9.28125 70.21875 
z
" id="DejaVuSans-116"/>
       <path d="M 50.984375 -16.609375 
L 50.984375 -23.578125 
L -0.984375 -23.578125 
L -0.984375 -16.609375 
z
" id="DejaVuSans-95"/>
       <path d="M 48.6875 27.296875 
Q 48.6875 37.203125 44.609375 42.84375 
Q 40.53125 48.484375 33.40625 48.484375 
Q 26.265625 48.484375 22.1875 42.84375 
Q 18.109375 37.203125 18.109375 27.296875 
Q 18.109375 17.390625 22.1875 11.75 
Q 26.265625 6.109375 33.40625 6.109375 
Q 40.53125 6.109375 44.609375 11.75 
Q 48.6875 17.390625 48.6875 27.296875 
z
M 18.109375 46.390625 
Q 20.953125 51.265625 25.265625 53.625 
Q 29.59375 56 35.59375 56 
Q 45.5625 56 51.78125 48.09375 
Q 58.015625 40.1875 58.015625 27.296875 
Q 58.015625 14.40625 51.78125 6.484375 
Q 45.5625 -1.421875 35.59375 -1.421875 
Q 29.59375 -1.421875 25.265625 0.953125 
Q 20.953125 3.328125 18.109375 8.203125 
L 18.109375 0 
L 9.078125 0 
L 9.078125 75.984375 
L 18.109375 75.984375 
z
" id="DejaVuSans-98"/>
       <path d="M 2.984375 54.6875 
L 12.5 54.6875 
L 29.59375 8.796875 
L 46.6875 54.6875 
L 56.203125 54.6875 
L 35.6875 0 
L 23.484375 0 
z
" id="DejaVuSans-118"/>
       <path d="M 34.28125 27.484375 
Q 23.390625 27.484375 19.1875 25 
Q 14.984375 22.515625 14.984375 16.5 
Q 14.984375 11.71875 18.140625 8.90625 
Q 21.296875 6.109375 26.703125 6.109375 
Q 34.1875 6.109375 38.703125 11.40625 
Q 43.21875 16.703125 43.21875 25.484375 
L 43.21875 27.484375 
z
M 52.203125 31.203125 
L 52.203125 0 
L 43.21875 0 
L 43.21875 8.296875 
Q 40.140625 3.328125 35.546875 0.953125 
Q 30.953125 -1.421875 24.3125 -1.421875 
Q 15.921875 -1.421875 10.953125 3.296875 
Q 6 8.015625 6 15.921875 
Q 6 25.140625 12.171875 29.828125 
Q 18.359375 34.515625 30.609375 34.515625 
L 43.21875 34.515625 
L 43.21875 35.40625 
Q 43.21875 41.609375 39.140625 45 
Q 35.0625 48.390625 27.6875 48.390625 
Q 23 48.390625 18.546875 47.265625 
Q 14.109375 46.140625 10.015625 43.890625 
L 10.015625 52.203125 
Q 14.9375 54.109375 19.578125 55.046875 
Q 24.21875 56 28.609375 56 
Q 40.484375 56 46.34375 49.84375 
Q 52.203125 43.703125 52.203125 31.203125 
z
" id="DejaVuSans-97"/>
       <path d="M 9.421875 75.984375 
L 18.40625 75.984375 
L 18.40625 0 
L 9.421875 0 
z
" id="DejaVuSans-108"/>
      </defs>
      <use xlink:href="#DejaVuSans-115"/>
      <use x="52.099609" xlink:href="#DejaVuSans-101"/>
      <use x="113.623047" xlink:href="#DejaVuSans-103"/>
      <use x="177.099609" xlink:href="#DejaVuSans-110"/>
      <use x="240.478516" xlink:href="#DejaVuSans-101"/>
      <use x="302.001953" xlink:href="#DejaVuSans-116"/>
      <use x="341.210938" xlink:href="#DejaVuSans-95"/>
      <use x="391.210938" xlink:href="#DejaVuSans-98"/>
      <use x="454.6875" xlink:href="#DejaVuSans-99"/>
      <use x="509.667969" xlink:href="#DejaVuSans-101"/>
      <use x="571.191406" xlink:href="#DejaVuSans-95"/>
      <use x="621.191406" xlink:href="#DejaVuSans-115"/>
      <use x="673.291016" xlink:href="#DejaVuSans-99"/>
      <use x="728.271484" xlink:href="#DejaVuSans-111"/>
      <use x="789.453125" xlink:href="#DejaVuSans-114"/>
      <use x="828.316406" xlink:href="#DejaVuSans-101"/>
      <use x="889.839844" xlink:href="#DejaVuSans-95"/>
      <use x="939.839844" xlink:href="#DejaVuSans-118"/>
      <use x="999.019531" xlink:href="#DejaVuSans-97"/>
      <use x="1060.298828" xlink:href="#DejaVuSans-108"/>
     </g>
    </g>
    <g id="line2d_24">
     <path d="M 699.315625 179.869687 
L 719.315625 179.869687 
" style="fill:none;stroke:#ff7f0e;stroke-linecap:square;stroke-width:1.5;"/>
    </g>
    <g id="line2d_25"/>
    <g id="text_21">
     <!-- segnet_dice_score_val -->
     <g transform="translate(727.315625 183.369687)scale(0.1 -0.1)">
      <defs>
       <path d="M 45.40625 46.390625 
L 45.40625 75.984375 
L 54.390625 75.984375 
L 54.390625 0 
L 45.40625 0 
L 45.40625 8.203125 
Q 42.578125 3.328125 38.25 0.953125 
Q 33.9375 -1.421875 27.875 -1.421875 
Q 17.96875 -1.421875 11.734375 6.484375 
Q 5.515625 14.40625 5.515625 27.296875 
Q 5.515625 40.1875 11.734375 48.09375 
Q 17.96875 56 27.875 56 
Q 33.9375 56 38.25 53.625 
Q 42.578125 51.265625 45.40625 46.390625 
z
M 14.796875 27.296875 
Q 14.796875 17.390625 18.875 11.75 
Q 22.953125 6.109375 30.078125 6.109375 
Q 37.203125 6.109375 41.296875 11.75 
Q 45.40625 17.390625 45.40625 27.296875 
Q 45.40625 37.203125 41.296875 42.84375 
Q 37.203125 48.484375 30.078125 48.484375 
Q 22.953125 48.484375 18.875 42.84375 
Q 14.796875 37.203125 14.796875 27.296875 
z
" id="DejaVuSans-100"/>
       <path d="M 9.421875 54.6875 
L 18.40625 54.6875 
L 18.40625 0 
L 9.421875 0 
z
M 9.421875 75.984375 
L 18.40625 75.984375 
L 18.40625 64.59375 
L 9.421875 64.59375 
z
" id="DejaVuSans-105"/>
      </defs>
      <use xlink:href="#DejaVuSans-115"/>
      <use x="52.099609" xlink:href="#DejaVuSans-101"/>
      <use x="113.623047" xlink:href="#DejaVuSans-103"/>
      <use x="177.099609" xlink:href="#DejaVuSans-110"/>
      <use x="240.478516" xlink:href="#DejaVuSans-101"/>
      <use x="302.001953" xlink:href="#DejaVuSans-116"/>
      <use x="341.210938" xlink:href="#DejaVuSans-95"/>
      <use x="391.210938" xlink:href="#DejaVuSans-100"/>
      <use x="454.6875" xlink:href="#DejaVuSans-105"/>
      <use x="482.470703" xlink:href="#DejaVuSans-99"/>
      <use x="537.451172" xlink:href="#DejaVuSans-101"/>
      <use x="598.974609" xlink:href="#DejaVuSans-95"/>
      <use x="648.974609" xlink:href="#DejaVuSans-115"/>
      <use x="701.074219" xlink:href="#DejaVuSans-99"/>
      <use x="756.054688" xlink:href="#DejaVuSans-111"/>
      <use x="817.236328" xlink:href="#DejaVuSans-114"/>
      <use x="856.099609" xlink:href="#DejaVuSans-101"/>
      <use x="917.623047" xlink:href="#DejaVuSans-95"/>
      <use x="967.623047" xlink:href="#DejaVuSans-118"/>
      <use x="1026.802734" xlink:href="#DejaVuSans-97"/>
      <use x="1088.082031" xlink:href="#DejaVuSans-108"/>
     </g>
    </g>
    <g id="line2d_26">
     <path d="M 699.315625 194.825937 
L 719.315625 194.825937 
" style="fill:none;stroke:#2ca02c;stroke-linecap:square;stroke-width:1.5;"/>
    </g>
    <g id="line2d_27"/>
    <g id="text_22">
     <!-- segnet_focal_score_val -->
     <g transform="translate(727.315625 198.325937)scale(0.1 -0.1)">
      <defs>
       <path d="M 37.109375 75.984375 
L 37.109375 68.5 
L 28.515625 68.5 
Q 23.6875 68.5 21.796875 66.546875 
Q 19.921875 64.59375 19.921875 59.515625 
L 19.921875 54.6875 
L 34.71875 54.6875 
L 34.71875 47.703125 
L 19.921875 47.703125 
L 19.921875 0 
L 10.890625 0 
L 10.890625 47.703125 
L 2.296875 47.703125 
L 2.296875 54.6875 
L 10.890625 54.6875 
L 10.890625 58.5 
Q 10.890625 67.625 15.140625 71.796875 
Q 19.390625 75.984375 28.609375 75.984375 
z
" id="DejaVuSans-102"/>
      </defs>
      <use xlink:href="#DejaVuSans-115"/>
      <use x="52.099609" xlink:href="#DejaVuSans-101"/>
      <use x="113.623047" xlink:href="#DejaVuSans-103"/>
      <use x="177.099609" xlink:href="#DejaVuSans-110"/>
      <use x="240.478516" xlink:href="#DejaVuSans-101"/>
      <use x="302.001953" xlink:href="#DejaVuSans-116"/>
      <use x="341.210938" xlink:href="#DejaVuSans-95"/>
      <use x="391.210938" xlink:href="#DejaVuSans-102"/>
      <use x="426.416016" xlink:href="#DejaVuSans-111"/>
      <use x="487.597656" xlink:href="#DejaVuSans-99"/>
      <use x="542.578125" xlink:href="#DejaVuSans-97"/>
      <use x="603.857422" xlink:href="#DejaVuSans-108"/>
      <use x="631.640625" xlink:href="#DejaVuSans-95"/>
      <use x="681.640625" xlink:href="#DejaVuSans-115"/>
      <use x="733.740234" xlink:href="#DejaVuSans-99"/>
      <use x="788.720703" xlink:href="#DejaVuSans-111"/>
      <use x="849.902344" xlink:href="#DejaVuSans-114"/>
      <use x="888.765625" xlink:href="#DejaVuSans-101"/>
      <use x="950.289062" xlink:href="#DejaVuSans-95"/>
      <use x="1000.289062" xlink:href="#DejaVuSans-118"/>
      <use x="1059.46875" xlink:href="#DejaVuSans-97"/>
      <use x="1120.748047" xlink:href="#DejaVuSans-108"/>
     </g>
    </g>
    <g id="line2d_28">
     <path d="M 699.315625 209.782187 
L 719.315625 209.782187 
" style="fill:none;stroke:#d62728;stroke-linecap:square;stroke-width:1.5;"/>
    </g>
    <g id="line2d_29"/>
    <g id="text_23">
     <!-- segnet_correlation_score_val -->
     <g transform="translate(727.315625 213.282187)scale(0.1 -0.1)">
      <use xlink:href="#DejaVuSans-115"/>
      <use x="52.099609" xlink:href="#DejaVuSans-101"/>
      <use x="113.623047" xlink:href="#DejaVuSans-103"/>
      <use x="177.099609" xlink:href="#DejaVuSans-110"/>
      <use x="240.478516" xlink:href="#DejaVuSans-101"/>
      <use x="302.001953" xlink:href="#DejaVuSans-116"/>
      <use x="341.210938" xlink:href="#DejaVuSans-95"/>
      <use x="391.210938" xlink:href="#DejaVuSans-99"/>
      <use x="446.191406" xlink:href="#DejaVuSans-111"/>
      <use x="507.373047" xlink:href="#DejaVuSans-114"/>
      <use x="546.736328" xlink:href="#DejaVuSans-114"/>
      <use x="585.599609" xlink:href="#DejaVuSans-101"/>
      <use x="647.123047" xlink:href="#DejaVuSans-108"/>
      <use x="674.90625" xlink:href="#DejaVuSans-97"/>
      <use x="736.185547" xlink:href="#DejaVuSans-116"/>
      <use x="775.394531" xlink:href="#DejaVuSans-105"/>
      <use x="803.177734" xlink:href="#DejaVuSans-111"/>
      <use x="864.359375" xlink:href="#DejaVuSans-110"/>
      <use x="927.738281" xlink:href="#DejaVuSans-95"/>
      <use x="977.738281" xlink:href="#DejaVuSans-115"/>
      <use x="1029.837891" xlink:href="#DejaVuSans-99"/>
      <use x="1084.818359" xlink:href="#DejaVuSans-111"/>
      <use x="1146" xlink:href="#DejaVuSans-114"/>
      <use x="1184.863281" xlink:href="#DejaVuSans-101"/>
      <use x="1246.386719" xlink:href="#DejaVuSans-95"/>
      <use x="1296.386719" xlink:href="#DejaVuSans-118"/>
      <use x="1355.566406" xlink:href="#DejaVuSans-97"/>
      <use x="1416.845703" xlink:href="#DejaVuSans-108"/>
     </g>
    </g>
   </g>
  </g>
 </g>
 <defs>
  <clipPath id="pa077b0c68f">
   <rect height="217.44" width="837" x="43.78125" y="7.2"/>
  </clipPath>
 </defs>
</svg>
