<?xml version="1.0" encoding="utf-8" standalone="no"?>
<!DOCTYPE svg PUBLIC "-//W3C//DTD SVG 1.1//EN"
  "http://www.w3.org/Graphics/SVG/1.1/DTD/svg11.dtd">
<!-- Created with matplotlib (https://matplotlib.org/) -->
<svg height="263.133576pt" version="1.1" viewBox="0 0 887.98125 263.133576" width="887.98125pt" xmlns="http://www.w3.org/2000/svg" xmlns:xlink="http://www.w3.org/1999/xlink">
 <metadata>
  <rdf:RDF xmlns:cc="http://creativecommons.org/ns#" xmlns:dc="http://purl.org/dc/elements/1.1/" xmlns:rdf="http://www.w3.org/1999/02/22-rdf-syntax-ns#">
   <cc:Work>
    <dc:type rdf:resource="http://purl.org/dc/dcmitype/StillImage"/>
    <dc:date>2020-12-16T15:39:35.929415</dc:date>
    <dc:format>image/svg+xml</dc:format>
    <dc:creator>
     <cc:Agent>
      <dc:title>Matplotlib v3.3.3, https://matplotlib.org/</dc:title>
     </cc:Agent>
    </dc:creator>
   </cc:Work>
  </rdf:RDF>
 </metadata>
 <defs>
  <style type="text/css">*{stroke-linecap:butt;stroke-linejoin:round;}</style>
 </defs>
 <g id="figure_1">
  <g id="patch_1">
   <path d="M 0 263.133576 
L 887.98125 263.133576 
L 887.98125 0 
L 0 0 
z
" style="fill:none;"/>
  </g>
  <g id="axes_1">
   <g id="patch_2">
    <path d="M 43.78125 225.577326 
L 880.78125 225.577326 
L 880.78125 8.137326 
L 43.78125 8.137326 
z
" style="fill:#ffffff;"/>
   </g>
   <g id="matplotlib.axis_1">
    <g id="xtick_1">
     <g id="line2d_1">
      <defs>
       <path d="M 0 0 
L 0 3.5 
" id="m2140ca4e93" style="stroke:#000000;stroke-width:0.8;"/>
      </defs>
      <g>
       <use style="stroke:#000000;stroke-width:0.8;" x="81.826705" xlink:href="#m2140ca4e93" y="225.577326"/>
      </g>
     </g>
     <g id="text_1">
      <!-- 0 -->
      <g transform="translate(78.645455 240.175763)scale(0.1 -0.1)">
       <defs>
        <path d="M 31.78125 66.40625 
Q 24.171875 66.40625 20.328125 58.90625 
Q 16.5 51.421875 16.5 36.375 
Q 16.5 21.390625 20.328125 13.890625 
Q 24.171875 6.390625 31.78125 6.390625 
Q 39.453125 6.390625 43.28125 13.890625 
Q 47.125 21.390625 47.125 36.375 
Q 47.125 51.421875 43.28125 58.90625 
Q 39.453125 66.40625 31.78125 66.40625 
z
M 31.78125 74.21875 
Q 44.046875 74.21875 50.515625 64.515625 
Q 56.984375 54.828125 56.984375 36.375 
Q 56.984375 17.96875 50.515625 8.265625 
Q 44.046875 -1.421875 31.78125 -1.421875 
Q 19.53125 -1.421875 13.0625 8.265625 
Q 6.59375 17.96875 6.59375 36.375 
Q 6.59375 54.828125 13.0625 64.515625 
Q 19.53125 74.21875 31.78125 74.21875 
z
" id="DejaVuSans-48"/>
       </defs>
       <use xlink:href="#DejaVuSans-48"/>
      </g>
     </g>
    </g>
    <g id="xtick_2">
     <g id="line2d_2">
      <g>
       <use style="stroke:#000000;stroke-width:0.8;" x="177.418299" xlink:href="#m2140ca4e93" y="225.577326"/>
      </g>
     </g>
     <g id="text_2">
      <!-- 25 -->
      <g transform="translate(171.055799 240.175763)scale(0.1 -0.1)">
       <defs>
        <path d="M 19.1875 8.296875 
L 53.609375 8.296875 
L 53.609375 0 
L 7.328125 0 
L 7.328125 8.296875 
Q 12.9375 14.109375 22.625 23.890625 
Q 32.328125 33.6875 34.8125 36.53125 
Q 39.546875 41.84375 41.421875 45.53125 
Q 43.3125 49.21875 43.3125 52.78125 
Q 43.3125 58.59375 39.234375 62.25 
Q 35.15625 65.921875 28.609375 65.921875 
Q 23.96875 65.921875 18.8125 64.3125 
Q 13.671875 62.703125 7.8125 59.421875 
L 7.8125 69.390625 
Q 13.765625 71.78125 18.9375 73 
Q 24.125 74.21875 28.421875 74.21875 
Q 39.75 74.21875 46.484375 68.546875 
Q 53.21875 62.890625 53.21875 53.421875 
Q 53.21875 48.921875 51.53125 44.890625 
Q 49.859375 40.875 45.40625 35.40625 
Q 44.1875 33.984375 37.640625 27.21875 
Q 31.109375 20.453125 19.1875 8.296875 
z
" id="DejaVuSans-50"/>
        <path d="M 10.796875 72.90625 
L 49.515625 72.90625 
L 49.515625 64.59375 
L 19.828125 64.59375 
L 19.828125 46.734375 
Q 21.96875 47.46875 24.109375 47.828125 
Q 26.265625 48.1875 28.421875 48.1875 
Q 40.625 48.1875 47.75 41.5 
Q 54.890625 34.8125 54.890625 23.390625 
Q 54.890625 11.625 47.5625 5.09375 
Q 40.234375 -1.421875 26.90625 -1.421875 
Q 22.3125 -1.421875 17.546875 -0.640625 
Q 12.796875 0.140625 7.71875 1.703125 
L 7.71875 11.625 
Q 12.109375 9.234375 16.796875 8.0625 
Q 21.484375 6.890625 26.703125 6.890625 
Q 35.15625 6.890625 40.078125 11.328125 
Q 45.015625 15.765625 45.015625 23.390625 
Q 45.015625 31 40.078125 35.4375 
Q 35.15625 39.890625 26.703125 39.890625 
Q 22.75 39.890625 18.8125 39.015625 
Q 14.890625 38.140625 10.796875 36.28125 
z
" id="DejaVuSans-53"/>
       </defs>
       <use xlink:href="#DejaVuSans-50"/>
       <use x="63.623047" xlink:href="#DejaVuSans-53"/>
      </g>
     </g>
    </g>
    <g id="xtick_3">
     <g id="line2d_3">
      <g>
       <use style="stroke:#000000;stroke-width:0.8;" x="273.009893" xlink:href="#m2140ca4e93" y="225.577326"/>
      </g>
     </g>
     <g id="text_3">
      <!-- 50 -->
      <g transform="translate(266.647393 240.175763)scale(0.1 -0.1)">
       <use xlink:href="#DejaVuSans-53"/>
       <use x="63.623047" xlink:href="#DejaVuSans-48"/>
      </g>
     </g>
    </g>
    <g id="xtick_4">
     <g id="line2d_4">
      <g>
       <use style="stroke:#000000;stroke-width:0.8;" x="368.601488" xlink:href="#m2140ca4e93" y="225.577326"/>
      </g>
     </g>
     <g id="text_4">
      <!-- 75 -->
      <g transform="translate(362.238988 240.175763)scale(0.1 -0.1)">
       <defs>
        <path d="M 8.203125 72.90625 
L 55.078125 72.90625 
L 55.078125 68.703125 
L 28.609375 0 
L 18.3125 0 
L 43.21875 64.59375 
L 8.203125 64.59375 
z
" id="DejaVuSans-55"/>
       </defs>
       <use xlink:href="#DejaVuSans-55"/>
       <use x="63.623047" xlink:href="#DejaVuSans-53"/>
      </g>
     </g>
    </g>
    <g id="xtick_5">
     <g id="line2d_5">
      <g>
       <use style="stroke:#000000;stroke-width:0.8;" x="464.193082" xlink:href="#m2140ca4e93" y="225.577326"/>
      </g>
     </g>
     <g id="text_5">
      <!-- 100 -->
      <g transform="translate(454.649332 240.175763)scale(0.1 -0.1)">
       <defs>
        <path d="M 12.40625 8.296875 
L 28.515625 8.296875 
L 28.515625 63.921875 
L 10.984375 60.40625 
L 10.984375 69.390625 
L 28.421875 72.90625 
L 38.28125 72.90625 
L 38.28125 8.296875 
L 54.390625 8.296875 
L 54.390625 0 
L 12.40625 0 
z
" id="DejaVuSans-49"/>
       </defs>
       <use xlink:href="#DejaVuSans-49"/>
       <use x="63.623047" xlink:href="#DejaVuSans-48"/>
       <use x="127.246094" xlink:href="#DejaVuSans-48"/>
      </g>
     </g>
    </g>
    <g id="xtick_6">
     <g id="line2d_6">
      <g>
       <use style="stroke:#000000;stroke-width:0.8;" x="559.784676" xlink:href="#m2140ca4e93" y="225.577326"/>
      </g>
     </g>
     <g id="text_6">
      <!-- 125 -->
      <g transform="translate(550.240926 240.175763)scale(0.1 -0.1)">
       <use xlink:href="#DejaVuSans-49"/>
       <use x="63.623047" xlink:href="#DejaVuSans-50"/>
       <use x="127.246094" xlink:href="#DejaVuSans-53"/>
      </g>
     </g>
    </g>
    <g id="xtick_7">
     <g id="line2d_7">
      <g>
       <use style="stroke:#000000;stroke-width:0.8;" x="655.376271" xlink:href="#m2140ca4e93" y="225.577326"/>
      </g>
     </g>
     <g id="text_7">
      <!-- 150 -->
      <g transform="translate(645.832521 240.175763)scale(0.1 -0.1)">
       <use xlink:href="#DejaVuSans-49"/>
       <use x="63.623047" xlink:href="#DejaVuSans-53"/>
       <use x="127.246094" xlink:href="#DejaVuSans-48"/>
      </g>
     </g>
    </g>
    <g id="xtick_8">
     <g id="line2d_8">
      <g>
       <use style="stroke:#000000;stroke-width:0.8;" x="750.967865" xlink:href="#m2140ca4e93" y="225.577326"/>
      </g>
     </g>
     <g id="text_8">
      <!-- 175 -->
      <g transform="translate(741.424115 240.175763)scale(0.1 -0.1)">
       <use xlink:href="#DejaVuSans-49"/>
       <use x="63.623047" xlink:href="#DejaVuSans-55"/>
       <use x="127.246094" xlink:href="#DejaVuSans-53"/>
      </g>
     </g>
    </g>
    <g id="xtick_9">
     <g id="line2d_9">
      <g>
       <use style="stroke:#000000;stroke-width:0.8;" x="846.559459" xlink:href="#m2140ca4e93" y="225.577326"/>
      </g>
     </g>
     <g id="text_9">
      <!-- 200 -->
      <g transform="translate(837.015709 240.175763)scale(0.1 -0.1)">
       <use xlink:href="#DejaVuSans-50"/>
       <use x="63.623047" xlink:href="#DejaVuSans-48"/>
       <use x="127.246094" xlink:href="#DejaVuSans-48"/>
      </g>
     </g>
    </g>
    <g id="text_10">
     <!-- epoch -->
     <g transform="translate(447.053125 253.853888)scale(0.1 -0.1)">
      <defs>
       <path d="M 56.203125 29.59375 
L 56.203125 25.203125 
L 14.890625 25.203125 
Q 15.484375 15.921875 20.484375 11.0625 
Q 25.484375 6.203125 34.421875 6.203125 
Q 39.59375 6.203125 44.453125 7.46875 
Q 49.3125 8.734375 54.109375 11.28125 
L 54.109375 2.78125 
Q 49.265625 0.734375 44.1875 -0.34375 
Q 39.109375 -1.421875 33.890625 -1.421875 
Q 20.796875 -1.421875 13.15625 6.1875 
Q 5.515625 13.8125 5.515625 26.8125 
Q 5.515625 40.234375 12.765625 48.109375 
Q 20.015625 56 32.328125 56 
Q 43.359375 56 49.78125 48.890625 
Q 56.203125 41.796875 56.203125 29.59375 
z
M 47.21875 32.234375 
Q 47.125 39.59375 43.09375 43.984375 
Q 39.0625 48.390625 32.421875 48.390625 
Q 24.90625 48.390625 20.390625 44.140625 
Q 15.875 39.890625 15.1875 32.171875 
z
" id="DejaVuSans-101"/>
       <path d="M 18.109375 8.203125 
L 18.109375 -20.796875 
L 9.078125 -20.796875 
L 9.078125 54.6875 
L 18.109375 54.6875 
L 18.109375 46.390625 
Q 20.953125 51.265625 25.265625 53.625 
Q 29.59375 56 35.59375 56 
Q 45.5625 56 51.78125 48.09375 
Q 58.015625 40.1875 58.015625 27.296875 
Q 58.015625 14.40625 51.78125 6.484375 
Q 45.5625 -1.421875 35.59375 -1.421875 
Q 29.59375 -1.421875 25.265625 0.953125 
Q 20.953125 3.328125 18.109375 8.203125 
z
M 48.6875 27.296875 
Q 48.6875 37.203125 44.609375 42.84375 
Q 40.53125 48.484375 33.40625 48.484375 
Q 26.265625 48.484375 22.1875 42.84375 
Q 18.109375 37.203125 18.109375 27.296875 
Q 18.109375 17.390625 22.1875 11.75 
Q 26.265625 6.109375 33.40625 6.109375 
Q 40.53125 6.109375 44.609375 11.75 
Q 48.6875 17.390625 48.6875 27.296875 
z
" id="DejaVuSans-112"/>
       <path d="M 30.609375 48.390625 
Q 23.390625 48.390625 19.1875 42.75 
Q 14.984375 37.109375 14.984375 27.296875 
Q 14.984375 17.484375 19.15625 11.84375 
Q 23.34375 6.203125 30.609375 6.203125 
Q 37.796875 6.203125 41.984375 11.859375 
Q 46.1875 17.53125 46.1875 27.296875 
Q 46.1875 37.015625 41.984375 42.703125 
Q 37.796875 48.390625 30.609375 48.390625 
z
M 30.609375 56 
Q 42.328125 56 49.015625 48.375 
Q 55.71875 40.765625 55.71875 27.296875 
Q 55.71875 13.875 49.015625 6.21875 
Q 42.328125 -1.421875 30.609375 -1.421875 
Q 18.84375 -1.421875 12.171875 6.21875 
Q 5.515625 13.875 5.515625 27.296875 
Q 5.515625 40.765625 12.171875 48.375 
Q 18.84375 56 30.609375 56 
z
" id="DejaVuSans-111"/>
       <path d="M 48.78125 52.59375 
L 48.78125 44.1875 
Q 44.96875 46.296875 41.140625 47.34375 
Q 37.3125 48.390625 33.40625 48.390625 
Q 24.65625 48.390625 19.8125 42.84375 
Q 14.984375 37.3125 14.984375 27.296875 
Q 14.984375 17.28125 19.8125 11.734375 
Q 24.65625 6.203125 33.40625 6.203125 
Q 37.3125 6.203125 41.140625 7.25 
Q 44.96875 8.296875 48.78125 10.40625 
L 48.78125 2.09375 
Q 45.015625 0.34375 40.984375 -0.53125 
Q 36.96875 -1.421875 32.421875 -1.421875 
Q 20.0625 -1.421875 12.78125 6.34375 
Q 5.515625 14.109375 5.515625 27.296875 
Q 5.515625 40.671875 12.859375 48.328125 
Q 20.21875 56 33.015625 56 
Q 37.15625 56 41.109375 55.140625 
Q 45.0625 54.296875 48.78125 52.59375 
z
" id="DejaVuSans-99"/>
       <path d="M 54.890625 33.015625 
L 54.890625 0 
L 45.90625 0 
L 45.90625 32.71875 
Q 45.90625 40.484375 42.875 44.328125 
Q 39.84375 48.1875 33.796875 48.1875 
Q 26.515625 48.1875 22.3125 43.546875 
Q 18.109375 38.921875 18.109375 30.90625 
L 18.109375 0 
L 9.078125 0 
L 9.078125 75.984375 
L 18.109375 75.984375 
L 18.109375 46.1875 
Q 21.34375 51.125 25.703125 53.5625 
Q 30.078125 56 35.796875 56 
Q 45.21875 56 50.046875 50.171875 
Q 54.890625 44.34375 54.890625 33.015625 
z
" id="DejaVuSans-104"/>
      </defs>
      <use xlink:href="#DejaVuSans-101"/>
      <use x="61.523438" xlink:href="#DejaVuSans-112"/>
      <use x="125" xlink:href="#DejaVuSans-111"/>
      <use x="186.181641" xlink:href="#DejaVuSans-99"/>
      <use x="241.162109" xlink:href="#DejaVuSans-104"/>
     </g>
    </g>
   </g>
   <g id="matplotlib.axis_2">
    <g id="ytick_1">
     <g id="line2d_10">
      <defs>
       <path d="M 0 0 
L -3.5 0 
" id="m9b55a32261" style="stroke:#000000;stroke-width:0.8;"/>
      </defs>
      <g>
       <use style="stroke:#000000;stroke-width:0.8;" x="43.78125" xlink:href="#m9b55a32261" y="223.779334"/>
      </g>
     </g>
     <g id="text_11">
      <!-- 0.0 -->
      <g transform="translate(20.878125 227.578553)scale(0.1 -0.1)">
       <defs>
        <path d="M 10.6875 12.40625 
L 21 12.40625 
L 21 0 
L 10.6875 0 
z
" id="DejaVuSans-46"/>
       </defs>
       <use xlink:href="#DejaVuSans-48"/>
       <use x="63.623047" xlink:href="#DejaVuSans-46"/>
       <use x="95.410156" xlink:href="#DejaVuSans-48"/>
      </g>
     </g>
    </g>
    <g id="ytick_2">
     <g id="line2d_11">
      <g>
       <use style="stroke:#000000;stroke-width:0.8;" x="43.78125" xlink:href="#m9b55a32261" y="181.223311"/>
      </g>
     </g>
     <g id="text_12">
      <!-- 0.2 -->
      <g transform="translate(20.878125 185.02253)scale(0.1 -0.1)">
       <use xlink:href="#DejaVuSans-48"/>
       <use x="63.623047" xlink:href="#DejaVuSans-46"/>
       <use x="95.410156" xlink:href="#DejaVuSans-50"/>
      </g>
     </g>
    </g>
    <g id="ytick_3">
     <g id="line2d_12">
      <g>
       <use style="stroke:#000000;stroke-width:0.8;" x="43.78125" xlink:href="#m9b55a32261" y="138.667288"/>
      </g>
     </g>
     <g id="text_13">
      <!-- 0.4 -->
      <g transform="translate(20.878125 142.466507)scale(0.1 -0.1)">
       <defs>
        <path d="M 37.796875 64.3125 
L 12.890625 25.390625 
L 37.796875 25.390625 
z
M 35.203125 72.90625 
L 47.609375 72.90625 
L 47.609375 25.390625 
L 58.015625 25.390625 
L 58.015625 17.1875 
L 47.609375 17.1875 
L 47.609375 0 
L 37.796875 0 
L 37.796875 17.1875 
L 4.890625 17.1875 
L 4.890625 26.703125 
z
" id="DejaVuSans-52"/>
       </defs>
       <use xlink:href="#DejaVuSans-48"/>
       <use x="63.623047" xlink:href="#DejaVuSans-46"/>
       <use x="95.410156" xlink:href="#DejaVuSans-52"/>
      </g>
     </g>
    </g>
    <g id="ytick_4">
     <g id="line2d_13">
      <g>
       <use style="stroke:#000000;stroke-width:0.8;" x="43.78125" xlink:href="#m9b55a32261" y="96.111265"/>
      </g>
     </g>
     <g id="text_14">
      <!-- 0.6 -->
      <g transform="translate(20.878125 99.910484)scale(0.1 -0.1)">
       <defs>
        <path d="M 33.015625 40.375 
Q 26.375 40.375 22.484375 35.828125 
Q 18.609375 31.296875 18.609375 23.390625 
Q 18.609375 15.53125 22.484375 10.953125 
Q 26.375 6.390625 33.015625 6.390625 
Q 39.65625 6.390625 43.53125 10.953125 
Q 47.40625 15.53125 47.40625 23.390625 
Q 47.40625 31.296875 43.53125 35.828125 
Q 39.65625 40.375 33.015625 40.375 
z
M 52.59375 71.296875 
L 52.59375 62.3125 
Q 48.875 64.0625 45.09375 64.984375 
Q 41.3125 65.921875 37.59375 65.921875 
Q 27.828125 65.921875 22.671875 59.328125 
Q 17.53125 52.734375 16.796875 39.40625 
Q 19.671875 43.65625 24.015625 45.921875 
Q 28.375 48.1875 33.59375 48.1875 
Q 44.578125 48.1875 50.953125 41.515625 
Q 57.328125 34.859375 57.328125 23.390625 
Q 57.328125 12.15625 50.6875 5.359375 
Q 44.046875 -1.421875 33.015625 -1.421875 
Q 20.359375 -1.421875 13.671875 8.265625 
Q 6.984375 17.96875 6.984375 36.375 
Q 6.984375 53.65625 15.1875 63.9375 
Q 23.390625 74.21875 37.203125 74.21875 
Q 40.921875 74.21875 44.703125 73.484375 
Q 48.484375 72.75 52.59375 71.296875 
z
" id="DejaVuSans-54"/>
       </defs>
       <use xlink:href="#DejaVuSans-48"/>
       <use x="63.623047" xlink:href="#DejaVuSans-46"/>
       <use x="95.410156" xlink:href="#DejaVuSans-54"/>
      </g>
     </g>
    </g>
    <g id="ytick_5">
     <g id="line2d_14">
      <g>
       <use style="stroke:#000000;stroke-width:0.8;" x="43.78125" xlink:href="#m9b55a32261" y="53.555242"/>
      </g>
     </g>
     <g id="text_15">
      <!-- 0.8 -->
      <g transform="translate(20.878125 57.354461)scale(0.1 -0.1)">
       <defs>
        <path d="M 31.78125 34.625 
Q 24.75 34.625 20.71875 30.859375 
Q 16.703125 27.09375 16.703125 20.515625 
Q 16.703125 13.921875 20.71875 10.15625 
Q 24.75 6.390625 31.78125 6.390625 
Q 38.8125 6.390625 42.859375 10.171875 
Q 46.921875 13.96875 46.921875 20.515625 
Q 46.921875 27.09375 42.890625 30.859375 
Q 38.875 34.625 31.78125 34.625 
z
M 21.921875 38.8125 
Q 15.578125 40.375 12.03125 44.71875 
Q 8.5 49.078125 8.5 55.328125 
Q 8.5 64.0625 14.71875 69.140625 
Q 20.953125 74.21875 31.78125 74.21875 
Q 42.671875 74.21875 48.875 69.140625 
Q 55.078125 64.0625 55.078125 55.328125 
Q 55.078125 49.078125 51.53125 44.71875 
Q 48 40.375 41.703125 38.8125 
Q 48.828125 37.15625 52.796875 32.3125 
Q 56.78125 27.484375 56.78125 20.515625 
Q 56.78125 9.90625 50.3125 4.234375 
Q 43.84375 -1.421875 31.78125 -1.421875 
Q 19.734375 -1.421875 13.25 4.234375 
Q 6.78125 9.90625 6.78125 20.515625 
Q 6.78125 27.484375 10.78125 32.3125 
Q 14.796875 37.15625 21.921875 38.8125 
z
M 18.3125 54.390625 
Q 18.3125 48.734375 21.84375 45.5625 
Q 25.390625 42.390625 31.78125 42.390625 
Q 38.140625 42.390625 41.71875 45.5625 
Q 45.3125 48.734375 45.3125 54.390625 
Q 45.3125 60.0625 41.71875 63.234375 
Q 38.140625 66.40625 31.78125 66.40625 
Q 25.390625 66.40625 21.84375 63.234375 
Q 18.3125 60.0625 18.3125 54.390625 
z
" id="DejaVuSans-56"/>
       </defs>
       <use xlink:href="#DejaVuSans-48"/>
       <use x="63.623047" xlink:href="#DejaVuSans-46"/>
       <use x="95.410156" xlink:href="#DejaVuSans-56"/>
      </g>
     </g>
    </g>
    <g id="ytick_6">
     <g id="line2d_15">
      <g>
       <use style="stroke:#000000;stroke-width:0.8;" x="43.78125" xlink:href="#m9b55a32261" y="10.999219"/>
      </g>
     </g>
     <g id="text_16">
      <!-- 1.0 -->
      <g transform="translate(20.878125 14.798437)scale(0.1 -0.1)">
       <use xlink:href="#DejaVuSans-49"/>
       <use x="63.623047" xlink:href="#DejaVuSans-46"/>
       <use x="95.410156" xlink:href="#DejaVuSans-48"/>
      </g>
     </g>
    </g>
    <g id="text_17">
     <!-- score -->
     <g transform="translate(14.798438 130.290138)rotate(-90)scale(0.1 -0.1)">
      <defs>
       <path d="M 44.28125 53.078125 
L 44.28125 44.578125 
Q 40.484375 46.53125 36.375 47.5 
Q 32.28125 48.484375 27.875 48.484375 
Q 21.1875 48.484375 17.84375 46.4375 
Q 14.5 44.390625 14.5 40.28125 
Q 14.5 37.15625 16.890625 35.375 
Q 19.28125 33.59375 26.515625 31.984375 
L 29.59375 31.296875 
Q 39.15625 29.25 43.1875 25.515625 
Q 47.21875 21.78125 47.21875 15.09375 
Q 47.21875 7.46875 41.1875 3.015625 
Q 35.15625 -1.421875 24.609375 -1.421875 
Q 20.21875 -1.421875 15.453125 -0.5625 
Q 10.6875 0.296875 5.421875 2 
L 5.421875 11.28125 
Q 10.40625 8.6875 15.234375 7.390625 
Q 20.0625 6.109375 24.8125 6.109375 
Q 31.15625 6.109375 34.5625 8.28125 
Q 37.984375 10.453125 37.984375 14.40625 
Q 37.984375 18.0625 35.515625 20.015625 
Q 33.0625 21.96875 24.703125 23.78125 
L 21.578125 24.515625 
Q 13.234375 26.265625 9.515625 29.90625 
Q 5.8125 33.546875 5.8125 39.890625 
Q 5.8125 47.609375 11.28125 51.796875 
Q 16.75 56 26.8125 56 
Q 31.78125 56 36.171875 55.265625 
Q 40.578125 54.546875 44.28125 53.078125 
z
" id="DejaVuSans-115"/>
       <path d="M 41.109375 46.296875 
Q 39.59375 47.171875 37.8125 47.578125 
Q 36.03125 48 33.890625 48 
Q 26.265625 48 22.1875 43.046875 
Q 18.109375 38.09375 18.109375 28.8125 
L 18.109375 0 
L 9.078125 0 
L 9.078125 54.6875 
L 18.109375 54.6875 
L 18.109375 46.1875 
Q 20.953125 51.171875 25.484375 53.578125 
Q 30.03125 56 36.53125 56 
Q 37.453125 56 38.578125 55.875 
Q 39.703125 55.765625 41.0625 55.515625 
z
" id="DejaVuSans-114"/>
      </defs>
      <use xlink:href="#DejaVuSans-115"/>
      <use x="52.099609" xlink:href="#DejaVuSans-99"/>
      <use x="107.080078" xlink:href="#DejaVuSans-111"/>
      <use x="168.261719" xlink:href="#DejaVuSans-114"/>
      <use x="207.125" xlink:href="#DejaVuSans-101"/>
     </g>
    </g>
   </g>
   <g id="line2d_16">
    <path clip-path="url(#p95b2c9875e)" d="M 81.826705 214.842569 
L 85.650368 173.350445 
L 89.474032 199.73518 
L 93.297696 140.795089 
L 97.12136 132.709438 
L 100.945023 129.092182 
L 104.768687 128.66662 
L 108.592351 137.603385 
L 112.416015 124.836576 
L 116.239679 141.433426 
L 120.063342 156.753595 
L 123.887006 121.432093 
L 127.71067 118.240394 
L 131.534334 136.965045 
L 135.357997 129.304959 
L 139.181661 123.134337 
L 143.005325 119.729856 
L 146.828989 133.773342 
L 150.652652 131.0072 
L 154.476316 115.261472 
L 158.29998 120.155414 
L 162.123644 111.00587 
L 165.947308 109.729186 
L 169.770971 103.345784 
L 173.594635 121.432093 
L 181.241963 108.239724 
L 185.065626 121.006534 
L 188.88929 120.155413 
L 192.712954 103.558565 
L 196.536618 98.664621 
L 200.360282 103.558562 
L 204.183945 101.005201 
L 208.007609 96.749601 
L 211.831273 108.878065 
L 215.654937 100.366863 
L 219.4786 103.984122 
L 223.302264 106.111924 
L 227.125928 114.623131 
L 230.949592 96.536821 
L 234.773255 96.53682 
L 238.596919 101.643542 
L 242.420583 105.260806 
L 246.244247 94.621797 
L 250.067911 97.813504 
L 253.891574 104.409683 
L 257.715238 93.34512 
L 261.538902 86.323376 
L 265.362566 90.153417 
L 269.186229 90.578976 
L 273.009893 82.493334 
L 276.833557 88.025616 
L 280.657221 88.663954 
L 284.480885 87.812837 
L 288.304548 77.386608 
L 292.128212 85.04669 
L 295.951876 88.876735 
L 299.77554 93.132336 
L 303.599203 87.600052 
L 307.422867 87.174492 
L 311.246531 80.152747 
L 315.070195 78.876067 
L 318.893858 69.300967 
L 322.717522 76.109929 
L 326.541186 82.067772 
L 330.36485 84.408353 
L 334.188514 86.961715 
L 338.012177 70.364868 
L 341.835841 76.32271 
L 345.659505 65.896483 
L 349.483169 73.982124 
L 353.306832 69.300964 
L 357.130496 58.661961 
L 360.95416 62.066445 
L 364.777824 66.96038 
L 368.601488 65.683707 
L 372.425151 73.982126 
L 376.248815 54.406355 
L 380.072479 61.21532 
L 383.896143 79.939971 
L 387.719806 65.258137 
L 391.54347 61.853663 
L 395.367134 57.810836 
L 399.190798 65.045362 
L 403.014462 55.257475 
L 406.838125 45.044025 
L 410.661789 56.746939 
L 414.485453 49.299632 
L 418.309117 49.937968 
L 422.13278 56.746937 
L 425.956444 48.022945 
L 429.780108 47.81017 
L 433.603772 50.576312 
L 437.427435 57.810835 
L 441.251099 51.001866 
L 445.074763 49.29963 
L 448.898427 54.831911 
L 452.722091 42.277886 
L 456.545754 49.299631 
L 460.369418 45.89515 
L 464.193082 43.767349 
L 468.016746 40.362863 
L 471.840409 41.639546 
L 475.664073 42.277887 
L 479.487737 37.171162 
L 483.311401 41.639549 
L 487.135065 36.74561 
L 490.958728 37.171163 
L 494.782392 36.958386 
L 498.606056 41.639552 
L 502.42972 38.44785 
L 506.253383 41.001209 
L 510.077047 37.596727 
L 513.900711 37.596726 
L 517.724375 48.874066 
L 521.548038 42.065108 
L 525.371702 44.192904 
L 529.195366 37.809504 
L 533.01903 43.554572 
L 536.842694 33.128346 
L 540.666357 42.703451 
L 544.490021 33.979463 
L 548.313685 36.107267 
L 552.137349 34.617808 
L 555.961012 42.916228 
L 559.784676 29.085527 
L 563.60834 38.02229 
L 567.432004 38.87341 
L 571.255668 29.511088 
L 575.079331 29.936646 
L 578.902995 36.958388 
L 582.726659 24.404366 
L 586.550323 33.553907 
L 590.373986 29.723869 
L 594.19765 34.405026 
L 598.021314 31.00055 
L 601.844978 31.213327 
L 605.668642 34.192249 
L 609.492305 27.808848 
L 613.315969 41.001213 
L 617.139633 27.80885 
L 620.963297 33.766687 
L 624.78696 31.851665 
L 628.610624 23.340465 
L 632.434288 29.936649 
L 636.257952 28.447186 
L 640.081615 28.659967 
L 643.905279 26.957727 
L 647.728943 32.49001 
L 651.552607 32.277225 
L 655.376271 36.532831 
L 659.199934 30.787768 
L 663.023598 35.681709 
L 666.847262 34.405028 
L 670.670926 28.234407 
L 674.494589 35.043369 
L 678.318253 31.213327 
L 682.141917 23.978804 
L 685.965581 29.08553 
L 689.789245 28.021623 
L 693.612908 26.106605 
L 697.436572 26.532164 
L 701.260236 26.319385 
L 705.0839 30.149425 
L 708.907563 22.276562 
L 712.731227 34.617809 
L 716.554891 22.063783 
L 720.378555 26.744947 
L 724.202218 19.723203 
L 728.025882 30.362207 
L 731.849546 23.978804 
L 735.67321 34.405029 
L 739.496874 28.659969 
L 743.320537 28.447187 
L 747.144201 22.914903 
L 750.967865 21.851004 
L 754.791529 28.872747 
L 758.615192 23.127683 
L 762.438856 27.383286 
L 766.26252 24.829924 
L 770.086184 26.532165 
L 773.909848 26.319389 
L 777.733511 25.255483 
L 781.557175 25.681047 
L 785.380839 28.872744 
L 789.204503 24.829927 
L 793.028166 22.063782 
L 796.85183 28.021624 
L 800.675494 23.340463 
L 804.499158 23.553246 
L 808.322821 28.234408 
L 812.146485 22.063781 
L 815.970149 22.276562 
L 819.793813 18.020962 
L 823.617477 32.702788 
L 827.44114 28.234406 
L 831.264804 24.404363 
L 835.088468 29.298305 
L 838.912132 26.532166 
L 842.735795 32.277226 
L 842.735795 32.277226 
" style="fill:none;stroke:#1f77b4;stroke-linecap:square;stroke-width:1.5;"/>
   </g>
   <g id="line2d_17">
    <path clip-path="url(#p95b2c9875e)" d="M 81.826705 215.693689 
L 85.650368 186.755592 
L 89.474032 212.714768 
L 93.297696 151.43409 
L 100.945023 128.453837 
L 104.768687 140.369526 
L 108.592351 136.539482 
L 112.416015 131.432758 
L 116.239679 150.157412 
L 120.063342 138.667284 
L 123.887006 130.581639 
L 127.71067 125.900479 
L 131.534334 131.858324 
L 135.357997 137.390605 
L 139.181661 131.432762 
L 143.005325 126.751601 
L 146.828989 132.283878 
L 154.476316 125.474918 
L 158.29998 124.198234 
L 162.123644 118.665952 
L 165.947308 116.963712 
L 169.770971 111.005869 
L 173.594635 133.560564 
L 177.418299 119.091511 
L 181.241963 116.963714 
L 185.065626 132.28388 
L 188.88929 125.900475 
L 192.712954 120.368195 
L 196.536618 99.51574 
L 200.360282 122.070437 
L 204.183945 102.494666 
L 208.007609 101.643543 
L 211.831273 111.85699 
L 215.654937 117.389274 
L 219.4786 111.005864 
L 223.302264 113.98479 
L 227.125928 113.559228 
L 230.949592 108.026944 
L 234.773255 99.941301 
L 238.596919 100.792422 
L 242.420583 115.261473 
L 246.244247 105.473586 
L 250.067911 97.813502 
L 253.891574 113.559233 
L 257.715238 104.196908 
L 265.362566 99.090181 
L 269.186229 95.6857 
L 273.009893 99.090184 
L 276.833557 97.387942 
L 280.657221 100.366858 
L 284.480885 102.494665 
L 288.304548 92.281214 
L 292.128212 93.983458 
L 295.951876 98.664619 
L 299.77554 104.196908 
L 303.599203 101.64354 
L 307.422867 103.771344 
L 311.246531 95.26014 
L 315.070195 92.706774 
L 318.893858 85.046694 
L 322.717522 98.239063 
L 326.541186 93.983458 
L 330.36485 93.983458 
L 334.188514 102.494657 
L 338.012177 85.046694 
L 341.835841 89.302295 
L 345.659505 85.472257 
L 349.483169 86.323374 
L 353.306832 94.83458 
L 357.130496 80.791093 
L 360.95416 80.365531 
L 364.777824 85.897811 
L 368.601488 87.174498 
L 372.425151 89.72786 
L 376.248815 89.302298 
L 380.072479 88.025613 
L 383.896143 109.729184 
L 387.719806 88.451175 
L 391.54347 91.430095 
L 395.367134 85.897816 
L 399.190798 93.132338 
L 403.014462 85.046694 
L 406.838125 78.663292 
L 410.661789 86.748931 
L 414.485453 79.088849 
L 418.309117 87.600056 
L 422.13278 85.472257 
L 425.956444 81.642213 
L 429.780108 88.876738 
L 433.603772 86.323376 
L 437.427435 88.025618 
L 441.251099 86.748934 
L 445.074763 81.642213 
L 448.898427 94.409018 
L 452.722091 85.472252 
L 456.545754 86.323374 
L 460.369418 84.621137 
L 464.193082 85.472257 
L 468.016746 85.472257 
L 471.840409 87.600056 
L 475.664073 84.195575 
L 479.487737 86.323376 
L 483.311401 75.258808 
L 487.135065 91.855659 
L 490.958728 82.06777 
L 494.782392 83.34445 
L 498.606056 88.451173 
L 502.42972 87.174496 
L 506.253383 91.430102 
L 510.077047 85.046694 
L 517.724375 86.748934 
L 521.548038 82.493338 
L 525.371702 84.195575 
L 529.195366 81.216653 
L 533.01903 91.430097 
L 536.842694 82.918893 
L 540.666357 83.344454 
L 544.490021 82.918895 
L 548.313685 92.70678 
L 552.137349 85.897816 
L 555.961012 90.153417 
L 559.784676 81.642211 
L 563.60834 82.918893 
L 567.432004 91.004534 
L 571.255668 85.897816 
L 575.079331 83.344455 
L 578.902995 88.876734 
L 582.726659 78.237732 
L 586.550323 84.195572 
L 590.373986 87.174493 
L 594.19765 85.472252 
L 598.021314 84.195575 
L 601.844978 81.642211 
L 605.668642 87.174493 
L 609.492305 87.600058 
L 613.315969 78.663289 
L 617.139633 79.939974 
L 620.963297 87.174493 
L 624.78696 89.302295 
L 628.610624 80.791093 
L 632.434288 87.174493 
L 636.257952 80.365534 
L 640.081615 85.472259 
L 643.905279 80.791088 
L 647.728943 85.046689 
L 651.552607 91.430097 
L 655.376271 85.897811 
L 659.199934 85.046697 
L 663.023598 91.855659 
L 666.847262 91.430097 
L 670.670926 81.642213 
L 674.494589 86.748936 
L 678.318253 86.323376 
L 682.141917 84.621134 
L 685.965581 78.237729 
L 689.789245 86.323376 
L 693.612908 86.323377 
L 697.436572 85.046694 
L 701.260236 83.34445 
L 705.0839 84.195569 
L 708.907563 82.493335 
L 712.731227 82.918893 
L 716.554891 89.727857 
L 720.378555 86.748936 
L 724.202218 77.81217 
L 728.025882 81.216651 
L 731.849546 83.770015 
L 735.67321 85.897814 
L 739.496874 81.216653 
L 743.320537 85.897816 
L 747.144201 79.514409 
L 750.967865 79.939969 
L 754.791529 83.770017 
L 758.615192 80.365536 
L 762.438856 84.621134 
L 770.086184 84.621137 
L 773.909848 82.493333 
L 777.733511 76.53549 
L 781.557175 88.876736 
L 785.380839 80.791091 
L 789.204503 83.770012 
L 793.028166 77.38661 
L 796.85183 80.791091 
L 800.675494 81.216656 
L 804.499158 77.386607 
L 808.322821 87.174493 
L 812.146485 81.642213 
L 815.970149 78.663292 
L 819.793813 80.365529 
L 823.617477 81.642218 
L 827.44114 78.237732 
L 831.264804 81.642213 
L 835.088468 77.812167 
L 838.912132 82.918893 
L 842.735795 83.770015 
L 842.735795 83.770015 
" style="fill:none;stroke:#ff7f0e;stroke-linecap:square;stroke-width:1.5;"/>
   </g>
   <g id="patch_3">
    <path d="M 43.78125 225.577326 
L 43.78125 8.137326 
" style="fill:none;stroke:#000000;stroke-linecap:square;stroke-linejoin:miter;stroke-width:0.8;"/>
   </g>
   <g id="patch_4">
    <path d="M 880.78125 225.577326 
L 880.78125 8.137326 
" style="fill:none;stroke:#000000;stroke-linecap:square;stroke-linejoin:miter;stroke-width:0.8;"/>
   </g>
   <g id="patch_5">
    <path d="M 43.78125 225.577326 
L 880.78125 225.577326 
" style="fill:none;stroke:#000000;stroke-linecap:square;stroke-linejoin:miter;stroke-width:0.8;"/>
   </g>
   <g id="patch_6">
    <path d="M 43.78125 8.137326 
L 880.78125 8.137326 
" style="fill:none;stroke:#000000;stroke-linecap:square;stroke-linejoin:miter;stroke-width:0.8;"/>
   </g>
   <g id="legend_1">
    <g id="patch_7">
     <path d="M 50.78125 46.049826 
L 129.471875 46.049826 
Q 131.471875 46.049826 131.471875 44.049826 
L 131.471875 15.137326 
Q 131.471875 13.137326 129.471875 13.137326 
L 50.78125 13.137326 
Q 48.78125 13.137326 48.78125 15.137326 
L 48.78125 44.049826 
Q 48.78125 46.049826 50.78125 46.049826 
z
" style="fill:#ffffff;opacity:0.8;stroke:#cccccc;stroke-linejoin:miter;"/>
    </g>
    <g id="line2d_18">
     <path d="M 52.78125 21.235763 
L 72.78125 21.235763 
" style="fill:none;stroke:#1f77b4;stroke-linecap:square;stroke-width:1.5;"/>
    </g>
    <g id="line2d_19"/>
    <g id="text_18">
     <!-- score_tr -->
     <g transform="translate(80.78125 24.735763)scale(0.1 -0.1)">
      <defs>
       <path d="M 50.984375 -16.609375 
L 50.984375 -23.578125 
L -0.984375 -23.578125 
L -0.984375 -16.609375 
z
" id="DejaVuSans-95"/>
       <path d="M 18.3125 70.21875 
L 18.3125 54.6875 
L 36.8125 54.6875 
L 36.8125 47.703125 
L 18.3125 47.703125 
L 18.3125 18.015625 
Q 18.3125 11.328125 20.140625 9.421875 
Q 21.96875 7.515625 27.59375 7.515625 
L 36.8125 7.515625 
L 36.8125 0 
L 27.59375 0 
Q 17.1875 0 13.234375 3.875 
Q 9.28125 7.765625 9.28125 18.015625 
L 9.28125 47.703125 
L 2.6875 47.703125 
L 2.6875 54.6875 
L 9.28125 54.6875 
L 9.28125 70.21875 
z
" id="DejaVuSans-116"/>
      </defs>
      <use xlink:href="#DejaVuSans-115"/>
      <use x="52.099609" xlink:href="#DejaVuSans-99"/>
      <use x="107.080078" xlink:href="#DejaVuSans-111"/>
      <use x="168.261719" xlink:href="#DejaVuSans-114"/>
      <use x="207.125" xlink:href="#DejaVuSans-101"/>
      <use x="268.648438" xlink:href="#DejaVuSans-95"/>
      <use x="318.648438" xlink:href="#DejaVuSans-116"/>
      <use x="357.857422" xlink:href="#DejaVuSans-114"/>
     </g>
    </g>
    <g id="line2d_20">
     <path d="M 52.78125 36.192013 
L 72.78125 36.192013 
" style="fill:none;stroke:#ff7f0e;stroke-linecap:square;stroke-width:1.5;"/>
    </g>
    <g id="line2d_21"/>
    <g id="text_19">
     <!-- score_val -->
     <g transform="translate(80.78125 39.692013)scale(0.1 -0.1)">
      <defs>
       <path d="M 2.984375 54.6875 
L 12.5 54.6875 
L 29.59375 8.796875 
L 46.6875 54.6875 
L 56.203125 54.6875 
L 35.6875 0 
L 23.484375 0 
z
" id="DejaVuSans-118"/>
       <path d="M 34.28125 27.484375 
Q 23.390625 27.484375 19.1875 25 
Q 14.984375 22.515625 14.984375 16.5 
Q 14.984375 11.71875 18.140625 8.90625 
Q 21.296875 6.109375 26.703125 6.109375 
Q 34.1875 6.109375 38.703125 11.40625 
Q 43.21875 16.703125 43.21875 25.484375 
L 43.21875 27.484375 
z
M 52.203125 31.203125 
L 52.203125 0 
L 43.21875 0 
L 43.21875 8.296875 
Q 40.140625 3.328125 35.546875 0.953125 
Q 30.953125 -1.421875 24.3125 -1.421875 
Q 15.921875 -1.421875 10.953125 3.296875 
Q 6 8.015625 6 15.921875 
Q 6 25.140625 12.171875 29.828125 
Q 18.359375 34.515625 30.609375 34.515625 
L 43.21875 34.515625 
L 43.21875 35.40625 
Q 43.21875 41.609375 39.140625 45 
Q 35.0625 48.390625 27.6875 48.390625 
Q 23 48.390625 18.546875 47.265625 
Q 14.109375 46.140625 10.015625 43.890625 
L 10.015625 52.203125 
Q 14.9375 54.109375 19.578125 55.046875 
Q 24.21875 56 28.609375 56 
Q 40.484375 56 46.34375 49.84375 
Q 52.203125 43.703125 52.203125 31.203125 
z
" id="DejaVuSans-97"/>
       <path d="M 9.421875 75.984375 
L 18.40625 75.984375 
L 18.40625 0 
L 9.421875 0 
z
" id="DejaVuSans-108"/>
      </defs>
      <use xlink:href="#DejaVuSans-115"/>
      <use x="52.099609" xlink:href="#DejaVuSans-99"/>
      <use x="107.080078" xlink:href="#DejaVuSans-111"/>
      <use x="168.261719" xlink:href="#DejaVuSans-114"/>
      <use x="207.125" xlink:href="#DejaVuSans-101"/>
      <use x="268.648438" xlink:href="#DejaVuSans-95"/>
      <use x="318.648438" xlink:href="#DejaVuSans-118"/>
      <use x="377.828125" xlink:href="#DejaVuSans-97"/>
      <use x="439.107422" xlink:href="#DejaVuSans-108"/>
     </g>
    </g>
   </g>
  </g>
 </g>
 <defs>
  <clipPath id="p95b2c9875e">
   <rect height="217.44" width="837" x="43.78125" y="8.137326"/>
  </clipPath>
 </defs>
</svg>
