<?xml version="1.0" encoding="utf-8" standalone="no"?>
<!DOCTYPE svg PUBLIC "-//W3C//DTD SVG 1.1//EN"
  "http://www.w3.org/Graphics/SVG/1.1/DTD/svg11.dtd">
<!-- Created with matplotlib (https://matplotlib.org/) -->
<svg height="262.19625pt" version="1.1" viewBox="0 0 894.34375 262.19625" width="894.34375pt" xmlns="http://www.w3.org/2000/svg" xmlns:xlink="http://www.w3.org/1999/xlink">
 <metadata>
  <rdf:RDF xmlns:cc="http://creativecommons.org/ns#" xmlns:dc="http://purl.org/dc/elements/1.1/" xmlns:rdf="http://www.w3.org/1999/02/22-rdf-syntax-ns#">
   <cc:Work>
    <dc:type rdf:resource="http://purl.org/dc/dcmitype/StillImage"/>
    <dc:date>2020-12-16T15:40:07.091487</dc:date>
    <dc:format>image/svg+xml</dc:format>
    <dc:creator>
     <cc:Agent>
      <dc:title>Matplotlib v3.3.3, https://matplotlib.org/</dc:title>
     </cc:Agent>
    </dc:creator>
   </cc:Work>
  </rdf:RDF>
 </metadata>
 <defs>
  <style type="text/css">*{stroke-linecap:butt;stroke-linejoin:round;}</style>
 </defs>
 <g id="figure_1">
  <g id="patch_1">
   <path d="M 0 262.19625 
L 894.34375 262.19625 
L 894.34375 0 
L 0 0 
z
" style="fill:none;"/>
  </g>
  <g id="axes_1">
   <g id="patch_2">
    <path d="M 50.14375 224.64 
L 887.14375 224.64 
L 887.14375 7.2 
L 50.14375 7.2 
z
" style="fill:#ffffff;"/>
   </g>
   <g id="matplotlib.axis_1">
    <g id="xtick_1">
     <g id="line2d_1">
      <defs>
       <path d="M 0 0 
L 0 3.5 
" id="m627bd1c53d" style="stroke:#000000;stroke-width:0.8;"/>
      </defs>
      <g>
       <use style="stroke:#000000;stroke-width:0.8;" x="88.189205" xlink:href="#m627bd1c53d" y="224.64"/>
      </g>
     </g>
     <g id="text_1">
      <!-- 0 -->
      <g transform="translate(85.007955 239.238437)scale(0.1 -0.1)">
       <defs>
        <path d="M 31.78125 66.40625 
Q 24.171875 66.40625 20.328125 58.90625 
Q 16.5 51.421875 16.5 36.375 
Q 16.5 21.390625 20.328125 13.890625 
Q 24.171875 6.390625 31.78125 6.390625 
Q 39.453125 6.390625 43.28125 13.890625 
Q 47.125 21.390625 47.125 36.375 
Q 47.125 51.421875 43.28125 58.90625 
Q 39.453125 66.40625 31.78125 66.40625 
z
M 31.78125 74.21875 
Q 44.046875 74.21875 50.515625 64.515625 
Q 56.984375 54.828125 56.984375 36.375 
Q 56.984375 17.96875 50.515625 8.265625 
Q 44.046875 -1.421875 31.78125 -1.421875 
Q 19.53125 -1.421875 13.0625 8.265625 
Q 6.59375 17.96875 6.59375 36.375 
Q 6.59375 54.828125 13.0625 64.515625 
Q 19.53125 74.21875 31.78125 74.21875 
z
" id="DejaVuSans-48"/>
       </defs>
       <use xlink:href="#DejaVuSans-48"/>
      </g>
     </g>
    </g>
    <g id="xtick_2">
     <g id="line2d_2">
      <g>
       <use style="stroke:#000000;stroke-width:0.8;" x="183.780799" xlink:href="#m627bd1c53d" y="224.64"/>
      </g>
     </g>
     <g id="text_2">
      <!-- 25 -->
      <g transform="translate(177.418299 239.238437)scale(0.1 -0.1)">
       <defs>
        <path d="M 19.1875 8.296875 
L 53.609375 8.296875 
L 53.609375 0 
L 7.328125 0 
L 7.328125 8.296875 
Q 12.9375 14.109375 22.625 23.890625 
Q 32.328125 33.6875 34.8125 36.53125 
Q 39.546875 41.84375 41.421875 45.53125 
Q 43.3125 49.21875 43.3125 52.78125 
Q 43.3125 58.59375 39.234375 62.25 
Q 35.15625 65.921875 28.609375 65.921875 
Q 23.96875 65.921875 18.8125 64.3125 
Q 13.671875 62.703125 7.8125 59.421875 
L 7.8125 69.390625 
Q 13.765625 71.78125 18.9375 73 
Q 24.125 74.21875 28.421875 74.21875 
Q 39.75 74.21875 46.484375 68.546875 
Q 53.21875 62.890625 53.21875 53.421875 
Q 53.21875 48.921875 51.53125 44.890625 
Q 49.859375 40.875 45.40625 35.40625 
Q 44.1875 33.984375 37.640625 27.21875 
Q 31.109375 20.453125 19.1875 8.296875 
z
" id="DejaVuSans-50"/>
        <path d="M 10.796875 72.90625 
L 49.515625 72.90625 
L 49.515625 64.59375 
L 19.828125 64.59375 
L 19.828125 46.734375 
Q 21.96875 47.46875 24.109375 47.828125 
Q 26.265625 48.1875 28.421875 48.1875 
Q 40.625 48.1875 47.75 41.5 
Q 54.890625 34.8125 54.890625 23.390625 
Q 54.890625 11.625 47.5625 5.09375 
Q 40.234375 -1.421875 26.90625 -1.421875 
Q 22.3125 -1.421875 17.546875 -0.640625 
Q 12.796875 0.140625 7.71875 1.703125 
L 7.71875 11.625 
Q 12.109375 9.234375 16.796875 8.0625 
Q 21.484375 6.890625 26.703125 6.890625 
Q 35.15625 6.890625 40.078125 11.328125 
Q 45.015625 15.765625 45.015625 23.390625 
Q 45.015625 31 40.078125 35.4375 
Q 35.15625 39.890625 26.703125 39.890625 
Q 22.75 39.890625 18.8125 39.015625 
Q 14.890625 38.140625 10.796875 36.28125 
z
" id="DejaVuSans-53"/>
       </defs>
       <use xlink:href="#DejaVuSans-50"/>
       <use x="63.623047" xlink:href="#DejaVuSans-53"/>
      </g>
     </g>
    </g>
    <g id="xtick_3">
     <g id="line2d_3">
      <g>
       <use style="stroke:#000000;stroke-width:0.8;" x="279.372393" xlink:href="#m627bd1c53d" y="224.64"/>
      </g>
     </g>
     <g id="text_3">
      <!-- 50 -->
      <g transform="translate(273.009893 239.238437)scale(0.1 -0.1)">
       <use xlink:href="#DejaVuSans-53"/>
       <use x="63.623047" xlink:href="#DejaVuSans-48"/>
      </g>
     </g>
    </g>
    <g id="xtick_4">
     <g id="line2d_4">
      <g>
       <use style="stroke:#000000;stroke-width:0.8;" x="374.963988" xlink:href="#m627bd1c53d" y="224.64"/>
      </g>
     </g>
     <g id="text_4">
      <!-- 75 -->
      <g transform="translate(368.601488 239.238437)scale(0.1 -0.1)">
       <defs>
        <path d="M 8.203125 72.90625 
L 55.078125 72.90625 
L 55.078125 68.703125 
L 28.609375 0 
L 18.3125 0 
L 43.21875 64.59375 
L 8.203125 64.59375 
z
" id="DejaVuSans-55"/>
       </defs>
       <use xlink:href="#DejaVuSans-55"/>
       <use x="63.623047" xlink:href="#DejaVuSans-53"/>
      </g>
     </g>
    </g>
    <g id="xtick_5">
     <g id="line2d_5">
      <g>
       <use style="stroke:#000000;stroke-width:0.8;" x="470.555582" xlink:href="#m627bd1c53d" y="224.64"/>
      </g>
     </g>
     <g id="text_5">
      <!-- 100 -->
      <g transform="translate(461.011832 239.238437)scale(0.1 -0.1)">
       <defs>
        <path d="M 12.40625 8.296875 
L 28.515625 8.296875 
L 28.515625 63.921875 
L 10.984375 60.40625 
L 10.984375 69.390625 
L 28.421875 72.90625 
L 38.28125 72.90625 
L 38.28125 8.296875 
L 54.390625 8.296875 
L 54.390625 0 
L 12.40625 0 
z
" id="DejaVuSans-49"/>
       </defs>
       <use xlink:href="#DejaVuSans-49"/>
       <use x="63.623047" xlink:href="#DejaVuSans-48"/>
       <use x="127.246094" xlink:href="#DejaVuSans-48"/>
      </g>
     </g>
    </g>
    <g id="xtick_6">
     <g id="line2d_6">
      <g>
       <use style="stroke:#000000;stroke-width:0.8;" x="566.147176" xlink:href="#m627bd1c53d" y="224.64"/>
      </g>
     </g>
     <g id="text_6">
      <!-- 125 -->
      <g transform="translate(556.603426 239.238437)scale(0.1 -0.1)">
       <use xlink:href="#DejaVuSans-49"/>
       <use x="63.623047" xlink:href="#DejaVuSans-50"/>
       <use x="127.246094" xlink:href="#DejaVuSans-53"/>
      </g>
     </g>
    </g>
    <g id="xtick_7">
     <g id="line2d_7">
      <g>
       <use style="stroke:#000000;stroke-width:0.8;" x="661.738771" xlink:href="#m627bd1c53d" y="224.64"/>
      </g>
     </g>
     <g id="text_7">
      <!-- 150 -->
      <g transform="translate(652.195021 239.238437)scale(0.1 -0.1)">
       <use xlink:href="#DejaVuSans-49"/>
       <use x="63.623047" xlink:href="#DejaVuSans-53"/>
       <use x="127.246094" xlink:href="#DejaVuSans-48"/>
      </g>
     </g>
    </g>
    <g id="xtick_8">
     <g id="line2d_8">
      <g>
       <use style="stroke:#000000;stroke-width:0.8;" x="757.330365" xlink:href="#m627bd1c53d" y="224.64"/>
      </g>
     </g>
     <g id="text_8">
      <!-- 175 -->
      <g transform="translate(747.786615 239.238437)scale(0.1 -0.1)">
       <use xlink:href="#DejaVuSans-49"/>
       <use x="63.623047" xlink:href="#DejaVuSans-55"/>
       <use x="127.246094" xlink:href="#DejaVuSans-53"/>
      </g>
     </g>
    </g>
    <g id="xtick_9">
     <g id="line2d_9">
      <g>
       <use style="stroke:#000000;stroke-width:0.8;" x="852.921959" xlink:href="#m627bd1c53d" y="224.64"/>
      </g>
     </g>
     <g id="text_9">
      <!-- 200 -->
      <g transform="translate(843.378209 239.238437)scale(0.1 -0.1)">
       <use xlink:href="#DejaVuSans-50"/>
       <use x="63.623047" xlink:href="#DejaVuSans-48"/>
       <use x="127.246094" xlink:href="#DejaVuSans-48"/>
      </g>
     </g>
    </g>
    <g id="text_10">
     <!-- epoch -->
     <g transform="translate(453.415625 252.916562)scale(0.1 -0.1)">
      <defs>
       <path d="M 56.203125 29.59375 
L 56.203125 25.203125 
L 14.890625 25.203125 
Q 15.484375 15.921875 20.484375 11.0625 
Q 25.484375 6.203125 34.421875 6.203125 
Q 39.59375 6.203125 44.453125 7.46875 
Q 49.3125 8.734375 54.109375 11.28125 
L 54.109375 2.78125 
Q 49.265625 0.734375 44.1875 -0.34375 
Q 39.109375 -1.421875 33.890625 -1.421875 
Q 20.796875 -1.421875 13.15625 6.1875 
Q 5.515625 13.8125 5.515625 26.8125 
Q 5.515625 40.234375 12.765625 48.109375 
Q 20.015625 56 32.328125 56 
Q 43.359375 56 49.78125 48.890625 
Q 56.203125 41.796875 56.203125 29.59375 
z
M 47.21875 32.234375 
Q 47.125 39.59375 43.09375 43.984375 
Q 39.0625 48.390625 32.421875 48.390625 
Q 24.90625 48.390625 20.390625 44.140625 
Q 15.875 39.890625 15.1875 32.171875 
z
" id="DejaVuSans-101"/>
       <path d="M 18.109375 8.203125 
L 18.109375 -20.796875 
L 9.078125 -20.796875 
L 9.078125 54.6875 
L 18.109375 54.6875 
L 18.109375 46.390625 
Q 20.953125 51.265625 25.265625 53.625 
Q 29.59375 56 35.59375 56 
Q 45.5625 56 51.78125 48.09375 
Q 58.015625 40.1875 58.015625 27.296875 
Q 58.015625 14.40625 51.78125 6.484375 
Q 45.5625 -1.421875 35.59375 -1.421875 
Q 29.59375 -1.421875 25.265625 0.953125 
Q 20.953125 3.328125 18.109375 8.203125 
z
M 48.6875 27.296875 
Q 48.6875 37.203125 44.609375 42.84375 
Q 40.53125 48.484375 33.40625 48.484375 
Q 26.265625 48.484375 22.1875 42.84375 
Q 18.109375 37.203125 18.109375 27.296875 
Q 18.109375 17.390625 22.1875 11.75 
Q 26.265625 6.109375 33.40625 6.109375 
Q 40.53125 6.109375 44.609375 11.75 
Q 48.6875 17.390625 48.6875 27.296875 
z
" id="DejaVuSans-112"/>
       <path d="M 30.609375 48.390625 
Q 23.390625 48.390625 19.1875 42.75 
Q 14.984375 37.109375 14.984375 27.296875 
Q 14.984375 17.484375 19.15625 11.84375 
Q 23.34375 6.203125 30.609375 6.203125 
Q 37.796875 6.203125 41.984375 11.859375 
Q 46.1875 17.53125 46.1875 27.296875 
Q 46.1875 37.015625 41.984375 42.703125 
Q 37.796875 48.390625 30.609375 48.390625 
z
M 30.609375 56 
Q 42.328125 56 49.015625 48.375 
Q 55.71875 40.765625 55.71875 27.296875 
Q 55.71875 13.875 49.015625 6.21875 
Q 42.328125 -1.421875 30.609375 -1.421875 
Q 18.84375 -1.421875 12.171875 6.21875 
Q 5.515625 13.875 5.515625 27.296875 
Q 5.515625 40.765625 12.171875 48.375 
Q 18.84375 56 30.609375 56 
z
" id="DejaVuSans-111"/>
       <path d="M 48.78125 52.59375 
L 48.78125 44.1875 
Q 44.96875 46.296875 41.140625 47.34375 
Q 37.3125 48.390625 33.40625 48.390625 
Q 24.65625 48.390625 19.8125 42.84375 
Q 14.984375 37.3125 14.984375 27.296875 
Q 14.984375 17.28125 19.8125 11.734375 
Q 24.65625 6.203125 33.40625 6.203125 
Q 37.3125 6.203125 41.140625 7.25 
Q 44.96875 8.296875 48.78125 10.40625 
L 48.78125 2.09375 
Q 45.015625 0.34375 40.984375 -0.53125 
Q 36.96875 -1.421875 32.421875 -1.421875 
Q 20.0625 -1.421875 12.78125 6.34375 
Q 5.515625 14.109375 5.515625 27.296875 
Q 5.515625 40.671875 12.859375 48.328125 
Q 20.21875 56 33.015625 56 
Q 37.15625 56 41.109375 55.140625 
Q 45.0625 54.296875 48.78125 52.59375 
z
" id="DejaVuSans-99"/>
       <path d="M 54.890625 33.015625 
L 54.890625 0 
L 45.90625 0 
L 45.90625 32.71875 
Q 45.90625 40.484375 42.875 44.328125 
Q 39.84375 48.1875 33.796875 48.1875 
Q 26.515625 48.1875 22.3125 43.546875 
Q 18.109375 38.921875 18.109375 30.90625 
L 18.109375 0 
L 9.078125 0 
L 9.078125 75.984375 
L 18.109375 75.984375 
L 18.109375 46.1875 
Q 21.34375 51.125 25.703125 53.5625 
Q 30.078125 56 35.796875 56 
Q 45.21875 56 50.046875 50.171875 
Q 54.890625 44.34375 54.890625 33.015625 
z
" id="DejaVuSans-104"/>
      </defs>
      <use xlink:href="#DejaVuSans-101"/>
      <use x="61.523438" xlink:href="#DejaVuSans-112"/>
      <use x="125" xlink:href="#DejaVuSans-111"/>
      <use x="186.181641" xlink:href="#DejaVuSans-99"/>
      <use x="241.162109" xlink:href="#DejaVuSans-104"/>
     </g>
    </g>
   </g>
   <g id="matplotlib.axis_2">
    <g id="ytick_1">
     <g id="line2d_10">
      <defs>
       <path d="M 0 0 
L -3.5 0 
" id="m1d432060c1" style="stroke:#000000;stroke-width:0.8;"/>
      </defs>
      <g>
       <use style="stroke:#000000;stroke-width:0.8;" x="50.14375" xlink:href="#m1d432060c1" y="214.795697"/>
      </g>
     </g>
     <g id="text_11">
      <!-- 0.00 -->
      <g transform="translate(20.878125 218.594916)scale(0.1 -0.1)">
       <defs>
        <path d="M 10.6875 12.40625 
L 21 12.40625 
L 21 0 
L 10.6875 0 
z
" id="DejaVuSans-46"/>
       </defs>
       <use xlink:href="#DejaVuSans-48"/>
       <use x="63.623047" xlink:href="#DejaVuSans-46"/>
       <use x="95.410156" xlink:href="#DejaVuSans-48"/>
       <use x="159.033203" xlink:href="#DejaVuSans-48"/>
      </g>
     </g>
    </g>
    <g id="ytick_2">
     <g id="line2d_11">
      <g>
       <use style="stroke:#000000;stroke-width:0.8;" x="50.14375" xlink:href="#m1d432060c1" y="182.912596"/>
      </g>
     </g>
     <g id="text_12">
      <!-- 0.05 -->
      <g transform="translate(20.878125 186.711815)scale(0.1 -0.1)">
       <use xlink:href="#DejaVuSans-48"/>
       <use x="63.623047" xlink:href="#DejaVuSans-46"/>
       <use x="95.410156" xlink:href="#DejaVuSans-48"/>
       <use x="159.033203" xlink:href="#DejaVuSans-53"/>
      </g>
     </g>
    </g>
    <g id="ytick_3">
     <g id="line2d_12">
      <g>
       <use style="stroke:#000000;stroke-width:0.8;" x="50.14375" xlink:href="#m1d432060c1" y="151.029494"/>
      </g>
     </g>
     <g id="text_13">
      <!-- 0.10 -->
      <g transform="translate(20.878125 154.828713)scale(0.1 -0.1)">
       <use xlink:href="#DejaVuSans-48"/>
       <use x="63.623047" xlink:href="#DejaVuSans-46"/>
       <use x="95.410156" xlink:href="#DejaVuSans-49"/>
       <use x="159.033203" xlink:href="#DejaVuSans-48"/>
      </g>
     </g>
    </g>
    <g id="ytick_4">
     <g id="line2d_13">
      <g>
       <use style="stroke:#000000;stroke-width:0.8;" x="50.14375" xlink:href="#m1d432060c1" y="119.146392"/>
      </g>
     </g>
     <g id="text_14">
      <!-- 0.15 -->
      <g transform="translate(20.878125 122.945611)scale(0.1 -0.1)">
       <use xlink:href="#DejaVuSans-48"/>
       <use x="63.623047" xlink:href="#DejaVuSans-46"/>
       <use x="95.410156" xlink:href="#DejaVuSans-49"/>
       <use x="159.033203" xlink:href="#DejaVuSans-53"/>
      </g>
     </g>
    </g>
    <g id="ytick_5">
     <g id="line2d_14">
      <g>
       <use style="stroke:#000000;stroke-width:0.8;" x="50.14375" xlink:href="#m1d432060c1" y="87.263291"/>
      </g>
     </g>
     <g id="text_15">
      <!-- 0.20 -->
      <g transform="translate(20.878125 91.06251)scale(0.1 -0.1)">
       <use xlink:href="#DejaVuSans-48"/>
       <use x="63.623047" xlink:href="#DejaVuSans-46"/>
       <use x="95.410156" xlink:href="#DejaVuSans-50"/>
       <use x="159.033203" xlink:href="#DejaVuSans-48"/>
      </g>
     </g>
    </g>
    <g id="ytick_6">
     <g id="line2d_15">
      <g>
       <use style="stroke:#000000;stroke-width:0.8;" x="50.14375" xlink:href="#m1d432060c1" y="55.380189"/>
      </g>
     </g>
     <g id="text_16">
      <!-- 0.25 -->
      <g transform="translate(20.878125 59.179408)scale(0.1 -0.1)">
       <use xlink:href="#DejaVuSans-48"/>
       <use x="63.623047" xlink:href="#DejaVuSans-46"/>
       <use x="95.410156" xlink:href="#DejaVuSans-50"/>
       <use x="159.033203" xlink:href="#DejaVuSans-53"/>
      </g>
     </g>
    </g>
    <g id="ytick_7">
     <g id="line2d_16">
      <g>
       <use style="stroke:#000000;stroke-width:0.8;" x="50.14375" xlink:href="#m1d432060c1" y="23.497088"/>
      </g>
     </g>
     <g id="text_17">
      <!-- 0.30 -->
      <g transform="translate(20.878125 27.296306)scale(0.1 -0.1)">
       <defs>
        <path d="M 40.578125 39.3125 
Q 47.65625 37.796875 51.625 33 
Q 55.609375 28.21875 55.609375 21.1875 
Q 55.609375 10.40625 48.1875 4.484375 
Q 40.765625 -1.421875 27.09375 -1.421875 
Q 22.515625 -1.421875 17.65625 -0.515625 
Q 12.796875 0.390625 7.625 2.203125 
L 7.625 11.71875 
Q 11.71875 9.328125 16.59375 8.109375 
Q 21.484375 6.890625 26.8125 6.890625 
Q 36.078125 6.890625 40.9375 10.546875 
Q 45.796875 14.203125 45.796875 21.1875 
Q 45.796875 27.640625 41.28125 31.265625 
Q 36.765625 34.90625 28.71875 34.90625 
L 20.21875 34.90625 
L 20.21875 43.015625 
L 29.109375 43.015625 
Q 36.375 43.015625 40.234375 45.921875 
Q 44.09375 48.828125 44.09375 54.296875 
Q 44.09375 59.90625 40.109375 62.90625 
Q 36.140625 65.921875 28.71875 65.921875 
Q 24.65625 65.921875 20.015625 65.03125 
Q 15.375 64.15625 9.8125 62.3125 
L 9.8125 71.09375 
Q 15.4375 72.65625 20.34375 73.4375 
Q 25.25 74.21875 29.59375 74.21875 
Q 40.828125 74.21875 47.359375 69.109375 
Q 53.90625 64.015625 53.90625 55.328125 
Q 53.90625 49.265625 50.4375 45.09375 
Q 46.96875 40.921875 40.578125 39.3125 
z
" id="DejaVuSans-51"/>
       </defs>
       <use xlink:href="#DejaVuSans-48"/>
       <use x="63.623047" xlink:href="#DejaVuSans-46"/>
       <use x="95.410156" xlink:href="#DejaVuSans-51"/>
       <use x="159.033203" xlink:href="#DejaVuSans-48"/>
      </g>
     </g>
    </g>
    <g id="text_18">
     <!-- loss -->
     <g transform="translate(14.798437 125.577812)rotate(-90)scale(0.1 -0.1)">
      <defs>
       <path d="M 9.421875 75.984375 
L 18.40625 75.984375 
L 18.40625 0 
L 9.421875 0 
z
" id="DejaVuSans-108"/>
       <path d="M 44.28125 53.078125 
L 44.28125 44.578125 
Q 40.484375 46.53125 36.375 47.5 
Q 32.28125 48.484375 27.875 48.484375 
Q 21.1875 48.484375 17.84375 46.4375 
Q 14.5 44.390625 14.5 40.28125 
Q 14.5 37.15625 16.890625 35.375 
Q 19.28125 33.59375 26.515625 31.984375 
L 29.59375 31.296875 
Q 39.15625 29.25 43.1875 25.515625 
Q 47.21875 21.78125 47.21875 15.09375 
Q 47.21875 7.46875 41.1875 3.015625 
Q 35.15625 -1.421875 24.609375 -1.421875 
Q 20.21875 -1.421875 15.453125 -0.5625 
Q 10.6875 0.296875 5.421875 2 
L 5.421875 11.28125 
Q 10.40625 8.6875 15.234375 7.390625 
Q 20.0625 6.109375 24.8125 6.109375 
Q 31.15625 6.109375 34.5625 8.28125 
Q 37.984375 10.453125 37.984375 14.40625 
Q 37.984375 18.0625 35.515625 20.015625 
Q 33.0625 21.96875 24.703125 23.78125 
L 21.578125 24.515625 
Q 13.234375 26.265625 9.515625 29.90625 
Q 5.8125 33.546875 5.8125 39.890625 
Q 5.8125 47.609375 11.28125 51.796875 
Q 16.75 56 26.8125 56 
Q 31.78125 56 36.171875 55.265625 
Q 40.578125 54.546875 44.28125 53.078125 
z
" id="DejaVuSans-115"/>
      </defs>
      <use xlink:href="#DejaVuSans-108"/>
      <use x="27.783203" xlink:href="#DejaVuSans-111"/>
      <use x="88.964844" xlink:href="#DejaVuSans-115"/>
      <use x="141.064453" xlink:href="#DejaVuSans-115"/>
     </g>
    </g>
   </g>
   <g id="line2d_17">
    <path clip-path="url(#p6db6ae55ea)" d="M 88.189205 17.083636 
L 92.012868 86.666455 
L 95.836532 100.057252 
L 99.660196 112.20901 
L 103.48386 113.625117 
L 107.307523 106.082866 
L 111.131187 106.180888 
L 114.954851 109.471312 
L 118.778515 116.824988 
L 122.602179 96.778981 
L 126.425842 113.110123 
L 130.249506 122.239838 
L 137.896834 133.085046 
L 141.720497 129.015381 
L 145.544161 134.497999 
L 149.367825 140.368199 
L 153.191489 135.427081 
L 157.015152 111.077922 
L 160.838816 136.738847 
L 164.66248 135.304264 
L 168.486144 138.514064 
L 172.309808 140.31 
L 176.133471 142.569026 
L 179.957135 142.07611 
L 183.780799 144.918614 
L 187.604463 144.403041 
L 191.428126 143.124032 
L 195.25179 143.357741 
L 199.075454 148.153172 
L 202.899118 154.16449 
L 206.722782 153.596685 
L 210.546445 153.195942 
L 214.370109 151.340191 
L 218.193773 154.821822 
L 222.017437 155.224023 
L 225.8411 157.525029 
L 229.664764 158.971019 
L 233.488428 157.746831 
L 237.312092 159.914002 
L 241.135755 161.006246 
L 244.959419 156.600683 
L 248.783083 160.463702 
L 252.606747 162.089202 
L 256.430411 158.872427 
L 260.254074 158.63163 
L 264.077738 162.997736 
L 267.901402 162.391305 
L 271.725066 164.672086 
L 275.548729 163.960018 
L 283.196057 165.185165 
L 287.019721 168.616184 
L 290.843385 168.077141 
L 294.667048 167.909408 
L 298.490712 170.421446 
L 302.314376 169.488368 
L 306.13804 166.937121 
L 309.961703 165.982071 
L 313.785367 169.539389 
L 317.609031 168.735072 
L 321.432695 169.821458 
L 325.256358 171.845501 
L 329.080022 170.15467 
L 332.903686 171.549122 
L 336.72735 173.081081 
L 340.551014 173.539135 
L 344.374677 173.794636 
L 348.198341 166.933045 
L 352.022005 171.045769 
L 355.845669 170.811518 
L 359.669332 173.956687 
L 363.492996 170.394921 
L 367.31666 172.553013 
L 371.140324 173.7794 
L 374.963988 175.416056 
L 378.787651 175.401917 
L 382.611315 174.594706 
L 386.434979 173.343386 
L 394.082306 175.62501 
L 397.90597 178.691937 
L 401.729634 176.689404 
L 405.553298 180.495719 
L 409.376962 177.575375 
L 413.200625 177.807305 
L 417.024289 178.581713 
L 420.847953 177.462433 
L 424.671617 178.678352 
L 428.49528 181.466443 
L 432.318944 177.117695 
L 436.142608 178.880716 
L 439.966272 178.411802 
L 443.789935 179.265021 
L 447.613599 181.060227 
L 451.437263 178.163175 
L 455.260927 177.742455 
L 459.084591 181.503368 
L 462.908254 180.049018 
L 466.731918 179.472723 
L 470.555582 182.060538 
L 474.379246 183.504538 
L 478.202909 179.507476 
L 485.850237 178.357156 
L 489.673901 180.026237 
L 493.497565 180.567532 
L 497.321228 180.871795 
L 501.144892 176.395118 
L 504.968556 172.404223 
L 508.79222 173.977914 
L 512.615883 177.349864 
L 520.263211 177.477309 
L 524.086875 178.379315 
L 527.910538 179.044871 
L 531.734202 181.650308 
L 539.38153 182.76752 
L 543.205194 183.739491 
L 547.028857 184.479818 
L 550.852521 182.500543 
L 554.676185 185.047001 
L 558.499849 186.158895 
L 562.323512 184.307587 
L 566.147176 184.312644 
L 569.97084 184.139545 
L 573.794504 185.234082 
L 577.618168 184.836574 
L 581.441831 184.301104 
L 585.265495 185.317083 
L 589.089159 186.16165 
L 592.912823 185.69429 
L 596.736486 188.187371 
L 600.56015 185.251886 
L 604.383814 186.716217 
L 608.207478 185.767077 
L 612.031142 185.925875 
L 615.854805 185.955965 
L 619.678469 186.671442 
L 623.502133 188.082358 
L 627.325797 186.614621 
L 631.14946 188.873808 
L 634.973124 186.766328 
L 638.796788 187.200772 
L 642.620452 186.369975 
L 646.444115 187.446203 
L 650.267779 187.042349 
L 654.091443 186.763767 
L 657.915107 186.784693 
L 661.738771 189.945128 
L 665.562434 189.483813 
L 669.386098 188.891101 
L 673.209762 189.425407 
L 677.033426 189.831015 
L 680.857089 190.512784 
L 684.680753 188.478859 
L 688.504417 189.272641 
L 692.328081 187.979493 
L 696.151745 188.15586 
L 699.975408 187.891895 
L 703.799072 189.574861 
L 707.622736 188.699222 
L 711.4464 188.360453 
L 715.270063 189.100825 
L 719.093727 188.778879 
L 722.917391 189.148681 
L 726.741055 187.948203 
L 730.564718 189.395374 
L 734.388382 188.644555 
L 738.212046 189.317366 
L 742.03571 189.117085 
L 745.859374 191.56069 
L 749.683037 190.333657 
L 753.506701 190.508615 
L 757.330365 190.802858 
L 761.154029 189.710714 
L 764.977692 191.278452 
L 768.801356 190.486651 
L 772.62502 190.034929 
L 776.448684 190.751106 
L 780.272348 190.205485 
L 784.096011 191.741404 
L 787.919675 191.455945 
L 791.743339 192.361368 
L 795.567003 189.683408 
L 799.390666 190.182963 
L 803.21433 190.416798 
L 807.037994 191.369587 
L 810.861658 190.625892 
L 814.685321 191.235392 
L 818.508985 190.817995 
L 822.332649 190.836721 
L 826.156313 192.389897 
L 829.979977 190.753234 
L 833.80364 191.999146 
L 841.450968 191.271711 
L 845.274632 191.728175 
L 849.098295 193.540053 
L 849.098295 193.540053 
" style="fill:none;stroke:#1f77b4;stroke-linecap:square;stroke-width:1.5;"/>
   </g>
   <g id="line2d_18">
    <path clip-path="url(#p6db6ae55ea)" d="M 88.189205 118.839211 
L 92.012868 125.023212 
L 95.836532 128.698844 
L 99.660196 152.076712 
L 103.48386 165.708577 
L 107.307523 144.300239 
L 111.131187 171.78382 
L 114.954851 140.604773 
L 118.778515 114.619947 
L 122.602179 214.756364 
L 126.425842 211.519302 
L 130.249506 210.11882 
L 134.07317 175.627216 
L 137.896834 190.415596 
L 141.720497 161.490496 
L 145.544161 153.008464 
L 149.367825 142.552464 
L 153.191489 147.084165 
L 157.015152 214.372698 
L 160.838816 190.598111 
L 164.66248 211.422654 
L 172.309808 176.397441 
L 176.133471 144.881442 
L 183.780799 141.67788 
L 187.604463 142.779811 
L 191.428126 162.747389 
L 195.25179 171.330612 
L 199.075454 185.108661 
L 202.899118 133.831012 
L 206.722782 129.091377 
L 210.546445 142.768357 
L 214.370109 48.099526 
L 218.193773 170.527378 
L 222.017437 153.957662 
L 225.8411 149.02318 
L 229.664764 84.014141 
L 233.488428 157.028739 
L 237.312092 159.022524 
L 241.135755 142.551333 
L 244.959419 190.536579 
L 248.783083 101.325481 
L 252.606747 164.403548 
L 256.430411 172.039554 
L 260.254074 149.142923 
L 264.077738 162.409017 
L 267.901402 174.528811 
L 271.725066 146.867255 
L 275.548729 142.244094 
L 279.372393 126.898157 
L 283.196057 137.874424 
L 287.019721 139.669762 
L 290.843385 169.504322 
L 294.667048 145.874135 
L 298.490712 148.560076 
L 302.314376 166.583698 
L 306.13804 167.514139 
L 309.961703 149.471727 
L 313.785367 167.713897 
L 317.609031 146.463837 
L 321.432695 163.702274 
L 325.256358 138.630862 
L 329.080022 151.896632 
L 332.903686 147.457461 
L 336.72735 162.702331 
L 340.551014 156.871041 
L 344.374677 151.986154 
L 348.198341 148.595804 
L 352.022005 171.773367 
L 355.845669 110.790376 
L 359.669332 162.78496 
L 363.492996 156.463856 
L 367.31666 155.746167 
L 371.140324 166.95193 
L 374.963988 149.413571 
L 378.787651 154.743764 
L 382.611315 158.120917 
L 386.434979 164.704558 
L 390.258643 168.467351 
L 394.082306 150.246014 
L 397.90597 166.023898 
L 401.729634 156.446638 
L 405.553298 161.662695 
L 409.376962 157.185521 
L 413.200625 152.391168 
L 417.024289 170.493632 
L 420.847953 165.013565 
L 424.671617 172.663178 
L 428.49528 165.993392 
L 432.318944 165.374039 
L 436.142608 173.330516 
L 439.966272 170.167617 
L 443.789935 174.46071 
L 447.613599 173.933806 
L 451.437263 174.378937 
L 455.260927 160.221802 
L 459.084591 164.665729 
L 462.908254 156.8413 
L 466.731918 164.96148 
L 470.555582 165.64833 
L 474.379246 182.909419 
L 478.202909 172.149633 
L 482.026573 151.994944 
L 485.850237 167.128532 
L 489.673901 172.138815 
L 493.497565 174.866404 
L 497.321228 172.144849 
L 501.144892 168.07382 
L 504.968556 161.052174 
L 508.79222 150.622403 
L 512.615883 157.014648 
L 516.439547 176.775588 
L 520.263211 175.456477 
L 524.086875 165.865458 
L 527.910538 163.177764 
L 535.557866 178.053604 
L 539.38153 166.053762 
L 543.205194 174.723443 
L 547.028857 167.085061 
L 550.852521 169.648993 
L 554.676185 167.480169 
L 558.499849 168.517834 
L 562.323512 164.111008 
L 566.147176 171.878363 
L 569.97084 167.364683 
L 573.794504 172.029895 
L 577.618168 172.257846 
L 581.441831 175.85129 
L 585.265495 177.373923 
L 589.089159 184.192934 
L 592.912823 170.525211 
L 596.736486 164.978185 
L 600.56015 161.874093 
L 604.383814 170.322222 
L 608.207478 177.716548 
L 612.031142 171.107826 
L 615.854805 167.725594 
L 619.678469 168.448038 
L 623.502133 170.797322 
L 627.325797 176.456049 
L 631.14946 165.162412 
L 634.973124 178.474177 
L 638.796788 167.165271 
L 642.620452 168.867186 
L 646.444115 176.594449 
L 650.267779 174.223885 
L 654.091443 173.487839 
L 657.915107 180.638098 
L 661.738771 173.530056 
L 665.562434 176.880076 
L 669.386098 173.996894 
L 673.209762 179.392983 
L 677.033426 177.070202 
L 680.857089 171.736747 
L 684.680753 174.489715 
L 688.504417 173.432205 
L 692.328081 179.506638 
L 696.151745 181.623878 
L 699.975408 182.081293 
L 703.799072 174.56498 
L 707.622736 177.322033 
L 711.4464 173.002144 
L 715.270063 175.389631 
L 719.093727 180.278893 
L 722.917391 179.575933 
L 726.741055 180.466867 
L 730.564718 174.98962 
L 734.388382 177.086177 
L 738.212046 173.386368 
L 742.03571 174.464834 
L 745.859374 175.400026 
L 749.683037 178.113152 
L 753.506701 178.268727 
L 757.330365 175.30428 
L 761.154029 178.046613 
L 764.977692 174.597253 
L 768.801356 179.622763 
L 772.62502 175.487529 
L 776.448684 180.636547 
L 780.272348 177.181291 
L 784.096011 179.350545 
L 787.919675 177.229903 
L 791.743339 183.365257 
L 795.567003 186.262789 
L 799.390666 180.596625 
L 803.21433 177.54199 
L 807.037994 185.322466 
L 810.861658 170.852172 
L 814.685321 178.435466 
L 818.508985 182.954195 
L 822.332649 169.81979 
L 826.156313 178.483812 
L 829.979977 173.552936 
L 833.80364 175.881221 
L 837.627304 173.964806 
L 841.450968 175.494995 
L 845.274632 175.946785 
L 849.098295 177.287741 
L 849.098295 177.287741 
" style="fill:none;stroke:#ff7f0e;stroke-linecap:square;stroke-width:1.5;"/>
   </g>
   <g id="patch_3">
    <path d="M 50.14375 224.64 
L 50.14375 7.2 
" style="fill:none;stroke:#000000;stroke-linecap:square;stroke-linejoin:miter;stroke-width:0.8;"/>
   </g>
   <g id="patch_4">
    <path d="M 887.14375 224.64 
L 887.14375 7.2 
" style="fill:none;stroke:#000000;stroke-linecap:square;stroke-linejoin:miter;stroke-width:0.8;"/>
   </g>
   <g id="patch_5">
    <path d="M 50.14375 224.64 
L 887.14375 224.64 
" style="fill:none;stroke:#000000;stroke-linecap:square;stroke-linejoin:miter;stroke-width:0.8;"/>
   </g>
   <g id="patch_6">
    <path d="M 50.14375 7.2 
L 887.14375 7.2 
" style="fill:none;stroke:#000000;stroke-linecap:square;stroke-linejoin:miter;stroke-width:0.8;"/>
   </g>
   <g id="legend_1">
    <g id="patch_7">
     <path d="M 809.003125 45.1125 
L 880.14375 45.1125 
Q 882.14375 45.1125 882.14375 43.1125 
L 882.14375 14.2 
Q 882.14375 12.2 880.14375 12.2 
L 809.003125 12.2 
Q 807.003125 12.2 807.003125 14.2 
L 807.003125 43.1125 
Q 807.003125 45.1125 809.003125 45.1125 
z
" style="fill:#ffffff;opacity:0.8;stroke:#cccccc;stroke-linejoin:miter;"/>
    </g>
    <g id="line2d_19">
     <path d="M 811.003125 20.298437 
L 831.003125 20.298437 
" style="fill:none;stroke:#1f77b4;stroke-linecap:square;stroke-width:1.5;"/>
    </g>
    <g id="line2d_20"/>
    <g id="text_19">
     <!-- loss_tr -->
     <g transform="translate(839.003125 23.798437)scale(0.1 -0.1)">
      <defs>
       <path d="M 50.984375 -16.609375 
L 50.984375 -23.578125 
L -0.984375 -23.578125 
L -0.984375 -16.609375 
z
" id="DejaVuSans-95"/>
       <path d="M 18.3125 70.21875 
L 18.3125 54.6875 
L 36.8125 54.6875 
L 36.8125 47.703125 
L 18.3125 47.703125 
L 18.3125 18.015625 
Q 18.3125 11.328125 20.140625 9.421875 
Q 21.96875 7.515625 27.59375 7.515625 
L 36.8125 7.515625 
L 36.8125 0 
L 27.59375 0 
Q 17.1875 0 13.234375 3.875 
Q 9.28125 7.765625 9.28125 18.015625 
L 9.28125 47.703125 
L 2.6875 47.703125 
L 2.6875 54.6875 
L 9.28125 54.6875 
L 9.28125 70.21875 
z
" id="DejaVuSans-116"/>
       <path d="M 41.109375 46.296875 
Q 39.59375 47.171875 37.8125 47.578125 
Q 36.03125 48 33.890625 48 
Q 26.265625 48 22.1875 43.046875 
Q 18.109375 38.09375 18.109375 28.8125 
L 18.109375 0 
L 9.078125 0 
L 9.078125 54.6875 
L 18.109375 54.6875 
L 18.109375 46.1875 
Q 20.953125 51.171875 25.484375 53.578125 
Q 30.03125 56 36.53125 56 
Q 37.453125 56 38.578125 55.875 
Q 39.703125 55.765625 41.0625 55.515625 
z
" id="DejaVuSans-114"/>
      </defs>
      <use xlink:href="#DejaVuSans-108"/>
      <use x="27.783203" xlink:href="#DejaVuSans-111"/>
      <use x="88.964844" xlink:href="#DejaVuSans-115"/>
      <use x="141.064453" xlink:href="#DejaVuSans-115"/>
      <use x="193.164062" xlink:href="#DejaVuSans-95"/>
      <use x="243.164062" xlink:href="#DejaVuSans-116"/>
      <use x="282.373047" xlink:href="#DejaVuSans-114"/>
     </g>
    </g>
    <g id="line2d_21">
     <path d="M 811.003125 35.254687 
L 831.003125 35.254687 
" style="fill:none;stroke:#ff7f0e;stroke-linecap:square;stroke-width:1.5;"/>
    </g>
    <g id="line2d_22"/>
    <g id="text_20">
     <!-- loss_val -->
     <g transform="translate(839.003125 38.754687)scale(0.1 -0.1)">
      <defs>
       <path d="M 2.984375 54.6875 
L 12.5 54.6875 
L 29.59375 8.796875 
L 46.6875 54.6875 
L 56.203125 54.6875 
L 35.6875 0 
L 23.484375 0 
z
" id="DejaVuSans-118"/>
       <path d="M 34.28125 27.484375 
Q 23.390625 27.484375 19.1875 25 
Q 14.984375 22.515625 14.984375 16.5 
Q 14.984375 11.71875 18.140625 8.90625 
Q 21.296875 6.109375 26.703125 6.109375 
Q 34.1875 6.109375 38.703125 11.40625 
Q 43.21875 16.703125 43.21875 25.484375 
L 43.21875 27.484375 
z
M 52.203125 31.203125 
L 52.203125 0 
L 43.21875 0 
L 43.21875 8.296875 
Q 40.140625 3.328125 35.546875 0.953125 
Q 30.953125 -1.421875 24.3125 -1.421875 
Q 15.921875 -1.421875 10.953125 3.296875 
Q 6 8.015625 6 15.921875 
Q 6 25.140625 12.171875 29.828125 
Q 18.359375 34.515625 30.609375 34.515625 
L 43.21875 34.515625 
L 43.21875 35.40625 
Q 43.21875 41.609375 39.140625 45 
Q 35.0625 48.390625 27.6875 48.390625 
Q 23 48.390625 18.546875 47.265625 
Q 14.109375 46.140625 10.015625 43.890625 
L 10.015625 52.203125 
Q 14.9375 54.109375 19.578125 55.046875 
Q 24.21875 56 28.609375 56 
Q 40.484375 56 46.34375 49.84375 
Q 52.203125 43.703125 52.203125 31.203125 
z
" id="DejaVuSans-97"/>
      </defs>
      <use xlink:href="#DejaVuSans-108"/>
      <use x="27.783203" xlink:href="#DejaVuSans-111"/>
      <use x="88.964844" xlink:href="#DejaVuSans-115"/>
      <use x="141.064453" xlink:href="#DejaVuSans-115"/>
      <use x="193.164062" xlink:href="#DejaVuSans-95"/>
      <use x="243.164062" xlink:href="#DejaVuSans-118"/>
      <use x="302.34375" xlink:href="#DejaVuSans-97"/>
      <use x="363.623047" xlink:href="#DejaVuSans-108"/>
     </g>
    </g>
   </g>
  </g>
 </g>
 <defs>
  <clipPath id="p6db6ae55ea">
   <rect height="217.44" width="837" x="50.14375" y="7.2"/>
  </clipPath>
 </defs>
</svg>
