<?xml version="1.0" encoding="utf-8" standalone="no"?>
<!DOCTYPE svg PUBLIC "-//W3C//DTD SVG 1.1//EN"
  "http://www.w3.org/Graphics/SVG/1.1/DTD/svg11.dtd">
<!-- Created with matplotlib (https://matplotlib.org/) -->
<svg height="262.19625pt" version="1.1" viewBox="0 0 900.70625 262.19625" width="900.70625pt" xmlns="http://www.w3.org/2000/svg" xmlns:xlink="http://www.w3.org/1999/xlink">
 <metadata>
  <rdf:RDF xmlns:cc="http://creativecommons.org/ns#" xmlns:dc="http://purl.org/dc/elements/1.1/" xmlns:rdf="http://www.w3.org/1999/02/22-rdf-syntax-ns#">
   <cc:Work>
    <dc:type rdf:resource="http://purl.org/dc/dcmitype/StillImage"/>
    <dc:date>2020-12-16T15:40:13.430291</dc:date>
    <dc:format>image/svg+xml</dc:format>
    <dc:creator>
     <cc:Agent>
      <dc:title>Matplotlib v3.3.3, https://matplotlib.org/</dc:title>
     </cc:Agent>
    </dc:creator>
   </cc:Work>
  </rdf:RDF>
 </metadata>
 <defs>
  <style type="text/css">*{stroke-linecap:butt;stroke-linejoin:round;}</style>
 </defs>
 <g id="figure_1">
  <g id="patch_1">
   <path d="M 0 262.19625 
L 900.70625 262.19625 
L 900.70625 0 
L 0 0 
z
" style="fill:none;"/>
  </g>
  <g id="axes_1">
   <g id="patch_2">
    <path d="M 56.50625 224.64 
L 893.50625 224.64 
L 893.50625 7.2 
L 56.50625 7.2 
z
" style="fill:#ffffff;"/>
   </g>
   <g id="matplotlib.axis_1">
    <g id="xtick_1">
     <g id="line2d_1">
      <defs>
       <path d="M 0 0 
L 0 3.5 
" id="mdb2d6ea06f" style="stroke:#000000;stroke-width:0.8;"/>
      </defs>
      <g>
       <use style="stroke:#000000;stroke-width:0.8;" x="82.905137" xlink:href="#mdb2d6ea06f" y="224.64"/>
      </g>
     </g>
     <g id="text_1">
      <!-- 0 -->
      <g transform="translate(79.723887 239.238437)scale(0.1 -0.1)">
       <defs>
        <path d="M 31.78125 66.40625 
Q 24.171875 66.40625 20.328125 58.90625 
Q 16.5 51.421875 16.5 36.375 
Q 16.5 21.390625 20.328125 13.890625 
Q 24.171875 6.390625 31.78125 6.390625 
Q 39.453125 6.390625 43.28125 13.890625 
Q 47.125 21.390625 47.125 36.375 
Q 47.125 51.421875 43.28125 58.90625 
Q 39.453125 66.40625 31.78125 66.40625 
z
M 31.78125 74.21875 
Q 44.046875 74.21875 50.515625 64.515625 
Q 56.984375 54.828125 56.984375 36.375 
Q 56.984375 17.96875 50.515625 8.265625 
Q 44.046875 -1.421875 31.78125 -1.421875 
Q 19.53125 -1.421875 13.0625 8.265625 
Q 6.59375 17.96875 6.59375 36.375 
Q 6.59375 54.828125 13.0625 64.515625 
Q 19.53125 74.21875 31.78125 74.21875 
z
" id="DejaVuSans-48"/>
       </defs>
       <use xlink:href="#DejaVuSans-48"/>
      </g>
     </g>
    </g>
    <g id="xtick_2">
     <g id="line2d_2">
      <g>
       <use style="stroke:#000000;stroke-width:0.8;" x="179.959868" xlink:href="#mdb2d6ea06f" y="224.64"/>
      </g>
     </g>
     <g id="text_2">
      <!-- 25 -->
      <g transform="translate(173.597368 239.238437)scale(0.1 -0.1)">
       <defs>
        <path d="M 19.1875 8.296875 
L 53.609375 8.296875 
L 53.609375 0 
L 7.328125 0 
L 7.328125 8.296875 
Q 12.9375 14.109375 22.625 23.890625 
Q 32.328125 33.6875 34.8125 36.53125 
Q 39.546875 41.84375 41.421875 45.53125 
Q 43.3125 49.21875 43.3125 52.78125 
Q 43.3125 58.59375 39.234375 62.25 
Q 35.15625 65.921875 28.609375 65.921875 
Q 23.96875 65.921875 18.8125 64.3125 
Q 13.671875 62.703125 7.8125 59.421875 
L 7.8125 69.390625 
Q 13.765625 71.78125 18.9375 73 
Q 24.125 74.21875 28.421875 74.21875 
Q 39.75 74.21875 46.484375 68.546875 
Q 53.21875 62.890625 53.21875 53.421875 
Q 53.21875 48.921875 51.53125 44.890625 
Q 49.859375 40.875 45.40625 35.40625 
Q 44.1875 33.984375 37.640625 27.21875 
Q 31.109375 20.453125 19.1875 8.296875 
z
" id="DejaVuSans-50"/>
        <path d="M 10.796875 72.90625 
L 49.515625 72.90625 
L 49.515625 64.59375 
L 19.828125 64.59375 
L 19.828125 46.734375 
Q 21.96875 47.46875 24.109375 47.828125 
Q 26.265625 48.1875 28.421875 48.1875 
Q 40.625 48.1875 47.75 41.5 
Q 54.890625 34.8125 54.890625 23.390625 
Q 54.890625 11.625 47.5625 5.09375 
Q 40.234375 -1.421875 26.90625 -1.421875 
Q 22.3125 -1.421875 17.546875 -0.640625 
Q 12.796875 0.140625 7.71875 1.703125 
L 7.71875 11.625 
Q 12.109375 9.234375 16.796875 8.0625 
Q 21.484375 6.890625 26.703125 6.890625 
Q 35.15625 6.890625 40.078125 11.328125 
Q 45.015625 15.765625 45.015625 23.390625 
Q 45.015625 31 40.078125 35.4375 
Q 35.15625 39.890625 26.703125 39.890625 
Q 22.75 39.890625 18.8125 39.015625 
Q 14.890625 38.140625 10.796875 36.28125 
z
" id="DejaVuSans-53"/>
       </defs>
       <use xlink:href="#DejaVuSans-50"/>
       <use x="63.623047" xlink:href="#DejaVuSans-53"/>
      </g>
     </g>
    </g>
    <g id="xtick_3">
     <g id="line2d_3">
      <g>
       <use style="stroke:#000000;stroke-width:0.8;" x="277.014599" xlink:href="#mdb2d6ea06f" y="224.64"/>
      </g>
     </g>
     <g id="text_3">
      <!-- 50 -->
      <g transform="translate(270.652099 239.238437)scale(0.1 -0.1)">
       <use xlink:href="#DejaVuSans-53"/>
       <use x="63.623047" xlink:href="#DejaVuSans-48"/>
      </g>
     </g>
    </g>
    <g id="xtick_4">
     <g id="line2d_4">
      <g>
       <use style="stroke:#000000;stroke-width:0.8;" x="374.06933" xlink:href="#mdb2d6ea06f" y="224.64"/>
      </g>
     </g>
     <g id="text_4">
      <!-- 75 -->
      <g transform="translate(367.70683 239.238437)scale(0.1 -0.1)">
       <defs>
        <path d="M 8.203125 72.90625 
L 55.078125 72.90625 
L 55.078125 68.703125 
L 28.609375 0 
L 18.3125 0 
L 43.21875 64.59375 
L 8.203125 64.59375 
z
" id="DejaVuSans-55"/>
       </defs>
       <use xlink:href="#DejaVuSans-55"/>
       <use x="63.623047" xlink:href="#DejaVuSans-53"/>
      </g>
     </g>
    </g>
    <g id="xtick_5">
     <g id="line2d_5">
      <g>
       <use style="stroke:#000000;stroke-width:0.8;" x="471.124061" xlink:href="#mdb2d6ea06f" y="224.64"/>
      </g>
     </g>
     <g id="text_5">
      <!-- 100 -->
      <g transform="translate(461.580311 239.238437)scale(0.1 -0.1)">
       <defs>
        <path d="M 12.40625 8.296875 
L 28.515625 8.296875 
L 28.515625 63.921875 
L 10.984375 60.40625 
L 10.984375 69.390625 
L 28.421875 72.90625 
L 38.28125 72.90625 
L 38.28125 8.296875 
L 54.390625 8.296875 
L 54.390625 0 
L 12.40625 0 
z
" id="DejaVuSans-49"/>
       </defs>
       <use xlink:href="#DejaVuSans-49"/>
       <use x="63.623047" xlink:href="#DejaVuSans-48"/>
       <use x="127.246094" xlink:href="#DejaVuSans-48"/>
      </g>
     </g>
    </g>
    <g id="xtick_6">
     <g id="line2d_6">
      <g>
       <use style="stroke:#000000;stroke-width:0.8;" x="568.178792" xlink:href="#mdb2d6ea06f" y="224.64"/>
      </g>
     </g>
     <g id="text_6">
      <!-- 125 -->
      <g transform="translate(558.635042 239.238437)scale(0.1 -0.1)">
       <use xlink:href="#DejaVuSans-49"/>
       <use x="63.623047" xlink:href="#DejaVuSans-50"/>
       <use x="127.246094" xlink:href="#DejaVuSans-53"/>
      </g>
     </g>
    </g>
    <g id="xtick_7">
     <g id="line2d_7">
      <g>
       <use style="stroke:#000000;stroke-width:0.8;" x="665.233523" xlink:href="#mdb2d6ea06f" y="224.64"/>
      </g>
     </g>
     <g id="text_7">
      <!-- 150 -->
      <g transform="translate(655.689773 239.238437)scale(0.1 -0.1)">
       <use xlink:href="#DejaVuSans-49"/>
       <use x="63.623047" xlink:href="#DejaVuSans-53"/>
       <use x="127.246094" xlink:href="#DejaVuSans-48"/>
      </g>
     </g>
    </g>
    <g id="xtick_8">
     <g id="line2d_8">
      <g>
       <use style="stroke:#000000;stroke-width:0.8;" x="762.288254" xlink:href="#mdb2d6ea06f" y="224.64"/>
      </g>
     </g>
     <g id="text_8">
      <!-- 175 -->
      <g transform="translate(752.744504 239.238437)scale(0.1 -0.1)">
       <use xlink:href="#DejaVuSans-49"/>
       <use x="63.623047" xlink:href="#DejaVuSans-55"/>
       <use x="127.246094" xlink:href="#DejaVuSans-53"/>
      </g>
     </g>
    </g>
    <g id="xtick_9">
     <g id="line2d_9">
      <g>
       <use style="stroke:#000000;stroke-width:0.8;" x="859.342985" xlink:href="#mdb2d6ea06f" y="224.64"/>
      </g>
     </g>
     <g id="text_9">
      <!-- 200 -->
      <g transform="translate(849.799235 239.238437)scale(0.1 -0.1)">
       <use xlink:href="#DejaVuSans-50"/>
       <use x="63.623047" xlink:href="#DejaVuSans-48"/>
       <use x="127.246094" xlink:href="#DejaVuSans-48"/>
      </g>
     </g>
    </g>
    <g id="text_10">
     <!-- epoch -->
     <g transform="translate(459.778125 252.916562)scale(0.1 -0.1)">
      <defs>
       <path d="M 56.203125 29.59375 
L 56.203125 25.203125 
L 14.890625 25.203125 
Q 15.484375 15.921875 20.484375 11.0625 
Q 25.484375 6.203125 34.421875 6.203125 
Q 39.59375 6.203125 44.453125 7.46875 
Q 49.3125 8.734375 54.109375 11.28125 
L 54.109375 2.78125 
Q 49.265625 0.734375 44.1875 -0.34375 
Q 39.109375 -1.421875 33.890625 -1.421875 
Q 20.796875 -1.421875 13.15625 6.1875 
Q 5.515625 13.8125 5.515625 26.8125 
Q 5.515625 40.234375 12.765625 48.109375 
Q 20.015625 56 32.328125 56 
Q 43.359375 56 49.78125 48.890625 
Q 56.203125 41.796875 56.203125 29.59375 
z
M 47.21875 32.234375 
Q 47.125 39.59375 43.09375 43.984375 
Q 39.0625 48.390625 32.421875 48.390625 
Q 24.90625 48.390625 20.390625 44.140625 
Q 15.875 39.890625 15.1875 32.171875 
z
" id="DejaVuSans-101"/>
       <path d="M 18.109375 8.203125 
L 18.109375 -20.796875 
L 9.078125 -20.796875 
L 9.078125 54.6875 
L 18.109375 54.6875 
L 18.109375 46.390625 
Q 20.953125 51.265625 25.265625 53.625 
Q 29.59375 56 35.59375 56 
Q 45.5625 56 51.78125 48.09375 
Q 58.015625 40.1875 58.015625 27.296875 
Q 58.015625 14.40625 51.78125 6.484375 
Q 45.5625 -1.421875 35.59375 -1.421875 
Q 29.59375 -1.421875 25.265625 0.953125 
Q 20.953125 3.328125 18.109375 8.203125 
z
M 48.6875 27.296875 
Q 48.6875 37.203125 44.609375 42.84375 
Q 40.53125 48.484375 33.40625 48.484375 
Q 26.265625 48.484375 22.1875 42.84375 
Q 18.109375 37.203125 18.109375 27.296875 
Q 18.109375 17.390625 22.1875 11.75 
Q 26.265625 6.109375 33.40625 6.109375 
Q 40.53125 6.109375 44.609375 11.75 
Q 48.6875 17.390625 48.6875 27.296875 
z
" id="DejaVuSans-112"/>
       <path d="M 30.609375 48.390625 
Q 23.390625 48.390625 19.1875 42.75 
Q 14.984375 37.109375 14.984375 27.296875 
Q 14.984375 17.484375 19.15625 11.84375 
Q 23.34375 6.203125 30.609375 6.203125 
Q 37.796875 6.203125 41.984375 11.859375 
Q 46.1875 17.53125 46.1875 27.296875 
Q 46.1875 37.015625 41.984375 42.703125 
Q 37.796875 48.390625 30.609375 48.390625 
z
M 30.609375 56 
Q 42.328125 56 49.015625 48.375 
Q 55.71875 40.765625 55.71875 27.296875 
Q 55.71875 13.875 49.015625 6.21875 
Q 42.328125 -1.421875 30.609375 -1.421875 
Q 18.84375 -1.421875 12.171875 6.21875 
Q 5.515625 13.875 5.515625 27.296875 
Q 5.515625 40.765625 12.171875 48.375 
Q 18.84375 56 30.609375 56 
z
" id="DejaVuSans-111"/>
       <path d="M 48.78125 52.59375 
L 48.78125 44.1875 
Q 44.96875 46.296875 41.140625 47.34375 
Q 37.3125 48.390625 33.40625 48.390625 
Q 24.65625 48.390625 19.8125 42.84375 
Q 14.984375 37.3125 14.984375 27.296875 
Q 14.984375 17.28125 19.8125 11.734375 
Q 24.65625 6.203125 33.40625 6.203125 
Q 37.3125 6.203125 41.140625 7.25 
Q 44.96875 8.296875 48.78125 10.40625 
L 48.78125 2.09375 
Q 45.015625 0.34375 40.984375 -0.53125 
Q 36.96875 -1.421875 32.421875 -1.421875 
Q 20.0625 -1.421875 12.78125 6.34375 
Q 5.515625 14.109375 5.515625 27.296875 
Q 5.515625 40.671875 12.859375 48.328125 
Q 20.21875 56 33.015625 56 
Q 37.15625 56 41.109375 55.140625 
Q 45.0625 54.296875 48.78125 52.59375 
z
" id="DejaVuSans-99"/>
       <path d="M 54.890625 33.015625 
L 54.890625 0 
L 45.90625 0 
L 45.90625 32.71875 
Q 45.90625 40.484375 42.875 44.328125 
Q 39.84375 48.1875 33.796875 48.1875 
Q 26.515625 48.1875 22.3125 43.546875 
Q 18.109375 38.921875 18.109375 30.90625 
L 18.109375 0 
L 9.078125 0 
L 9.078125 75.984375 
L 18.109375 75.984375 
L 18.109375 46.1875 
Q 21.34375 51.125 25.703125 53.5625 
Q 30.078125 56 35.796875 56 
Q 45.21875 56 50.046875 50.171875 
Q 54.890625 44.34375 54.890625 33.015625 
z
" id="DejaVuSans-104"/>
      </defs>
      <use xlink:href="#DejaVuSans-101"/>
      <use x="61.523438" xlink:href="#DejaVuSans-112"/>
      <use x="125" xlink:href="#DejaVuSans-111"/>
      <use x="186.181641" xlink:href="#DejaVuSans-99"/>
      <use x="241.162109" xlink:href="#DejaVuSans-104"/>
     </g>
    </g>
   </g>
   <g id="matplotlib.axis_2">
    <g id="ytick_1">
     <g id="line2d_10">
      <defs>
       <path d="M 0 0 
L -3.5 0 
" id="m2f9959b890" style="stroke:#000000;stroke-width:0.8;"/>
      </defs>
      <g>
       <use style="stroke:#000000;stroke-width:0.8;" x="56.50625" xlink:href="#m2f9959b890" y="209.650232"/>
      </g>
     </g>
     <g id="text_11">
      <!-- 0.025 -->
      <g transform="translate(20.878125 213.44945)scale(0.1 -0.1)">
       <defs>
        <path d="M 10.6875 12.40625 
L 21 12.40625 
L 21 0 
L 10.6875 0 
z
" id="DejaVuSans-46"/>
       </defs>
       <use xlink:href="#DejaVuSans-48"/>
       <use x="63.623047" xlink:href="#DejaVuSans-46"/>
       <use x="95.410156" xlink:href="#DejaVuSans-48"/>
       <use x="159.033203" xlink:href="#DejaVuSans-50"/>
       <use x="222.65625" xlink:href="#DejaVuSans-53"/>
      </g>
     </g>
    </g>
    <g id="ytick_2">
     <g id="line2d_11">
      <g>
       <use style="stroke:#000000;stroke-width:0.8;" x="56.50625" xlink:href="#m2f9959b890" y="182.612948"/>
      </g>
     </g>
     <g id="text_12">
      <!-- 0.050 -->
      <g transform="translate(20.878125 186.412167)scale(0.1 -0.1)">
       <use xlink:href="#DejaVuSans-48"/>
       <use x="63.623047" xlink:href="#DejaVuSans-46"/>
       <use x="95.410156" xlink:href="#DejaVuSans-48"/>
       <use x="159.033203" xlink:href="#DejaVuSans-53"/>
       <use x="222.65625" xlink:href="#DejaVuSans-48"/>
      </g>
     </g>
    </g>
    <g id="ytick_3">
     <g id="line2d_12">
      <g>
       <use style="stroke:#000000;stroke-width:0.8;" x="56.50625" xlink:href="#m2f9959b890" y="155.575664"/>
      </g>
     </g>
     <g id="text_13">
      <!-- 0.075 -->
      <g transform="translate(20.878125 159.374883)scale(0.1 -0.1)">
       <use xlink:href="#DejaVuSans-48"/>
       <use x="63.623047" xlink:href="#DejaVuSans-46"/>
       <use x="95.410156" xlink:href="#DejaVuSans-48"/>
       <use x="159.033203" xlink:href="#DejaVuSans-55"/>
       <use x="222.65625" xlink:href="#DejaVuSans-53"/>
      </g>
     </g>
    </g>
    <g id="ytick_4">
     <g id="line2d_13">
      <g>
       <use style="stroke:#000000;stroke-width:0.8;" x="56.50625" xlink:href="#m2f9959b890" y="128.538381"/>
      </g>
     </g>
     <g id="text_14">
      <!-- 0.100 -->
      <g transform="translate(20.878125 132.337599)scale(0.1 -0.1)">
       <use xlink:href="#DejaVuSans-48"/>
       <use x="63.623047" xlink:href="#DejaVuSans-46"/>
       <use x="95.410156" xlink:href="#DejaVuSans-49"/>
       <use x="159.033203" xlink:href="#DejaVuSans-48"/>
       <use x="222.65625" xlink:href="#DejaVuSans-48"/>
      </g>
     </g>
    </g>
    <g id="ytick_5">
     <g id="line2d_14">
      <g>
       <use style="stroke:#000000;stroke-width:0.8;" x="56.50625" xlink:href="#m2f9959b890" y="101.501097"/>
      </g>
     </g>
     <g id="text_15">
      <!-- 0.125 -->
      <g transform="translate(20.878125 105.300316)scale(0.1 -0.1)">
       <use xlink:href="#DejaVuSans-48"/>
       <use x="63.623047" xlink:href="#DejaVuSans-46"/>
       <use x="95.410156" xlink:href="#DejaVuSans-49"/>
       <use x="159.033203" xlink:href="#DejaVuSans-50"/>
       <use x="222.65625" xlink:href="#DejaVuSans-53"/>
      </g>
     </g>
    </g>
    <g id="ytick_6">
     <g id="line2d_15">
      <g>
       <use style="stroke:#000000;stroke-width:0.8;" x="56.50625" xlink:href="#m2f9959b890" y="74.463813"/>
      </g>
     </g>
     <g id="text_16">
      <!-- 0.150 -->
      <g transform="translate(20.878125 78.263032)scale(0.1 -0.1)">
       <use xlink:href="#DejaVuSans-48"/>
       <use x="63.623047" xlink:href="#DejaVuSans-46"/>
       <use x="95.410156" xlink:href="#DejaVuSans-49"/>
       <use x="159.033203" xlink:href="#DejaVuSans-53"/>
       <use x="222.65625" xlink:href="#DejaVuSans-48"/>
      </g>
     </g>
    </g>
    <g id="ytick_7">
     <g id="line2d_16">
      <g>
       <use style="stroke:#000000;stroke-width:0.8;" x="56.50625" xlink:href="#m2f9959b890" y="47.42653"/>
      </g>
     </g>
     <g id="text_17">
      <!-- 0.175 -->
      <g transform="translate(20.878125 51.225749)scale(0.1 -0.1)">
       <use xlink:href="#DejaVuSans-48"/>
       <use x="63.623047" xlink:href="#DejaVuSans-46"/>
       <use x="95.410156" xlink:href="#DejaVuSans-49"/>
       <use x="159.033203" xlink:href="#DejaVuSans-55"/>
       <use x="222.65625" xlink:href="#DejaVuSans-53"/>
      </g>
     </g>
    </g>
    <g id="ytick_8">
     <g id="line2d_17">
      <g>
       <use style="stroke:#000000;stroke-width:0.8;" x="56.50625" xlink:href="#m2f9959b890" y="20.389246"/>
      </g>
     </g>
     <g id="text_18">
      <!-- 0.200 -->
      <g transform="translate(20.878125 24.188465)scale(0.1 -0.1)">
       <use xlink:href="#DejaVuSans-48"/>
       <use x="63.623047" xlink:href="#DejaVuSans-46"/>
       <use x="95.410156" xlink:href="#DejaVuSans-50"/>
       <use x="159.033203" xlink:href="#DejaVuSans-48"/>
       <use x="222.65625" xlink:href="#DejaVuSans-48"/>
      </g>
     </g>
    </g>
    <g id="text_19">
     <!-- loss -->
     <g transform="translate(14.798438 125.577812)rotate(-90)scale(0.1 -0.1)">
      <defs>
       <path d="M 9.421875 75.984375 
L 18.40625 75.984375 
L 18.40625 0 
L 9.421875 0 
z
" id="DejaVuSans-108"/>
       <path d="M 44.28125 53.078125 
L 44.28125 44.578125 
Q 40.484375 46.53125 36.375 47.5 
Q 32.28125 48.484375 27.875 48.484375 
Q 21.1875 48.484375 17.84375 46.4375 
Q 14.5 44.390625 14.5 40.28125 
Q 14.5 37.15625 16.890625 35.375 
Q 19.28125 33.59375 26.515625 31.984375 
L 29.59375 31.296875 
Q 39.15625 29.25 43.1875 25.515625 
Q 47.21875 21.78125 47.21875 15.09375 
Q 47.21875 7.46875 41.1875 3.015625 
Q 35.15625 -1.421875 24.609375 -1.421875 
Q 20.21875 -1.421875 15.453125 -0.5625 
Q 10.6875 0.296875 5.421875 2 
L 5.421875 11.28125 
Q 10.40625 8.6875 15.234375 7.390625 
Q 20.0625 6.109375 24.8125 6.109375 
Q 31.15625 6.109375 34.5625 8.28125 
Q 37.984375 10.453125 37.984375 14.40625 
Q 37.984375 18.0625 35.515625 20.015625 
Q 33.0625 21.96875 24.703125 23.78125 
L 21.578125 24.515625 
Q 13.234375 26.265625 9.515625 29.90625 
Q 5.8125 33.546875 5.8125 39.890625 
Q 5.8125 47.609375 11.28125 51.796875 
Q 16.75 56 26.8125 56 
Q 31.78125 56 36.171875 55.265625 
Q 40.578125 54.546875 44.28125 53.078125 
z
" id="DejaVuSans-115"/>
      </defs>
      <use xlink:href="#DejaVuSans-108"/>
      <use x="27.783203" xlink:href="#DejaVuSans-111"/>
      <use x="88.964844" xlink:href="#DejaVuSans-115"/>
      <use x="141.064453" xlink:href="#DejaVuSans-115"/>
     </g>
    </g>
   </g>
   <g id="line2d_18">
    <path clip-path="url(#p480cdcfa9b)" d="M 94.551705 67.062259 
L 98.433894 76.792074 
L 102.316083 93.838252 
L 106.198272 91.286383 
L 110.080462 98.705787 
L 113.962651 102.392025 
L 117.84484 98.035125 
L 121.727029 106.133684 
L 125.609218 113.901215 
L 129.491408 116.334813 
L 133.373597 120.495564 
L 137.255786 117.309445 
L 141.137975 123.232914 
L 145.020165 123.933994 
L 148.902354 119.174852 
L 152.784543 121.999412 
L 156.666732 128.601036 
L 160.548922 130.271526 
L 164.431111 132.674553 
L 168.3133 126.256307 
L 172.195489 136.741922 
L 176.077679 136.744541 
L 179.959868 132.667511 
L 183.842057 133.488111 
L 187.724246 138.950855 
L 191.606436 133.554885 
L 195.488625 131.306688 
L 199.370814 138.321392 
L 203.253003 139.320584 
L 207.135192 138.38384 
L 211.017382 142.688944 
L 214.899571 139.871854 
L 218.78176 140.33382 
L 222.663949 141.788436 
L 226.546139 140.174116 
L 230.428328 139.423989 
L 234.310517 147.833117 
L 238.192706 136.519851 
L 242.074896 141.20715 
L 245.957085 141.519903 
L 249.839274 143.642561 
L 253.721463 142.726816 
L 257.603653 145.695021 
L 261.485842 152.386199 
L 265.368031 147.939995 
L 269.25022 144.200971 
L 273.13241 154.399916 
L 277.014599 147.146912 
L 280.896788 146.201345 
L 284.778977 148.830851 
L 288.661167 153.112612 
L 292.543356 149.956065 
L 296.425545 149.269981 
L 300.307734 147.493669 
L 304.189923 152.746227 
L 308.072113 152.43125 
L 311.954302 153.327036 
L 315.836491 155.91548 
L 319.71868 164.070338 
L 323.60087 155.670227 
L 327.483059 155.177512 
L 331.365248 157.025442 
L 335.247437 161.714095 
L 339.129627 160.662592 
L 343.011816 160.584263 
L 346.894005 156.647518 
L 350.776194 158.63707 
L 354.658384 162.316507 
L 358.540573 161.442259 
L 362.422762 160.8222 
L 366.304951 161.44047 
L 370.187141 164.28598 
L 374.06933 163.139444 
L 377.951519 162.863475 
L 381.833708 162.090383 
L 385.715897 163.529962 
L 389.598087 166.741567 
L 393.480276 163.801411 
L 397.362465 169.295846 
L 401.244654 166.902247 
L 405.126844 163.652094 
L 409.009033 167.746174 
L 412.891222 162.719064 
L 416.773411 164.473644 
L 420.655601 168.42835 
L 424.53779 169.228238 
L 428.419979 168.442814 
L 432.302168 171.143566 
L 436.184358 172.260727 
L 440.066547 167.852407 
L 443.948736 170.980345 
L 447.830925 170.957566 
L 451.713115 169.349253 
L 455.595304 171.191804 
L 459.477493 174.380831 
L 463.359682 177.213964 
L 467.241872 173.97288 
L 471.124061 174.262999 
L 475.00625 180.909602 
L 478.888439 175.127707 
L 482.770628 177.533067 
L 486.652818 177.603471 
L 490.535007 178.597212 
L 494.417196 179.452255 
L 498.299385 175.562881 
L 502.181575 173.536827 
L 506.063764 176.592515 
L 509.945953 176.7109 
L 513.828142 178.032719 
L 517.710332 181.789724 
L 521.592521 178.453607 
L 525.47471 180.159753 
L 529.356899 183.671206 
L 533.239089 181.180527 
L 537.121278 181.231315 
L 541.003467 182.515485 
L 544.885656 185.467739 
L 548.767846 182.517926 
L 552.650035 183.653374 
L 556.532224 180.926579 
L 560.414413 183.296086 
L 564.296603 184.002416 
L 568.178792 182.822908 
L 572.060981 186.915107 
L 575.94317 184.312316 
L 579.825359 182.607089 
L 583.707549 185.602227 
L 587.589738 186.214651 
L 591.471927 186.954626 
L 595.354116 188.846353 
L 599.236306 187.115676 
L 603.118495 186.344997 
L 607.000684 187.655895 
L 610.882873 187.121812 
L 614.765063 188.69718 
L 618.647252 188.567841 
L 622.529441 189.299101 
L 626.41163 191.582451 
L 630.29382 189.150944 
L 634.176009 187.022951 
L 638.058198 189.176801 
L 641.940387 190.967746 
L 645.822577 190.32488 
L 649.704766 191.529064 
L 653.586955 192.559061 
L 657.469144 193.187947 
L 661.351333 185.457075 
L 665.233523 186.298122 
L 669.115712 190.840039 
L 672.997901 187.82945 
L 676.88009 192.870231 
L 680.76228 193.687116 
L 684.644469 193.542451 
L 688.526658 189.769432 
L 692.408847 191.661405 
L 696.291037 191.528339 
L 704.055415 195.379531 
L 707.937604 194.247246 
L 711.819794 194.343713 
L 715.701983 195.54119 
L 719.584172 196.089922 
L 723.466361 195.563493 
L 727.348551 194.866431 
L 731.23074 194.90939 
L 735.112929 194.484796 
L 738.995118 197.34089 
L 742.877308 193.904123 
L 746.759497 191.365331 
L 750.641686 194.344571 
L 754.523875 196.361399 
L 758.406064 191.575928 
L 762.288254 195.093139 
L 766.170443 193.539833 
L 770.052632 192.586937 
L 773.934821 192.378503 
L 777.817011 195.665996 
L 781.6992 191.788564 
L 785.581389 191.81986 
L 789.463578 195.424981 
L 793.345768 195.766375 
L 797.227957 198.227136 
L 801.110146 196.252905 
L 804.992335 197.336502 
L 808.874525 197.318308 
L 812.756714 199.438984 
L 816.638903 197.700063 
L 820.521092 196.858388 
L 824.403282 198.633218 
L 828.285471 198.463695 
L 832.16766 197.898606 
L 836.049849 200.109835 
L 839.932038 198.963162 
L 843.814228 200.043991 
L 847.696417 198.480927 
L 851.578606 200.917917 
L 855.460795 199.310024 
L 855.460795 199.310024 
" style="fill:none;stroke:#1f77b4;stroke-linecap:square;stroke-width:1.5;"/>
   </g>
   <g id="line2d_19">
    <path clip-path="url(#p480cdcfa9b)" d="M 94.551705 45.274859 
L 98.433894 17.083636 
L 102.316083 100.889386 
L 106.198272 64.710269 
L 110.080462 149.625021 
L 113.962651 122.534889 
L 117.84484 163.944726 
L 121.727029 156.145851 
L 125.609218 170.165482 
L 129.491408 182.606735 
L 133.373597 121.500493 
L 137.255786 178.187085 
L 141.137975 169.728494 
L 145.020165 164.18699 
L 148.902354 155.208325 
L 152.784543 184.958776 
L 156.666732 177.580257 
L 160.548922 155.944996 
L 164.431111 175.055969 
L 168.3133 172.098545 
L 172.195489 167.264764 
L 179.959868 179.789963 
L 183.842057 176.529911 
L 187.724246 175.369737 
L 191.606436 177.019724 
L 195.488625 141.98722 
L 199.370814 180.748447 
L 203.253003 177.830583 
L 207.135192 172.23155 
L 211.017382 181.264606 
L 214.899571 178.793253 
L 218.78176 183.294293 
L 222.663949 176.481842 
L 226.546139 172.900588 
L 230.428328 171.815159 
L 234.310517 178.105198 
L 238.192706 171.779233 
L 242.074896 181.049561 
L 245.957085 172.480974 
L 249.839274 179.55516 
L 253.721463 193.276425 
L 257.603653 185.138573 
L 261.485842 180.344081 
L 265.368031 171.288718 
L 269.25022 184.214112 
L 273.13241 168.841229 
L 277.014599 179.475292 
L 280.896788 174.537385 
L 284.778977 167.342651 
L 288.661167 176.047115 
L 292.543356 177.97256 
L 296.425545 165.308603 
L 300.307734 180.640993 
L 304.189923 176.335816 
L 308.072113 183.774998 
L 311.954302 181.671896 
L 315.836491 182.399397 
L 319.71868 181.023844 
L 323.60087 181.935787 
L 327.483059 180.401505 
L 331.365248 182.601469 
L 335.247437 183.920907 
L 339.129627 186.34565 
L 343.011816 178.885929 
L 346.894005 177.52229 
L 350.776194 182.710498 
L 354.658384 188.204937 
L 358.540573 184.199049 
L 362.422762 188.616595 
L 366.304951 185.971489 
L 370.187141 187.769042 
L 374.06933 175.267186 
L 377.951519 185.017372 
L 381.833708 187.688041 
L 385.715897 183.442439 
L 389.598087 186.911948 
L 393.480276 186.862735 
L 397.362465 190.409853 
L 401.244654 187.454709 
L 405.126844 183.355609 
L 409.009033 183.060788 
L 412.891222 186.826721 
L 416.773411 183.495664 
L 420.655601 186.993251 
L 424.53779 185.385651 
L 428.419979 189.863437 
L 432.302168 195.245156 
L 436.184358 195.025664 
L 440.066547 185.112111 
L 443.948736 192.028451 
L 447.830925 194.519847 
L 451.713115 192.532233 
L 455.595304 192.17901 
L 459.477493 195.337055 
L 463.359682 199.553291 
L 467.241872 194.999593 
L 471.124061 194.129289 
L 475.00625 200.561056 
L 482.770628 201.90883 
L 486.652818 194.955263 
L 490.535007 195.538539 
L 494.417196 188.144371 
L 498.299385 194.773642 
L 502.181575 194.421349 
L 506.063764 188.923143 
L 509.945953 196.228293 
L 513.828142 202.809354 
L 517.710332 200.618302 
L 521.592521 198.568845 
L 525.47471 199.504896 
L 529.356899 200.813585 
L 533.239089 199.264872 
L 537.121278 203.62213 
L 541.003467 198.850769 
L 544.885656 199.446219 
L 548.767846 203.225941 
L 552.650035 201.497591 
L 556.532224 198.97039 
L 560.414413 204.390839 
L 564.296603 203.558468 
L 568.178792 205.313685 
L 572.060981 204.674491 
L 575.94317 203.649809 
L 579.825359 201.106855 
L 583.707549 203.468727 
L 587.589738 200.74451 
L 591.471927 204.860361 
L 595.354116 208.741631 
L 599.236306 207.809245 
L 603.118495 204.013912 
L 607.000684 203.344735 
L 614.765063 202.465293 
L 618.647252 205.840091 
L 622.529441 206.037302 
L 626.41163 206.5815 
L 630.29382 209.408175 
L 634.176009 206.656947 
L 638.058198 208.029044 
L 641.940387 208.716031 
L 645.822577 209.206046 
L 649.704766 205.888867 
L 653.586955 207.391287 
L 657.469144 201.690364 
L 661.351333 197.184896 
L 665.233523 205.007046 
L 669.115712 209.377551 
L 672.997901 208.99475 
L 676.88009 209.920518 
L 680.76228 212.484208 
L 684.644469 211.997515 
L 688.526658 209.503731 
L 692.408847 209.606526 
L 696.291037 207.777456 
L 700.173226 210.296546 
L 704.055415 208.353177 
L 707.937604 209.538178 
L 711.819794 205.368965 
L 715.701983 205.44272 
L 719.584172 211.546453 
L 723.466361 206.699562 
L 727.348551 206.433592 
L 731.23074 210.819455 
L 735.112929 212.240246 
L 738.995118 212.655459 
L 742.877308 205.646087 
L 750.641686 213.248598 
L 754.523875 212.210535 
L 758.406064 208.353252 
L 762.288254 212.370401 
L 766.170443 211.990178 
L 770.052632 209.554681 
L 773.934821 208.835237 
L 777.817011 209.611187 
L 781.6992 208.815002 
L 785.581389 211.152464 
L 789.463578 208.454608 
L 793.345768 206.800525 
L 797.227957 212.26312 
L 801.110146 206.808539 
L 808.874525 210.647193 
L 812.756714 214.174383 
L 816.638903 212.129388 
L 820.521092 210.604134 
L 824.403282 211.069759 
L 828.285471 207.682461 
L 832.16766 210.983849 
L 836.049849 213.627517 
L 839.932038 212.494651 
L 843.814228 211.550246 
L 847.696417 214.756364 
L 851.578606 212.630104 
L 855.460795 213.722608 
L 855.460795 213.722608 
" style="fill:none;stroke:#ff7f0e;stroke-linecap:square;stroke-width:1.5;"/>
   </g>
   <g id="patch_3">
    <path d="M 56.50625 224.64 
L 56.50625 7.2 
" style="fill:none;stroke:#000000;stroke-linecap:square;stroke-linejoin:miter;stroke-width:0.8;"/>
   </g>
   <g id="patch_4">
    <path d="M 893.50625 224.64 
L 893.50625 7.2 
" style="fill:none;stroke:#000000;stroke-linecap:square;stroke-linejoin:miter;stroke-width:0.8;"/>
   </g>
   <g id="patch_5">
    <path d="M 56.50625 224.64 
L 893.50625 224.64 
" style="fill:none;stroke:#000000;stroke-linecap:square;stroke-linejoin:miter;stroke-width:0.8;"/>
   </g>
   <g id="patch_6">
    <path d="M 56.50625 7.2 
L 893.50625 7.2 
" style="fill:none;stroke:#000000;stroke-linecap:square;stroke-linejoin:miter;stroke-width:0.8;"/>
   </g>
   <g id="legend_1">
    <g id="patch_7">
     <path d="M 815.365625 45.1125 
L 886.50625 45.1125 
Q 888.50625 45.1125 888.50625 43.1125 
L 888.50625 14.2 
Q 888.50625 12.2 886.50625 12.2 
L 815.365625 12.2 
Q 813.365625 12.2 813.365625 14.2 
L 813.365625 43.1125 
Q 813.365625 45.1125 815.365625 45.1125 
z
" style="fill:#ffffff;opacity:0.8;stroke:#cccccc;stroke-linejoin:miter;"/>
    </g>
    <g id="line2d_20">
     <path d="M 817.365625 20.298437 
L 837.365625 20.298437 
" style="fill:none;stroke:#1f77b4;stroke-linecap:square;stroke-width:1.5;"/>
    </g>
    <g id="line2d_21"/>
    <g id="text_20">
     <!-- loss_tr -->
     <g transform="translate(845.365625 23.798437)scale(0.1 -0.1)">
      <defs>
       <path d="M 50.984375 -16.609375 
L 50.984375 -23.578125 
L -0.984375 -23.578125 
L -0.984375 -16.609375 
z
" id="DejaVuSans-95"/>
       <path d="M 18.3125 70.21875 
L 18.3125 54.6875 
L 36.8125 54.6875 
L 36.8125 47.703125 
L 18.3125 47.703125 
L 18.3125 18.015625 
Q 18.3125 11.328125 20.140625 9.421875 
Q 21.96875 7.515625 27.59375 7.515625 
L 36.8125 7.515625 
L 36.8125 0 
L 27.59375 0 
Q 17.1875 0 13.234375 3.875 
Q 9.28125 7.765625 9.28125 18.015625 
L 9.28125 47.703125 
L 2.6875 47.703125 
L 2.6875 54.6875 
L 9.28125 54.6875 
L 9.28125 70.21875 
z
" id="DejaVuSans-116"/>
       <path d="M 41.109375 46.296875 
Q 39.59375 47.171875 37.8125 47.578125 
Q 36.03125 48 33.890625 48 
Q 26.265625 48 22.1875 43.046875 
Q 18.109375 38.09375 18.109375 28.8125 
L 18.109375 0 
L 9.078125 0 
L 9.078125 54.6875 
L 18.109375 54.6875 
L 18.109375 46.1875 
Q 20.953125 51.171875 25.484375 53.578125 
Q 30.03125 56 36.53125 56 
Q 37.453125 56 38.578125 55.875 
Q 39.703125 55.765625 41.0625 55.515625 
z
" id="DejaVuSans-114"/>
      </defs>
      <use xlink:href="#DejaVuSans-108"/>
      <use x="27.783203" xlink:href="#DejaVuSans-111"/>
      <use x="88.964844" xlink:href="#DejaVuSans-115"/>
      <use x="141.064453" xlink:href="#DejaVuSans-115"/>
      <use x="193.164062" xlink:href="#DejaVuSans-95"/>
      <use x="243.164062" xlink:href="#DejaVuSans-116"/>
      <use x="282.373047" xlink:href="#DejaVuSans-114"/>
     </g>
    </g>
    <g id="line2d_22">
     <path d="M 817.365625 35.254687 
L 837.365625 35.254687 
" style="fill:none;stroke:#ff7f0e;stroke-linecap:square;stroke-width:1.5;"/>
    </g>
    <g id="line2d_23"/>
    <g id="text_21">
     <!-- loss_val -->
     <g transform="translate(845.365625 38.754687)scale(0.1 -0.1)">
      <defs>
       <path d="M 2.984375 54.6875 
L 12.5 54.6875 
L 29.59375 8.796875 
L 46.6875 54.6875 
L 56.203125 54.6875 
L 35.6875 0 
L 23.484375 0 
z
" id="DejaVuSans-118"/>
       <path d="M 34.28125 27.484375 
Q 23.390625 27.484375 19.1875 25 
Q 14.984375 22.515625 14.984375 16.5 
Q 14.984375 11.71875 18.140625 8.90625 
Q 21.296875 6.109375 26.703125 6.109375 
Q 34.1875 6.109375 38.703125 11.40625 
Q 43.21875 16.703125 43.21875 25.484375 
L 43.21875 27.484375 
z
M 52.203125 31.203125 
L 52.203125 0 
L 43.21875 0 
L 43.21875 8.296875 
Q 40.140625 3.328125 35.546875 0.953125 
Q 30.953125 -1.421875 24.3125 -1.421875 
Q 15.921875 -1.421875 10.953125 3.296875 
Q 6 8.015625 6 15.921875 
Q 6 25.140625 12.171875 29.828125 
Q 18.359375 34.515625 30.609375 34.515625 
L 43.21875 34.515625 
L 43.21875 35.40625 
Q 43.21875 41.609375 39.140625 45 
Q 35.0625 48.390625 27.6875 48.390625 
Q 23 48.390625 18.546875 47.265625 
Q 14.109375 46.140625 10.015625 43.890625 
L 10.015625 52.203125 
Q 14.9375 54.109375 19.578125 55.046875 
Q 24.21875 56 28.609375 56 
Q 40.484375 56 46.34375 49.84375 
Q 52.203125 43.703125 52.203125 31.203125 
z
" id="DejaVuSans-97"/>
      </defs>
      <use xlink:href="#DejaVuSans-108"/>
      <use x="27.783203" xlink:href="#DejaVuSans-111"/>
      <use x="88.964844" xlink:href="#DejaVuSans-115"/>
      <use x="141.064453" xlink:href="#DejaVuSans-115"/>
      <use x="193.164062" xlink:href="#DejaVuSans-95"/>
      <use x="243.164062" xlink:href="#DejaVuSans-118"/>
      <use x="302.34375" xlink:href="#DejaVuSans-97"/>
      <use x="363.623047" xlink:href="#DejaVuSans-108"/>
     </g>
    </g>
   </g>
  </g>
 </g>
 <defs>
  <clipPath id="p480cdcfa9b">
   <rect height="217.44" width="837" x="56.50625" y="7.2"/>
  </clipPath>
 </defs>
</svg>
