<?xml version="1.0" encoding="utf-8" standalone="no"?>
<!DOCTYPE svg PUBLIC "-//W3C//DTD SVG 1.1//EN"
  "http://www.w3.org/Graphics/SVG/1.1/DTD/svg11.dtd">
<!-- Created with matplotlib (https://matplotlib.org/) -->
<svg height="262.19625pt" version="1.1" viewBox="0 0 887.98125 262.19625" width="887.98125pt" xmlns="http://www.w3.org/2000/svg" xmlns:xlink="http://www.w3.org/1999/xlink">
 <metadata>
  <rdf:RDF xmlns:cc="http://creativecommons.org/ns#" xmlns:dc="http://purl.org/dc/elements/1.1/" xmlns:rdf="http://www.w3.org/1999/02/22-rdf-syntax-ns#">
   <cc:Work>
    <dc:type rdf:resource="http://purl.org/dc/dcmitype/StillImage"/>
    <dc:date>2020-12-16T15:40:11.135136</dc:date>
    <dc:format>image/svg+xml</dc:format>
    <dc:creator>
     <cc:Agent>
      <dc:title>Matplotlib v3.3.3, https://matplotlib.org/</dc:title>
     </cc:Agent>
    </dc:creator>
   </cc:Work>
  </rdf:RDF>
 </metadata>
 <defs>
  <style type="text/css">*{stroke-linecap:butt;stroke-linejoin:round;}</style>
 </defs>
 <g id="figure_1">
  <g id="patch_1">
   <path d="M 0 262.19625 
L 887.98125 262.19625 
L 887.98125 0 
L 0 0 
z
" style="fill:none;"/>
  </g>
  <g id="axes_1">
   <g id="patch_2">
    <path d="M 43.78125 224.64 
L 880.78125 224.64 
L 880.78125 7.2 
L 43.78125 7.2 
z
" style="fill:#ffffff;"/>
   </g>
   <g id="matplotlib.axis_1">
    <g id="xtick_1">
     <g id="line2d_1">
      <defs>
       <path d="M 0 0 
L 0 3.5 
" id="m9425c45d84" style="stroke:#000000;stroke-width:0.8;"/>
      </defs>
      <g>
       <use style="stroke:#000000;stroke-width:0.8;" x="81.826705" xlink:href="#m9425c45d84" y="224.64"/>
      </g>
     </g>
     <g id="text_1">
      <!-- 0 -->
      <g transform="translate(78.645455 239.238437)scale(0.1 -0.1)">
       <defs>
        <path d="M 31.78125 66.40625 
Q 24.171875 66.40625 20.328125 58.90625 
Q 16.5 51.421875 16.5 36.375 
Q 16.5 21.390625 20.328125 13.890625 
Q 24.171875 6.390625 31.78125 6.390625 
Q 39.453125 6.390625 43.28125 13.890625 
Q 47.125 21.390625 47.125 36.375 
Q 47.125 51.421875 43.28125 58.90625 
Q 39.453125 66.40625 31.78125 66.40625 
z
M 31.78125 74.21875 
Q 44.046875 74.21875 50.515625 64.515625 
Q 56.984375 54.828125 56.984375 36.375 
Q 56.984375 17.96875 50.515625 8.265625 
Q 44.046875 -1.421875 31.78125 -1.421875 
Q 19.53125 -1.421875 13.0625 8.265625 
Q 6.59375 17.96875 6.59375 36.375 
Q 6.59375 54.828125 13.0625 64.515625 
Q 19.53125 74.21875 31.78125 74.21875 
z
" id="DejaVuSans-48"/>
       </defs>
       <use xlink:href="#DejaVuSans-48"/>
      </g>
     </g>
    </g>
    <g id="xtick_2">
     <g id="line2d_2">
      <g>
       <use style="stroke:#000000;stroke-width:0.8;" x="178.388772" xlink:href="#m9425c45d84" y="224.64"/>
      </g>
     </g>
     <g id="text_2">
      <!-- 25 -->
      <g transform="translate(172.026272 239.238437)scale(0.1 -0.1)">
       <defs>
        <path d="M 19.1875 8.296875 
L 53.609375 8.296875 
L 53.609375 0 
L 7.328125 0 
L 7.328125 8.296875 
Q 12.9375 14.109375 22.625 23.890625 
Q 32.328125 33.6875 34.8125 36.53125 
Q 39.546875 41.84375 41.421875 45.53125 
Q 43.3125 49.21875 43.3125 52.78125 
Q 43.3125 58.59375 39.234375 62.25 
Q 35.15625 65.921875 28.609375 65.921875 
Q 23.96875 65.921875 18.8125 64.3125 
Q 13.671875 62.703125 7.8125 59.421875 
L 7.8125 69.390625 
Q 13.765625 71.78125 18.9375 73 
Q 24.125 74.21875 28.421875 74.21875 
Q 39.75 74.21875 46.484375 68.546875 
Q 53.21875 62.890625 53.21875 53.421875 
Q 53.21875 48.921875 51.53125 44.890625 
Q 49.859375 40.875 45.40625 35.40625 
Q 44.1875 33.984375 37.640625 27.21875 
Q 31.109375 20.453125 19.1875 8.296875 
z
" id="DejaVuSans-50"/>
        <path d="M 10.796875 72.90625 
L 49.515625 72.90625 
L 49.515625 64.59375 
L 19.828125 64.59375 
L 19.828125 46.734375 
Q 21.96875 47.46875 24.109375 47.828125 
Q 26.265625 48.1875 28.421875 48.1875 
Q 40.625 48.1875 47.75 41.5 
Q 54.890625 34.8125 54.890625 23.390625 
Q 54.890625 11.625 47.5625 5.09375 
Q 40.234375 -1.421875 26.90625 -1.421875 
Q 22.3125 -1.421875 17.546875 -0.640625 
Q 12.796875 0.140625 7.71875 1.703125 
L 7.71875 11.625 
Q 12.109375 9.234375 16.796875 8.0625 
Q 21.484375 6.890625 26.703125 6.890625 
Q 35.15625 6.890625 40.078125 11.328125 
Q 45.015625 15.765625 45.015625 23.390625 
Q 45.015625 31 40.078125 35.4375 
Q 35.15625 39.890625 26.703125 39.890625 
Q 22.75 39.890625 18.8125 39.015625 
Q 14.890625 38.140625 10.796875 36.28125 
z
" id="DejaVuSans-53"/>
       </defs>
       <use xlink:href="#DejaVuSans-50"/>
       <use x="63.623047" xlink:href="#DejaVuSans-53"/>
      </g>
     </g>
    </g>
    <g id="xtick_3">
     <g id="line2d_3">
      <g>
       <use style="stroke:#000000;stroke-width:0.8;" x="274.950839" xlink:href="#m9425c45d84" y="224.64"/>
      </g>
     </g>
     <g id="text_3">
      <!-- 50 -->
      <g transform="translate(268.588339 239.238437)scale(0.1 -0.1)">
       <use xlink:href="#DejaVuSans-53"/>
       <use x="63.623047" xlink:href="#DejaVuSans-48"/>
      </g>
     </g>
    </g>
    <g id="xtick_4">
     <g id="line2d_4">
      <g>
       <use style="stroke:#000000;stroke-width:0.8;" x="371.512907" xlink:href="#m9425c45d84" y="224.64"/>
      </g>
     </g>
     <g id="text_4">
      <!-- 75 -->
      <g transform="translate(365.150407 239.238437)scale(0.1 -0.1)">
       <defs>
        <path d="M 8.203125 72.90625 
L 55.078125 72.90625 
L 55.078125 68.703125 
L 28.609375 0 
L 18.3125 0 
L 43.21875 64.59375 
L 8.203125 64.59375 
z
" id="DejaVuSans-55"/>
       </defs>
       <use xlink:href="#DejaVuSans-55"/>
       <use x="63.623047" xlink:href="#DejaVuSans-53"/>
      </g>
     </g>
    </g>
    <g id="xtick_5">
     <g id="line2d_5">
      <g>
       <use style="stroke:#000000;stroke-width:0.8;" x="468.074974" xlink:href="#m9425c45d84" y="224.64"/>
      </g>
     </g>
     <g id="text_5">
      <!-- 100 -->
      <g transform="translate(458.531224 239.238437)scale(0.1 -0.1)">
       <defs>
        <path d="M 12.40625 8.296875 
L 28.515625 8.296875 
L 28.515625 63.921875 
L 10.984375 60.40625 
L 10.984375 69.390625 
L 28.421875 72.90625 
L 38.28125 72.90625 
L 38.28125 8.296875 
L 54.390625 8.296875 
L 54.390625 0 
L 12.40625 0 
z
" id="DejaVuSans-49"/>
       </defs>
       <use xlink:href="#DejaVuSans-49"/>
       <use x="63.623047" xlink:href="#DejaVuSans-48"/>
       <use x="127.246094" xlink:href="#DejaVuSans-48"/>
      </g>
     </g>
    </g>
    <g id="xtick_6">
     <g id="line2d_6">
      <g>
       <use style="stroke:#000000;stroke-width:0.8;" x="564.637041" xlink:href="#m9425c45d84" y="224.64"/>
      </g>
     </g>
     <g id="text_6">
      <!-- 125 -->
      <g transform="translate(555.093291 239.238437)scale(0.1 -0.1)">
       <use xlink:href="#DejaVuSans-49"/>
       <use x="63.623047" xlink:href="#DejaVuSans-50"/>
       <use x="127.246094" xlink:href="#DejaVuSans-53"/>
      </g>
     </g>
    </g>
    <g id="xtick_7">
     <g id="line2d_7">
      <g>
       <use style="stroke:#000000;stroke-width:0.8;" x="661.199109" xlink:href="#m9425c45d84" y="224.64"/>
      </g>
     </g>
     <g id="text_7">
      <!-- 150 -->
      <g transform="translate(651.655359 239.238437)scale(0.1 -0.1)">
       <use xlink:href="#DejaVuSans-49"/>
       <use x="63.623047" xlink:href="#DejaVuSans-53"/>
       <use x="127.246094" xlink:href="#DejaVuSans-48"/>
      </g>
     </g>
    </g>
    <g id="xtick_8">
     <g id="line2d_8">
      <g>
       <use style="stroke:#000000;stroke-width:0.8;" x="757.761176" xlink:href="#m9425c45d84" y="224.64"/>
      </g>
     </g>
     <g id="text_8">
      <!-- 175 -->
      <g transform="translate(748.217426 239.238437)scale(0.1 -0.1)">
       <use xlink:href="#DejaVuSans-49"/>
       <use x="63.623047" xlink:href="#DejaVuSans-55"/>
       <use x="127.246094" xlink:href="#DejaVuSans-53"/>
      </g>
     </g>
    </g>
    <g id="xtick_9">
     <g id="line2d_9">
      <g>
       <use style="stroke:#000000;stroke-width:0.8;" x="854.323244" xlink:href="#m9425c45d84" y="224.64"/>
      </g>
     </g>
     <g id="text_9">
      <!-- 200 -->
      <g transform="translate(844.779494 239.238437)scale(0.1 -0.1)">
       <use xlink:href="#DejaVuSans-50"/>
       <use x="63.623047" xlink:href="#DejaVuSans-48"/>
       <use x="127.246094" xlink:href="#DejaVuSans-48"/>
      </g>
     </g>
    </g>
    <g id="text_10">
     <!-- epoch -->
     <g transform="translate(447.053125 252.916562)scale(0.1 -0.1)">
      <defs>
       <path d="M 56.203125 29.59375 
L 56.203125 25.203125 
L 14.890625 25.203125 
Q 15.484375 15.921875 20.484375 11.0625 
Q 25.484375 6.203125 34.421875 6.203125 
Q 39.59375 6.203125 44.453125 7.46875 
Q 49.3125 8.734375 54.109375 11.28125 
L 54.109375 2.78125 
Q 49.265625 0.734375 44.1875 -0.34375 
Q 39.109375 -1.421875 33.890625 -1.421875 
Q 20.796875 -1.421875 13.15625 6.1875 
Q 5.515625 13.8125 5.515625 26.8125 
Q 5.515625 40.234375 12.765625 48.109375 
Q 20.015625 56 32.328125 56 
Q 43.359375 56 49.78125 48.890625 
Q 56.203125 41.796875 56.203125 29.59375 
z
M 47.21875 32.234375 
Q 47.125 39.59375 43.09375 43.984375 
Q 39.0625 48.390625 32.421875 48.390625 
Q 24.90625 48.390625 20.390625 44.140625 
Q 15.875 39.890625 15.1875 32.171875 
z
" id="DejaVuSans-101"/>
       <path d="M 18.109375 8.203125 
L 18.109375 -20.796875 
L 9.078125 -20.796875 
L 9.078125 54.6875 
L 18.109375 54.6875 
L 18.109375 46.390625 
Q 20.953125 51.265625 25.265625 53.625 
Q 29.59375 56 35.59375 56 
Q 45.5625 56 51.78125 48.09375 
Q 58.015625 40.1875 58.015625 27.296875 
Q 58.015625 14.40625 51.78125 6.484375 
Q 45.5625 -1.421875 35.59375 -1.421875 
Q 29.59375 -1.421875 25.265625 0.953125 
Q 20.953125 3.328125 18.109375 8.203125 
z
M 48.6875 27.296875 
Q 48.6875 37.203125 44.609375 42.84375 
Q 40.53125 48.484375 33.40625 48.484375 
Q 26.265625 48.484375 22.1875 42.84375 
Q 18.109375 37.203125 18.109375 27.296875 
Q 18.109375 17.390625 22.1875 11.75 
Q 26.265625 6.109375 33.40625 6.109375 
Q 40.53125 6.109375 44.609375 11.75 
Q 48.6875 17.390625 48.6875 27.296875 
z
" id="DejaVuSans-112"/>
       <path d="M 30.609375 48.390625 
Q 23.390625 48.390625 19.1875 42.75 
Q 14.984375 37.109375 14.984375 27.296875 
Q 14.984375 17.484375 19.15625 11.84375 
Q 23.34375 6.203125 30.609375 6.203125 
Q 37.796875 6.203125 41.984375 11.859375 
Q 46.1875 17.53125 46.1875 27.296875 
Q 46.1875 37.015625 41.984375 42.703125 
Q 37.796875 48.390625 30.609375 48.390625 
z
M 30.609375 56 
Q 42.328125 56 49.015625 48.375 
Q 55.71875 40.765625 55.71875 27.296875 
Q 55.71875 13.875 49.015625 6.21875 
Q 42.328125 -1.421875 30.609375 -1.421875 
Q 18.84375 -1.421875 12.171875 6.21875 
Q 5.515625 13.875 5.515625 27.296875 
Q 5.515625 40.765625 12.171875 48.375 
Q 18.84375 56 30.609375 56 
z
" id="DejaVuSans-111"/>
       <path d="M 48.78125 52.59375 
L 48.78125 44.1875 
Q 44.96875 46.296875 41.140625 47.34375 
Q 37.3125 48.390625 33.40625 48.390625 
Q 24.65625 48.390625 19.8125 42.84375 
Q 14.984375 37.3125 14.984375 27.296875 
Q 14.984375 17.28125 19.8125 11.734375 
Q 24.65625 6.203125 33.40625 6.203125 
Q 37.3125 6.203125 41.140625 7.25 
Q 44.96875 8.296875 48.78125 10.40625 
L 48.78125 2.09375 
Q 45.015625 0.34375 40.984375 -0.53125 
Q 36.96875 -1.421875 32.421875 -1.421875 
Q 20.0625 -1.421875 12.78125 6.34375 
Q 5.515625 14.109375 5.515625 27.296875 
Q 5.515625 40.671875 12.859375 48.328125 
Q 20.21875 56 33.015625 56 
Q 37.15625 56 41.109375 55.140625 
Q 45.0625 54.296875 48.78125 52.59375 
z
" id="DejaVuSans-99"/>
       <path d="M 54.890625 33.015625 
L 54.890625 0 
L 45.90625 0 
L 45.90625 32.71875 
Q 45.90625 40.484375 42.875 44.328125 
Q 39.84375 48.1875 33.796875 48.1875 
Q 26.515625 48.1875 22.3125 43.546875 
Q 18.109375 38.921875 18.109375 30.90625 
L 18.109375 0 
L 9.078125 0 
L 9.078125 75.984375 
L 18.109375 75.984375 
L 18.109375 46.1875 
Q 21.34375 51.125 25.703125 53.5625 
Q 30.078125 56 35.796875 56 
Q 45.21875 56 50.046875 50.171875 
Q 54.890625 44.34375 54.890625 33.015625 
z
" id="DejaVuSans-104"/>
      </defs>
      <use xlink:href="#DejaVuSans-101"/>
      <use x="61.523438" xlink:href="#DejaVuSans-112"/>
      <use x="125" xlink:href="#DejaVuSans-111"/>
      <use x="186.181641" xlink:href="#DejaVuSans-99"/>
      <use x="241.162109" xlink:href="#DejaVuSans-104"/>
     </g>
    </g>
   </g>
   <g id="matplotlib.axis_2">
    <g id="ytick_1">
     <g id="line2d_10">
      <defs>
       <path d="M 0 0 
L -3.5 0 
" id="m36248284a8" style="stroke:#000000;stroke-width:0.8;"/>
      </defs>
      <g>
       <use style="stroke:#000000;stroke-width:0.8;" x="43.78125" xlink:href="#m36248284a8" y="199.971682"/>
      </g>
     </g>
     <g id="text_11">
      <!-- 0.2 -->
      <g transform="translate(20.878125 203.770901)scale(0.1 -0.1)">
       <defs>
        <path d="M 10.6875 12.40625 
L 21 12.40625 
L 21 0 
L 10.6875 0 
z
" id="DejaVuSans-46"/>
       </defs>
       <use xlink:href="#DejaVuSans-48"/>
       <use x="63.623047" xlink:href="#DejaVuSans-46"/>
       <use x="95.410156" xlink:href="#DejaVuSans-50"/>
      </g>
     </g>
    </g>
    <g id="ytick_2">
     <g id="line2d_11">
      <g>
       <use style="stroke:#000000;stroke-width:0.8;" x="43.78125" xlink:href="#m36248284a8" y="164.4156"/>
      </g>
     </g>
     <g id="text_12">
      <!-- 0.3 -->
      <g transform="translate(20.878125 168.214819)scale(0.1 -0.1)">
       <defs>
        <path d="M 40.578125 39.3125 
Q 47.65625 37.796875 51.625 33 
Q 55.609375 28.21875 55.609375 21.1875 
Q 55.609375 10.40625 48.1875 4.484375 
Q 40.765625 -1.421875 27.09375 -1.421875 
Q 22.515625 -1.421875 17.65625 -0.515625 
Q 12.796875 0.390625 7.625 2.203125 
L 7.625 11.71875 
Q 11.71875 9.328125 16.59375 8.109375 
Q 21.484375 6.890625 26.8125 6.890625 
Q 36.078125 6.890625 40.9375 10.546875 
Q 45.796875 14.203125 45.796875 21.1875 
Q 45.796875 27.640625 41.28125 31.265625 
Q 36.765625 34.90625 28.71875 34.90625 
L 20.21875 34.90625 
L 20.21875 43.015625 
L 29.109375 43.015625 
Q 36.375 43.015625 40.234375 45.921875 
Q 44.09375 48.828125 44.09375 54.296875 
Q 44.09375 59.90625 40.109375 62.90625 
Q 36.140625 65.921875 28.71875 65.921875 
Q 24.65625 65.921875 20.015625 65.03125 
Q 15.375 64.15625 9.8125 62.3125 
L 9.8125 71.09375 
Q 15.4375 72.65625 20.34375 73.4375 
Q 25.25 74.21875 29.59375 74.21875 
Q 40.828125 74.21875 47.359375 69.109375 
Q 53.90625 64.015625 53.90625 55.328125 
Q 53.90625 49.265625 50.4375 45.09375 
Q 46.96875 40.921875 40.578125 39.3125 
z
" id="DejaVuSans-51"/>
       </defs>
       <use xlink:href="#DejaVuSans-48"/>
       <use x="63.623047" xlink:href="#DejaVuSans-46"/>
       <use x="95.410156" xlink:href="#DejaVuSans-51"/>
      </g>
     </g>
    </g>
    <g id="ytick_3">
     <g id="line2d_12">
      <g>
       <use style="stroke:#000000;stroke-width:0.8;" x="43.78125" xlink:href="#m36248284a8" y="128.859517"/>
      </g>
     </g>
     <g id="text_13">
      <!-- 0.4 -->
      <g transform="translate(20.878125 132.658736)scale(0.1 -0.1)">
       <defs>
        <path d="M 37.796875 64.3125 
L 12.890625 25.390625 
L 37.796875 25.390625 
z
M 35.203125 72.90625 
L 47.609375 72.90625 
L 47.609375 25.390625 
L 58.015625 25.390625 
L 58.015625 17.1875 
L 47.609375 17.1875 
L 47.609375 0 
L 37.796875 0 
L 37.796875 17.1875 
L 4.890625 17.1875 
L 4.890625 26.703125 
z
" id="DejaVuSans-52"/>
       </defs>
       <use xlink:href="#DejaVuSans-48"/>
       <use x="63.623047" xlink:href="#DejaVuSans-46"/>
       <use x="95.410156" xlink:href="#DejaVuSans-52"/>
      </g>
     </g>
    </g>
    <g id="ytick_4">
     <g id="line2d_13">
      <g>
       <use style="stroke:#000000;stroke-width:0.8;" x="43.78125" xlink:href="#m36248284a8" y="93.303435"/>
      </g>
     </g>
     <g id="text_14">
      <!-- 0.5 -->
      <g transform="translate(20.878125 97.102653)scale(0.1 -0.1)">
       <use xlink:href="#DejaVuSans-48"/>
       <use x="63.623047" xlink:href="#DejaVuSans-46"/>
       <use x="95.410156" xlink:href="#DejaVuSans-53"/>
      </g>
     </g>
    </g>
    <g id="ytick_5">
     <g id="line2d_14">
      <g>
       <use style="stroke:#000000;stroke-width:0.8;" x="43.78125" xlink:href="#m36248284a8" y="57.747352"/>
      </g>
     </g>
     <g id="text_15">
      <!-- 0.6 -->
      <g transform="translate(20.878125 61.546571)scale(0.1 -0.1)">
       <defs>
        <path d="M 33.015625 40.375 
Q 26.375 40.375 22.484375 35.828125 
Q 18.609375 31.296875 18.609375 23.390625 
Q 18.609375 15.53125 22.484375 10.953125 
Q 26.375 6.390625 33.015625 6.390625 
Q 39.65625 6.390625 43.53125 10.953125 
Q 47.40625 15.53125 47.40625 23.390625 
Q 47.40625 31.296875 43.53125 35.828125 
Q 39.65625 40.375 33.015625 40.375 
z
M 52.59375 71.296875 
L 52.59375 62.3125 
Q 48.875 64.0625 45.09375 64.984375 
Q 41.3125 65.921875 37.59375 65.921875 
Q 27.828125 65.921875 22.671875 59.328125 
Q 17.53125 52.734375 16.796875 39.40625 
Q 19.671875 43.65625 24.015625 45.921875 
Q 28.375 48.1875 33.59375 48.1875 
Q 44.578125 48.1875 50.953125 41.515625 
Q 57.328125 34.859375 57.328125 23.390625 
Q 57.328125 12.15625 50.6875 5.359375 
Q 44.046875 -1.421875 33.015625 -1.421875 
Q 20.359375 -1.421875 13.671875 8.265625 
Q 6.984375 17.96875 6.984375 36.375 
Q 6.984375 53.65625 15.1875 63.9375 
Q 23.390625 74.21875 37.203125 74.21875 
Q 40.921875 74.21875 44.703125 73.484375 
Q 48.484375 72.75 52.59375 71.296875 
z
" id="DejaVuSans-54"/>
       </defs>
       <use xlink:href="#DejaVuSans-48"/>
       <use x="63.623047" xlink:href="#DejaVuSans-46"/>
       <use x="95.410156" xlink:href="#DejaVuSans-54"/>
      </g>
     </g>
    </g>
    <g id="ytick_6">
     <g id="line2d_15">
      <g>
       <use style="stroke:#000000;stroke-width:0.8;" x="43.78125" xlink:href="#m36248284a8" y="22.19127"/>
      </g>
     </g>
     <g id="text_16">
      <!-- 0.7 -->
      <g transform="translate(20.878125 25.990488)scale(0.1 -0.1)">
       <use xlink:href="#DejaVuSans-48"/>
       <use x="63.623047" xlink:href="#DejaVuSans-46"/>
       <use x="95.410156" xlink:href="#DejaVuSans-55"/>
      </g>
     </g>
    </g>
    <g id="text_17">
     <!-- loss -->
     <g transform="translate(14.798438 125.577812)rotate(-90)scale(0.1 -0.1)">
      <defs>
       <path d="M 9.421875 75.984375 
L 18.40625 75.984375 
L 18.40625 0 
L 9.421875 0 
z
" id="DejaVuSans-108"/>
       <path d="M 44.28125 53.078125 
L 44.28125 44.578125 
Q 40.484375 46.53125 36.375 47.5 
Q 32.28125 48.484375 27.875 48.484375 
Q 21.1875 48.484375 17.84375 46.4375 
Q 14.5 44.390625 14.5 40.28125 
Q 14.5 37.15625 16.890625 35.375 
Q 19.28125 33.59375 26.515625 31.984375 
L 29.59375 31.296875 
Q 39.15625 29.25 43.1875 25.515625 
Q 47.21875 21.78125 47.21875 15.09375 
Q 47.21875 7.46875 41.1875 3.015625 
Q 35.15625 -1.421875 24.609375 -1.421875 
Q 20.21875 -1.421875 15.453125 -0.5625 
Q 10.6875 0.296875 5.421875 2 
L 5.421875 11.28125 
Q 10.40625 8.6875 15.234375 7.390625 
Q 20.0625 6.109375 24.8125 6.109375 
Q 31.15625 6.109375 34.5625 8.28125 
Q 37.984375 10.453125 37.984375 14.40625 
Q 37.984375 18.0625 35.515625 20.015625 
Q 33.0625 21.96875 24.703125 23.78125 
L 21.578125 24.515625 
Q 13.234375 26.265625 9.515625 29.90625 
Q 5.8125 33.546875 5.8125 39.890625 
Q 5.8125 47.609375 11.28125 51.796875 
Q 16.75 56 26.8125 56 
Q 31.78125 56 36.171875 55.265625 
Q 40.578125 54.546875 44.28125 53.078125 
z
" id="DejaVuSans-115"/>
      </defs>
      <use xlink:href="#DejaVuSans-108"/>
      <use x="27.783203" xlink:href="#DejaVuSans-111"/>
      <use x="88.964844" xlink:href="#DejaVuSans-115"/>
      <use x="141.064453" xlink:href="#DejaVuSans-115"/>
     </g>
    </g>
   </g>
   <g id="line2d_16">
    <path clip-path="url(#p941c6ac535)" d="M 81.826705 75.254902 
L 85.689187 93.317719 
L 89.55167 96.859114 
L 93.414153 99.640059 
L 97.276635 100.607893 
L 101.139118 100.169737 
L 105.001601 106.677506 
L 112.726566 109.652336 
L 116.589049 111.640172 
L 120.451531 112.071896 
L 124.314014 114.474661 
L 128.176497 115.330904 
L 132.03898 115.676118 
L 135.901462 115.6495 
L 139.763945 117.032062 
L 143.626428 118.776157 
L 147.48891 119.96388 
L 151.351393 121.403377 
L 155.213876 121.639945 
L 159.076358 121.690353 
L 162.938841 121.881896 
L 166.801324 123.527549 
L 170.663807 124.855189 
L 174.526289 125.021534 
L 178.388772 125.706897 
L 182.251255 126.207297 
L 186.113737 125.899224 
L 189.97622 127.111468 
L 193.838703 127.813796 
L 197.701185 128.655892 
L 201.563668 129.33051 
L 205.426151 129.456916 
L 209.288633 131.128149 
L 213.151116 130.450289 
L 217.013599 131.068819 
L 220.876082 132.613487 
L 224.738564 132.136389 
L 228.601047 132.331768 
L 232.46353 133.223466 
L 236.326012 134.509812 
L 240.188495 134.179189 
L 244.050978 135.027495 
L 247.91346 135.522629 
L 251.775943 135.754704 
L 255.638426 137.230198 
L 259.500909 138.458951 
L 263.363391 138.873551 
L 267.225874 139.407437 
L 271.088357 140.369782 
L 274.950839 140.511458 
L 278.813322 141.38758 
L 282.675805 141.494753 
L 286.538287 140.323624 
L 290.40077 140.924659 
L 298.125735 144.981311 
L 301.988218 145.231993 
L 305.850701 146.941353 
L 309.713184 146.364594 
L 313.575666 146.50521 
L 317.438149 146.474533 
L 321.300632 147.905394 
L 325.163114 146.24569 
L 329.025597 149.573936 
L 332.88808 150.206379 
L 336.750562 150.70412 
L 340.613045 151.962077 
L 344.475528 151.834135 
L 348.33801 151.261424 
L 352.200493 152.845352 
L 356.062976 152.704386 
L 359.925459 152.318556 
L 363.787941 151.577836 
L 367.650424 153.494294 
L 371.512907 153.617734 
L 375.375389 155.869773 
L 379.237872 157.377131 
L 383.100355 157.894295 
L 386.962837 158.821503 
L 390.82532 159.620895 
L 394.687803 161.491852 
L 398.550286 161.059884 
L 402.412768 159.149476 
L 406.275251 160.99249 
L 410.137734 163.005355 
L 414.000216 165.228615 
L 417.862699 165.860794 
L 421.725182 165.924479 
L 425.587664 167.565226 
L 429.450147 168.480777 
L 433.31263 169.72302 
L 437.175112 169.024539 
L 441.037595 169.55426 
L 444.900078 168.632234 
L 448.762561 168.086194 
L 452.625043 169.001841 
L 456.487526 168.392794 
L 460.350009 170.493791 
L 464.212491 173.375138 
L 468.074974 174.707134 
L 471.937457 175.061842 
L 475.799939 174.129633 
L 479.662422 176.710536 
L 483.524905 177.53162 
L 487.387388 178.738703 
L 495.112353 180.201725 
L 498.974836 181.510164 
L 502.837318 182.547051 
L 506.699801 182.89083 
L 510.562284 183.591563 
L 514.424766 184.055956 
L 518.287249 184.82358 
L 522.149732 184.843486 
L 526.012214 184.17611 
L 529.874697 184.856397 
L 533.73718 184.184625 
L 537.599663 185.330163 
L 541.462145 185.895192 
L 549.187111 188.591879 
L 553.049593 189.266354 
L 556.912076 189.727377 
L 560.774559 190.669235 
L 564.637041 191.233781 
L 568.499524 192.033369 
L 572.362007 192.093489 
L 580.086972 193.003731 
L 583.949455 193.740064 
L 587.811938 194.320886 
L 591.67442 195.062989 
L 599.399386 195.87507 
L 603.261868 194.946723 
L 607.124351 195.546196 
L 610.986834 196.635801 
L 614.849316 197.134135 
L 618.711799 196.403641 
L 622.574282 196.18122 
L 626.436765 194.575283 
L 630.299247 194.464152 
L 634.16173 196.454134 
L 638.024213 197.665424 
L 645.749178 199.039091 
L 649.611661 200.123609 
L 653.474143 200.687488 
L 657.336626 201.551938 
L 661.199109 201.951597 
L 668.924074 203.040608 
L 676.64904 203.502808 
L 680.511522 203.868887 
L 684.374005 204.441423 
L 688.236488 204.876877 
L 692.09897 205.058995 
L 695.961453 205.464392 
L 699.823936 205.583237 
L 703.686418 206.080972 
L 707.548901 206.380717 
L 711.411384 206.34489 
L 715.273867 206.938508 
L 722.998832 207.540084 
L 730.723797 208.338523 
L 734.58628 208.513948 
L 738.448763 209.047749 
L 742.311245 209.184142 
L 753.898693 210.09394 
L 761.623659 210.397488 
L 765.486142 209.872822 
L 769.348624 210.12334 
L 780.936072 211.53687 
L 784.798555 211.794276 
L 796.386003 212.814389 
L 804.110969 213.095097 
L 807.973451 213.447829 
L 811.835934 213.627244 
L 815.698417 214.09274 
L 819.560899 214.382973 
L 823.423382 214.505183 
L 827.285865 214.756364 
L 831.148347 214.743971 
L 835.01083 214.595005 
L 842.735795 213.976496 
L 842.735795 213.976496 
" style="fill:none;stroke:#1f77b4;stroke-linecap:square;stroke-width:1.5;"/>
   </g>
   <g id="line2d_17">
    <path clip-path="url(#p941c6ac535)" d="M 81.826705 32.637235 
L 85.689187 50.492551 
L 89.55167 87.963754 
L 93.414153 110.506226 
L 97.276635 41.095202 
L 101.139118 110.984988 
L 105.001601 108.514024 
L 108.864083 48.958045 
L 112.726566 126.429708 
L 116.589049 98.756562 
L 120.451531 124.709942 
L 124.314014 141.275299 
L 128.176497 127.02021 
L 132.03898 110.862969 
L 135.901462 65.558963 
L 139.763945 111.447527 
L 143.626428 121.300845 
L 147.48891 129.020477 
L 151.351393 119.161076 
L 155.213876 108.427037 
L 159.076358 52.57884 
L 162.938841 128.406121 
L 166.801324 136.912492 
L 170.663807 127.304314 
L 174.526289 133.123053 
L 178.388772 131.687721 
L 182.251255 141.200593 
L 186.113737 96.6228 
L 189.97622 129.027862 
L 193.838703 152.083111 
L 197.701185 134.736525 
L 201.563668 139.931902 
L 205.426151 143.814611 
L 209.288633 138.198848 
L 213.151116 154.82772 
L 217.013599 145.430647 
L 220.876082 113.660572 
L 224.738564 127.374325 
L 228.601047 126.674731 
L 232.46353 150.787006 
L 236.326012 106.096476 
L 240.188495 88.94991 
L 244.050978 128.819958 
L 247.91346 145.750556 
L 251.775943 146.844479 
L 255.638426 157.122253 
L 259.500909 149.352415 
L 263.363391 156.906899 
L 267.225874 148.890279 
L 271.088357 144.69707 
L 274.950839 150.609811 
L 278.813322 117.571489 
L 282.675805 138.607069 
L 286.538287 158.706212 
L 290.40077 157.35686 
L 294.263253 141.787536 
L 298.125735 152.068212 
L 301.988218 152.324903 
L 305.850701 138.934163 
L 309.713184 149.399506 
L 313.575666 146.017165 
L 317.438149 150.57338 
L 321.300632 92.251983 
L 325.163114 126.776395 
L 329.025597 149.875608 
L 332.88808 142.438449 
L 336.750562 142.872367 
L 340.613045 145.198212 
L 344.475528 141.484729 
L 348.33801 150.421108 
L 352.200493 134.489117 
L 356.062976 157.346571 
L 359.925459 17.083636 
L 363.787941 147.716108 
L 367.650424 121.565441 
L 371.512907 144.068568 
L 375.375389 147.383144 
L 379.237872 144.8962 
L 383.100355 139.358576 
L 386.962837 142.519089 
L 390.82532 162.409819 
L 394.687803 147.89182 
L 398.550286 144.455871 
L 402.412768 142.782996 
L 406.275251 151.243388 
L 410.137734 156.524915 
L 414.000216 161.475268 
L 417.862699 159.623152 
L 421.725182 161.111892 
L 425.587664 170.511148 
L 429.450147 162.770218 
L 433.31263 158.206278 
L 437.175112 151.144576 
L 441.037595 160.728265 
L 444.900078 164.429117 
L 448.762561 158.798805 
L 452.625043 146.108433 
L 456.487526 141.695261 
L 460.350009 168.683648 
L 464.212491 170.309125 
L 468.074974 167.85146 
L 471.937457 140.975417 
L 475.799939 159.707363 
L 479.662422 164.502635 
L 483.524905 169.880453 
L 487.387388 171.491476 
L 491.24987 173.594656 
L 495.112353 176.81735 
L 498.974836 173.500538 
L 502.837318 175.010566 
L 506.699801 175.117506 
L 510.562284 174.652572 
L 514.424766 177.671992 
L 518.287249 183.099423 
L 522.149732 181.165438 
L 526.012214 172.811243 
L 529.874697 180.487959 
L 533.73718 178.162326 
L 537.599663 182.082515 
L 541.462145 184.159055 
L 545.324628 184.699097 
L 549.187111 179.552782 
L 553.049593 179.358876 
L 556.912076 180.045659 
L 560.774559 182.307559 
L 564.637041 175.870231 
L 568.499524 182.712675 
L 572.362007 184.426077 
L 576.22449 182.316783 
L 580.086972 192.793199 
L 583.949455 190.799895 
L 587.811938 187.886949 
L 591.67442 192.962818 
L 595.536903 187.195175 
L 599.399386 186.645215 
L 603.261868 183.988499 
L 607.124351 184.499077 
L 610.986834 186.214762 
L 614.849316 179.787898 
L 618.711799 185.041726 
L 622.574282 185.997936 
L 626.436765 177.945446 
L 630.299247 185.400821 
L 634.16173 183.228955 
L 638.024213 191.997431 
L 641.886695 188.942084 
L 645.749178 191.431459 
L 649.611661 194.123235 
L 653.474143 185.037948 
L 657.336626 188.213492 
L 661.199109 185.053869 
L 665.061591 187.432019 
L 668.924074 192.429955 
L 672.786557 194.059491 
L 676.64904 190.212338 
L 680.511522 189.074228 
L 684.374005 177.950024 
L 688.236488 176.717 
L 692.09897 177.269101 
L 695.961453 179.927391 
L 699.823936 182.82627 
L 703.686418 188.264408 
L 707.548901 188.582903 
L 711.411384 184.686387 
L 715.273867 184.942224 
L 719.136349 188.01096 
L 722.998832 186.011659 
L 726.861315 181.54331 
L 730.723797 179.035428 
L 734.58628 185.808867 
L 738.448763 191.57144 
L 742.311245 186.505415 
L 746.173728 182.734838 
L 750.036211 180.164446 
L 753.898693 182.579005 
L 757.761176 187.997376 
L 761.623659 178.589366 
L 765.486142 193.509472 
L 769.348624 189.835388 
L 773.211107 186.322063 
L 777.07359 188.608134 
L 780.936072 188.402026 
L 784.798555 189.497649 
L 788.661038 188.343946 
L 792.52352 191.367631 
L 796.386003 188.657964 
L 800.248486 176.133046 
L 804.110969 174.907059 
L 807.973451 184.414305 
L 811.835934 179.840478 
L 815.698417 182.624242 
L 819.560899 186.325772 
L 823.423382 194.017343 
L 827.285865 188.653958 
L 831.148347 181.913055 
L 835.01083 180.064267 
L 838.873313 173.23981 
L 842.735795 187.000936 
L 842.735795 187.000936 
" style="fill:none;stroke:#ff7f0e;stroke-linecap:square;stroke-width:1.5;"/>
   </g>
   <g id="patch_3">
    <path d="M 43.78125 224.64 
L 43.78125 7.2 
" style="fill:none;stroke:#000000;stroke-linecap:square;stroke-linejoin:miter;stroke-width:0.8;"/>
   </g>
   <g id="patch_4">
    <path d="M 880.78125 224.64 
L 880.78125 7.2 
" style="fill:none;stroke:#000000;stroke-linecap:square;stroke-linejoin:miter;stroke-width:0.8;"/>
   </g>
   <g id="patch_5">
    <path d="M 43.78125 224.64 
L 880.78125 224.64 
" style="fill:none;stroke:#000000;stroke-linecap:square;stroke-linejoin:miter;stroke-width:0.8;"/>
   </g>
   <g id="patch_6">
    <path d="M 43.78125 7.2 
L 880.78125 7.2 
" style="fill:none;stroke:#000000;stroke-linecap:square;stroke-linejoin:miter;stroke-width:0.8;"/>
   </g>
   <g id="legend_1">
    <g id="patch_7">
     <path d="M 802.640625 45.1125 
L 873.78125 45.1125 
Q 875.78125 45.1125 875.78125 43.1125 
L 875.78125 14.2 
Q 875.78125 12.2 873.78125 12.2 
L 802.640625 12.2 
Q 800.640625 12.2 800.640625 14.2 
L 800.640625 43.1125 
Q 800.640625 45.1125 802.640625 45.1125 
z
" style="fill:#ffffff;opacity:0.8;stroke:#cccccc;stroke-linejoin:miter;"/>
    </g>
    <g id="line2d_18">
     <path d="M 804.640625 20.298437 
L 824.640625 20.298437 
" style="fill:none;stroke:#1f77b4;stroke-linecap:square;stroke-width:1.5;"/>
    </g>
    <g id="line2d_19"/>
    <g id="text_18">
     <!-- loss_tr -->
     <g transform="translate(832.640625 23.798437)scale(0.1 -0.1)">
      <defs>
       <path d="M 50.984375 -16.609375 
L 50.984375 -23.578125 
L -0.984375 -23.578125 
L -0.984375 -16.609375 
z
" id="DejaVuSans-95"/>
       <path d="M 18.3125 70.21875 
L 18.3125 54.6875 
L 36.8125 54.6875 
L 36.8125 47.703125 
L 18.3125 47.703125 
L 18.3125 18.015625 
Q 18.3125 11.328125 20.140625 9.421875 
Q 21.96875 7.515625 27.59375 7.515625 
L 36.8125 7.515625 
L 36.8125 0 
L 27.59375 0 
Q 17.1875 0 13.234375 3.875 
Q 9.28125 7.765625 9.28125 18.015625 
L 9.28125 47.703125 
L 2.6875 47.703125 
L 2.6875 54.6875 
L 9.28125 54.6875 
L 9.28125 70.21875 
z
" id="DejaVuSans-116"/>
       <path d="M 41.109375 46.296875 
Q 39.59375 47.171875 37.8125 47.578125 
Q 36.03125 48 33.890625 48 
Q 26.265625 48 22.1875 43.046875 
Q 18.109375 38.09375 18.109375 28.8125 
L 18.109375 0 
L 9.078125 0 
L 9.078125 54.6875 
L 18.109375 54.6875 
L 18.109375 46.1875 
Q 20.953125 51.171875 25.484375 53.578125 
Q 30.03125 56 36.53125 56 
Q 37.453125 56 38.578125 55.875 
Q 39.703125 55.765625 41.0625 55.515625 
z
" id="DejaVuSans-114"/>
      </defs>
      <use xlink:href="#DejaVuSans-108"/>
      <use x="27.783203" xlink:href="#DejaVuSans-111"/>
      <use x="88.964844" xlink:href="#DejaVuSans-115"/>
      <use x="141.064453" xlink:href="#DejaVuSans-115"/>
      <use x="193.164062" xlink:href="#DejaVuSans-95"/>
      <use x="243.164062" xlink:href="#DejaVuSans-116"/>
      <use x="282.373047" xlink:href="#DejaVuSans-114"/>
     </g>
    </g>
    <g id="line2d_20">
     <path d="M 804.640625 35.254687 
L 824.640625 35.254687 
" style="fill:none;stroke:#ff7f0e;stroke-linecap:square;stroke-width:1.5;"/>
    </g>
    <g id="line2d_21"/>
    <g id="text_19">
     <!-- loss_val -->
     <g transform="translate(832.640625 38.754687)scale(0.1 -0.1)">
      <defs>
       <path d="M 2.984375 54.6875 
L 12.5 54.6875 
L 29.59375 8.796875 
L 46.6875 54.6875 
L 56.203125 54.6875 
L 35.6875 0 
L 23.484375 0 
z
" id="DejaVuSans-118"/>
       <path d="M 34.28125 27.484375 
Q 23.390625 27.484375 19.1875 25 
Q 14.984375 22.515625 14.984375 16.5 
Q 14.984375 11.71875 18.140625 8.90625 
Q 21.296875 6.109375 26.703125 6.109375 
Q 34.1875 6.109375 38.703125 11.40625 
Q 43.21875 16.703125 43.21875 25.484375 
L 43.21875 27.484375 
z
M 52.203125 31.203125 
L 52.203125 0 
L 43.21875 0 
L 43.21875 8.296875 
Q 40.140625 3.328125 35.546875 0.953125 
Q 30.953125 -1.421875 24.3125 -1.421875 
Q 15.921875 -1.421875 10.953125 3.296875 
Q 6 8.015625 6 15.921875 
Q 6 25.140625 12.171875 29.828125 
Q 18.359375 34.515625 30.609375 34.515625 
L 43.21875 34.515625 
L 43.21875 35.40625 
Q 43.21875 41.609375 39.140625 45 
Q 35.0625 48.390625 27.6875 48.390625 
Q 23 48.390625 18.546875 47.265625 
Q 14.109375 46.140625 10.015625 43.890625 
L 10.015625 52.203125 
Q 14.9375 54.109375 19.578125 55.046875 
Q 24.21875 56 28.609375 56 
Q 40.484375 56 46.34375 49.84375 
Q 52.203125 43.703125 52.203125 31.203125 
z
" id="DejaVuSans-97"/>
      </defs>
      <use xlink:href="#DejaVuSans-108"/>
      <use x="27.783203" xlink:href="#DejaVuSans-111"/>
      <use x="88.964844" xlink:href="#DejaVuSans-115"/>
      <use x="141.064453" xlink:href="#DejaVuSans-115"/>
      <use x="193.164062" xlink:href="#DejaVuSans-95"/>
      <use x="243.164062" xlink:href="#DejaVuSans-118"/>
      <use x="302.34375" xlink:href="#DejaVuSans-97"/>
      <use x="363.623047" xlink:href="#DejaVuSans-108"/>
     </g>
    </g>
   </g>
  </g>
 </g>
 <defs>
  <clipPath id="p941c6ac535">
   <rect height="217.44" width="837" x="43.78125" y="7.2"/>
  </clipPath>
 </defs>
</svg>
