<?xml version="1.0" encoding="utf-8" standalone="no"?>
<!DOCTYPE svg PUBLIC "-//W3C//DTD SVG 1.1//EN"
  "http://www.w3.org/Graphics/SVG/1.1/DTD/svg11.dtd">
<!-- Created with matplotlib (https://matplotlib.org/) -->
<svg height="262.19625pt" version="1.1" viewBox="0 0 887.98125 262.19625" width="887.98125pt" xmlns="http://www.w3.org/2000/svg" xmlns:xlink="http://www.w3.org/1999/xlink">
 <metadata>
  <rdf:RDF xmlns:cc="http://creativecommons.org/ns#" xmlns:dc="http://purl.org/dc/elements/1.1/" xmlns:rdf="http://www.w3.org/1999/02/22-rdf-syntax-ns#">
   <cc:Work>
    <dc:type rdf:resource="http://purl.org/dc/dcmitype/StillImage"/>
    <dc:date>2020-12-16T15:40:14.245866</dc:date>
    <dc:format>image/svg+xml</dc:format>
    <dc:creator>
     <cc:Agent>
      <dc:title>Matplotlib v3.3.3, https://matplotlib.org/</dc:title>
     </cc:Agent>
    </dc:creator>
   </cc:Work>
  </rdf:RDF>
 </metadata>
 <defs>
  <style type="text/css">*{stroke-linecap:butt;stroke-linejoin:round;}</style>
 </defs>
 <g id="figure_1">
  <g id="patch_1">
   <path d="M 0 262.19625 
L 887.98125 262.19625 
L 887.98125 0 
L 0 0 
z
" style="fill:none;"/>
  </g>
  <g id="axes_1">
   <g id="patch_2">
    <path d="M 43.78125 224.64 
L 880.78125 224.64 
L 880.78125 7.2 
L 43.78125 7.2 
z
" style="fill:#ffffff;"/>
   </g>
   <g id="matplotlib.axis_1">
    <g id="xtick_1">
     <g id="line2d_1">
      <defs>
       <path d="M 0 0 
L 0 3.5 
" id="m5821ed7246" style="stroke:#000000;stroke-width:0.8;"/>
      </defs>
      <g>
       <use style="stroke:#000000;stroke-width:0.8;" x="81.826705" xlink:href="#m5821ed7246" y="224.64"/>
      </g>
     </g>
     <g id="text_1">
      <!-- 0 -->
      <g transform="translate(78.645455 239.238437)scale(0.1 -0.1)">
       <defs>
        <path d="M 31.78125 66.40625 
Q 24.171875 66.40625 20.328125 58.90625 
Q 16.5 51.421875 16.5 36.375 
Q 16.5 21.390625 20.328125 13.890625 
Q 24.171875 6.390625 31.78125 6.390625 
Q 39.453125 6.390625 43.28125 13.890625 
Q 47.125 21.390625 47.125 36.375 
Q 47.125 51.421875 43.28125 58.90625 
Q 39.453125 66.40625 31.78125 66.40625 
z
M 31.78125 74.21875 
Q 44.046875 74.21875 50.515625 64.515625 
Q 56.984375 54.828125 56.984375 36.375 
Q 56.984375 17.96875 50.515625 8.265625 
Q 44.046875 -1.421875 31.78125 -1.421875 
Q 19.53125 -1.421875 13.0625 8.265625 
Q 6.59375 17.96875 6.59375 36.375 
Q 6.59375 54.828125 13.0625 64.515625 
Q 19.53125 74.21875 31.78125 74.21875 
z
" id="DejaVuSans-48"/>
       </defs>
       <use xlink:href="#DejaVuSans-48"/>
      </g>
     </g>
    </g>
    <g id="xtick_2">
     <g id="line2d_2">
      <g>
       <use style="stroke:#000000;stroke-width:0.8;" x="177.418299" xlink:href="#m5821ed7246" y="224.64"/>
      </g>
     </g>
     <g id="text_2">
      <!-- 25 -->
      <g transform="translate(171.055799 239.238437)scale(0.1 -0.1)">
       <defs>
        <path d="M 19.1875 8.296875 
L 53.609375 8.296875 
L 53.609375 0 
L 7.328125 0 
L 7.328125 8.296875 
Q 12.9375 14.109375 22.625 23.890625 
Q 32.328125 33.6875 34.8125 36.53125 
Q 39.546875 41.84375 41.421875 45.53125 
Q 43.3125 49.21875 43.3125 52.78125 
Q 43.3125 58.59375 39.234375 62.25 
Q 35.15625 65.921875 28.609375 65.921875 
Q 23.96875 65.921875 18.8125 64.3125 
Q 13.671875 62.703125 7.8125 59.421875 
L 7.8125 69.390625 
Q 13.765625 71.78125 18.9375 73 
Q 24.125 74.21875 28.421875 74.21875 
Q 39.75 74.21875 46.484375 68.546875 
Q 53.21875 62.890625 53.21875 53.421875 
Q 53.21875 48.921875 51.53125 44.890625 
Q 49.859375 40.875 45.40625 35.40625 
Q 44.1875 33.984375 37.640625 27.21875 
Q 31.109375 20.453125 19.1875 8.296875 
z
" id="DejaVuSans-50"/>
        <path d="M 10.796875 72.90625 
L 49.515625 72.90625 
L 49.515625 64.59375 
L 19.828125 64.59375 
L 19.828125 46.734375 
Q 21.96875 47.46875 24.109375 47.828125 
Q 26.265625 48.1875 28.421875 48.1875 
Q 40.625 48.1875 47.75 41.5 
Q 54.890625 34.8125 54.890625 23.390625 
Q 54.890625 11.625 47.5625 5.09375 
Q 40.234375 -1.421875 26.90625 -1.421875 
Q 22.3125 -1.421875 17.546875 -0.640625 
Q 12.796875 0.140625 7.71875 1.703125 
L 7.71875 11.625 
Q 12.109375 9.234375 16.796875 8.0625 
Q 21.484375 6.890625 26.703125 6.890625 
Q 35.15625 6.890625 40.078125 11.328125 
Q 45.015625 15.765625 45.015625 23.390625 
Q 45.015625 31 40.078125 35.4375 
Q 35.15625 39.890625 26.703125 39.890625 
Q 22.75 39.890625 18.8125 39.015625 
Q 14.890625 38.140625 10.796875 36.28125 
z
" id="DejaVuSans-53"/>
       </defs>
       <use xlink:href="#DejaVuSans-50"/>
       <use x="63.623047" xlink:href="#DejaVuSans-53"/>
      </g>
     </g>
    </g>
    <g id="xtick_3">
     <g id="line2d_3">
      <g>
       <use style="stroke:#000000;stroke-width:0.8;" x="273.009893" xlink:href="#m5821ed7246" y="224.64"/>
      </g>
     </g>
     <g id="text_3">
      <!-- 50 -->
      <g transform="translate(266.647393 239.238437)scale(0.1 -0.1)">
       <use xlink:href="#DejaVuSans-53"/>
       <use x="63.623047" xlink:href="#DejaVuSans-48"/>
      </g>
     </g>
    </g>
    <g id="xtick_4">
     <g id="line2d_4">
      <g>
       <use style="stroke:#000000;stroke-width:0.8;" x="368.601488" xlink:href="#m5821ed7246" y="224.64"/>
      </g>
     </g>
     <g id="text_4">
      <!-- 75 -->
      <g transform="translate(362.238988 239.238437)scale(0.1 -0.1)">
       <defs>
        <path d="M 8.203125 72.90625 
L 55.078125 72.90625 
L 55.078125 68.703125 
L 28.609375 0 
L 18.3125 0 
L 43.21875 64.59375 
L 8.203125 64.59375 
z
" id="DejaVuSans-55"/>
       </defs>
       <use xlink:href="#DejaVuSans-55"/>
       <use x="63.623047" xlink:href="#DejaVuSans-53"/>
      </g>
     </g>
    </g>
    <g id="xtick_5">
     <g id="line2d_5">
      <g>
       <use style="stroke:#000000;stroke-width:0.8;" x="464.193082" xlink:href="#m5821ed7246" y="224.64"/>
      </g>
     </g>
     <g id="text_5">
      <!-- 100 -->
      <g transform="translate(454.649332 239.238437)scale(0.1 -0.1)">
       <defs>
        <path d="M 12.40625 8.296875 
L 28.515625 8.296875 
L 28.515625 63.921875 
L 10.984375 60.40625 
L 10.984375 69.390625 
L 28.421875 72.90625 
L 38.28125 72.90625 
L 38.28125 8.296875 
L 54.390625 8.296875 
L 54.390625 0 
L 12.40625 0 
z
" id="DejaVuSans-49"/>
       </defs>
       <use xlink:href="#DejaVuSans-49"/>
       <use x="63.623047" xlink:href="#DejaVuSans-48"/>
       <use x="127.246094" xlink:href="#DejaVuSans-48"/>
      </g>
     </g>
    </g>
    <g id="xtick_6">
     <g id="line2d_6">
      <g>
       <use style="stroke:#000000;stroke-width:0.8;" x="559.784676" xlink:href="#m5821ed7246" y="224.64"/>
      </g>
     </g>
     <g id="text_6">
      <!-- 125 -->
      <g transform="translate(550.240926 239.238437)scale(0.1 -0.1)">
       <use xlink:href="#DejaVuSans-49"/>
       <use x="63.623047" xlink:href="#DejaVuSans-50"/>
       <use x="127.246094" xlink:href="#DejaVuSans-53"/>
      </g>
     </g>
    </g>
    <g id="xtick_7">
     <g id="line2d_7">
      <g>
       <use style="stroke:#000000;stroke-width:0.8;" x="655.376271" xlink:href="#m5821ed7246" y="224.64"/>
      </g>
     </g>
     <g id="text_7">
      <!-- 150 -->
      <g transform="translate(645.832521 239.238437)scale(0.1 -0.1)">
       <use xlink:href="#DejaVuSans-49"/>
       <use x="63.623047" xlink:href="#DejaVuSans-53"/>
       <use x="127.246094" xlink:href="#DejaVuSans-48"/>
      </g>
     </g>
    </g>
    <g id="xtick_8">
     <g id="line2d_8">
      <g>
       <use style="stroke:#000000;stroke-width:0.8;" x="750.967865" xlink:href="#m5821ed7246" y="224.64"/>
      </g>
     </g>
     <g id="text_8">
      <!-- 175 -->
      <g transform="translate(741.424115 239.238437)scale(0.1 -0.1)">
       <use xlink:href="#DejaVuSans-49"/>
       <use x="63.623047" xlink:href="#DejaVuSans-55"/>
       <use x="127.246094" xlink:href="#DejaVuSans-53"/>
      </g>
     </g>
    </g>
    <g id="xtick_9">
     <g id="line2d_9">
      <g>
       <use style="stroke:#000000;stroke-width:0.8;" x="846.559459" xlink:href="#m5821ed7246" y="224.64"/>
      </g>
     </g>
     <g id="text_9">
      <!-- 200 -->
      <g transform="translate(837.015709 239.238437)scale(0.1 -0.1)">
       <use xlink:href="#DejaVuSans-50"/>
       <use x="63.623047" xlink:href="#DejaVuSans-48"/>
       <use x="127.246094" xlink:href="#DejaVuSans-48"/>
      </g>
     </g>
    </g>
    <g id="text_10">
     <!-- epoch -->
     <g transform="translate(447.053125 252.916562)scale(0.1 -0.1)">
      <defs>
       <path d="M 56.203125 29.59375 
L 56.203125 25.203125 
L 14.890625 25.203125 
Q 15.484375 15.921875 20.484375 11.0625 
Q 25.484375 6.203125 34.421875 6.203125 
Q 39.59375 6.203125 44.453125 7.46875 
Q 49.3125 8.734375 54.109375 11.28125 
L 54.109375 2.78125 
Q 49.265625 0.734375 44.1875 -0.34375 
Q 39.109375 -1.421875 33.890625 -1.421875 
Q 20.796875 -1.421875 13.15625 6.1875 
Q 5.515625 13.8125 5.515625 26.8125 
Q 5.515625 40.234375 12.765625 48.109375 
Q 20.015625 56 32.328125 56 
Q 43.359375 56 49.78125 48.890625 
Q 56.203125 41.796875 56.203125 29.59375 
z
M 47.21875 32.234375 
Q 47.125 39.59375 43.09375 43.984375 
Q 39.0625 48.390625 32.421875 48.390625 
Q 24.90625 48.390625 20.390625 44.140625 
Q 15.875 39.890625 15.1875 32.171875 
z
" id="DejaVuSans-101"/>
       <path d="M 18.109375 8.203125 
L 18.109375 -20.796875 
L 9.078125 -20.796875 
L 9.078125 54.6875 
L 18.109375 54.6875 
L 18.109375 46.390625 
Q 20.953125 51.265625 25.265625 53.625 
Q 29.59375 56 35.59375 56 
Q 45.5625 56 51.78125 48.09375 
Q 58.015625 40.1875 58.015625 27.296875 
Q 58.015625 14.40625 51.78125 6.484375 
Q 45.5625 -1.421875 35.59375 -1.421875 
Q 29.59375 -1.421875 25.265625 0.953125 
Q 20.953125 3.328125 18.109375 8.203125 
z
M 48.6875 27.296875 
Q 48.6875 37.203125 44.609375 42.84375 
Q 40.53125 48.484375 33.40625 48.484375 
Q 26.265625 48.484375 22.1875 42.84375 
Q 18.109375 37.203125 18.109375 27.296875 
Q 18.109375 17.390625 22.1875 11.75 
Q 26.265625 6.109375 33.40625 6.109375 
Q 40.53125 6.109375 44.609375 11.75 
Q 48.6875 17.390625 48.6875 27.296875 
z
" id="DejaVuSans-112"/>
       <path d="M 30.609375 48.390625 
Q 23.390625 48.390625 19.1875 42.75 
Q 14.984375 37.109375 14.984375 27.296875 
Q 14.984375 17.484375 19.15625 11.84375 
Q 23.34375 6.203125 30.609375 6.203125 
Q 37.796875 6.203125 41.984375 11.859375 
Q 46.1875 17.53125 46.1875 27.296875 
Q 46.1875 37.015625 41.984375 42.703125 
Q 37.796875 48.390625 30.609375 48.390625 
z
M 30.609375 56 
Q 42.328125 56 49.015625 48.375 
Q 55.71875 40.765625 55.71875 27.296875 
Q 55.71875 13.875 49.015625 6.21875 
Q 42.328125 -1.421875 30.609375 -1.421875 
Q 18.84375 -1.421875 12.171875 6.21875 
Q 5.515625 13.875 5.515625 27.296875 
Q 5.515625 40.765625 12.171875 48.375 
Q 18.84375 56 30.609375 56 
z
" id="DejaVuSans-111"/>
       <path d="M 48.78125 52.59375 
L 48.78125 44.1875 
Q 44.96875 46.296875 41.140625 47.34375 
Q 37.3125 48.390625 33.40625 48.390625 
Q 24.65625 48.390625 19.8125 42.84375 
Q 14.984375 37.3125 14.984375 27.296875 
Q 14.984375 17.28125 19.8125 11.734375 
Q 24.65625 6.203125 33.40625 6.203125 
Q 37.3125 6.203125 41.140625 7.25 
Q 44.96875 8.296875 48.78125 10.40625 
L 48.78125 2.09375 
Q 45.015625 0.34375 40.984375 -0.53125 
Q 36.96875 -1.421875 32.421875 -1.421875 
Q 20.0625 -1.421875 12.78125 6.34375 
Q 5.515625 14.109375 5.515625 27.296875 
Q 5.515625 40.671875 12.859375 48.328125 
Q 20.21875 56 33.015625 56 
Q 37.15625 56 41.109375 55.140625 
Q 45.0625 54.296875 48.78125 52.59375 
z
" id="DejaVuSans-99"/>
       <path d="M 54.890625 33.015625 
L 54.890625 0 
L 45.90625 0 
L 45.90625 32.71875 
Q 45.90625 40.484375 42.875 44.328125 
Q 39.84375 48.1875 33.796875 48.1875 
Q 26.515625 48.1875 22.3125 43.546875 
Q 18.109375 38.921875 18.109375 30.90625 
L 18.109375 0 
L 9.078125 0 
L 9.078125 75.984375 
L 18.109375 75.984375 
L 18.109375 46.1875 
Q 21.34375 51.125 25.703125 53.5625 
Q 30.078125 56 35.796875 56 
Q 45.21875 56 50.046875 50.171875 
Q 54.890625 44.34375 54.890625 33.015625 
z
" id="DejaVuSans-104"/>
      </defs>
      <use xlink:href="#DejaVuSans-101"/>
      <use x="61.523438" xlink:href="#DejaVuSans-112"/>
      <use x="125" xlink:href="#DejaVuSans-111"/>
      <use x="186.181641" xlink:href="#DejaVuSans-99"/>
      <use x="241.162109" xlink:href="#DejaVuSans-104"/>
     </g>
    </g>
   </g>
   <g id="matplotlib.axis_2">
    <g id="ytick_1">
     <g id="line2d_10">
      <defs>
       <path d="M 0 0 
L -3.5 0 
" id="ma74f8a9ef5" style="stroke:#000000;stroke-width:0.8;"/>
      </defs>
      <g>
       <use style="stroke:#000000;stroke-width:0.8;" x="43.78125" xlink:href="#ma74f8a9ef5" y="199.428801"/>
      </g>
     </g>
     <g id="text_11">
      <!-- 0.1 -->
      <g transform="translate(20.878125 203.228019)scale(0.1 -0.1)">
       <defs>
        <path d="M 10.6875 12.40625 
L 21 12.40625 
L 21 0 
L 10.6875 0 
z
" id="DejaVuSans-46"/>
       </defs>
       <use xlink:href="#DejaVuSans-48"/>
       <use x="63.623047" xlink:href="#DejaVuSans-46"/>
       <use x="95.410156" xlink:href="#DejaVuSans-49"/>
      </g>
     </g>
    </g>
    <g id="ytick_2">
     <g id="line2d_11">
      <g>
       <use style="stroke:#000000;stroke-width:0.8;" x="43.78125" xlink:href="#ma74f8a9ef5" y="173.001966"/>
      </g>
     </g>
     <g id="text_12">
      <!-- 0.2 -->
      <g transform="translate(20.878125 176.801185)scale(0.1 -0.1)">
       <use xlink:href="#DejaVuSans-48"/>
       <use x="63.623047" xlink:href="#DejaVuSans-46"/>
       <use x="95.410156" xlink:href="#DejaVuSans-50"/>
      </g>
     </g>
    </g>
    <g id="ytick_3">
     <g id="line2d_12">
      <g>
       <use style="stroke:#000000;stroke-width:0.8;" x="43.78125" xlink:href="#ma74f8a9ef5" y="146.575131"/>
      </g>
     </g>
     <g id="text_13">
      <!-- 0.3 -->
      <g transform="translate(20.878125 150.37435)scale(0.1 -0.1)">
       <defs>
        <path d="M 40.578125 39.3125 
Q 47.65625 37.796875 51.625 33 
Q 55.609375 28.21875 55.609375 21.1875 
Q 55.609375 10.40625 48.1875 4.484375 
Q 40.765625 -1.421875 27.09375 -1.421875 
Q 22.515625 -1.421875 17.65625 -0.515625 
Q 12.796875 0.390625 7.625 2.203125 
L 7.625 11.71875 
Q 11.71875 9.328125 16.59375 8.109375 
Q 21.484375 6.890625 26.8125 6.890625 
Q 36.078125 6.890625 40.9375 10.546875 
Q 45.796875 14.203125 45.796875 21.1875 
Q 45.796875 27.640625 41.28125 31.265625 
Q 36.765625 34.90625 28.71875 34.90625 
L 20.21875 34.90625 
L 20.21875 43.015625 
L 29.109375 43.015625 
Q 36.375 43.015625 40.234375 45.921875 
Q 44.09375 48.828125 44.09375 54.296875 
Q 44.09375 59.90625 40.109375 62.90625 
Q 36.140625 65.921875 28.71875 65.921875 
Q 24.65625 65.921875 20.015625 65.03125 
Q 15.375 64.15625 9.8125 62.3125 
L 9.8125 71.09375 
Q 15.4375 72.65625 20.34375 73.4375 
Q 25.25 74.21875 29.59375 74.21875 
Q 40.828125 74.21875 47.359375 69.109375 
Q 53.90625 64.015625 53.90625 55.328125 
Q 53.90625 49.265625 50.4375 45.09375 
Q 46.96875 40.921875 40.578125 39.3125 
z
" id="DejaVuSans-51"/>
       </defs>
       <use xlink:href="#DejaVuSans-48"/>
       <use x="63.623047" xlink:href="#DejaVuSans-46"/>
       <use x="95.410156" xlink:href="#DejaVuSans-51"/>
      </g>
     </g>
    </g>
    <g id="ytick_4">
     <g id="line2d_13">
      <g>
       <use style="stroke:#000000;stroke-width:0.8;" x="43.78125" xlink:href="#ma74f8a9ef5" y="120.148297"/>
      </g>
     </g>
     <g id="text_14">
      <!-- 0.4 -->
      <g transform="translate(20.878125 123.947516)scale(0.1 -0.1)">
       <defs>
        <path d="M 37.796875 64.3125 
L 12.890625 25.390625 
L 37.796875 25.390625 
z
M 35.203125 72.90625 
L 47.609375 72.90625 
L 47.609375 25.390625 
L 58.015625 25.390625 
L 58.015625 17.1875 
L 47.609375 17.1875 
L 47.609375 0 
L 37.796875 0 
L 37.796875 17.1875 
L 4.890625 17.1875 
L 4.890625 26.703125 
z
" id="DejaVuSans-52"/>
       </defs>
       <use xlink:href="#DejaVuSans-48"/>
       <use x="63.623047" xlink:href="#DejaVuSans-46"/>
       <use x="95.410156" xlink:href="#DejaVuSans-52"/>
      </g>
     </g>
    </g>
    <g id="ytick_5">
     <g id="line2d_14">
      <g>
       <use style="stroke:#000000;stroke-width:0.8;" x="43.78125" xlink:href="#ma74f8a9ef5" y="93.721462"/>
      </g>
     </g>
     <g id="text_15">
      <!-- 0.5 -->
      <g transform="translate(20.878125 97.520681)scale(0.1 -0.1)">
       <use xlink:href="#DejaVuSans-48"/>
       <use x="63.623047" xlink:href="#DejaVuSans-46"/>
       <use x="95.410156" xlink:href="#DejaVuSans-53"/>
      </g>
     </g>
    </g>
    <g id="ytick_6">
     <g id="line2d_15">
      <g>
       <use style="stroke:#000000;stroke-width:0.8;" x="43.78125" xlink:href="#ma74f8a9ef5" y="67.294628"/>
      </g>
     </g>
     <g id="text_16">
      <!-- 0.6 -->
      <g transform="translate(20.878125 71.093846)scale(0.1 -0.1)">
       <defs>
        <path d="M 33.015625 40.375 
Q 26.375 40.375 22.484375 35.828125 
Q 18.609375 31.296875 18.609375 23.390625 
Q 18.609375 15.53125 22.484375 10.953125 
Q 26.375 6.390625 33.015625 6.390625 
Q 39.65625 6.390625 43.53125 10.953125 
Q 47.40625 15.53125 47.40625 23.390625 
Q 47.40625 31.296875 43.53125 35.828125 
Q 39.65625 40.375 33.015625 40.375 
z
M 52.59375 71.296875 
L 52.59375 62.3125 
Q 48.875 64.0625 45.09375 64.984375 
Q 41.3125 65.921875 37.59375 65.921875 
Q 27.828125 65.921875 22.671875 59.328125 
Q 17.53125 52.734375 16.796875 39.40625 
Q 19.671875 43.65625 24.015625 45.921875 
Q 28.375 48.1875 33.59375 48.1875 
Q 44.578125 48.1875 50.953125 41.515625 
Q 57.328125 34.859375 57.328125 23.390625 
Q 57.328125 12.15625 50.6875 5.359375 
Q 44.046875 -1.421875 33.015625 -1.421875 
Q 20.359375 -1.421875 13.671875 8.265625 
Q 6.984375 17.96875 6.984375 36.375 
Q 6.984375 53.65625 15.1875 63.9375 
Q 23.390625 74.21875 37.203125 74.21875 
Q 40.921875 74.21875 44.703125 73.484375 
Q 48.484375 72.75 52.59375 71.296875 
z
" id="DejaVuSans-54"/>
       </defs>
       <use xlink:href="#DejaVuSans-48"/>
       <use x="63.623047" xlink:href="#DejaVuSans-46"/>
       <use x="95.410156" xlink:href="#DejaVuSans-54"/>
      </g>
     </g>
    </g>
    <g id="ytick_7">
     <g id="line2d_16">
      <g>
       <use style="stroke:#000000;stroke-width:0.8;" x="43.78125" xlink:href="#ma74f8a9ef5" y="40.867793"/>
      </g>
     </g>
     <g id="text_17">
      <!-- 0.7 -->
      <g transform="translate(20.878125 44.667012)scale(0.1 -0.1)">
       <use xlink:href="#DejaVuSans-48"/>
       <use x="63.623047" xlink:href="#DejaVuSans-46"/>
       <use x="95.410156" xlink:href="#DejaVuSans-55"/>
      </g>
     </g>
    </g>
    <g id="ytick_8">
     <g id="line2d_17">
      <g>
       <use style="stroke:#000000;stroke-width:0.8;" x="43.78125" xlink:href="#ma74f8a9ef5" y="14.440959"/>
      </g>
     </g>
     <g id="text_18">
      <!-- 0.8 -->
      <g transform="translate(20.878125 18.240177)scale(0.1 -0.1)">
       <defs>
        <path d="M 31.78125 34.625 
Q 24.75 34.625 20.71875 30.859375 
Q 16.703125 27.09375 16.703125 20.515625 
Q 16.703125 13.921875 20.71875 10.15625 
Q 24.75 6.390625 31.78125 6.390625 
Q 38.8125 6.390625 42.859375 10.171875 
Q 46.921875 13.96875 46.921875 20.515625 
Q 46.921875 27.09375 42.890625 30.859375 
Q 38.875 34.625 31.78125 34.625 
z
M 21.921875 38.8125 
Q 15.578125 40.375 12.03125 44.71875 
Q 8.5 49.078125 8.5 55.328125 
Q 8.5 64.0625 14.71875 69.140625 
Q 20.953125 74.21875 31.78125 74.21875 
Q 42.671875 74.21875 48.875 69.140625 
Q 55.078125 64.0625 55.078125 55.328125 
Q 55.078125 49.078125 51.53125 44.71875 
Q 48 40.375 41.703125 38.8125 
Q 48.828125 37.15625 52.796875 32.3125 
Q 56.78125 27.484375 56.78125 20.515625 
Q 56.78125 9.90625 50.3125 4.234375 
Q 43.84375 -1.421875 31.78125 -1.421875 
Q 19.734375 -1.421875 13.25 4.234375 
Q 6.78125 9.90625 6.78125 20.515625 
Q 6.78125 27.484375 10.78125 32.3125 
Q 14.796875 37.15625 21.921875 38.8125 
z
M 18.3125 54.390625 
Q 18.3125 48.734375 21.84375 45.5625 
Q 25.390625 42.390625 31.78125 42.390625 
Q 38.140625 42.390625 41.71875 45.5625 
Q 45.3125 48.734375 45.3125 54.390625 
Q 45.3125 60.0625 41.71875 63.234375 
Q 38.140625 66.40625 31.78125 66.40625 
Q 25.390625 66.40625 21.84375 63.234375 
Q 18.3125 60.0625 18.3125 54.390625 
z
" id="DejaVuSans-56"/>
       </defs>
       <use xlink:href="#DejaVuSans-48"/>
       <use x="63.623047" xlink:href="#DejaVuSans-46"/>
       <use x="95.410156" xlink:href="#DejaVuSans-56"/>
      </g>
     </g>
    </g>
    <g id="text_19">
     <!-- score -->
     <g transform="translate(14.798438 129.352812)rotate(-90)scale(0.1 -0.1)">
      <defs>
       <path d="M 44.28125 53.078125 
L 44.28125 44.578125 
Q 40.484375 46.53125 36.375 47.5 
Q 32.28125 48.484375 27.875 48.484375 
Q 21.1875 48.484375 17.84375 46.4375 
Q 14.5 44.390625 14.5 40.28125 
Q 14.5 37.15625 16.890625 35.375 
Q 19.28125 33.59375 26.515625 31.984375 
L 29.59375 31.296875 
Q 39.15625 29.25 43.1875 25.515625 
Q 47.21875 21.78125 47.21875 15.09375 
Q 47.21875 7.46875 41.1875 3.015625 
Q 35.15625 -1.421875 24.609375 -1.421875 
Q 20.21875 -1.421875 15.453125 -0.5625 
Q 10.6875 0.296875 5.421875 2 
L 5.421875 11.28125 
Q 10.40625 8.6875 15.234375 7.390625 
Q 20.0625 6.109375 24.8125 6.109375 
Q 31.15625 6.109375 34.5625 8.28125 
Q 37.984375 10.453125 37.984375 14.40625 
Q 37.984375 18.0625 35.515625 20.015625 
Q 33.0625 21.96875 24.703125 23.78125 
L 21.578125 24.515625 
Q 13.234375 26.265625 9.515625 29.90625 
Q 5.8125 33.546875 5.8125 39.890625 
Q 5.8125 47.609375 11.28125 51.796875 
Q 16.75 56 26.8125 56 
Q 31.78125 56 36.171875 55.265625 
Q 40.578125 54.546875 44.28125 53.078125 
z
" id="DejaVuSans-115"/>
       <path d="M 41.109375 46.296875 
Q 39.59375 47.171875 37.8125 47.578125 
Q 36.03125 48 33.890625 48 
Q 26.265625 48 22.1875 43.046875 
Q 18.109375 38.09375 18.109375 28.8125 
L 18.109375 0 
L 9.078125 0 
L 9.078125 54.6875 
L 18.109375 54.6875 
L 18.109375 46.1875 
Q 20.953125 51.171875 25.484375 53.578125 
Q 30.03125 56 36.53125 56 
Q 37.453125 56 38.578125 55.875 
Q 39.703125 55.765625 41.0625 55.515625 
z
" id="DejaVuSans-114"/>
      </defs>
      <use xlink:href="#DejaVuSans-115"/>
      <use x="52.099609" xlink:href="#DejaVuSans-99"/>
      <use x="107.080078" xlink:href="#DejaVuSans-111"/>
      <use x="168.261719" xlink:href="#DejaVuSans-114"/>
      <use x="207.125" xlink:href="#DejaVuSans-101"/>
     </g>
    </g>
   </g>
   <g id="line2d_18">
    <path clip-path="url(#peffcd88e95)" d="M 81.826705 156.088789 
L 85.650368 167.18806 
L 89.474032 130.719029 
L 93.297696 126.490733 
L 97.12136 92.135846 
L 100.945023 87.379017 
L 104.768687 81.565113 
L 108.592351 83.150717 
L 112.416015 88.964627 
L 116.239679 90.021701 
L 120.063342 83.679259 
L 123.887006 95.835604 
L 127.71067 91.078778 
L 131.534334 93.192925 
L 139.181661 81.56511 
L 143.005325 83.679261 
L 146.828989 90.550239 
L 150.652652 73.637068 
L 154.476316 82.622191 
L 158.29998 86.32194 
L 162.123644 81.565113 
L 165.947308 77.865353 
L 169.770971 73.637062 
L 173.594635 85.793405 
L 177.418299 83.679261 
L 181.241963 77.865355 
L 185.065626 73.108526 
L 188.88929 83.150721 
L 192.712954 64.651937 
L 196.536618 69.408769 
L 200.360282 67.823158 
L 204.183945 64.651939 
L 208.007609 68.351691 
L 211.831273 84.736333 
L 215.654937 60.952179 
L 219.4786 65.709016 
L 223.302264 79.450973 
L 227.125928 53.552668 
L 230.949592 65.180474 
L 234.773255 89.493163 
L 238.596919 57.780964 
L 242.420583 46.681688 
L 246.244247 64.123398 
L 250.067911 76.279738 
L 253.891574 54.081204 
L 257.715238 54.60974 
L 261.538902 65.709007 
L 265.362566 37.696563 
L 269.186229 48.2673 
L 273.009893 48.795834 
L 276.833557 48.267297 
L 280.657221 67.823158 
L 284.480885 37.168034 
L 288.304548 31.882662 
L 292.128212 75.222675 
L 295.951876 60.952178 
L 299.77554 43.510471 
L 303.599203 29.239981 
L 307.422867 29.768514 
L 311.246531 54.081204 
L 315.070195 28.182912 
L 318.893858 22.368992 
L 322.717522 30.82559 
L 326.541186 47.73876 
L 330.36485 62.537794 
L 334.188514 27.12583 
L 338.012177 22.897541 
L 341.835841 36.639494 
L 345.659505 24.483146 
L 349.483169 32.939738 
L 353.306832 25.540228 
L 357.130496 39.282178 
L 360.95416 39.282181 
L 364.777824 30.825587 
L 368.601488 25.011692 
L 372.425151 31.354132 
L 376.248815 26.597297 
L 380.072479 19.197784 
L 383.896143 27.65437 
L 387.719806 37.168037 
L 391.54347 47.738764 
L 395.367134 69.937312 
L 399.190798 33.99681 
L 403.014462 67.294626 
L 406.838125 37.696563 
L 410.661789 23.426086 
L 414.485453 22.897547 
L 418.309117 24.48314 
L 422.13278 21.311929 
L 425.956444 30.82559 
L 429.780108 20.78339 
L 433.603772 25.540222 
L 437.427435 22.897541 
L 441.251099 24.483152 
L 445.074763 22.897534 
L 448.898427 20.25486 
L 452.722091 26.068764 
L 456.545754 20.25485 
L 464.193082 29.768521 
L 468.016746 20.254857 
L 471.840409 25.540228 
L 475.664073 18.669248 
L 479.487737 33.996813 
L 483.311401 20.783396 
L 487.135065 33.468274 
L 490.958728 26.068761 
L 494.782392 24.483152 
L 498.606056 24.483149 
L 502.42972 25.540215 
L 506.253383 36.110958 
L 510.077047 19.726317 
L 513.900711 18.140706 
L 517.724375 20.783396 
L 521.548038 23.954607 
L 525.371702 18.669251 
L 529.195366 20.254857 
L 533.01903 23.426083 
L 536.842694 20.783387 
L 540.666357 22.369005 
L 544.490021 26.5973 
L 548.313685 22.369001 
L 552.137349 19.72632 
L 555.961012 17.61216 
L 559.784676 20.783387 
L 563.60834 17.083636 
L 567.432004 21.311929 
L 571.255668 17.612166 
L 575.079331 20.254857 
L 578.902995 21.311932 
L 582.726659 20.78339 
L 586.550323 21.311932 
L 590.373986 19.197775 
L 594.19765 20.254857 
L 598.021314 21.840472 
L 601.844978 19.197778 
L 609.492305 20.254857 
L 613.315969 21.311929 
L 617.139633 20.783393 
L 620.963297 20.783387 
L 624.78696 19.726311 
L 628.610624 18.140706 
L 632.434288 17.612176 
L 636.257952 20.783393 
L 640.081615 18.669239 
L 643.905279 21.311923 
L 647.728943 20.254857 
L 651.552607 19.726317 
L 655.376271 20.78339 
L 659.199934 21.311929 
L 663.023598 20.783393 
L 666.847262 23.426071 
L 670.670926 18.669242 
L 674.494589 22.897531 
L 678.318253 23.954607 
L 682.141917 19.726317 
L 689.789245 20.783393 
L 697.436572 19.726314 
L 701.260236 19.726308 
L 705.0839 20.254853 
L 708.907563 19.72632 
L 712.731227 19.726317 
L 716.554891 20.254853 
L 720.378555 19.197781 
L 724.202218 20.254857 
L 728.025882 19.72632 
L 731.849546 19.726317 
L 735.67321 22.897538 
L 739.496874 19.72632 
L 743.320537 19.726324 
L 747.144201 20.783396 
L 750.967865 20.78339 
L 758.615192 19.72632 
L 762.438856 20.78339 
L 766.26252 23.426071 
L 770.086184 22.369001 
L 773.909848 22.369005 
L 777.733511 20.783393 
L 781.557175 19.726317 
L 785.380839 20.783393 
L 789.204503 21.311932 
L 793.028166 18.669245 
L 796.85183 21.311932 
L 800.675494 18.669239 
L 804.499158 18.669248 
L 808.322821 22.368998 
L 812.146485 18.669251 
L 815.970149 19.197778 
L 819.793813 20.25485 
L 823.617477 20.783393 
L 827.44114 21.840472 
L 831.264804 19.726317 
L 835.088468 21.311926 
L 838.912132 18.669248 
L 842.735795 19.726317 
L 842.735795 19.726317 
" style="fill:none;stroke:#1f77b4;stroke-linecap:square;stroke-width:1.5;"/>
   </g>
   <g id="line2d_19">
    <path clip-path="url(#peffcd88e95)" d="M 81.826705 159.26001 
L 85.650368 154.503178 
L 89.474032 158.202937 
L 93.297696 158.202935 
L 97.12136 151.331955 
L 100.945023 130.190489 
L 104.768687 131.776102 
L 108.592351 142.875375 
L 112.416015 127.547805 
L 116.239679 126.490733 
L 120.063342 125.962198 
L 123.887006 114.334388 
L 127.71067 125.962198 
L 131.534334 122.790979 
L 135.357997 123.319512 
L 139.181661 107.46341 
L 143.005325 128.076347 
L 146.828989 124.376586 
L 150.652652 135.475861 
L 154.476316 123.848052 
L 158.29998 128.604881 
L 162.123644 127.547811 
L 165.947308 124.376586 
L 169.770971 118.562683 
L 173.594635 118.562684 
L 177.418299 133.890249 
L 181.241963 134.418781 
L 185.065626 124.905126 
L 188.88929 117.50561 
L 196.536618 123.848047 
L 200.360282 125.433659 
L 204.183945 131.247569 
L 208.007609 132.304637 
L 211.831273 133.890246 
L 215.654937 132.833173 
L 219.4786 124.376586 
L 223.302264 128.076341 
L 227.125928 113.805852 
L 230.949592 127.019274 
L 234.773255 130.190492 
L 238.596919 134.947323 
L 242.420583 136.532934 
L 246.244247 133.361709 
L 250.067911 127.019274 
L 253.891574 117.50561 
L 257.715238 127.019274 
L 261.538902 129.133418 
L 265.362566 137.590006 
L 269.186229 124.905127 
L 273.009893 132.833175 
L 276.833557 126.490731 
L 280.657221 133.890247 
L 284.480885 133.361709 
L 288.304548 134.418783 
L 292.128212 136.004394 
L 295.951876 138.647078 
L 299.77554 129.661957 
L 303.599203 139.704152 
L 307.422867 118.562685 
L 311.246531 135.475856 
L 315.070195 143.403906 
L 318.893858 130.719028 
L 322.717522 141.818298 
L 326.541186 124.905124 
L 330.36485 122.790977 
L 334.188514 106.934875 
L 338.012177 128.07634 
L 341.835841 143.932443 
L 345.659505 114.862929 
L 349.483169 146.046592 
L 353.306832 138.118542 
L 357.130496 140.761226 
L 360.95416 143.932445 
L 364.777824 131.247562 
L 368.601488 134.94732 
L 372.425151 142.875373 
L 376.248815 119.09122 
L 380.072479 120.148295 
L 383.896143 133.890248 
L 387.719806 139.704154 
L 391.54347 144.46098 
L 395.367134 116.448534 
L 399.190798 121.733906 
L 403.014462 141.289763 
L 406.838125 150.274883 
L 410.661789 148.689276 
L 414.485453 133.361713 
L 418.309117 124.905126 
L 422.13278 139.175616 
L 425.956444 127.019273 
L 429.780108 120.676833 
L 433.603772 114.862925 
L 437.427435 142.346836 
L 441.251099 135.475855 
L 445.074763 134.418789 
L 448.898427 134.418784 
L 452.722091 133.361709 
L 456.545754 129.661957 
L 460.369418 129.133414 
L 464.193082 108.52049 
L 468.016746 130.190493 
L 471.840409 112.220241 
L 475.664073 131.247564 
L 479.487737 124.905122 
L 483.311401 135.475856 
L 487.135065 153.446107 
L 490.958728 139.704154 
L 494.782392 129.133419 
L 498.606056 138.647081 
L 502.42972 132.833173 
L 506.253383 128.604879 
L 510.077047 113.277312 
L 513.900711 136.004395 
L 517.724375 112.748777 
L 521.548038 123.848049 
L 525.371702 128.604878 
L 529.195366 111.691705 
L 533.01903 127.547808 
L 536.842694 118.034147 
L 540.666357 128.604882 
L 544.490021 103.763652 
L 548.313685 128.076344 
L 552.137349 106.934873 
L 555.961012 108.520484 
L 559.784676 125.962199 
L 563.60834 162.43123 
L 567.432004 165.602449 
L 571.255668 161.374155 
L 575.079331 149.746349 
L 578.902995 146.575132 
L 582.726659 127.54781 
L 586.550323 125.433658 
L 590.373986 141.289764 
L 594.19765 143.403907 
L 598.021314 125.962196 
L 601.844978 144.460983 
L 605.668642 129.661958 
L 609.492305 123.319515 
L 613.315969 136.532929 
L 617.139633 132.30464 
L 620.963297 129.661956 
L 624.78696 125.43366 
L 628.610624 114.862927 
L 632.434288 133.361715 
L 636.257952 128.604879 
L 640.081615 136.00439 
L 643.905279 139.175616 
L 647.728943 132.833173 
L 651.552607 132.833172 
L 655.376271 109.577561 
L 659.199934 131.776099 
L 663.023598 130.19049 
L 666.847262 138.118535 
L 670.670926 130.719027 
L 674.494589 131.776102 
L 678.318253 148.689274 
L 682.141917 134.418784 
L 685.965581 142.346834 
L 689.789245 143.403908 
L 693.612908 139.704149 
L 697.436572 149.74635 
L 701.260236 145.518058 
L 705.0839 149.74635 
L 708.907563 152.917569 
L 712.731227 143.403905 
L 716.554891 151.33196 
L 720.378555 132.833173 
L 724.202218 160.845621 
L 728.025882 162.95977 
L 731.849546 145.518058 
L 735.67321 140.761224 
L 739.496874 146.046591 
L 743.320537 138.118541 
L 747.144201 153.446111 
L 750.967865 153.974641 
L 754.791529 149.74635 
L 758.615192 156.617328 
L 762.438856 139.175612 
L 766.26252 166.659523 
L 770.086184 151.331959 
L 773.909848 160.317085 
L 777.733511 151.860493 
L 781.557175 146.57513 
L 785.380839 178.815867 
L 789.204503 160.317083 
L 793.028166 157.674399 
L 796.85183 160.845618 
L 800.675494 167.188059 
L 804.499158 159.788547 
L 808.322821 171.416353 
L 812.146485 155.560253 
L 815.970149 154.503177 
L 819.793813 173.530503 
L 823.617477 168.773672 
L 827.44114 170.359281 
L 831.264804 167.18806 
L 835.088468 187.800991 
L 838.912132 155.031718 
L 842.735795 174.587575 
L 842.735795 174.587575 
" style="fill:none;stroke:#ff7f0e;stroke-linecap:square;stroke-width:1.5;"/>
   </g>
   <g id="line2d_20">
    <path clip-path="url(#peffcd88e95)" d="M 81.826705 137.590007 
L 85.650368 130.190491 
L 89.474032 90.550242 
L 93.297696 102.17804 
L 97.12136 95.835607 
L 100.945023 95.835602 
L 104.768687 79.450958 
L 108.592351 93.192923 
L 112.416015 78.922427 
L 116.239679 87.907555 
L 120.063342 77.865356 
L 123.887006 77.86535 
L 127.71067 69.937301 
L 131.534334 81.56511 
L 135.357997 76.808284 
L 139.181661 86.850479 
L 143.005325 83.679262 
L 146.828989 81.565117 
L 150.652652 86.321943 
L 154.476316 73.108527 
L 158.29998 78.393891 
L 162.123644 79.450968 
L 165.947308 74.165598 
L 169.770971 82.622185 
L 173.594635 74.694138 
L 177.418299 86.321946 
L 181.241963 76.808273 
L 185.065626 83.15072 
L 188.88929 81.036575 
L 192.712954 87.379009 
L 196.536618 82.09365 
L 200.360282 68.88023 
L 204.183945 88.436083 
L 208.007609 87.379019 
L 211.831273 73.108526 
L 215.654937 89.493163 
L 219.4786 66.237546 
L 223.302264 93.19292 
L 227.125928 82.622183 
L 230.949592 75.751208 
L 234.773255 85.264868 
L 238.596919 72.57999 
L 242.420583 58.3095 
L 246.244247 71.522916 
L 250.067911 70.994375 
L 253.891574 77.865356 
L 257.715238 74.165595 
L 261.538902 59.895109 
L 265.362566 85.79341 
L 269.186229 73.637059 
L 273.009893 84.736335 
L 276.833557 71.522913 
L 280.657221 63.594862 
L 284.480885 75.222669 
L 288.304548 75.751211 
L 292.128212 73.108523 
L 295.951876 80.508037 
L 299.77554 62.009255 
L 303.599203 80.508043 
L 307.422867 61.480717 
L 311.246531 69.937301 
L 315.070195 53.552665 
L 318.893858 55.138273 
L 322.717522 54.081204 
L 326.541186 57.252421 
L 330.36485 56.723888 
L 334.188514 40.867784 
L 338.012177 49.852908 
L 341.835841 48.795845 
L 345.659505 53.552668 
L 349.483169 56.195349 
L 353.306832 42.981938 
L 357.130496 50.909984 
L 360.95416 55.666816 
L 364.777824 41.396323 
L 368.601488 33.996813 
L 372.425151 36.110952 
L 376.248815 46.681691 
L 380.072479 51.967059 
L 383.896143 44.567543 
L 387.719806 48.267303 
L 391.54347 46.153152 
L 395.367134 39.282181 
L 399.190798 42.453395 
L 403.014462 39.810711 
L 406.838125 43.510468 
L 410.661789 35.582412 
L 414.485453 34.525343 
L 418.309117 32.939741 
L 422.13278 35.582422 
L 425.956444 35.582425 
L 429.780108 37.168027 
L 433.603772 35.582419 
L 437.427435 31.354126 
L 441.251099 36.639488 
L 445.074763 29.768514 
L 448.898427 35.053886 
L 452.722091 29.768517 
L 456.545754 36.110958 
L 460.369418 30.825584 
L 464.193082 24.483149 
L 468.016746 25.011685 
L 471.840409 31.354132 
L 475.664073 28.711442 
L 479.487737 27.654376 
L 483.311401 36.110958 
L 487.135065 30.297057 
L 490.958728 27.12584 
L 494.782392 25.540228 
L 498.606056 27.125833 
L 502.42972 24.483149 
L 506.253383 26.068761 
L 510.077047 24.483146 
L 513.900711 20.25485 
L 517.724375 24.483143 
L 521.548038 25.011682 
L 525.371702 22.897541 
L 529.195366 22.897534 
L 533.01903 25.540215 
L 536.842694 23.95461 
L 540.666357 27.654373 
L 544.490021 23.42608 
L 548.313685 27.12583 
L 552.137349 23.426071 
L 559.784676 23.42608 
L 563.60834 25.540219 
L 567.432004 25.540222 
L 571.255668 26.068758 
L 575.079331 30.297051 
L 578.902995 22.897534 
L 582.726659 23.95461 
L 586.550323 23.95461 
L 590.373986 23.426083 
L 594.19765 27.125837 
L 598.021314 22.897541 
L 601.844978 24.483146 
L 605.668642 23.426077 
L 609.492305 27.125833 
L 613.315969 25.011685 
L 617.139633 22.368992 
L 620.963297 25.540228 
L 624.78696 23.426071 
L 628.610624 22.897538 
L 632.434288 28.711442 
L 636.257952 24.483143 
L 640.081615 22.897541 
L 643.905279 26.068761 
L 647.728943 24.483152 
L 651.552607 23.426074 
L 655.376271 25.540225 
L 659.199934 23.426077 
L 663.023598 23.954607 
L 666.847262 23.426077 
L 670.670926 24.483149 
L 674.494589 23.95461 
L 678.318253 22.897538 
L 682.141917 25.011685 
L 685.965581 23.426077 
L 689.789245 25.011679 
L 693.612908 23.954613 
L 701.260236 26.068752 
L 705.0839 24.483137 
L 708.907563 23.426077 
L 712.731227 25.011679 
L 716.554891 81.565111 
L 720.378555 86.321942 
L 724.202218 84.207794 
L 728.025882 60.952184 
L 731.849546 59.895112 
L 735.67321 77.865355 
L 739.496874 56.195352 
L 743.320537 39.810718 
L 747.144201 42.453399 
L 750.967865 38.753639 
L 754.791529 52.495592 
L 758.615192 50.909984 
L 762.438856 34.525346 
L 766.26252 40.867784 
L 770.086184 34.525346 
L 773.909848 38.225106 
L 777.733511 40.867784 
L 781.557175 36.110958 
L 785.380839 36.639497 
L 789.204503 35.053882 
L 793.028166 39.810714 
L 796.85183 36.639494 
L 800.675494 31.882665 
L 804.499158 32.411195 
L 808.322821 30.297051 
L 812.146485 32.411198 
L 815.970149 30.825584 
L 819.793813 31.882662 
L 823.617477 27.125827 
L 827.44114 30.825587 
L 831.264804 29.768514 
L 835.088468 32.411195 
L 838.912132 31.354126 
L 842.735795 31.882665 
L 842.735795 31.882665 
" style="fill:none;stroke:#2ca02c;stroke-linecap:square;stroke-width:1.5;"/>
   </g>
   <g id="line2d_21">
    <path clip-path="url(#peffcd88e95)" d="M 81.826705 170.887819 
L 85.650368 162.431229 
L 89.474032 166.659525 
L 93.297696 214.756364 
L 97.12136 170.887815 
L 100.945023 165.073914 
L 104.768687 147.632203 
L 108.592351 165.602451 
L 112.416015 155.560254 
L 116.239679 164.016841 
L 120.063342 156.088788 
L 123.887006 169.302206 
L 127.71067 167.18806 
L 131.534334 160.317081 
L 135.357997 160.317083 
L 139.181661 151.860495 
L 143.005325 159.788546 
L 146.828989 159.788548 
L 150.652652 161.374155 
L 154.476316 142.875373 
L 158.29998 149.217811 
L 162.123644 161.374158 
L 165.947308 157.674399 
L 169.770971 159.26001 
L 173.594635 158.202934 
L 177.418299 159.260011 
L 181.241963 150.274888 
L 188.88929 165.073913 
L 192.712954 146.575128 
L 196.536618 145.518054 
L 200.360282 159.260007 
L 204.183945 148.689277 
L 208.007609 149.746351 
L 211.831273 160.317085 
L 215.654937 153.446107 
L 219.4786 147.103662 
L 223.302264 143.40391 
L 227.125928 159.260011 
L 230.949592 158.731475 
L 234.773255 150.274887 
L 238.596919 161.374156 
L 242.420583 141.818299 
L 246.244247 155.560255 
L 250.067911 167.188058 
L 253.891574 157.674398 
L 257.715238 151.331959 
L 261.538902 160.845622 
L 265.362566 144.989516 
L 269.186229 158.202937 
L 273.009893 161.374156 
L 276.833557 153.974643 
L 280.657221 153.974641 
L 284.480885 160.317084 
L 288.304548 150.274885 
L 292.128212 155.560251 
L 295.951876 144.98952 
L 299.77554 159.260007 
L 303.599203 152.38903 
L 307.422867 166.659526 
L 311.246531 162.431231 
L 315.070195 151.860497 
L 318.893858 158.731472 
L 322.717522 161.374157 
L 326.541186 166.130989 
L 330.36485 138.647078 
L 334.188514 174.059038 
L 338.012177 157.145864 
L 341.835841 161.902694 
L 345.659505 156.08879 
L 349.483169 161.902693 
L 357.130496 159.788544 
L 360.95416 157.145865 
L 364.777824 153.974645 
L 368.601488 166.659522 
L 372.425151 168.245134 
L 376.248815 158.731473 
L 380.072479 158.202936 
L 383.896143 155.031714 
L 387.719806 156.088789 
L 391.54347 145.518052 
L 395.367134 168.245133 
L 399.190798 164.016839 
L 403.014462 157.145865 
L 406.838125 157.145862 
L 410.661789 159.788544 
L 414.485453 154.503183 
L 418.309117 157.6744 
L 422.13278 161.374154 
L 425.956444 154.503181 
L 429.780108 152.917568 
L 433.603772 149.74635 
L 437.427435 160.84562 
L 441.251099 164.545375 
L 445.074763 150.803425 
L 448.898427 147.632202 
L 452.722091 165.602449 
L 456.545754 147.632202 
L 460.369418 158.202936 
L 464.193082 153.446105 
L 468.016746 144.460983 
L 471.840409 159.260011 
L 475.664073 155.031714 
L 479.487737 155.560254 
L 483.311401 157.145863 
L 487.135065 148.160738 
L 490.958728 152.389033 
L 494.782392 162.431231 
L 498.606056 159.260013 
L 502.42972 148.160737 
L 506.253383 146.046591 
L 510.077047 157.145862 
L 513.900711 157.674398 
L 517.724375 156.088793 
L 521.548038 152.91757 
L 525.371702 155.031718 
L 529.195366 159.26001 
L 533.01903 151.331959 
L 536.842694 151.860498 
L 540.666357 160.317085 
L 544.490021 153.446107 
L 548.313685 166.130989 
L 552.137349 165.073915 
L 555.961012 181.458553 
L 559.784676 171.416353 
L 563.60834 165.602448 
L 567.432004 156.088789 
L 571.255668 162.959766 
L 575.079331 153.974641 
L 578.902995 144.460981 
L 582.726659 146.575129 
L 586.550323 153.446107 
L 590.373986 161.374156 
L 594.19765 152.917569 
L 598.021314 152.91757 
L 601.844978 167.188061 
L 605.668642 149.746349 
L 609.492305 158.202939 
L 613.315969 155.560254 
L 617.139633 150.803421 
L 620.963297 157.674397 
L 624.78696 150.274886 
L 628.610624 152.389032 
L 632.434288 165.073912 
L 636.257952 152.917569 
L 640.081615 157.145865 
L 643.905279 158.731475 
L 647.728943 158.202939 
L 651.552607 148.689275 
L 655.376271 138.118542 
L 659.199934 166.659525 
L 663.023598 160.84562 
L 666.847262 157.674399 
L 670.670926 161.902696 
L 674.494589 161.374156 
L 678.318253 145.518054 
L 682.141917 151.33196 
L 685.965581 149.746345 
L 689.789245 156.088792 
L 693.612908 152.917568 
L 697.436572 151.860498 
L 701.260236 156.08879 
L 705.0839 155.560251 
L 708.907563 152.917568 
L 712.731227 153.974641 
L 716.554891 153.446104 
L 720.378555 144.460983 
L 724.202218 157.145863 
L 728.025882 160.845621 
L 731.849546 149.746349 
L 735.67321 157.6744 
L 739.496874 148.160739 
L 743.320537 158.731476 
L 747.144201 159.788546 
L 750.967865 165.073912 
L 754.791529 147.632205 
L 758.615192 149.217814 
L 762.438856 151.331958 
L 766.26252 144.989516 
L 770.086184 139.704151 
L 777.733511 153.446107 
L 781.557175 148.160742 
L 785.380839 154.503178 
L 789.204503 151.860496 
L 793.028166 141.289761 
L 796.85183 143.932443 
L 800.675494 145.518056 
L 804.499158 139.175612 
L 808.322821 154.503179 
L 812.146485 138.64708 
L 815.970149 142.346834 
L 819.793813 143.932443 
L 827.44114 150.274886 
L 831.264804 144.460982 
L 835.088468 129.661956 
L 838.912132 155.560251 
L 842.735795 136.532934 
L 842.735795 136.532934 
" style="fill:none;stroke:#d62728;stroke-linecap:square;stroke-width:1.5;"/>
   </g>
   <g id="patch_3">
    <path d="M 43.78125 224.64 
L 43.78125 7.2 
" style="fill:none;stroke:#000000;stroke-linecap:square;stroke-linejoin:miter;stroke-width:0.8;"/>
   </g>
   <g id="patch_4">
    <path d="M 880.78125 224.64 
L 880.78125 7.2 
" style="fill:none;stroke:#000000;stroke-linecap:square;stroke-linejoin:miter;stroke-width:0.8;"/>
   </g>
   <g id="patch_5">
    <path d="M 43.78125 224.64 
L 880.78125 224.64 
" style="fill:none;stroke:#000000;stroke-linecap:square;stroke-linejoin:miter;stroke-width:0.8;"/>
   </g>
   <g id="patch_6">
    <path d="M 43.78125 7.2 
L 880.78125 7.2 
" style="fill:none;stroke:#000000;stroke-linecap:square;stroke-linejoin:miter;stroke-width:0.8;"/>
   </g>
   <g id="legend_1">
    <g id="patch_7">
     <path d="M 50.78125 75.025 
L 215.873438 75.025 
Q 217.873438 75.025 217.873438 73.025 
L 217.873438 14.2 
Q 217.873438 12.2 215.873438 12.2 
L 50.78125 12.2 
Q 48.78125 12.2 48.78125 14.2 
L 48.78125 73.025 
Q 48.78125 75.025 50.78125 75.025 
z
" style="fill:#ffffff;opacity:0.8;stroke:#cccccc;stroke-linejoin:miter;"/>
    </g>
    <g id="line2d_22">
     <path d="M 52.78125 20.298437 
L 72.78125 20.298437 
" style="fill:none;stroke:#1f77b4;stroke-linecap:square;stroke-width:1.5;"/>
    </g>
    <g id="line2d_23"/>
    <g id="text_20">
     <!-- unet_bce_score_val -->
     <g transform="translate(80.78125 23.798437)scale(0.1 -0.1)">
      <defs>
       <path d="M 8.5 21.578125 
L 8.5 54.6875 
L 17.484375 54.6875 
L 17.484375 21.921875 
Q 17.484375 14.15625 20.5 10.265625 
Q 23.53125 6.390625 29.59375 6.390625 
Q 36.859375 6.390625 41.078125 11.03125 
Q 45.3125 15.671875 45.3125 23.6875 
L 45.3125 54.6875 
L 54.296875 54.6875 
L 54.296875 0 
L 45.3125 0 
L 45.3125 8.40625 
Q 42.046875 3.421875 37.71875 1 
Q 33.40625 -1.421875 27.6875 -1.421875 
Q 18.265625 -1.421875 13.375 4.4375 
Q 8.5 10.296875 8.5 21.578125 
z
M 31.109375 56 
z
" id="DejaVuSans-117"/>
       <path d="M 54.890625 33.015625 
L 54.890625 0 
L 45.90625 0 
L 45.90625 32.71875 
Q 45.90625 40.484375 42.875 44.328125 
Q 39.84375 48.1875 33.796875 48.1875 
Q 26.515625 48.1875 22.3125 43.546875 
Q 18.109375 38.921875 18.109375 30.90625 
L 18.109375 0 
L 9.078125 0 
L 9.078125 54.6875 
L 18.109375 54.6875 
L 18.109375 46.1875 
Q 21.34375 51.125 25.703125 53.5625 
Q 30.078125 56 35.796875 56 
Q 45.21875 56 50.046875 50.171875 
Q 54.890625 44.34375 54.890625 33.015625 
z
" id="DejaVuSans-110"/>
       <path d="M 18.3125 70.21875 
L 18.3125 54.6875 
L 36.8125 54.6875 
L 36.8125 47.703125 
L 18.3125 47.703125 
L 18.3125 18.015625 
Q 18.3125 11.328125 20.140625 9.421875 
Q 21.96875 7.515625 27.59375 7.515625 
L 36.8125 7.515625 
L 36.8125 0 
L 27.59375 0 
Q 17.1875 0 13.234375 3.875 
Q 9.28125 7.765625 9.28125 18.015625 
L 9.28125 47.703125 
L 2.6875 47.703125 
L 2.6875 54.6875 
L 9.28125 54.6875 
L 9.28125 70.21875 
z
" id="DejaVuSans-116"/>
       <path d="M 50.984375 -16.609375 
L 50.984375 -23.578125 
L -0.984375 -23.578125 
L -0.984375 -16.609375 
z
" id="DejaVuSans-95"/>
       <path d="M 48.6875 27.296875 
Q 48.6875 37.203125 44.609375 42.84375 
Q 40.53125 48.484375 33.40625 48.484375 
Q 26.265625 48.484375 22.1875 42.84375 
Q 18.109375 37.203125 18.109375 27.296875 
Q 18.109375 17.390625 22.1875 11.75 
Q 26.265625 6.109375 33.40625 6.109375 
Q 40.53125 6.109375 44.609375 11.75 
Q 48.6875 17.390625 48.6875 27.296875 
z
M 18.109375 46.390625 
Q 20.953125 51.265625 25.265625 53.625 
Q 29.59375 56 35.59375 56 
Q 45.5625 56 51.78125 48.09375 
Q 58.015625 40.1875 58.015625 27.296875 
Q 58.015625 14.40625 51.78125 6.484375 
Q 45.5625 -1.421875 35.59375 -1.421875 
Q 29.59375 -1.421875 25.265625 0.953125 
Q 20.953125 3.328125 18.109375 8.203125 
L 18.109375 0 
L 9.078125 0 
L 9.078125 75.984375 
L 18.109375 75.984375 
z
" id="DejaVuSans-98"/>
       <path d="M 2.984375 54.6875 
L 12.5 54.6875 
L 29.59375 8.796875 
L 46.6875 54.6875 
L 56.203125 54.6875 
L 35.6875 0 
L 23.484375 0 
z
" id="DejaVuSans-118"/>
       <path d="M 34.28125 27.484375 
Q 23.390625 27.484375 19.1875 25 
Q 14.984375 22.515625 14.984375 16.5 
Q 14.984375 11.71875 18.140625 8.90625 
Q 21.296875 6.109375 26.703125 6.109375 
Q 34.1875 6.109375 38.703125 11.40625 
Q 43.21875 16.703125 43.21875 25.484375 
L 43.21875 27.484375 
z
M 52.203125 31.203125 
L 52.203125 0 
L 43.21875 0 
L 43.21875 8.296875 
Q 40.140625 3.328125 35.546875 0.953125 
Q 30.953125 -1.421875 24.3125 -1.421875 
Q 15.921875 -1.421875 10.953125 3.296875 
Q 6 8.015625 6 15.921875 
Q 6 25.140625 12.171875 29.828125 
Q 18.359375 34.515625 30.609375 34.515625 
L 43.21875 34.515625 
L 43.21875 35.40625 
Q 43.21875 41.609375 39.140625 45 
Q 35.0625 48.390625 27.6875 48.390625 
Q 23 48.390625 18.546875 47.265625 
Q 14.109375 46.140625 10.015625 43.890625 
L 10.015625 52.203125 
Q 14.9375 54.109375 19.578125 55.046875 
Q 24.21875 56 28.609375 56 
Q 40.484375 56 46.34375 49.84375 
Q 52.203125 43.703125 52.203125 31.203125 
z
" id="DejaVuSans-97"/>
       <path d="M 9.421875 75.984375 
L 18.40625 75.984375 
L 18.40625 0 
L 9.421875 0 
z
" id="DejaVuSans-108"/>
      </defs>
      <use xlink:href="#DejaVuSans-117"/>
      <use x="63.378906" xlink:href="#DejaVuSans-110"/>
      <use x="126.757812" xlink:href="#DejaVuSans-101"/>
      <use x="188.28125" xlink:href="#DejaVuSans-116"/>
      <use x="227.490234" xlink:href="#DejaVuSans-95"/>
      <use x="277.490234" xlink:href="#DejaVuSans-98"/>
      <use x="340.966797" xlink:href="#DejaVuSans-99"/>
      <use x="395.947266" xlink:href="#DejaVuSans-101"/>
      <use x="457.470703" xlink:href="#DejaVuSans-95"/>
      <use x="507.470703" xlink:href="#DejaVuSans-115"/>
      <use x="559.570312" xlink:href="#DejaVuSans-99"/>
      <use x="614.550781" xlink:href="#DejaVuSans-111"/>
      <use x="675.732422" xlink:href="#DejaVuSans-114"/>
      <use x="714.595703" xlink:href="#DejaVuSans-101"/>
      <use x="776.119141" xlink:href="#DejaVuSans-95"/>
      <use x="826.119141" xlink:href="#DejaVuSans-118"/>
      <use x="885.298828" xlink:href="#DejaVuSans-97"/>
      <use x="946.578125" xlink:href="#DejaVuSans-108"/>
     </g>
    </g>
    <g id="line2d_24">
     <path d="M 52.78125 35.254687 
L 72.78125 35.254687 
" style="fill:none;stroke:#ff7f0e;stroke-linecap:square;stroke-width:1.5;"/>
    </g>
    <g id="line2d_25"/>
    <g id="text_21">
     <!-- unet_dice_score_val -->
     <g transform="translate(80.78125 38.754687)scale(0.1 -0.1)">
      <defs>
       <path d="M 45.40625 46.390625 
L 45.40625 75.984375 
L 54.390625 75.984375 
L 54.390625 0 
L 45.40625 0 
L 45.40625 8.203125 
Q 42.578125 3.328125 38.25 0.953125 
Q 33.9375 -1.421875 27.875 -1.421875 
Q 17.96875 -1.421875 11.734375 6.484375 
Q 5.515625 14.40625 5.515625 27.296875 
Q 5.515625 40.1875 11.734375 48.09375 
Q 17.96875 56 27.875 56 
Q 33.9375 56 38.25 53.625 
Q 42.578125 51.265625 45.40625 46.390625 
z
M 14.796875 27.296875 
Q 14.796875 17.390625 18.875 11.75 
Q 22.953125 6.109375 30.078125 6.109375 
Q 37.203125 6.109375 41.296875 11.75 
Q 45.40625 17.390625 45.40625 27.296875 
Q 45.40625 37.203125 41.296875 42.84375 
Q 37.203125 48.484375 30.078125 48.484375 
Q 22.953125 48.484375 18.875 42.84375 
Q 14.796875 37.203125 14.796875 27.296875 
z
" id="DejaVuSans-100"/>
       <path d="M 9.421875 54.6875 
L 18.40625 54.6875 
L 18.40625 0 
L 9.421875 0 
z
M 9.421875 75.984375 
L 18.40625 75.984375 
L 18.40625 64.59375 
L 9.421875 64.59375 
z
" id="DejaVuSans-105"/>
      </defs>
      <use xlink:href="#DejaVuSans-117"/>
      <use x="63.378906" xlink:href="#DejaVuSans-110"/>
      <use x="126.757812" xlink:href="#DejaVuSans-101"/>
      <use x="188.28125" xlink:href="#DejaVuSans-116"/>
      <use x="227.490234" xlink:href="#DejaVuSans-95"/>
      <use x="277.490234" xlink:href="#DejaVuSans-100"/>
      <use x="340.966797" xlink:href="#DejaVuSans-105"/>
      <use x="368.75" xlink:href="#DejaVuSans-99"/>
      <use x="423.730469" xlink:href="#DejaVuSans-101"/>
      <use x="485.253906" xlink:href="#DejaVuSans-95"/>
      <use x="535.253906" xlink:href="#DejaVuSans-115"/>
      <use x="587.353516" xlink:href="#DejaVuSans-99"/>
      <use x="642.333984" xlink:href="#DejaVuSans-111"/>
      <use x="703.515625" xlink:href="#DejaVuSans-114"/>
      <use x="742.378906" xlink:href="#DejaVuSans-101"/>
      <use x="803.902344" xlink:href="#DejaVuSans-95"/>
      <use x="853.902344" xlink:href="#DejaVuSans-118"/>
      <use x="913.082031" xlink:href="#DejaVuSans-97"/>
      <use x="974.361328" xlink:href="#DejaVuSans-108"/>
     </g>
    </g>
    <g id="line2d_26">
     <path d="M 52.78125 50.210937 
L 72.78125 50.210937 
" style="fill:none;stroke:#2ca02c;stroke-linecap:square;stroke-width:1.5;"/>
    </g>
    <g id="line2d_27"/>
    <g id="text_22">
     <!-- unet_focal_score_val -->
     <g transform="translate(80.78125 53.710937)scale(0.1 -0.1)">
      <defs>
       <path d="M 37.109375 75.984375 
L 37.109375 68.5 
L 28.515625 68.5 
Q 23.6875 68.5 21.796875 66.546875 
Q 19.921875 64.59375 19.921875 59.515625 
L 19.921875 54.6875 
L 34.71875 54.6875 
L 34.71875 47.703125 
L 19.921875 47.703125 
L 19.921875 0 
L 10.890625 0 
L 10.890625 47.703125 
L 2.296875 47.703125 
L 2.296875 54.6875 
L 10.890625 54.6875 
L 10.890625 58.5 
Q 10.890625 67.625 15.140625 71.796875 
Q 19.390625 75.984375 28.609375 75.984375 
z
" id="DejaVuSans-102"/>
      </defs>
      <use xlink:href="#DejaVuSans-117"/>
      <use x="63.378906" xlink:href="#DejaVuSans-110"/>
      <use x="126.757812" xlink:href="#DejaVuSans-101"/>
      <use x="188.28125" xlink:href="#DejaVuSans-116"/>
      <use x="227.490234" xlink:href="#DejaVuSans-95"/>
      <use x="277.490234" xlink:href="#DejaVuSans-102"/>
      <use x="312.695312" xlink:href="#DejaVuSans-111"/>
      <use x="373.876953" xlink:href="#DejaVuSans-99"/>
      <use x="428.857422" xlink:href="#DejaVuSans-97"/>
      <use x="490.136719" xlink:href="#DejaVuSans-108"/>
      <use x="517.919922" xlink:href="#DejaVuSans-95"/>
      <use x="567.919922" xlink:href="#DejaVuSans-115"/>
      <use x="620.019531" xlink:href="#DejaVuSans-99"/>
      <use x="675" xlink:href="#DejaVuSans-111"/>
      <use x="736.181641" xlink:href="#DejaVuSans-114"/>
      <use x="775.044922" xlink:href="#DejaVuSans-101"/>
      <use x="836.568359" xlink:href="#DejaVuSans-95"/>
      <use x="886.568359" xlink:href="#DejaVuSans-118"/>
      <use x="945.748047" xlink:href="#DejaVuSans-97"/>
      <use x="1007.027344" xlink:href="#DejaVuSans-108"/>
     </g>
    </g>
    <g id="line2d_28">
     <path d="M 52.78125 65.167187 
L 72.78125 65.167187 
" style="fill:none;stroke:#d62728;stroke-linecap:square;stroke-width:1.5;"/>
    </g>
    <g id="line2d_29"/>
    <g id="text_23">
     <!-- unet_correlation_score_val -->
     <g transform="translate(80.78125 68.667187)scale(0.1 -0.1)">
      <use xlink:href="#DejaVuSans-117"/>
      <use x="63.378906" xlink:href="#DejaVuSans-110"/>
      <use x="126.757812" xlink:href="#DejaVuSans-101"/>
      <use x="188.28125" xlink:href="#DejaVuSans-116"/>
      <use x="227.490234" xlink:href="#DejaVuSans-95"/>
      <use x="277.490234" xlink:href="#DejaVuSans-99"/>
      <use x="332.470703" xlink:href="#DejaVuSans-111"/>
      <use x="393.652344" xlink:href="#DejaVuSans-114"/>
      <use x="433.015625" xlink:href="#DejaVuSans-114"/>
      <use x="471.878906" xlink:href="#DejaVuSans-101"/>
      <use x="533.402344" xlink:href="#DejaVuSans-108"/>
      <use x="561.185547" xlink:href="#DejaVuSans-97"/>
      <use x="622.464844" xlink:href="#DejaVuSans-116"/>
      <use x="661.673828" xlink:href="#DejaVuSans-105"/>
      <use x="689.457031" xlink:href="#DejaVuSans-111"/>
      <use x="750.638672" xlink:href="#DejaVuSans-110"/>
      <use x="814.017578" xlink:href="#DejaVuSans-95"/>
      <use x="864.017578" xlink:href="#DejaVuSans-115"/>
      <use x="916.117188" xlink:href="#DejaVuSans-99"/>
      <use x="971.097656" xlink:href="#DejaVuSans-111"/>
      <use x="1032.279297" xlink:href="#DejaVuSans-114"/>
      <use x="1071.142578" xlink:href="#DejaVuSans-101"/>
      <use x="1132.666016" xlink:href="#DejaVuSans-95"/>
      <use x="1182.666016" xlink:href="#DejaVuSans-118"/>
      <use x="1241.845703" xlink:href="#DejaVuSans-97"/>
      <use x="1303.125" xlink:href="#DejaVuSans-108"/>
     </g>
    </g>
   </g>
  </g>
 </g>
 <defs>
  <clipPath id="peffcd88e95">
   <rect height="217.44" width="837" x="43.78125" y="7.2"/>
  </clipPath>
 </defs>
</svg>
