<?xml version="1.0" encoding="utf-8" standalone="no"?>
<!DOCTYPE svg PUBLIC "-//W3C//DTD SVG 1.1//EN"
  "http://www.w3.org/Graphics/SVG/1.1/DTD/svg11.dtd">
<!-- Created with matplotlib (https://matplotlib.org/) -->
<svg height="262.19625pt" version="1.1" viewBox="0 0 887.98125 262.19625" width="887.98125pt" xmlns="http://www.w3.org/2000/svg" xmlns:xlink="http://www.w3.org/1999/xlink">
 <metadata>
  <rdf:RDF xmlns:cc="http://creativecommons.org/ns#" xmlns:dc="http://purl.org/dc/elements/1.1/" xmlns:rdf="http://www.w3.org/1999/02/22-rdf-syntax-ns#">
   <cc:Work>
    <dc:type rdf:resource="http://purl.org/dc/dcmitype/StillImage"/>
    <dc:date>2020-12-16T15:40:14.705611</dc:date>
    <dc:format>image/svg+xml</dc:format>
    <dc:creator>
     <cc:Agent>
      <dc:title>Matplotlib v3.3.3, https://matplotlib.org/</dc:title>
     </cc:Agent>
    </dc:creator>
   </cc:Work>
  </rdf:RDF>
 </metadata>
 <defs>
  <style type="text/css">*{stroke-linecap:butt;stroke-linejoin:round;}</style>
 </defs>
 <g id="figure_1">
  <g id="patch_1">
   <path d="M 0 262.19625 
L 887.98125 262.19625 
L 887.98125 0 
L 0 0 
z
" style="fill:none;"/>
  </g>
  <g id="axes_1">
   <g id="patch_2">
    <path d="M 43.78125 224.64 
L 880.78125 224.64 
L 880.78125 7.2 
L 43.78125 7.2 
z
" style="fill:#ffffff;"/>
   </g>
   <g id="matplotlib.axis_1">
    <g id="xtick_1">
     <g id="line2d_1">
      <defs>
       <path d="M 0 0 
L 0 3.5 
" id="m8b43eacf90" style="stroke:#000000;stroke-width:0.8;"/>
      </defs>
      <g>
       <use style="stroke:#000000;stroke-width:0.8;" x="81.826705" xlink:href="#m8b43eacf90" y="224.64"/>
      </g>
     </g>
     <g id="text_1">
      <!-- 0 -->
      <g transform="translate(78.645455 239.238438)scale(0.1 -0.1)">
       <defs>
        <path d="M 31.78125 66.40625 
Q 24.171875 66.40625 20.328125 58.90625 
Q 16.5 51.421875 16.5 36.375 
Q 16.5 21.390625 20.328125 13.890625 
Q 24.171875 6.390625 31.78125 6.390625 
Q 39.453125 6.390625 43.28125 13.890625 
Q 47.125 21.390625 47.125 36.375 
Q 47.125 51.421875 43.28125 58.90625 
Q 39.453125 66.40625 31.78125 66.40625 
z
M 31.78125 74.21875 
Q 44.046875 74.21875 50.515625 64.515625 
Q 56.984375 54.828125 56.984375 36.375 
Q 56.984375 17.96875 50.515625 8.265625 
Q 44.046875 -1.421875 31.78125 -1.421875 
Q 19.53125 -1.421875 13.0625 8.265625 
Q 6.59375 17.96875 6.59375 36.375 
Q 6.59375 54.828125 13.0625 64.515625 
Q 19.53125 74.21875 31.78125 74.21875 
z
" id="DejaVuSans-48"/>
       </defs>
       <use xlink:href="#DejaVuSans-48"/>
      </g>
     </g>
    </g>
    <g id="xtick_2">
     <g id="line2d_2">
      <g>
       <use style="stroke:#000000;stroke-width:0.8;" x="177.418299" xlink:href="#m8b43eacf90" y="224.64"/>
      </g>
     </g>
     <g id="text_2">
      <!-- 25 -->
      <g transform="translate(171.055799 239.238438)scale(0.1 -0.1)">
       <defs>
        <path d="M 19.1875 8.296875 
L 53.609375 8.296875 
L 53.609375 0 
L 7.328125 0 
L 7.328125 8.296875 
Q 12.9375 14.109375 22.625 23.890625 
Q 32.328125 33.6875 34.8125 36.53125 
Q 39.546875 41.84375 41.421875 45.53125 
Q 43.3125 49.21875 43.3125 52.78125 
Q 43.3125 58.59375 39.234375 62.25 
Q 35.15625 65.921875 28.609375 65.921875 
Q 23.96875 65.921875 18.8125 64.3125 
Q 13.671875 62.703125 7.8125 59.421875 
L 7.8125 69.390625 
Q 13.765625 71.78125 18.9375 73 
Q 24.125 74.21875 28.421875 74.21875 
Q 39.75 74.21875 46.484375 68.546875 
Q 53.21875 62.890625 53.21875 53.421875 
Q 53.21875 48.921875 51.53125 44.890625 
Q 49.859375 40.875 45.40625 35.40625 
Q 44.1875 33.984375 37.640625 27.21875 
Q 31.109375 20.453125 19.1875 8.296875 
z
" id="DejaVuSans-50"/>
        <path d="M 10.796875 72.90625 
L 49.515625 72.90625 
L 49.515625 64.59375 
L 19.828125 64.59375 
L 19.828125 46.734375 
Q 21.96875 47.46875 24.109375 47.828125 
Q 26.265625 48.1875 28.421875 48.1875 
Q 40.625 48.1875 47.75 41.5 
Q 54.890625 34.8125 54.890625 23.390625 
Q 54.890625 11.625 47.5625 5.09375 
Q 40.234375 -1.421875 26.90625 -1.421875 
Q 22.3125 -1.421875 17.546875 -0.640625 
Q 12.796875 0.140625 7.71875 1.703125 
L 7.71875 11.625 
Q 12.109375 9.234375 16.796875 8.0625 
Q 21.484375 6.890625 26.703125 6.890625 
Q 35.15625 6.890625 40.078125 11.328125 
Q 45.015625 15.765625 45.015625 23.390625 
Q 45.015625 31 40.078125 35.4375 
Q 35.15625 39.890625 26.703125 39.890625 
Q 22.75 39.890625 18.8125 39.015625 
Q 14.890625 38.140625 10.796875 36.28125 
z
" id="DejaVuSans-53"/>
       </defs>
       <use xlink:href="#DejaVuSans-50"/>
       <use x="63.623047" xlink:href="#DejaVuSans-53"/>
      </g>
     </g>
    </g>
    <g id="xtick_3">
     <g id="line2d_3">
      <g>
       <use style="stroke:#000000;stroke-width:0.8;" x="273.009893" xlink:href="#m8b43eacf90" y="224.64"/>
      </g>
     </g>
     <g id="text_3">
      <!-- 50 -->
      <g transform="translate(266.647393 239.238438)scale(0.1 -0.1)">
       <use xlink:href="#DejaVuSans-53"/>
       <use x="63.623047" xlink:href="#DejaVuSans-48"/>
      </g>
     </g>
    </g>
    <g id="xtick_4">
     <g id="line2d_4">
      <g>
       <use style="stroke:#000000;stroke-width:0.8;" x="368.601488" xlink:href="#m8b43eacf90" y="224.64"/>
      </g>
     </g>
     <g id="text_4">
      <!-- 75 -->
      <g transform="translate(362.238988 239.238438)scale(0.1 -0.1)">
       <defs>
        <path d="M 8.203125 72.90625 
L 55.078125 72.90625 
L 55.078125 68.703125 
L 28.609375 0 
L 18.3125 0 
L 43.21875 64.59375 
L 8.203125 64.59375 
z
" id="DejaVuSans-55"/>
       </defs>
       <use xlink:href="#DejaVuSans-55"/>
       <use x="63.623047" xlink:href="#DejaVuSans-53"/>
      </g>
     </g>
    </g>
    <g id="xtick_5">
     <g id="line2d_5">
      <g>
       <use style="stroke:#000000;stroke-width:0.8;" x="464.193082" xlink:href="#m8b43eacf90" y="224.64"/>
      </g>
     </g>
     <g id="text_5">
      <!-- 100 -->
      <g transform="translate(454.649332 239.238438)scale(0.1 -0.1)">
       <defs>
        <path d="M 12.40625 8.296875 
L 28.515625 8.296875 
L 28.515625 63.921875 
L 10.984375 60.40625 
L 10.984375 69.390625 
L 28.421875 72.90625 
L 38.28125 72.90625 
L 38.28125 8.296875 
L 54.390625 8.296875 
L 54.390625 0 
L 12.40625 0 
z
" id="DejaVuSans-49"/>
       </defs>
       <use xlink:href="#DejaVuSans-49"/>
       <use x="63.623047" xlink:href="#DejaVuSans-48"/>
       <use x="127.246094" xlink:href="#DejaVuSans-48"/>
      </g>
     </g>
    </g>
    <g id="xtick_6">
     <g id="line2d_6">
      <g>
       <use style="stroke:#000000;stroke-width:0.8;" x="559.784676" xlink:href="#m8b43eacf90" y="224.64"/>
      </g>
     </g>
     <g id="text_6">
      <!-- 125 -->
      <g transform="translate(550.240926 239.238438)scale(0.1 -0.1)">
       <use xlink:href="#DejaVuSans-49"/>
       <use x="63.623047" xlink:href="#DejaVuSans-50"/>
       <use x="127.246094" xlink:href="#DejaVuSans-53"/>
      </g>
     </g>
    </g>
    <g id="xtick_7">
     <g id="line2d_7">
      <g>
       <use style="stroke:#000000;stroke-width:0.8;" x="655.376271" xlink:href="#m8b43eacf90" y="224.64"/>
      </g>
     </g>
     <g id="text_7">
      <!-- 150 -->
      <g transform="translate(645.832521 239.238438)scale(0.1 -0.1)">
       <use xlink:href="#DejaVuSans-49"/>
       <use x="63.623047" xlink:href="#DejaVuSans-53"/>
       <use x="127.246094" xlink:href="#DejaVuSans-48"/>
      </g>
     </g>
    </g>
    <g id="xtick_8">
     <g id="line2d_8">
      <g>
       <use style="stroke:#000000;stroke-width:0.8;" x="750.967865" xlink:href="#m8b43eacf90" y="224.64"/>
      </g>
     </g>
     <g id="text_8">
      <!-- 175 -->
      <g transform="translate(741.424115 239.238438)scale(0.1 -0.1)">
       <use xlink:href="#DejaVuSans-49"/>
       <use x="63.623047" xlink:href="#DejaVuSans-55"/>
       <use x="127.246094" xlink:href="#DejaVuSans-53"/>
      </g>
     </g>
    </g>
    <g id="xtick_9">
     <g id="line2d_9">
      <g>
       <use style="stroke:#000000;stroke-width:0.8;" x="846.559459" xlink:href="#m8b43eacf90" y="224.64"/>
      </g>
     </g>
     <g id="text_9">
      <!-- 200 -->
      <g transform="translate(837.015709 239.238438)scale(0.1 -0.1)">
       <use xlink:href="#DejaVuSans-50"/>
       <use x="63.623047" xlink:href="#DejaVuSans-48"/>
       <use x="127.246094" xlink:href="#DejaVuSans-48"/>
      </g>
     </g>
    </g>
    <g id="text_10">
     <!-- epoch -->
     <g transform="translate(447.053125 252.916563)scale(0.1 -0.1)">
      <defs>
       <path d="M 56.203125 29.59375 
L 56.203125 25.203125 
L 14.890625 25.203125 
Q 15.484375 15.921875 20.484375 11.0625 
Q 25.484375 6.203125 34.421875 6.203125 
Q 39.59375 6.203125 44.453125 7.46875 
Q 49.3125 8.734375 54.109375 11.28125 
L 54.109375 2.78125 
Q 49.265625 0.734375 44.1875 -0.34375 
Q 39.109375 -1.421875 33.890625 -1.421875 
Q 20.796875 -1.421875 13.15625 6.1875 
Q 5.515625 13.8125 5.515625 26.8125 
Q 5.515625 40.234375 12.765625 48.109375 
Q 20.015625 56 32.328125 56 
Q 43.359375 56 49.78125 48.890625 
Q 56.203125 41.796875 56.203125 29.59375 
z
M 47.21875 32.234375 
Q 47.125 39.59375 43.09375 43.984375 
Q 39.0625 48.390625 32.421875 48.390625 
Q 24.90625 48.390625 20.390625 44.140625 
Q 15.875 39.890625 15.1875 32.171875 
z
" id="DejaVuSans-101"/>
       <path d="M 18.109375 8.203125 
L 18.109375 -20.796875 
L 9.078125 -20.796875 
L 9.078125 54.6875 
L 18.109375 54.6875 
L 18.109375 46.390625 
Q 20.953125 51.265625 25.265625 53.625 
Q 29.59375 56 35.59375 56 
Q 45.5625 56 51.78125 48.09375 
Q 58.015625 40.1875 58.015625 27.296875 
Q 58.015625 14.40625 51.78125 6.484375 
Q 45.5625 -1.421875 35.59375 -1.421875 
Q 29.59375 -1.421875 25.265625 0.953125 
Q 20.953125 3.328125 18.109375 8.203125 
z
M 48.6875 27.296875 
Q 48.6875 37.203125 44.609375 42.84375 
Q 40.53125 48.484375 33.40625 48.484375 
Q 26.265625 48.484375 22.1875 42.84375 
Q 18.109375 37.203125 18.109375 27.296875 
Q 18.109375 17.390625 22.1875 11.75 
Q 26.265625 6.109375 33.40625 6.109375 
Q 40.53125 6.109375 44.609375 11.75 
Q 48.6875 17.390625 48.6875 27.296875 
z
" id="DejaVuSans-112"/>
       <path d="M 30.609375 48.390625 
Q 23.390625 48.390625 19.1875 42.75 
Q 14.984375 37.109375 14.984375 27.296875 
Q 14.984375 17.484375 19.15625 11.84375 
Q 23.34375 6.203125 30.609375 6.203125 
Q 37.796875 6.203125 41.984375 11.859375 
Q 46.1875 17.53125 46.1875 27.296875 
Q 46.1875 37.015625 41.984375 42.703125 
Q 37.796875 48.390625 30.609375 48.390625 
z
M 30.609375 56 
Q 42.328125 56 49.015625 48.375 
Q 55.71875 40.765625 55.71875 27.296875 
Q 55.71875 13.875 49.015625 6.21875 
Q 42.328125 -1.421875 30.609375 -1.421875 
Q 18.84375 -1.421875 12.171875 6.21875 
Q 5.515625 13.875 5.515625 27.296875 
Q 5.515625 40.765625 12.171875 48.375 
Q 18.84375 56 30.609375 56 
z
" id="DejaVuSans-111"/>
       <path d="M 48.78125 52.59375 
L 48.78125 44.1875 
Q 44.96875 46.296875 41.140625 47.34375 
Q 37.3125 48.390625 33.40625 48.390625 
Q 24.65625 48.390625 19.8125 42.84375 
Q 14.984375 37.3125 14.984375 27.296875 
Q 14.984375 17.28125 19.8125 11.734375 
Q 24.65625 6.203125 33.40625 6.203125 
Q 37.3125 6.203125 41.140625 7.25 
Q 44.96875 8.296875 48.78125 10.40625 
L 48.78125 2.09375 
Q 45.015625 0.34375 40.984375 -0.53125 
Q 36.96875 -1.421875 32.421875 -1.421875 
Q 20.0625 -1.421875 12.78125 6.34375 
Q 5.515625 14.109375 5.515625 27.296875 
Q 5.515625 40.671875 12.859375 48.328125 
Q 20.21875 56 33.015625 56 
Q 37.15625 56 41.109375 55.140625 
Q 45.0625 54.296875 48.78125 52.59375 
z
" id="DejaVuSans-99"/>
       <path d="M 54.890625 33.015625 
L 54.890625 0 
L 45.90625 0 
L 45.90625 32.71875 
Q 45.90625 40.484375 42.875 44.328125 
Q 39.84375 48.1875 33.796875 48.1875 
Q 26.515625 48.1875 22.3125 43.546875 
Q 18.109375 38.921875 18.109375 30.90625 
L 18.109375 0 
L 9.078125 0 
L 9.078125 75.984375 
L 18.109375 75.984375 
L 18.109375 46.1875 
Q 21.34375 51.125 25.703125 53.5625 
Q 30.078125 56 35.796875 56 
Q 45.21875 56 50.046875 50.171875 
Q 54.890625 44.34375 54.890625 33.015625 
z
" id="DejaVuSans-104"/>
      </defs>
      <use xlink:href="#DejaVuSans-101"/>
      <use x="61.523438" xlink:href="#DejaVuSans-112"/>
      <use x="125" xlink:href="#DejaVuSans-111"/>
      <use x="186.181641" xlink:href="#DejaVuSans-99"/>
      <use x="241.162109" xlink:href="#DejaVuSans-104"/>
     </g>
    </g>
   </g>
   <g id="matplotlib.axis_2">
    <g id="ytick_1">
     <g id="line2d_10">
      <defs>
       <path d="M 0 0 
L -3.5 0 
" id="m6e983ec74c" style="stroke:#000000;stroke-width:0.8;"/>
      </defs>
      <g>
       <use style="stroke:#000000;stroke-width:0.8;" x="43.78125" xlink:href="#m6e983ec74c" y="220.09887"/>
      </g>
     </g>
     <g id="text_11">
      <!-- 0.0 -->
      <g transform="translate(20.878125 223.898089)scale(0.1 -0.1)">
       <defs>
        <path d="M 10.6875 12.40625 
L 21 12.40625 
L 21 0 
L 10.6875 0 
z
" id="DejaVuSans-46"/>
       </defs>
       <use xlink:href="#DejaVuSans-48"/>
       <use x="63.623047" xlink:href="#DejaVuSans-46"/>
       <use x="95.410156" xlink:href="#DejaVuSans-48"/>
      </g>
     </g>
    </g>
    <g id="ytick_2">
     <g id="line2d_11">
      <g>
       <use style="stroke:#000000;stroke-width:0.8;" x="43.78125" xlink:href="#m6e983ec74c" y="193.386341"/>
      </g>
     </g>
     <g id="text_12">
      <!-- 0.1 -->
      <g transform="translate(20.878125 197.18556)scale(0.1 -0.1)">
       <use xlink:href="#DejaVuSans-48"/>
       <use x="63.623047" xlink:href="#DejaVuSans-46"/>
       <use x="95.410156" xlink:href="#DejaVuSans-49"/>
      </g>
     </g>
    </g>
    <g id="ytick_3">
     <g id="line2d_12">
      <g>
       <use style="stroke:#000000;stroke-width:0.8;" x="43.78125" xlink:href="#m6e983ec74c" y="166.673812"/>
      </g>
     </g>
     <g id="text_13">
      <!-- 0.2 -->
      <g transform="translate(20.878125 170.473031)scale(0.1 -0.1)">
       <use xlink:href="#DejaVuSans-48"/>
       <use x="63.623047" xlink:href="#DejaVuSans-46"/>
       <use x="95.410156" xlink:href="#DejaVuSans-50"/>
      </g>
     </g>
    </g>
    <g id="ytick_4">
     <g id="line2d_13">
      <g>
       <use style="stroke:#000000;stroke-width:0.8;" x="43.78125" xlink:href="#m6e983ec74c" y="139.961283"/>
      </g>
     </g>
     <g id="text_14">
      <!-- 0.3 -->
      <g transform="translate(20.878125 143.760502)scale(0.1 -0.1)">
       <defs>
        <path d="M 40.578125 39.3125 
Q 47.65625 37.796875 51.625 33 
Q 55.609375 28.21875 55.609375 21.1875 
Q 55.609375 10.40625 48.1875 4.484375 
Q 40.765625 -1.421875 27.09375 -1.421875 
Q 22.515625 -1.421875 17.65625 -0.515625 
Q 12.796875 0.390625 7.625 2.203125 
L 7.625 11.71875 
Q 11.71875 9.328125 16.59375 8.109375 
Q 21.484375 6.890625 26.8125 6.890625 
Q 36.078125 6.890625 40.9375 10.546875 
Q 45.796875 14.203125 45.796875 21.1875 
Q 45.796875 27.640625 41.28125 31.265625 
Q 36.765625 34.90625 28.71875 34.90625 
L 20.21875 34.90625 
L 20.21875 43.015625 
L 29.109375 43.015625 
Q 36.375 43.015625 40.234375 45.921875 
Q 44.09375 48.828125 44.09375 54.296875 
Q 44.09375 59.90625 40.109375 62.90625 
Q 36.140625 65.921875 28.71875 65.921875 
Q 24.65625 65.921875 20.015625 65.03125 
Q 15.375 64.15625 9.8125 62.3125 
L 9.8125 71.09375 
Q 15.4375 72.65625 20.34375 73.4375 
Q 25.25 74.21875 29.59375 74.21875 
Q 40.828125 74.21875 47.359375 69.109375 
Q 53.90625 64.015625 53.90625 55.328125 
Q 53.90625 49.265625 50.4375 45.09375 
Q 46.96875 40.921875 40.578125 39.3125 
z
" id="DejaVuSans-51"/>
       </defs>
       <use xlink:href="#DejaVuSans-48"/>
       <use x="63.623047" xlink:href="#DejaVuSans-46"/>
       <use x="95.410156" xlink:href="#DejaVuSans-51"/>
      </g>
     </g>
    </g>
    <g id="ytick_5">
     <g id="line2d_14">
      <g>
       <use style="stroke:#000000;stroke-width:0.8;" x="43.78125" xlink:href="#m6e983ec74c" y="113.248754"/>
      </g>
     </g>
     <g id="text_15">
      <!-- 0.4 -->
      <g transform="translate(20.878125 117.047973)scale(0.1 -0.1)">
       <defs>
        <path d="M 37.796875 64.3125 
L 12.890625 25.390625 
L 37.796875 25.390625 
z
M 35.203125 72.90625 
L 47.609375 72.90625 
L 47.609375 25.390625 
L 58.015625 25.390625 
L 58.015625 17.1875 
L 47.609375 17.1875 
L 47.609375 0 
L 37.796875 0 
L 37.796875 17.1875 
L 4.890625 17.1875 
L 4.890625 26.703125 
z
" id="DejaVuSans-52"/>
       </defs>
       <use xlink:href="#DejaVuSans-48"/>
       <use x="63.623047" xlink:href="#DejaVuSans-46"/>
       <use x="95.410156" xlink:href="#DejaVuSans-52"/>
      </g>
     </g>
    </g>
    <g id="ytick_6">
     <g id="line2d_15">
      <g>
       <use style="stroke:#000000;stroke-width:0.8;" x="43.78125" xlink:href="#m6e983ec74c" y="86.536225"/>
      </g>
     </g>
     <g id="text_16">
      <!-- 0.5 -->
      <g transform="translate(20.878125 90.335444)scale(0.1 -0.1)">
       <use xlink:href="#DejaVuSans-48"/>
       <use x="63.623047" xlink:href="#DejaVuSans-46"/>
       <use x="95.410156" xlink:href="#DejaVuSans-53"/>
      </g>
     </g>
    </g>
    <g id="ytick_7">
     <g id="line2d_16">
      <g>
       <use style="stroke:#000000;stroke-width:0.8;" x="43.78125" xlink:href="#m6e983ec74c" y="59.823696"/>
      </g>
     </g>
     <g id="text_17">
      <!-- 0.6 -->
      <g transform="translate(20.878125 63.622915)scale(0.1 -0.1)">
       <defs>
        <path d="M 33.015625 40.375 
Q 26.375 40.375 22.484375 35.828125 
Q 18.609375 31.296875 18.609375 23.390625 
Q 18.609375 15.53125 22.484375 10.953125 
Q 26.375 6.390625 33.015625 6.390625 
Q 39.65625 6.390625 43.53125 10.953125 
Q 47.40625 15.53125 47.40625 23.390625 
Q 47.40625 31.296875 43.53125 35.828125 
Q 39.65625 40.375 33.015625 40.375 
z
M 52.59375 71.296875 
L 52.59375 62.3125 
Q 48.875 64.0625 45.09375 64.984375 
Q 41.3125 65.921875 37.59375 65.921875 
Q 27.828125 65.921875 22.671875 59.328125 
Q 17.53125 52.734375 16.796875 39.40625 
Q 19.671875 43.65625 24.015625 45.921875 
Q 28.375 48.1875 33.59375 48.1875 
Q 44.578125 48.1875 50.953125 41.515625 
Q 57.328125 34.859375 57.328125 23.390625 
Q 57.328125 12.15625 50.6875 5.359375 
Q 44.046875 -1.421875 33.015625 -1.421875 
Q 20.359375 -1.421875 13.671875 8.265625 
Q 6.984375 17.96875 6.984375 36.375 
Q 6.984375 53.65625 15.1875 63.9375 
Q 23.390625 74.21875 37.203125 74.21875 
Q 40.921875 74.21875 44.703125 73.484375 
Q 48.484375 72.75 52.59375 71.296875 
z
" id="DejaVuSans-54"/>
       </defs>
       <use xlink:href="#DejaVuSans-48"/>
       <use x="63.623047" xlink:href="#DejaVuSans-46"/>
       <use x="95.410156" xlink:href="#DejaVuSans-54"/>
      </g>
     </g>
    </g>
    <g id="ytick_8">
     <g id="line2d_17">
      <g>
       <use style="stroke:#000000;stroke-width:0.8;" x="43.78125" xlink:href="#m6e983ec74c" y="33.111167"/>
      </g>
     </g>
     <g id="text_18">
      <!-- 0.7 -->
      <g transform="translate(20.878125 36.910386)scale(0.1 -0.1)">
       <use xlink:href="#DejaVuSans-48"/>
       <use x="63.623047" xlink:href="#DejaVuSans-46"/>
       <use x="95.410156" xlink:href="#DejaVuSans-55"/>
      </g>
     </g>
    </g>
    <g id="text_19">
     <!-- score -->
     <g transform="translate(14.798438 129.352813)rotate(-90)scale(0.1 -0.1)">
      <defs>
       <path d="M 44.28125 53.078125 
L 44.28125 44.578125 
Q 40.484375 46.53125 36.375 47.5 
Q 32.28125 48.484375 27.875 48.484375 
Q 21.1875 48.484375 17.84375 46.4375 
Q 14.5 44.390625 14.5 40.28125 
Q 14.5 37.15625 16.890625 35.375 
Q 19.28125 33.59375 26.515625 31.984375 
L 29.59375 31.296875 
Q 39.15625 29.25 43.1875 25.515625 
Q 47.21875 21.78125 47.21875 15.09375 
Q 47.21875 7.46875 41.1875 3.015625 
Q 35.15625 -1.421875 24.609375 -1.421875 
Q 20.21875 -1.421875 15.453125 -0.5625 
Q 10.6875 0.296875 5.421875 2 
L 5.421875 11.28125 
Q 10.40625 8.6875 15.234375 7.390625 
Q 20.0625 6.109375 24.8125 6.109375 
Q 31.15625 6.109375 34.5625 8.28125 
Q 37.984375 10.453125 37.984375 14.40625 
Q 37.984375 18.0625 35.515625 20.015625 
Q 33.0625 21.96875 24.703125 23.78125 
L 21.578125 24.515625 
Q 13.234375 26.265625 9.515625 29.90625 
Q 5.8125 33.546875 5.8125 39.890625 
Q 5.8125 47.609375 11.28125 51.796875 
Q 16.75 56 26.8125 56 
Q 31.78125 56 36.171875 55.265625 
Q 40.578125 54.546875 44.28125 53.078125 
z
" id="DejaVuSans-115"/>
       <path d="M 41.109375 46.296875 
Q 39.59375 47.171875 37.8125 47.578125 
Q 36.03125 48 33.890625 48 
Q 26.265625 48 22.1875 43.046875 
Q 18.109375 38.09375 18.109375 28.8125 
L 18.109375 0 
L 9.078125 0 
L 9.078125 54.6875 
L 18.109375 54.6875 
L 18.109375 46.1875 
Q 20.953125 51.171875 25.484375 53.578125 
Q 30.03125 56 36.53125 56 
Q 37.453125 56 38.578125 55.875 
Q 39.703125 55.765625 41.0625 55.515625 
z
" id="DejaVuSans-114"/>
      </defs>
      <use xlink:href="#DejaVuSans-115"/>
      <use x="52.099609" xlink:href="#DejaVuSans-99"/>
      <use x="107.080078" xlink:href="#DejaVuSans-111"/>
      <use x="168.261719" xlink:href="#DejaVuSans-114"/>
      <use x="207.125" xlink:href="#DejaVuSans-101"/>
     </g>
    </g>
   </g>
   <g id="line2d_18">
    <path clip-path="url(#p0fcc53320e)" d="M 81.826705 142.098283 
L 85.650368 123.933762 
L 89.474032 138.892778 
L 93.297696 119.659756 
L 97.12136 90.275976 
L 100.945023 137.824278 
L 104.768687 89.741721 
L 108.592351 81.193713 
L 112.416015 91.34448 
L 116.239679 85.467717 
L 120.063342 87.604716 
L 123.887006 76.385456 
L 127.71067 83.864968 
L 131.534334 77.453963 
L 135.357997 92.412979 
L 139.181661 87.604725 
L 146.828989 66.234698 
L 150.652652 81.72797 
L 154.476316 86.53622 
L 158.29998 98.289735 
L 162.123644 93.481479 
L 165.947308 81.727963 
L 169.770971 73.179956 
L 173.594635 94.549979 
L 177.418299 87.604716 
L 181.241963 77.453961 
L 185.065626 84.399218 
L 188.88929 79.05671 
L 192.712954 82.79646 
L 200.360282 73.179954 
L 204.183945 94.549981 
L 208.007609 79.056707 
L 211.831273 81.727965 
L 215.654937 82.262212 
L 219.4786 80.659458 
L 223.302264 82.796467 
L 227.125928 80.125215 
L 230.949592 80.125211 
L 234.773255 89.207472 
L 238.596919 85.46772 
L 242.420583 77.453956 
L 246.244247 87.07047 
L 250.067911 89.207471 
L 253.891574 68.90595 
L 257.715238 66.234703 
L 261.538902 82.796467 
L 265.362566 72.111464 
L 269.186229 65.166187 
L 273.009893 71.577206 
L 276.833557 73.179959 
L 280.657221 80.125208 
L 284.480885 74.248454 
L 288.304548 78.522461 
L 292.128212 76.385463 
L 295.951876 71.042951 
L 299.77554 63.563443 
L 303.599203 63.029196 
L 307.422867 76.919709 
L 311.246531 58.220935 
L 315.070195 69.440199 
L 318.893858 61.960693 
L 322.717522 68.90595 
L 326.541186 66.2347 
L 330.36485 75.316958 
L 334.188514 58.755186 
L 338.012177 59.28944 
L 341.835841 67.303191 
L 345.659505 79.590958 
L 349.483169 67.3032 
L 353.306832 75.316958 
L 357.130496 87.07047 
L 360.95416 70.508705 
L 364.777824 58.755193 
L 368.601488 72.645706 
L 372.425151 48.604429 
L 376.248815 53.412679 
L 380.072479 58.755191 
L 383.896143 52.344176 
L 387.719806 52.878431 
L 391.54347 47.001663 
L 395.367134 41.659168 
L 399.190798 87.60472 
L 403.014462 45.398928 
L 406.838125 35.248167 
L 410.661789 37.385164 
L 414.485453 37.919415 
L 418.309117 42.193418 
L 422.13278 33.645404 
L 425.956444 33.111158 
L 429.780108 35.782417 
L 433.603772 31.508411 
L 437.427435 43.796172 
L 441.251099 34.179661 
L 445.074763 66.768953 
L 448.898427 42.727668 
L 452.722091 45.398919 
L 456.545754 44.864672 
L 460.369418 34.179661 
L 464.193082 37.919411 
L 468.016746 33.645408 
L 471.840409 30.97416 
L 475.664073 32.576904 
L 479.487737 20.823403 
L 483.311401 38.987918 
L 487.135065 20.289143 
L 490.958728 29.371404 
L 494.782392 27.234407 
L 498.606056 26.1659 
L 502.42972 21.357646 
L 506.253383 23.49465 
L 510.077047 21.89189 
L 513.900711 23.494647 
L 517.724375 27.768654 
L 521.548038 27.768654 
L 525.371702 26.70015 
L 529.195366 27.768654 
L 533.01903 33.111161 
L 536.842694 23.494647 
L 540.666357 28.302904 
L 544.490021 25.631653 
L 548.313685 27.234407 
L 552.137349 23.494647 
L 555.961012 23.494656 
L 559.784676 26.70015 
L 563.60834 25.631647 
L 567.432004 20.289146 
L 571.255668 23.49465 
L 575.079331 22.426147 
L 578.902995 28.302901 
L 582.726659 22.960403 
L 586.550323 19.754903 
L 590.373986 22.42615 
L 598.021314 24.563153 
L 601.844978 26.165903 
L 605.668642 28.837151 
L 609.492305 26.16591 
L 613.315969 25.097403 
L 617.139633 22.960403 
L 620.963297 26.165907 
L 624.78696 25.097407 
L 628.610624 25.097403 
L 632.434288 19.754896 
L 636.257952 23.494656 
L 640.081615 22.426143 
L 643.905279 18.152149 
L 647.728943 21.357653 
L 651.552607 23.49465 
L 655.376271 18.686393 
L 659.199934 18.686399 
L 663.023598 17.617896 
L 666.847262 19.220643 
L 670.670926 17.61789 
L 678.318253 20.823393 
L 682.141917 18.686399 
L 685.965581 20.8234 
L 689.789245 17.617893 
L 693.612908 17.083646 
L 697.436572 17.083636 
L 701.260236 20.289146 
L 705.0839 19.220646 
L 708.907563 20.289146 
L 712.731227 20.823393 
L 716.554891 19.220649 
L 720.378555 19.220649 
L 724.202218 22.426147 
L 728.025882 18.15214 
L 731.849546 20.28914 
L 735.67321 20.823393 
L 739.496874 20.28915 
L 743.320537 19.220646 
L 747.144201 19.754899 
L 750.967865 20.8234 
L 754.791529 22.42615 
L 758.615192 20.8234 
L 762.438856 20.823393 
L 766.26252 20.289143 
L 770.086184 20.823396 
L 777.733511 19.754899 
L 781.557175 18.686393 
L 785.380839 18.68639 
L 789.204503 17.617896 
L 793.028166 19.754893 
L 796.85183 19.754893 
L 800.675494 20.823403 
L 804.499158 19.220649 
L 808.322821 19.754903 
L 812.146485 21.8919 
L 815.970149 21.357646 
L 819.793813 20.289146 
L 823.617477 19.754903 
L 827.44114 24.0289 
L 831.264804 27.768657 
L 835.088468 20.82339 
L 838.912132 60.35794 
L 842.735795 112.180252 
L 842.735795 112.180252 
" style="fill:none;stroke:#1f77b4;stroke-linecap:square;stroke-width:1.5;"/>
   </g>
   <g id="line2d_19">
    <path clip-path="url(#p0fcc53320e)" d="M 81.826705 180.564325 
L 85.650368 160.797056 
L 89.474032 170.947815 
L 93.297696 153.317544 
L 97.12136 151.180542 
L 100.945023 175.756069 
L 104.768687 161.865556 
L 108.592351 200.331598 
L 112.416015 165.071061 
L 116.239679 214.756364 
L 120.063342 207.811106 
L 123.887006 211.01661 
L 127.71067 205.139853 
L 131.534334 209.413858 
L 135.357997 201.934349 
L 139.181661 202.4686 
L 143.005325 202.468601 
L 146.828989 203.537101 
L 150.652652 194.989091 
L 154.476316 196.057592 
L 158.29998 192.852088 
L 162.123644 196.591844 
L 165.947308 189.646585 
L 169.770971 191.783588 
L 173.594635 197.126094 
L 177.418299 186.975332 
L 181.241963 200.865848 
L 185.065626 186.975333 
L 188.88929 182.167079 
L 192.712954 196.057593 
L 200.360282 194.989092 
L 204.183945 196.057592 
L 208.007609 190.715086 
L 211.831273 190.715088 
L 215.654937 185.906831 
L 219.4786 186.441081 
L 223.302264 196.057593 
L 227.125928 199.797346 
L 230.949592 186.975333 
L 234.773255 168.276562 
L 238.596919 192.852089 
L 242.420583 174.153317 
L 246.244247 191.249338 
L 250.067911 165.605309 
L 253.891574 187.509584 
L 257.715238 199.263097 
L 261.538902 196.591844 
L 265.362566 186.975331 
L 269.186229 197.126094 
L 273.009893 193.92059 
L 276.833557 199.263096 
L 280.657221 198.194595 
L 284.480885 196.591843 
L 288.304548 194.454841 
L 292.128212 182.701329 
L 295.951876 183.769828 
L 299.77554 186.441083 
L 303.599203 196.591844 
L 307.422867 197.126094 
L 311.246531 189.646585 
L 318.893858 200.331598 
L 322.717522 199.797347 
L 326.541186 196.591843 
L 330.36485 197.126094 
L 334.188514 200.331598 
L 338.012177 194.454841 
L 341.835841 198.194595 
L 345.659505 194.989091 
L 349.483169 199.263096 
L 353.306832 200.865848 
L 357.130496 194.989092 
L 360.95416 184.83833 
L 368.601488 193.386341 
L 372.425151 186.975333 
L 376.248815 193.920589 
L 380.072479 195.523343 
L 383.896143 198.194595 
L 387.719806 192.317838 
L 391.54347 189.112335 
L 395.367134 188.578085 
L 403.014462 199.263097 
L 406.838125 193.386341 
L 410.661789 192.852089 
L 414.485453 184.30408 
L 418.309117 199.797347 
L 422.13278 201.400099 
L 425.956444 197.126094 
L 429.780108 196.591844 
L 433.603772 199.263096 
L 437.427435 194.454841 
L 441.251099 194.989091 
L 445.074763 200.865849 
L 448.898427 198.194595 
L 452.722091 193.38634 
L 456.545754 186.975332 
L 460.369418 189.112336 
L 464.193082 192.317839 
L 468.016746 200.865849 
L 471.840409 198.728847 
L 475.664073 202.4686 
L 479.487737 197.660345 
L 483.311401 201.400099 
L 487.135065 200.331598 
L 490.958728 201.934349 
L 494.782392 200.331598 
L 498.606056 201.93435 
L 502.42972 198.728846 
L 506.253383 194.454841 
L 510.077047 202.4686 
L 513.900711 202.4686 
L 517.724375 200.331597 
L 521.548038 199.263096 
L 525.371702 199.263096 
L 529.195366 200.865848 
L 533.01903 201.400098 
L 536.842694 200.331597 
L 540.666357 201.93435 
L 544.490021 202.4686 
L 548.313685 201.934349 
L 552.137349 197.660345 
L 555.961012 202.4686 
L 559.784676 202.4686 
L 563.60834 199.797347 
L 567.432004 201.93435 
L 571.255668 201.400099 
L 575.079331 199.797348 
L 578.902995 200.331598 
L 582.726659 201.934349 
L 586.550323 202.4686 
L 590.373986 202.4686 
L 594.19765 200.331597 
L 598.021314 202.4686 
L 601.844978 202.4686 
L 605.668642 201.93435 
L 609.492305 194.989092 
L 613.315969 199.797347 
L 617.139633 199.263097 
L 620.963297 201.93435 
L 624.78696 201.400099 
L 628.610624 202.4686 
L 632.434288 202.4686 
L 636.257952 200.865849 
L 640.081615 202.4686 
L 647.728943 202.4686 
L 651.552607 203.00285 
L 655.376271 202.4686 
L 659.199934 200.865848 
L 663.023598 201.93435 
L 666.847262 198.194595 
L 670.670926 202.4686 
L 674.494589 200.865848 
L 678.318253 199.797347 
L 682.141917 200.865847 
L 685.965581 202.4686 
L 689.789245 197.126094 
L 693.612908 202.4686 
L 697.436572 199.263096 
L 701.260236 202.4686 
L 705.0839 201.934349 
L 708.907563 200.865849 
L 712.731227 202.468601 
L 716.554891 201.93435 
L 720.378555 202.4686 
L 724.202218 202.4686 
L 728.025882 203.00285 
L 731.849546 201.934349 
L 735.67321 202.468599 
L 739.496874 202.4686 
L 743.320537 201.934348 
L 747.144201 202.468601 
L 758.615192 202.4686 
L 762.438856 198.194595 
L 766.26252 200.865849 
L 770.086184 202.4686 
L 773.909848 202.4686 
L 777.733511 199.263097 
L 781.557175 201.93435 
L 789.204503 203.002851 
L 793.028166 202.468601 
L 808.322821 202.4686 
L 812.146485 201.93435 
L 815.970149 202.4686 
L 842.735795 202.4686 
L 842.735795 202.4686 
" style="fill:none;stroke:#ff7f0e;stroke-linecap:square;stroke-width:1.5;"/>
   </g>
   <g id="line2d_20">
    <path clip-path="url(#p0fcc53320e)" d="M 81.826705 175.75607 
L 85.650368 209.413858 
L 89.474032 150.112041 
L 93.297696 153.317547 
L 97.12136 140.495531 
L 100.945023 210.482359 
L 104.768687 143.701036 
L 108.592351 118.057006 
L 112.416015 111.111749 
L 116.239679 141.564034 
L 120.063342 79.590963 
L 123.887006 92.947226 
L 127.71067 84.399215 
L 131.534334 74.782703 
L 135.357997 82.262213 
L 139.181661 89.207474 
L 143.005325 111.645997 
L 146.828989 74.248454 
L 150.652652 84.399218 
L 154.476316 74.782698 
L 158.29998 66.768949 
L 162.123644 76.919713 
L 165.947308 72.111459 
L 169.770971 74.248462 
L 173.594635 67.837447 
L 177.418299 72.645701 
L 181.241963 76.919713 
L 185.065626 79.590961 
L 188.88929 79.590961 
L 192.712954 77.45396 
L 196.536618 78.52246 
L 200.360282 99.892488 
L 204.183945 74.248458 
L 208.007609 79.590965 
L 211.831273 74.248456 
L 215.654937 74.782703 
L 219.4786 76.385458 
L 223.302264 82.262213 
L 227.125928 89.741724 
L 230.949592 76.385455 
L 234.773255 82.262218 
L 238.596919 72.645706 
L 242.420583 77.453956 
L 246.244247 69.440202 
L 250.067911 79.056707 
L 253.891574 71.577207 
L 257.715238 70.508704 
L 261.538902 71.577201 
L 265.362566 75.851209 
L 269.186229 89.207472 
L 273.009893 86.001966 
L 276.833557 76.385461 
L 280.657221 87.604725 
L 284.480885 80.659466 
L 288.304548 86.001969 
L 292.128212 79.056711 
L 295.951876 86.536217 
L 299.77554 73.714203 
L 303.599203 71.577198 
L 307.422867 84.933464 
L 311.246531 67.303194 
L 315.070195 76.385456 
L 318.893858 73.179957 
L 322.717522 81.727965 
L 326.541186 83.864967 
L 330.36485 75.851211 
L 334.188514 72.111454 
L 338.012177 71.577198 
L 341.835841 82.796465 
L 345.659505 105.234989 
L 349.483169 80.125213 
L 353.306832 76.385453 
L 357.130496 76.919706 
L 360.95416 81.193716 
L 364.777824 75.851208 
L 368.601488 77.988211 
L 372.425151 67.837447 
L 376.248815 82.796467 
L 383.896143 81.727963 
L 387.719806 84.93347 
L 391.54347 83.864965 
L 395.367134 86.001972 
L 399.190798 72.645706 
L 406.838125 73.714206 
L 410.661789 87.070466 
L 414.485453 74.248459 
L 418.309117 66.234695 
L 422.13278 72.645707 
L 425.956444 82.262218 
L 429.780108 73.714206 
L 433.603772 92.947227 
L 437.427435 83.330717 
L 441.251099 69.974452 
L 445.074763 86.536217 
L 448.898427 71.042954 
L 452.722091 69.440199 
L 456.545754 65.166197 
L 464.193082 84.399215 
L 468.016746 71.042946 
L 471.840409 165.071058 
L 475.664073 139.961281 
L 479.487737 141.564033 
L 483.311401 92.947226 
L 487.135065 102.56374 
L 490.958728 107.906242 
L 494.782392 96.68698 
L 498.606056 112.180243 
L 502.42972 90.275974 
L 506.253383 92.947224 
L 510.077047 86.001975 
L 513.900711 81.727965 
L 517.724375 73.714209 
L 521.548038 81.727963 
L 525.371702 88.138977 
L 529.195366 78.52246 
L 533.01903 82.796463 
L 536.842694 88.673228 
L 540.666357 79.056708 
L 544.490021 87.07047 
L 548.313685 82.262218 
L 552.137349 93.481478 
L 555.961012 86.001967 
L 559.784676 76.385458 
L 563.60834 61.960688 
L 567.432004 74.782706 
L 571.255668 86.536222 
L 575.079331 74.782704 
L 578.902995 71.577207 
L 582.726659 77.988206 
L 586.550323 83.330717 
L 590.373986 82.796465 
L 594.19765 80.659465 
L 598.021314 82.262209 
L 601.844978 88.138969 
L 605.668642 80.659465 
L 609.492305 78.522461 
L 613.315969 83.330717 
L 617.139633 87.604722 
L 620.963297 83.330717 
L 624.78696 86.536225 
L 628.610624 80.65946 
L 632.434288 84.399214 
L 636.257952 90.275976 
L 640.081615 76.385461 
L 643.905279 88.138969 
L 647.728943 83.864965 
L 651.552607 82.262218 
L 655.376271 89.207477 
L 659.199934 80.659463 
L 663.023598 84.93347 
L 666.847262 83.86497 
L 670.670926 94.015728 
L 674.494589 83.864968 
L 678.318253 82.796467 
L 682.141917 81.193712 
L 685.965581 92.412974 
L 689.789245 79.590961 
L 693.612908 76.919711 
L 697.436572 92.412974 
L 701.260236 88.138972 
L 705.0839 87.070472 
L 708.907563 83.864965 
L 712.731227 92.412979 
L 716.554891 80.659458 
L 720.378555 94.015724 
L 724.202218 79.056718 
L 728.025882 91.344472 
L 731.849546 84.399215 
L 735.67321 86.001969 
L 739.496874 94.549978 
L 743.320537 72.111454 
L 747.144201 80.659462 
L 750.967865 86.001969 
L 754.791529 88.673224 
L 758.615192 76.919708 
L 762.438856 81.193717 
L 766.26252 67.303203 
L 770.086184 115.385751 
L 773.909848 73.714207 
L 777.733511 95.084233 
L 781.557175 85.467715 
L 785.380839 71.577206 
L 789.204503 80.659462 
L 793.028166 79.056711 
L 796.85183 76.919705 
L 800.675494 82.262218 
L 808.322821 86.536219 
L 812.146485 74.782708 
L 815.970149 92.947226 
L 819.793813 79.056713 
L 823.617477 89.741722 
L 827.44114 91.878727 
L 831.264804 79.590961 
L 835.088468 83.330717 
L 838.912132 81.193716 
L 842.735795 90.275976 
L 842.735795 90.275976 
" style="fill:none;stroke:#2ca02c;stroke-linecap:square;stroke-width:1.5;"/>
   </g>
   <g id="line2d_21">
    <path clip-path="url(#p0fcc53320e)" d="M 81.826705 169.879314 
L 85.650368 205.674104 
L 89.474032 189.112335 
L 93.297696 178.961575 
L 97.12136 170.413565 
L 100.945023 167.208062 
L 104.768687 170.413564 
L 108.592351 152.783295 
L 112.416015 158.125801 
L 116.239679 164.002558 
L 120.063342 154.386048 
L 123.887006 163.468308 
L 127.71067 157.057299 
L 131.534334 167.208062 
L 135.357997 160.262805 
L 139.181661 157.591549 
L 143.005325 153.851795 
L 146.828989 146.906539 
L 150.652652 158.1258 
L 154.476316 146.372287 
L 158.29998 155.454548 
L 162.123644 166.139559 
L 165.947308 159.728552 
L 173.594635 152.249043 
L 177.418299 158.660052 
L 181.241963 150.112041 
L 185.065626 158.1258 
L 188.88929 169.879314 
L 192.712954 152.783295 
L 196.536618 166.139558 
L 200.360282 156.523052 
L 204.183945 151.714795 
L 208.007609 152.783296 
L 211.831273 154.920298 
L 215.654937 160.262801 
L 219.4786 150.646295 
L 223.302264 151.714792 
L 227.125928 158.125802 
L 230.949592 154.386044 
L 234.773255 159.194302 
L 238.596919 158.1258 
L 242.420583 153.317546 
L 246.244247 160.262805 
L 250.067911 150.112041 
L 253.891574 155.988799 
L 257.715238 159.194301 
L 261.538902 153.317544 
L 265.362566 157.591551 
L 273.009893 151.180544 
L 276.833557 160.262802 
L 280.657221 157.057298 
L 284.480885 148.50929 
L 288.304548 164.002558 
L 292.128212 146.372288 
L 295.951876 161.865555 
L 299.77554 152.249044 
L 303.599203 152.783295 
L 307.422867 149.577789 
L 311.246531 151.180543 
L 315.070195 149.043541 
L 318.893858 152.783294 
L 322.717522 153.317543 
L 326.541186 155.454546 
L 330.36485 155.454548 
L 334.188514 149.043543 
L 338.012177 160.797054 
L 341.835841 150.646295 
L 345.659505 162.399807 
L 349.483169 152.249045 
L 353.306832 158.66005 
L 357.130496 157.59155 
L 360.95416 155.988797 
L 364.777824 152.249043 
L 368.601488 165.071059 
L 372.425151 146.906538 
L 376.248815 153.851795 
L 380.072479 153.851795 
L 383.896143 152.249043 
L 387.719806 152.783293 
L 391.54347 148.509291 
L 395.367134 160.797054 
L 399.190798 151.180543 
L 403.014462 162.399807 
L 410.661789 155.988797 
L 414.485453 158.660049 
L 418.309117 151.714792 
L 422.13278 150.646293 
L 425.956444 154.920293 
L 429.780108 151.180542 
L 433.603772 156.523049 
L 437.427435 160.797053 
L 441.251099 145.303787 
L 445.074763 151.180541 
L 448.898427 159.728551 
L 452.722091 144.769532 
L 456.545754 140.495531 
L 460.369418 146.906537 
L 464.193082 158.125801 
L 468.016746 141.564035 
L 471.840409 143.166782 
L 475.664073 151.180546 
L 479.487737 150.646292 
L 483.311401 149.577791 
L 487.135065 145.838035 
L 490.958728 143.701035 
L 494.782392 150.112043 
L 498.606056 150.112043 
L 502.42972 152.783297 
L 506.253383 138.358526 
L 510.077047 154.920297 
L 513.900711 152.783296 
L 517.724375 139.427033 
L 521.548038 151.714792 
L 525.371702 159.728554 
L 529.195366 145.303786 
L 533.01903 140.495529 
L 536.842694 142.632532 
L 540.666357 148.50929 
L 544.490021 143.701036 
L 548.313685 146.37229 
L 552.137349 144.769534 
L 555.961012 145.838035 
L 559.784676 136.221528 
L 563.60834 140.495532 
L 567.432004 152.249043 
L 571.255668 153.851798 
L 575.079331 151.714794 
L 578.902995 150.646295 
L 582.726659 135.153027 
L 586.550323 138.89278 
L 590.373986 138.35853 
L 594.19765 153.851795 
L 598.021314 144.769538 
L 601.844978 145.303786 
L 605.668642 146.90654 
L 609.492305 143.701033 
L 613.315969 151.180542 
L 617.139633 143.166785 
L 620.963297 144.235282 
L 624.78696 142.098285 
L 628.610624 137.290025 
L 632.434288 139.427029 
L 636.257952 136.221524 
L 640.081615 143.701035 
L 643.905279 134.084523 
L 647.728943 157.057299 
L 651.552607 152.783294 
L 655.376271 139.427032 
L 659.199934 140.495528 
L 663.023598 142.632534 
L 666.847262 127.673517 
L 670.670926 136.221524 
L 674.494589 136.221524 
L 678.318253 145.838038 
L 682.141917 135.153024 
L 685.965581 142.098283 
L 689.789245 134.084523 
L 693.612908 138.892774 
L 697.436572 134.084523 
L 701.260236 139.961279 
L 705.0839 130.879017 
L 708.907563 122.865261 
L 712.731227 128.207765 
L 716.554891 137.290027 
L 720.378555 135.687273 
L 724.202218 138.358526 
L 728.025882 151.714791 
L 731.849546 155.454547 
L 739.496874 140.495527 
L 743.320537 142.632533 
L 747.144201 138.892778 
L 750.967865 144.769532 
L 754.791529 135.687277 
L 758.615192 155.454545 
L 762.438856 145.838037 
L 766.26252 134.084524 
L 770.086184 146.906537 
L 773.909848 149.57779 
L 777.733511 141.564028 
L 781.557175 132.481773 
L 785.380839 132.481774 
L 789.204503 135.153026 
L 793.028166 133.016022 
L 796.85183 139.427031 
L 800.675494 140.495532 
L 804.499158 131.947523 
L 808.322821 130.879019 
L 812.146485 143.166782 
L 815.970149 142.098282 
L 819.793813 125.536514 
L 823.617477 134.618774 
L 827.44114 137.290027 
L 831.264804 130.344766 
L 835.088468 130.879019 
L 838.912132 127.139265 
L 842.735795 131.947522 
L 842.735795 131.947522 
" style="fill:none;stroke:#d62728;stroke-linecap:square;stroke-width:1.5;"/>
   </g>
   <g id="patch_3">
    <path d="M 43.78125 224.64 
L 43.78125 7.2 
" style="fill:none;stroke:#000000;stroke-linecap:square;stroke-linejoin:miter;stroke-width:0.8;"/>
   </g>
   <g id="patch_4">
    <path d="M 880.78125 224.64 
L 880.78125 7.2 
" style="fill:none;stroke:#000000;stroke-linecap:square;stroke-linejoin:miter;stroke-width:0.8;"/>
   </g>
   <g id="patch_5">
    <path d="M 43.78125 224.64 
L 880.78125 224.64 
" style="fill:none;stroke:#000000;stroke-linecap:square;stroke-linejoin:miter;stroke-width:0.8;"/>
   </g>
   <g id="patch_6">
    <path d="M 43.78125 7.2 
L 880.78125 7.2 
" style="fill:none;stroke:#000000;stroke-linecap:square;stroke-linejoin:miter;stroke-width:0.8;"/>
   </g>
   <g id="legend_1">
    <g id="patch_7">
     <path d="M 50.78125 75.025 
L 222.235938 75.025 
Q 224.235938 75.025 224.235938 73.025 
L 224.235938 14.2 
Q 224.235938 12.2 222.235938 12.2 
L 50.78125 12.2 
Q 48.78125 12.2 48.78125 14.2 
L 48.78125 73.025 
Q 48.78125 75.025 50.78125 75.025 
z
" style="fill:#ffffff;opacity:0.8;stroke:#cccccc;stroke-linejoin:miter;"/>
    </g>
    <g id="line2d_22">
     <path d="M 52.78125 20.298438 
L 72.78125 20.298438 
" style="fill:none;stroke:#1f77b4;stroke-linecap:square;stroke-width:1.5;"/>
    </g>
    <g id="line2d_23"/>
    <g id="text_20">
     <!-- unet2_bce_score_val -->
     <g transform="translate(80.78125 23.798438)scale(0.1 -0.1)">
      <defs>
       <path d="M 8.5 21.578125 
L 8.5 54.6875 
L 17.484375 54.6875 
L 17.484375 21.921875 
Q 17.484375 14.15625 20.5 10.265625 
Q 23.53125 6.390625 29.59375 6.390625 
Q 36.859375 6.390625 41.078125 11.03125 
Q 45.3125 15.671875 45.3125 23.6875 
L 45.3125 54.6875 
L 54.296875 54.6875 
L 54.296875 0 
L 45.3125 0 
L 45.3125 8.40625 
Q 42.046875 3.421875 37.71875 1 
Q 33.40625 -1.421875 27.6875 -1.421875 
Q 18.265625 -1.421875 13.375 4.4375 
Q 8.5 10.296875 8.5 21.578125 
z
M 31.109375 56 
z
" id="DejaVuSans-117"/>
       <path d="M 54.890625 33.015625 
L 54.890625 0 
L 45.90625 0 
L 45.90625 32.71875 
Q 45.90625 40.484375 42.875 44.328125 
Q 39.84375 48.1875 33.796875 48.1875 
Q 26.515625 48.1875 22.3125 43.546875 
Q 18.109375 38.921875 18.109375 30.90625 
L 18.109375 0 
L 9.078125 0 
L 9.078125 54.6875 
L 18.109375 54.6875 
L 18.109375 46.1875 
Q 21.34375 51.125 25.703125 53.5625 
Q 30.078125 56 35.796875 56 
Q 45.21875 56 50.046875 50.171875 
Q 54.890625 44.34375 54.890625 33.015625 
z
" id="DejaVuSans-110"/>
       <path d="M 18.3125 70.21875 
L 18.3125 54.6875 
L 36.8125 54.6875 
L 36.8125 47.703125 
L 18.3125 47.703125 
L 18.3125 18.015625 
Q 18.3125 11.328125 20.140625 9.421875 
Q 21.96875 7.515625 27.59375 7.515625 
L 36.8125 7.515625 
L 36.8125 0 
L 27.59375 0 
Q 17.1875 0 13.234375 3.875 
Q 9.28125 7.765625 9.28125 18.015625 
L 9.28125 47.703125 
L 2.6875 47.703125 
L 2.6875 54.6875 
L 9.28125 54.6875 
L 9.28125 70.21875 
z
" id="DejaVuSans-116"/>
       <path d="M 50.984375 -16.609375 
L 50.984375 -23.578125 
L -0.984375 -23.578125 
L -0.984375 -16.609375 
z
" id="DejaVuSans-95"/>
       <path d="M 48.6875 27.296875 
Q 48.6875 37.203125 44.609375 42.84375 
Q 40.53125 48.484375 33.40625 48.484375 
Q 26.265625 48.484375 22.1875 42.84375 
Q 18.109375 37.203125 18.109375 27.296875 
Q 18.109375 17.390625 22.1875 11.75 
Q 26.265625 6.109375 33.40625 6.109375 
Q 40.53125 6.109375 44.609375 11.75 
Q 48.6875 17.390625 48.6875 27.296875 
z
M 18.109375 46.390625 
Q 20.953125 51.265625 25.265625 53.625 
Q 29.59375 56 35.59375 56 
Q 45.5625 56 51.78125 48.09375 
Q 58.015625 40.1875 58.015625 27.296875 
Q 58.015625 14.40625 51.78125 6.484375 
Q 45.5625 -1.421875 35.59375 -1.421875 
Q 29.59375 -1.421875 25.265625 0.953125 
Q 20.953125 3.328125 18.109375 8.203125 
L 18.109375 0 
L 9.078125 0 
L 9.078125 75.984375 
L 18.109375 75.984375 
z
" id="DejaVuSans-98"/>
       <path d="M 2.984375 54.6875 
L 12.5 54.6875 
L 29.59375 8.796875 
L 46.6875 54.6875 
L 56.203125 54.6875 
L 35.6875 0 
L 23.484375 0 
z
" id="DejaVuSans-118"/>
       <path d="M 34.28125 27.484375 
Q 23.390625 27.484375 19.1875 25 
Q 14.984375 22.515625 14.984375 16.5 
Q 14.984375 11.71875 18.140625 8.90625 
Q 21.296875 6.109375 26.703125 6.109375 
Q 34.1875 6.109375 38.703125 11.40625 
Q 43.21875 16.703125 43.21875 25.484375 
L 43.21875 27.484375 
z
M 52.203125 31.203125 
L 52.203125 0 
L 43.21875 0 
L 43.21875 8.296875 
Q 40.140625 3.328125 35.546875 0.953125 
Q 30.953125 -1.421875 24.3125 -1.421875 
Q 15.921875 -1.421875 10.953125 3.296875 
Q 6 8.015625 6 15.921875 
Q 6 25.140625 12.171875 29.828125 
Q 18.359375 34.515625 30.609375 34.515625 
L 43.21875 34.515625 
L 43.21875 35.40625 
Q 43.21875 41.609375 39.140625 45 
Q 35.0625 48.390625 27.6875 48.390625 
Q 23 48.390625 18.546875 47.265625 
Q 14.109375 46.140625 10.015625 43.890625 
L 10.015625 52.203125 
Q 14.9375 54.109375 19.578125 55.046875 
Q 24.21875 56 28.609375 56 
Q 40.484375 56 46.34375 49.84375 
Q 52.203125 43.703125 52.203125 31.203125 
z
" id="DejaVuSans-97"/>
       <path d="M 9.421875 75.984375 
L 18.40625 75.984375 
L 18.40625 0 
L 9.421875 0 
z
" id="DejaVuSans-108"/>
      </defs>
      <use xlink:href="#DejaVuSans-117"/>
      <use x="63.378906" xlink:href="#DejaVuSans-110"/>
      <use x="126.757812" xlink:href="#DejaVuSans-101"/>
      <use x="188.28125" xlink:href="#DejaVuSans-116"/>
      <use x="227.490234" xlink:href="#DejaVuSans-50"/>
      <use x="291.113281" xlink:href="#DejaVuSans-95"/>
      <use x="341.113281" xlink:href="#DejaVuSans-98"/>
      <use x="404.589844" xlink:href="#DejaVuSans-99"/>
      <use x="459.570312" xlink:href="#DejaVuSans-101"/>
      <use x="521.09375" xlink:href="#DejaVuSans-95"/>
      <use x="571.09375" xlink:href="#DejaVuSans-115"/>
      <use x="623.193359" xlink:href="#DejaVuSans-99"/>
      <use x="678.173828" xlink:href="#DejaVuSans-111"/>
      <use x="739.355469" xlink:href="#DejaVuSans-114"/>
      <use x="778.21875" xlink:href="#DejaVuSans-101"/>
      <use x="839.742188" xlink:href="#DejaVuSans-95"/>
      <use x="889.742188" xlink:href="#DejaVuSans-118"/>
      <use x="948.921875" xlink:href="#DejaVuSans-97"/>
      <use x="1010.201172" xlink:href="#DejaVuSans-108"/>
     </g>
    </g>
    <g id="line2d_24">
     <path d="M 52.78125 35.254687 
L 72.78125 35.254687 
" style="fill:none;stroke:#ff7f0e;stroke-linecap:square;stroke-width:1.5;"/>
    </g>
    <g id="line2d_25"/>
    <g id="text_21">
     <!-- unet2_dice_score_val -->
     <g transform="translate(80.78125 38.754687)scale(0.1 -0.1)">
      <defs>
       <path d="M 45.40625 46.390625 
L 45.40625 75.984375 
L 54.390625 75.984375 
L 54.390625 0 
L 45.40625 0 
L 45.40625 8.203125 
Q 42.578125 3.328125 38.25 0.953125 
Q 33.9375 -1.421875 27.875 -1.421875 
Q 17.96875 -1.421875 11.734375 6.484375 
Q 5.515625 14.40625 5.515625 27.296875 
Q 5.515625 40.1875 11.734375 48.09375 
Q 17.96875 56 27.875 56 
Q 33.9375 56 38.25 53.625 
Q 42.578125 51.265625 45.40625 46.390625 
z
M 14.796875 27.296875 
Q 14.796875 17.390625 18.875 11.75 
Q 22.953125 6.109375 30.078125 6.109375 
Q 37.203125 6.109375 41.296875 11.75 
Q 45.40625 17.390625 45.40625 27.296875 
Q 45.40625 37.203125 41.296875 42.84375 
Q 37.203125 48.484375 30.078125 48.484375 
Q 22.953125 48.484375 18.875 42.84375 
Q 14.796875 37.203125 14.796875 27.296875 
z
" id="DejaVuSans-100"/>
       <path d="M 9.421875 54.6875 
L 18.40625 54.6875 
L 18.40625 0 
L 9.421875 0 
z
M 9.421875 75.984375 
L 18.40625 75.984375 
L 18.40625 64.59375 
L 9.421875 64.59375 
z
" id="DejaVuSans-105"/>
      </defs>
      <use xlink:href="#DejaVuSans-117"/>
      <use x="63.378906" xlink:href="#DejaVuSans-110"/>
      <use x="126.757812" xlink:href="#DejaVuSans-101"/>
      <use x="188.28125" xlink:href="#DejaVuSans-116"/>
      <use x="227.490234" xlink:href="#DejaVuSans-50"/>
      <use x="291.113281" xlink:href="#DejaVuSans-95"/>
      <use x="341.113281" xlink:href="#DejaVuSans-100"/>
      <use x="404.589844" xlink:href="#DejaVuSans-105"/>
      <use x="432.373047" xlink:href="#DejaVuSans-99"/>
      <use x="487.353516" xlink:href="#DejaVuSans-101"/>
      <use x="548.876953" xlink:href="#DejaVuSans-95"/>
      <use x="598.876953" xlink:href="#DejaVuSans-115"/>
      <use x="650.976562" xlink:href="#DejaVuSans-99"/>
      <use x="705.957031" xlink:href="#DejaVuSans-111"/>
      <use x="767.138672" xlink:href="#DejaVuSans-114"/>
      <use x="806.001953" xlink:href="#DejaVuSans-101"/>
      <use x="867.525391" xlink:href="#DejaVuSans-95"/>
      <use x="917.525391" xlink:href="#DejaVuSans-118"/>
      <use x="976.705078" xlink:href="#DejaVuSans-97"/>
      <use x="1037.984375" xlink:href="#DejaVuSans-108"/>
     </g>
    </g>
    <g id="line2d_26">
     <path d="M 52.78125 50.210938 
L 72.78125 50.210938 
" style="fill:none;stroke:#2ca02c;stroke-linecap:square;stroke-width:1.5;"/>
    </g>
    <g id="line2d_27"/>
    <g id="text_22">
     <!-- unet2_focal_score_val -->
     <g transform="translate(80.78125 53.710938)scale(0.1 -0.1)">
      <defs>
       <path d="M 37.109375 75.984375 
L 37.109375 68.5 
L 28.515625 68.5 
Q 23.6875 68.5 21.796875 66.546875 
Q 19.921875 64.59375 19.921875 59.515625 
L 19.921875 54.6875 
L 34.71875 54.6875 
L 34.71875 47.703125 
L 19.921875 47.703125 
L 19.921875 0 
L 10.890625 0 
L 10.890625 47.703125 
L 2.296875 47.703125 
L 2.296875 54.6875 
L 10.890625 54.6875 
L 10.890625 58.5 
Q 10.890625 67.625 15.140625 71.796875 
Q 19.390625 75.984375 28.609375 75.984375 
z
" id="DejaVuSans-102"/>
      </defs>
      <use xlink:href="#DejaVuSans-117"/>
      <use x="63.378906" xlink:href="#DejaVuSans-110"/>
      <use x="126.757812" xlink:href="#DejaVuSans-101"/>
      <use x="188.28125" xlink:href="#DejaVuSans-116"/>
      <use x="227.490234" xlink:href="#DejaVuSans-50"/>
      <use x="291.113281" xlink:href="#DejaVuSans-95"/>
      <use x="341.113281" xlink:href="#DejaVuSans-102"/>
      <use x="376.318359" xlink:href="#DejaVuSans-111"/>
      <use x="437.5" xlink:href="#DejaVuSans-99"/>
      <use x="492.480469" xlink:href="#DejaVuSans-97"/>
      <use x="553.759766" xlink:href="#DejaVuSans-108"/>
      <use x="581.542969" xlink:href="#DejaVuSans-95"/>
      <use x="631.542969" xlink:href="#DejaVuSans-115"/>
      <use x="683.642578" xlink:href="#DejaVuSans-99"/>
      <use x="738.623047" xlink:href="#DejaVuSans-111"/>
      <use x="799.804688" xlink:href="#DejaVuSans-114"/>
      <use x="838.667969" xlink:href="#DejaVuSans-101"/>
      <use x="900.191406" xlink:href="#DejaVuSans-95"/>
      <use x="950.191406" xlink:href="#DejaVuSans-118"/>
      <use x="1009.371094" xlink:href="#DejaVuSans-97"/>
      <use x="1070.650391" xlink:href="#DejaVuSans-108"/>
     </g>
    </g>
    <g id="line2d_28">
     <path d="M 52.78125 65.167188 
L 72.78125 65.167188 
" style="fill:none;stroke:#d62728;stroke-linecap:square;stroke-width:1.5;"/>
    </g>
    <g id="line2d_29"/>
    <g id="text_23">
     <!-- unet2_correlation_score_val -->
     <g transform="translate(80.78125 68.667188)scale(0.1 -0.1)">
      <use xlink:href="#DejaVuSans-117"/>
      <use x="63.378906" xlink:href="#DejaVuSans-110"/>
      <use x="126.757812" xlink:href="#DejaVuSans-101"/>
      <use x="188.28125" xlink:href="#DejaVuSans-116"/>
      <use x="227.490234" xlink:href="#DejaVuSans-50"/>
      <use x="291.113281" xlink:href="#DejaVuSans-95"/>
      <use x="341.113281" xlink:href="#DejaVuSans-99"/>
      <use x="396.09375" xlink:href="#DejaVuSans-111"/>
      <use x="457.275391" xlink:href="#DejaVuSans-114"/>
      <use x="496.638672" xlink:href="#DejaVuSans-114"/>
      <use x="535.501953" xlink:href="#DejaVuSans-101"/>
      <use x="597.025391" xlink:href="#DejaVuSans-108"/>
      <use x="624.808594" xlink:href="#DejaVuSans-97"/>
      <use x="686.087891" xlink:href="#DejaVuSans-116"/>
      <use x="725.296875" xlink:href="#DejaVuSans-105"/>
      <use x="753.080078" xlink:href="#DejaVuSans-111"/>
      <use x="814.261719" xlink:href="#DejaVuSans-110"/>
      <use x="877.640625" xlink:href="#DejaVuSans-95"/>
      <use x="927.640625" xlink:href="#DejaVuSans-115"/>
      <use x="979.740234" xlink:href="#DejaVuSans-99"/>
      <use x="1034.720703" xlink:href="#DejaVuSans-111"/>
      <use x="1095.902344" xlink:href="#DejaVuSans-114"/>
      <use x="1134.765625" xlink:href="#DejaVuSans-101"/>
      <use x="1196.289062" xlink:href="#DejaVuSans-95"/>
      <use x="1246.289062" xlink:href="#DejaVuSans-118"/>
      <use x="1305.46875" xlink:href="#DejaVuSans-97"/>
      <use x="1366.748047" xlink:href="#DejaVuSans-108"/>
     </g>
    </g>
   </g>
  </g>
 </g>
 <defs>
  <clipPath id="p0fcc53320e">
   <rect height="217.44" width="837" x="43.78125" y="7.2"/>
  </clipPath>
 </defs>
</svg>
