<?xml version="1.0" encoding="utf-8" standalone="no"?>
<!DOCTYPE svg PUBLIC "-//W3C//DTD SVG 1.1//EN"
  "http://www.w3.org/Graphics/SVG/1.1/DTD/svg11.dtd">
<!-- Created with matplotlib (https://matplotlib.org/) -->
<svg height="262.19625pt" version="1.1" viewBox="0 0 392.14375 262.19625" width="392.14375pt" xmlns="http://www.w3.org/2000/svg" xmlns:xlink="http://www.w3.org/1999/xlink">
 <metadata>
  <rdf:RDF xmlns:cc="http://creativecommons.org/ns#" xmlns:dc="http://purl.org/dc/elements/1.1/" xmlns:rdf="http://www.w3.org/1999/02/22-rdf-syntax-ns#">
   <cc:Work>
    <dc:type rdf:resource="http://purl.org/dc/dcmitype/StillImage"/>
    <dc:date>2020-12-16T14:56:03.717372</dc:date>
    <dc:format>image/svg+xml</dc:format>
    <dc:creator>
     <cc:Agent>
      <dc:title>Matplotlib v3.3.3, https://matplotlib.org/</dc:title>
     </cc:Agent>
    </dc:creator>
   </cc:Work>
  </rdf:RDF>
 </metadata>
 <defs>
  <style type="text/css">*{stroke-linecap:butt;stroke-linejoin:round;}</style>
 </defs>
 <g id="figure_1">
  <g id="patch_1">
   <path d="M 0 262.19625 
L 392.14375 262.19625 
L 392.14375 0 
L 0 0 
z
" style="fill:none;"/>
  </g>
  <g id="axes_1">
   <g id="patch_2">
    <path d="M 50.14375 224.64 
L 384.94375 224.64 
L 384.94375 7.2 
L 50.14375 7.2 
z
" style="fill:#ffffff;"/>
   </g>
   <g id="matplotlib.axis_1">
    <g id="xtick_1">
     <g id="line2d_1">
      <defs>
       <path d="M 0 0 
L 0 3.5 
" id="me8c0a485d5" style="stroke:#000000;stroke-width:0.8;"/>
      </defs>
      <g>
       <use style="stroke:#000000;stroke-width:0.8;" x="65.361932" xlink:href="#me8c0a485d5" y="224.64"/>
      </g>
     </g>
     <g id="text_1">
      <!-- 0 -->
      <g transform="translate(62.180682 239.238437)scale(0.1 -0.1)">
       <defs>
        <path d="M 31.78125 66.40625 
Q 24.171875 66.40625 20.328125 58.90625 
Q 16.5 51.421875 16.5 36.375 
Q 16.5 21.390625 20.328125 13.890625 
Q 24.171875 6.390625 31.78125 6.390625 
Q 39.453125 6.390625 43.28125 13.890625 
Q 47.125 21.390625 47.125 36.375 
Q 47.125 51.421875 43.28125 58.90625 
Q 39.453125 66.40625 31.78125 66.40625 
z
M 31.78125 74.21875 
Q 44.046875 74.21875 50.515625 64.515625 
Q 56.984375 54.828125 56.984375 36.375 
Q 56.984375 17.96875 50.515625 8.265625 
Q 44.046875 -1.421875 31.78125 -1.421875 
Q 19.53125 -1.421875 13.0625 8.265625 
Q 6.59375 17.96875 6.59375 36.375 
Q 6.59375 54.828125 13.0625 64.515625 
Q 19.53125 74.21875 31.78125 74.21875 
z
" id="DejaVuSans-48"/>
       </defs>
       <use xlink:href="#DejaVuSans-48"/>
      </g>
     </g>
    </g>
    <g id="xtick_2">
     <g id="line2d_2">
      <g>
       <use style="stroke:#000000;stroke-width:0.8;" x="103.59857" xlink:href="#me8c0a485d5" y="224.64"/>
      </g>
     </g>
     <g id="text_2">
      <!-- 25 -->
      <g transform="translate(97.23607 239.238437)scale(0.1 -0.1)">
       <defs>
        <path d="M 19.1875 8.296875 
L 53.609375 8.296875 
L 53.609375 0 
L 7.328125 0 
L 7.328125 8.296875 
Q 12.9375 14.109375 22.625 23.890625 
Q 32.328125 33.6875 34.8125 36.53125 
Q 39.546875 41.84375 41.421875 45.53125 
Q 43.3125 49.21875 43.3125 52.78125 
Q 43.3125 58.59375 39.234375 62.25 
Q 35.15625 65.921875 28.609375 65.921875 
Q 23.96875 65.921875 18.8125 64.3125 
Q 13.671875 62.703125 7.8125 59.421875 
L 7.8125 69.390625 
Q 13.765625 71.78125 18.9375 73 
Q 24.125 74.21875 28.421875 74.21875 
Q 39.75 74.21875 46.484375 68.546875 
Q 53.21875 62.890625 53.21875 53.421875 
Q 53.21875 48.921875 51.53125 44.890625 
Q 49.859375 40.875 45.40625 35.40625 
Q 44.1875 33.984375 37.640625 27.21875 
Q 31.109375 20.453125 19.1875 8.296875 
z
" id="DejaVuSans-50"/>
        <path d="M 10.796875 72.90625 
L 49.515625 72.90625 
L 49.515625 64.59375 
L 19.828125 64.59375 
L 19.828125 46.734375 
Q 21.96875 47.46875 24.109375 47.828125 
Q 26.265625 48.1875 28.421875 48.1875 
Q 40.625 48.1875 47.75 41.5 
Q 54.890625 34.8125 54.890625 23.390625 
Q 54.890625 11.625 47.5625 5.09375 
Q 40.234375 -1.421875 26.90625 -1.421875 
Q 22.3125 -1.421875 17.546875 -0.640625 
Q 12.796875 0.140625 7.71875 1.703125 
L 7.71875 11.625 
Q 12.109375 9.234375 16.796875 8.0625 
Q 21.484375 6.890625 26.703125 6.890625 
Q 35.15625 6.890625 40.078125 11.328125 
Q 45.015625 15.765625 45.015625 23.390625 
Q 45.015625 31 40.078125 35.4375 
Q 35.15625 39.890625 26.703125 39.890625 
Q 22.75 39.890625 18.8125 39.015625 
Q 14.890625 38.140625 10.796875 36.28125 
z
" id="DejaVuSans-53"/>
       </defs>
       <use xlink:href="#DejaVuSans-50"/>
       <use x="63.623047" xlink:href="#DejaVuSans-53"/>
      </g>
     </g>
    </g>
    <g id="xtick_3">
     <g id="line2d_3">
      <g>
       <use style="stroke:#000000;stroke-width:0.8;" x="141.835207" xlink:href="#me8c0a485d5" y="224.64"/>
      </g>
     </g>
     <g id="text_3">
      <!-- 50 -->
      <g transform="translate(135.472707 239.238437)scale(0.1 -0.1)">
       <use xlink:href="#DejaVuSans-53"/>
       <use x="63.623047" xlink:href="#DejaVuSans-48"/>
      </g>
     </g>
    </g>
    <g id="xtick_4">
     <g id="line2d_4">
      <g>
       <use style="stroke:#000000;stroke-width:0.8;" x="180.071845" xlink:href="#me8c0a485d5" y="224.64"/>
      </g>
     </g>
     <g id="text_4">
      <!-- 75 -->
      <g transform="translate(173.709345 239.238437)scale(0.1 -0.1)">
       <defs>
        <path d="M 8.203125 72.90625 
L 55.078125 72.90625 
L 55.078125 68.703125 
L 28.609375 0 
L 18.3125 0 
L 43.21875 64.59375 
L 8.203125 64.59375 
z
" id="DejaVuSans-55"/>
       </defs>
       <use xlink:href="#DejaVuSans-55"/>
       <use x="63.623047" xlink:href="#DejaVuSans-53"/>
      </g>
     </g>
    </g>
    <g id="xtick_5">
     <g id="line2d_5">
      <g>
       <use style="stroke:#000000;stroke-width:0.8;" x="218.308483" xlink:href="#me8c0a485d5" y="224.64"/>
      </g>
     </g>
     <g id="text_5">
      <!-- 100 -->
      <g transform="translate(208.764733 239.238437)scale(0.1 -0.1)">
       <defs>
        <path d="M 12.40625 8.296875 
L 28.515625 8.296875 
L 28.515625 63.921875 
L 10.984375 60.40625 
L 10.984375 69.390625 
L 28.421875 72.90625 
L 38.28125 72.90625 
L 38.28125 8.296875 
L 54.390625 8.296875 
L 54.390625 0 
L 12.40625 0 
z
" id="DejaVuSans-49"/>
       </defs>
       <use xlink:href="#DejaVuSans-49"/>
       <use x="63.623047" xlink:href="#DejaVuSans-48"/>
       <use x="127.246094" xlink:href="#DejaVuSans-48"/>
      </g>
     </g>
    </g>
    <g id="xtick_6">
     <g id="line2d_6">
      <g>
       <use style="stroke:#000000;stroke-width:0.8;" x="256.54512" xlink:href="#me8c0a485d5" y="224.64"/>
      </g>
     </g>
     <g id="text_6">
      <!-- 125 -->
      <g transform="translate(247.00137 239.238437)scale(0.1 -0.1)">
       <use xlink:href="#DejaVuSans-49"/>
       <use x="63.623047" xlink:href="#DejaVuSans-50"/>
       <use x="127.246094" xlink:href="#DejaVuSans-53"/>
      </g>
     </g>
    </g>
    <g id="xtick_7">
     <g id="line2d_7">
      <g>
       <use style="stroke:#000000;stroke-width:0.8;" x="294.781758" xlink:href="#me8c0a485d5" y="224.64"/>
      </g>
     </g>
     <g id="text_7">
      <!-- 150 -->
      <g transform="translate(285.238008 239.238437)scale(0.1 -0.1)">
       <use xlink:href="#DejaVuSans-49"/>
       <use x="63.623047" xlink:href="#DejaVuSans-53"/>
       <use x="127.246094" xlink:href="#DejaVuSans-48"/>
      </g>
     </g>
    </g>
    <g id="xtick_8">
     <g id="line2d_8">
      <g>
       <use style="stroke:#000000;stroke-width:0.8;" x="333.018396" xlink:href="#me8c0a485d5" y="224.64"/>
      </g>
     </g>
     <g id="text_8">
      <!-- 175 -->
      <g transform="translate(323.474646 239.238437)scale(0.1 -0.1)">
       <use xlink:href="#DejaVuSans-49"/>
       <use x="63.623047" xlink:href="#DejaVuSans-55"/>
       <use x="127.246094" xlink:href="#DejaVuSans-53"/>
      </g>
     </g>
    </g>
    <g id="xtick_9">
     <g id="line2d_9">
      <g>
       <use style="stroke:#000000;stroke-width:0.8;" x="371.255034" xlink:href="#me8c0a485d5" y="224.64"/>
      </g>
     </g>
     <g id="text_9">
      <!-- 200 -->
      <g transform="translate(361.711284 239.238437)scale(0.1 -0.1)">
       <use xlink:href="#DejaVuSans-50"/>
       <use x="63.623047" xlink:href="#DejaVuSans-48"/>
       <use x="127.246094" xlink:href="#DejaVuSans-48"/>
      </g>
     </g>
    </g>
    <g id="text_10">
     <!-- epoch -->
     <g transform="translate(202.315625 252.916562)scale(0.1 -0.1)">
      <defs>
       <path d="M 56.203125 29.59375 
L 56.203125 25.203125 
L 14.890625 25.203125 
Q 15.484375 15.921875 20.484375 11.0625 
Q 25.484375 6.203125 34.421875 6.203125 
Q 39.59375 6.203125 44.453125 7.46875 
Q 49.3125 8.734375 54.109375 11.28125 
L 54.109375 2.78125 
Q 49.265625 0.734375 44.1875 -0.34375 
Q 39.109375 -1.421875 33.890625 -1.421875 
Q 20.796875 -1.421875 13.15625 6.1875 
Q 5.515625 13.8125 5.515625 26.8125 
Q 5.515625 40.234375 12.765625 48.109375 
Q 20.015625 56 32.328125 56 
Q 43.359375 56 49.78125 48.890625 
Q 56.203125 41.796875 56.203125 29.59375 
z
M 47.21875 32.234375 
Q 47.125 39.59375 43.09375 43.984375 
Q 39.0625 48.390625 32.421875 48.390625 
Q 24.90625 48.390625 20.390625 44.140625 
Q 15.875 39.890625 15.1875 32.171875 
z
" id="DejaVuSans-101"/>
       <path d="M 18.109375 8.203125 
L 18.109375 -20.796875 
L 9.078125 -20.796875 
L 9.078125 54.6875 
L 18.109375 54.6875 
L 18.109375 46.390625 
Q 20.953125 51.265625 25.265625 53.625 
Q 29.59375 56 35.59375 56 
Q 45.5625 56 51.78125 48.09375 
Q 58.015625 40.1875 58.015625 27.296875 
Q 58.015625 14.40625 51.78125 6.484375 
Q 45.5625 -1.421875 35.59375 -1.421875 
Q 29.59375 -1.421875 25.265625 0.953125 
Q 20.953125 3.328125 18.109375 8.203125 
z
M 48.6875 27.296875 
Q 48.6875 37.203125 44.609375 42.84375 
Q 40.53125 48.484375 33.40625 48.484375 
Q 26.265625 48.484375 22.1875 42.84375 
Q 18.109375 37.203125 18.109375 27.296875 
Q 18.109375 17.390625 22.1875 11.75 
Q 26.265625 6.109375 33.40625 6.109375 
Q 40.53125 6.109375 44.609375 11.75 
Q 48.6875 17.390625 48.6875 27.296875 
z
" id="DejaVuSans-112"/>
       <path d="M 30.609375 48.390625 
Q 23.390625 48.390625 19.1875 42.75 
Q 14.984375 37.109375 14.984375 27.296875 
Q 14.984375 17.484375 19.15625 11.84375 
Q 23.34375 6.203125 30.609375 6.203125 
Q 37.796875 6.203125 41.984375 11.859375 
Q 46.1875 17.53125 46.1875 27.296875 
Q 46.1875 37.015625 41.984375 42.703125 
Q 37.796875 48.390625 30.609375 48.390625 
z
M 30.609375 56 
Q 42.328125 56 49.015625 48.375 
Q 55.71875 40.765625 55.71875 27.296875 
Q 55.71875 13.875 49.015625 6.21875 
Q 42.328125 -1.421875 30.609375 -1.421875 
Q 18.84375 -1.421875 12.171875 6.21875 
Q 5.515625 13.875 5.515625 27.296875 
Q 5.515625 40.765625 12.171875 48.375 
Q 18.84375 56 30.609375 56 
z
" id="DejaVuSans-111"/>
       <path d="M 48.78125 52.59375 
L 48.78125 44.1875 
Q 44.96875 46.296875 41.140625 47.34375 
Q 37.3125 48.390625 33.40625 48.390625 
Q 24.65625 48.390625 19.8125 42.84375 
Q 14.984375 37.3125 14.984375 27.296875 
Q 14.984375 17.28125 19.8125 11.734375 
Q 24.65625 6.203125 33.40625 6.203125 
Q 37.3125 6.203125 41.140625 7.25 
Q 44.96875 8.296875 48.78125 10.40625 
L 48.78125 2.09375 
Q 45.015625 0.34375 40.984375 -0.53125 
Q 36.96875 -1.421875 32.421875 -1.421875 
Q 20.0625 -1.421875 12.78125 6.34375 
Q 5.515625 14.109375 5.515625 27.296875 
Q 5.515625 40.671875 12.859375 48.328125 
Q 20.21875 56 33.015625 56 
Q 37.15625 56 41.109375 55.140625 
Q 45.0625 54.296875 48.78125 52.59375 
z
" id="DejaVuSans-99"/>
       <path d="M 54.890625 33.015625 
L 54.890625 0 
L 45.90625 0 
L 45.90625 32.71875 
Q 45.90625 40.484375 42.875 44.328125 
Q 39.84375 48.1875 33.796875 48.1875 
Q 26.515625 48.1875 22.3125 43.546875 
Q 18.109375 38.921875 18.109375 30.90625 
L 18.109375 0 
L 9.078125 0 
L 9.078125 75.984375 
L 18.109375 75.984375 
L 18.109375 46.1875 
Q 21.34375 51.125 25.703125 53.5625 
Q 30.078125 56 35.796875 56 
Q 45.21875 56 50.046875 50.171875 
Q 54.890625 44.34375 54.890625 33.015625 
z
" id="DejaVuSans-104"/>
      </defs>
      <use xlink:href="#DejaVuSans-101"/>
      <use x="61.523438" xlink:href="#DejaVuSans-112"/>
      <use x="125" xlink:href="#DejaVuSans-111"/>
      <use x="186.181641" xlink:href="#DejaVuSans-99"/>
      <use x="241.162109" xlink:href="#DejaVuSans-104"/>
     </g>
    </g>
   </g>
   <g id="matplotlib.axis_2">
    <g id="ytick_1">
     <g id="line2d_10">
      <defs>
       <path d="M 0 0 
L -3.5 0 
" id="m7f07fe28a8" style="stroke:#000000;stroke-width:0.8;"/>
      </defs>
      <g>
       <use style="stroke:#000000;stroke-width:0.8;" x="50.14375" xlink:href="#m7f07fe28a8" y="207.480068"/>
      </g>
     </g>
     <g id="text_11">
      <!-- 0.05 -->
      <g transform="translate(20.878125 211.279287)scale(0.1 -0.1)">
       <defs>
        <path d="M 10.6875 12.40625 
L 21 12.40625 
L 21 0 
L 10.6875 0 
z
" id="DejaVuSans-46"/>
       </defs>
       <use xlink:href="#DejaVuSans-48"/>
       <use x="63.623047" xlink:href="#DejaVuSans-46"/>
       <use x="95.410156" xlink:href="#DejaVuSans-48"/>
       <use x="159.033203" xlink:href="#DejaVuSans-53"/>
      </g>
     </g>
    </g>
    <g id="ytick_2">
     <g id="line2d_11">
      <g>
       <use style="stroke:#000000;stroke-width:0.8;" x="50.14375" xlink:href="#m7f07fe28a8" y="177.162166"/>
      </g>
     </g>
     <g id="text_12">
      <!-- 0.10 -->
      <g transform="translate(20.878125 180.961385)scale(0.1 -0.1)">
       <use xlink:href="#DejaVuSans-48"/>
       <use x="63.623047" xlink:href="#DejaVuSans-46"/>
       <use x="95.410156" xlink:href="#DejaVuSans-49"/>
       <use x="159.033203" xlink:href="#DejaVuSans-48"/>
      </g>
     </g>
    </g>
    <g id="ytick_3">
     <g id="line2d_12">
      <g>
       <use style="stroke:#000000;stroke-width:0.8;" x="50.14375" xlink:href="#m7f07fe28a8" y="146.844264"/>
      </g>
     </g>
     <g id="text_13">
      <!-- 0.15 -->
      <g transform="translate(20.878125 150.643483)scale(0.1 -0.1)">
       <use xlink:href="#DejaVuSans-48"/>
       <use x="63.623047" xlink:href="#DejaVuSans-46"/>
       <use x="95.410156" xlink:href="#DejaVuSans-49"/>
       <use x="159.033203" xlink:href="#DejaVuSans-53"/>
      </g>
     </g>
    </g>
    <g id="ytick_4">
     <g id="line2d_13">
      <g>
       <use style="stroke:#000000;stroke-width:0.8;" x="50.14375" xlink:href="#m7f07fe28a8" y="116.526362"/>
      </g>
     </g>
     <g id="text_14">
      <!-- 0.20 -->
      <g transform="translate(20.878125 120.325581)scale(0.1 -0.1)">
       <use xlink:href="#DejaVuSans-48"/>
       <use x="63.623047" xlink:href="#DejaVuSans-46"/>
       <use x="95.410156" xlink:href="#DejaVuSans-50"/>
       <use x="159.033203" xlink:href="#DejaVuSans-48"/>
      </g>
     </g>
    </g>
    <g id="ytick_5">
     <g id="line2d_14">
      <g>
       <use style="stroke:#000000;stroke-width:0.8;" x="50.14375" xlink:href="#m7f07fe28a8" y="86.208461"/>
      </g>
     </g>
     <g id="text_15">
      <!-- 0.25 -->
      <g transform="translate(20.878125 90.007679)scale(0.1 -0.1)">
       <use xlink:href="#DejaVuSans-48"/>
       <use x="63.623047" xlink:href="#DejaVuSans-46"/>
       <use x="95.410156" xlink:href="#DejaVuSans-50"/>
       <use x="159.033203" xlink:href="#DejaVuSans-53"/>
      </g>
     </g>
    </g>
    <g id="ytick_6">
     <g id="line2d_15">
      <g>
       <use style="stroke:#000000;stroke-width:0.8;" x="50.14375" xlink:href="#m7f07fe28a8" y="55.890559"/>
      </g>
     </g>
     <g id="text_16">
      <!-- 0.30 -->
      <g transform="translate(20.878125 59.689778)scale(0.1 -0.1)">
       <defs>
        <path d="M 40.578125 39.3125 
Q 47.65625 37.796875 51.625 33 
Q 55.609375 28.21875 55.609375 21.1875 
Q 55.609375 10.40625 48.1875 4.484375 
Q 40.765625 -1.421875 27.09375 -1.421875 
Q 22.515625 -1.421875 17.65625 -0.515625 
Q 12.796875 0.390625 7.625 2.203125 
L 7.625 11.71875 
Q 11.71875 9.328125 16.59375 8.109375 
Q 21.484375 6.890625 26.8125 6.890625 
Q 36.078125 6.890625 40.9375 10.546875 
Q 45.796875 14.203125 45.796875 21.1875 
Q 45.796875 27.640625 41.28125 31.265625 
Q 36.765625 34.90625 28.71875 34.90625 
L 20.21875 34.90625 
L 20.21875 43.015625 
L 29.109375 43.015625 
Q 36.375 43.015625 40.234375 45.921875 
Q 44.09375 48.828125 44.09375 54.296875 
Q 44.09375 59.90625 40.109375 62.90625 
Q 36.140625 65.921875 28.71875 65.921875 
Q 24.65625 65.921875 20.015625 65.03125 
Q 15.375 64.15625 9.8125 62.3125 
L 9.8125 71.09375 
Q 15.4375 72.65625 20.34375 73.4375 
Q 25.25 74.21875 29.59375 74.21875 
Q 40.828125 74.21875 47.359375 69.109375 
Q 53.90625 64.015625 53.90625 55.328125 
Q 53.90625 49.265625 50.4375 45.09375 
Q 46.96875 40.921875 40.578125 39.3125 
z
" id="DejaVuSans-51"/>
       </defs>
       <use xlink:href="#DejaVuSans-48"/>
       <use x="63.623047" xlink:href="#DejaVuSans-46"/>
       <use x="95.410156" xlink:href="#DejaVuSans-51"/>
       <use x="159.033203" xlink:href="#DejaVuSans-48"/>
      </g>
     </g>
    </g>
    <g id="ytick_7">
     <g id="line2d_16">
      <g>
       <use style="stroke:#000000;stroke-width:0.8;" x="50.14375" xlink:href="#m7f07fe28a8" y="25.572657"/>
      </g>
     </g>
     <g id="text_17">
      <!-- 0.35 -->
      <g transform="translate(20.878125 29.371876)scale(0.1 -0.1)">
       <use xlink:href="#DejaVuSans-48"/>
       <use x="63.623047" xlink:href="#DejaVuSans-46"/>
       <use x="95.410156" xlink:href="#DejaVuSans-51"/>
       <use x="159.033203" xlink:href="#DejaVuSans-53"/>
      </g>
     </g>
    </g>
    <g id="text_18">
     <!-- score -->
     <g transform="translate(14.798438 129.352812)rotate(-90)scale(0.1 -0.1)">
      <defs>
       <path d="M 44.28125 53.078125 
L 44.28125 44.578125 
Q 40.484375 46.53125 36.375 47.5 
Q 32.28125 48.484375 27.875 48.484375 
Q 21.1875 48.484375 17.84375 46.4375 
Q 14.5 44.390625 14.5 40.28125 
Q 14.5 37.15625 16.890625 35.375 
Q 19.28125 33.59375 26.515625 31.984375 
L 29.59375 31.296875 
Q 39.15625 29.25 43.1875 25.515625 
Q 47.21875 21.78125 47.21875 15.09375 
Q 47.21875 7.46875 41.1875 3.015625 
Q 35.15625 -1.421875 24.609375 -1.421875 
Q 20.21875 -1.421875 15.453125 -0.5625 
Q 10.6875 0.296875 5.421875 2 
L 5.421875 11.28125 
Q 10.40625 8.6875 15.234375 7.390625 
Q 20.0625 6.109375 24.8125 6.109375 
Q 31.15625 6.109375 34.5625 8.28125 
Q 37.984375 10.453125 37.984375 14.40625 
Q 37.984375 18.0625 35.515625 20.015625 
Q 33.0625 21.96875 24.703125 23.78125 
L 21.578125 24.515625 
Q 13.234375 26.265625 9.515625 29.90625 
Q 5.8125 33.546875 5.8125 39.890625 
Q 5.8125 47.609375 11.28125 51.796875 
Q 16.75 56 26.8125 56 
Q 31.78125 56 36.171875 55.265625 
Q 40.578125 54.546875 44.28125 53.078125 
z
" id="DejaVuSans-115"/>
       <path d="M 41.109375 46.296875 
Q 39.59375 47.171875 37.8125 47.578125 
Q 36.03125 48 33.890625 48 
Q 26.265625 48 22.1875 43.046875 
Q 18.109375 38.09375 18.109375 28.8125 
L 18.109375 0 
L 9.078125 0 
L 9.078125 54.6875 
L 18.109375 54.6875 
L 18.109375 46.1875 
Q 20.953125 51.171875 25.484375 53.578125 
Q 30.03125 56 36.53125 56 
Q 37.453125 56 38.578125 55.875 
Q 39.703125 55.765625 41.0625 55.515625 
z
" id="DejaVuSans-114"/>
      </defs>
      <use xlink:href="#DejaVuSans-115"/>
      <use x="52.099609" xlink:href="#DejaVuSans-99"/>
      <use x="107.080078" xlink:href="#DejaVuSans-111"/>
      <use x="168.261719" xlink:href="#DejaVuSans-114"/>
      <use x="207.125" xlink:href="#DejaVuSans-101"/>
     </g>
    </g>
   </g>
   <g id="line2d_17">
    <path clip-path="url(#pc9de379bf1)" d="M 65.361932 214.756364 
L 66.891397 179.587596 
L 68.420863 160.184137 
L 69.950328 155.333269 
L 71.479794 161.396854 
L 73.009259 161.396854 
L 74.538725 163.822287 
L 76.06819 152.907842 
L 77.597656 163.822288 
L 79.127121 72.868578 
L 80.656587 122.589942 
L 82.186052 123.802655 
L 83.715518 95.910184 
L 85.244983 97.122902 
L 86.774449 75.294012 
L 88.303914 84.995733 
L 89.83338 66.804995 
L 91.362845 94.697467 
L 92.892311 66.804998 
L 94.421776 72.868575 
L 95.951242 97.122893 
L 97.480708 69.230425 
L 99.010173 80.14488 
L 100.539639 72.868582 
L 102.069104 81.357594 
L 103.59857 61.954135 
L 105.128035 74.08129 
L 106.657501 81.357592 
L 108.186966 83.783024 
L 109.716432 70.44314 
L 111.245897 87.421172 
L 112.775363 60.741424 
L 114.304828 78.932157 
L 115.834294 76.506727 
L 117.363759 76.506732 
L 118.893225 77.719441 
L 120.42269 74.081297 
L 121.952156 60.741424 
L 123.481621 93.484747 
L 125.011087 82.570309 
L 126.540552 72.868587 
L 128.070018 71.655862 
L 129.599483 88.633892 
L 131.128949 70.443149 
L 132.658414 77.719445 
L 134.18788 68.017717 
L 135.717345 60.74142 
L 137.246811 83.783025 
L 138.776276 60.74142 
L 140.305742 80.14487 
L 141.835207 69.230432 
L 143.364673 57.103265 
L 144.894138 66.805 
L 146.423604 83.783027 
L 147.953069 78.932158 
L 149.482535 57.103267 
L 151.012 92.272036 
L 152.541466 78.932163 
L 154.070931 71.65586 
L 155.600397 75.294008 
L 157.129862 71.655865 
L 158.659328 70.443154 
L 160.188793 54.677837 
L 161.718259 84.995739 
L 163.247724 69.230432 
L 164.77719 59.528704 
L 166.306655 105.611908 
L 167.836121 60.741413 
L 169.365586 83.783025 
L 170.895052 71.655862 
L 172.424517 71.655865 
L 173.953983 58.315983 
L 175.483448 71.655853 
L 177.012914 57.103259 
L 178.54238 43.763393 
L 180.071845 58.31598 
L 181.601311 47.401542 
L 183.130776 66.804997 
L 184.660242 89.846605 
L 186.189707 63.166856 
L 187.719173 65.592285 
L 189.248638 74.081299 
L 190.778104 53.465125 
L 192.307569 58.315987 
L 193.837035 54.677828 
L 196.895966 69.230434 
L 198.425431 59.528696 
L 199.954897 71.655862 
L 201.484362 51.039697 
L 203.013828 49.826966 
L 204.543293 77.719438 
L 206.072759 77.719442 
L 207.602224 65.592285 
L 209.13169 49.826973 
L 210.661155 58.315983 
L 212.190621 68.017717 
L 213.720086 70.443147 
L 215.249552 69.23043 
L 216.779017 63.166845 
L 218.308483 76.506725 
L 219.837948 92.272032 
L 221.367414 58.315983 
L 222.896879 53.46512 
L 224.426345 63.166847 
L 225.95581 86.208452 
L 227.485276 76.506723 
L 229.014741 60.741411 
L 230.544207 74.081293 
L 232.073672 101.973767 
L 233.603138 86.208455 
L 235.132603 81.357583 
L 236.662069 77.719442 
L 238.191534 103.186479 
L 239.721 57.103274 
L 241.250465 68.01771 
L 242.779931 59.528696 
L 244.309396 58.315981 
L 245.838862 59.528704 
L 247.368327 74.08129 
L 248.897793 36.487099 
L 250.427258 65.592276 
L 251.956724 41.337958 
L 253.486189 51.039688 
L 255.015655 44.976112 
L 256.54512 66.805 
L 258.074586 60.741411 
L 259.604052 76.506727 
L 261.133517 77.719438 
L 264.192448 65.592284 
L 265.721914 71.655862 
L 267.251379 59.5287 
L 268.780845 66.805002 
L 271.839776 61.954139 
L 273.369241 80.144875 
L 274.898707 70.443138 
L 276.428172 64.379563 
L 277.957638 68.017719 
L 279.487103 61.95413 
L 281.016569 60.741413 
L 282.546034 42.550678 
L 284.0755 59.528704 
L 285.604965 55.89055 
L 287.134431 76.506728 
L 288.663896 71.65586 
L 290.193362 59.528704 
L 291.722827 57.103267 
L 293.252293 77.719447 
L 294.781758 61.954131 
L 296.311224 60.741417 
L 297.840689 53.465118 
L 299.370155 66.804998 
L 300.89962 64.379565 
L 302.429086 52.252407 
L 303.958551 54.677833 
L 305.488017 68.017717 
L 307.017482 64.379565 
L 308.546948 58.315989 
L 310.076413 76.506724 
L 311.605879 68.017717 
L 313.135344 65.592287 
L 314.66481 58.315983 
L 316.194275 57.10327 
L 317.723741 68.017715 
L 319.253206 75.294007 
L 320.782672 72.868578 
L 322.312137 57.10327 
L 323.841603 64.37957 
L 325.371068 53.465115 
L 326.900534 71.655862 
L 328.429999 61.954137 
L 329.959465 71.655862 
L 331.48893 68.017717 
L 333.018396 74.081299 
L 334.547861 61.954139 
L 336.077327 48.614253 
L 337.606792 69.230427 
L 339.136258 66.804997 
L 340.665724 74.0813 
L 342.195189 75.294012 
L 343.724655 71.655864 
L 345.25412 71.655856 
L 346.783586 70.443149 
L 348.313051 86.208453 
L 349.842517 86.208457 
L 351.371982 78.93216 
L 352.901448 75.29401 
L 354.430913 64.379561 
L 355.960379 80.144873 
L 359.01931 70.443147 
L 360.548775 64.379563 
L 362.078241 70.443146 
L 363.607706 64.379567 
L 365.137172 70.443143 
L 366.666637 77.719445 
L 368.196103 69.230425 
L 369.725568 43.763388 
L 369.725568 43.763388 
" style="fill:none;stroke:#1f77b4;stroke-linecap:square;stroke-width:1.5;"/>
   </g>
   <g id="line2d_18">
    <path clip-path="url(#pc9de379bf1)" d="M 65.361932 111.675496 
L 66.891397 92.272034 
L 68.420863 101.973768 
L 69.950328 212.33093 
L 71.479794 111.675489 
L 73.009259 98.335617 
L 74.538725 58.315987 
L 76.06819 99.548334 
L 77.597656 76.506729 
L 79.127121 95.910187 
L 80.656587 77.719439 
L 82.186052 108.037343 
L 83.715518 103.18648 
L 85.244983 87.421167 
L 86.774449 87.421172 
L 88.303914 68.017711 
L 89.83338 86.208453 
L 91.362845 86.208459 
L 92.892311 89.846599 
L 94.421776 47.401544 
L 95.951242 61.95413 
L 97.480708 89.846607 
L 99.010173 81.357588 
L 100.539639 84.99574 
L 102.069104 82.570301 
L 103.59857 84.995742 
L 105.128035 64.37957 
L 108.186966 98.335615 
L 109.716432 55.89055 
L 111.245897 53.465118 
L 112.775363 84.995734 
L 114.304828 60.74142 
L 115.834294 63.166853 
L 117.363759 87.421175 
L 118.893225 71.655865 
L 120.42269 57.103261 
L 121.952156 48.61426 
L 123.481621 84.995741 
L 125.011087 83.783027 
L 126.540552 64.379569 
L 128.070018 89.846603 
L 129.599483 44.976108 
L 131.128949 76.506731 
L 132.658414 103.186475 
L 134.18788 81.357587 
L 135.717345 66.804998 
L 137.246811 88.633891 
L 138.776276 52.252398 
L 140.305742 82.570309 
L 141.835207 89.846602 
L 143.364673 72.868578 
L 144.894138 72.868575 
L 146.423604 87.421174 
L 147.953069 64.379563 
L 149.482535 76.506723 
L 151.012 52.252407 
L 152.541466 84.995733 
L 154.070931 69.230423 
L 155.600397 101.973771 
L 157.129862 92.272037 
L 158.659328 68.017715 
L 160.188793 83.783022 
L 161.718259 89.846604 
L 163.247724 100.761052 
L 164.77719 37.699812 
L 166.306655 118.951792 
L 167.836121 80.144877 
L 169.365586 91.059322 
L 170.895052 77.719444 
L 172.424517 91.059318 
L 175.483448 86.208451 
L 177.012914 80.144879 
L 178.54238 72.868584 
L 180.071845 101.973762 
L 181.601311 105.611914 
L 183.130776 83.783024 
L 184.660242 82.570307 
L 186.189707 75.294005 
L 187.719173 77.719442 
L 189.248638 53.465113 
L 190.778104 105.61191 
L 192.307569 95.910181 
L 193.837035 80.144879 
L 195.3665 80.144872 
L 196.895966 86.20845 
L 198.425431 74.081302 
L 199.954897 81.357592 
L 201.484362 89.846598 
L 203.013828 74.081298 
L 204.543293 70.443143 
L 206.072759 63.166852 
L 207.602224 88.633887 
L 209.13169 97.122897 
L 210.661155 65.592287 
L 212.190621 58.315983 
L 213.720086 99.54833 
L 215.249552 58.315983 
L 216.779017 82.570307 
L 218.308483 71.655861 
L 219.837948 51.03969 
L 221.367414 84.995742 
L 222.896879 75.294005 
L 224.426345 76.506729 
L 225.95581 80.144875 
L 227.485276 59.5287 
L 229.014741 69.23043 
L 230.544207 92.272037 
L 232.073672 84.995746 
L 233.603138 59.528697 
L 235.132603 54.677833 
L 236.662069 80.144873 
L 238.191534 81.357587 
L 239.721 77.71945 
L 241.250465 70.443147 
L 242.779931 75.294014 
L 244.309396 84.99574 
L 245.838862 66.804997 
L 247.368327 68.017719 
L 248.897793 87.421176 
L 250.427258 71.655865 
L 251.956724 100.761054 
L 253.486189 98.335619 
L 255.015655 135.92982 
L 256.54512 112.888208 
L 258.074586 99.548328 
L 259.604052 77.719442 
L 261.133517 93.484751 
L 264.192448 51.039687 
L 265.721914 55.890553 
L 267.251379 71.655865 
L 268.780845 89.846603 
L 270.31031 70.443145 
L 271.839776 70.443149 
L 273.369241 103.186482 
L 274.898707 63.16685 
L 276.428172 82.570312 
L 277.957638 76.506729 
L 279.487103 65.592278 
L 281.016569 81.357586 
L 282.546034 64.379567 
L 284.0755 69.230429 
L 285.604965 98.335613 
L 287.134431 70.443144 
L 288.663896 80.144879 
L 290.193362 83.783027 
L 291.722827 82.570312 
L 293.252293 60.741416 
L 294.781758 36.487097 
L 296.311224 101.973767 
L 297.840689 88.633889 
L 299.370155 81.357588 
L 300.89962 91.059326 
L 302.429086 89.846602 
L 303.958551 53.465118 
L 305.488017 66.804998 
L 307.017482 63.166841 
L 308.546948 77.719449 
L 310.076413 70.443143 
L 311.605879 68.017719 
L 313.135344 77.719444 
L 314.66481 76.506723 
L 316.194275 70.443142 
L 317.723741 72.868575 
L 319.253206 71.655856 
L 320.782672 51.03969 
L 322.312137 80.144875 
L 323.841603 88.63389 
L 325.371068 63.166848 
L 326.900534 81.357592 
L 328.429999 59.528702 
L 329.959465 83.783029 
L 331.48893 86.208453 
L 333.018396 98.335613 
L 334.547861 58.31599 
L 336.077327 61.954137 
L 337.606792 66.804995 
L 339.136258 52.252398 
L 340.665724 40.125241 
L 343.724655 71.655865 
L 345.25412 59.528707 
L 346.783586 74.081292 
L 348.313051 68.017713 
L 349.842517 43.763389 
L 351.371982 49.826966 
L 352.901448 53.465122 
L 354.430913 38.912521 
L 355.960379 74.081293 
L 357.489844 37.699815 
L 359.01931 46.188821 
L 360.548775 49.826966 
L 363.607706 64.379567 
L 365.137172 51.039688 
L 366.666637 17.083642 
L 368.196103 76.506721 
L 369.725568 32.848952 
L 369.725568 32.848952 
" style="fill:none;stroke:#ff7f0e;stroke-linecap:square;stroke-width:1.5;"/>
   </g>
   <g id="line2d_19">
    <path clip-path="url(#pc9de379bf1)" d="M 65.361932 123.802656 
L 66.891397 205.054634 
L 68.420863 167.460435 
L 69.950328 144.418831 
L 71.479794 125.015372 
L 73.009259 117.739076 
L 74.538725 125.01537 
L 76.06819 84.99574 
L 77.597656 97.122902 
L 79.127121 110.46278 
L 80.656587 88.633892 
L 82.186052 109.250066 
L 83.715518 94.697469 
L 85.244983 117.739076 
L 86.774449 101.973771 
L 88.303914 95.910183 
L 89.83338 87.42117 
L 91.362845 71.655864 
L 92.892311 97.1229 
L 94.421776 70.443145 
L 95.951242 91.059321 
L 97.480708 115.313642 
L 99.010173 100.761048 
L 102.069104 83.783022 
L 103.59857 98.335619 
L 105.128035 78.932158 
L 106.657501 97.122898 
L 108.186966 123.802656 
L 109.716432 84.99574 
L 111.245897 115.313638 
L 112.775363 93.484759 
L 114.304828 82.57031 
L 115.834294 84.995742 
L 117.363759 89.846606 
L 118.893225 101.97376 
L 120.42269 80.144882 
L 121.952156 82.570305 
L 123.481621 97.122904 
L 125.011087 88.633883 
L 126.540552 99.548333 
L 128.070018 97.122898 
L 129.599483 86.208457 
L 131.128949 101.973769 
L 132.658414 78.932157 
L 134.18788 92.272037 
L 135.717345 99.54833 
L 137.246811 86.208452 
L 138.776276 95.910187 
L 141.835207 81.357594 
L 143.364673 101.973764 
L 144.894138 94.697464 
L 146.423604 75.294012 
L 147.953069 110.462781 
L 149.482535 70.443147 
L 151.012 105.611914 
L 152.541466 83.783023 
L 154.070931 84.99574 
L 155.600397 77.719438 
L 157.129862 81.357592 
L 158.659328 76.506729 
L 160.188793 84.995738 
L 161.718259 86.208452 
L 163.247724 91.059317 
L 164.77719 91.05932 
L 166.306655 76.506732 
L 167.836121 103.186482 
L 169.365586 80.144881 
L 170.895052 106.824632 
L 172.424517 83.783025 
L 173.953983 98.335613 
L 175.483448 95.910184 
L 177.012914 92.272033 
L 178.54238 83.783022 
L 180.071845 112.888212 
L 181.601311 71.655862 
L 183.130776 87.42117 
L 184.660242 87.42117 
L 186.189707 83.783022 
L 187.719173 84.995735 
L 189.248638 75.294013 
L 190.778104 103.186483 
L 192.307569 81.357592 
L 193.837035 106.824634 
L 196.895966 92.272033 
L 198.425431 98.335612 
L 199.954897 82.570305 
L 201.484362 80.144878 
L 203.013828 89.846595 
L 204.543293 81.357588 
L 206.072759 93.484752 
L 207.602224 103.18648 
L 209.13169 68.017715 
L 210.661155 81.357587 
L 212.190621 100.761047 
L 213.720086 66.804989 
L 215.249552 57.10327 
L 216.779017 71.65586 
L 218.308483 97.122901 
L 219.837948 59.528707 
L 221.367414 63.166845 
L 222.896879 81.357597 
L 224.426345 80.144875 
L 225.95581 77.719443 
L 227.485276 69.230426 
L 229.014741 64.379567 
L 230.544207 78.932162 
L 232.073672 78.932161 
L 233.603138 84.995744 
L 235.132603 52.2524 
L 236.662069 89.846604 
L 238.191534 84.995742 
L 239.721 54.677844 
L 241.250465 82.570305 
L 242.779931 100.761052 
L 244.309396 68.017713 
L 245.838862 57.103265 
L 247.368327 61.954132 
L 248.897793 75.29401 
L 250.427258 64.379569 
L 251.956724 70.443152 
L 253.486189 66.804995 
L 255.015655 69.230427 
L 256.54512 47.401544 
L 258.074586 57.103272 
L 259.604052 83.783022 
L 261.133517 87.421177 
L 262.662983 82.570309 
L 264.192448 80.144882 
L 265.721914 44.976112 
L 267.251379 53.465124 
L 268.780845 52.252407 
L 270.31031 87.42117 
L 271.839776 66.805004 
L 273.369241 68.017714 
L 274.898707 71.655866 
L 276.428172 64.379561 
L 277.957638 81.35759 
L 279.487103 63.166852 
L 281.016569 65.592275 
L 282.546034 60.741422 
L 284.0755 49.826968 
L 285.604965 54.677835 
L 287.134431 47.401536 
L 288.663896 64.379567 
L 290.193362 42.550673 
L 291.722827 94.697469 
L 293.252293 84.995738 
L 294.781758 54.677842 
L 296.311224 57.103263 
L 297.840689 61.954135 
L 299.370155 27.998083 
L 300.89962 47.401535 
L 302.429086 47.401536 
L 303.958551 69.230432 
L 305.488017 44.976105 
L 307.017482 60.741418 
L 308.546948 42.550673 
L 310.076413 53.465108 
L 311.605879 42.550673 
L 313.135344 55.89055 
L 314.66481 35.274373 
L 316.194275 17.083636 
L 317.723741 29.210795 
L 319.253206 49.826971 
L 320.782672 46.188818 
L 322.312137 52.252398 
L 323.841603 82.570302 
L 325.371068 91.059319 
L 328.429999 57.103261 
L 329.959465 61.954133 
L 331.48893 53.465118 
L 333.018396 66.80499 
L 334.547861 46.188827 
L 336.077327 91.059313 
L 337.606792 69.23043 
L 339.136258 42.550677 
L 340.665724 71.65586 
L 342.195189 77.71944 
L 343.724655 59.528691 
L 345.25412 38.91253 
L 346.783586 38.912532 
L 348.313051 44.97611 
L 349.842517 40.125243 
L 351.371982 54.67784 
L 352.901448 57.103272 
L 354.430913 37.699815 
L 355.960379 35.274376 
L 357.489844 63.166845 
L 359.01931 60.741415 
L 360.548775 23.147216 
L 362.078241 43.763392 
L 363.607706 49.826972 
L 365.137172 34.061654 
L 366.666637 35.274377 
L 368.196103 26.785363 
L 369.725568 37.699813 
L 369.725568 37.699813 
" style="fill:none;stroke:#2ca02c;stroke-linecap:square;stroke-width:1.5;"/>
   </g>
   <g id="patch_3">
    <path d="M 50.14375 224.64 
L 50.14375 7.2 
" style="fill:none;stroke:#000000;stroke-linecap:square;stroke-linejoin:miter;stroke-width:0.8;"/>
   </g>
   <g id="patch_4">
    <path d="M 384.94375 224.64 
L 384.94375 7.2 
" style="fill:none;stroke:#000000;stroke-linecap:square;stroke-linejoin:miter;stroke-width:0.8;"/>
   </g>
   <g id="patch_5">
    <path d="M 50.14375 224.64 
L 384.94375 224.64 
" style="fill:none;stroke:#000000;stroke-linecap:square;stroke-linejoin:miter;stroke-width:0.8;"/>
   </g>
   <g id="patch_6">
    <path d="M 50.14375 7.2 
L 384.94375 7.2 
" style="fill:none;stroke:#000000;stroke-linecap:square;stroke-linejoin:miter;stroke-width:0.8;"/>
   </g>
   <g id="legend_1">
    <g id="patch_7">
     <path d="M 57.14375 60.06875 
L 233.609375 60.06875 
Q 235.609375 60.06875 235.609375 58.06875 
L 235.609375 14.2 
Q 235.609375 12.2 233.609375 12.2 
L 57.14375 12.2 
Q 55.14375 12.2 55.14375 14.2 
L 55.14375 58.06875 
Q 55.14375 60.06875 57.14375 60.06875 
z
" style="fill:#ffffff;opacity:0.8;stroke:#cccccc;stroke-linejoin:miter;"/>
    </g>
    <g id="line2d_20">
     <path d="M 59.14375 20.298437 
L 79.14375 20.298437 
" style="fill:none;stroke:#1f77b4;stroke-linecap:square;stroke-width:1.5;"/>
    </g>
    <g id="line2d_21"/>
    <g id="text_19">
     <!-- segnet_correlation_score_val -->
     <g transform="translate(87.14375 23.798437)scale(0.1 -0.1)">
      <defs>
       <path d="M 45.40625 27.984375 
Q 45.40625 37.75 41.375 43.109375 
Q 37.359375 48.484375 30.078125 48.484375 
Q 22.859375 48.484375 18.828125 43.109375 
Q 14.796875 37.75 14.796875 27.984375 
Q 14.796875 18.265625 18.828125 12.890625 
Q 22.859375 7.515625 30.078125 7.515625 
Q 37.359375 7.515625 41.375 12.890625 
Q 45.40625 18.265625 45.40625 27.984375 
z
M 54.390625 6.78125 
Q 54.390625 -7.171875 48.1875 -13.984375 
Q 42 -20.796875 29.203125 -20.796875 
Q 24.46875 -20.796875 20.265625 -20.09375 
Q 16.0625 -19.390625 12.109375 -17.921875 
L 12.109375 -9.1875 
Q 16.0625 -11.328125 19.921875 -12.34375 
Q 23.78125 -13.375 27.78125 -13.375 
Q 36.625 -13.375 41.015625 -8.765625 
Q 45.40625 -4.15625 45.40625 5.171875 
L 45.40625 9.625 
Q 42.625 4.78125 38.28125 2.390625 
Q 33.9375 0 27.875 0 
Q 17.828125 0 11.671875 7.65625 
Q 5.515625 15.328125 5.515625 27.984375 
Q 5.515625 40.671875 11.671875 48.328125 
Q 17.828125 56 27.875 56 
Q 33.9375 56 38.28125 53.609375 
Q 42.625 51.21875 45.40625 46.390625 
L 45.40625 54.6875 
L 54.390625 54.6875 
z
" id="DejaVuSans-103"/>
       <path d="M 54.890625 33.015625 
L 54.890625 0 
L 45.90625 0 
L 45.90625 32.71875 
Q 45.90625 40.484375 42.875 44.328125 
Q 39.84375 48.1875 33.796875 48.1875 
Q 26.515625 48.1875 22.3125 43.546875 
Q 18.109375 38.921875 18.109375 30.90625 
L 18.109375 0 
L 9.078125 0 
L 9.078125 54.6875 
L 18.109375 54.6875 
L 18.109375 46.1875 
Q 21.34375 51.125 25.703125 53.5625 
Q 30.078125 56 35.796875 56 
Q 45.21875 56 50.046875 50.171875 
Q 54.890625 44.34375 54.890625 33.015625 
z
" id="DejaVuSans-110"/>
       <path d="M 18.3125 70.21875 
L 18.3125 54.6875 
L 36.8125 54.6875 
L 36.8125 47.703125 
L 18.3125 47.703125 
L 18.3125 18.015625 
Q 18.3125 11.328125 20.140625 9.421875 
Q 21.96875 7.515625 27.59375 7.515625 
L 36.8125 7.515625 
L 36.8125 0 
L 27.59375 0 
Q 17.1875 0 13.234375 3.875 
Q 9.28125 7.765625 9.28125 18.015625 
L 9.28125 47.703125 
L 2.6875 47.703125 
L 2.6875 54.6875 
L 9.28125 54.6875 
L 9.28125 70.21875 
z
" id="DejaVuSans-116"/>
       <path d="M 50.984375 -16.609375 
L 50.984375 -23.578125 
L -0.984375 -23.578125 
L -0.984375 -16.609375 
z
" id="DejaVuSans-95"/>
       <path d="M 9.421875 75.984375 
L 18.40625 75.984375 
L 18.40625 0 
L 9.421875 0 
z
" id="DejaVuSans-108"/>
       <path d="M 34.28125 27.484375 
Q 23.390625 27.484375 19.1875 25 
Q 14.984375 22.515625 14.984375 16.5 
Q 14.984375 11.71875 18.140625 8.90625 
Q 21.296875 6.109375 26.703125 6.109375 
Q 34.1875 6.109375 38.703125 11.40625 
Q 43.21875 16.703125 43.21875 25.484375 
L 43.21875 27.484375 
z
M 52.203125 31.203125 
L 52.203125 0 
L 43.21875 0 
L 43.21875 8.296875 
Q 40.140625 3.328125 35.546875 0.953125 
Q 30.953125 -1.421875 24.3125 -1.421875 
Q 15.921875 -1.421875 10.953125 3.296875 
Q 6 8.015625 6 15.921875 
Q 6 25.140625 12.171875 29.828125 
Q 18.359375 34.515625 30.609375 34.515625 
L 43.21875 34.515625 
L 43.21875 35.40625 
Q 43.21875 41.609375 39.140625 45 
Q 35.0625 48.390625 27.6875 48.390625 
Q 23 48.390625 18.546875 47.265625 
Q 14.109375 46.140625 10.015625 43.890625 
L 10.015625 52.203125 
Q 14.9375 54.109375 19.578125 55.046875 
Q 24.21875 56 28.609375 56 
Q 40.484375 56 46.34375 49.84375 
Q 52.203125 43.703125 52.203125 31.203125 
z
" id="DejaVuSans-97"/>
       <path d="M 9.421875 54.6875 
L 18.40625 54.6875 
L 18.40625 0 
L 9.421875 0 
z
M 9.421875 75.984375 
L 18.40625 75.984375 
L 18.40625 64.59375 
L 9.421875 64.59375 
z
" id="DejaVuSans-105"/>
       <path d="M 2.984375 54.6875 
L 12.5 54.6875 
L 29.59375 8.796875 
L 46.6875 54.6875 
L 56.203125 54.6875 
L 35.6875 0 
L 23.484375 0 
z
" id="DejaVuSans-118"/>
      </defs>
      <use xlink:href="#DejaVuSans-115"/>
      <use x="52.099609" xlink:href="#DejaVuSans-101"/>
      <use x="113.623047" xlink:href="#DejaVuSans-103"/>
      <use x="177.099609" xlink:href="#DejaVuSans-110"/>
      <use x="240.478516" xlink:href="#DejaVuSans-101"/>
      <use x="302.001953" xlink:href="#DejaVuSans-116"/>
      <use x="341.210938" xlink:href="#DejaVuSans-95"/>
      <use x="391.210938" xlink:href="#DejaVuSans-99"/>
      <use x="446.191406" xlink:href="#DejaVuSans-111"/>
      <use x="507.373047" xlink:href="#DejaVuSans-114"/>
      <use x="546.736328" xlink:href="#DejaVuSans-114"/>
      <use x="585.599609" xlink:href="#DejaVuSans-101"/>
      <use x="647.123047" xlink:href="#DejaVuSans-108"/>
      <use x="674.90625" xlink:href="#DejaVuSans-97"/>
      <use x="736.185547" xlink:href="#DejaVuSans-116"/>
      <use x="775.394531" xlink:href="#DejaVuSans-105"/>
      <use x="803.177734" xlink:href="#DejaVuSans-111"/>
      <use x="864.359375" xlink:href="#DejaVuSans-110"/>
      <use x="927.738281" xlink:href="#DejaVuSans-95"/>
      <use x="977.738281" xlink:href="#DejaVuSans-115"/>
      <use x="1029.837891" xlink:href="#DejaVuSans-99"/>
      <use x="1084.818359" xlink:href="#DejaVuSans-111"/>
      <use x="1146" xlink:href="#DejaVuSans-114"/>
      <use x="1184.863281" xlink:href="#DejaVuSans-101"/>
      <use x="1246.386719" xlink:href="#DejaVuSans-95"/>
      <use x="1296.386719" xlink:href="#DejaVuSans-118"/>
      <use x="1355.566406" xlink:href="#DejaVuSans-97"/>
      <use x="1416.845703" xlink:href="#DejaVuSans-108"/>
     </g>
    </g>
    <g id="line2d_22">
     <path d="M 59.14375 35.254687 
L 79.14375 35.254687 
" style="fill:none;stroke:#ff7f0e;stroke-linecap:square;stroke-width:1.5;"/>
    </g>
    <g id="line2d_23"/>
    <g id="text_20">
     <!-- unet_correlation_score_val -->
     <g transform="translate(87.14375 38.754687)scale(0.1 -0.1)">
      <defs>
       <path d="M 8.5 21.578125 
L 8.5 54.6875 
L 17.484375 54.6875 
L 17.484375 21.921875 
Q 17.484375 14.15625 20.5 10.265625 
Q 23.53125 6.390625 29.59375 6.390625 
Q 36.859375 6.390625 41.078125 11.03125 
Q 45.3125 15.671875 45.3125 23.6875 
L 45.3125 54.6875 
L 54.296875 54.6875 
L 54.296875 0 
L 45.3125 0 
L 45.3125 8.40625 
Q 42.046875 3.421875 37.71875 1 
Q 33.40625 -1.421875 27.6875 -1.421875 
Q 18.265625 -1.421875 13.375 4.4375 
Q 8.5 10.296875 8.5 21.578125 
z
M 31.109375 56 
z
" id="DejaVuSans-117"/>
      </defs>
      <use xlink:href="#DejaVuSans-117"/>
      <use x="63.378906" xlink:href="#DejaVuSans-110"/>
      <use x="126.757812" xlink:href="#DejaVuSans-101"/>
      <use x="188.28125" xlink:href="#DejaVuSans-116"/>
      <use x="227.490234" xlink:href="#DejaVuSans-95"/>
      <use x="277.490234" xlink:href="#DejaVuSans-99"/>
      <use x="332.470703" xlink:href="#DejaVuSans-111"/>
      <use x="393.652344" xlink:href="#DejaVuSans-114"/>
      <use x="433.015625" xlink:href="#DejaVuSans-114"/>
      <use x="471.878906" xlink:href="#DejaVuSans-101"/>
      <use x="533.402344" xlink:href="#DejaVuSans-108"/>
      <use x="561.185547" xlink:href="#DejaVuSans-97"/>
      <use x="622.464844" xlink:href="#DejaVuSans-116"/>
      <use x="661.673828" xlink:href="#DejaVuSans-105"/>
      <use x="689.457031" xlink:href="#DejaVuSans-111"/>
      <use x="750.638672" xlink:href="#DejaVuSans-110"/>
      <use x="814.017578" xlink:href="#DejaVuSans-95"/>
      <use x="864.017578" xlink:href="#DejaVuSans-115"/>
      <use x="916.117188" xlink:href="#DejaVuSans-99"/>
      <use x="971.097656" xlink:href="#DejaVuSans-111"/>
      <use x="1032.279297" xlink:href="#DejaVuSans-114"/>
      <use x="1071.142578" xlink:href="#DejaVuSans-101"/>
      <use x="1132.666016" xlink:href="#DejaVuSans-95"/>
      <use x="1182.666016" xlink:href="#DejaVuSans-118"/>
      <use x="1241.845703" xlink:href="#DejaVuSans-97"/>
      <use x="1303.125" xlink:href="#DejaVuSans-108"/>
     </g>
    </g>
    <g id="line2d_24">
     <path d="M 59.14375 50.210937 
L 79.14375 50.210937 
" style="fill:none;stroke:#2ca02c;stroke-linecap:square;stroke-width:1.5;"/>
    </g>
    <g id="line2d_25"/>
    <g id="text_21">
     <!-- unet2_correlation_score_val -->
     <g transform="translate(87.14375 53.710937)scale(0.1 -0.1)">
      <use xlink:href="#DejaVuSans-117"/>
      <use x="63.378906" xlink:href="#DejaVuSans-110"/>
      <use x="126.757812" xlink:href="#DejaVuSans-101"/>
      <use x="188.28125" xlink:href="#DejaVuSans-116"/>
      <use x="227.490234" xlink:href="#DejaVuSans-50"/>
      <use x="291.113281" xlink:href="#DejaVuSans-95"/>
      <use x="341.113281" xlink:href="#DejaVuSans-99"/>
      <use x="396.09375" xlink:href="#DejaVuSans-111"/>
      <use x="457.275391" xlink:href="#DejaVuSans-114"/>
      <use x="496.638672" xlink:href="#DejaVuSans-114"/>
      <use x="535.501953" xlink:href="#DejaVuSans-101"/>
      <use x="597.025391" xlink:href="#DejaVuSans-108"/>
      <use x="624.808594" xlink:href="#DejaVuSans-97"/>
      <use x="686.087891" xlink:href="#DejaVuSans-116"/>
      <use x="725.296875" xlink:href="#DejaVuSans-105"/>
      <use x="753.080078" xlink:href="#DejaVuSans-111"/>
      <use x="814.261719" xlink:href="#DejaVuSans-110"/>
      <use x="877.640625" xlink:href="#DejaVuSans-95"/>
      <use x="927.640625" xlink:href="#DejaVuSans-115"/>
      <use x="979.740234" xlink:href="#DejaVuSans-99"/>
      <use x="1034.720703" xlink:href="#DejaVuSans-111"/>
      <use x="1095.902344" xlink:href="#DejaVuSans-114"/>
      <use x="1134.765625" xlink:href="#DejaVuSans-101"/>
      <use x="1196.289062" xlink:href="#DejaVuSans-95"/>
      <use x="1246.289062" xlink:href="#DejaVuSans-118"/>
      <use x="1305.46875" xlink:href="#DejaVuSans-97"/>
      <use x="1366.748047" xlink:href="#DejaVuSans-108"/>
     </g>
    </g>
   </g>
  </g>
 </g>
 <defs>
  <clipPath id="pc9de379bf1">
   <rect height="217.44" width="334.8" x="50.14375" y="7.2"/>
  </clipPath>
 </defs>
</svg>
