<?xml version="1.0" encoding="utf-8" standalone="no"?>
<!DOCTYPE svg PUBLIC "-//W3C//DTD SVG 1.1//EN"
  "http://www.w3.org/Graphics/SVG/1.1/DTD/svg11.dtd">
<!-- Created with matplotlib (https://matplotlib.org/) -->
<svg height="262.19625pt" version="1.1" viewBox="0 0 385.78125 262.19625" width="385.78125pt" xmlns="http://www.w3.org/2000/svg" xmlns:xlink="http://www.w3.org/1999/xlink">
 <metadata>
  <rdf:RDF xmlns:cc="http://creativecommons.org/ns#" xmlns:dc="http://purl.org/dc/elements/1.1/" xmlns:rdf="http://www.w3.org/1999/02/22-rdf-syntax-ns#">
   <cc:Work>
    <dc:type rdf:resource="http://purl.org/dc/dcmitype/StillImage"/>
    <dc:date>2020-12-16T14:55:55.933332</dc:date>
    <dc:format>image/svg+xml</dc:format>
    <dc:creator>
     <cc:Agent>
      <dc:title>Matplotlib v3.3.3, https://matplotlib.org/</dc:title>
     </cc:Agent>
    </dc:creator>
   </cc:Work>
  </rdf:RDF>
 </metadata>
 <defs>
  <style type="text/css">*{stroke-linecap:butt;stroke-linejoin:round;}</style>
 </defs>
 <g id="figure_1">
  <g id="patch_1">
   <path d="M 0 262.19625 
L 385.78125 262.19625 
L 385.78125 0 
L 0 0 
z
" style="fill:none;"/>
  </g>
  <g id="axes_1">
   <g id="patch_2">
    <path d="M 43.78125 224.64 
L 378.58125 224.64 
L 378.58125 7.2 
L 43.78125 7.2 
z
" style="fill:#ffffff;"/>
   </g>
   <g id="matplotlib.axis_1">
    <g id="xtick_1">
     <g id="line2d_1">
      <defs>
       <path d="M 0 0 
L 0 3.5 
" id="md753eabb42" style="stroke:#000000;stroke-width:0.8;"/>
      </defs>
      <g>
       <use style="stroke:#000000;stroke-width:0.8;" x="58.999432" xlink:href="#md753eabb42" y="224.64"/>
      </g>
     </g>
     <g id="text_1">
      <!-- 0 -->
      <g transform="translate(55.818182 239.238437)scale(0.1 -0.1)">
       <defs>
        <path d="M 31.78125 66.40625 
Q 24.171875 66.40625 20.328125 58.90625 
Q 16.5 51.421875 16.5 36.375 
Q 16.5 21.390625 20.328125 13.890625 
Q 24.171875 6.390625 31.78125 6.390625 
Q 39.453125 6.390625 43.28125 13.890625 
Q 47.125 21.390625 47.125 36.375 
Q 47.125 51.421875 43.28125 58.90625 
Q 39.453125 66.40625 31.78125 66.40625 
z
M 31.78125 74.21875 
Q 44.046875 74.21875 50.515625 64.515625 
Q 56.984375 54.828125 56.984375 36.375 
Q 56.984375 17.96875 50.515625 8.265625 
Q 44.046875 -1.421875 31.78125 -1.421875 
Q 19.53125 -1.421875 13.0625 8.265625 
Q 6.59375 17.96875 6.59375 36.375 
Q 6.59375 54.828125 13.0625 64.515625 
Q 19.53125 74.21875 31.78125 74.21875 
z
" id="DejaVuSans-48"/>
       </defs>
       <use xlink:href="#DejaVuSans-48"/>
      </g>
     </g>
    </g>
    <g id="xtick_2">
     <g id="line2d_2">
      <g>
       <use style="stroke:#000000;stroke-width:0.8;" x="97.23607" xlink:href="#md753eabb42" y="224.64"/>
      </g>
     </g>
     <g id="text_2">
      <!-- 25 -->
      <g transform="translate(90.87357 239.238437)scale(0.1 -0.1)">
       <defs>
        <path d="M 19.1875 8.296875 
L 53.609375 8.296875 
L 53.609375 0 
L 7.328125 0 
L 7.328125 8.296875 
Q 12.9375 14.109375 22.625 23.890625 
Q 32.328125 33.6875 34.8125 36.53125 
Q 39.546875 41.84375 41.421875 45.53125 
Q 43.3125 49.21875 43.3125 52.78125 
Q 43.3125 58.59375 39.234375 62.25 
Q 35.15625 65.921875 28.609375 65.921875 
Q 23.96875 65.921875 18.8125 64.3125 
Q 13.671875 62.703125 7.8125 59.421875 
L 7.8125 69.390625 
Q 13.765625 71.78125 18.9375 73 
Q 24.125 74.21875 28.421875 74.21875 
Q 39.75 74.21875 46.484375 68.546875 
Q 53.21875 62.890625 53.21875 53.421875 
Q 53.21875 48.921875 51.53125 44.890625 
Q 49.859375 40.875 45.40625 35.40625 
Q 44.1875 33.984375 37.640625 27.21875 
Q 31.109375 20.453125 19.1875 8.296875 
z
" id="DejaVuSans-50"/>
        <path d="M 10.796875 72.90625 
L 49.515625 72.90625 
L 49.515625 64.59375 
L 19.828125 64.59375 
L 19.828125 46.734375 
Q 21.96875 47.46875 24.109375 47.828125 
Q 26.265625 48.1875 28.421875 48.1875 
Q 40.625 48.1875 47.75 41.5 
Q 54.890625 34.8125 54.890625 23.390625 
Q 54.890625 11.625 47.5625 5.09375 
Q 40.234375 -1.421875 26.90625 -1.421875 
Q 22.3125 -1.421875 17.546875 -0.640625 
Q 12.796875 0.140625 7.71875 1.703125 
L 7.71875 11.625 
Q 12.109375 9.234375 16.796875 8.0625 
Q 21.484375 6.890625 26.703125 6.890625 
Q 35.15625 6.890625 40.078125 11.328125 
Q 45.015625 15.765625 45.015625 23.390625 
Q 45.015625 31 40.078125 35.4375 
Q 35.15625 39.890625 26.703125 39.890625 
Q 22.75 39.890625 18.8125 39.015625 
Q 14.890625 38.140625 10.796875 36.28125 
z
" id="DejaVuSans-53"/>
       </defs>
       <use xlink:href="#DejaVuSans-50"/>
       <use x="63.623047" xlink:href="#DejaVuSans-53"/>
      </g>
     </g>
    </g>
    <g id="xtick_3">
     <g id="line2d_3">
      <g>
       <use style="stroke:#000000;stroke-width:0.8;" x="135.472707" xlink:href="#md753eabb42" y="224.64"/>
      </g>
     </g>
     <g id="text_3">
      <!-- 50 -->
      <g transform="translate(129.110207 239.238437)scale(0.1 -0.1)">
       <use xlink:href="#DejaVuSans-53"/>
       <use x="63.623047" xlink:href="#DejaVuSans-48"/>
      </g>
     </g>
    </g>
    <g id="xtick_4">
     <g id="line2d_4">
      <g>
       <use style="stroke:#000000;stroke-width:0.8;" x="173.709345" xlink:href="#md753eabb42" y="224.64"/>
      </g>
     </g>
     <g id="text_4">
      <!-- 75 -->
      <g transform="translate(167.346845 239.238437)scale(0.1 -0.1)">
       <defs>
        <path d="M 8.203125 72.90625 
L 55.078125 72.90625 
L 55.078125 68.703125 
L 28.609375 0 
L 18.3125 0 
L 43.21875 64.59375 
L 8.203125 64.59375 
z
" id="DejaVuSans-55"/>
       </defs>
       <use xlink:href="#DejaVuSans-55"/>
       <use x="63.623047" xlink:href="#DejaVuSans-53"/>
      </g>
     </g>
    </g>
    <g id="xtick_5">
     <g id="line2d_5">
      <g>
       <use style="stroke:#000000;stroke-width:0.8;" x="211.945983" xlink:href="#md753eabb42" y="224.64"/>
      </g>
     </g>
     <g id="text_5">
      <!-- 100 -->
      <g transform="translate(202.402233 239.238437)scale(0.1 -0.1)">
       <defs>
        <path d="M 12.40625 8.296875 
L 28.515625 8.296875 
L 28.515625 63.921875 
L 10.984375 60.40625 
L 10.984375 69.390625 
L 28.421875 72.90625 
L 38.28125 72.90625 
L 38.28125 8.296875 
L 54.390625 8.296875 
L 54.390625 0 
L 12.40625 0 
z
" id="DejaVuSans-49"/>
       </defs>
       <use xlink:href="#DejaVuSans-49"/>
       <use x="63.623047" xlink:href="#DejaVuSans-48"/>
       <use x="127.246094" xlink:href="#DejaVuSans-48"/>
      </g>
     </g>
    </g>
    <g id="xtick_6">
     <g id="line2d_6">
      <g>
       <use style="stroke:#000000;stroke-width:0.8;" x="250.18262" xlink:href="#md753eabb42" y="224.64"/>
      </g>
     </g>
     <g id="text_6">
      <!-- 125 -->
      <g transform="translate(240.63887 239.238437)scale(0.1 -0.1)">
       <use xlink:href="#DejaVuSans-49"/>
       <use x="63.623047" xlink:href="#DejaVuSans-50"/>
       <use x="127.246094" xlink:href="#DejaVuSans-53"/>
      </g>
     </g>
    </g>
    <g id="xtick_7">
     <g id="line2d_7">
      <g>
       <use style="stroke:#000000;stroke-width:0.8;" x="288.419258" xlink:href="#md753eabb42" y="224.64"/>
      </g>
     </g>
     <g id="text_7">
      <!-- 150 -->
      <g transform="translate(278.875508 239.238437)scale(0.1 -0.1)">
       <use xlink:href="#DejaVuSans-49"/>
       <use x="63.623047" xlink:href="#DejaVuSans-53"/>
       <use x="127.246094" xlink:href="#DejaVuSans-48"/>
      </g>
     </g>
    </g>
    <g id="xtick_8">
     <g id="line2d_8">
      <g>
       <use style="stroke:#000000;stroke-width:0.8;" x="326.655896" xlink:href="#md753eabb42" y="224.64"/>
      </g>
     </g>
     <g id="text_8">
      <!-- 175 -->
      <g transform="translate(317.112146 239.238437)scale(0.1 -0.1)">
       <use xlink:href="#DejaVuSans-49"/>
       <use x="63.623047" xlink:href="#DejaVuSans-55"/>
       <use x="127.246094" xlink:href="#DejaVuSans-53"/>
      </g>
     </g>
    </g>
    <g id="xtick_9">
     <g id="line2d_9">
      <g>
       <use style="stroke:#000000;stroke-width:0.8;" x="364.892534" xlink:href="#md753eabb42" y="224.64"/>
      </g>
     </g>
     <g id="text_9">
      <!-- 200 -->
      <g transform="translate(355.348784 239.238437)scale(0.1 -0.1)">
       <use xlink:href="#DejaVuSans-50"/>
       <use x="63.623047" xlink:href="#DejaVuSans-48"/>
       <use x="127.246094" xlink:href="#DejaVuSans-48"/>
      </g>
     </g>
    </g>
    <g id="text_10">
     <!-- epoch -->
     <g transform="translate(195.953125 252.916562)scale(0.1 -0.1)">
      <defs>
       <path d="M 56.203125 29.59375 
L 56.203125 25.203125 
L 14.890625 25.203125 
Q 15.484375 15.921875 20.484375 11.0625 
Q 25.484375 6.203125 34.421875 6.203125 
Q 39.59375 6.203125 44.453125 7.46875 
Q 49.3125 8.734375 54.109375 11.28125 
L 54.109375 2.78125 
Q 49.265625 0.734375 44.1875 -0.34375 
Q 39.109375 -1.421875 33.890625 -1.421875 
Q 20.796875 -1.421875 13.15625 6.1875 
Q 5.515625 13.8125 5.515625 26.8125 
Q 5.515625 40.234375 12.765625 48.109375 
Q 20.015625 56 32.328125 56 
Q 43.359375 56 49.78125 48.890625 
Q 56.203125 41.796875 56.203125 29.59375 
z
M 47.21875 32.234375 
Q 47.125 39.59375 43.09375 43.984375 
Q 39.0625 48.390625 32.421875 48.390625 
Q 24.90625 48.390625 20.390625 44.140625 
Q 15.875 39.890625 15.1875 32.171875 
z
" id="DejaVuSans-101"/>
       <path d="M 18.109375 8.203125 
L 18.109375 -20.796875 
L 9.078125 -20.796875 
L 9.078125 54.6875 
L 18.109375 54.6875 
L 18.109375 46.390625 
Q 20.953125 51.265625 25.265625 53.625 
Q 29.59375 56 35.59375 56 
Q 45.5625 56 51.78125 48.09375 
Q 58.015625 40.1875 58.015625 27.296875 
Q 58.015625 14.40625 51.78125 6.484375 
Q 45.5625 -1.421875 35.59375 -1.421875 
Q 29.59375 -1.421875 25.265625 0.953125 
Q 20.953125 3.328125 18.109375 8.203125 
z
M 48.6875 27.296875 
Q 48.6875 37.203125 44.609375 42.84375 
Q 40.53125 48.484375 33.40625 48.484375 
Q 26.265625 48.484375 22.1875 42.84375 
Q 18.109375 37.203125 18.109375 27.296875 
Q 18.109375 17.390625 22.1875 11.75 
Q 26.265625 6.109375 33.40625 6.109375 
Q 40.53125 6.109375 44.609375 11.75 
Q 48.6875 17.390625 48.6875 27.296875 
z
" id="DejaVuSans-112"/>
       <path d="M 30.609375 48.390625 
Q 23.390625 48.390625 19.1875 42.75 
Q 14.984375 37.109375 14.984375 27.296875 
Q 14.984375 17.484375 19.15625 11.84375 
Q 23.34375 6.203125 30.609375 6.203125 
Q 37.796875 6.203125 41.984375 11.859375 
Q 46.1875 17.53125 46.1875 27.296875 
Q 46.1875 37.015625 41.984375 42.703125 
Q 37.796875 48.390625 30.609375 48.390625 
z
M 30.609375 56 
Q 42.328125 56 49.015625 48.375 
Q 55.71875 40.765625 55.71875 27.296875 
Q 55.71875 13.875 49.015625 6.21875 
Q 42.328125 -1.421875 30.609375 -1.421875 
Q 18.84375 -1.421875 12.171875 6.21875 
Q 5.515625 13.875 5.515625 27.296875 
Q 5.515625 40.765625 12.171875 48.375 
Q 18.84375 56 30.609375 56 
z
" id="DejaVuSans-111"/>
       <path d="M 48.78125 52.59375 
L 48.78125 44.1875 
Q 44.96875 46.296875 41.140625 47.34375 
Q 37.3125 48.390625 33.40625 48.390625 
Q 24.65625 48.390625 19.8125 42.84375 
Q 14.984375 37.3125 14.984375 27.296875 
Q 14.984375 17.28125 19.8125 11.734375 
Q 24.65625 6.203125 33.40625 6.203125 
Q 37.3125 6.203125 41.140625 7.25 
Q 44.96875 8.296875 48.78125 10.40625 
L 48.78125 2.09375 
Q 45.015625 0.34375 40.984375 -0.53125 
Q 36.96875 -1.421875 32.421875 -1.421875 
Q 20.0625 -1.421875 12.78125 6.34375 
Q 5.515625 14.109375 5.515625 27.296875 
Q 5.515625 40.671875 12.859375 48.328125 
Q 20.21875 56 33.015625 56 
Q 37.15625 56 41.109375 55.140625 
Q 45.0625 54.296875 48.78125 52.59375 
z
" id="DejaVuSans-99"/>
       <path d="M 54.890625 33.015625 
L 54.890625 0 
L 45.90625 0 
L 45.90625 32.71875 
Q 45.90625 40.484375 42.875 44.328125 
Q 39.84375 48.1875 33.796875 48.1875 
Q 26.515625 48.1875 22.3125 43.546875 
Q 18.109375 38.921875 18.109375 30.90625 
L 18.109375 0 
L 9.078125 0 
L 9.078125 75.984375 
L 18.109375 75.984375 
L 18.109375 46.1875 
Q 21.34375 51.125 25.703125 53.5625 
Q 30.078125 56 35.796875 56 
Q 45.21875 56 50.046875 50.171875 
Q 54.890625 44.34375 54.890625 33.015625 
z
" id="DejaVuSans-104"/>
      </defs>
      <use xlink:href="#DejaVuSans-101"/>
      <use x="61.523438" xlink:href="#DejaVuSans-112"/>
      <use x="125" xlink:href="#DejaVuSans-111"/>
      <use x="186.181641" xlink:href="#DejaVuSans-99"/>
      <use x="241.162109" xlink:href="#DejaVuSans-104"/>
     </g>
    </g>
   </g>
   <g id="matplotlib.axis_2">
    <g id="ytick_1">
     <g id="line2d_10">
      <defs>
       <path d="M 0 0 
L -3.5 0 
" id="m6bbc9cbbfd" style="stroke:#000000;stroke-width:0.8;"/>
      </defs>
      <g>
       <use style="stroke:#000000;stroke-width:0.8;" x="43.78125" xlink:href="#m6bbc9cbbfd" y="216.436302"/>
      </g>
     </g>
     <g id="text_11">
      <!-- 0.0 -->
      <g transform="translate(20.878125 220.235521)scale(0.1 -0.1)">
       <defs>
        <path d="M 10.6875 12.40625 
L 21 12.40625 
L 21 0 
L 10.6875 0 
z
" id="DejaVuSans-46"/>
       </defs>
       <use xlink:href="#DejaVuSans-48"/>
       <use x="63.623047" xlink:href="#DejaVuSans-46"/>
       <use x="95.410156" xlink:href="#DejaVuSans-48"/>
      </g>
     </g>
    </g>
    <g id="ytick_2">
     <g id="line2d_11">
      <g>
       <use style="stroke:#000000;stroke-width:0.8;" x="43.78125" xlink:href="#m6bbc9cbbfd" y="188.437333"/>
      </g>
     </g>
     <g id="text_12">
      <!-- 0.1 -->
      <g transform="translate(20.878125 192.236551)scale(0.1 -0.1)">
       <use xlink:href="#DejaVuSans-48"/>
       <use x="63.623047" xlink:href="#DejaVuSans-46"/>
       <use x="95.410156" xlink:href="#DejaVuSans-49"/>
      </g>
     </g>
    </g>
    <g id="ytick_3">
     <g id="line2d_12">
      <g>
       <use style="stroke:#000000;stroke-width:0.8;" x="43.78125" xlink:href="#m6bbc9cbbfd" y="160.438363"/>
      </g>
     </g>
     <g id="text_13">
      <!-- 0.2 -->
      <g transform="translate(20.878125 164.237582)scale(0.1 -0.1)">
       <use xlink:href="#DejaVuSans-48"/>
       <use x="63.623047" xlink:href="#DejaVuSans-46"/>
       <use x="95.410156" xlink:href="#DejaVuSans-50"/>
      </g>
     </g>
    </g>
    <g id="ytick_4">
     <g id="line2d_13">
      <g>
       <use style="stroke:#000000;stroke-width:0.8;" x="43.78125" xlink:href="#m6bbc9cbbfd" y="132.439394"/>
      </g>
     </g>
     <g id="text_14">
      <!-- 0.3 -->
      <g transform="translate(20.878125 136.238612)scale(0.1 -0.1)">
       <defs>
        <path d="M 40.578125 39.3125 
Q 47.65625 37.796875 51.625 33 
Q 55.609375 28.21875 55.609375 21.1875 
Q 55.609375 10.40625 48.1875 4.484375 
Q 40.765625 -1.421875 27.09375 -1.421875 
Q 22.515625 -1.421875 17.65625 -0.515625 
Q 12.796875 0.390625 7.625 2.203125 
L 7.625 11.71875 
Q 11.71875 9.328125 16.59375 8.109375 
Q 21.484375 6.890625 26.8125 6.890625 
Q 36.078125 6.890625 40.9375 10.546875 
Q 45.796875 14.203125 45.796875 21.1875 
Q 45.796875 27.640625 41.28125 31.265625 
Q 36.765625 34.90625 28.71875 34.90625 
L 20.21875 34.90625 
L 20.21875 43.015625 
L 29.109375 43.015625 
Q 36.375 43.015625 40.234375 45.921875 
Q 44.09375 48.828125 44.09375 54.296875 
Q 44.09375 59.90625 40.109375 62.90625 
Q 36.140625 65.921875 28.71875 65.921875 
Q 24.65625 65.921875 20.015625 65.03125 
Q 15.375 64.15625 9.8125 62.3125 
L 9.8125 71.09375 
Q 15.4375 72.65625 20.34375 73.4375 
Q 25.25 74.21875 29.59375 74.21875 
Q 40.828125 74.21875 47.359375 69.109375 
Q 53.90625 64.015625 53.90625 55.328125 
Q 53.90625 49.265625 50.4375 45.09375 
Q 46.96875 40.921875 40.578125 39.3125 
z
" id="DejaVuSans-51"/>
       </defs>
       <use xlink:href="#DejaVuSans-48"/>
       <use x="63.623047" xlink:href="#DejaVuSans-46"/>
       <use x="95.410156" xlink:href="#DejaVuSans-51"/>
      </g>
     </g>
    </g>
    <g id="ytick_5">
     <g id="line2d_14">
      <g>
       <use style="stroke:#000000;stroke-width:0.8;" x="43.78125" xlink:href="#m6bbc9cbbfd" y="104.440424"/>
      </g>
     </g>
     <g id="text_15">
      <!-- 0.4 -->
      <g transform="translate(20.878125 108.239643)scale(0.1 -0.1)">
       <defs>
        <path d="M 37.796875 64.3125 
L 12.890625 25.390625 
L 37.796875 25.390625 
z
M 35.203125 72.90625 
L 47.609375 72.90625 
L 47.609375 25.390625 
L 58.015625 25.390625 
L 58.015625 17.1875 
L 47.609375 17.1875 
L 47.609375 0 
L 37.796875 0 
L 37.796875 17.1875 
L 4.890625 17.1875 
L 4.890625 26.703125 
z
" id="DejaVuSans-52"/>
       </defs>
       <use xlink:href="#DejaVuSans-48"/>
       <use x="63.623047" xlink:href="#DejaVuSans-46"/>
       <use x="95.410156" xlink:href="#DejaVuSans-52"/>
      </g>
     </g>
    </g>
    <g id="ytick_6">
     <g id="line2d_15">
      <g>
       <use style="stroke:#000000;stroke-width:0.8;" x="43.78125" xlink:href="#m6bbc9cbbfd" y="76.441455"/>
      </g>
     </g>
     <g id="text_16">
      <!-- 0.5 -->
      <g transform="translate(20.878125 80.240674)scale(0.1 -0.1)">
       <use xlink:href="#DejaVuSans-48"/>
       <use x="63.623047" xlink:href="#DejaVuSans-46"/>
       <use x="95.410156" xlink:href="#DejaVuSans-53"/>
      </g>
     </g>
    </g>
    <g id="ytick_7">
     <g id="line2d_16">
      <g>
       <use style="stroke:#000000;stroke-width:0.8;" x="43.78125" xlink:href="#m6bbc9cbbfd" y="48.442486"/>
      </g>
     </g>
     <g id="text_17">
      <!-- 0.6 -->
      <g transform="translate(20.878125 52.241704)scale(0.1 -0.1)">
       <defs>
        <path d="M 33.015625 40.375 
Q 26.375 40.375 22.484375 35.828125 
Q 18.609375 31.296875 18.609375 23.390625 
Q 18.609375 15.53125 22.484375 10.953125 
Q 26.375 6.390625 33.015625 6.390625 
Q 39.65625 6.390625 43.53125 10.953125 
Q 47.40625 15.53125 47.40625 23.390625 
Q 47.40625 31.296875 43.53125 35.828125 
Q 39.65625 40.375 33.015625 40.375 
z
M 52.59375 71.296875 
L 52.59375 62.3125 
Q 48.875 64.0625 45.09375 64.984375 
Q 41.3125 65.921875 37.59375 65.921875 
Q 27.828125 65.921875 22.671875 59.328125 
Q 17.53125 52.734375 16.796875 39.40625 
Q 19.671875 43.65625 24.015625 45.921875 
Q 28.375 48.1875 33.59375 48.1875 
Q 44.578125 48.1875 50.953125 41.515625 
Q 57.328125 34.859375 57.328125 23.390625 
Q 57.328125 12.15625 50.6875 5.359375 
Q 44.046875 -1.421875 33.015625 -1.421875 
Q 20.359375 -1.421875 13.671875 8.265625 
Q 6.984375 17.96875 6.984375 36.375 
Q 6.984375 53.65625 15.1875 63.9375 
Q 23.390625 74.21875 37.203125 74.21875 
Q 40.921875 74.21875 44.703125 73.484375 
Q 48.484375 72.75 52.59375 71.296875 
z
" id="DejaVuSans-54"/>
       </defs>
       <use xlink:href="#DejaVuSans-48"/>
       <use x="63.623047" xlink:href="#DejaVuSans-46"/>
       <use x="95.410156" xlink:href="#DejaVuSans-54"/>
      </g>
     </g>
    </g>
    <g id="ytick_8">
     <g id="line2d_17">
      <g>
       <use style="stroke:#000000;stroke-width:0.8;" x="43.78125" xlink:href="#m6bbc9cbbfd" y="20.443516"/>
      </g>
     </g>
     <g id="text_18">
      <!-- 0.7 -->
      <g transform="translate(20.878125 24.242735)scale(0.1 -0.1)">
       <use xlink:href="#DejaVuSans-48"/>
       <use x="63.623047" xlink:href="#DejaVuSans-46"/>
       <use x="95.410156" xlink:href="#DejaVuSans-55"/>
      </g>
     </g>
    </g>
    <g id="text_19">
     <!-- score -->
     <g transform="translate(14.798438 129.352812)rotate(-90)scale(0.1 -0.1)">
      <defs>
       <path d="M 44.28125 53.078125 
L 44.28125 44.578125 
Q 40.484375 46.53125 36.375 47.5 
Q 32.28125 48.484375 27.875 48.484375 
Q 21.1875 48.484375 17.84375 46.4375 
Q 14.5 44.390625 14.5 40.28125 
Q 14.5 37.15625 16.890625 35.375 
Q 19.28125 33.59375 26.515625 31.984375 
L 29.59375 31.296875 
Q 39.15625 29.25 43.1875 25.515625 
Q 47.21875 21.78125 47.21875 15.09375 
Q 47.21875 7.46875 41.1875 3.015625 
Q 35.15625 -1.421875 24.609375 -1.421875 
Q 20.21875 -1.421875 15.453125 -0.5625 
Q 10.6875 0.296875 5.421875 2 
L 5.421875 11.28125 
Q 10.40625 8.6875 15.234375 7.390625 
Q 20.0625 6.109375 24.8125 6.109375 
Q 31.15625 6.109375 34.5625 8.28125 
Q 37.984375 10.453125 37.984375 14.40625 
Q 37.984375 18.0625 35.515625 20.015625 
Q 33.0625 21.96875 24.703125 23.78125 
L 21.578125 24.515625 
Q 13.234375 26.265625 9.515625 29.90625 
Q 5.8125 33.546875 5.8125 39.890625 
Q 5.8125 47.609375 11.28125 51.796875 
Q 16.75 56 26.8125 56 
Q 31.78125 56 36.171875 55.265625 
Q 40.578125 54.546875 44.28125 53.078125 
z
" id="DejaVuSans-115"/>
       <path d="M 41.109375 46.296875 
Q 39.59375 47.171875 37.8125 47.578125 
Q 36.03125 48 33.890625 48 
Q 26.265625 48 22.1875 43.046875 
Q 18.109375 38.09375 18.109375 28.8125 
L 18.109375 0 
L 9.078125 0 
L 9.078125 54.6875 
L 18.109375 54.6875 
L 18.109375 46.1875 
Q 20.953125 51.171875 25.484375 53.578125 
Q 30.03125 56 36.53125 56 
Q 37.453125 56 38.578125 55.875 
Q 39.703125 55.765625 41.0625 55.515625 
z
" id="DejaVuSans-114"/>
      </defs>
      <use xlink:href="#DejaVuSans-115"/>
      <use x="52.099609" xlink:href="#DejaVuSans-99"/>
      <use x="107.080078" xlink:href="#DejaVuSans-111"/>
      <use x="168.261719" xlink:href="#DejaVuSans-114"/>
      <use x="207.125" xlink:href="#DejaVuSans-101"/>
     </g>
    </g>
   </g>
   <g id="line2d_18">
    <path clip-path="url(#p009b940eea)" d="M 58.999432 214.756364 
L 60.528897 208.59659 
L 62.058363 202.996796 
L 63.587828 208.59659 
L 65.117294 213.076425 
L 66.646759 196.277043 
L 68.176225 195.157084 
L 69.70569 174.997826 
L 71.235156 191.797208 
L 72.764621 200.756878 
L 74.294087 213.076425 
L 75.823552 196.837023 
L 77.353018 183.957496 
L 78.882483 195.717063 
L 80.411949 188.997311 
L 81.941414 177.797724 
L 83.47088 146.998858 
L 85.000345 187.317373 
L 86.529811 171.637951 
L 88.059276 152.59865 
L 89.588742 148.118817 
L 91.118208 106.68034 
L 92.647673 121.799782 
L 94.177139 95.480751 
L 95.706604 92.120873 
L 97.23607 84.281162 
L 98.765535 116.199984 
L 100.295001 103.880439 
L 101.824466 70.281674 
L 103.353932 73.081575 
L 104.883397 104.440419 
L 106.412863 81.481265 
L 107.942328 62.441969 
L 109.471794 60.20205 
L 111.001259 63.561923 
L 112.530725 51.242373 
L 114.06019 66.361822 
L 115.589656 44.52262 
L 117.119121 58.522115 
L 118.648587 67.481783 
L 120.178052 74.76151 
L 121.707518 75.321492 
L 123.236983 60.202046 
L 124.766449 32.763058 
L 126.295914 50.12242 
L 127.82538 44.522624 
L 129.354845 31.083124 
L 130.884311 45.642585 
L 132.413776 47.882498 
L 133.943242 35.562952 
L 135.472707 35.002978 
L 137.002173 32.763058 
L 138.531638 32.763064 
L 140.061104 59.642069 
L 141.590569 49.002461 
L 143.120035 54.042271 
L 144.6495 37.802867 
L 146.178966 26.603284 
L 147.708431 43.962648 
L 149.237897 35.00297 
L 150.767362 50.682394 
L 152.296828 30.523136 
L 153.826293 54.042277 
L 155.355759 37.802871 
L 156.885224 33.883019 
L 158.41469 20.443513 
L 159.944155 41.16274 
L 161.473621 21.003485 
L 163.003086 46.762544 
L 164.532552 29.403181 
L 166.062017 19.883534 
L 167.591483 47.8825 
L 169.120948 27.723245 
L 170.650414 22.123453 
L 172.17988 32.763054 
L 173.709345 23.24341 
L 175.238811 22.683432 
L 176.768276 26.043308 
L 178.297742 20.443509 
L 179.827207 25.483333 
L 181.356673 22.123449 
L 182.886138 19.883534 
L 184.415604 26.043305 
L 185.945069 24.363368 
L 187.474535 31.083114 
L 189.004 18.76357 
L 190.533466 22.123449 
L 192.062931 21.003488 
L 193.592397 22.683428 
L 195.121862 21.003492 
L 196.651328 21.563467 
L 198.180793 24.363368 
L 199.710259 23.243414 
L 201.239724 23.803396 
L 202.76919 22.683428 
L 204.298655 25.483326 
L 205.828121 19.883537 
L 207.357586 21.003492 
L 208.887052 22.683428 
L 210.416517 22.123449 
L 211.945983 23.243407 
L 213.475448 22.123446 
L 215.004914 17.083636 
L 218.063845 21.563471 
L 219.59331 23.243407 
L 221.122776 20.443516 
L 222.652241 23.243414 
L 224.181707 18.76357 
L 225.711172 21.563467 
L 227.240638 22.683432 
L 228.770103 22.683428 
L 230.299569 19.323555 
L 231.829034 19.323558 
L 233.3585 24.923347 
L 234.887965 21.563474 
L 236.417431 18.763573 
L 237.946896 18.763573 
L 239.476362 24.363365 
L 241.005827 21.563471 
L 242.535293 19.883531 
L 244.064758 22.683428 
L 245.594224 23.243414 
L 247.123689 23.243404 
L 250.18262 22.123446 
L 251.712086 24.363361 
L 253.241552 21.563471 
L 254.771017 23.803389 
L 256.300483 22.123449 
L 257.829948 23.803386 
L 259.359414 26.043308 
L 260.888879 18.763566 
L 262.418345 22.683422 
L 263.94781 22.683428 
L 265.477276 28.843206 
L 267.006741 21.563474 
L 268.536207 19.883537 
L 270.065672 23.803389 
L 271.595138 19.883531 
L 273.124603 22.123449 
L 274.654069 21.563474 
L 276.183534 23.243404 
L 277.713 26.043301 
L 279.242465 20.443513 
L 280.771931 24.363368 
L 282.301396 20.443513 
L 283.830862 22.683428 
L 285.360327 23.243407 
L 286.889793 26.603284 
L 288.419258 21.003485 
L 289.948724 23.24341 
L 291.478189 21.563464 
L 293.007655 24.92334 
L 294.53712 21.563474 
L 296.066586 21.003492 
L 297.596051 21.003495 
L 299.125517 23.243407 
L 300.654982 23.803389 
L 302.184448 22.123446 
L 303.713913 22.683425 
L 306.772844 22.683428 
L 308.30231 23.243404 
L 309.831775 22.683432 
L 311.361241 21.003488 
L 312.890706 21.563474 
L 314.420172 22.683432 
L 315.949637 22.123453 
L 317.479103 22.683435 
L 320.538034 22.683428 
L 322.067499 22.123446 
L 323.596965 24.363365 
L 325.12643 21.003485 
L 326.655896 20.443509 
L 328.185361 21.563471 
L 329.714827 24.363368 
L 331.244292 24.363365 
L 332.773758 23.243404 
L 334.303224 24.363365 
L 335.832689 22.123453 
L 337.362155 24.923347 
L 338.89162 23.803389 
L 340.421086 25.483323 
L 341.950551 22.123449 
L 345.009482 22.123449 
L 346.538948 24.363368 
L 348.068413 23.803389 
L 349.597879 22.683428 
L 351.127344 24.363361 
L 352.65681 22.683425 
L 354.186275 23.243407 
L 355.715741 24.92335 
L 357.245206 24.92334 
L 358.774672 23.803389 
L 360.304137 21.563471 
L 361.833603 27.723245 
L 363.363068 22.123453 
L 363.363068 22.123453 
" style="fill:none;stroke:#1f77b4;stroke-linecap:square;stroke-width:1.5;"/>
   </g>
   <g id="line2d_19">
    <path clip-path="url(#p009b940eea)" d="M 58.999432 145.878897 
L 60.528897 140.839081 
L 62.058363 144.758938 
L 63.587828 144.758936 
L 65.117294 137.479201 
L 66.646759 115.080028 
L 68.176225 116.759968 
L 69.70569 128.519538 
L 71.235156 112.28013 
L 72.764621 111.160172 
L 74.294087 110.600195 
L 75.823552 98.280645 
L 77.353018 110.600195 
L 78.882483 107.24032 
L 80.411949 107.800295 
L 81.941414 91.000912 
L 83.47088 112.840115 
L 85.000345 108.920254 
L 86.529811 120.679827 
L 88.059276 108.360278 
L 89.588742 113.400092 
L 91.118208 112.280136 
L 92.647673 108.920255 
L 94.177139 102.760482 
L 95.706604 102.760484 
L 97.23607 118.999886 
L 98.765535 119.559861 
L 100.295001 109.480237 
L 101.824466 101.640524 
L 104.883397 108.360273 
L 106.412863 110.040213 
L 107.942328 116.199993 
L 109.471794 117.319946 
L 111.001259 118.999883 
L 112.530725 117.879925 
L 114.06019 108.920255 
L 115.589656 112.840108 
L 117.119121 97.720666 
L 118.648587 111.720156 
L 120.178052 115.080031 
L 121.707518 120.119846 
L 123.236983 121.799785 
L 124.766449 118.439904 
L 126.295914 111.720157 
L 127.82538 101.640524 
L 129.354845 111.720156 
L 130.884311 113.960071 
L 132.413776 122.919742 
L 133.943242 109.480239 
L 135.472707 117.879927 
L 137.002173 111.160171 
L 138.531638 118.999885 
L 140.061104 118.439904 
L 141.590569 119.559863 
L 143.120035 121.239802 
L 144.6495 124.039699 
L 146.178966 114.520053 
L 147.708431 125.159659 
L 149.237897 102.760484 
L 150.767362 120.679821 
L 152.296828 129.079511 
L 153.826293 115.640009 
L 155.355759 127.399576 
L 156.885224 109.480236 
L 158.41469 107.240317 
L 159.944155 90.440935 
L 161.473621 112.840107 
L 163.003086 129.639492 
L 164.532552 98.840629 
L 166.062017 131.879412 
L 167.591483 123.479721 
L 169.120948 126.279619 
L 170.650414 129.639494 
L 172.17988 116.199985 
L 173.709345 120.119842 
L 175.238811 128.519536 
L 176.768276 103.320462 
L 178.297742 104.440423 
L 179.827207 118.999885 
L 181.356673 125.159661 
L 182.886138 130.199471 
L 184.415604 100.520562 
L 185.945069 106.120361 
L 187.474535 126.839599 
L 189.004 136.359244 
L 190.533466 134.679309 
L 192.062931 118.439907 
L 193.592397 109.480237 
L 195.121862 124.599681 
L 196.651328 111.720155 
L 198.180793 105.000403 
L 199.710259 98.840625 
L 201.239724 127.959557 
L 202.76919 120.67982 
L 204.298655 119.559869 
L 205.828121 119.559864 
L 207.357586 118.439904 
L 208.887052 114.520053 
L 210.416517 113.960067 
L 211.945983 92.120878 
L 213.475448 115.080032 
L 215.004914 96.040728 
L 216.534379 116.199988 
L 218.063845 109.480233 
L 219.59331 120.679821 
L 221.122776 139.719125 
L 222.652241 125.159661 
L 224.181707 113.960072 
L 225.711172 124.039703 
L 227.240638 117.879925 
L 228.770103 113.400089 
L 230.299569 97.160684 
L 231.829034 121.239803 
L 233.3585 96.600706 
L 234.887965 108.360275 
L 236.417431 113.400088 
L 237.946896 95.480749 
L 239.476362 112.280133 
L 241.005827 102.200504 
L 242.535293 113.400092 
L 244.064758 87.081056 
L 245.594224 112.840112 
L 247.123689 90.440932 
L 248.653155 92.120872 
L 250.18262 110.600196 
L 251.712086 149.238773 
L 253.241552 152.598649 
L 254.771017 148.118813 
L 256.300483 135.799267 
L 257.829948 132.439394 
L 259.359414 112.280135 
L 260.888879 110.040212 
L 262.418345 126.839599 
L 263.94781 129.079512 
L 265.477276 110.600193 
L 267.006741 130.199474 
L 268.536207 114.520054 
L 270.065672 107.800298 
L 271.595138 121.79978 
L 273.124603 117.31995 
L 274.654069 114.520052 
L 276.183534 110.040215 
L 277.713 98.840627 
L 279.242465 118.43991 
L 280.771931 113.400089 
L 282.301396 121.239798 
L 283.830862 124.599681 
L 285.360327 117.879924 
L 286.889793 117.879924 
L 288.419258 93.240834 
L 289.948724 116.759966 
L 291.478189 115.080028 
L 293.007655 123.479714 
L 294.53712 115.640008 
L 296.066586 116.759968 
L 297.596051 134.679307 
L 299.125517 119.559864 
L 300.654982 127.959555 
L 302.184448 129.079514 
L 303.713913 125.159656 
L 305.243379 135.799268 
L 306.772844 131.319435 
L 308.30231 135.799268 
L 309.831775 139.159144 
L 311.361241 129.079511 
L 312.890706 137.479206 
L 314.420172 117.879925 
L 315.949637 147.558836 
L 317.479103 149.798755 
L 319.008568 131.319435 
L 320.538034 126.279617 
L 322.067499 131.87941 
L 323.596965 123.47972 
L 325.12643 139.719128 
L 326.655896 140.2791 
L 328.185361 135.799268 
L 329.714827 143.079001 
L 331.244292 124.599676 
L 332.773758 153.718608 
L 334.303224 137.479206 
L 335.832689 146.998858 
L 337.362155 138.039181 
L 338.89162 132.439392 
L 340.421086 166.598133 
L 341.950551 146.998856 
L 343.480017 144.198957 
L 345.009482 147.558833 
L 346.538948 154.278586 
L 348.068413 146.438877 
L 349.597879 158.758422 
L 351.127344 141.959041 
L 352.65681 140.839079 
L 354.186275 160.998343 
L 355.715741 155.958528 
L 357.245206 157.638464 
L 358.774672 154.278587 
L 360.304137 176.117783 
L 361.833603 141.399064 
L 363.363068 162.1183 
L 363.363068 162.1183 
" style="fill:none;stroke:#ff7f0e;stroke-linecap:square;stroke-width:1.5;"/>
   </g>
   <g id="line2d_20">
    <path clip-path="url(#p009b940eea)" d="M 58.999432 174.997825 
L 60.528897 154.27859 
L 62.058363 164.918197 
L 63.587828 146.438875 
L 65.117294 144.198958 
L 66.646759 169.95801 
L 68.176225 155.398548 
L 69.70569 195.717064 
L 71.235156 158.758426 
L 72.764621 210.836508 
L 74.294087 203.556775 
L 75.823552 206.916652 
L 77.353018 200.756879 
L 78.882483 205.236714 
L 80.411949 197.397002 
L 81.941414 197.956981 
L 83.47088 197.956982 
L 85.000345 199.07694 
L 86.529811 190.117269 
L 88.059276 191.237228 
L 89.588742 187.877351 
L 91.118208 191.797208 
L 92.647673 184.517475 
L 94.177139 186.757394 
L 95.706604 192.357187 
L 97.23607 181.717578 
L 98.765535 196.277043 
L 100.295001 181.717579 
L 101.824466 176.677765 
L 103.353932 191.237229 
L 106.412863 190.11727 
L 107.942328 191.237228 
L 109.471794 185.637434 
L 111.001259 185.637435 
L 112.530725 180.597619 
L 114.06019 181.157598 
L 115.589656 191.237228 
L 117.119121 195.157083 
L 118.648587 181.717579 
L 120.178052 162.1183 
L 121.707518 187.877351 
L 123.236983 168.278072 
L 124.766449 186.197414 
L 126.295914 159.318402 
L 127.82538 182.277559 
L 129.354845 194.597105 
L 130.884311 191.797209 
L 132.413776 181.717577 
L 133.943242 192.357187 
L 135.472707 188.99731 
L 137.002173 194.597105 
L 138.531638 193.477146 
L 140.061104 191.797208 
L 141.590569 189.55729 
L 143.120035 177.237744 
L 144.6495 178.357701 
L 146.178966 181.1576 
L 147.708431 191.797208 
L 149.237897 192.357188 
L 150.767362 184.517475 
L 153.826293 195.717064 
L 155.355759 195.157084 
L 156.885224 191.797208 
L 158.41469 192.357187 
L 159.944155 195.717064 
L 161.473621 189.55729 
L 163.003086 193.477145 
L 164.532552 190.11727 
L 166.062017 194.597105 
L 167.591483 196.277043 
L 169.120948 190.11727 
L 170.650414 179.477661 
L 173.709345 188.437332 
L 175.238811 181.717579 
L 176.768276 188.99731 
L 178.297742 190.67725 
L 179.827207 193.477146 
L 181.356673 187.317372 
L 182.886138 183.957496 
L 184.415604 183.397518 
L 187.474535 194.597105 
L 189.004 188.437333 
L 190.533466 187.877352 
L 192.062931 178.917682 
L 193.592397 195.157084 
L 195.121862 196.837022 
L 196.651328 192.357188 
L 198.180793 191.797208 
L 199.710259 194.597105 
L 201.239724 189.55729 
L 202.76919 190.117269 
L 204.298655 196.277044 
L 205.828121 193.477146 
L 207.357586 188.437331 
L 208.887052 181.717578 
L 210.416517 183.957497 
L 211.945983 187.317373 
L 213.475448 196.277044 
L 215.004914 194.037127 
L 216.534379 197.956982 
L 218.063845 192.917167 
L 219.59331 196.837023 
L 221.122776 195.717064 
L 222.652241 197.397002 
L 224.181707 195.717064 
L 225.711172 197.397002 
L 227.240638 194.037125 
L 228.770103 189.55729 
L 230.299569 197.956981 
L 231.829034 197.956982 
L 233.3585 195.717064 
L 234.887965 194.597105 
L 236.417431 194.597105 
L 237.946896 196.277043 
L 239.476362 196.837022 
L 241.005827 195.717063 
L 242.535293 197.397002 
L 244.064758 197.956982 
L 245.594224 197.397002 
L 247.123689 192.917167 
L 248.653155 197.956981 
L 250.18262 197.956982 
L 251.712086 195.157084 
L 253.241552 197.397002 
L 254.771017 196.837022 
L 256.300483 195.157085 
L 257.829948 195.717064 
L 259.359414 197.397002 
L 260.888879 197.956981 
L 262.418345 197.956981 
L 263.94781 195.717063 
L 265.477276 197.956981 
L 267.006741 197.956982 
L 268.536207 197.397002 
L 270.065672 190.11727 
L 271.595138 195.157084 
L 273.124603 194.597106 
L 274.654069 197.397002 
L 276.183534 196.837023 
L 277.713 197.956982 
L 279.242465 197.956981 
L 280.771931 196.277044 
L 282.301396 197.956981 
L 285.360327 197.956981 
L 286.889793 198.51696 
L 288.419258 197.956981 
L 289.948724 196.277043 
L 291.478189 197.397002 
L 293.007655 193.477146 
L 294.53712 197.956981 
L 296.066586 196.277043 
L 297.596051 195.157084 
L 299.125517 196.277042 
L 300.654982 197.956982 
L 302.184448 192.357188 
L 303.713913 197.956981 
L 305.243379 194.597105 
L 306.772844 197.956982 
L 308.30231 197.397002 
L 309.831775 196.277044 
L 311.361241 197.956982 
L 312.890706 197.397002 
L 314.420172 197.956981 
L 315.949637 197.956981 
L 317.479103 198.51696 
L 319.008568 197.397002 
L 320.538034 197.956981 
L 322.067499 197.956982 
L 323.596965 197.397001 
L 325.12643 197.956982 
L 329.714827 197.956982 
L 331.244292 193.477145 
L 332.773758 196.277044 
L 334.303224 197.956982 
L 335.832689 197.956981 
L 337.362155 194.597106 
L 338.89162 197.397002 
L 341.950551 198.516961 
L 343.480017 197.956982 
L 349.597879 197.956981 
L 351.127344 197.397003 
L 352.65681 197.956981 
L 363.363068 197.956982 
L 363.363068 197.956982 
" style="fill:none;stroke:#2ca02c;stroke-linecap:square;stroke-width:1.5;"/>
   </g>
   <g id="patch_3">
    <path d="M 43.78125 224.64 
L 43.78125 7.2 
" style="fill:none;stroke:#000000;stroke-linecap:square;stroke-linejoin:miter;stroke-width:0.8;"/>
   </g>
   <g id="patch_4">
    <path d="M 378.58125 224.64 
L 378.58125 7.2 
" style="fill:none;stroke:#000000;stroke-linecap:square;stroke-linejoin:miter;stroke-width:0.8;"/>
   </g>
   <g id="patch_5">
    <path d="M 43.78125 224.64 
L 378.58125 224.64 
" style="fill:none;stroke:#000000;stroke-linecap:square;stroke-linejoin:miter;stroke-width:0.8;"/>
   </g>
   <g id="patch_6">
    <path d="M 43.78125 7.2 
L 378.58125 7.2 
" style="fill:none;stroke:#000000;stroke-linecap:square;stroke-linejoin:miter;stroke-width:0.8;"/>
   </g>
   <g id="legend_1">
    <g id="patch_7">
     <path d="M 50.78125 60.06875 
L 194.371875 60.06875 
Q 196.371875 60.06875 196.371875 58.06875 
L 196.371875 14.2 
Q 196.371875 12.2 194.371875 12.2 
L 50.78125 12.2 
Q 48.78125 12.2 48.78125 14.2 
L 48.78125 58.06875 
Q 48.78125 60.06875 50.78125 60.06875 
z
" style="fill:#ffffff;opacity:0.8;stroke:#cccccc;stroke-linejoin:miter;"/>
    </g>
    <g id="line2d_21">
     <path d="M 52.78125 20.298437 
L 72.78125 20.298437 
" style="fill:none;stroke:#1f77b4;stroke-linecap:square;stroke-width:1.5;"/>
    </g>
    <g id="line2d_22"/>
    <g id="text_20">
     <!-- segnet_dice_score_val -->
     <g transform="translate(80.78125 23.798437)scale(0.1 -0.1)">
      <defs>
       <path d="M 45.40625 27.984375 
Q 45.40625 37.75 41.375 43.109375 
Q 37.359375 48.484375 30.078125 48.484375 
Q 22.859375 48.484375 18.828125 43.109375 
Q 14.796875 37.75 14.796875 27.984375 
Q 14.796875 18.265625 18.828125 12.890625 
Q 22.859375 7.515625 30.078125 7.515625 
Q 37.359375 7.515625 41.375 12.890625 
Q 45.40625 18.265625 45.40625 27.984375 
z
M 54.390625 6.78125 
Q 54.390625 -7.171875 48.1875 -13.984375 
Q 42 -20.796875 29.203125 -20.796875 
Q 24.46875 -20.796875 20.265625 -20.09375 
Q 16.0625 -19.390625 12.109375 -17.921875 
L 12.109375 -9.1875 
Q 16.0625 -11.328125 19.921875 -12.34375 
Q 23.78125 -13.375 27.78125 -13.375 
Q 36.625 -13.375 41.015625 -8.765625 
Q 45.40625 -4.15625 45.40625 5.171875 
L 45.40625 9.625 
Q 42.625 4.78125 38.28125 2.390625 
Q 33.9375 0 27.875 0 
Q 17.828125 0 11.671875 7.65625 
Q 5.515625 15.328125 5.515625 27.984375 
Q 5.515625 40.671875 11.671875 48.328125 
Q 17.828125 56 27.875 56 
Q 33.9375 56 38.28125 53.609375 
Q 42.625 51.21875 45.40625 46.390625 
L 45.40625 54.6875 
L 54.390625 54.6875 
z
" id="DejaVuSans-103"/>
       <path d="M 54.890625 33.015625 
L 54.890625 0 
L 45.90625 0 
L 45.90625 32.71875 
Q 45.90625 40.484375 42.875 44.328125 
Q 39.84375 48.1875 33.796875 48.1875 
Q 26.515625 48.1875 22.3125 43.546875 
Q 18.109375 38.921875 18.109375 30.90625 
L 18.109375 0 
L 9.078125 0 
L 9.078125 54.6875 
L 18.109375 54.6875 
L 18.109375 46.1875 
Q 21.34375 51.125 25.703125 53.5625 
Q 30.078125 56 35.796875 56 
Q 45.21875 56 50.046875 50.171875 
Q 54.890625 44.34375 54.890625 33.015625 
z
" id="DejaVuSans-110"/>
       <path d="M 18.3125 70.21875 
L 18.3125 54.6875 
L 36.8125 54.6875 
L 36.8125 47.703125 
L 18.3125 47.703125 
L 18.3125 18.015625 
Q 18.3125 11.328125 20.140625 9.421875 
Q 21.96875 7.515625 27.59375 7.515625 
L 36.8125 7.515625 
L 36.8125 0 
L 27.59375 0 
Q 17.1875 0 13.234375 3.875 
Q 9.28125 7.765625 9.28125 18.015625 
L 9.28125 47.703125 
L 2.6875 47.703125 
L 2.6875 54.6875 
L 9.28125 54.6875 
L 9.28125 70.21875 
z
" id="DejaVuSans-116"/>
       <path d="M 50.984375 -16.609375 
L 50.984375 -23.578125 
L -0.984375 -23.578125 
L -0.984375 -16.609375 
z
" id="DejaVuSans-95"/>
       <path d="M 45.40625 46.390625 
L 45.40625 75.984375 
L 54.390625 75.984375 
L 54.390625 0 
L 45.40625 0 
L 45.40625 8.203125 
Q 42.578125 3.328125 38.25 0.953125 
Q 33.9375 -1.421875 27.875 -1.421875 
Q 17.96875 -1.421875 11.734375 6.484375 
Q 5.515625 14.40625 5.515625 27.296875 
Q 5.515625 40.1875 11.734375 48.09375 
Q 17.96875 56 27.875 56 
Q 33.9375 56 38.25 53.625 
Q 42.578125 51.265625 45.40625 46.390625 
z
M 14.796875 27.296875 
Q 14.796875 17.390625 18.875 11.75 
Q 22.953125 6.109375 30.078125 6.109375 
Q 37.203125 6.109375 41.296875 11.75 
Q 45.40625 17.390625 45.40625 27.296875 
Q 45.40625 37.203125 41.296875 42.84375 
Q 37.203125 48.484375 30.078125 48.484375 
Q 22.953125 48.484375 18.875 42.84375 
Q 14.796875 37.203125 14.796875 27.296875 
z
" id="DejaVuSans-100"/>
       <path d="M 9.421875 54.6875 
L 18.40625 54.6875 
L 18.40625 0 
L 9.421875 0 
z
M 9.421875 75.984375 
L 18.40625 75.984375 
L 18.40625 64.59375 
L 9.421875 64.59375 
z
" id="DejaVuSans-105"/>
       <path d="M 2.984375 54.6875 
L 12.5 54.6875 
L 29.59375 8.796875 
L 46.6875 54.6875 
L 56.203125 54.6875 
L 35.6875 0 
L 23.484375 0 
z
" id="DejaVuSans-118"/>
       <path d="M 34.28125 27.484375 
Q 23.390625 27.484375 19.1875 25 
Q 14.984375 22.515625 14.984375 16.5 
Q 14.984375 11.71875 18.140625 8.90625 
Q 21.296875 6.109375 26.703125 6.109375 
Q 34.1875 6.109375 38.703125 11.40625 
Q 43.21875 16.703125 43.21875 25.484375 
L 43.21875 27.484375 
z
M 52.203125 31.203125 
L 52.203125 0 
L 43.21875 0 
L 43.21875 8.296875 
Q 40.140625 3.328125 35.546875 0.953125 
Q 30.953125 -1.421875 24.3125 -1.421875 
Q 15.921875 -1.421875 10.953125 3.296875 
Q 6 8.015625 6 15.921875 
Q 6 25.140625 12.171875 29.828125 
Q 18.359375 34.515625 30.609375 34.515625 
L 43.21875 34.515625 
L 43.21875 35.40625 
Q 43.21875 41.609375 39.140625 45 
Q 35.0625 48.390625 27.6875 48.390625 
Q 23 48.390625 18.546875 47.265625 
Q 14.109375 46.140625 10.015625 43.890625 
L 10.015625 52.203125 
Q 14.9375 54.109375 19.578125 55.046875 
Q 24.21875 56 28.609375 56 
Q 40.484375 56 46.34375 49.84375 
Q 52.203125 43.703125 52.203125 31.203125 
z
" id="DejaVuSans-97"/>
       <path d="M 9.421875 75.984375 
L 18.40625 75.984375 
L 18.40625 0 
L 9.421875 0 
z
" id="DejaVuSans-108"/>
      </defs>
      <use xlink:href="#DejaVuSans-115"/>
      <use x="52.099609" xlink:href="#DejaVuSans-101"/>
      <use x="113.623047" xlink:href="#DejaVuSans-103"/>
      <use x="177.099609" xlink:href="#DejaVuSans-110"/>
      <use x="240.478516" xlink:href="#DejaVuSans-101"/>
      <use x="302.001953" xlink:href="#DejaVuSans-116"/>
      <use x="341.210938" xlink:href="#DejaVuSans-95"/>
      <use x="391.210938" xlink:href="#DejaVuSans-100"/>
      <use x="454.6875" xlink:href="#DejaVuSans-105"/>
      <use x="482.470703" xlink:href="#DejaVuSans-99"/>
      <use x="537.451172" xlink:href="#DejaVuSans-101"/>
      <use x="598.974609" xlink:href="#DejaVuSans-95"/>
      <use x="648.974609" xlink:href="#DejaVuSans-115"/>
      <use x="701.074219" xlink:href="#DejaVuSans-99"/>
      <use x="756.054688" xlink:href="#DejaVuSans-111"/>
      <use x="817.236328" xlink:href="#DejaVuSans-114"/>
      <use x="856.099609" xlink:href="#DejaVuSans-101"/>
      <use x="917.623047" xlink:href="#DejaVuSans-95"/>
      <use x="967.623047" xlink:href="#DejaVuSans-118"/>
      <use x="1026.802734" xlink:href="#DejaVuSans-97"/>
      <use x="1088.082031" xlink:href="#DejaVuSans-108"/>
     </g>
    </g>
    <g id="line2d_23">
     <path d="M 52.78125 35.254687 
L 72.78125 35.254687 
" style="fill:none;stroke:#ff7f0e;stroke-linecap:square;stroke-width:1.5;"/>
    </g>
    <g id="line2d_24"/>
    <g id="text_21">
     <!-- unet_dice_score_val -->
     <g transform="translate(80.78125 38.754687)scale(0.1 -0.1)">
      <defs>
       <path d="M 8.5 21.578125 
L 8.5 54.6875 
L 17.484375 54.6875 
L 17.484375 21.921875 
Q 17.484375 14.15625 20.5 10.265625 
Q 23.53125 6.390625 29.59375 6.390625 
Q 36.859375 6.390625 41.078125 11.03125 
Q 45.3125 15.671875 45.3125 23.6875 
L 45.3125 54.6875 
L 54.296875 54.6875 
L 54.296875 0 
L 45.3125 0 
L 45.3125 8.40625 
Q 42.046875 3.421875 37.71875 1 
Q 33.40625 -1.421875 27.6875 -1.421875 
Q 18.265625 -1.421875 13.375 4.4375 
Q 8.5 10.296875 8.5 21.578125 
z
M 31.109375 56 
z
" id="DejaVuSans-117"/>
      </defs>
      <use xlink:href="#DejaVuSans-117"/>
      <use x="63.378906" xlink:href="#DejaVuSans-110"/>
      <use x="126.757812" xlink:href="#DejaVuSans-101"/>
      <use x="188.28125" xlink:href="#DejaVuSans-116"/>
      <use x="227.490234" xlink:href="#DejaVuSans-95"/>
      <use x="277.490234" xlink:href="#DejaVuSans-100"/>
      <use x="340.966797" xlink:href="#DejaVuSans-105"/>
      <use x="368.75" xlink:href="#DejaVuSans-99"/>
      <use x="423.730469" xlink:href="#DejaVuSans-101"/>
      <use x="485.253906" xlink:href="#DejaVuSans-95"/>
      <use x="535.253906" xlink:href="#DejaVuSans-115"/>
      <use x="587.353516" xlink:href="#DejaVuSans-99"/>
      <use x="642.333984" xlink:href="#DejaVuSans-111"/>
      <use x="703.515625" xlink:href="#DejaVuSans-114"/>
      <use x="742.378906" xlink:href="#DejaVuSans-101"/>
      <use x="803.902344" xlink:href="#DejaVuSans-95"/>
      <use x="853.902344" xlink:href="#DejaVuSans-118"/>
      <use x="913.082031" xlink:href="#DejaVuSans-97"/>
      <use x="974.361328" xlink:href="#DejaVuSans-108"/>
     </g>
    </g>
    <g id="line2d_25">
     <path d="M 52.78125 50.210937 
L 72.78125 50.210937 
" style="fill:none;stroke:#2ca02c;stroke-linecap:square;stroke-width:1.5;"/>
    </g>
    <g id="line2d_26"/>
    <g id="text_22">
     <!-- unet2_dice_score_val -->
     <g transform="translate(80.78125 53.710937)scale(0.1 -0.1)">
      <use xlink:href="#DejaVuSans-117"/>
      <use x="63.378906" xlink:href="#DejaVuSans-110"/>
      <use x="126.757812" xlink:href="#DejaVuSans-101"/>
      <use x="188.28125" xlink:href="#DejaVuSans-116"/>
      <use x="227.490234" xlink:href="#DejaVuSans-50"/>
      <use x="291.113281" xlink:href="#DejaVuSans-95"/>
      <use x="341.113281" xlink:href="#DejaVuSans-100"/>
      <use x="404.589844" xlink:href="#DejaVuSans-105"/>
      <use x="432.373047" xlink:href="#DejaVuSans-99"/>
      <use x="487.353516" xlink:href="#DejaVuSans-101"/>
      <use x="548.876953" xlink:href="#DejaVuSans-95"/>
      <use x="598.876953" xlink:href="#DejaVuSans-115"/>
      <use x="650.976562" xlink:href="#DejaVuSans-99"/>
      <use x="705.957031" xlink:href="#DejaVuSans-111"/>
      <use x="767.138672" xlink:href="#DejaVuSans-114"/>
      <use x="806.001953" xlink:href="#DejaVuSans-101"/>
      <use x="867.525391" xlink:href="#DejaVuSans-95"/>
      <use x="917.525391" xlink:href="#DejaVuSans-118"/>
      <use x="976.705078" xlink:href="#DejaVuSans-97"/>
      <use x="1037.984375" xlink:href="#DejaVuSans-108"/>
     </g>
    </g>
   </g>
  </g>
 </g>
 <defs>
  <clipPath id="p009b940eea">
   <rect height="217.44" width="334.8" x="43.78125" y="7.2"/>
  </clipPath>
 </defs>
</svg>
