<?xml version="1.0" encoding="utf-8" standalone="no"?>
<!DOCTYPE svg PUBLIC "-//W3C//DTD SVG 1.1//EN"
  "http://www.w3.org/Graphics/SVG/1.1/DTD/svg11.dtd">
<!-- Created with matplotlib (https://matplotlib.org/) -->
<svg height="262.19625pt" version="1.1" viewBox="0 0 385.78125 262.19625" width="385.78125pt" xmlns="http://www.w3.org/2000/svg" xmlns:xlink="http://www.w3.org/1999/xlink">
 <metadata>
  <rdf:RDF xmlns:cc="http://creativecommons.org/ns#" xmlns:dc="http://purl.org/dc/elements/1.1/" xmlns:rdf="http://www.w3.org/1999/02/22-rdf-syntax-ns#">
   <cc:Work>
    <dc:type rdf:resource="http://purl.org/dc/dcmitype/StillImage"/>
    <dc:date>2020-12-16T14:55:59.404975</dc:date>
    <dc:format>image/svg+xml</dc:format>
    <dc:creator>
     <cc:Agent>
      <dc:title>Matplotlib v3.3.3, https://matplotlib.org/</dc:title>
     </cc:Agent>
    </dc:creator>
   </cc:Work>
  </rdf:RDF>
 </metadata>
 <defs>
  <style type="text/css">*{stroke-linecap:butt;stroke-linejoin:round;}</style>
 </defs>
 <g id="figure_1">
  <g id="patch_1">
   <path d="M 0 262.19625 
L 385.78125 262.19625 
L 385.78125 0 
L 0 0 
z
" style="fill:none;"/>
  </g>
  <g id="axes_1">
   <g id="patch_2">
    <path d="M 43.78125 224.64 
L 378.58125 224.64 
L 378.58125 7.2 
L 43.78125 7.2 
z
" style="fill:#ffffff;"/>
   </g>
   <g id="matplotlib.axis_1">
    <g id="xtick_1">
     <g id="line2d_1">
      <defs>
       <path d="M 0 0 
L 0 3.5 
" id="mad46e9fce3" style="stroke:#000000;stroke-width:0.8;"/>
      </defs>
      <g>
       <use style="stroke:#000000;stroke-width:0.8;" x="58.999432" xlink:href="#mad46e9fce3" y="224.64"/>
      </g>
     </g>
     <g id="text_1">
      <!-- 0 -->
      <g transform="translate(55.818182 239.238437)scale(0.1 -0.1)">
       <defs>
        <path d="M 31.78125 66.40625 
Q 24.171875 66.40625 20.328125 58.90625 
Q 16.5 51.421875 16.5 36.375 
Q 16.5 21.390625 20.328125 13.890625 
Q 24.171875 6.390625 31.78125 6.390625 
Q 39.453125 6.390625 43.28125 13.890625 
Q 47.125 21.390625 47.125 36.375 
Q 47.125 51.421875 43.28125 58.90625 
Q 39.453125 66.40625 31.78125 66.40625 
z
M 31.78125 74.21875 
Q 44.046875 74.21875 50.515625 64.515625 
Q 56.984375 54.828125 56.984375 36.375 
Q 56.984375 17.96875 50.515625 8.265625 
Q 44.046875 -1.421875 31.78125 -1.421875 
Q 19.53125 -1.421875 13.0625 8.265625 
Q 6.59375 17.96875 6.59375 36.375 
Q 6.59375 54.828125 13.0625 64.515625 
Q 19.53125 74.21875 31.78125 74.21875 
z
" id="DejaVuSans-48"/>
       </defs>
       <use xlink:href="#DejaVuSans-48"/>
      </g>
     </g>
    </g>
    <g id="xtick_2">
     <g id="line2d_2">
      <g>
       <use style="stroke:#000000;stroke-width:0.8;" x="97.23607" xlink:href="#mad46e9fce3" y="224.64"/>
      </g>
     </g>
     <g id="text_2">
      <!-- 25 -->
      <g transform="translate(90.87357 239.238437)scale(0.1 -0.1)">
       <defs>
        <path d="M 19.1875 8.296875 
L 53.609375 8.296875 
L 53.609375 0 
L 7.328125 0 
L 7.328125 8.296875 
Q 12.9375 14.109375 22.625 23.890625 
Q 32.328125 33.6875 34.8125 36.53125 
Q 39.546875 41.84375 41.421875 45.53125 
Q 43.3125 49.21875 43.3125 52.78125 
Q 43.3125 58.59375 39.234375 62.25 
Q 35.15625 65.921875 28.609375 65.921875 
Q 23.96875 65.921875 18.8125 64.3125 
Q 13.671875 62.703125 7.8125 59.421875 
L 7.8125 69.390625 
Q 13.765625 71.78125 18.9375 73 
Q 24.125 74.21875 28.421875 74.21875 
Q 39.75 74.21875 46.484375 68.546875 
Q 53.21875 62.890625 53.21875 53.421875 
Q 53.21875 48.921875 51.53125 44.890625 
Q 49.859375 40.875 45.40625 35.40625 
Q 44.1875 33.984375 37.640625 27.21875 
Q 31.109375 20.453125 19.1875 8.296875 
z
" id="DejaVuSans-50"/>
        <path d="M 10.796875 72.90625 
L 49.515625 72.90625 
L 49.515625 64.59375 
L 19.828125 64.59375 
L 19.828125 46.734375 
Q 21.96875 47.46875 24.109375 47.828125 
Q 26.265625 48.1875 28.421875 48.1875 
Q 40.625 48.1875 47.75 41.5 
Q 54.890625 34.8125 54.890625 23.390625 
Q 54.890625 11.625 47.5625 5.09375 
Q 40.234375 -1.421875 26.90625 -1.421875 
Q 22.3125 -1.421875 17.546875 -0.640625 
Q 12.796875 0.140625 7.71875 1.703125 
L 7.71875 11.625 
Q 12.109375 9.234375 16.796875 8.0625 
Q 21.484375 6.890625 26.703125 6.890625 
Q 35.15625 6.890625 40.078125 11.328125 
Q 45.015625 15.765625 45.015625 23.390625 
Q 45.015625 31 40.078125 35.4375 
Q 35.15625 39.890625 26.703125 39.890625 
Q 22.75 39.890625 18.8125 39.015625 
Q 14.890625 38.140625 10.796875 36.28125 
z
" id="DejaVuSans-53"/>
       </defs>
       <use xlink:href="#DejaVuSans-50"/>
       <use x="63.623047" xlink:href="#DejaVuSans-53"/>
      </g>
     </g>
    </g>
    <g id="xtick_3">
     <g id="line2d_3">
      <g>
       <use style="stroke:#000000;stroke-width:0.8;" x="135.472707" xlink:href="#mad46e9fce3" y="224.64"/>
      </g>
     </g>
     <g id="text_3">
      <!-- 50 -->
      <g transform="translate(129.110207 239.238437)scale(0.1 -0.1)">
       <use xlink:href="#DejaVuSans-53"/>
       <use x="63.623047" xlink:href="#DejaVuSans-48"/>
      </g>
     </g>
    </g>
    <g id="xtick_4">
     <g id="line2d_4">
      <g>
       <use style="stroke:#000000;stroke-width:0.8;" x="173.709345" xlink:href="#mad46e9fce3" y="224.64"/>
      </g>
     </g>
     <g id="text_4">
      <!-- 75 -->
      <g transform="translate(167.346845 239.238437)scale(0.1 -0.1)">
       <defs>
        <path d="M 8.203125 72.90625 
L 55.078125 72.90625 
L 55.078125 68.703125 
L 28.609375 0 
L 18.3125 0 
L 43.21875 64.59375 
L 8.203125 64.59375 
z
" id="DejaVuSans-55"/>
       </defs>
       <use xlink:href="#DejaVuSans-55"/>
       <use x="63.623047" xlink:href="#DejaVuSans-53"/>
      </g>
     </g>
    </g>
    <g id="xtick_5">
     <g id="line2d_5">
      <g>
       <use style="stroke:#000000;stroke-width:0.8;" x="211.945983" xlink:href="#mad46e9fce3" y="224.64"/>
      </g>
     </g>
     <g id="text_5">
      <!-- 100 -->
      <g transform="translate(202.402233 239.238437)scale(0.1 -0.1)">
       <defs>
        <path d="M 12.40625 8.296875 
L 28.515625 8.296875 
L 28.515625 63.921875 
L 10.984375 60.40625 
L 10.984375 69.390625 
L 28.421875 72.90625 
L 38.28125 72.90625 
L 38.28125 8.296875 
L 54.390625 8.296875 
L 54.390625 0 
L 12.40625 0 
z
" id="DejaVuSans-49"/>
       </defs>
       <use xlink:href="#DejaVuSans-49"/>
       <use x="63.623047" xlink:href="#DejaVuSans-48"/>
       <use x="127.246094" xlink:href="#DejaVuSans-48"/>
      </g>
     </g>
    </g>
    <g id="xtick_6">
     <g id="line2d_6">
      <g>
       <use style="stroke:#000000;stroke-width:0.8;" x="250.18262" xlink:href="#mad46e9fce3" y="224.64"/>
      </g>
     </g>
     <g id="text_6">
      <!-- 125 -->
      <g transform="translate(240.63887 239.238437)scale(0.1 -0.1)">
       <use xlink:href="#DejaVuSans-49"/>
       <use x="63.623047" xlink:href="#DejaVuSans-50"/>
       <use x="127.246094" xlink:href="#DejaVuSans-53"/>
      </g>
     </g>
    </g>
    <g id="xtick_7">
     <g id="line2d_7">
      <g>
       <use style="stroke:#000000;stroke-width:0.8;" x="288.419258" xlink:href="#mad46e9fce3" y="224.64"/>
      </g>
     </g>
     <g id="text_7">
      <!-- 150 -->
      <g transform="translate(278.875508 239.238437)scale(0.1 -0.1)">
       <use xlink:href="#DejaVuSans-49"/>
       <use x="63.623047" xlink:href="#DejaVuSans-53"/>
       <use x="127.246094" xlink:href="#DejaVuSans-48"/>
      </g>
     </g>
    </g>
    <g id="xtick_8">
     <g id="line2d_8">
      <g>
       <use style="stroke:#000000;stroke-width:0.8;" x="326.655896" xlink:href="#mad46e9fce3" y="224.64"/>
      </g>
     </g>
     <g id="text_8">
      <!-- 175 -->
      <g transform="translate(317.112146 239.238437)scale(0.1 -0.1)">
       <use xlink:href="#DejaVuSans-49"/>
       <use x="63.623047" xlink:href="#DejaVuSans-55"/>
       <use x="127.246094" xlink:href="#DejaVuSans-53"/>
      </g>
     </g>
    </g>
    <g id="xtick_9">
     <g id="line2d_9">
      <g>
       <use style="stroke:#000000;stroke-width:0.8;" x="364.892534" xlink:href="#mad46e9fce3" y="224.64"/>
      </g>
     </g>
     <g id="text_9">
      <!-- 200 -->
      <g transform="translate(355.348784 239.238437)scale(0.1 -0.1)">
       <use xlink:href="#DejaVuSans-50"/>
       <use x="63.623047" xlink:href="#DejaVuSans-48"/>
       <use x="127.246094" xlink:href="#DejaVuSans-48"/>
      </g>
     </g>
    </g>
    <g id="text_10">
     <!-- epoch -->
     <g transform="translate(195.953125 252.916562)scale(0.1 -0.1)">
      <defs>
       <path d="M 56.203125 29.59375 
L 56.203125 25.203125 
L 14.890625 25.203125 
Q 15.484375 15.921875 20.484375 11.0625 
Q 25.484375 6.203125 34.421875 6.203125 
Q 39.59375 6.203125 44.453125 7.46875 
Q 49.3125 8.734375 54.109375 11.28125 
L 54.109375 2.78125 
Q 49.265625 0.734375 44.1875 -0.34375 
Q 39.109375 -1.421875 33.890625 -1.421875 
Q 20.796875 -1.421875 13.15625 6.1875 
Q 5.515625 13.8125 5.515625 26.8125 
Q 5.515625 40.234375 12.765625 48.109375 
Q 20.015625 56 32.328125 56 
Q 43.359375 56 49.78125 48.890625 
Q 56.203125 41.796875 56.203125 29.59375 
z
M 47.21875 32.234375 
Q 47.125 39.59375 43.09375 43.984375 
Q 39.0625 48.390625 32.421875 48.390625 
Q 24.90625 48.390625 20.390625 44.140625 
Q 15.875 39.890625 15.1875 32.171875 
z
" id="DejaVuSans-101"/>
       <path d="M 18.109375 8.203125 
L 18.109375 -20.796875 
L 9.078125 -20.796875 
L 9.078125 54.6875 
L 18.109375 54.6875 
L 18.109375 46.390625 
Q 20.953125 51.265625 25.265625 53.625 
Q 29.59375 56 35.59375 56 
Q 45.5625 56 51.78125 48.09375 
Q 58.015625 40.1875 58.015625 27.296875 
Q 58.015625 14.40625 51.78125 6.484375 
Q 45.5625 -1.421875 35.59375 -1.421875 
Q 29.59375 -1.421875 25.265625 0.953125 
Q 20.953125 3.328125 18.109375 8.203125 
z
M 48.6875 27.296875 
Q 48.6875 37.203125 44.609375 42.84375 
Q 40.53125 48.484375 33.40625 48.484375 
Q 26.265625 48.484375 22.1875 42.84375 
Q 18.109375 37.203125 18.109375 27.296875 
Q 18.109375 17.390625 22.1875 11.75 
Q 26.265625 6.109375 33.40625 6.109375 
Q 40.53125 6.109375 44.609375 11.75 
Q 48.6875 17.390625 48.6875 27.296875 
z
" id="DejaVuSans-112"/>
       <path d="M 30.609375 48.390625 
Q 23.390625 48.390625 19.1875 42.75 
Q 14.984375 37.109375 14.984375 27.296875 
Q 14.984375 17.484375 19.15625 11.84375 
Q 23.34375 6.203125 30.609375 6.203125 
Q 37.796875 6.203125 41.984375 11.859375 
Q 46.1875 17.53125 46.1875 27.296875 
Q 46.1875 37.015625 41.984375 42.703125 
Q 37.796875 48.390625 30.609375 48.390625 
z
M 30.609375 56 
Q 42.328125 56 49.015625 48.375 
Q 55.71875 40.765625 55.71875 27.296875 
Q 55.71875 13.875 49.015625 6.21875 
Q 42.328125 -1.421875 30.609375 -1.421875 
Q 18.84375 -1.421875 12.171875 6.21875 
Q 5.515625 13.875 5.515625 27.296875 
Q 5.515625 40.765625 12.171875 48.375 
Q 18.84375 56 30.609375 56 
z
" id="DejaVuSans-111"/>
       <path d="M 48.78125 52.59375 
L 48.78125 44.1875 
Q 44.96875 46.296875 41.140625 47.34375 
Q 37.3125 48.390625 33.40625 48.390625 
Q 24.65625 48.390625 19.8125 42.84375 
Q 14.984375 37.3125 14.984375 27.296875 
Q 14.984375 17.28125 19.8125 11.734375 
Q 24.65625 6.203125 33.40625 6.203125 
Q 37.3125 6.203125 41.140625 7.25 
Q 44.96875 8.296875 48.78125 10.40625 
L 48.78125 2.09375 
Q 45.015625 0.34375 40.984375 -0.53125 
Q 36.96875 -1.421875 32.421875 -1.421875 
Q 20.0625 -1.421875 12.78125 6.34375 
Q 5.515625 14.109375 5.515625 27.296875 
Q 5.515625 40.671875 12.859375 48.328125 
Q 20.21875 56 33.015625 56 
Q 37.15625 56 41.109375 55.140625 
Q 45.0625 54.296875 48.78125 52.59375 
z
" id="DejaVuSans-99"/>
       <path d="M 54.890625 33.015625 
L 54.890625 0 
L 45.90625 0 
L 45.90625 32.71875 
Q 45.90625 40.484375 42.875 44.328125 
Q 39.84375 48.1875 33.796875 48.1875 
Q 26.515625 48.1875 22.3125 43.546875 
Q 18.109375 38.921875 18.109375 30.90625 
L 18.109375 0 
L 9.078125 0 
L 9.078125 75.984375 
L 18.109375 75.984375 
L 18.109375 46.1875 
Q 21.34375 51.125 25.703125 53.5625 
Q 30.078125 56 35.796875 56 
Q 45.21875 56 50.046875 50.171875 
Q 54.890625 44.34375 54.890625 33.015625 
z
" id="DejaVuSans-104"/>
      </defs>
      <use xlink:href="#DejaVuSans-101"/>
      <use x="61.523438" xlink:href="#DejaVuSans-112"/>
      <use x="125" xlink:href="#DejaVuSans-111"/>
      <use x="186.181641" xlink:href="#DejaVuSans-99"/>
      <use x="241.162109" xlink:href="#DejaVuSans-104"/>
     </g>
    </g>
   </g>
   <g id="matplotlib.axis_2">
    <g id="ytick_1">
     <g id="line2d_10">
      <defs>
       <path d="M 0 0 
L -3.5 0 
" id="mb7ac3b1399" style="stroke:#000000;stroke-width:0.8;"/>
      </defs>
      <g>
       <use style="stroke:#000000;stroke-width:0.8;" x="43.78125" xlink:href="#mb7ac3b1399" y="219.972003"/>
      </g>
     </g>
     <g id="text_11">
      <!-- 0.0 -->
      <g transform="translate(20.878125 223.771221)scale(0.1 -0.1)">
       <defs>
        <path d="M 10.6875 12.40625 
L 21 12.40625 
L 21 0 
L 10.6875 0 
z
" id="DejaVuSans-46"/>
       </defs>
       <use xlink:href="#DejaVuSans-48"/>
       <use x="63.623047" xlink:href="#DejaVuSans-46"/>
       <use x="95.410156" xlink:href="#DejaVuSans-48"/>
      </g>
     </g>
    </g>
    <g id="ytick_2">
     <g id="line2d_11">
      <g>
       <use style="stroke:#000000;stroke-width:0.8;" x="43.78125" xlink:href="#mb7ac3b1399" y="193.893808"/>
      </g>
     </g>
     <g id="text_12">
      <!-- 0.1 -->
      <g transform="translate(20.878125 197.693027)scale(0.1 -0.1)">
       <use xlink:href="#DejaVuSans-48"/>
       <use x="63.623047" xlink:href="#DejaVuSans-46"/>
       <use x="95.410156" xlink:href="#DejaVuSans-49"/>
      </g>
     </g>
    </g>
    <g id="ytick_3">
     <g id="line2d_12">
      <g>
       <use style="stroke:#000000;stroke-width:0.8;" x="43.78125" xlink:href="#mb7ac3b1399" y="167.815613"/>
      </g>
     </g>
     <g id="text_13">
      <!-- 0.2 -->
      <g transform="translate(20.878125 171.614832)scale(0.1 -0.1)">
       <use xlink:href="#DejaVuSans-48"/>
       <use x="63.623047" xlink:href="#DejaVuSans-46"/>
       <use x="95.410156" xlink:href="#DejaVuSans-50"/>
      </g>
     </g>
    </g>
    <g id="ytick_4">
     <g id="line2d_13">
      <g>
       <use style="stroke:#000000;stroke-width:0.8;" x="43.78125" xlink:href="#mb7ac3b1399" y="141.737419"/>
      </g>
     </g>
     <g id="text_14">
      <!-- 0.3 -->
      <g transform="translate(20.878125 145.536637)scale(0.1 -0.1)">
       <defs>
        <path d="M 40.578125 39.3125 
Q 47.65625 37.796875 51.625 33 
Q 55.609375 28.21875 55.609375 21.1875 
Q 55.609375 10.40625 48.1875 4.484375 
Q 40.765625 -1.421875 27.09375 -1.421875 
Q 22.515625 -1.421875 17.65625 -0.515625 
Q 12.796875 0.390625 7.625 2.203125 
L 7.625 11.71875 
Q 11.71875 9.328125 16.59375 8.109375 
Q 21.484375 6.890625 26.8125 6.890625 
Q 36.078125 6.890625 40.9375 10.546875 
Q 45.796875 14.203125 45.796875 21.1875 
Q 45.796875 27.640625 41.28125 31.265625 
Q 36.765625 34.90625 28.71875 34.90625 
L 20.21875 34.90625 
L 20.21875 43.015625 
L 29.109375 43.015625 
Q 36.375 43.015625 40.234375 45.921875 
Q 44.09375 48.828125 44.09375 54.296875 
Q 44.09375 59.90625 40.109375 62.90625 
Q 36.140625 65.921875 28.71875 65.921875 
Q 24.65625 65.921875 20.015625 65.03125 
Q 15.375 64.15625 9.8125 62.3125 
L 9.8125 71.09375 
Q 15.4375 72.65625 20.34375 73.4375 
Q 25.25 74.21875 29.59375 74.21875 
Q 40.828125 74.21875 47.359375 69.109375 
Q 53.90625 64.015625 53.90625 55.328125 
Q 53.90625 49.265625 50.4375 45.09375 
Q 46.96875 40.921875 40.578125 39.3125 
z
" id="DejaVuSans-51"/>
       </defs>
       <use xlink:href="#DejaVuSans-48"/>
       <use x="63.623047" xlink:href="#DejaVuSans-46"/>
       <use x="95.410156" xlink:href="#DejaVuSans-51"/>
      </g>
     </g>
    </g>
    <g id="ytick_5">
     <g id="line2d_14">
      <g>
       <use style="stroke:#000000;stroke-width:0.8;" x="43.78125" xlink:href="#mb7ac3b1399" y="115.659224"/>
      </g>
     </g>
     <g id="text_15">
      <!-- 0.4 -->
      <g transform="translate(20.878125 119.458443)scale(0.1 -0.1)">
       <defs>
        <path d="M 37.796875 64.3125 
L 12.890625 25.390625 
L 37.796875 25.390625 
z
M 35.203125 72.90625 
L 47.609375 72.90625 
L 47.609375 25.390625 
L 58.015625 25.390625 
L 58.015625 17.1875 
L 47.609375 17.1875 
L 47.609375 0 
L 37.796875 0 
L 37.796875 17.1875 
L 4.890625 17.1875 
L 4.890625 26.703125 
z
" id="DejaVuSans-52"/>
       </defs>
       <use xlink:href="#DejaVuSans-48"/>
       <use x="63.623047" xlink:href="#DejaVuSans-46"/>
       <use x="95.410156" xlink:href="#DejaVuSans-52"/>
      </g>
     </g>
    </g>
    <g id="ytick_6">
     <g id="line2d_15">
      <g>
       <use style="stroke:#000000;stroke-width:0.8;" x="43.78125" xlink:href="#mb7ac3b1399" y="89.581029"/>
      </g>
     </g>
     <g id="text_16">
      <!-- 0.5 -->
      <g transform="translate(20.878125 93.380248)scale(0.1 -0.1)">
       <use xlink:href="#DejaVuSans-48"/>
       <use x="63.623047" xlink:href="#DejaVuSans-46"/>
       <use x="95.410156" xlink:href="#DejaVuSans-53"/>
      </g>
     </g>
    </g>
    <g id="ytick_7">
     <g id="line2d_16">
      <g>
       <use style="stroke:#000000;stroke-width:0.8;" x="43.78125" xlink:href="#mb7ac3b1399" y="63.502835"/>
      </g>
     </g>
     <g id="text_17">
      <!-- 0.6 -->
      <g transform="translate(20.878125 67.302053)scale(0.1 -0.1)">
       <defs>
        <path d="M 33.015625 40.375 
Q 26.375 40.375 22.484375 35.828125 
Q 18.609375 31.296875 18.609375 23.390625 
Q 18.609375 15.53125 22.484375 10.953125 
Q 26.375 6.390625 33.015625 6.390625 
Q 39.65625 6.390625 43.53125 10.953125 
Q 47.40625 15.53125 47.40625 23.390625 
Q 47.40625 31.296875 43.53125 35.828125 
Q 39.65625 40.375 33.015625 40.375 
z
M 52.59375 71.296875 
L 52.59375 62.3125 
Q 48.875 64.0625 45.09375 64.984375 
Q 41.3125 65.921875 37.59375 65.921875 
Q 27.828125 65.921875 22.671875 59.328125 
Q 17.53125 52.734375 16.796875 39.40625 
Q 19.671875 43.65625 24.015625 45.921875 
Q 28.375 48.1875 33.59375 48.1875 
Q 44.578125 48.1875 50.953125 41.515625 
Q 57.328125 34.859375 57.328125 23.390625 
Q 57.328125 12.15625 50.6875 5.359375 
Q 44.046875 -1.421875 33.015625 -1.421875 
Q 20.359375 -1.421875 13.671875 8.265625 
Q 6.984375 17.96875 6.984375 36.375 
Q 6.984375 53.65625 15.1875 63.9375 
Q 23.390625 74.21875 37.203125 74.21875 
Q 40.921875 74.21875 44.703125 73.484375 
Q 48.484375 72.75 52.59375 71.296875 
z
" id="DejaVuSans-54"/>
       </defs>
       <use xlink:href="#DejaVuSans-48"/>
       <use x="63.623047" xlink:href="#DejaVuSans-46"/>
       <use x="95.410156" xlink:href="#DejaVuSans-54"/>
      </g>
     </g>
    </g>
    <g id="ytick_8">
     <g id="line2d_17">
      <g>
       <use style="stroke:#000000;stroke-width:0.8;" x="43.78125" xlink:href="#mb7ac3b1399" y="37.42464"/>
      </g>
     </g>
     <g id="text_18">
      <!-- 0.7 -->
      <g transform="translate(20.878125 41.223859)scale(0.1 -0.1)">
       <use xlink:href="#DejaVuSans-48"/>
       <use x="63.623047" xlink:href="#DejaVuSans-46"/>
       <use x="95.410156" xlink:href="#DejaVuSans-55"/>
      </g>
     </g>
    </g>
    <g id="ytick_9">
     <g id="line2d_18">
      <g>
       <use style="stroke:#000000;stroke-width:0.8;" x="43.78125" xlink:href="#mb7ac3b1399" y="11.346445"/>
      </g>
     </g>
     <g id="text_19">
      <!-- 0.8 -->
      <g transform="translate(20.878125 15.145664)scale(0.1 -0.1)">
       <defs>
        <path d="M 31.78125 34.625 
Q 24.75 34.625 20.71875 30.859375 
Q 16.703125 27.09375 16.703125 20.515625 
Q 16.703125 13.921875 20.71875 10.15625 
Q 24.75 6.390625 31.78125 6.390625 
Q 38.8125 6.390625 42.859375 10.171875 
Q 46.921875 13.96875 46.921875 20.515625 
Q 46.921875 27.09375 42.890625 30.859375 
Q 38.875 34.625 31.78125 34.625 
z
M 21.921875 38.8125 
Q 15.578125 40.375 12.03125 44.71875 
Q 8.5 49.078125 8.5 55.328125 
Q 8.5 64.0625 14.71875 69.140625 
Q 20.953125 74.21875 31.78125 74.21875 
Q 42.671875 74.21875 48.875 69.140625 
Q 55.078125 64.0625 55.078125 55.328125 
Q 55.078125 49.078125 51.53125 44.71875 
Q 48 40.375 41.703125 38.8125 
Q 48.828125 37.15625 52.796875 32.3125 
Q 56.78125 27.484375 56.78125 20.515625 
Q 56.78125 9.90625 50.3125 4.234375 
Q 43.84375 -1.421875 31.78125 -1.421875 
Q 19.734375 -1.421875 13.25 4.234375 
Q 6.78125 9.90625 6.78125 20.515625 
Q 6.78125 27.484375 10.78125 32.3125 
Q 14.796875 37.15625 21.921875 38.8125 
z
M 18.3125 54.390625 
Q 18.3125 48.734375 21.84375 45.5625 
Q 25.390625 42.390625 31.78125 42.390625 
Q 38.140625 42.390625 41.71875 45.5625 
Q 45.3125 48.734375 45.3125 54.390625 
Q 45.3125 60.0625 41.71875 63.234375 
Q 38.140625 66.40625 31.78125 66.40625 
Q 25.390625 66.40625 21.84375 63.234375 
Q 18.3125 60.0625 18.3125 54.390625 
z
" id="DejaVuSans-56"/>
       </defs>
       <use xlink:href="#DejaVuSans-48"/>
       <use x="63.623047" xlink:href="#DejaVuSans-46"/>
       <use x="95.410156" xlink:href="#DejaVuSans-56"/>
      </g>
     </g>
    </g>
    <g id="text_20">
     <!-- score -->
     <g transform="translate(14.798438 129.352812)rotate(-90)scale(0.1 -0.1)">
      <defs>
       <path d="M 44.28125 53.078125 
L 44.28125 44.578125 
Q 40.484375 46.53125 36.375 47.5 
Q 32.28125 48.484375 27.875 48.484375 
Q 21.1875 48.484375 17.84375 46.4375 
Q 14.5 44.390625 14.5 40.28125 
Q 14.5 37.15625 16.890625 35.375 
Q 19.28125 33.59375 26.515625 31.984375 
L 29.59375 31.296875 
Q 39.15625 29.25 43.1875 25.515625 
Q 47.21875 21.78125 47.21875 15.09375 
Q 47.21875 7.46875 41.1875 3.015625 
Q 35.15625 -1.421875 24.609375 -1.421875 
Q 20.21875 -1.421875 15.453125 -0.5625 
Q 10.6875 0.296875 5.421875 2 
L 5.421875 11.28125 
Q 10.40625 8.6875 15.234375 7.390625 
Q 20.0625 6.109375 24.8125 6.109375 
Q 31.15625 6.109375 34.5625 8.28125 
Q 37.984375 10.453125 37.984375 14.40625 
Q 37.984375 18.0625 35.515625 20.015625 
Q 33.0625 21.96875 24.703125 23.78125 
L 21.578125 24.515625 
Q 13.234375 26.265625 9.515625 29.90625 
Q 5.8125 33.546875 5.8125 39.890625 
Q 5.8125 47.609375 11.28125 51.796875 
Q 16.75 56 26.8125 56 
Q 31.78125 56 36.171875 55.265625 
Q 40.578125 54.546875 44.28125 53.078125 
z
" id="DejaVuSans-115"/>
       <path d="M 41.109375 46.296875 
Q 39.59375 47.171875 37.8125 47.578125 
Q 36.03125 48 33.890625 48 
Q 26.265625 48 22.1875 43.046875 
Q 18.109375 38.09375 18.109375 28.8125 
L 18.109375 0 
L 9.078125 0 
L 9.078125 54.6875 
L 18.109375 54.6875 
L 18.109375 46.1875 
Q 20.953125 51.171875 25.484375 53.578125 
Q 30.03125 56 36.53125 56 
Q 37.453125 56 38.578125 55.875 
Q 39.703125 55.765625 41.0625 55.515625 
z
" id="DejaVuSans-114"/>
      </defs>
      <use xlink:href="#DejaVuSans-115"/>
      <use x="52.099609" xlink:href="#DejaVuSans-99"/>
      <use x="107.080078" xlink:href="#DejaVuSans-111"/>
      <use x="168.261719" xlink:href="#DejaVuSans-114"/>
      <use x="207.125" xlink:href="#DejaVuSans-101"/>
     </g>
    </g>
   </g>
   <g id="line2d_19">
    <path clip-path="url(#p6c7c3dee82)" d="M 58.999432 214.756364 
L 60.528897 207.976033 
L 62.058363 200.152574 
L 63.587828 144.345238 
L 65.117294 124.525809 
L 66.646759 125.047371 
L 68.176225 114.094529 
L 69.70569 112.529839 
L 71.235156 105.227944 
L 72.764621 82.800691 
L 74.294087 119.310162 
L 75.823552 93.231975 
L 77.353018 104.184814 
L 78.882483 79.671309 
L 80.411949 109.922019 
L 81.941414 97.404483 
L 83.47088 100.533871 
L 85.000345 92.710405 
L 86.529811 90.624155 
L 88.059276 93.23197 
L 89.588742 84.886949 
L 91.118208 85.930076 
L 92.647673 80.714438 
L 94.177139 105.749505 
L 95.706604 92.710408 
L 97.23607 100.012302 
L 98.765535 69.761592 
L 100.295001 81.236004 
L 101.824466 85.930081 
L 103.353932 76.020359 
L 104.883397 78.628179 
L 106.412863 79.149746 
L 107.942328 68.718465 
L 109.471794 74.977234 
L 111.001259 71.84785 
L 112.530725 70.28316 
L 114.06019 91.145715 
L 115.589656 73.934103 
L 117.119121 82.279132 
L 118.648587 74.455669 
L 120.178052 71.847855 
L 121.707518 54.636244 
L 123.236983 67.675336 
L 124.766449 65.067522 
L 126.295914 65.067519 
L 127.82538 62.981263 
L 129.354845 51.506858 
L 130.884311 66.632215 
L 132.413776 65.067517 
L 133.943242 55.679368 
L 135.472707 53.071557 
L 137.002173 63.502833 
L 138.531638 48.899044 
L 140.061104 55.679368 
L 141.590569 53.071545 
L 143.120035 54.636241 
L 144.6495 54.636244 
L 146.178966 52.549985 
L 147.708431 56.200935 
L 149.237897 49.420601 
L 150.767362 57.765625 
L 152.296828 65.067519 
L 153.826293 54.636244 
L 155.355759 55.679365 
L 156.885224 62.981265 
L 158.41469 54.636241 
L 159.944155 70.283165 
L 161.473621 59.330312 
L 163.003086 55.157808 
L 164.532552 55.679371 
L 166.062017 57.244061 
L 167.591483 59.851888 
L 169.120948 52.549991 
L 170.650414 49.942165 
L 172.17988 52.549991 
L 173.709345 49.942165 
L 175.238811 46.291224 
L 176.768276 51.506855 
L 178.297742 52.028424 
L 179.827207 49.942171 
L 181.356673 41.597144 
L 182.886138 41.597147 
L 184.415604 43.683394 
L 185.945069 46.812781 
L 187.474535 44.20497 
L 189.004 42.640271 
L 190.533466 49.420601 
L 193.592397 46.291221 
L 195.121862 45.769654 
L 196.651328 45.769654 
L 198.180793 39.510887 
L 199.710259 48.377474 
L 201.239724 56.200935 
L 202.76919 45.76966 
L 204.298655 42.118707 
L 205.828121 47.855911 
L 207.357586 41.597144 
L 208.887052 46.291218 
L 210.416517 50.463737 
L 211.945983 46.812781 
L 213.475448 49.420604 
L 215.004914 50.985294 
L 216.534379 54.114678 
L 218.063845 46.291221 
L 219.59331 43.683398 
L 221.122776 47.855905 
L 222.652241 41.597144 
L 224.181707 50.985296 
L 225.711172 49.420604 
L 227.240638 36.90307 
L 228.770103 44.204964 
L 230.299569 44.726527 
L 231.829034 47.334348 
L 233.3585 45.769654 
L 234.887965 52.028421 
L 236.417431 50.463734 
L 237.946896 45.769654 
L 239.476362 43.161843 
L 241.005827 49.942168 
L 242.535293 46.812781 
L 244.064758 44.726531 
L 245.594224 41.075581 
L 247.123689 44.726524 
L 248.653155 43.683404 
L 250.18262 48.377465 
L 251.712086 41.075581 
L 253.241552 48.377471 
L 254.771017 48.899041 
L 256.300483 41.597144 
L 257.829948 45.769657 
L 259.359414 46.812787 
L 260.888879 49.420604 
L 262.418345 41.075581 
L 263.94781 42.640274 
L 265.477276 46.291221 
L 267.006741 45.248094 
L 268.536207 45.248094 
L 270.065672 44.204967 
L 271.595138 48.377471 
L 273.124603 44.726534 
L 274.654069 44.204961 
L 276.183534 44.204961 
L 277.713 39.510887 
L 279.242465 48.377471 
L 280.771931 53.071557 
L 282.301396 45.76966 
L 283.830862 47.855908 
L 285.360327 42.640274 
L 286.889793 40.032457 
L 288.419258 44.726531 
L 289.948724 44.726534 
L 291.478189 46.291218 
L 293.007655 38.989321 
L 294.53712 45.769657 
L 296.066586 40.032451 
L 297.596051 53.593115 
L 299.125517 47.855911 
L 300.654982 39.510887 
L 302.184448 41.597144 
L 303.713913 41.597144 
L 305.243379 39.510893 
L 306.772844 42.118707 
L 308.30231 47.334348 
L 309.831775 45.76966 
L 311.361241 46.291222 
L 312.890706 44.726531 
L 314.420172 42.640274 
L 315.949637 49.942169 
L 317.479103 37.424634 
L 319.008568 39.510887 
L 320.538034 42.118704 
L 322.067499 38.989327 
L 323.596965 41.07559 
L 325.12643 43.683398 
L 326.655896 45.76966 
L 328.185361 38.467767 
L 329.714827 40.03246 
L 331.244292 40.55402 
L 332.773758 40.032454 
L 334.303224 41.597147 
L 335.832689 39.510893 
L 337.362155 37.946197 
L 338.89162 40.032451 
L 340.421086 40.554017 
L 341.950551 37.424631 
L 343.480017 42.11871 
L 345.009482 45.248094 
L 346.538948 47.334351 
L 348.068413 41.075584 
L 349.597879 43.683398 
L 351.127344 41.075581 
L 352.65681 43.16184 
L 354.186275 38.467764 
L 355.715741 43.683404 
L 357.245206 44.726527 
L 358.774672 40.032454 
L 360.304137 37.9462 
L 361.833603 45.248091 
L 363.363068 38.989327 
L 363.363068 38.989327 
" style="fill:none;stroke:#1f77b4;stroke-linecap:square;stroke-width:1.5;"/>
   </g>
   <g id="line2d_20">
    <path clip-path="url(#p6c7c3dee82)" d="M 58.999432 132.870832 
L 60.528897 125.568935 
L 62.058363 86.451646 
L 63.587828 97.926042 
L 65.117294 91.667283 
L 66.646759 91.667278 
L 68.176225 75.498791 
L 69.70569 89.059463 
L 71.235156 74.977232 
L 72.764621 83.843823 
L 74.294087 73.934107 
L 75.823552 73.934101 
L 77.353018 66.110644 
L 78.882483 77.585051 
L 80.411949 72.89098 
L 81.941414 82.800693 
L 83.47088 79.671312 
L 85.000345 77.585059 
L 86.529811 82.279129 
L 88.059276 69.240034 
L 89.588742 74.455669 
L 91.118208 75.4988 
L 92.647673 70.283159 
L 94.177139 78.628181 
L 95.706604 70.804725 
L 97.23607 82.279132 
L 98.765535 72.89097 
L 100.295001 79.149743 
L 101.824466 77.063489 
L 103.353932 83.32225 
L 104.883397 78.106619 
L 106.412863 65.067519 
L 107.942328 84.365378 
L 109.471794 83.322259 
L 111.001259 69.240032 
L 112.530725 85.408513 
L 114.06019 62.459698 
L 115.589656 89.05946 
L 117.119121 78.628179 
L 118.648587 71.84785 
L 120.178052 81.235999 
L 121.707518 68.718469 
L 123.236983 54.636244 
L 124.766449 67.67534 
L 126.295914 67.153772 
L 127.82538 73.934107 
L 129.354845 70.283156 
L 130.884311 56.200935 
L 132.413776 81.757569 
L 133.943242 69.761592 
L 135.472707 80.714439 
L 137.002173 67.675337 
L 138.531638 59.851878 
L 140.061104 71.326284 
L 141.590569 71.847854 
L 143.120035 69.240029 
L 144.6495 76.541924 
L 146.178966 58.28719 
L 147.708431 76.54193 
L 149.237897 57.765625 
L 150.767362 66.110644 
L 152.296828 49.942165 
L 153.826293 51.506855 
L 155.355759 50.463731 
L 156.885224 53.593111 
L 158.41469 53.071551 
L 159.944155 37.424631 
L 161.473621 46.291218 
L 163.003086 45.2481 
L 164.532552 49.942168 
L 166.062017 52.549985 
L 167.591483 39.510893 
L 169.120948 47.334348 
L 170.650414 52.028424 
L 172.17988 37.946197 
L 173.709345 30.644306 
L 175.238811 32.730554 
L 176.768276 43.161837 
L 178.297742 48.377477 
L 179.827207 41.075581 
L 181.356673 44.726531 
L 182.886138 42.640271 
L 184.415604 35.859947 
L 185.945069 38.989324 
L 187.474535 36.381504 
L 189.004 40.032451 
L 190.533466 32.208987 
L 192.062931 31.165864 
L 193.592397 29.60118 
L 195.121862 32.208997 
L 196.651328 32.209 
L 198.180793 33.773684 
L 199.710259 32.208994 
L 201.239724 28.036483 
L 202.76919 33.252117 
L 204.298655 26.47179 
L 205.828121 31.687433 
L 207.357586 26.471793 
L 208.887052 32.73056 
L 210.416517 27.514914 
L 211.945983 21.256153 
L 213.475448 21.777716 
L 215.004914 28.036489 
L 216.534379 25.428663 
L 218.063845 24.385543 
L 219.59331 32.73056 
L 221.122776 26.99336 
L 222.652241 23.863979 
L 224.181707 22.299286 
L 225.711172 23.863973 
L 227.240638 21.256153 
L 228.770103 22.820846 
L 230.299569 21.25615 
L 231.829034 17.083636 
L 233.3585 21.256147 
L 234.887965 21.777713 
L 236.417431 19.691463 
L 237.946896 19.691456 
L 239.476362 22.299273 
L 241.005827 20.734586 
L 242.535293 24.385539 
L 244.064758 20.213029 
L 245.594224 23.86397 
L 247.123689 20.21302 
L 250.18262 20.213029 
L 251.712086 22.299277 
L 253.241552 22.29928 
L 254.771017 22.820843 
L 256.300483 26.993353 
L 257.829948 19.691456 
L 259.359414 20.734586 
L 260.888879 20.734586 
L 262.418345 20.213032 
L 263.94781 23.863976 
L 265.477276 19.691463 
L 267.006741 21.25615 
L 268.536207 20.213026 
L 270.065672 23.863973 
L 271.595138 21.777716 
L 273.124603 19.169887 
L 274.654069 22.299286 
L 276.183534 20.21302 
L 277.713 19.69146 
L 279.242465 25.428663 
L 280.771931 21.256147 
L 282.301396 19.691463 
L 283.830862 22.820846 
L 285.360327 21.256156 
L 286.889793 20.213023 
L 288.419258 22.299283 
L 289.948724 20.213026 
L 291.478189 20.734583 
L 293.007655 20.213026 
L 294.53712 21.256153 
L 296.066586 20.734586 
L 297.596051 19.69146 
L 299.125517 21.777716 
L 300.654982 20.213026 
L 302.184448 21.77771 
L 303.713913 20.734589 
L 306.772844 22.820837 
L 308.30231 21.25614 
L 309.831775 20.213026 
L 311.361241 21.77771 
L 312.890706 77.585053 
L 314.420172 82.279128 
L 315.949637 80.192871 
L 317.479103 57.244065 
L 319.008568 56.200938 
L 320.538034 73.934106 
L 322.067499 52.549988 
L 323.596965 36.38151 
L 325.12643 38.989327 
L 326.655896 35.338377 
L 328.185361 48.899038 
L 329.714827 47.334348 
L 331.244292 31.165867 
L 332.773758 37.424631 
L 334.303224 31.165867 
L 335.832689 34.816817 
L 337.362155 37.424631 
L 338.89162 32.73056 
L 340.421086 33.252127 
L 341.950551 31.68743 
L 343.480017 36.381507 
L 345.009482 33.252123 
L 346.538948 28.55805 
L 348.068413 29.079607 
L 349.597879 26.993353 
L 351.127344 29.07961 
L 352.65681 27.514914 
L 354.186275 28.558047 
L 355.715741 23.863967 
L 357.245206 27.514917 
L 358.774672 26.47179 
L 360.304137 29.079607 
L 361.833603 28.036483 
L 363.363068 28.55805 
L 363.363068 28.55805 
" style="fill:none;stroke:#ff7f0e;stroke-linecap:square;stroke-width:1.5;"/>
   </g>
   <g id="line2d_21">
    <path clip-path="url(#p6c7c3dee82)" d="M 58.999432 176.682198 
L 60.528897 209.540725 
L 62.058363 151.64713 
L 63.587828 154.776516 
L 65.117294 142.258981 
L 66.646759 210.583852 
L 68.176225 145.388365 
L 69.70569 120.353296 
L 71.235156 113.572966 
L 72.764621 143.30211 
L 74.294087 82.800694 
L 75.823552 95.83979 
L 77.353018 87.494766 
L 78.882483 78.106614 
L 81.941414 92.188845 
L 83.47088 114.094528 
L 85.000345 77.585053 
L 86.529811 87.494769 
L 88.059276 78.10661 
L 89.588742 70.28316 
L 91.118208 80.192877 
L 92.647673 75.498804 
L 94.177139 77.58506 
L 95.706604 71.326286 
L 97.23607 76.020359 
L 98.765535 80.192877 
L 100.295001 82.800693 
L 101.824466 82.800693 
L 103.353932 80.714438 
L 104.883397 81.757564 
L 106.412863 102.620125 
L 107.942328 77.585056 
L 109.471794 82.800696 
L 111.001259 77.585054 
L 112.530725 78.106614 
L 114.06019 79.671309 
L 115.589656 85.408511 
L 117.119121 92.710408 
L 118.648587 79.671306 
L 120.178052 85.408516 
L 121.707518 76.020364 
L 123.236983 80.714434 
L 124.766449 72.89098 
L 126.295914 82.279125 
L 127.82538 74.977239 
L 129.354845 73.934109 
L 130.884311 74.977232 
L 132.413776 79.149747 
L 133.943242 92.188843 
L 135.472707 89.059457 
L 137.002173 79.671312 
L 138.531638 90.624156 
L 140.061104 83.843824 
L 141.590569 89.05946 
L 143.120035 82.279129 
L 144.6495 89.581022 
L 146.178966 77.063488 
L 147.708431 74.977229 
L 149.237897 88.016328 
L 150.767362 70.804719 
L 152.296828 79.671308 
L 153.826293 76.541929 
L 155.355759 84.886949 
L 156.885224 86.973205 
L 158.41469 79.149749 
L 159.944155 75.498799 
L 161.473621 74.977229 
L 163.003086 85.930076 
L 164.532552 107.835759 
L 166.062017 83.322258 
L 167.591483 79.671305 
L 169.120948 80.192871 
L 170.650414 84.365388 
L 172.17988 79.149746 
L 173.709345 81.236003 
L 175.238811 71.326286 
L 176.768276 85.930078 
L 179.827207 84.886948 
L 181.356673 88.016334 
L 182.886138 86.973203 
L 184.415604 89.059463 
L 185.945069 76.020364 
L 189.004 77.063491 
L 190.533466 90.102583 
L 192.062931 77.585057 
L 193.592397 69.761594 
L 195.121862 76.020365 
L 196.651328 85.408516 
L 198.180793 77.063491 
L 199.710259 95.839792 
L 201.239724 86.451641 
L 202.76919 73.412544 
L 204.298655 89.581022 
L 205.828121 74.455672 
L 207.357586 72.890977 
L 208.887052 68.718469 
L 211.945983 87.494766 
L 213.475448 74.455664 
L 215.004914 166.25092 
L 216.534379 141.737417 
L 218.063845 143.302109 
L 219.59331 95.83979 
L 221.122776 105.227944 
L 222.652241 110.443579 
L 224.181707 99.490738 
L 225.711172 114.616086 
L 227.240638 93.231972 
L 228.770103 95.839788 
L 230.299569 89.059466 
L 231.829034 84.886949 
L 233.3585 77.063494 
L 234.887965 84.886948 
L 236.417431 91.145721 
L 237.946896 81.757564 
L 239.476362 85.930075 
L 241.005827 91.667286 
L 242.535293 82.279126 
L 244.064758 90.102588 
L 245.594224 85.408516 
L 247.123689 96.361355 
L 248.653155 89.059458 
L 250.18262 79.671309 
L 251.712086 65.58908 
L 253.241552 78.106617 
L 254.771017 89.581026 
L 256.300483 78.106616 
L 257.829948 74.977239 
L 259.359414 81.235998 
L 260.888879 86.451641 
L 262.418345 85.930076 
L 263.94781 83.843823 
L 265.477276 85.408507 
L 267.006741 91.145713 
L 268.536207 83.843823 
L 270.065672 81.757566 
L 271.595138 86.451641 
L 273.124603 90.624153 
L 274.654069 86.451641 
L 276.183534 89.581029 
L 277.713 83.843818 
L 279.242465 87.494765 
L 280.771931 93.231973 
L 282.301396 79.671312 
L 283.830862 91.145713 
L 285.360327 86.973203 
L 286.889793 85.408516 
L 288.419258 92.188848 
L 289.948724 83.843821 
L 291.478189 88.016334 
L 293.007655 86.973208 
L 294.53712 96.882918 
L 296.066586 86.973206 
L 297.596051 85.930078 
L 299.125517 84.365383 
L 300.654982 95.318225 
L 302.184448 82.800693 
L 303.713913 80.192876 
L 305.243379 95.318225 
L 306.772844 91.145716 
L 308.30231 90.10259 
L 309.831775 86.973203 
L 311.361241 95.31823 
L 312.890706 83.843816 
L 314.420172 96.882915 
L 315.949637 82.279136 
L 317.479103 94.275097 
L 319.008568 87.494766 
L 320.538034 89.05946 
L 322.067499 97.404482 
L 323.596965 75.498799 
L 325.12643 83.843819 
L 326.655896 89.05946 
L 328.185361 91.667281 
L 329.714827 80.192873 
L 331.244292 84.365388 
L 332.773758 70.804728 
L 334.303224 117.745474 
L 335.832689 77.063492 
L 337.362155 97.92605 
L 338.89162 88.537893 
L 340.421086 74.977237 
L 341.950551 83.843819 
L 343.480017 82.279129 
L 345.009482 80.19287 
L 346.538948 85.408516 
L 349.597879 89.581023 
L 351.127344 78.106619 
L 352.65681 95.83979 
L 354.186275 82.279131 
L 355.715741 92.710407 
L 357.245206 94.796665 
L 358.774672 82.800693 
L 360.304137 86.451641 
L 361.833603 84.365388 
L 363.363068 93.231973 
L 363.363068 93.231973 
" style="fill:none;stroke:#2ca02c;stroke-linecap:square;stroke-width:1.5;"/>
   </g>
   <g id="patch_3">
    <path d="M 43.78125 224.64 
L 43.78125 7.2 
" style="fill:none;stroke:#000000;stroke-linecap:square;stroke-linejoin:miter;stroke-width:0.8;"/>
   </g>
   <g id="patch_4">
    <path d="M 378.58125 224.64 
L 378.58125 7.2 
" style="fill:none;stroke:#000000;stroke-linecap:square;stroke-linejoin:miter;stroke-width:0.8;"/>
   </g>
   <g id="patch_5">
    <path d="M 43.78125 224.64 
L 378.58125 224.64 
" style="fill:none;stroke:#000000;stroke-linecap:square;stroke-linejoin:miter;stroke-width:0.8;"/>
   </g>
   <g id="patch_6">
    <path d="M 43.78125 7.2 
L 378.58125 7.2 
" style="fill:none;stroke:#000000;stroke-linecap:square;stroke-linejoin:miter;stroke-width:0.8;"/>
   </g>
   <g id="legend_1">
    <g id="patch_7">
     <path d="M 50.78125 60.06875 
L 197.6375 60.06875 
Q 199.6375 60.06875 199.6375 58.06875 
L 199.6375 14.2 
Q 199.6375 12.2 197.6375 12.2 
L 50.78125 12.2 
Q 48.78125 12.2 48.78125 14.2 
L 48.78125 58.06875 
Q 48.78125 60.06875 50.78125 60.06875 
z
" style="fill:#ffffff;opacity:0.8;stroke:#cccccc;stroke-linejoin:miter;"/>
    </g>
    <g id="line2d_22">
     <path d="M 52.78125 20.298437 
L 72.78125 20.298437 
" style="fill:none;stroke:#1f77b4;stroke-linecap:square;stroke-width:1.5;"/>
    </g>
    <g id="line2d_23"/>
    <g id="text_21">
     <!-- segnet_focal_score_val -->
     <g transform="translate(80.78125 23.798437)scale(0.1 -0.1)">
      <defs>
       <path d="M 45.40625 27.984375 
Q 45.40625 37.75 41.375 43.109375 
Q 37.359375 48.484375 30.078125 48.484375 
Q 22.859375 48.484375 18.828125 43.109375 
Q 14.796875 37.75 14.796875 27.984375 
Q 14.796875 18.265625 18.828125 12.890625 
Q 22.859375 7.515625 30.078125 7.515625 
Q 37.359375 7.515625 41.375 12.890625 
Q 45.40625 18.265625 45.40625 27.984375 
z
M 54.390625 6.78125 
Q 54.390625 -7.171875 48.1875 -13.984375 
Q 42 -20.796875 29.203125 -20.796875 
Q 24.46875 -20.796875 20.265625 -20.09375 
Q 16.0625 -19.390625 12.109375 -17.921875 
L 12.109375 -9.1875 
Q 16.0625 -11.328125 19.921875 -12.34375 
Q 23.78125 -13.375 27.78125 -13.375 
Q 36.625 -13.375 41.015625 -8.765625 
Q 45.40625 -4.15625 45.40625 5.171875 
L 45.40625 9.625 
Q 42.625 4.78125 38.28125 2.390625 
Q 33.9375 0 27.875 0 
Q 17.828125 0 11.671875 7.65625 
Q 5.515625 15.328125 5.515625 27.984375 
Q 5.515625 40.671875 11.671875 48.328125 
Q 17.828125 56 27.875 56 
Q 33.9375 56 38.28125 53.609375 
Q 42.625 51.21875 45.40625 46.390625 
L 45.40625 54.6875 
L 54.390625 54.6875 
z
" id="DejaVuSans-103"/>
       <path d="M 54.890625 33.015625 
L 54.890625 0 
L 45.90625 0 
L 45.90625 32.71875 
Q 45.90625 40.484375 42.875 44.328125 
Q 39.84375 48.1875 33.796875 48.1875 
Q 26.515625 48.1875 22.3125 43.546875 
Q 18.109375 38.921875 18.109375 30.90625 
L 18.109375 0 
L 9.078125 0 
L 9.078125 54.6875 
L 18.109375 54.6875 
L 18.109375 46.1875 
Q 21.34375 51.125 25.703125 53.5625 
Q 30.078125 56 35.796875 56 
Q 45.21875 56 50.046875 50.171875 
Q 54.890625 44.34375 54.890625 33.015625 
z
" id="DejaVuSans-110"/>
       <path d="M 18.3125 70.21875 
L 18.3125 54.6875 
L 36.8125 54.6875 
L 36.8125 47.703125 
L 18.3125 47.703125 
L 18.3125 18.015625 
Q 18.3125 11.328125 20.140625 9.421875 
Q 21.96875 7.515625 27.59375 7.515625 
L 36.8125 7.515625 
L 36.8125 0 
L 27.59375 0 
Q 17.1875 0 13.234375 3.875 
Q 9.28125 7.765625 9.28125 18.015625 
L 9.28125 47.703125 
L 2.6875 47.703125 
L 2.6875 54.6875 
L 9.28125 54.6875 
L 9.28125 70.21875 
z
" id="DejaVuSans-116"/>
       <path d="M 50.984375 -16.609375 
L 50.984375 -23.578125 
L -0.984375 -23.578125 
L -0.984375 -16.609375 
z
" id="DejaVuSans-95"/>
       <path d="M 37.109375 75.984375 
L 37.109375 68.5 
L 28.515625 68.5 
Q 23.6875 68.5 21.796875 66.546875 
Q 19.921875 64.59375 19.921875 59.515625 
L 19.921875 54.6875 
L 34.71875 54.6875 
L 34.71875 47.703125 
L 19.921875 47.703125 
L 19.921875 0 
L 10.890625 0 
L 10.890625 47.703125 
L 2.296875 47.703125 
L 2.296875 54.6875 
L 10.890625 54.6875 
L 10.890625 58.5 
Q 10.890625 67.625 15.140625 71.796875 
Q 19.390625 75.984375 28.609375 75.984375 
z
" id="DejaVuSans-102"/>
       <path d="M 34.28125 27.484375 
Q 23.390625 27.484375 19.1875 25 
Q 14.984375 22.515625 14.984375 16.5 
Q 14.984375 11.71875 18.140625 8.90625 
Q 21.296875 6.109375 26.703125 6.109375 
Q 34.1875 6.109375 38.703125 11.40625 
Q 43.21875 16.703125 43.21875 25.484375 
L 43.21875 27.484375 
z
M 52.203125 31.203125 
L 52.203125 0 
L 43.21875 0 
L 43.21875 8.296875 
Q 40.140625 3.328125 35.546875 0.953125 
Q 30.953125 -1.421875 24.3125 -1.421875 
Q 15.921875 -1.421875 10.953125 3.296875 
Q 6 8.015625 6 15.921875 
Q 6 25.140625 12.171875 29.828125 
Q 18.359375 34.515625 30.609375 34.515625 
L 43.21875 34.515625 
L 43.21875 35.40625 
Q 43.21875 41.609375 39.140625 45 
Q 35.0625 48.390625 27.6875 48.390625 
Q 23 48.390625 18.546875 47.265625 
Q 14.109375 46.140625 10.015625 43.890625 
L 10.015625 52.203125 
Q 14.9375 54.109375 19.578125 55.046875 
Q 24.21875 56 28.609375 56 
Q 40.484375 56 46.34375 49.84375 
Q 52.203125 43.703125 52.203125 31.203125 
z
" id="DejaVuSans-97"/>
       <path d="M 9.421875 75.984375 
L 18.40625 75.984375 
L 18.40625 0 
L 9.421875 0 
z
" id="DejaVuSans-108"/>
       <path d="M 2.984375 54.6875 
L 12.5 54.6875 
L 29.59375 8.796875 
L 46.6875 54.6875 
L 56.203125 54.6875 
L 35.6875 0 
L 23.484375 0 
z
" id="DejaVuSans-118"/>
      </defs>
      <use xlink:href="#DejaVuSans-115"/>
      <use x="52.099609" xlink:href="#DejaVuSans-101"/>
      <use x="113.623047" xlink:href="#DejaVuSans-103"/>
      <use x="177.099609" xlink:href="#DejaVuSans-110"/>
      <use x="240.478516" xlink:href="#DejaVuSans-101"/>
      <use x="302.001953" xlink:href="#DejaVuSans-116"/>
      <use x="341.210938" xlink:href="#DejaVuSans-95"/>
      <use x="391.210938" xlink:href="#DejaVuSans-102"/>
      <use x="426.416016" xlink:href="#DejaVuSans-111"/>
      <use x="487.597656" xlink:href="#DejaVuSans-99"/>
      <use x="542.578125" xlink:href="#DejaVuSans-97"/>
      <use x="603.857422" xlink:href="#DejaVuSans-108"/>
      <use x="631.640625" xlink:href="#DejaVuSans-95"/>
      <use x="681.640625" xlink:href="#DejaVuSans-115"/>
      <use x="733.740234" xlink:href="#DejaVuSans-99"/>
      <use x="788.720703" xlink:href="#DejaVuSans-111"/>
      <use x="849.902344" xlink:href="#DejaVuSans-114"/>
      <use x="888.765625" xlink:href="#DejaVuSans-101"/>
      <use x="950.289062" xlink:href="#DejaVuSans-95"/>
      <use x="1000.289062" xlink:href="#DejaVuSans-118"/>
      <use x="1059.46875" xlink:href="#DejaVuSans-97"/>
      <use x="1120.748047" xlink:href="#DejaVuSans-108"/>
     </g>
    </g>
    <g id="line2d_24">
     <path d="M 52.78125 35.254687 
L 72.78125 35.254687 
" style="fill:none;stroke:#ff7f0e;stroke-linecap:square;stroke-width:1.5;"/>
    </g>
    <g id="line2d_25"/>
    <g id="text_22">
     <!-- unet_focal_score_val -->
     <g transform="translate(80.78125 38.754687)scale(0.1 -0.1)">
      <defs>
       <path d="M 8.5 21.578125 
L 8.5 54.6875 
L 17.484375 54.6875 
L 17.484375 21.921875 
Q 17.484375 14.15625 20.5 10.265625 
Q 23.53125 6.390625 29.59375 6.390625 
Q 36.859375 6.390625 41.078125 11.03125 
Q 45.3125 15.671875 45.3125 23.6875 
L 45.3125 54.6875 
L 54.296875 54.6875 
L 54.296875 0 
L 45.3125 0 
L 45.3125 8.40625 
Q 42.046875 3.421875 37.71875 1 
Q 33.40625 -1.421875 27.6875 -1.421875 
Q 18.265625 -1.421875 13.375 4.4375 
Q 8.5 10.296875 8.5 21.578125 
z
M 31.109375 56 
z
" id="DejaVuSans-117"/>
      </defs>
      <use xlink:href="#DejaVuSans-117"/>
      <use x="63.378906" xlink:href="#DejaVuSans-110"/>
      <use x="126.757812" xlink:href="#DejaVuSans-101"/>
      <use x="188.28125" xlink:href="#DejaVuSans-116"/>
      <use x="227.490234" xlink:href="#DejaVuSans-95"/>
      <use x="277.490234" xlink:href="#DejaVuSans-102"/>
      <use x="312.695312" xlink:href="#DejaVuSans-111"/>
      <use x="373.876953" xlink:href="#DejaVuSans-99"/>
      <use x="428.857422" xlink:href="#DejaVuSans-97"/>
      <use x="490.136719" xlink:href="#DejaVuSans-108"/>
      <use x="517.919922" xlink:href="#DejaVuSans-95"/>
      <use x="567.919922" xlink:href="#DejaVuSans-115"/>
      <use x="620.019531" xlink:href="#DejaVuSans-99"/>
      <use x="675" xlink:href="#DejaVuSans-111"/>
      <use x="736.181641" xlink:href="#DejaVuSans-114"/>
      <use x="775.044922" xlink:href="#DejaVuSans-101"/>
      <use x="836.568359" xlink:href="#DejaVuSans-95"/>
      <use x="886.568359" xlink:href="#DejaVuSans-118"/>
      <use x="945.748047" xlink:href="#DejaVuSans-97"/>
      <use x="1007.027344" xlink:href="#DejaVuSans-108"/>
     </g>
    </g>
    <g id="line2d_26">
     <path d="M 52.78125 50.210937 
L 72.78125 50.210937 
" style="fill:none;stroke:#2ca02c;stroke-linecap:square;stroke-width:1.5;"/>
    </g>
    <g id="line2d_27"/>
    <g id="text_23">
     <!-- unet2_focal_score_val -->
     <g transform="translate(80.78125 53.710937)scale(0.1 -0.1)">
      <use xlink:href="#DejaVuSans-117"/>
      <use x="63.378906" xlink:href="#DejaVuSans-110"/>
      <use x="126.757812" xlink:href="#DejaVuSans-101"/>
      <use x="188.28125" xlink:href="#DejaVuSans-116"/>
      <use x="227.490234" xlink:href="#DejaVuSans-50"/>
      <use x="291.113281" xlink:href="#DejaVuSans-95"/>
      <use x="341.113281" xlink:href="#DejaVuSans-102"/>
      <use x="376.318359" xlink:href="#DejaVuSans-111"/>
      <use x="437.5" xlink:href="#DejaVuSans-99"/>
      <use x="492.480469" xlink:href="#DejaVuSans-97"/>
      <use x="553.759766" xlink:href="#DejaVuSans-108"/>
      <use x="581.542969" xlink:href="#DejaVuSans-95"/>
      <use x="631.542969" xlink:href="#DejaVuSans-115"/>
      <use x="683.642578" xlink:href="#DejaVuSans-99"/>
      <use x="738.623047" xlink:href="#DejaVuSans-111"/>
      <use x="799.804688" xlink:href="#DejaVuSans-114"/>
      <use x="838.667969" xlink:href="#DejaVuSans-101"/>
      <use x="900.191406" xlink:href="#DejaVuSans-95"/>
      <use x="950.191406" xlink:href="#DejaVuSans-118"/>
      <use x="1009.371094" xlink:href="#DejaVuSans-97"/>
      <use x="1070.650391" xlink:href="#DejaVuSans-108"/>
     </g>
    </g>
   </g>
  </g>
 </g>
 <defs>
  <clipPath id="p6c7c3dee82">
   <rect height="217.44" width="334.8" x="43.78125" y="7.2"/>
  </clipPath>
 </defs>
</svg>
