<?xml version="1.0" encoding="utf-8" standalone="no"?>
<!DOCTYPE svg PUBLIC "-//W3C//DTD SVG 1.1//EN"
  "http://www.w3.org/Graphics/SVG/1.1/DTD/svg11.dtd">
<!-- Created with matplotlib (https://matplotlib.org/) -->
<svg height="262.19625pt" version="1.1" viewBox="0 0 385.78125 262.19625" width="385.78125pt" xmlns="http://www.w3.org/2000/svg" xmlns:xlink="http://www.w3.org/1999/xlink">
 <metadata>
  <rdf:RDF xmlns:cc="http://creativecommons.org/ns#" xmlns:dc="http://purl.org/dc/elements/1.1/" xmlns:rdf="http://www.w3.org/1999/02/22-rdf-syntax-ns#">
   <cc:Work>
    <dc:type rdf:resource="http://purl.org/dc/dcmitype/StillImage"/>
    <dc:date>2020-12-16T14:56:07.036411</dc:date>
    <dc:format>image/svg+xml</dc:format>
    <dc:creator>
     <cc:Agent>
      <dc:title>Matplotlib v3.3.3, https://matplotlib.org/</dc:title>
     </cc:Agent>
    </dc:creator>
   </cc:Work>
  </rdf:RDF>
 </metadata>
 <defs>
  <style type="text/css">*{stroke-linecap:butt;stroke-linejoin:round;}</style>
 </defs>
 <g id="figure_1">
  <g id="patch_1">
   <path d="M 0 262.19625 
L 385.78125 262.19625 
L 385.78125 0 
L 0 0 
z
" style="fill:none;"/>
  </g>
  <g id="axes_1">
   <g id="patch_2">
    <path d="M 43.78125 224.64 
L 378.58125 224.64 
L 378.58125 7.2 
L 43.78125 7.2 
z
" style="fill:#ffffff;"/>
   </g>
   <g id="matplotlib.axis_1">
    <g id="xtick_1">
     <g id="line2d_1">
      <defs>
       <path d="M 0 0 
L 0 3.5 
" id="mda96841f2f" style="stroke:#000000;stroke-width:0.8;"/>
      </defs>
      <g>
       <use style="stroke:#000000;stroke-width:0.8;" x="58.999432" xlink:href="#mda96841f2f" y="224.64"/>
      </g>
     </g>
     <g id="text_1">
      <!-- 0 -->
      <g transform="translate(55.818182 239.238437)scale(0.1 -0.1)">
       <defs>
        <path d="M 31.78125 66.40625 
Q 24.171875 66.40625 20.328125 58.90625 
Q 16.5 51.421875 16.5 36.375 
Q 16.5 21.390625 20.328125 13.890625 
Q 24.171875 6.390625 31.78125 6.390625 
Q 39.453125 6.390625 43.28125 13.890625 
Q 47.125 21.390625 47.125 36.375 
Q 47.125 51.421875 43.28125 58.90625 
Q 39.453125 66.40625 31.78125 66.40625 
z
M 31.78125 74.21875 
Q 44.046875 74.21875 50.515625 64.515625 
Q 56.984375 54.828125 56.984375 36.375 
Q 56.984375 17.96875 50.515625 8.265625 
Q 44.046875 -1.421875 31.78125 -1.421875 
Q 19.53125 -1.421875 13.0625 8.265625 
Q 6.59375 17.96875 6.59375 36.375 
Q 6.59375 54.828125 13.0625 64.515625 
Q 19.53125 74.21875 31.78125 74.21875 
z
" id="DejaVuSans-48"/>
       </defs>
       <use xlink:href="#DejaVuSans-48"/>
      </g>
     </g>
    </g>
    <g id="xtick_2">
     <g id="line2d_2">
      <g>
       <use style="stroke:#000000;stroke-width:0.8;" x="97.23607" xlink:href="#mda96841f2f" y="224.64"/>
      </g>
     </g>
     <g id="text_2">
      <!-- 25 -->
      <g transform="translate(90.87357 239.238437)scale(0.1 -0.1)">
       <defs>
        <path d="M 19.1875 8.296875 
L 53.609375 8.296875 
L 53.609375 0 
L 7.328125 0 
L 7.328125 8.296875 
Q 12.9375 14.109375 22.625 23.890625 
Q 32.328125 33.6875 34.8125 36.53125 
Q 39.546875 41.84375 41.421875 45.53125 
Q 43.3125 49.21875 43.3125 52.78125 
Q 43.3125 58.59375 39.234375 62.25 
Q 35.15625 65.921875 28.609375 65.921875 
Q 23.96875 65.921875 18.8125 64.3125 
Q 13.671875 62.703125 7.8125 59.421875 
L 7.8125 69.390625 
Q 13.765625 71.78125 18.9375 73 
Q 24.125 74.21875 28.421875 74.21875 
Q 39.75 74.21875 46.484375 68.546875 
Q 53.21875 62.890625 53.21875 53.421875 
Q 53.21875 48.921875 51.53125 44.890625 
Q 49.859375 40.875 45.40625 35.40625 
Q 44.1875 33.984375 37.640625 27.21875 
Q 31.109375 20.453125 19.1875 8.296875 
z
" id="DejaVuSans-50"/>
        <path d="M 10.796875 72.90625 
L 49.515625 72.90625 
L 49.515625 64.59375 
L 19.828125 64.59375 
L 19.828125 46.734375 
Q 21.96875 47.46875 24.109375 47.828125 
Q 26.265625 48.1875 28.421875 48.1875 
Q 40.625 48.1875 47.75 41.5 
Q 54.890625 34.8125 54.890625 23.390625 
Q 54.890625 11.625 47.5625 5.09375 
Q 40.234375 -1.421875 26.90625 -1.421875 
Q 22.3125 -1.421875 17.546875 -0.640625 
Q 12.796875 0.140625 7.71875 1.703125 
L 7.71875 11.625 
Q 12.109375 9.234375 16.796875 8.0625 
Q 21.484375 6.890625 26.703125 6.890625 
Q 35.15625 6.890625 40.078125 11.328125 
Q 45.015625 15.765625 45.015625 23.390625 
Q 45.015625 31 40.078125 35.4375 
Q 35.15625 39.890625 26.703125 39.890625 
Q 22.75 39.890625 18.8125 39.015625 
Q 14.890625 38.140625 10.796875 36.28125 
z
" id="DejaVuSans-53"/>
       </defs>
       <use xlink:href="#DejaVuSans-50"/>
       <use x="63.623047" xlink:href="#DejaVuSans-53"/>
      </g>
     </g>
    </g>
    <g id="xtick_3">
     <g id="line2d_3">
      <g>
       <use style="stroke:#000000;stroke-width:0.8;" x="135.472707" xlink:href="#mda96841f2f" y="224.64"/>
      </g>
     </g>
     <g id="text_3">
      <!-- 50 -->
      <g transform="translate(129.110207 239.238437)scale(0.1 -0.1)">
       <use xlink:href="#DejaVuSans-53"/>
       <use x="63.623047" xlink:href="#DejaVuSans-48"/>
      </g>
     </g>
    </g>
    <g id="xtick_4">
     <g id="line2d_4">
      <g>
       <use style="stroke:#000000;stroke-width:0.8;" x="173.709345" xlink:href="#mda96841f2f" y="224.64"/>
      </g>
     </g>
     <g id="text_4">
      <!-- 75 -->
      <g transform="translate(167.346845 239.238437)scale(0.1 -0.1)">
       <defs>
        <path d="M 8.203125 72.90625 
L 55.078125 72.90625 
L 55.078125 68.703125 
L 28.609375 0 
L 18.3125 0 
L 43.21875 64.59375 
L 8.203125 64.59375 
z
" id="DejaVuSans-55"/>
       </defs>
       <use xlink:href="#DejaVuSans-55"/>
       <use x="63.623047" xlink:href="#DejaVuSans-53"/>
      </g>
     </g>
    </g>
    <g id="xtick_5">
     <g id="line2d_5">
      <g>
       <use style="stroke:#000000;stroke-width:0.8;" x="211.945983" xlink:href="#mda96841f2f" y="224.64"/>
      </g>
     </g>
     <g id="text_5">
      <!-- 100 -->
      <g transform="translate(202.402233 239.238437)scale(0.1 -0.1)">
       <defs>
        <path d="M 12.40625 8.296875 
L 28.515625 8.296875 
L 28.515625 63.921875 
L 10.984375 60.40625 
L 10.984375 69.390625 
L 28.421875 72.90625 
L 38.28125 72.90625 
L 38.28125 8.296875 
L 54.390625 8.296875 
L 54.390625 0 
L 12.40625 0 
z
" id="DejaVuSans-49"/>
       </defs>
       <use xlink:href="#DejaVuSans-49"/>
       <use x="63.623047" xlink:href="#DejaVuSans-48"/>
       <use x="127.246094" xlink:href="#DejaVuSans-48"/>
      </g>
     </g>
    </g>
    <g id="xtick_6">
     <g id="line2d_6">
      <g>
       <use style="stroke:#000000;stroke-width:0.8;" x="250.18262" xlink:href="#mda96841f2f" y="224.64"/>
      </g>
     </g>
     <g id="text_6">
      <!-- 125 -->
      <g transform="translate(240.63887 239.238437)scale(0.1 -0.1)">
       <use xlink:href="#DejaVuSans-49"/>
       <use x="63.623047" xlink:href="#DejaVuSans-50"/>
       <use x="127.246094" xlink:href="#DejaVuSans-53"/>
      </g>
     </g>
    </g>
    <g id="xtick_7">
     <g id="line2d_7">
      <g>
       <use style="stroke:#000000;stroke-width:0.8;" x="288.419258" xlink:href="#mda96841f2f" y="224.64"/>
      </g>
     </g>
     <g id="text_7">
      <!-- 150 -->
      <g transform="translate(278.875508 239.238437)scale(0.1 -0.1)">
       <use xlink:href="#DejaVuSans-49"/>
       <use x="63.623047" xlink:href="#DejaVuSans-53"/>
       <use x="127.246094" xlink:href="#DejaVuSans-48"/>
      </g>
     </g>
    </g>
    <g id="xtick_8">
     <g id="line2d_8">
      <g>
       <use style="stroke:#000000;stroke-width:0.8;" x="326.655896" xlink:href="#mda96841f2f" y="224.64"/>
      </g>
     </g>
     <g id="text_8">
      <!-- 175 -->
      <g transform="translate(317.112146 239.238437)scale(0.1 -0.1)">
       <use xlink:href="#DejaVuSans-49"/>
       <use x="63.623047" xlink:href="#DejaVuSans-55"/>
       <use x="127.246094" xlink:href="#DejaVuSans-53"/>
      </g>
     </g>
    </g>
    <g id="xtick_9">
     <g id="line2d_9">
      <g>
       <use style="stroke:#000000;stroke-width:0.8;" x="364.892534" xlink:href="#mda96841f2f" y="224.64"/>
      </g>
     </g>
     <g id="text_9">
      <!-- 200 -->
      <g transform="translate(355.348784 239.238437)scale(0.1 -0.1)">
       <use xlink:href="#DejaVuSans-50"/>
       <use x="63.623047" xlink:href="#DejaVuSans-48"/>
       <use x="127.246094" xlink:href="#DejaVuSans-48"/>
      </g>
     </g>
    </g>
    <g id="text_10">
     <!-- epoch -->
     <g transform="translate(195.953125 252.916562)scale(0.1 -0.1)">
      <defs>
       <path d="M 56.203125 29.59375 
L 56.203125 25.203125 
L 14.890625 25.203125 
Q 15.484375 15.921875 20.484375 11.0625 
Q 25.484375 6.203125 34.421875 6.203125 
Q 39.59375 6.203125 44.453125 7.46875 
Q 49.3125 8.734375 54.109375 11.28125 
L 54.109375 2.78125 
Q 49.265625 0.734375 44.1875 -0.34375 
Q 39.109375 -1.421875 33.890625 -1.421875 
Q 20.796875 -1.421875 13.15625 6.1875 
Q 5.515625 13.8125 5.515625 26.8125 
Q 5.515625 40.234375 12.765625 48.109375 
Q 20.015625 56 32.328125 56 
Q 43.359375 56 49.78125 48.890625 
Q 56.203125 41.796875 56.203125 29.59375 
z
M 47.21875 32.234375 
Q 47.125 39.59375 43.09375 43.984375 
Q 39.0625 48.390625 32.421875 48.390625 
Q 24.90625 48.390625 20.390625 44.140625 
Q 15.875 39.890625 15.1875 32.171875 
z
" id="DejaVuSans-101"/>
       <path d="M 18.109375 8.203125 
L 18.109375 -20.796875 
L 9.078125 -20.796875 
L 9.078125 54.6875 
L 18.109375 54.6875 
L 18.109375 46.390625 
Q 20.953125 51.265625 25.265625 53.625 
Q 29.59375 56 35.59375 56 
Q 45.5625 56 51.78125 48.09375 
Q 58.015625 40.1875 58.015625 27.296875 
Q 58.015625 14.40625 51.78125 6.484375 
Q 45.5625 -1.421875 35.59375 -1.421875 
Q 29.59375 -1.421875 25.265625 0.953125 
Q 20.953125 3.328125 18.109375 8.203125 
z
M 48.6875 27.296875 
Q 48.6875 37.203125 44.609375 42.84375 
Q 40.53125 48.484375 33.40625 48.484375 
Q 26.265625 48.484375 22.1875 42.84375 
Q 18.109375 37.203125 18.109375 27.296875 
Q 18.109375 17.390625 22.1875 11.75 
Q 26.265625 6.109375 33.40625 6.109375 
Q 40.53125 6.109375 44.609375 11.75 
Q 48.6875 17.390625 48.6875 27.296875 
z
" id="DejaVuSans-112"/>
       <path d="M 30.609375 48.390625 
Q 23.390625 48.390625 19.1875 42.75 
Q 14.984375 37.109375 14.984375 27.296875 
Q 14.984375 17.484375 19.15625 11.84375 
Q 23.34375 6.203125 30.609375 6.203125 
Q 37.796875 6.203125 41.984375 11.859375 
Q 46.1875 17.53125 46.1875 27.296875 
Q 46.1875 37.015625 41.984375 42.703125 
Q 37.796875 48.390625 30.609375 48.390625 
z
M 30.609375 56 
Q 42.328125 56 49.015625 48.375 
Q 55.71875 40.765625 55.71875 27.296875 
Q 55.71875 13.875 49.015625 6.21875 
Q 42.328125 -1.421875 30.609375 -1.421875 
Q 18.84375 -1.421875 12.171875 6.21875 
Q 5.515625 13.875 5.515625 27.296875 
Q 5.515625 40.765625 12.171875 48.375 
Q 18.84375 56 30.609375 56 
z
" id="DejaVuSans-111"/>
       <path d="M 48.78125 52.59375 
L 48.78125 44.1875 
Q 44.96875 46.296875 41.140625 47.34375 
Q 37.3125 48.390625 33.40625 48.390625 
Q 24.65625 48.390625 19.8125 42.84375 
Q 14.984375 37.3125 14.984375 27.296875 
Q 14.984375 17.28125 19.8125 11.734375 
Q 24.65625 6.203125 33.40625 6.203125 
Q 37.3125 6.203125 41.140625 7.25 
Q 44.96875 8.296875 48.78125 10.40625 
L 48.78125 2.09375 
Q 45.015625 0.34375 40.984375 -0.53125 
Q 36.96875 -1.421875 32.421875 -1.421875 
Q 20.0625 -1.421875 12.78125 6.34375 
Q 5.515625 14.109375 5.515625 27.296875 
Q 5.515625 40.671875 12.859375 48.328125 
Q 20.21875 56 33.015625 56 
Q 37.15625 56 41.109375 55.140625 
Q 45.0625 54.296875 48.78125 52.59375 
z
" id="DejaVuSans-99"/>
       <path d="M 54.890625 33.015625 
L 54.890625 0 
L 45.90625 0 
L 45.90625 32.71875 
Q 45.90625 40.484375 42.875 44.328125 
Q 39.84375 48.1875 33.796875 48.1875 
Q 26.515625 48.1875 22.3125 43.546875 
Q 18.109375 38.921875 18.109375 30.90625 
L 18.109375 0 
L 9.078125 0 
L 9.078125 75.984375 
L 18.109375 75.984375 
L 18.109375 46.1875 
Q 21.34375 51.125 25.703125 53.5625 
Q 30.078125 56 35.796875 56 
Q 45.21875 56 50.046875 50.171875 
Q 54.890625 44.34375 54.890625 33.015625 
z
" id="DejaVuSans-104"/>
      </defs>
      <use xlink:href="#DejaVuSans-101"/>
      <use x="61.523438" xlink:href="#DejaVuSans-112"/>
      <use x="125" xlink:href="#DejaVuSans-111"/>
      <use x="186.181641" xlink:href="#DejaVuSans-99"/>
      <use x="241.162109" xlink:href="#DejaVuSans-104"/>
     </g>
    </g>
   </g>
   <g id="matplotlib.axis_2">
    <g id="ytick_1">
     <g id="line2d_10">
      <defs>
       <path d="M 0 0 
L -3.5 0 
" id="mc2cd6bd6b2" style="stroke:#000000;stroke-width:0.8;"/>
      </defs>
      <g>
       <use style="stroke:#000000;stroke-width:0.8;" x="43.78125" xlink:href="#mc2cd6bd6b2" y="216.269165"/>
      </g>
     </g>
     <g id="text_11">
      <!-- 0.0 -->
      <g transform="translate(20.878125 220.068384)scale(0.1 -0.1)">
       <defs>
        <path d="M 10.6875 12.40625 
L 21 12.40625 
L 21 0 
L 10.6875 0 
z
" id="DejaVuSans-46"/>
       </defs>
       <use xlink:href="#DejaVuSans-48"/>
       <use x="63.623047" xlink:href="#DejaVuSans-46"/>
       <use x="95.410156" xlink:href="#DejaVuSans-48"/>
      </g>
     </g>
    </g>
    <g id="ytick_2">
     <g id="line2d_11">
      <g>
       <use style="stroke:#000000;stroke-width:0.8;" x="43.78125" xlink:href="#mc2cd6bd6b2" y="191.055808"/>
      </g>
     </g>
     <g id="text_12">
      <!-- 0.1 -->
      <g transform="translate(20.878125 194.855027)scale(0.1 -0.1)">
       <use xlink:href="#DejaVuSans-48"/>
       <use x="63.623047" xlink:href="#DejaVuSans-46"/>
       <use x="95.410156" xlink:href="#DejaVuSans-49"/>
      </g>
     </g>
    </g>
    <g id="ytick_3">
     <g id="line2d_12">
      <g>
       <use style="stroke:#000000;stroke-width:0.8;" x="43.78125" xlink:href="#mc2cd6bd6b2" y="165.84245"/>
      </g>
     </g>
     <g id="text_13">
      <!-- 0.2 -->
      <g transform="translate(20.878125 169.641669)scale(0.1 -0.1)">
       <use xlink:href="#DejaVuSans-48"/>
       <use x="63.623047" xlink:href="#DejaVuSans-46"/>
       <use x="95.410156" xlink:href="#DejaVuSans-50"/>
      </g>
     </g>
    </g>
    <g id="ytick_4">
     <g id="line2d_13">
      <g>
       <use style="stroke:#000000;stroke-width:0.8;" x="43.78125" xlink:href="#mc2cd6bd6b2" y="140.629093"/>
      </g>
     </g>
     <g id="text_14">
      <!-- 0.3 -->
      <g transform="translate(20.878125 144.428312)scale(0.1 -0.1)">
       <defs>
        <path d="M 40.578125 39.3125 
Q 47.65625 37.796875 51.625 33 
Q 55.609375 28.21875 55.609375 21.1875 
Q 55.609375 10.40625 48.1875 4.484375 
Q 40.765625 -1.421875 27.09375 -1.421875 
Q 22.515625 -1.421875 17.65625 -0.515625 
Q 12.796875 0.390625 7.625 2.203125 
L 7.625 11.71875 
Q 11.71875 9.328125 16.59375 8.109375 
Q 21.484375 6.890625 26.8125 6.890625 
Q 36.078125 6.890625 40.9375 10.546875 
Q 45.796875 14.203125 45.796875 21.1875 
Q 45.796875 27.640625 41.28125 31.265625 
Q 36.765625 34.90625 28.71875 34.90625 
L 20.21875 34.90625 
L 20.21875 43.015625 
L 29.109375 43.015625 
Q 36.375 43.015625 40.234375 45.921875 
Q 44.09375 48.828125 44.09375 54.296875 
Q 44.09375 59.90625 40.109375 62.90625 
Q 36.140625 65.921875 28.71875 65.921875 
Q 24.65625 65.921875 20.015625 65.03125 
Q 15.375 64.15625 9.8125 62.3125 
L 9.8125 71.09375 
Q 15.4375 72.65625 20.34375 73.4375 
Q 25.25 74.21875 29.59375 74.21875 
Q 40.828125 74.21875 47.359375 69.109375 
Q 53.90625 64.015625 53.90625 55.328125 
Q 53.90625 49.265625 50.4375 45.09375 
Q 46.96875 40.921875 40.578125 39.3125 
z
" id="DejaVuSans-51"/>
       </defs>
       <use xlink:href="#DejaVuSans-48"/>
       <use x="63.623047" xlink:href="#DejaVuSans-46"/>
       <use x="95.410156" xlink:href="#DejaVuSans-51"/>
      </g>
     </g>
    </g>
    <g id="ytick_5">
     <g id="line2d_14">
      <g>
       <use style="stroke:#000000;stroke-width:0.8;" x="43.78125" xlink:href="#mc2cd6bd6b2" y="115.415736"/>
      </g>
     </g>
     <g id="text_15">
      <!-- 0.4 -->
      <g transform="translate(20.878125 119.214954)scale(0.1 -0.1)">
       <defs>
        <path d="M 37.796875 64.3125 
L 12.890625 25.390625 
L 37.796875 25.390625 
z
M 35.203125 72.90625 
L 47.609375 72.90625 
L 47.609375 25.390625 
L 58.015625 25.390625 
L 58.015625 17.1875 
L 47.609375 17.1875 
L 47.609375 0 
L 37.796875 0 
L 37.796875 17.1875 
L 4.890625 17.1875 
L 4.890625 26.703125 
z
" id="DejaVuSans-52"/>
       </defs>
       <use xlink:href="#DejaVuSans-48"/>
       <use x="63.623047" xlink:href="#DejaVuSans-46"/>
       <use x="95.410156" xlink:href="#DejaVuSans-52"/>
      </g>
     </g>
    </g>
    <g id="ytick_6">
     <g id="line2d_15">
      <g>
       <use style="stroke:#000000;stroke-width:0.8;" x="43.78125" xlink:href="#mc2cd6bd6b2" y="90.202378"/>
      </g>
     </g>
     <g id="text_16">
      <!-- 0.5 -->
      <g transform="translate(20.878125 94.001597)scale(0.1 -0.1)">
       <use xlink:href="#DejaVuSans-48"/>
       <use x="63.623047" xlink:href="#DejaVuSans-46"/>
       <use x="95.410156" xlink:href="#DejaVuSans-53"/>
      </g>
     </g>
    </g>
    <g id="ytick_7">
     <g id="line2d_16">
      <g>
       <use style="stroke:#000000;stroke-width:0.8;" x="43.78125" xlink:href="#mc2cd6bd6b2" y="64.989021"/>
      </g>
     </g>
     <g id="text_17">
      <!-- 0.6 -->
      <g transform="translate(20.878125 68.78824)scale(0.1 -0.1)">
       <defs>
        <path d="M 33.015625 40.375 
Q 26.375 40.375 22.484375 35.828125 
Q 18.609375 31.296875 18.609375 23.390625 
Q 18.609375 15.53125 22.484375 10.953125 
Q 26.375 6.390625 33.015625 6.390625 
Q 39.65625 6.390625 43.53125 10.953125 
Q 47.40625 15.53125 47.40625 23.390625 
Q 47.40625 31.296875 43.53125 35.828125 
Q 39.65625 40.375 33.015625 40.375 
z
M 52.59375 71.296875 
L 52.59375 62.3125 
Q 48.875 64.0625 45.09375 64.984375 
Q 41.3125 65.921875 37.59375 65.921875 
Q 27.828125 65.921875 22.671875 59.328125 
Q 17.53125 52.734375 16.796875 39.40625 
Q 19.671875 43.65625 24.015625 45.921875 
Q 28.375 48.1875 33.59375 48.1875 
Q 44.578125 48.1875 50.953125 41.515625 
Q 57.328125 34.859375 57.328125 23.390625 
Q 57.328125 12.15625 50.6875 5.359375 
Q 44.046875 -1.421875 33.015625 -1.421875 
Q 20.359375 -1.421875 13.671875 8.265625 
Q 6.984375 17.96875 6.984375 36.375 
Q 6.984375 53.65625 15.1875 63.9375 
Q 23.390625 74.21875 37.203125 74.21875 
Q 40.921875 74.21875 44.703125 73.484375 
Q 48.484375 72.75 52.59375 71.296875 
z
" id="DejaVuSans-54"/>
       </defs>
       <use xlink:href="#DejaVuSans-48"/>
       <use x="63.623047" xlink:href="#DejaVuSans-46"/>
       <use x="95.410156" xlink:href="#DejaVuSans-54"/>
      </g>
     </g>
    </g>
    <g id="ytick_8">
     <g id="line2d_17">
      <g>
       <use style="stroke:#000000;stroke-width:0.8;" x="43.78125" xlink:href="#mc2cd6bd6b2" y="39.775663"/>
      </g>
     </g>
     <g id="text_18">
      <!-- 0.7 -->
      <g transform="translate(20.878125 43.574882)scale(0.1 -0.1)">
       <use xlink:href="#DejaVuSans-48"/>
       <use x="63.623047" xlink:href="#DejaVuSans-46"/>
       <use x="95.410156" xlink:href="#DejaVuSans-55"/>
      </g>
     </g>
    </g>
    <g id="ytick_9">
     <g id="line2d_18">
      <g>
       <use style="stroke:#000000;stroke-width:0.8;" x="43.78125" xlink:href="#mc2cd6bd6b2" y="14.562306"/>
      </g>
     </g>
     <g id="text_19">
      <!-- 0.8 -->
      <g transform="translate(20.878125 18.361525)scale(0.1 -0.1)">
       <defs>
        <path d="M 31.78125 34.625 
Q 24.75 34.625 20.71875 30.859375 
Q 16.703125 27.09375 16.703125 20.515625 
Q 16.703125 13.921875 20.71875 10.15625 
Q 24.75 6.390625 31.78125 6.390625 
Q 38.8125 6.390625 42.859375 10.171875 
Q 46.921875 13.96875 46.921875 20.515625 
Q 46.921875 27.09375 42.890625 30.859375 
Q 38.875 34.625 31.78125 34.625 
z
M 21.921875 38.8125 
Q 15.578125 40.375 12.03125 44.71875 
Q 8.5 49.078125 8.5 55.328125 
Q 8.5 64.0625 14.71875 69.140625 
Q 20.953125 74.21875 31.78125 74.21875 
Q 42.671875 74.21875 48.875 69.140625 
Q 55.078125 64.0625 55.078125 55.328125 
Q 55.078125 49.078125 51.53125 44.71875 
Q 48 40.375 41.703125 38.8125 
Q 48.828125 37.15625 52.796875 32.3125 
Q 56.78125 27.484375 56.78125 20.515625 
Q 56.78125 9.90625 50.3125 4.234375 
Q 43.84375 -1.421875 31.78125 -1.421875 
Q 19.734375 -1.421875 13.25 4.234375 
Q 6.78125 9.90625 6.78125 20.515625 
Q 6.78125 27.484375 10.78125 32.3125 
Q 14.796875 37.15625 21.921875 38.8125 
z
M 18.3125 54.390625 
Q 18.3125 48.734375 21.84375 45.5625 
Q 25.390625 42.390625 31.78125 42.390625 
Q 38.140625 42.390625 41.71875 45.5625 
Q 45.3125 48.734375 45.3125 54.390625 
Q 45.3125 60.0625 41.71875 63.234375 
Q 38.140625 66.40625 31.78125 66.40625 
Q 25.390625 66.40625 21.84375 63.234375 
Q 18.3125 60.0625 18.3125 54.390625 
z
" id="DejaVuSans-56"/>
       </defs>
       <use xlink:href="#DejaVuSans-48"/>
       <use x="63.623047" xlink:href="#DejaVuSans-46"/>
       <use x="95.410156" xlink:href="#DejaVuSans-56"/>
      </g>
     </g>
    </g>
    <g id="text_20">
     <!-- score -->
     <g transform="translate(14.798438 129.352812)rotate(-90)scale(0.1 -0.1)">
      <defs>
       <path d="M 44.28125 53.078125 
L 44.28125 44.578125 
Q 40.484375 46.53125 36.375 47.5 
Q 32.28125 48.484375 27.875 48.484375 
Q 21.1875 48.484375 17.84375 46.4375 
Q 14.5 44.390625 14.5 40.28125 
Q 14.5 37.15625 16.890625 35.375 
Q 19.28125 33.59375 26.515625 31.984375 
L 29.59375 31.296875 
Q 39.15625 29.25 43.1875 25.515625 
Q 47.21875 21.78125 47.21875 15.09375 
Q 47.21875 7.46875 41.1875 3.015625 
Q 35.15625 -1.421875 24.609375 -1.421875 
Q 20.21875 -1.421875 15.453125 -0.5625 
Q 10.6875 0.296875 5.421875 2 
L 5.421875 11.28125 
Q 10.40625 8.6875 15.234375 7.390625 
Q 20.0625 6.109375 24.8125 6.109375 
Q 31.15625 6.109375 34.5625 8.28125 
Q 37.984375 10.453125 37.984375 14.40625 
Q 37.984375 18.0625 35.515625 20.015625 
Q 33.0625 21.96875 24.703125 23.78125 
L 21.578125 24.515625 
Q 13.234375 26.265625 9.515625 29.90625 
Q 5.8125 33.546875 5.8125 39.890625 
Q 5.8125 47.609375 11.28125 51.796875 
Q 16.75 56 26.8125 56 
Q 31.78125 56 36.171875 55.265625 
Q 40.578125 54.546875 44.28125 53.078125 
z
" id="DejaVuSans-115"/>
       <path d="M 41.109375 46.296875 
Q 39.59375 47.171875 37.8125 47.578125 
Q 36.03125 48 33.890625 48 
Q 26.265625 48 22.1875 43.046875 
Q 18.109375 38.09375 18.109375 28.8125 
L 18.109375 0 
L 9.078125 0 
L 9.078125 54.6875 
L 18.109375 54.6875 
L 18.109375 46.1875 
Q 20.953125 51.171875 25.484375 53.578125 
Q 30.03125 56 36.53125 56 
Q 37.453125 56 38.578125 55.875 
Q 39.703125 55.765625 41.0625 55.515625 
z
" id="DejaVuSans-114"/>
      </defs>
      <use xlink:href="#DejaVuSans-115"/>
      <use x="52.099609" xlink:href="#DejaVuSans-99"/>
      <use x="107.080078" xlink:href="#DejaVuSans-111"/>
      <use x="168.261719" xlink:href="#DejaVuSans-114"/>
      <use x="207.125" xlink:href="#DejaVuSans-101"/>
     </g>
    </g>
   </g>
   <g id="line2d_19">
    <path clip-path="url(#pe6a7b39764)" d="M 58.999432 149.705899 
L 60.528897 160.29551 
L 62.058363 125.501076 
L 63.587828 121.466937 
L 65.117294 88.689571 
L 66.646759 84.151168 
L 68.176225 78.604228 
L 69.70569 80.117024 
L 71.235156 85.663969 
L 72.764621 86.672504 
L 74.294087 80.621297 
L 75.823552 92.219442 
L 77.353018 87.681042 
L 78.882483 89.69811 
L 81.941414 78.604225 
L 83.47088 80.621298 
L 85.000345 87.176772 
L 86.529811 71.040227 
L 88.059276 79.612768 
L 89.588742 83.14263 
L 91.118208 78.604228 
L 92.647673 75.074356 
L 94.177139 71.040221 
L 95.706604 82.638365 
L 97.23607 80.621298 
L 98.765535 75.074357 
L 100.295001 70.535954 
L 101.824466 80.117028 
L 103.353932 62.467678 
L 104.883397 67.006084 
L 106.412863 65.493281 
L 107.942328 62.46768 
L 109.471794 65.997545 
L 111.001259 81.629831 
L 112.530725 58.937807 
L 114.06019 63.476218 
L 115.589656 76.587166 
L 117.119121 51.878069 
L 118.648587 62.971945 
L 120.178052 86.168236 
L 121.707518 55.912209 
L 123.236983 45.322594 
L 124.766449 61.963409 
L 126.295914 73.56155 
L 127.82538 52.382336 
L 129.354845 52.886603 
L 130.884311 63.476209 
L 132.413776 36.750051 
L 133.943242 46.835397 
L 135.472707 47.339662 
L 137.002173 46.835394 
L 138.531638 65.493281 
L 140.061104 36.245791 
L 141.590569 31.203115 
L 143.120035 72.553025 
L 144.6495 58.937806 
L 146.178966 42.296994 
L 147.708431 28.681782 
L 149.237897 29.186045 
L 150.767362 52.382336 
L 152.296828 27.673251 
L 153.826293 22.126297 
L 155.355759 30.194582 
L 156.885224 46.331127 
L 158.41469 60.450613 
L 159.944155 26.664709 
L 161.473621 22.630576 
L 163.003086 35.741521 
L 164.532552 24.143373 
L 166.062017 32.211651 
L 167.591483 25.151915 
L 169.120948 38.262857 
L 170.650414 38.26286 
L 172.17988 30.194579 
L 173.709345 24.647648 
L 175.238811 30.698854 
L 176.768276 26.160445 
L 178.297742 19.100706 
L 179.827207 27.168979 
L 181.356673 36.245794 
L 182.886138 46.33113 
L 184.415604 67.510357 
L 185.945069 33.220185 
L 187.474535 64.989019 
L 189.004 36.750051 
L 190.533466 23.134851 
L 192.062931 22.630582 
L 193.592397 24.143367 
L 195.121862 21.117773 
L 196.651328 30.194582 
L 198.180793 20.613503 
L 199.710259 25.151909 
L 201.239724 22.630576 
L 202.76919 24.143379 
L 204.298655 22.63057 
L 205.828121 20.109242 
L 207.357586 25.656182 
L 208.887052 20.109233 
L 211.945983 29.186051 
L 213.475448 20.109239 
L 215.004914 25.151915 
L 216.534379 18.596439 
L 218.063845 33.220188 
L 219.59331 20.613509 
L 221.122776 32.715918 
L 222.652241 25.656179 
L 224.181707 24.143379 
L 225.711172 24.143376 
L 227.240638 25.151903 
L 228.770103 35.237254 
L 230.299569 19.60497 
L 231.829034 18.092167 
L 233.3585 20.613509 
L 234.887965 23.639103 
L 236.417431 18.596442 
L 237.946896 20.109239 
L 239.476362 23.134848 
L 241.005827 20.6135 
L 242.535293 22.126309 
L 244.064758 26.160448 
L 245.594224 22.126306 
L 247.123689 19.604973 
L 248.653155 17.587891 
L 250.18262 20.6135 
L 251.712086 17.083636 
L 253.241552 21.117773 
L 254.771017 17.587897 
L 256.300483 20.109239 
L 257.829948 21.117776 
L 259.359414 20.613503 
L 260.888879 21.117776 
L 262.418345 19.100697 
L 263.94781 20.109239 
L 265.477276 21.622045 
L 267.006741 19.1007 
L 270.065672 20.109239 
L 271.595138 21.117773 
L 273.124603 20.613506 
L 274.654069 20.6135 
L 276.183534 19.604964 
L 277.713 18.092167 
L 279.242465 17.587906 
L 280.771931 20.613506 
L 282.301396 18.59643 
L 283.830862 21.117767 
L 285.360327 20.109239 
L 286.889793 19.60497 
L 288.419258 20.613503 
L 289.948724 21.117773 
L 291.478189 20.613506 
L 293.007655 23.134836 
L 294.53712 18.596433 
L 296.066586 22.630567 
L 297.596051 23.639103 
L 299.125517 19.60497 
L 302.184448 20.613506 
L 305.243379 19.604967 
L 306.772844 19.604961 
L 308.30231 20.109236 
L 309.831775 19.604973 
L 311.361241 19.60497 
L 312.890706 20.109236 
L 314.420172 19.100703 
L 315.949637 20.109239 
L 317.479103 19.604973 
L 319.008568 19.60497 
L 320.538034 22.630573 
L 322.067499 19.604973 
L 323.596965 19.604976 
L 325.12643 20.613509 
L 326.655896 20.613503 
L 329.714827 19.604973 
L 331.244292 20.613503 
L 332.773758 23.134836 
L 334.303224 22.126306 
L 335.832689 22.126309 
L 337.362155 20.613506 
L 338.89162 19.60497 
L 340.421086 20.613506 
L 341.950551 21.117776 
L 343.480017 18.596436 
L 345.009482 21.117776 
L 346.538948 18.59643 
L 348.068413 18.596439 
L 349.597879 22.126303 
L 351.127344 18.596442 
L 352.65681 19.1007 
L 354.186275 20.109233 
L 355.715741 20.613506 
L 357.245206 21.622045 
L 358.774672 19.60497 
L 360.304137 21.11777 
L 361.833603 18.596439 
L 363.363068 19.60497 
L 363.363068 19.60497 
" style="fill:none;stroke:#1f77b4;stroke-linecap:square;stroke-width:1.5;"/>
   </g>
   <g id="line2d_20">
    <path clip-path="url(#pe6a7b39764)" d="M 58.999432 214.756364 
L 60.528897 209.209425 
L 62.058363 204.166753 
L 63.587828 209.209425 
L 65.117294 213.243562 
L 66.646759 198.115547 
L 68.176225 197.107013 
L 69.70569 178.953395 
L 71.235156 194.08141 
L 72.764621 202.149684 
L 74.294087 213.243562 
L 75.823552 198.619814 
L 77.353018 187.02167 
L 78.882483 197.611279 
L 80.411949 191.560074 
L 81.941414 181.474732 
L 83.47088 153.740039 
L 85.000345 190.047273 
L 86.529811 175.927793 
L 88.059276 158.782709 
L 89.588742 154.748574 
L 91.118208 117.432802 
L 92.647673 131.048014 
L 94.177139 107.347458 
L 95.706604 104.321854 
L 97.23607 97.262115 
L 98.765535 126.005339 
L 100.295001 114.911463 
L 101.824466 84.655433 
L 103.353932 87.176772 
L 104.883397 115.415731 
L 106.412863 94.740778 
L 107.942328 77.595698 
L 109.471794 75.578628 
L 111.001259 78.604228 
L 112.530725 67.510348 
L 114.06019 81.125566 
L 115.589656 61.459142 
L 117.119121 74.06583 
L 118.648587 82.134103 
L 120.178052 88.689571 
L 121.707518 89.19384 
L 123.236983 75.578625 
L 124.766449 50.869536 
L 126.295914 66.501819 
L 127.82538 61.459145 
L 129.354845 49.356739 
L 130.884311 62.467681 
L 132.413776 64.484747 
L 133.943242 53.390869 
L 135.472707 52.886607 
L 137.002173 50.869536 
L 138.531638 50.869542 
L 140.061104 75.07436 
L 141.590569 65.493284 
L 143.120035 70.031684 
L 144.6495 55.407936 
L 146.178966 45.322597 
L 147.708431 60.954881 
L 149.237897 52.8866 
L 150.767362 67.006081 
L 152.296828 48.852463 
L 153.826293 70.03169 
L 155.355759 55.407939 
L 156.885224 51.878072 
L 158.41469 39.77566 
L 159.944155 58.433536 
L 161.473621 40.279921 
L 163.003086 63.476216 
L 164.532552 47.843933 
L 166.062017 39.271394 
L 167.591483 64.484748 
L 169.120948 46.331133 
L 170.650414 41.288463 
L 172.17988 50.869533 
L 173.709345 42.296997 
L 175.238811 41.79273 
L 176.768276 44.818333 
L 178.297742 39.775657 
L 179.827207 44.314069 
L 181.356673 41.28846 
L 182.886138 39.271394 
L 184.415604 44.81833 
L 185.945069 43.30553 
L 187.474535 49.35673 
L 189.004 38.262854 
L 190.533466 41.28846 
L 192.062931 40.279924 
L 193.592397 41.792727 
L 195.121862 40.279927 
L 196.651328 40.784191 
L 198.180793 43.30553 
L 199.710259 42.297 
L 201.239724 42.801269 
L 202.76919 41.792727 
L 204.298655 44.314063 
L 205.828121 39.271397 
L 207.357586 40.279927 
L 208.887052 41.792727 
L 210.416517 41.28846 
L 211.945983 42.296994 
L 213.475448 41.288457 
L 215.004914 36.750057 
L 218.063845 40.784194 
L 219.59331 42.296994 
L 221.122776 39.775663 
L 222.652241 42.297 
L 224.181707 38.262854 
L 225.711172 40.784191 
L 227.240638 41.79273 
L 228.770103 41.792727 
L 230.299569 38.767127 
L 231.829034 38.76713 
L 233.3585 43.809797 
L 234.887965 40.784197 
L 236.417431 38.262857 
L 237.946896 38.262857 
L 239.476362 43.305527 
L 241.005827 40.784194 
L 242.535293 39.271391 
L 244.064758 41.792727 
L 245.594224 42.297 
L 247.123689 42.296991 
L 250.18262 41.288457 
L 251.712086 43.305524 
L 253.241552 40.784194 
L 254.771017 42.801263 
L 256.300483 41.28846 
L 257.829948 42.80126 
L 259.359414 44.818333 
L 260.888879 38.262851 
L 262.418345 41.792721 
L 263.94781 41.792727 
L 265.477276 47.339669 
L 267.006741 40.784197 
L 268.536207 39.271397 
L 270.065672 42.801263 
L 271.595138 39.271391 
L 273.124603 41.28846 
L 274.654069 40.784197 
L 276.183534 42.296991 
L 277.713 44.818327 
L 279.242465 39.77566 
L 280.771931 43.30553 
L 282.301396 39.77566 
L 283.830862 41.792727 
L 285.360327 42.296994 
L 286.889793 45.322597 
L 288.419258 40.279921 
L 289.948724 42.296997 
L 291.478189 40.784188 
L 293.007655 43.809791 
L 294.53712 40.784197 
L 296.066586 40.279927 
L 297.596051 40.27993 
L 299.125517 42.296994 
L 300.654982 42.801263 
L 302.184448 41.288457 
L 303.713913 41.792724 
L 306.772844 41.792727 
L 308.30231 42.296991 
L 309.831775 41.79273 
L 311.361241 40.279924 
L 312.890706 40.784197 
L 314.420172 41.79273 
L 315.949637 41.288463 
L 317.479103 41.792733 
L 320.538034 41.792727 
L 322.067499 41.288457 
L 323.596965 43.305527 
L 325.12643 40.279921 
L 326.655896 39.775657 
L 328.185361 40.784194 
L 329.714827 43.30553 
L 331.244292 43.305527 
L 332.773758 42.296991 
L 334.303224 43.305527 
L 335.832689 41.288463 
L 337.362155 43.809797 
L 338.89162 42.801263 
L 340.421086 44.31406 
L 341.950551 41.28846 
L 345.009482 41.28846 
L 346.538948 43.30553 
L 348.068413 42.801263 
L 349.597879 41.792727 
L 351.127344 43.305524 
L 352.65681 41.792724 
L 354.186275 42.296994 
L 355.715741 43.8098 
L 357.245206 43.809791 
L 358.774672 42.801263 
L 360.304137 40.784194 
L 361.833603 46.331133 
L 363.363068 41.288463 
L 363.363068 41.288463 
" style="fill:none;stroke:#ff7f0e;stroke-linecap:square;stroke-width:1.5;"/>
   </g>
   <g id="line2d_21">
    <path clip-path="url(#pe6a7b39764)" d="M 58.999432 132.056551 
L 60.528897 124.996808 
L 62.058363 87.176775 
L 63.587828 98.270643 
L 65.117294 92.219445 
L 66.646759 92.21944 
L 68.176225 76.587153 
L 69.70569 89.698109 
L 71.235156 76.082891 
L 72.764621 84.655436 
L 74.294087 75.074359 
L 75.823552 75.074353 
L 77.353018 67.510347 
L 78.882483 78.604225 
L 80.411949 74.065825 
L 81.941414 83.6469 
L 83.47088 80.6213 
L 85.000345 78.604233 
L 86.529811 83.142633 
L 88.059276 70.535956 
L 89.588742 75.578624 
L 91.118208 76.587162 
L 92.647673 71.544487 
L 94.177139 79.612762 
L 95.706604 72.048757 
L 97.23607 83.142636 
L 98.765535 74.065815 
L 100.295001 80.117027 
L 101.824466 78.09996 
L 103.353932 84.15116 
L 104.883397 79.108497 
L 106.412863 66.501815 
L 107.942328 85.159695 
L 109.471794 84.151169 
L 111.001259 70.535954 
L 112.530725 86.168236 
L 114.06019 63.980478 
L 115.589656 89.698106 
L 117.119121 79.61276 
L 118.648587 73.057289 
L 120.178052 82.134097 
L 121.707518 70.031687 
L 123.236983 56.416475 
L 124.766449 69.023153 
L 126.295914 68.518881 
L 127.82538 75.074359 
L 129.354845 71.544484 
L 130.884311 57.929275 
L 132.413776 82.638369 
L 133.943242 71.040218 
L 135.472707 81.629833 
L 137.002173 69.02315 
L 138.531638 61.459142 
L 140.061104 72.553019 
L 141.590569 73.057292 
L 143.120035 70.535951 
L 144.6495 77.595692 
L 146.178966 59.946344 
L 147.708431 77.595698 
L 149.237897 59.442075 
L 150.767362 67.510347 
L 152.296828 51.878066 
L 153.826293 53.390866 
L 155.355759 52.382336 
L 156.885224 55.407936 
L 158.41469 54.903672 
L 159.944155 39.775654 
L 161.473621 48.348197 
L 163.003086 47.339672 
L 164.532552 51.878069 
L 166.062017 54.399403 
L 167.591483 41.79273 
L 169.120948 49.356733 
L 170.650414 53.895139 
L 172.17988 40.279924 
L 173.709345 33.220188 
L 175.238811 35.237248 
L 176.768276 45.322597 
L 178.297742 50.365269 
L 179.827207 43.305527 
L 181.356673 46.8354 
L 182.886138 44.818327 
L 184.415604 38.26286 
L 185.945069 41.288457 
L 187.474535 38.767121 
L 189.004 42.296991 
L 190.533466 34.732979 
L 192.062931 33.724448 
L 193.592397 32.211654 
L 195.121862 34.732988 
L 196.651328 34.732991 
L 198.180793 36.245785 
L 199.710259 34.732985 
L 201.239724 30.698848 
L 202.76919 35.741515 
L 204.298655 29.186045 
L 205.828121 34.228721 
L 207.357586 29.186048 
L 208.887052 35.237254 
L 210.416517 30.194576 
L 211.945983 24.143376 
L 213.475448 24.647642 
L 215.004914 30.698854 
L 216.534379 28.177512 
L 218.063845 27.168985 
L 219.59331 35.237254 
L 221.122776 29.690318 
L 222.652241 26.664718 
L 224.181707 25.151915 
L 225.711172 26.664712 
L 227.240638 24.143376 
L 228.770103 25.656179 
L 230.299569 24.143373 
L 231.829034 20.109233 
L 233.3585 24.14337 
L 234.887965 24.647639 
L 236.417431 22.630576 
L 237.946896 22.63057 
L 239.476362 25.151903 
L 241.005827 23.639106 
L 242.535293 27.168982 
L 244.064758 23.134845 
L 245.594224 26.664709 
L 247.123689 23.134836 
L 250.18262 23.134845 
L 251.712086 25.151906 
L 253.241552 25.151909 
L 254.771017 25.656176 
L 256.300483 29.690312 
L 257.829948 22.63057 
L 259.359414 23.639106 
L 260.888879 23.639106 
L 262.418345 23.134848 
L 263.94781 26.664715 
L 265.477276 22.630576 
L 267.006741 24.143373 
L 268.536207 23.134842 
L 270.065672 26.664712 
L 271.595138 24.647642 
L 273.124603 22.126297 
L 274.654069 25.151915 
L 276.183534 23.134836 
L 277.713 22.630573 
L 279.242465 28.177512 
L 280.771931 24.14337 
L 282.301396 22.630576 
L 283.830862 25.656179 
L 285.360327 24.143379 
L 286.889793 23.134839 
L 288.419258 25.151912 
L 289.948724 23.134842 
L 291.478189 23.639103 
L 293.007655 23.134842 
L 294.53712 24.143376 
L 296.066586 23.639106 
L 297.596051 22.630573 
L 299.125517 24.647642 
L 300.654982 23.134842 
L 302.184448 24.647636 
L 303.713913 23.639109 
L 306.772844 25.65617 
L 308.30231 24.143364 
L 309.831775 23.134842 
L 311.361241 24.647636 
L 312.890706 78.604227 
L 314.420172 83.142631 
L 315.949637 81.125562 
L 317.479103 58.937812 
L 319.008568 57.929278 
L 320.538034 75.074357 
L 322.067499 54.399406 
L 323.596965 38.767127 
L 325.12643 41.28846 
L 326.655896 37.758588 
L 328.185361 50.869533 
L 329.714827 49.356733 
L 331.244292 33.724451 
L 332.773758 39.775654 
L 334.303224 33.724451 
L 335.832689 37.254324 
L 337.362155 39.775654 
L 338.89162 35.237254 
L 340.421086 35.741524 
L 341.950551 34.228718 
L 343.480017 38.767124 
L 345.009482 35.741521 
L 346.538948 31.203118 
L 348.068413 31.707379 
L 349.597879 29.690312 
L 351.127344 31.707382 
L 352.65681 30.194576 
L 354.186275 31.203115 
L 355.715741 26.664706 
L 357.245206 30.194579 
L 358.774672 29.186045 
L 360.304137 31.707379 
L 361.833603 30.698848 
L 363.363068 31.203118 
L 363.363068 31.203118 
" style="fill:none;stroke:#2ca02c;stroke-linecap:square;stroke-width:1.5;"/>
   </g>
   <g id="patch_3">
    <path d="M 43.78125 224.64 
L 43.78125 7.2 
" style="fill:none;stroke:#000000;stroke-linecap:square;stroke-linejoin:miter;stroke-width:0.8;"/>
   </g>
   <g id="patch_4">
    <path d="M 378.58125 224.64 
L 378.58125 7.2 
" style="fill:none;stroke:#000000;stroke-linecap:square;stroke-linejoin:miter;stroke-width:0.8;"/>
   </g>
   <g id="patch_5">
    <path d="M 43.78125 224.64 
L 378.58125 224.64 
" style="fill:none;stroke:#000000;stroke-linecap:square;stroke-linejoin:miter;stroke-width:0.8;"/>
   </g>
   <g id="patch_6">
    <path d="M 43.78125 7.2 
L 378.58125 7.2 
" style="fill:none;stroke:#000000;stroke-linecap:square;stroke-linejoin:miter;stroke-width:0.8;"/>
   </g>
   <g id="legend_1">
    <g id="patch_7">
     <path d="M 50.78125 60.06875 
L 194.371875 60.06875 
Q 196.371875 60.06875 196.371875 58.06875 
L 196.371875 14.2 
Q 196.371875 12.2 194.371875 12.2 
L 50.78125 12.2 
Q 48.78125 12.2 48.78125 14.2 
L 48.78125 58.06875 
Q 48.78125 60.06875 50.78125 60.06875 
z
" style="fill:#ffffff;opacity:0.8;stroke:#cccccc;stroke-linejoin:miter;"/>
    </g>
    <g id="line2d_22">
     <path d="M 52.78125 20.298437 
L 72.78125 20.298437 
" style="fill:none;stroke:#1f77b4;stroke-linecap:square;stroke-width:1.5;"/>
    </g>
    <g id="line2d_23"/>
    <g id="text_21">
     <!-- unet_bce_score_val -->
     <g transform="translate(80.78125 23.798437)scale(0.1 -0.1)">
      <defs>
       <path d="M 8.5 21.578125 
L 8.5 54.6875 
L 17.484375 54.6875 
L 17.484375 21.921875 
Q 17.484375 14.15625 20.5 10.265625 
Q 23.53125 6.390625 29.59375 6.390625 
Q 36.859375 6.390625 41.078125 11.03125 
Q 45.3125 15.671875 45.3125 23.6875 
L 45.3125 54.6875 
L 54.296875 54.6875 
L 54.296875 0 
L 45.3125 0 
L 45.3125 8.40625 
Q 42.046875 3.421875 37.71875 1 
Q 33.40625 -1.421875 27.6875 -1.421875 
Q 18.265625 -1.421875 13.375 4.4375 
Q 8.5 10.296875 8.5 21.578125 
z
M 31.109375 56 
z
" id="DejaVuSans-117"/>
       <path d="M 54.890625 33.015625 
L 54.890625 0 
L 45.90625 0 
L 45.90625 32.71875 
Q 45.90625 40.484375 42.875 44.328125 
Q 39.84375 48.1875 33.796875 48.1875 
Q 26.515625 48.1875 22.3125 43.546875 
Q 18.109375 38.921875 18.109375 30.90625 
L 18.109375 0 
L 9.078125 0 
L 9.078125 54.6875 
L 18.109375 54.6875 
L 18.109375 46.1875 
Q 21.34375 51.125 25.703125 53.5625 
Q 30.078125 56 35.796875 56 
Q 45.21875 56 50.046875 50.171875 
Q 54.890625 44.34375 54.890625 33.015625 
z
" id="DejaVuSans-110"/>
       <path d="M 18.3125 70.21875 
L 18.3125 54.6875 
L 36.8125 54.6875 
L 36.8125 47.703125 
L 18.3125 47.703125 
L 18.3125 18.015625 
Q 18.3125 11.328125 20.140625 9.421875 
Q 21.96875 7.515625 27.59375 7.515625 
L 36.8125 7.515625 
L 36.8125 0 
L 27.59375 0 
Q 17.1875 0 13.234375 3.875 
Q 9.28125 7.765625 9.28125 18.015625 
L 9.28125 47.703125 
L 2.6875 47.703125 
L 2.6875 54.6875 
L 9.28125 54.6875 
L 9.28125 70.21875 
z
" id="DejaVuSans-116"/>
       <path d="M 50.984375 -16.609375 
L 50.984375 -23.578125 
L -0.984375 -23.578125 
L -0.984375 -16.609375 
z
" id="DejaVuSans-95"/>
       <path d="M 48.6875 27.296875 
Q 48.6875 37.203125 44.609375 42.84375 
Q 40.53125 48.484375 33.40625 48.484375 
Q 26.265625 48.484375 22.1875 42.84375 
Q 18.109375 37.203125 18.109375 27.296875 
Q 18.109375 17.390625 22.1875 11.75 
Q 26.265625 6.109375 33.40625 6.109375 
Q 40.53125 6.109375 44.609375 11.75 
Q 48.6875 17.390625 48.6875 27.296875 
z
M 18.109375 46.390625 
Q 20.953125 51.265625 25.265625 53.625 
Q 29.59375 56 35.59375 56 
Q 45.5625 56 51.78125 48.09375 
Q 58.015625 40.1875 58.015625 27.296875 
Q 58.015625 14.40625 51.78125 6.484375 
Q 45.5625 -1.421875 35.59375 -1.421875 
Q 29.59375 -1.421875 25.265625 0.953125 
Q 20.953125 3.328125 18.109375 8.203125 
L 18.109375 0 
L 9.078125 0 
L 9.078125 75.984375 
L 18.109375 75.984375 
z
" id="DejaVuSans-98"/>
       <path d="M 2.984375 54.6875 
L 12.5 54.6875 
L 29.59375 8.796875 
L 46.6875 54.6875 
L 56.203125 54.6875 
L 35.6875 0 
L 23.484375 0 
z
" id="DejaVuSans-118"/>
       <path d="M 34.28125 27.484375 
Q 23.390625 27.484375 19.1875 25 
Q 14.984375 22.515625 14.984375 16.5 
Q 14.984375 11.71875 18.140625 8.90625 
Q 21.296875 6.109375 26.703125 6.109375 
Q 34.1875 6.109375 38.703125 11.40625 
Q 43.21875 16.703125 43.21875 25.484375 
L 43.21875 27.484375 
z
M 52.203125 31.203125 
L 52.203125 0 
L 43.21875 0 
L 43.21875 8.296875 
Q 40.140625 3.328125 35.546875 0.953125 
Q 30.953125 -1.421875 24.3125 -1.421875 
Q 15.921875 -1.421875 10.953125 3.296875 
Q 6 8.015625 6 15.921875 
Q 6 25.140625 12.171875 29.828125 
Q 18.359375 34.515625 30.609375 34.515625 
L 43.21875 34.515625 
L 43.21875 35.40625 
Q 43.21875 41.609375 39.140625 45 
Q 35.0625 48.390625 27.6875 48.390625 
Q 23 48.390625 18.546875 47.265625 
Q 14.109375 46.140625 10.015625 43.890625 
L 10.015625 52.203125 
Q 14.9375 54.109375 19.578125 55.046875 
Q 24.21875 56 28.609375 56 
Q 40.484375 56 46.34375 49.84375 
Q 52.203125 43.703125 52.203125 31.203125 
z
" id="DejaVuSans-97"/>
       <path d="M 9.421875 75.984375 
L 18.40625 75.984375 
L 18.40625 0 
L 9.421875 0 
z
" id="DejaVuSans-108"/>
      </defs>
      <use xlink:href="#DejaVuSans-117"/>
      <use x="63.378906" xlink:href="#DejaVuSans-110"/>
      <use x="126.757812" xlink:href="#DejaVuSans-101"/>
      <use x="188.28125" xlink:href="#DejaVuSans-116"/>
      <use x="227.490234" xlink:href="#DejaVuSans-95"/>
      <use x="277.490234" xlink:href="#DejaVuSans-98"/>
      <use x="340.966797" xlink:href="#DejaVuSans-99"/>
      <use x="395.947266" xlink:href="#DejaVuSans-101"/>
      <use x="457.470703" xlink:href="#DejaVuSans-95"/>
      <use x="507.470703" xlink:href="#DejaVuSans-115"/>
      <use x="559.570312" xlink:href="#DejaVuSans-99"/>
      <use x="614.550781" xlink:href="#DejaVuSans-111"/>
      <use x="675.732422" xlink:href="#DejaVuSans-114"/>
      <use x="714.595703" xlink:href="#DejaVuSans-101"/>
      <use x="776.119141" xlink:href="#DejaVuSans-95"/>
      <use x="826.119141" xlink:href="#DejaVuSans-118"/>
      <use x="885.298828" xlink:href="#DejaVuSans-97"/>
      <use x="946.578125" xlink:href="#DejaVuSans-108"/>
     </g>
    </g>
    <g id="line2d_24">
     <path d="M 52.78125 35.254687 
L 72.78125 35.254687 
" style="fill:none;stroke:#ff7f0e;stroke-linecap:square;stroke-width:1.5;"/>
    </g>
    <g id="line2d_25"/>
    <g id="text_22">
     <!-- segnet_dice_score_val -->
     <g transform="translate(80.78125 38.754687)scale(0.1 -0.1)">
      <defs>
       <path d="M 45.40625 27.984375 
Q 45.40625 37.75 41.375 43.109375 
Q 37.359375 48.484375 30.078125 48.484375 
Q 22.859375 48.484375 18.828125 43.109375 
Q 14.796875 37.75 14.796875 27.984375 
Q 14.796875 18.265625 18.828125 12.890625 
Q 22.859375 7.515625 30.078125 7.515625 
Q 37.359375 7.515625 41.375 12.890625 
Q 45.40625 18.265625 45.40625 27.984375 
z
M 54.390625 6.78125 
Q 54.390625 -7.171875 48.1875 -13.984375 
Q 42 -20.796875 29.203125 -20.796875 
Q 24.46875 -20.796875 20.265625 -20.09375 
Q 16.0625 -19.390625 12.109375 -17.921875 
L 12.109375 -9.1875 
Q 16.0625 -11.328125 19.921875 -12.34375 
Q 23.78125 -13.375 27.78125 -13.375 
Q 36.625 -13.375 41.015625 -8.765625 
Q 45.40625 -4.15625 45.40625 5.171875 
L 45.40625 9.625 
Q 42.625 4.78125 38.28125 2.390625 
Q 33.9375 0 27.875 0 
Q 17.828125 0 11.671875 7.65625 
Q 5.515625 15.328125 5.515625 27.984375 
Q 5.515625 40.671875 11.671875 48.328125 
Q 17.828125 56 27.875 56 
Q 33.9375 56 38.28125 53.609375 
Q 42.625 51.21875 45.40625 46.390625 
L 45.40625 54.6875 
L 54.390625 54.6875 
z
" id="DejaVuSans-103"/>
       <path d="M 45.40625 46.390625 
L 45.40625 75.984375 
L 54.390625 75.984375 
L 54.390625 0 
L 45.40625 0 
L 45.40625 8.203125 
Q 42.578125 3.328125 38.25 0.953125 
Q 33.9375 -1.421875 27.875 -1.421875 
Q 17.96875 -1.421875 11.734375 6.484375 
Q 5.515625 14.40625 5.515625 27.296875 
Q 5.515625 40.1875 11.734375 48.09375 
Q 17.96875 56 27.875 56 
Q 33.9375 56 38.25 53.625 
Q 42.578125 51.265625 45.40625 46.390625 
z
M 14.796875 27.296875 
Q 14.796875 17.390625 18.875 11.75 
Q 22.953125 6.109375 30.078125 6.109375 
Q 37.203125 6.109375 41.296875 11.75 
Q 45.40625 17.390625 45.40625 27.296875 
Q 45.40625 37.203125 41.296875 42.84375 
Q 37.203125 48.484375 30.078125 48.484375 
Q 22.953125 48.484375 18.875 42.84375 
Q 14.796875 37.203125 14.796875 27.296875 
z
" id="DejaVuSans-100"/>
       <path d="M 9.421875 54.6875 
L 18.40625 54.6875 
L 18.40625 0 
L 9.421875 0 
z
M 9.421875 75.984375 
L 18.40625 75.984375 
L 18.40625 64.59375 
L 9.421875 64.59375 
z
" id="DejaVuSans-105"/>
      </defs>
      <use xlink:href="#DejaVuSans-115"/>
      <use x="52.099609" xlink:href="#DejaVuSans-101"/>
      <use x="113.623047" xlink:href="#DejaVuSans-103"/>
      <use x="177.099609" xlink:href="#DejaVuSans-110"/>
      <use x="240.478516" xlink:href="#DejaVuSans-101"/>
      <use x="302.001953" xlink:href="#DejaVuSans-116"/>
      <use x="341.210938" xlink:href="#DejaVuSans-95"/>
      <use x="391.210938" xlink:href="#DejaVuSans-100"/>
      <use x="454.6875" xlink:href="#DejaVuSans-105"/>
      <use x="482.470703" xlink:href="#DejaVuSans-99"/>
      <use x="537.451172" xlink:href="#DejaVuSans-101"/>
      <use x="598.974609" xlink:href="#DejaVuSans-95"/>
      <use x="648.974609" xlink:href="#DejaVuSans-115"/>
      <use x="701.074219" xlink:href="#DejaVuSans-99"/>
      <use x="756.054688" xlink:href="#DejaVuSans-111"/>
      <use x="817.236328" xlink:href="#DejaVuSans-114"/>
      <use x="856.099609" xlink:href="#DejaVuSans-101"/>
      <use x="917.623047" xlink:href="#DejaVuSans-95"/>
      <use x="967.623047" xlink:href="#DejaVuSans-118"/>
      <use x="1026.802734" xlink:href="#DejaVuSans-97"/>
      <use x="1088.082031" xlink:href="#DejaVuSans-108"/>
     </g>
    </g>
    <g id="line2d_26">
     <path d="M 52.78125 50.210937 
L 72.78125 50.210937 
" style="fill:none;stroke:#2ca02c;stroke-linecap:square;stroke-width:1.5;"/>
    </g>
    <g id="line2d_27"/>
    <g id="text_23">
     <!-- unet_focal_score_val -->
     <g transform="translate(80.78125 53.710937)scale(0.1 -0.1)">
      <defs>
       <path d="M 37.109375 75.984375 
L 37.109375 68.5 
L 28.515625 68.5 
Q 23.6875 68.5 21.796875 66.546875 
Q 19.921875 64.59375 19.921875 59.515625 
L 19.921875 54.6875 
L 34.71875 54.6875 
L 34.71875 47.703125 
L 19.921875 47.703125 
L 19.921875 0 
L 10.890625 0 
L 10.890625 47.703125 
L 2.296875 47.703125 
L 2.296875 54.6875 
L 10.890625 54.6875 
L 10.890625 58.5 
Q 10.890625 67.625 15.140625 71.796875 
Q 19.390625 75.984375 28.609375 75.984375 
z
" id="DejaVuSans-102"/>
      </defs>
      <use xlink:href="#DejaVuSans-117"/>
      <use x="63.378906" xlink:href="#DejaVuSans-110"/>
      <use x="126.757812" xlink:href="#DejaVuSans-101"/>
      <use x="188.28125" xlink:href="#DejaVuSans-116"/>
      <use x="227.490234" xlink:href="#DejaVuSans-95"/>
      <use x="277.490234" xlink:href="#DejaVuSans-102"/>
      <use x="312.695312" xlink:href="#DejaVuSans-111"/>
      <use x="373.876953" xlink:href="#DejaVuSans-99"/>
      <use x="428.857422" xlink:href="#DejaVuSans-97"/>
      <use x="490.136719" xlink:href="#DejaVuSans-108"/>
      <use x="517.919922" xlink:href="#DejaVuSans-95"/>
      <use x="567.919922" xlink:href="#DejaVuSans-115"/>
      <use x="620.019531" xlink:href="#DejaVuSans-99"/>
      <use x="675" xlink:href="#DejaVuSans-111"/>
      <use x="736.181641" xlink:href="#DejaVuSans-114"/>
      <use x="775.044922" xlink:href="#DejaVuSans-101"/>
      <use x="836.568359" xlink:href="#DejaVuSans-95"/>
      <use x="886.568359" xlink:href="#DejaVuSans-118"/>
      <use x="945.748047" xlink:href="#DejaVuSans-97"/>
      <use x="1007.027344" xlink:href="#DejaVuSans-108"/>
     </g>
    </g>
   </g>
  </g>
 </g>
 <defs>
  <clipPath id="pe6a7b39764">
   <rect height="217.44" width="334.8" x="43.78125" y="7.2"/>
  </clipPath>
 </defs>
</svg>
