<?xml version="1.0" encoding="utf-8" standalone="no"?>
<!DOCTYPE svg PUBLIC "-//W3C//DTD SVG 1.1//EN"
  "http://www.w3.org/Graphics/SVG/1.1/DTD/svg11.dtd">
<!-- Created with matplotlib (https://matplotlib.org/) -->
<svg height="262.19625pt" version="1.1" viewBox="0 0 385.78125 262.19625" width="385.78125pt" xmlns="http://www.w3.org/2000/svg" xmlns:xlink="http://www.w3.org/1999/xlink">
 <metadata>
  <rdf:RDF xmlns:cc="http://creativecommons.org/ns#" xmlns:dc="http://purl.org/dc/elements/1.1/" xmlns:rdf="http://www.w3.org/1999/02/22-rdf-syntax-ns#">
   <cc:Work>
    <dc:type rdf:resource="http://purl.org/dc/dcmitype/StillImage"/>
    <dc:date>2020-12-16T14:55:41.656709</dc:date>
    <dc:format>image/svg+xml</dc:format>
    <dc:creator>
     <cc:Agent>
      <dc:title>Matplotlib v3.3.3, https://matplotlib.org/</dc:title>
     </cc:Agent>
    </dc:creator>
   </cc:Work>
  </rdf:RDF>
 </metadata>
 <defs>
  <style type="text/css">*{stroke-linecap:butt;stroke-linejoin:round;}</style>
 </defs>
 <g id="figure_1">
  <g id="patch_1">
   <path d="M 0 262.19625 
L 385.78125 262.19625 
L 385.78125 0 
L 0 0 
z
" style="fill:none;"/>
  </g>
  <g id="axes_1">
   <g id="patch_2">
    <path d="M 43.78125 224.64 
L 378.58125 224.64 
L 378.58125 7.2 
L 43.78125 7.2 
z
" style="fill:#ffffff;"/>
   </g>
   <g id="matplotlib.axis_1">
    <g id="xtick_1">
     <g id="line2d_1">
      <defs>
       <path d="M 0 0 
L 0 3.5 
" id="m7f375e31ed" style="stroke:#000000;stroke-width:0.8;"/>
      </defs>
      <g>
       <use style="stroke:#000000;stroke-width:0.8;" x="58.999432" xlink:href="#m7f375e31ed" y="224.64"/>
      </g>
     </g>
     <g id="text_1">
      <!-- 0 -->
      <g transform="translate(55.818182 239.238437)scale(0.1 -0.1)">
       <defs>
        <path d="M 31.78125 66.40625 
Q 24.171875 66.40625 20.328125 58.90625 
Q 16.5 51.421875 16.5 36.375 
Q 16.5 21.390625 20.328125 13.890625 
Q 24.171875 6.390625 31.78125 6.390625 
Q 39.453125 6.390625 43.28125 13.890625 
Q 47.125 21.390625 47.125 36.375 
Q 47.125 51.421875 43.28125 58.90625 
Q 39.453125 66.40625 31.78125 66.40625 
z
M 31.78125 74.21875 
Q 44.046875 74.21875 50.515625 64.515625 
Q 56.984375 54.828125 56.984375 36.375 
Q 56.984375 17.96875 50.515625 8.265625 
Q 44.046875 -1.421875 31.78125 -1.421875 
Q 19.53125 -1.421875 13.0625 8.265625 
Q 6.59375 17.96875 6.59375 36.375 
Q 6.59375 54.828125 13.0625 64.515625 
Q 19.53125 74.21875 31.78125 74.21875 
z
" id="DejaVuSans-48"/>
       </defs>
       <use xlink:href="#DejaVuSans-48"/>
      </g>
     </g>
    </g>
    <g id="xtick_2">
     <g id="line2d_2">
      <g>
       <use style="stroke:#000000;stroke-width:0.8;" x="97.23607" xlink:href="#m7f375e31ed" y="224.64"/>
      </g>
     </g>
     <g id="text_2">
      <!-- 25 -->
      <g transform="translate(90.87357 239.238437)scale(0.1 -0.1)">
       <defs>
        <path d="M 19.1875 8.296875 
L 53.609375 8.296875 
L 53.609375 0 
L 7.328125 0 
L 7.328125 8.296875 
Q 12.9375 14.109375 22.625 23.890625 
Q 32.328125 33.6875 34.8125 36.53125 
Q 39.546875 41.84375 41.421875 45.53125 
Q 43.3125 49.21875 43.3125 52.78125 
Q 43.3125 58.59375 39.234375 62.25 
Q 35.15625 65.921875 28.609375 65.921875 
Q 23.96875 65.921875 18.8125 64.3125 
Q 13.671875 62.703125 7.8125 59.421875 
L 7.8125 69.390625 
Q 13.765625 71.78125 18.9375 73 
Q 24.125 74.21875 28.421875 74.21875 
Q 39.75 74.21875 46.484375 68.546875 
Q 53.21875 62.890625 53.21875 53.421875 
Q 53.21875 48.921875 51.53125 44.890625 
Q 49.859375 40.875 45.40625 35.40625 
Q 44.1875 33.984375 37.640625 27.21875 
Q 31.109375 20.453125 19.1875 8.296875 
z
" id="DejaVuSans-50"/>
        <path d="M 10.796875 72.90625 
L 49.515625 72.90625 
L 49.515625 64.59375 
L 19.828125 64.59375 
L 19.828125 46.734375 
Q 21.96875 47.46875 24.109375 47.828125 
Q 26.265625 48.1875 28.421875 48.1875 
Q 40.625 48.1875 47.75 41.5 
Q 54.890625 34.8125 54.890625 23.390625 
Q 54.890625 11.625 47.5625 5.09375 
Q 40.234375 -1.421875 26.90625 -1.421875 
Q 22.3125 -1.421875 17.546875 -0.640625 
Q 12.796875 0.140625 7.71875 1.703125 
L 7.71875 11.625 
Q 12.109375 9.234375 16.796875 8.0625 
Q 21.484375 6.890625 26.703125 6.890625 
Q 35.15625 6.890625 40.078125 11.328125 
Q 45.015625 15.765625 45.015625 23.390625 
Q 45.015625 31 40.078125 35.4375 
Q 35.15625 39.890625 26.703125 39.890625 
Q 22.75 39.890625 18.8125 39.015625 
Q 14.890625 38.140625 10.796875 36.28125 
z
" id="DejaVuSans-53"/>
       </defs>
       <use xlink:href="#DejaVuSans-50"/>
       <use x="63.623047" xlink:href="#DejaVuSans-53"/>
      </g>
     </g>
    </g>
    <g id="xtick_3">
     <g id="line2d_3">
      <g>
       <use style="stroke:#000000;stroke-width:0.8;" x="135.472707" xlink:href="#m7f375e31ed" y="224.64"/>
      </g>
     </g>
     <g id="text_3">
      <!-- 50 -->
      <g transform="translate(129.110207 239.238437)scale(0.1 -0.1)">
       <use xlink:href="#DejaVuSans-53"/>
       <use x="63.623047" xlink:href="#DejaVuSans-48"/>
      </g>
     </g>
    </g>
    <g id="xtick_4">
     <g id="line2d_4">
      <g>
       <use style="stroke:#000000;stroke-width:0.8;" x="173.709345" xlink:href="#m7f375e31ed" y="224.64"/>
      </g>
     </g>
     <g id="text_4">
      <!-- 75 -->
      <g transform="translate(167.346845 239.238437)scale(0.1 -0.1)">
       <defs>
        <path d="M 8.203125 72.90625 
L 55.078125 72.90625 
L 55.078125 68.703125 
L 28.609375 0 
L 18.3125 0 
L 43.21875 64.59375 
L 8.203125 64.59375 
z
" id="DejaVuSans-55"/>
       </defs>
       <use xlink:href="#DejaVuSans-55"/>
       <use x="63.623047" xlink:href="#DejaVuSans-53"/>
      </g>
     </g>
    </g>
    <g id="xtick_5">
     <g id="line2d_5">
      <g>
       <use style="stroke:#000000;stroke-width:0.8;" x="211.945983" xlink:href="#m7f375e31ed" y="224.64"/>
      </g>
     </g>
     <g id="text_5">
      <!-- 100 -->
      <g transform="translate(202.402233 239.238437)scale(0.1 -0.1)">
       <defs>
        <path d="M 12.40625 8.296875 
L 28.515625 8.296875 
L 28.515625 63.921875 
L 10.984375 60.40625 
L 10.984375 69.390625 
L 28.421875 72.90625 
L 38.28125 72.90625 
L 38.28125 8.296875 
L 54.390625 8.296875 
L 54.390625 0 
L 12.40625 0 
z
" id="DejaVuSans-49"/>
       </defs>
       <use xlink:href="#DejaVuSans-49"/>
       <use x="63.623047" xlink:href="#DejaVuSans-48"/>
       <use x="127.246094" xlink:href="#DejaVuSans-48"/>
      </g>
     </g>
    </g>
    <g id="xtick_6">
     <g id="line2d_6">
      <g>
       <use style="stroke:#000000;stroke-width:0.8;" x="250.18262" xlink:href="#m7f375e31ed" y="224.64"/>
      </g>
     </g>
     <g id="text_6">
      <!-- 125 -->
      <g transform="translate(240.63887 239.238437)scale(0.1 -0.1)">
       <use xlink:href="#DejaVuSans-49"/>
       <use x="63.623047" xlink:href="#DejaVuSans-50"/>
       <use x="127.246094" xlink:href="#DejaVuSans-53"/>
      </g>
     </g>
    </g>
    <g id="xtick_7">
     <g id="line2d_7">
      <g>
       <use style="stroke:#000000;stroke-width:0.8;" x="288.419258" xlink:href="#m7f375e31ed" y="224.64"/>
      </g>
     </g>
     <g id="text_7">
      <!-- 150 -->
      <g transform="translate(278.875508 239.238437)scale(0.1 -0.1)">
       <use xlink:href="#DejaVuSans-49"/>
       <use x="63.623047" xlink:href="#DejaVuSans-53"/>
       <use x="127.246094" xlink:href="#DejaVuSans-48"/>
      </g>
     </g>
    </g>
    <g id="xtick_8">
     <g id="line2d_8">
      <g>
       <use style="stroke:#000000;stroke-width:0.8;" x="326.655896" xlink:href="#m7f375e31ed" y="224.64"/>
      </g>
     </g>
     <g id="text_8">
      <!-- 175 -->
      <g transform="translate(317.112146 239.238437)scale(0.1 -0.1)">
       <use xlink:href="#DejaVuSans-49"/>
       <use x="63.623047" xlink:href="#DejaVuSans-55"/>
       <use x="127.246094" xlink:href="#DejaVuSans-53"/>
      </g>
     </g>
    </g>
    <g id="xtick_9">
     <g id="line2d_9">
      <g>
       <use style="stroke:#000000;stroke-width:0.8;" x="364.892534" xlink:href="#m7f375e31ed" y="224.64"/>
      </g>
     </g>
     <g id="text_9">
      <!-- 200 -->
      <g transform="translate(355.348784 239.238437)scale(0.1 -0.1)">
       <use xlink:href="#DejaVuSans-50"/>
       <use x="63.623047" xlink:href="#DejaVuSans-48"/>
       <use x="127.246094" xlink:href="#DejaVuSans-48"/>
      </g>
     </g>
    </g>
    <g id="text_10">
     <!-- epoch -->
     <g transform="translate(195.953125 252.916562)scale(0.1 -0.1)">
      <defs>
       <path d="M 56.203125 29.59375 
L 56.203125 25.203125 
L 14.890625 25.203125 
Q 15.484375 15.921875 20.484375 11.0625 
Q 25.484375 6.203125 34.421875 6.203125 
Q 39.59375 6.203125 44.453125 7.46875 
Q 49.3125 8.734375 54.109375 11.28125 
L 54.109375 2.78125 
Q 49.265625 0.734375 44.1875 -0.34375 
Q 39.109375 -1.421875 33.890625 -1.421875 
Q 20.796875 -1.421875 13.15625 6.1875 
Q 5.515625 13.8125 5.515625 26.8125 
Q 5.515625 40.234375 12.765625 48.109375 
Q 20.015625 56 32.328125 56 
Q 43.359375 56 49.78125 48.890625 
Q 56.203125 41.796875 56.203125 29.59375 
z
M 47.21875 32.234375 
Q 47.125 39.59375 43.09375 43.984375 
Q 39.0625 48.390625 32.421875 48.390625 
Q 24.90625 48.390625 20.390625 44.140625 
Q 15.875 39.890625 15.1875 32.171875 
z
" id="DejaVuSans-101"/>
       <path d="M 18.109375 8.203125 
L 18.109375 -20.796875 
L 9.078125 -20.796875 
L 9.078125 54.6875 
L 18.109375 54.6875 
L 18.109375 46.390625 
Q 20.953125 51.265625 25.265625 53.625 
Q 29.59375 56 35.59375 56 
Q 45.5625 56 51.78125 48.09375 
Q 58.015625 40.1875 58.015625 27.296875 
Q 58.015625 14.40625 51.78125 6.484375 
Q 45.5625 -1.421875 35.59375 -1.421875 
Q 29.59375 -1.421875 25.265625 0.953125 
Q 20.953125 3.328125 18.109375 8.203125 
z
M 48.6875 27.296875 
Q 48.6875 37.203125 44.609375 42.84375 
Q 40.53125 48.484375 33.40625 48.484375 
Q 26.265625 48.484375 22.1875 42.84375 
Q 18.109375 37.203125 18.109375 27.296875 
Q 18.109375 17.390625 22.1875 11.75 
Q 26.265625 6.109375 33.40625 6.109375 
Q 40.53125 6.109375 44.609375 11.75 
Q 48.6875 17.390625 48.6875 27.296875 
z
" id="DejaVuSans-112"/>
       <path d="M 30.609375 48.390625 
Q 23.390625 48.390625 19.1875 42.75 
Q 14.984375 37.109375 14.984375 27.296875 
Q 14.984375 17.484375 19.15625 11.84375 
Q 23.34375 6.203125 30.609375 6.203125 
Q 37.796875 6.203125 41.984375 11.859375 
Q 46.1875 17.53125 46.1875 27.296875 
Q 46.1875 37.015625 41.984375 42.703125 
Q 37.796875 48.390625 30.609375 48.390625 
z
M 30.609375 56 
Q 42.328125 56 49.015625 48.375 
Q 55.71875 40.765625 55.71875 27.296875 
Q 55.71875 13.875 49.015625 6.21875 
Q 42.328125 -1.421875 30.609375 -1.421875 
Q 18.84375 -1.421875 12.171875 6.21875 
Q 5.515625 13.875 5.515625 27.296875 
Q 5.515625 40.765625 12.171875 48.375 
Q 18.84375 56 30.609375 56 
z
" id="DejaVuSans-111"/>
       <path d="M 48.78125 52.59375 
L 48.78125 44.1875 
Q 44.96875 46.296875 41.140625 47.34375 
Q 37.3125 48.390625 33.40625 48.390625 
Q 24.65625 48.390625 19.8125 42.84375 
Q 14.984375 37.3125 14.984375 27.296875 
Q 14.984375 17.28125 19.8125 11.734375 
Q 24.65625 6.203125 33.40625 6.203125 
Q 37.3125 6.203125 41.140625 7.25 
Q 44.96875 8.296875 48.78125 10.40625 
L 48.78125 2.09375 
Q 45.015625 0.34375 40.984375 -0.53125 
Q 36.96875 -1.421875 32.421875 -1.421875 
Q 20.0625 -1.421875 12.78125 6.34375 
Q 5.515625 14.109375 5.515625 27.296875 
Q 5.515625 40.671875 12.859375 48.328125 
Q 20.21875 56 33.015625 56 
Q 37.15625 56 41.109375 55.140625 
Q 45.0625 54.296875 48.78125 52.59375 
z
" id="DejaVuSans-99"/>
       <path d="M 54.890625 33.015625 
L 54.890625 0 
L 45.90625 0 
L 45.90625 32.71875 
Q 45.90625 40.484375 42.875 44.328125 
Q 39.84375 48.1875 33.796875 48.1875 
Q 26.515625 48.1875 22.3125 43.546875 
Q 18.109375 38.921875 18.109375 30.90625 
L 18.109375 0 
L 9.078125 0 
L 9.078125 75.984375 
L 18.109375 75.984375 
L 18.109375 46.1875 
Q 21.34375 51.125 25.703125 53.5625 
Q 30.078125 56 35.796875 56 
Q 45.21875 56 50.046875 50.171875 
Q 54.890625 44.34375 54.890625 33.015625 
z
" id="DejaVuSans-104"/>
      </defs>
      <use xlink:href="#DejaVuSans-101"/>
      <use x="61.523438" xlink:href="#DejaVuSans-112"/>
      <use x="125" xlink:href="#DejaVuSans-111"/>
      <use x="186.181641" xlink:href="#DejaVuSans-99"/>
      <use x="241.162109" xlink:href="#DejaVuSans-104"/>
     </g>
    </g>
   </g>
   <g id="matplotlib.axis_2">
    <g id="ytick_1">
     <g id="line2d_10">
      <defs>
       <path d="M 0 0 
L -3.5 0 
" id="m61773ccf22" style="stroke:#000000;stroke-width:0.8;"/>
      </defs>
      <g>
       <use style="stroke:#000000;stroke-width:0.8;" x="43.78125" xlink:href="#m61773ccf22" y="216.436302"/>
      </g>
     </g>
     <g id="text_11">
      <!-- 0.0 -->
      <g transform="translate(20.878125 220.235521)scale(0.1 -0.1)">
       <defs>
        <path d="M 10.6875 12.40625 
L 21 12.40625 
L 21 0 
L 10.6875 0 
z
" id="DejaVuSans-46"/>
       </defs>
       <use xlink:href="#DejaVuSans-48"/>
       <use x="63.623047" xlink:href="#DejaVuSans-46"/>
       <use x="95.410156" xlink:href="#DejaVuSans-48"/>
      </g>
     </g>
    </g>
    <g id="ytick_2">
     <g id="line2d_11">
      <g>
       <use style="stroke:#000000;stroke-width:0.8;" x="43.78125" xlink:href="#m61773ccf22" y="188.437333"/>
      </g>
     </g>
     <g id="text_12">
      <!-- 0.1 -->
      <g transform="translate(20.878125 192.236551)scale(0.1 -0.1)">
       <use xlink:href="#DejaVuSans-48"/>
       <use x="63.623047" xlink:href="#DejaVuSans-46"/>
       <use x="95.410156" xlink:href="#DejaVuSans-49"/>
      </g>
     </g>
    </g>
    <g id="ytick_3">
     <g id="line2d_12">
      <g>
       <use style="stroke:#000000;stroke-width:0.8;" x="43.78125" xlink:href="#m61773ccf22" y="160.438363"/>
      </g>
     </g>
     <g id="text_13">
      <!-- 0.2 -->
      <g transform="translate(20.878125 164.237582)scale(0.1 -0.1)">
       <use xlink:href="#DejaVuSans-48"/>
       <use x="63.623047" xlink:href="#DejaVuSans-46"/>
       <use x="95.410156" xlink:href="#DejaVuSans-50"/>
      </g>
     </g>
    </g>
    <g id="ytick_4">
     <g id="line2d_13">
      <g>
       <use style="stroke:#000000;stroke-width:0.8;" x="43.78125" xlink:href="#m61773ccf22" y="132.439394"/>
      </g>
     </g>
     <g id="text_14">
      <!-- 0.3 -->
      <g transform="translate(20.878125 136.238612)scale(0.1 -0.1)">
       <defs>
        <path d="M 40.578125 39.3125 
Q 47.65625 37.796875 51.625 33 
Q 55.609375 28.21875 55.609375 21.1875 
Q 55.609375 10.40625 48.1875 4.484375 
Q 40.765625 -1.421875 27.09375 -1.421875 
Q 22.515625 -1.421875 17.65625 -0.515625 
Q 12.796875 0.390625 7.625 2.203125 
L 7.625 11.71875 
Q 11.71875 9.328125 16.59375 8.109375 
Q 21.484375 6.890625 26.8125 6.890625 
Q 36.078125 6.890625 40.9375 10.546875 
Q 45.796875 14.203125 45.796875 21.1875 
Q 45.796875 27.640625 41.28125 31.265625 
Q 36.765625 34.90625 28.71875 34.90625 
L 20.21875 34.90625 
L 20.21875 43.015625 
L 29.109375 43.015625 
Q 36.375 43.015625 40.234375 45.921875 
Q 44.09375 48.828125 44.09375 54.296875 
Q 44.09375 59.90625 40.109375 62.90625 
Q 36.140625 65.921875 28.71875 65.921875 
Q 24.65625 65.921875 20.015625 65.03125 
Q 15.375 64.15625 9.8125 62.3125 
L 9.8125 71.09375 
Q 15.4375 72.65625 20.34375 73.4375 
Q 25.25 74.21875 29.59375 74.21875 
Q 40.828125 74.21875 47.359375 69.109375 
Q 53.90625 64.015625 53.90625 55.328125 
Q 53.90625 49.265625 50.4375 45.09375 
Q 46.96875 40.921875 40.578125 39.3125 
z
" id="DejaVuSans-51"/>
       </defs>
       <use xlink:href="#DejaVuSans-48"/>
       <use x="63.623047" xlink:href="#DejaVuSans-46"/>
       <use x="95.410156" xlink:href="#DejaVuSans-51"/>
      </g>
     </g>
    </g>
    <g id="ytick_5">
     <g id="line2d_14">
      <g>
       <use style="stroke:#000000;stroke-width:0.8;" x="43.78125" xlink:href="#m61773ccf22" y="104.440424"/>
      </g>
     </g>
     <g id="text_15">
      <!-- 0.4 -->
      <g transform="translate(20.878125 108.239643)scale(0.1 -0.1)">
       <defs>
        <path d="M 37.796875 64.3125 
L 12.890625 25.390625 
L 37.796875 25.390625 
z
M 35.203125 72.90625 
L 47.609375 72.90625 
L 47.609375 25.390625 
L 58.015625 25.390625 
L 58.015625 17.1875 
L 47.609375 17.1875 
L 47.609375 0 
L 37.796875 0 
L 37.796875 17.1875 
L 4.890625 17.1875 
L 4.890625 26.703125 
z
" id="DejaVuSans-52"/>
       </defs>
       <use xlink:href="#DejaVuSans-48"/>
       <use x="63.623047" xlink:href="#DejaVuSans-46"/>
       <use x="95.410156" xlink:href="#DejaVuSans-52"/>
      </g>
     </g>
    </g>
    <g id="ytick_6">
     <g id="line2d_15">
      <g>
       <use style="stroke:#000000;stroke-width:0.8;" x="43.78125" xlink:href="#m61773ccf22" y="76.441455"/>
      </g>
     </g>
     <g id="text_16">
      <!-- 0.5 -->
      <g transform="translate(20.878125 80.240674)scale(0.1 -0.1)">
       <use xlink:href="#DejaVuSans-48"/>
       <use x="63.623047" xlink:href="#DejaVuSans-46"/>
       <use x="95.410156" xlink:href="#DejaVuSans-53"/>
      </g>
     </g>
    </g>
    <g id="ytick_7">
     <g id="line2d_16">
      <g>
       <use style="stroke:#000000;stroke-width:0.8;" x="43.78125" xlink:href="#m61773ccf22" y="48.442486"/>
      </g>
     </g>
     <g id="text_17">
      <!-- 0.6 -->
      <g transform="translate(20.878125 52.241704)scale(0.1 -0.1)">
       <defs>
        <path d="M 33.015625 40.375 
Q 26.375 40.375 22.484375 35.828125 
Q 18.609375 31.296875 18.609375 23.390625 
Q 18.609375 15.53125 22.484375 10.953125 
Q 26.375 6.390625 33.015625 6.390625 
Q 39.65625 6.390625 43.53125 10.953125 
Q 47.40625 15.53125 47.40625 23.390625 
Q 47.40625 31.296875 43.53125 35.828125 
Q 39.65625 40.375 33.015625 40.375 
z
M 52.59375 71.296875 
L 52.59375 62.3125 
Q 48.875 64.0625 45.09375 64.984375 
Q 41.3125 65.921875 37.59375 65.921875 
Q 27.828125 65.921875 22.671875 59.328125 
Q 17.53125 52.734375 16.796875 39.40625 
Q 19.671875 43.65625 24.015625 45.921875 
Q 28.375 48.1875 33.59375 48.1875 
Q 44.578125 48.1875 50.953125 41.515625 
Q 57.328125 34.859375 57.328125 23.390625 
Q 57.328125 12.15625 50.6875 5.359375 
Q 44.046875 -1.421875 33.015625 -1.421875 
Q 20.359375 -1.421875 13.671875 8.265625 
Q 6.984375 17.96875 6.984375 36.375 
Q 6.984375 53.65625 15.1875 63.9375 
Q 23.390625 74.21875 37.203125 74.21875 
Q 40.921875 74.21875 44.703125 73.484375 
Q 48.484375 72.75 52.59375 71.296875 
z
" id="DejaVuSans-54"/>
       </defs>
       <use xlink:href="#DejaVuSans-48"/>
       <use x="63.623047" xlink:href="#DejaVuSans-46"/>
       <use x="95.410156" xlink:href="#DejaVuSans-54"/>
      </g>
     </g>
    </g>
    <g id="ytick_8">
     <g id="line2d_17">
      <g>
       <use style="stroke:#000000;stroke-width:0.8;" x="43.78125" xlink:href="#m61773ccf22" y="20.443516"/>
      </g>
     </g>
     <g id="text_18">
      <!-- 0.7 -->
      <g transform="translate(20.878125 24.242735)scale(0.1 -0.1)">
       <use xlink:href="#DejaVuSans-48"/>
       <use x="63.623047" xlink:href="#DejaVuSans-46"/>
       <use x="95.410156" xlink:href="#DejaVuSans-55"/>
      </g>
     </g>
    </g>
    <g id="text_19">
     <!-- score -->
     <g transform="translate(14.798438 129.352812)rotate(-90)scale(0.1 -0.1)">
      <defs>
       <path d="M 44.28125 53.078125 
L 44.28125 44.578125 
Q 40.484375 46.53125 36.375 47.5 
Q 32.28125 48.484375 27.875 48.484375 
Q 21.1875 48.484375 17.84375 46.4375 
Q 14.5 44.390625 14.5 40.28125 
Q 14.5 37.15625 16.890625 35.375 
Q 19.28125 33.59375 26.515625 31.984375 
L 29.59375 31.296875 
Q 39.15625 29.25 43.1875 25.515625 
Q 47.21875 21.78125 47.21875 15.09375 
Q 47.21875 7.46875 41.1875 3.015625 
Q 35.15625 -1.421875 24.609375 -1.421875 
Q 20.21875 -1.421875 15.453125 -0.5625 
Q 10.6875 0.296875 5.421875 2 
L 5.421875 11.28125 
Q 10.40625 8.6875 15.234375 7.390625 
Q 20.0625 6.109375 24.8125 6.109375 
Q 31.15625 6.109375 34.5625 8.28125 
Q 37.984375 10.453125 37.984375 14.40625 
Q 37.984375 18.0625 35.515625 20.015625 
Q 33.0625 21.96875 24.703125 23.78125 
L 21.578125 24.515625 
Q 13.234375 26.265625 9.515625 29.90625 
Q 5.8125 33.546875 5.8125 39.890625 
Q 5.8125 47.609375 11.28125 51.796875 
Q 16.75 56 26.8125 56 
Q 31.78125 56 36.171875 55.265625 
Q 40.578125 54.546875 44.28125 53.078125 
z
" id="DejaVuSans-115"/>
       <path d="M 41.109375 46.296875 
Q 39.59375 47.171875 37.8125 47.578125 
Q 36.03125 48 33.890625 48 
Q 26.265625 48 22.1875 43.046875 
Q 18.109375 38.09375 18.109375 28.8125 
L 18.109375 0 
L 9.078125 0 
L 9.078125 54.6875 
L 18.109375 54.6875 
L 18.109375 46.1875 
Q 20.953125 51.171875 25.484375 53.578125 
Q 30.03125 56 36.53125 56 
Q 37.453125 56 38.578125 55.875 
Q 39.703125 55.765625 41.0625 55.515625 
z
" id="DejaVuSans-114"/>
      </defs>
      <use xlink:href="#DejaVuSans-115"/>
      <use x="52.099609" xlink:href="#DejaVuSans-99"/>
      <use x="107.080078" xlink:href="#DejaVuSans-111"/>
      <use x="168.261719" xlink:href="#DejaVuSans-114"/>
      <use x="207.125" xlink:href="#DejaVuSans-101"/>
     </g>
    </g>
   </g>
   <g id="line2d_18">
    <path clip-path="url(#p4be0c85ca3)" d="M 58.999432 205.796693 
L 60.528897 167.718093 
L 62.058363 201.876837 
L 63.587828 121.2398 
L 66.646759 91.000912 
L 68.176225 106.680338 
L 69.70569 101.640521 
L 71.235156 94.920767 
L 72.764621 119.559865 
L 74.294087 104.440419 
L 75.823552 93.800809 
L 77.353018 87.64104 
L 80.411949 102.760483 
L 81.941414 94.920772 
L 83.47088 88.761001 
L 85.000345 96.040725 
L 88.059276 87.08106 
L 89.588742 85.401117 
L 91.118208 78.121387 
L 92.647673 75.881469 
L 94.177139 68.041759 
L 95.706604 97.72067 
L 97.23607 78.681364 
L 98.765535 75.881473 
L 100.295001 96.040728 
L 101.824466 87.641035 
L 103.353932 80.361307 
L 104.883397 52.922311 
L 106.412863 82.601226 
L 107.942328 56.842173 
L 109.471794 55.722211 
L 111.001259 69.161718 
L 112.530725 76.441452 
L 114.06019 68.041752 
L 115.589656 71.961614 
L 117.119121 71.401632 
L 118.648587 64.121898 
L 120.178052 53.482292 
L 121.707518 54.602251 
L 123.236983 73.641556 
L 124.766449 60.762027 
L 126.295914 50.682398 
L 127.82538 71.401639 
L 129.354845 59.082092 
L 132.413776 52.362334 
L 133.943242 47.8825 
L 135.472707 52.362338 
L 137.002173 50.122419 
L 138.531638 54.042267 
L 140.061104 56.842172 
L 141.590569 43.402659 
L 143.120035 45.642581 
L 144.6495 51.802352 
L 146.178966 59.082092 
L 147.708431 55.722207 
L 149.237897 58.522108 
L 150.767362 47.322521 
L 152.296828 43.962638 
L 153.826293 33.883015 
L 155.355759 51.242378 
L 156.885224 45.642581 
L 158.41469 45.642581 
L 159.944155 56.842162 
L 161.473621 33.883015 
L 163.003086 39.482807 
L 164.532552 34.442998 
L 166.062017 35.562952 
L 167.591483 46.762542 
L 169.120948 28.283223 
L 170.650414 27.723241 
L 172.17988 35.00297 
L 173.709345 36.682916 
L 175.238811 40.042793 
L 176.768276 39.482811 
L 178.297742 37.802867 
L 179.827207 66.361816 
L 181.356673 38.362849 
L 182.886138 42.282703 
L 184.415604 35.002976 
L 185.945069 44.522624 
L 187.474535 33.883015 
L 189.004 25.483326 
L 190.533466 36.122927 
L 192.062931 26.043301 
L 193.592397 37.242892 
L 195.121862 34.442998 
L 196.651328 29.403181 
L 198.180793 38.922832 
L 199.710259 35.562955 
L 201.239724 37.802874 
L 202.76919 36.122931 
L 204.298655 29.403181 
L 205.828121 46.20256 
L 207.357586 34.442991 
L 208.887052 35.562952 
L 210.416517 33.32304 
L 211.945983 34.442998 
L 213.475448 34.442998 
L 215.004914 37.242892 
L 216.534379 32.763058 
L 218.063845 35.562955 
L 219.59331 21.003488 
L 221.122776 42.842687 
L 222.652241 29.963157 
L 224.181707 31.643093 
L 225.711172 38.362846 
L 227.240638 36.682913 
L 228.770103 42.282711 
L 230.299569 33.883015 
L 233.3585 36.122931 
L 234.887965 30.523146 
L 236.417431 32.763058 
L 237.946896 28.843202 
L 239.476362 42.282705 
L 241.005827 31.083118 
L 242.535293 31.643098 
L 244.064758 31.083121 
L 245.594224 43.962646 
L 247.123689 35.002976 
L 248.653155 40.602768 
L 250.18262 29.403178 
L 251.712086 31.083118 
L 253.241552 41.722723 
L 254.771017 35.002976 
L 256.300483 31.6431 
L 257.829948 38.922827 
L 259.359414 24.923347 
L 260.888879 32.763054 
L 262.418345 36.68291 
L 263.94781 34.442991 
L 265.477276 32.763058 
L 267.006741 29.403178 
L 268.536207 36.68291 
L 270.065672 37.242895 
L 271.595138 25.483323 
L 273.124603 27.163266 
L 274.654069 36.68291 
L 276.183534 39.482807 
L 277.713 28.283223 
L 279.242465 36.68291 
L 280.771931 27.723245 
L 282.301396 34.443001 
L 283.830862 28.283217 
L 285.360327 33.883009 
L 286.889793 42.282705 
L 288.419258 35.00297 
L 289.948724 33.883019 
L 291.478189 42.842687 
L 293.007655 42.282705 
L 294.53712 29.403181 
L 296.066586 36.122934 
L 297.596051 35.562955 
L 299.125517 33.323036 
L 300.654982 24.923344 
L 302.184448 35.562955 
L 303.713913 35.562957 
L 305.243379 33.883015 
L 306.772844 31.643093 
L 308.30231 32.763051 
L 309.831775 30.523142 
L 311.361241 31.083118 
L 312.890706 40.042789 
L 314.420172 36.122934 
L 315.949637 24.363365 
L 317.479103 28.843199 
L 319.008568 32.203079 
L 320.538034 35.002973 
L 322.067499 28.843202 
L 323.596965 35.002976 
L 325.12643 26.60328 
L 326.655896 27.163259 
L 328.185361 32.203082 
L 329.714827 27.723248 
L 331.244292 33.323036 
L 334.303224 33.32304 
L 335.832689 30.523139 
L 337.362155 22.683428 
L 338.89162 38.92283 
L 340.421086 28.28322 
L 341.950551 32.203075 
L 343.480017 23.803386 
L 345.009482 28.28322 
L 346.538948 28.843206 
L 348.068413 23.803383 
L 349.597879 36.68291 
L 351.127344 29.403181 
L 352.65681 25.483326 
L 354.186275 27.723238 
L 355.715741 29.403188 
L 357.245206 24.923347 
L 358.774672 29.403181 
L 360.304137 24.363361 
L 361.833603 31.083118 
L 363.363068 32.203079 
L 363.363068 32.203079 
" style="fill:none;stroke:#1f77b4;stroke-linecap:square;stroke-width:1.5;"/>
   </g>
   <g id="line2d_19">
    <path clip-path="url(#p4be0c85ca3)" d="M 58.999432 214.756364 
L 60.528897 208.59659 
L 62.058363 202.996796 
L 63.587828 208.59659 
L 65.117294 213.076425 
L 66.646759 196.277043 
L 68.176225 195.157084 
L 69.70569 174.997826 
L 71.235156 191.797208 
L 72.764621 200.756878 
L 74.294087 213.076425 
L 75.823552 196.837023 
L 77.353018 183.957496 
L 78.882483 195.717063 
L 80.411949 188.997311 
L 81.941414 177.797724 
L 83.47088 146.998858 
L 85.000345 187.317373 
L 86.529811 171.637951 
L 88.059276 152.59865 
L 89.588742 148.118817 
L 91.118208 106.68034 
L 92.647673 121.799782 
L 94.177139 95.480751 
L 95.706604 92.120873 
L 97.23607 84.281162 
L 98.765535 116.199984 
L 100.295001 103.880439 
L 101.824466 70.281674 
L 103.353932 73.081575 
L 104.883397 104.440419 
L 106.412863 81.481265 
L 107.942328 62.441969 
L 109.471794 60.20205 
L 111.001259 63.561923 
L 112.530725 51.242373 
L 114.06019 66.361822 
L 115.589656 44.52262 
L 117.119121 58.522115 
L 118.648587 67.481783 
L 120.178052 74.76151 
L 121.707518 75.321492 
L 123.236983 60.202046 
L 124.766449 32.763058 
L 126.295914 50.12242 
L 127.82538 44.522624 
L 129.354845 31.083124 
L 130.884311 45.642585 
L 132.413776 47.882498 
L 133.943242 35.562952 
L 135.472707 35.002978 
L 137.002173 32.763058 
L 138.531638 32.763064 
L 140.061104 59.642069 
L 141.590569 49.002461 
L 143.120035 54.042271 
L 144.6495 37.802867 
L 146.178966 26.603284 
L 147.708431 43.962648 
L 149.237897 35.00297 
L 150.767362 50.682394 
L 152.296828 30.523136 
L 153.826293 54.042277 
L 155.355759 37.802871 
L 156.885224 33.883019 
L 158.41469 20.443513 
L 159.944155 41.16274 
L 161.473621 21.003485 
L 163.003086 46.762544 
L 164.532552 29.403181 
L 166.062017 19.883534 
L 167.591483 47.8825 
L 169.120948 27.723245 
L 170.650414 22.123453 
L 172.17988 32.763054 
L 173.709345 23.24341 
L 175.238811 22.683432 
L 176.768276 26.043308 
L 178.297742 20.443509 
L 179.827207 25.483333 
L 181.356673 22.123449 
L 182.886138 19.883534 
L 184.415604 26.043305 
L 185.945069 24.363368 
L 187.474535 31.083114 
L 189.004 18.76357 
L 190.533466 22.123449 
L 192.062931 21.003488 
L 193.592397 22.683428 
L 195.121862 21.003492 
L 196.651328 21.563467 
L 198.180793 24.363368 
L 199.710259 23.243414 
L 201.239724 23.803396 
L 202.76919 22.683428 
L 204.298655 25.483326 
L 205.828121 19.883537 
L 207.357586 21.003492 
L 208.887052 22.683428 
L 210.416517 22.123449 
L 211.945983 23.243407 
L 213.475448 22.123446 
L 215.004914 17.083636 
L 218.063845 21.563471 
L 219.59331 23.243407 
L 221.122776 20.443516 
L 222.652241 23.243414 
L 224.181707 18.76357 
L 225.711172 21.563467 
L 227.240638 22.683432 
L 228.770103 22.683428 
L 230.299569 19.323555 
L 231.829034 19.323558 
L 233.3585 24.923347 
L 234.887965 21.563474 
L 236.417431 18.763573 
L 237.946896 18.763573 
L 239.476362 24.363365 
L 241.005827 21.563471 
L 242.535293 19.883531 
L 244.064758 22.683428 
L 245.594224 23.243414 
L 247.123689 23.243404 
L 250.18262 22.123446 
L 251.712086 24.363361 
L 253.241552 21.563471 
L 254.771017 23.803389 
L 256.300483 22.123449 
L 257.829948 23.803386 
L 259.359414 26.043308 
L 260.888879 18.763566 
L 262.418345 22.683422 
L 263.94781 22.683428 
L 265.477276 28.843206 
L 267.006741 21.563474 
L 268.536207 19.883537 
L 270.065672 23.803389 
L 271.595138 19.883531 
L 273.124603 22.123449 
L 274.654069 21.563474 
L 276.183534 23.243404 
L 277.713 26.043301 
L 279.242465 20.443513 
L 280.771931 24.363368 
L 282.301396 20.443513 
L 283.830862 22.683428 
L 285.360327 23.243407 
L 286.889793 26.603284 
L 288.419258 21.003485 
L 289.948724 23.24341 
L 291.478189 21.563464 
L 293.007655 24.92334 
L 294.53712 21.563474 
L 296.066586 21.003492 
L 297.596051 21.003495 
L 299.125517 23.243407 
L 300.654982 23.803389 
L 302.184448 22.123446 
L 303.713913 22.683425 
L 306.772844 22.683428 
L 308.30231 23.243404 
L 309.831775 22.683432 
L 311.361241 21.003488 
L 312.890706 21.563474 
L 314.420172 22.683432 
L 315.949637 22.123453 
L 317.479103 22.683435 
L 320.538034 22.683428 
L 322.067499 22.123446 
L 323.596965 24.363365 
L 325.12643 21.003485 
L 326.655896 20.443509 
L 328.185361 21.563471 
L 329.714827 24.363368 
L 331.244292 24.363365 
L 332.773758 23.243404 
L 334.303224 24.363365 
L 335.832689 22.123453 
L 337.362155 24.923347 
L 338.89162 23.803389 
L 340.421086 25.483323 
L 341.950551 22.123449 
L 345.009482 22.123449 
L 346.538948 24.363368 
L 348.068413 23.803389 
L 349.597879 22.683428 
L 351.127344 24.363361 
L 352.65681 22.683425 
L 354.186275 23.243407 
L 355.715741 24.92335 
L 357.245206 24.92334 
L 358.774672 23.803389 
L 360.304137 21.563471 
L 361.833603 27.723245 
L 363.363068 22.123453 
L 363.363068 22.123453 
" style="fill:none;stroke:#ff7f0e;stroke-linecap:square;stroke-width:1.5;"/>
   </g>
   <g id="line2d_20">
    <path clip-path="url(#p4be0c85ca3)" d="M 58.999432 210.836508 
L 60.528897 203.556776 
L 62.058363 195.157084 
L 63.587828 135.239291 
L 65.117294 113.960073 
L 66.646759 114.52005 
L 68.176225 102.760483 
L 69.70569 101.080546 
L 71.235156 93.240834 
L 72.764621 69.161715 
L 74.294087 108.36027 
L 75.823552 80.361309 
L 77.353018 92.120873 
L 78.882483 65.80184 
L 80.411949 98.280649 
L 81.941414 84.841141 
L 83.47088 88.201023 
L 85.000345 79.801323 
L 86.529811 77.561411 
L 88.059276 80.361304 
L 89.588742 71.401635 
L 91.118208 72.521593 
L 92.647673 66.921799 
L 94.177139 93.800811 
L 95.706604 79.801326 
L 97.23607 87.641037 
L 98.765535 55.162228 
L 100.295001 67.481782 
L 101.824466 72.521598 
L 103.353932 61.881981 
L 104.883397 64.681879 
L 106.412863 65.241861 
L 107.942328 54.042271 
L 109.471794 60.762025 
L 111.001259 57.402149 
L 112.530725 55.722212 
L 114.06019 78.121387 
L 115.589656 59.642063 
L 117.119121 68.601741 
L 118.648587 60.202045 
L 120.178052 57.402154 
L 121.707518 38.922832 
L 123.236983 52.92231 
L 124.766449 50.122419 
L 126.295914 50.122415 
L 127.82538 47.882498 
L 129.354845 35.562952 
L 130.884311 51.802359 
L 132.413776 50.122414 
L 133.943242 40.042786 
L 135.472707 37.242898 
L 137.002173 48.442484 
L 138.531638 32.763061 
L 140.061104 40.042786 
L 141.590569 37.242885 
L 143.120035 38.922828 
L 144.6495 38.922832 
L 146.178966 36.68291 
L 147.708431 40.602768 
L 149.237897 33.323033 
L 150.767362 42.282705 
L 152.296828 50.122415 
L 153.826293 38.922832 
L 155.355759 40.042783 
L 156.885224 47.8825 
L 158.41469 38.922828 
L 159.944155 55.722217 
L 161.473621 43.962638 
L 163.003086 39.482811 
L 164.532552 40.042789 
L 166.062017 41.722726 
L 167.591483 44.52263 
L 169.120948 36.682916 
L 170.650414 33.883012 
L 172.17988 36.682916 
L 173.709345 33.883012 
L 175.238811 29.963163 
L 176.768276 35.562949 
L 178.297742 36.122934 
L 179.827207 33.883019 
L 181.356673 24.923344 
L 182.886138 24.923347 
L 184.415604 27.163256 
L 185.945069 30.523136 
L 187.474535 27.723248 
L 189.004 26.043301 
L 190.533466 33.323033 
L 193.592397 29.96316 
L 195.121862 29.403178 
L 196.651328 29.403178 
L 198.180793 22.683425 
L 199.710259 32.203075 
L 201.239724 40.602768 
L 202.76919 29.403184 
L 204.298655 25.483323 
L 205.828121 31.643097 
L 207.357586 24.923344 
L 208.887052 29.963157 
L 210.416517 34.443001 
L 211.945983 30.523136 
L 213.475448 33.323036 
L 215.004914 35.002973 
L 216.534379 38.362849 
L 218.063845 29.96316 
L 219.59331 27.163259 
L 221.122776 31.64309 
L 222.652241 24.923344 
L 224.181707 35.002975 
L 225.711172 33.323036 
L 227.240638 19.883531 
L 228.770103 27.723241 
L 230.299569 28.28322 
L 231.829034 31.083118 
L 233.3585 29.403178 
L 234.887965 36.122931 
L 236.417431 34.442998 
L 237.946896 29.403178 
L 239.476362 26.60329 
L 241.005827 33.883015 
L 242.535293 30.523136 
L 244.064758 28.283223 
L 245.594224 24.363365 
L 247.123689 28.283217 
L 248.653155 27.163266 
L 250.18262 32.203065 
L 251.712086 24.363365 
L 253.241552 32.203072 
L 254.771017 32.763058 
L 256.300483 24.923344 
L 257.829948 29.403181 
L 259.359414 30.523142 
L 260.888879 33.323036 
L 262.418345 24.363365 
L 263.94781 26.043305 
L 265.477276 29.96316 
L 267.006741 28.843202 
L 268.536207 28.843202 
L 270.065672 27.723245 
L 271.595138 32.203072 
L 273.124603 28.283227 
L 274.654069 27.723238 
L 276.183534 27.723238 
L 277.713 22.683425 
L 279.242465 32.203072 
L 280.771931 37.242898 
L 282.301396 29.403184 
L 283.830862 31.643093 
L 285.360327 26.043305 
L 286.889793 23.24341 
L 288.419258 28.283223 
L 289.948724 28.283227 
L 291.478189 29.963157 
L 293.007655 22.123443 
L 294.53712 29.403181 
L 296.066586 23.243404 
L 297.596051 37.802871 
L 299.125517 31.643097 
L 300.654982 22.683425 
L 302.184448 24.923344 
L 303.713913 24.923344 
L 305.243379 22.683432 
L 306.772844 25.483323 
L 308.30231 31.083118 
L 309.831775 29.403184 
L 311.361241 29.963162 
L 312.890706 28.283223 
L 314.420172 26.043305 
L 315.949637 33.883017 
L 317.479103 20.443509 
L 319.008568 22.683425 
L 320.538034 25.483319 
L 322.067499 22.123449 
L 323.596965 24.363375 
L 325.12643 27.163259 
L 326.655896 29.403184 
L 328.185361 21.563474 
L 329.714827 23.243414 
L 331.244292 23.803389 
L 332.773758 23.243407 
L 334.303224 24.923347 
L 335.832689 22.683432 
L 337.362155 21.003488 
L 338.89162 23.243404 
L 340.421086 23.803386 
L 341.950551 20.443506 
L 343.480017 25.483326 
L 345.009482 28.843202 
L 346.538948 31.083121 
L 348.068413 24.363368 
L 349.597879 27.163259 
L 351.127344 24.363365 
L 352.65681 26.603287 
L 354.186275 21.563471 
L 355.715741 27.163266 
L 357.245206 28.28322 
L 358.774672 23.243407 
L 360.304137 21.003492 
L 361.833603 28.843199 
L 363.363068 22.123449 
L 363.363068 22.123449 
" style="fill:none;stroke:#2ca02c;stroke-linecap:square;stroke-width:1.5;"/>
   </g>
   <g id="line2d_21">
    <path clip-path="url(#p4be0c85ca3)" d="M 58.999432 205.796693 
L 60.528897 189.55729 
L 62.058363 180.597619 
L 63.587828 178.3577 
L 65.117294 181.157599 
L 66.646759 181.157599 
L 68.176225 182.277558 
L 69.70569 177.237744 
L 71.235156 182.277559 
L 72.764621 140.279103 
L 74.294087 163.238259 
L 75.823552 163.798238 
L 77.353018 150.918711 
L 78.882483 151.478691 
L 80.411949 141.399062 
L 81.941414 145.878894 
L 83.47088 137.479204 
L 85.000345 150.358731 
L 86.529811 137.479206 
L 88.059276 140.279101 
L 89.588742 151.478687 
L 91.118208 138.599162 
L 92.647673 143.638981 
L 94.177139 140.279104 
L 95.706604 144.19896 
L 97.23607 135.239289 
L 98.765535 140.83908 
L 100.295001 144.198959 
L 101.824466 145.318917 
L 103.353932 139.159141 
L 104.883397 146.998856 
L 106.412863 134.679312 
L 107.942328 143.078999 
L 109.471794 141.959041 
L 111.001259 141.959043 
L 112.530725 142.519019 
L 114.06019 140.839083 
L 115.589656 134.679312 
L 117.119121 149.79875 
L 118.648587 144.758939 
L 120.178052 140.279106 
L 121.707518 139.719123 
L 123.236983 147.558837 
L 124.766449 139.159145 
L 126.295914 142.519021 
L 127.82538 138.039186 
L 129.354845 134.67931 
L 130.884311 145.318918 
L 132.413776 134.67931 
L 133.943242 143.638977 
L 135.472707 138.599165 
L 137.002173 132.999368 
L 138.531638 137.479207 
L 140.061104 145.318919 
L 141.590569 143.078999 
L 143.120035 132.999369 
L 144.6495 149.238773 
L 146.178966 143.079002 
L 147.708431 139.719122 
L 149.237897 141.39906 
L 150.767362 139.719125 
L 152.296828 139.159147 
L 153.826293 131.879412 
L 155.355759 145.878897 
L 156.885224 138.599165 
L 158.41469 134.11933 
L 159.944155 155.398544 
L 161.473621 134.679307 
L 163.003086 145.318918 
L 164.532552 139.719123 
L 166.062017 139.719125 
L 167.591483 133.559349 
L 169.120948 139.719119 
L 170.650414 132.999366 
L 172.17988 126.839598 
L 173.709345 133.559347 
L 175.238811 128.519536 
L 176.768276 137.479205 
L 178.297742 148.118815 
L 179.827207 135.79927 
L 181.356673 136.919228 
L 182.886138 140.839084 
L 184.415604 131.319434 
L 185.945069 133.559351 
L 187.474535 131.879407 
L 190.533466 138.599166 
L 192.062931 134.119327 
L 193.592397 139.719123 
L 195.121862 130.199477 
L 196.651328 129.639491 
L 198.180793 142.519018 
L 199.710259 142.51902 
L 201.239724 136.919228 
L 202.76919 129.639494 
L 204.298655 133.559349 
L 205.828121 138.039186 
L 207.357586 139.159144 
L 208.887052 138.599164 
L 210.416517 135.799265 
L 211.945983 141.95904 
L 213.475448 149.238771 
L 215.004914 133.559349 
L 216.534379 131.319432 
L 218.063845 135.799266 
L 219.59331 146.438874 
L 221.122776 141.959039 
L 222.652241 134.679306 
L 224.181707 140.839082 
L 225.711172 153.718609 
L 227.240638 146.438876 
L 228.770103 144.198955 
L 230.299569 142.51902 
L 231.829034 154.278587 
L 233.3585 132.999373 
L 234.887965 138.039183 
L 236.417431 134.119327 
L 237.946896 133.559348 
L 239.476362 134.11933 
L 241.005827 140.83908 
L 242.535293 123.479722 
L 244.064758 136.919224 
L 245.594224 125.719637 
L 247.123689 130.199473 
L 248.653155 127.399578 
L 250.18262 137.479207 
L 251.712086 134.679306 
L 253.241552 141.959041 
L 254.771017 142.519018 
L 257.829948 136.919227 
L 259.359414 139.719123 
L 260.888879 134.119329 
L 262.418345 137.479208 
L 265.477276 135.239291 
L 267.006741 143.638979 
L 268.536207 139.15914 
L 270.065672 136.359246 
L 271.595138 138.039187 
L 273.124603 135.239286 
L 274.654069 134.679307 
L 276.183534 126.279619 
L 277.713 134.11933 
L 279.242465 132.43939 
L 280.771931 141.959041 
L 282.301396 139.719122 
L 283.830862 134.11933 
L 285.360327 132.999369 
L 286.889793 142.519022 
L 288.419258 135.239287 
L 289.948724 134.679308 
L 291.478189 131.319431 
L 293.007655 137.479206 
L 294.53712 136.359247 
L 296.066586 130.759454 
L 297.596051 131.87941 
L 299.125517 138.039186 
L 300.654982 136.359247 
L 302.184448 133.559351 
L 303.713913 141.95904 
L 305.243379 138.039186 
L 306.772844 136.919229 
L 308.30231 133.559349 
L 309.831775 132.999371 
L 311.361241 138.039186 
L 312.890706 141.39906 
L 314.420172 140.279103 
L 315.949637 132.999371 
L 317.479103 136.359249 
L 319.008568 131.319429 
L 320.538034 139.719123 
L 322.067499 135.23929 
L 323.596965 139.719123 
L 325.12643 138.039186 
L 326.655896 140.839084 
L 328.185361 135.239291 
L 329.714827 129.079513 
L 331.244292 138.599163 
L 332.773758 137.479205 
L 334.303224 140.839084 
L 335.832689 141.399062 
L 337.362155 139.719124 
L 338.89162 139.719121 
L 340.421086 139.159145 
L 341.950551 146.438875 
L 343.480017 146.438877 
L 345.009482 143.079 
L 346.538948 141.399061 
L 348.068413 136.359245 
L 349.597879 143.638978 
L 352.65681 139.159144 
L 354.186275 136.359246 
L 355.715741 139.159144 
L 357.245206 136.359247 
L 358.774672 139.159142 
L 360.304137 142.519021 
L 361.833603 138.599162 
L 363.363068 126.839595 
L 363.363068 126.839595 
" style="fill:none;stroke:#d62728;stroke-linecap:square;stroke-width:1.5;"/>
   </g>
   <g id="patch_3">
    <path d="M 43.78125 224.64 
L 43.78125 7.2 
" style="fill:none;stroke:#000000;stroke-linecap:square;stroke-linejoin:miter;stroke-width:0.8;"/>
   </g>
   <g id="patch_4">
    <path d="M 378.58125 224.64 
L 378.58125 7.2 
" style="fill:none;stroke:#000000;stroke-linecap:square;stroke-linejoin:miter;stroke-width:0.8;"/>
   </g>
   <g id="patch_5">
    <path d="M 43.78125 224.64 
L 378.58125 224.64 
" style="fill:none;stroke:#000000;stroke-linecap:square;stroke-linejoin:miter;stroke-width:0.8;"/>
   </g>
   <g id="patch_6">
    <path d="M 43.78125 7.2 
L 378.58125 7.2 
" style="fill:none;stroke:#000000;stroke-linecap:square;stroke-linejoin:miter;stroke-width:0.8;"/>
   </g>
   <g id="legend_1">
    <g id="patch_7">
     <path d="M 50.78125 75.025 
L 227.246875 75.025 
Q 229.246875 75.025 229.246875 73.025 
L 229.246875 14.2 
Q 229.246875 12.2 227.246875 12.2 
L 50.78125 12.2 
Q 48.78125 12.2 48.78125 14.2 
L 48.78125 73.025 
Q 48.78125 75.025 50.78125 75.025 
z
" style="fill:#ffffff;opacity:0.8;stroke:#cccccc;stroke-linejoin:miter;"/>
    </g>
    <g id="line2d_22">
     <path d="M 52.78125 20.298437 
L 72.78125 20.298437 
" style="fill:none;stroke:#1f77b4;stroke-linecap:square;stroke-width:1.5;"/>
    </g>
    <g id="line2d_23"/>
    <g id="text_20">
     <!-- segnet_bce_score_val -->
     <g transform="translate(80.78125 23.798437)scale(0.1 -0.1)">
      <defs>
       <path d="M 45.40625 27.984375 
Q 45.40625 37.75 41.375 43.109375 
Q 37.359375 48.484375 30.078125 48.484375 
Q 22.859375 48.484375 18.828125 43.109375 
Q 14.796875 37.75 14.796875 27.984375 
Q 14.796875 18.265625 18.828125 12.890625 
Q 22.859375 7.515625 30.078125 7.515625 
Q 37.359375 7.515625 41.375 12.890625 
Q 45.40625 18.265625 45.40625 27.984375 
z
M 54.390625 6.78125 
Q 54.390625 -7.171875 48.1875 -13.984375 
Q 42 -20.796875 29.203125 -20.796875 
Q 24.46875 -20.796875 20.265625 -20.09375 
Q 16.0625 -19.390625 12.109375 -17.921875 
L 12.109375 -9.1875 
Q 16.0625 -11.328125 19.921875 -12.34375 
Q 23.78125 -13.375 27.78125 -13.375 
Q 36.625 -13.375 41.015625 -8.765625 
Q 45.40625 -4.15625 45.40625 5.171875 
L 45.40625 9.625 
Q 42.625 4.78125 38.28125 2.390625 
Q 33.9375 0 27.875 0 
Q 17.828125 0 11.671875 7.65625 
Q 5.515625 15.328125 5.515625 27.984375 
Q 5.515625 40.671875 11.671875 48.328125 
Q 17.828125 56 27.875 56 
Q 33.9375 56 38.28125 53.609375 
Q 42.625 51.21875 45.40625 46.390625 
L 45.40625 54.6875 
L 54.390625 54.6875 
z
" id="DejaVuSans-103"/>
       <path d="M 54.890625 33.015625 
L 54.890625 0 
L 45.90625 0 
L 45.90625 32.71875 
Q 45.90625 40.484375 42.875 44.328125 
Q 39.84375 48.1875 33.796875 48.1875 
Q 26.515625 48.1875 22.3125 43.546875 
Q 18.109375 38.921875 18.109375 30.90625 
L 18.109375 0 
L 9.078125 0 
L 9.078125 54.6875 
L 18.109375 54.6875 
L 18.109375 46.1875 
Q 21.34375 51.125 25.703125 53.5625 
Q 30.078125 56 35.796875 56 
Q 45.21875 56 50.046875 50.171875 
Q 54.890625 44.34375 54.890625 33.015625 
z
" id="DejaVuSans-110"/>
       <path d="M 18.3125 70.21875 
L 18.3125 54.6875 
L 36.8125 54.6875 
L 36.8125 47.703125 
L 18.3125 47.703125 
L 18.3125 18.015625 
Q 18.3125 11.328125 20.140625 9.421875 
Q 21.96875 7.515625 27.59375 7.515625 
L 36.8125 7.515625 
L 36.8125 0 
L 27.59375 0 
Q 17.1875 0 13.234375 3.875 
Q 9.28125 7.765625 9.28125 18.015625 
L 9.28125 47.703125 
L 2.6875 47.703125 
L 2.6875 54.6875 
L 9.28125 54.6875 
L 9.28125 70.21875 
z
" id="DejaVuSans-116"/>
       <path d="M 50.984375 -16.609375 
L 50.984375 -23.578125 
L -0.984375 -23.578125 
L -0.984375 -16.609375 
z
" id="DejaVuSans-95"/>
       <path d="M 48.6875 27.296875 
Q 48.6875 37.203125 44.609375 42.84375 
Q 40.53125 48.484375 33.40625 48.484375 
Q 26.265625 48.484375 22.1875 42.84375 
Q 18.109375 37.203125 18.109375 27.296875 
Q 18.109375 17.390625 22.1875 11.75 
Q 26.265625 6.109375 33.40625 6.109375 
Q 40.53125 6.109375 44.609375 11.75 
Q 48.6875 17.390625 48.6875 27.296875 
z
M 18.109375 46.390625 
Q 20.953125 51.265625 25.265625 53.625 
Q 29.59375 56 35.59375 56 
Q 45.5625 56 51.78125 48.09375 
Q 58.015625 40.1875 58.015625 27.296875 
Q 58.015625 14.40625 51.78125 6.484375 
Q 45.5625 -1.421875 35.59375 -1.421875 
Q 29.59375 -1.421875 25.265625 0.953125 
Q 20.953125 3.328125 18.109375 8.203125 
L 18.109375 0 
L 9.078125 0 
L 9.078125 75.984375 
L 18.109375 75.984375 
z
" id="DejaVuSans-98"/>
       <path d="M 2.984375 54.6875 
L 12.5 54.6875 
L 29.59375 8.796875 
L 46.6875 54.6875 
L 56.203125 54.6875 
L 35.6875 0 
L 23.484375 0 
z
" id="DejaVuSans-118"/>
       <path d="M 34.28125 27.484375 
Q 23.390625 27.484375 19.1875 25 
Q 14.984375 22.515625 14.984375 16.5 
Q 14.984375 11.71875 18.140625 8.90625 
Q 21.296875 6.109375 26.703125 6.109375 
Q 34.1875 6.109375 38.703125 11.40625 
Q 43.21875 16.703125 43.21875 25.484375 
L 43.21875 27.484375 
z
M 52.203125 31.203125 
L 52.203125 0 
L 43.21875 0 
L 43.21875 8.296875 
Q 40.140625 3.328125 35.546875 0.953125 
Q 30.953125 -1.421875 24.3125 -1.421875 
Q 15.921875 -1.421875 10.953125 3.296875 
Q 6 8.015625 6 15.921875 
Q 6 25.140625 12.171875 29.828125 
Q 18.359375 34.515625 30.609375 34.515625 
L 43.21875 34.515625 
L 43.21875 35.40625 
Q 43.21875 41.609375 39.140625 45 
Q 35.0625 48.390625 27.6875 48.390625 
Q 23 48.390625 18.546875 47.265625 
Q 14.109375 46.140625 10.015625 43.890625 
L 10.015625 52.203125 
Q 14.9375 54.109375 19.578125 55.046875 
Q 24.21875 56 28.609375 56 
Q 40.484375 56 46.34375 49.84375 
Q 52.203125 43.703125 52.203125 31.203125 
z
" id="DejaVuSans-97"/>
       <path d="M 9.421875 75.984375 
L 18.40625 75.984375 
L 18.40625 0 
L 9.421875 0 
z
" id="DejaVuSans-108"/>
      </defs>
      <use xlink:href="#DejaVuSans-115"/>
      <use x="52.099609" xlink:href="#DejaVuSans-101"/>
      <use x="113.623047" xlink:href="#DejaVuSans-103"/>
      <use x="177.099609" xlink:href="#DejaVuSans-110"/>
      <use x="240.478516" xlink:href="#DejaVuSans-101"/>
      <use x="302.001953" xlink:href="#DejaVuSans-116"/>
      <use x="341.210938" xlink:href="#DejaVuSans-95"/>
      <use x="391.210938" xlink:href="#DejaVuSans-98"/>
      <use x="454.6875" xlink:href="#DejaVuSans-99"/>
      <use x="509.667969" xlink:href="#DejaVuSans-101"/>
      <use x="571.191406" xlink:href="#DejaVuSans-95"/>
      <use x="621.191406" xlink:href="#DejaVuSans-115"/>
      <use x="673.291016" xlink:href="#DejaVuSans-99"/>
      <use x="728.271484" xlink:href="#DejaVuSans-111"/>
      <use x="789.453125" xlink:href="#DejaVuSans-114"/>
      <use x="828.316406" xlink:href="#DejaVuSans-101"/>
      <use x="889.839844" xlink:href="#DejaVuSans-95"/>
      <use x="939.839844" xlink:href="#DejaVuSans-118"/>
      <use x="999.019531" xlink:href="#DejaVuSans-97"/>
      <use x="1060.298828" xlink:href="#DejaVuSans-108"/>
     </g>
    </g>
    <g id="line2d_24">
     <path d="M 52.78125 35.254687 
L 72.78125 35.254687 
" style="fill:none;stroke:#ff7f0e;stroke-linecap:square;stroke-width:1.5;"/>
    </g>
    <g id="line2d_25"/>
    <g id="text_21">
     <!-- segnet_dice_score_val -->
     <g transform="translate(80.78125 38.754687)scale(0.1 -0.1)">
      <defs>
       <path d="M 45.40625 46.390625 
L 45.40625 75.984375 
L 54.390625 75.984375 
L 54.390625 0 
L 45.40625 0 
L 45.40625 8.203125 
Q 42.578125 3.328125 38.25 0.953125 
Q 33.9375 -1.421875 27.875 -1.421875 
Q 17.96875 -1.421875 11.734375 6.484375 
Q 5.515625 14.40625 5.515625 27.296875 
Q 5.515625 40.1875 11.734375 48.09375 
Q 17.96875 56 27.875 56 
Q 33.9375 56 38.25 53.625 
Q 42.578125 51.265625 45.40625 46.390625 
z
M 14.796875 27.296875 
Q 14.796875 17.390625 18.875 11.75 
Q 22.953125 6.109375 30.078125 6.109375 
Q 37.203125 6.109375 41.296875 11.75 
Q 45.40625 17.390625 45.40625 27.296875 
Q 45.40625 37.203125 41.296875 42.84375 
Q 37.203125 48.484375 30.078125 48.484375 
Q 22.953125 48.484375 18.875 42.84375 
Q 14.796875 37.203125 14.796875 27.296875 
z
" id="DejaVuSans-100"/>
       <path d="M 9.421875 54.6875 
L 18.40625 54.6875 
L 18.40625 0 
L 9.421875 0 
z
M 9.421875 75.984375 
L 18.40625 75.984375 
L 18.40625 64.59375 
L 9.421875 64.59375 
z
" id="DejaVuSans-105"/>
      </defs>
      <use xlink:href="#DejaVuSans-115"/>
      <use x="52.099609" xlink:href="#DejaVuSans-101"/>
      <use x="113.623047" xlink:href="#DejaVuSans-103"/>
      <use x="177.099609" xlink:href="#DejaVuSans-110"/>
      <use x="240.478516" xlink:href="#DejaVuSans-101"/>
      <use x="302.001953" xlink:href="#DejaVuSans-116"/>
      <use x="341.210938" xlink:href="#DejaVuSans-95"/>
      <use x="391.210938" xlink:href="#DejaVuSans-100"/>
      <use x="454.6875" xlink:href="#DejaVuSans-105"/>
      <use x="482.470703" xlink:href="#DejaVuSans-99"/>
      <use x="537.451172" xlink:href="#DejaVuSans-101"/>
      <use x="598.974609" xlink:href="#DejaVuSans-95"/>
      <use x="648.974609" xlink:href="#DejaVuSans-115"/>
      <use x="701.074219" xlink:href="#DejaVuSans-99"/>
      <use x="756.054688" xlink:href="#DejaVuSans-111"/>
      <use x="817.236328" xlink:href="#DejaVuSans-114"/>
      <use x="856.099609" xlink:href="#DejaVuSans-101"/>
      <use x="917.623047" xlink:href="#DejaVuSans-95"/>
      <use x="967.623047" xlink:href="#DejaVuSans-118"/>
      <use x="1026.802734" xlink:href="#DejaVuSans-97"/>
      <use x="1088.082031" xlink:href="#DejaVuSans-108"/>
     </g>
    </g>
    <g id="line2d_26">
     <path d="M 52.78125 50.210937 
L 72.78125 50.210937 
" style="fill:none;stroke:#2ca02c;stroke-linecap:square;stroke-width:1.5;"/>
    </g>
    <g id="line2d_27"/>
    <g id="text_22">
     <!-- segnet_focal_score_val -->
     <g transform="translate(80.78125 53.710937)scale(0.1 -0.1)">
      <defs>
       <path d="M 37.109375 75.984375 
L 37.109375 68.5 
L 28.515625 68.5 
Q 23.6875 68.5 21.796875 66.546875 
Q 19.921875 64.59375 19.921875 59.515625 
L 19.921875 54.6875 
L 34.71875 54.6875 
L 34.71875 47.703125 
L 19.921875 47.703125 
L 19.921875 0 
L 10.890625 0 
L 10.890625 47.703125 
L 2.296875 47.703125 
L 2.296875 54.6875 
L 10.890625 54.6875 
L 10.890625 58.5 
Q 10.890625 67.625 15.140625 71.796875 
Q 19.390625 75.984375 28.609375 75.984375 
z
" id="DejaVuSans-102"/>
      </defs>
      <use xlink:href="#DejaVuSans-115"/>
      <use x="52.099609" xlink:href="#DejaVuSans-101"/>
      <use x="113.623047" xlink:href="#DejaVuSans-103"/>
      <use x="177.099609" xlink:href="#DejaVuSans-110"/>
      <use x="240.478516" xlink:href="#DejaVuSans-101"/>
      <use x="302.001953" xlink:href="#DejaVuSans-116"/>
      <use x="341.210938" xlink:href="#DejaVuSans-95"/>
      <use x="391.210938" xlink:href="#DejaVuSans-102"/>
      <use x="426.416016" xlink:href="#DejaVuSans-111"/>
      <use x="487.597656" xlink:href="#DejaVuSans-99"/>
      <use x="542.578125" xlink:href="#DejaVuSans-97"/>
      <use x="603.857422" xlink:href="#DejaVuSans-108"/>
      <use x="631.640625" xlink:href="#DejaVuSans-95"/>
      <use x="681.640625" xlink:href="#DejaVuSans-115"/>
      <use x="733.740234" xlink:href="#DejaVuSans-99"/>
      <use x="788.720703" xlink:href="#DejaVuSans-111"/>
      <use x="849.902344" xlink:href="#DejaVuSans-114"/>
      <use x="888.765625" xlink:href="#DejaVuSans-101"/>
      <use x="950.289062" xlink:href="#DejaVuSans-95"/>
      <use x="1000.289062" xlink:href="#DejaVuSans-118"/>
      <use x="1059.46875" xlink:href="#DejaVuSans-97"/>
      <use x="1120.748047" xlink:href="#DejaVuSans-108"/>
     </g>
    </g>
    <g id="line2d_28">
     <path d="M 52.78125 65.167187 
L 72.78125 65.167187 
" style="fill:none;stroke:#d62728;stroke-linecap:square;stroke-width:1.5;"/>
    </g>
    <g id="line2d_29"/>
    <g id="text_23">
     <!-- segnet_correlation_score_val -->
     <g transform="translate(80.78125 68.667187)scale(0.1 -0.1)">
      <use xlink:href="#DejaVuSans-115"/>
      <use x="52.099609" xlink:href="#DejaVuSans-101"/>
      <use x="113.623047" xlink:href="#DejaVuSans-103"/>
      <use x="177.099609" xlink:href="#DejaVuSans-110"/>
      <use x="240.478516" xlink:href="#DejaVuSans-101"/>
      <use x="302.001953" xlink:href="#DejaVuSans-116"/>
      <use x="341.210938" xlink:href="#DejaVuSans-95"/>
      <use x="391.210938" xlink:href="#DejaVuSans-99"/>
      <use x="446.191406" xlink:href="#DejaVuSans-111"/>
      <use x="507.373047" xlink:href="#DejaVuSans-114"/>
      <use x="546.736328" xlink:href="#DejaVuSans-114"/>
      <use x="585.599609" xlink:href="#DejaVuSans-101"/>
      <use x="647.123047" xlink:href="#DejaVuSans-108"/>
      <use x="674.90625" xlink:href="#DejaVuSans-97"/>
      <use x="736.185547" xlink:href="#DejaVuSans-116"/>
      <use x="775.394531" xlink:href="#DejaVuSans-105"/>
      <use x="803.177734" xlink:href="#DejaVuSans-111"/>
      <use x="864.359375" xlink:href="#DejaVuSans-110"/>
      <use x="927.738281" xlink:href="#DejaVuSans-95"/>
      <use x="977.738281" xlink:href="#DejaVuSans-115"/>
      <use x="1029.837891" xlink:href="#DejaVuSans-99"/>
      <use x="1084.818359" xlink:href="#DejaVuSans-111"/>
      <use x="1146" xlink:href="#DejaVuSans-114"/>
      <use x="1184.863281" xlink:href="#DejaVuSans-101"/>
      <use x="1246.386719" xlink:href="#DejaVuSans-95"/>
      <use x="1296.386719" xlink:href="#DejaVuSans-118"/>
      <use x="1355.566406" xlink:href="#DejaVuSans-97"/>
      <use x="1416.845703" xlink:href="#DejaVuSans-108"/>
     </g>
    </g>
   </g>
  </g>
 </g>
 <defs>
  <clipPath id="p4be0c85ca3">
   <rect height="217.44" width="334.8" x="43.78125" y="7.2"/>
  </clipPath>
 </defs>
</svg>
