<?xml version="1.0" encoding="utf-8" standalone="no"?>
<!DOCTYPE svg PUBLIC "-//W3C//DTD SVG 1.1//EN"
  "http://www.w3.org/Graphics/SVG/1.1/DTD/svg11.dtd">
<!-- Created with matplotlib (https://matplotlib.org/) -->
<svg height="262.19625pt" version="1.1" viewBox="0 0 385.78125 262.19625" width="385.78125pt" xmlns="http://www.w3.org/2000/svg" xmlns:xlink="http://www.w3.org/1999/xlink">
 <metadata>
  <rdf:RDF xmlns:cc="http://creativecommons.org/ns#" xmlns:dc="http://purl.org/dc/elements/1.1/" xmlns:rdf="http://www.w3.org/1999/02/22-rdf-syntax-ns#">
   <cc:Work>
    <dc:type rdf:resource="http://purl.org/dc/dcmitype/StillImage"/>
    <dc:date>2020-12-16T14:54:30.047632</dc:date>
    <dc:format>image/svg+xml</dc:format>
    <dc:creator>
     <cc:Agent>
      <dc:title>Matplotlib v3.3.3, https://matplotlib.org/</dc:title>
     </cc:Agent>
    </dc:creator>
   </cc:Work>
  </rdf:RDF>
 </metadata>
 <defs>
  <style type="text/css">*{stroke-linecap:butt;stroke-linejoin:round;}</style>
 </defs>
 <g id="figure_1">
  <g id="patch_1">
   <path d="M 0 262.19625 
L 385.78125 262.19625 
L 385.78125 0 
L 0 0 
z
" style="fill:none;"/>
  </g>
  <g id="axes_1">
   <g id="patch_2">
    <path d="M 43.78125 224.64 
L 378.58125 224.64 
L 378.58125 7.2 
L 43.78125 7.2 
z
" style="fill:#ffffff;"/>
   </g>
   <g id="matplotlib.axis_1">
    <g id="xtick_1">
     <g id="line2d_1">
      <defs>
       <path d="M 0 0 
L 0 3.5 
" id="mf87f0d80c1" style="stroke:#000000;stroke-width:0.8;"/>
      </defs>
      <g>
       <use style="stroke:#000000;stroke-width:0.8;" x="58.999432" xlink:href="#mf87f0d80c1" y="224.64"/>
      </g>
     </g>
     <g id="text_1">
      <!-- 0 -->
      <g transform="translate(55.818182 239.238437)scale(0.1 -0.1)">
       <defs>
        <path d="M 31.78125 66.40625 
Q 24.171875 66.40625 20.328125 58.90625 
Q 16.5 51.421875 16.5 36.375 
Q 16.5 21.390625 20.328125 13.890625 
Q 24.171875 6.390625 31.78125 6.390625 
Q 39.453125 6.390625 43.28125 13.890625 
Q 47.125 21.390625 47.125 36.375 
Q 47.125 51.421875 43.28125 58.90625 
Q 39.453125 66.40625 31.78125 66.40625 
z
M 31.78125 74.21875 
Q 44.046875 74.21875 50.515625 64.515625 
Q 56.984375 54.828125 56.984375 36.375 
Q 56.984375 17.96875 50.515625 8.265625 
Q 44.046875 -1.421875 31.78125 -1.421875 
Q 19.53125 -1.421875 13.0625 8.265625 
Q 6.59375 17.96875 6.59375 36.375 
Q 6.59375 54.828125 13.0625 64.515625 
Q 19.53125 74.21875 31.78125 74.21875 
z
" id="DejaVuSans-48"/>
       </defs>
       <use xlink:href="#DejaVuSans-48"/>
      </g>
     </g>
    </g>
    <g id="xtick_2">
     <g id="line2d_2">
      <g>
       <use style="stroke:#000000;stroke-width:0.8;" x="97.23607" xlink:href="#mf87f0d80c1" y="224.64"/>
      </g>
     </g>
     <g id="text_2">
      <!-- 25 -->
      <g transform="translate(90.87357 239.238437)scale(0.1 -0.1)">
       <defs>
        <path d="M 19.1875 8.296875 
L 53.609375 8.296875 
L 53.609375 0 
L 7.328125 0 
L 7.328125 8.296875 
Q 12.9375 14.109375 22.625 23.890625 
Q 32.328125 33.6875 34.8125 36.53125 
Q 39.546875 41.84375 41.421875 45.53125 
Q 43.3125 49.21875 43.3125 52.78125 
Q 43.3125 58.59375 39.234375 62.25 
Q 35.15625 65.921875 28.609375 65.921875 
Q 23.96875 65.921875 18.8125 64.3125 
Q 13.671875 62.703125 7.8125 59.421875 
L 7.8125 69.390625 
Q 13.765625 71.78125 18.9375 73 
Q 24.125 74.21875 28.421875 74.21875 
Q 39.75 74.21875 46.484375 68.546875 
Q 53.21875 62.890625 53.21875 53.421875 
Q 53.21875 48.921875 51.53125 44.890625 
Q 49.859375 40.875 45.40625 35.40625 
Q 44.1875 33.984375 37.640625 27.21875 
Q 31.109375 20.453125 19.1875 8.296875 
z
" id="DejaVuSans-50"/>
        <path d="M 10.796875 72.90625 
L 49.515625 72.90625 
L 49.515625 64.59375 
L 19.828125 64.59375 
L 19.828125 46.734375 
Q 21.96875 47.46875 24.109375 47.828125 
Q 26.265625 48.1875 28.421875 48.1875 
Q 40.625 48.1875 47.75 41.5 
Q 54.890625 34.8125 54.890625 23.390625 
Q 54.890625 11.625 47.5625 5.09375 
Q 40.234375 -1.421875 26.90625 -1.421875 
Q 22.3125 -1.421875 17.546875 -0.640625 
Q 12.796875 0.140625 7.71875 1.703125 
L 7.71875 11.625 
Q 12.109375 9.234375 16.796875 8.0625 
Q 21.484375 6.890625 26.703125 6.890625 
Q 35.15625 6.890625 40.078125 11.328125 
Q 45.015625 15.765625 45.015625 23.390625 
Q 45.015625 31 40.078125 35.4375 
Q 35.15625 39.890625 26.703125 39.890625 
Q 22.75 39.890625 18.8125 39.015625 
Q 14.890625 38.140625 10.796875 36.28125 
z
" id="DejaVuSans-53"/>
       </defs>
       <use xlink:href="#DejaVuSans-50"/>
       <use x="63.623047" xlink:href="#DejaVuSans-53"/>
      </g>
     </g>
    </g>
    <g id="xtick_3">
     <g id="line2d_3">
      <g>
       <use style="stroke:#000000;stroke-width:0.8;" x="135.472707" xlink:href="#mf87f0d80c1" y="224.64"/>
      </g>
     </g>
     <g id="text_3">
      <!-- 50 -->
      <g transform="translate(129.110207 239.238437)scale(0.1 -0.1)">
       <use xlink:href="#DejaVuSans-53"/>
       <use x="63.623047" xlink:href="#DejaVuSans-48"/>
      </g>
     </g>
    </g>
    <g id="xtick_4">
     <g id="line2d_4">
      <g>
       <use style="stroke:#000000;stroke-width:0.8;" x="173.709345" xlink:href="#mf87f0d80c1" y="224.64"/>
      </g>
     </g>
     <g id="text_4">
      <!-- 75 -->
      <g transform="translate(167.346845 239.238437)scale(0.1 -0.1)">
       <defs>
        <path d="M 8.203125 72.90625 
L 55.078125 72.90625 
L 55.078125 68.703125 
L 28.609375 0 
L 18.3125 0 
L 43.21875 64.59375 
L 8.203125 64.59375 
z
" id="DejaVuSans-55"/>
       </defs>
       <use xlink:href="#DejaVuSans-55"/>
       <use x="63.623047" xlink:href="#DejaVuSans-53"/>
      </g>
     </g>
    </g>
    <g id="xtick_5">
     <g id="line2d_5">
      <g>
       <use style="stroke:#000000;stroke-width:0.8;" x="211.945983" xlink:href="#mf87f0d80c1" y="224.64"/>
      </g>
     </g>
     <g id="text_5">
      <!-- 100 -->
      <g transform="translate(202.402233 239.238437)scale(0.1 -0.1)">
       <defs>
        <path d="M 12.40625 8.296875 
L 28.515625 8.296875 
L 28.515625 63.921875 
L 10.984375 60.40625 
L 10.984375 69.390625 
L 28.421875 72.90625 
L 38.28125 72.90625 
L 38.28125 8.296875 
L 54.390625 8.296875 
L 54.390625 0 
L 12.40625 0 
z
" id="DejaVuSans-49"/>
       </defs>
       <use xlink:href="#DejaVuSans-49"/>
       <use x="63.623047" xlink:href="#DejaVuSans-48"/>
       <use x="127.246094" xlink:href="#DejaVuSans-48"/>
      </g>
     </g>
    </g>
    <g id="xtick_6">
     <g id="line2d_6">
      <g>
       <use style="stroke:#000000;stroke-width:0.8;" x="250.18262" xlink:href="#mf87f0d80c1" y="224.64"/>
      </g>
     </g>
     <g id="text_6">
      <!-- 125 -->
      <g transform="translate(240.63887 239.238437)scale(0.1 -0.1)">
       <use xlink:href="#DejaVuSans-49"/>
       <use x="63.623047" xlink:href="#DejaVuSans-50"/>
       <use x="127.246094" xlink:href="#DejaVuSans-53"/>
      </g>
     </g>
    </g>
    <g id="xtick_7">
     <g id="line2d_7">
      <g>
       <use style="stroke:#000000;stroke-width:0.8;" x="288.419258" xlink:href="#mf87f0d80c1" y="224.64"/>
      </g>
     </g>
     <g id="text_7">
      <!-- 150 -->
      <g transform="translate(278.875508 239.238437)scale(0.1 -0.1)">
       <use xlink:href="#DejaVuSans-49"/>
       <use x="63.623047" xlink:href="#DejaVuSans-53"/>
       <use x="127.246094" xlink:href="#DejaVuSans-48"/>
      </g>
     </g>
    </g>
    <g id="xtick_8">
     <g id="line2d_8">
      <g>
       <use style="stroke:#000000;stroke-width:0.8;" x="326.655896" xlink:href="#mf87f0d80c1" y="224.64"/>
      </g>
     </g>
     <g id="text_8">
      <!-- 175 -->
      <g transform="translate(317.112146 239.238437)scale(0.1 -0.1)">
       <use xlink:href="#DejaVuSans-49"/>
       <use x="63.623047" xlink:href="#DejaVuSans-55"/>
       <use x="127.246094" xlink:href="#DejaVuSans-53"/>
      </g>
     </g>
    </g>
    <g id="xtick_9">
     <g id="line2d_9">
      <g>
       <use style="stroke:#000000;stroke-width:0.8;" x="364.892534" xlink:href="#mf87f0d80c1" y="224.64"/>
      </g>
     </g>
     <g id="text_9">
      <!-- 200 -->
      <g transform="translate(355.348784 239.238437)scale(0.1 -0.1)">
       <use xlink:href="#DejaVuSans-50"/>
       <use x="63.623047" xlink:href="#DejaVuSans-48"/>
       <use x="127.246094" xlink:href="#DejaVuSans-48"/>
      </g>
     </g>
    </g>
    <g id="text_10">
     <!-- epoch -->
     <g transform="translate(195.953125 252.916562)scale(0.1 -0.1)">
      <defs>
       <path d="M 56.203125 29.59375 
L 56.203125 25.203125 
L 14.890625 25.203125 
Q 15.484375 15.921875 20.484375 11.0625 
Q 25.484375 6.203125 34.421875 6.203125 
Q 39.59375 6.203125 44.453125 7.46875 
Q 49.3125 8.734375 54.109375 11.28125 
L 54.109375 2.78125 
Q 49.265625 0.734375 44.1875 -0.34375 
Q 39.109375 -1.421875 33.890625 -1.421875 
Q 20.796875 -1.421875 13.15625 6.1875 
Q 5.515625 13.8125 5.515625 26.8125 
Q 5.515625 40.234375 12.765625 48.109375 
Q 20.015625 56 32.328125 56 
Q 43.359375 56 49.78125 48.890625 
Q 56.203125 41.796875 56.203125 29.59375 
z
M 47.21875 32.234375 
Q 47.125 39.59375 43.09375 43.984375 
Q 39.0625 48.390625 32.421875 48.390625 
Q 24.90625 48.390625 20.390625 44.140625 
Q 15.875 39.890625 15.1875 32.171875 
z
" id="DejaVuSans-101"/>
       <path d="M 18.109375 8.203125 
L 18.109375 -20.796875 
L 9.078125 -20.796875 
L 9.078125 54.6875 
L 18.109375 54.6875 
L 18.109375 46.390625 
Q 20.953125 51.265625 25.265625 53.625 
Q 29.59375 56 35.59375 56 
Q 45.5625 56 51.78125 48.09375 
Q 58.015625 40.1875 58.015625 27.296875 
Q 58.015625 14.40625 51.78125 6.484375 
Q 45.5625 -1.421875 35.59375 -1.421875 
Q 29.59375 -1.421875 25.265625 0.953125 
Q 20.953125 3.328125 18.109375 8.203125 
z
M 48.6875 27.296875 
Q 48.6875 37.203125 44.609375 42.84375 
Q 40.53125 48.484375 33.40625 48.484375 
Q 26.265625 48.484375 22.1875 42.84375 
Q 18.109375 37.203125 18.109375 27.296875 
Q 18.109375 17.390625 22.1875 11.75 
Q 26.265625 6.109375 33.40625 6.109375 
Q 40.53125 6.109375 44.609375 11.75 
Q 48.6875 17.390625 48.6875 27.296875 
z
" id="DejaVuSans-112"/>
       <path d="M 30.609375 48.390625 
Q 23.390625 48.390625 19.1875 42.75 
Q 14.984375 37.109375 14.984375 27.296875 
Q 14.984375 17.484375 19.15625 11.84375 
Q 23.34375 6.203125 30.609375 6.203125 
Q 37.796875 6.203125 41.984375 11.859375 
Q 46.1875 17.53125 46.1875 27.296875 
Q 46.1875 37.015625 41.984375 42.703125 
Q 37.796875 48.390625 30.609375 48.390625 
z
M 30.609375 56 
Q 42.328125 56 49.015625 48.375 
Q 55.71875 40.765625 55.71875 27.296875 
Q 55.71875 13.875 49.015625 6.21875 
Q 42.328125 -1.421875 30.609375 -1.421875 
Q 18.84375 -1.421875 12.171875 6.21875 
Q 5.515625 13.875 5.515625 27.296875 
Q 5.515625 40.765625 12.171875 48.375 
Q 18.84375 56 30.609375 56 
z
" id="DejaVuSans-111"/>
       <path d="M 48.78125 52.59375 
L 48.78125 44.1875 
Q 44.96875 46.296875 41.140625 47.34375 
Q 37.3125 48.390625 33.40625 48.390625 
Q 24.65625 48.390625 19.8125 42.84375 
Q 14.984375 37.3125 14.984375 27.296875 
Q 14.984375 17.28125 19.8125 11.734375 
Q 24.65625 6.203125 33.40625 6.203125 
Q 37.3125 6.203125 41.140625 7.25 
Q 44.96875 8.296875 48.78125 10.40625 
L 48.78125 2.09375 
Q 45.015625 0.34375 40.984375 -0.53125 
Q 36.96875 -1.421875 32.421875 -1.421875 
Q 20.0625 -1.421875 12.78125 6.34375 
Q 5.515625 14.109375 5.515625 27.296875 
Q 5.515625 40.671875 12.859375 48.328125 
Q 20.21875 56 33.015625 56 
Q 37.15625 56 41.109375 55.140625 
Q 45.0625 54.296875 48.78125 52.59375 
z
" id="DejaVuSans-99"/>
       <path d="M 54.890625 33.015625 
L 54.890625 0 
L 45.90625 0 
L 45.90625 32.71875 
Q 45.90625 40.484375 42.875 44.328125 
Q 39.84375 48.1875 33.796875 48.1875 
Q 26.515625 48.1875 22.3125 43.546875 
Q 18.109375 38.921875 18.109375 30.90625 
L 18.109375 0 
L 9.078125 0 
L 9.078125 75.984375 
L 18.109375 75.984375 
L 18.109375 46.1875 
Q 21.34375 51.125 25.703125 53.5625 
Q 30.078125 56 35.796875 56 
Q 45.21875 56 50.046875 50.171875 
Q 54.890625 44.34375 54.890625 33.015625 
z
" id="DejaVuSans-104"/>
      </defs>
      <use xlink:href="#DejaVuSans-101"/>
      <use x="61.523438" xlink:href="#DejaVuSans-112"/>
      <use x="125" xlink:href="#DejaVuSans-111"/>
      <use x="186.181641" xlink:href="#DejaVuSans-99"/>
      <use x="241.162109" xlink:href="#DejaVuSans-104"/>
     </g>
    </g>
   </g>
   <g id="matplotlib.axis_2">
    <g id="ytick_1">
     <g id="line2d_10">
      <defs>
       <path d="M 0 0 
L -3.5 0 
" id="mb27ab673e4" style="stroke:#000000;stroke-width:0.8;"/>
      </defs>
      <g>
       <use style="stroke:#000000;stroke-width:0.8;" x="43.78125" xlink:href="#mb27ab673e4" y="189.329583"/>
      </g>
     </g>
     <g id="text_11">
      <!-- 0.1 -->
      <g transform="translate(20.878125 193.128801)scale(0.1 -0.1)">
       <defs>
        <path d="M 10.6875 12.40625 
L 21 12.40625 
L 21 0 
L 10.6875 0 
z
" id="DejaVuSans-46"/>
       </defs>
       <use xlink:href="#DejaVuSans-48"/>
       <use x="63.623047" xlink:href="#DejaVuSans-46"/>
       <use x="95.410156" xlink:href="#DejaVuSans-49"/>
      </g>
     </g>
    </g>
    <g id="ytick_2">
     <g id="line2d_11">
      <g>
       <use style="stroke:#000000;stroke-width:0.8;" x="43.78125" xlink:href="#mb27ab673e4" y="148.318645"/>
      </g>
     </g>
     <g id="text_12">
      <!-- 0.2 -->
      <g transform="translate(20.878125 152.117863)scale(0.1 -0.1)">
       <use xlink:href="#DejaVuSans-48"/>
       <use x="63.623047" xlink:href="#DejaVuSans-46"/>
       <use x="95.410156" xlink:href="#DejaVuSans-50"/>
      </g>
     </g>
    </g>
    <g id="ytick_3">
     <g id="line2d_12">
      <g>
       <use style="stroke:#000000;stroke-width:0.8;" x="43.78125" xlink:href="#mb27ab673e4" y="107.307707"/>
      </g>
     </g>
     <g id="text_13">
      <!-- 0.3 -->
      <g transform="translate(20.878125 111.106925)scale(0.1 -0.1)">
       <defs>
        <path d="M 40.578125 39.3125 
Q 47.65625 37.796875 51.625 33 
Q 55.609375 28.21875 55.609375 21.1875 
Q 55.609375 10.40625 48.1875 4.484375 
Q 40.765625 -1.421875 27.09375 -1.421875 
Q 22.515625 -1.421875 17.65625 -0.515625 
Q 12.796875 0.390625 7.625 2.203125 
L 7.625 11.71875 
Q 11.71875 9.328125 16.59375 8.109375 
Q 21.484375 6.890625 26.8125 6.890625 
Q 36.078125 6.890625 40.9375 10.546875 
Q 45.796875 14.203125 45.796875 21.1875 
Q 45.796875 27.640625 41.28125 31.265625 
Q 36.765625 34.90625 28.71875 34.90625 
L 20.21875 34.90625 
L 20.21875 43.015625 
L 29.109375 43.015625 
Q 36.375 43.015625 40.234375 45.921875 
Q 44.09375 48.828125 44.09375 54.296875 
Q 44.09375 59.90625 40.109375 62.90625 
Q 36.140625 65.921875 28.71875 65.921875 
Q 24.65625 65.921875 20.015625 65.03125 
Q 15.375 64.15625 9.8125 62.3125 
L 9.8125 71.09375 
Q 15.4375 72.65625 20.34375 73.4375 
Q 25.25 74.21875 29.59375 74.21875 
Q 40.828125 74.21875 47.359375 69.109375 
Q 53.90625 64.015625 53.90625 55.328125 
Q 53.90625 49.265625 50.4375 45.09375 
Q 46.96875 40.921875 40.578125 39.3125 
z
" id="DejaVuSans-51"/>
       </defs>
       <use xlink:href="#DejaVuSans-48"/>
       <use x="63.623047" xlink:href="#DejaVuSans-46"/>
       <use x="95.410156" xlink:href="#DejaVuSans-51"/>
      </g>
     </g>
    </g>
    <g id="ytick_4">
     <g id="line2d_13">
      <g>
       <use style="stroke:#000000;stroke-width:0.8;" x="43.78125" xlink:href="#mb27ab673e4" y="66.296769"/>
      </g>
     </g>
     <g id="text_14">
      <!-- 0.4 -->
      <g transform="translate(20.878125 70.095987)scale(0.1 -0.1)">
       <defs>
        <path d="M 37.796875 64.3125 
L 12.890625 25.390625 
L 37.796875 25.390625 
z
M 35.203125 72.90625 
L 47.609375 72.90625 
L 47.609375 25.390625 
L 58.015625 25.390625 
L 58.015625 17.1875 
L 47.609375 17.1875 
L 47.609375 0 
L 37.796875 0 
L 37.796875 17.1875 
L 4.890625 17.1875 
L 4.890625 26.703125 
z
" id="DejaVuSans-52"/>
       </defs>
       <use xlink:href="#DejaVuSans-48"/>
       <use x="63.623047" xlink:href="#DejaVuSans-46"/>
       <use x="95.410156" xlink:href="#DejaVuSans-52"/>
      </g>
     </g>
    </g>
    <g id="ytick_5">
     <g id="line2d_14">
      <g>
       <use style="stroke:#000000;stroke-width:0.8;" x="43.78125" xlink:href="#mb27ab673e4" y="25.285831"/>
      </g>
     </g>
     <g id="text_15">
      <!-- 0.5 -->
      <g transform="translate(20.878125 29.08505)scale(0.1 -0.1)">
       <use xlink:href="#DejaVuSans-48"/>
       <use x="63.623047" xlink:href="#DejaVuSans-46"/>
       <use x="95.410156" xlink:href="#DejaVuSans-53"/>
      </g>
     </g>
    </g>
    <g id="text_16">
     <!-- score -->
     <g transform="translate(14.798438 129.352812)rotate(-90)scale(0.1 -0.1)">
      <defs>
       <path d="M 44.28125 53.078125 
L 44.28125 44.578125 
Q 40.484375 46.53125 36.375 47.5 
Q 32.28125 48.484375 27.875 48.484375 
Q 21.1875 48.484375 17.84375 46.4375 
Q 14.5 44.390625 14.5 40.28125 
Q 14.5 37.15625 16.890625 35.375 
Q 19.28125 33.59375 26.515625 31.984375 
L 29.59375 31.296875 
Q 39.15625 29.25 43.1875 25.515625 
Q 47.21875 21.78125 47.21875 15.09375 
Q 47.21875 7.46875 41.1875 3.015625 
Q 35.15625 -1.421875 24.609375 -1.421875 
Q 20.21875 -1.421875 15.453125 -0.5625 
Q 10.6875 0.296875 5.421875 2 
L 5.421875 11.28125 
Q 10.40625 8.6875 15.234375 7.390625 
Q 20.0625 6.109375 24.8125 6.109375 
Q 31.15625 6.109375 34.5625 8.28125 
Q 37.984375 10.453125 37.984375 14.40625 
Q 37.984375 18.0625 35.515625 20.015625 
Q 33.0625 21.96875 24.703125 23.78125 
L 21.578125 24.515625 
Q 13.234375 26.265625 9.515625 29.90625 
Q 5.8125 33.546875 5.8125 39.890625 
Q 5.8125 47.609375 11.28125 51.796875 
Q 16.75 56 26.8125 56 
Q 31.78125 56 36.171875 55.265625 
Q 40.578125 54.546875 44.28125 53.078125 
z
" id="DejaVuSans-115"/>
       <path d="M 41.109375 46.296875 
Q 39.59375 47.171875 37.8125 47.578125 
Q 36.03125 48 33.890625 48 
Q 26.265625 48 22.1875 43.046875 
Q 18.109375 38.09375 18.109375 28.8125 
L 18.109375 0 
L 9.078125 0 
L 9.078125 54.6875 
L 18.109375 54.6875 
L 18.109375 46.1875 
Q 20.953125 51.171875 25.484375 53.578125 
Q 30.03125 56 36.53125 56 
Q 37.453125 56 38.578125 55.875 
Q 39.703125 55.765625 41.0625 55.515625 
z
" id="DejaVuSans-114"/>
      </defs>
      <use xlink:href="#DejaVuSans-115"/>
      <use x="52.099609" xlink:href="#DejaVuSans-99"/>
      <use x="107.080078" xlink:href="#DejaVuSans-111"/>
      <use x="168.261719" xlink:href="#DejaVuSans-114"/>
      <use x="207.125" xlink:href="#DejaVuSans-101"/>
     </g>
    </g>
   </g>
   <g id="line2d_15">
    <path clip-path="url(#p9fd692ef32)" d="M 58.999432 197.941878 
L 60.528897 161.032031 
L 62.058363 146.678201 
L 63.587828 145.857985 
L 65.117294 156.110721 
L 66.646759 153.239956 
L 68.176225 156.110721 
L 69.70569 150.36919 
L 71.235156 151.599517 
L 72.764621 114.279563 
L 74.294087 138.065906 
L 75.823552 140.526566 
L 77.353018 124.532298 
L 78.882483 127.813172 
L 80.411949 120.021092 
L 81.941414 120.841311 
L 83.47088 99.925729 
L 85.000345 119.610985 
L 86.529811 113.869455 
L 88.059276 115.509891 
L 89.588742 124.942406 
L 91.118208 112.229015 
L 92.647673 117.150326 
L 94.177139 111.818907 
L 95.706604 114.279563 
L 97.23607 97.465079 
L 98.765535 107.717812 
L 100.295001 109.358251 
L 101.824466 113.459343 
L 103.353932 103.206606 
L 104.883397 113.869452 
L 106.412863 94.594312 
L 107.942328 107.71781 
L 109.471794 108.948138 
L 111.001259 113.869453 
L 112.530725 110.178467 
L 114.06019 100.335842 
L 115.589656 103.616717 
L 117.119121 95.004421 
L 118.648587 106.487484 
L 120.178052 101.976282 
L 121.707518 105.667265 
L 123.236983 124.532298 
L 124.766449 97.054968 
L 126.295914 113.049232 
L 127.82538 105.257156 
L 129.354845 104.02683 
L 130.884311 122.48175 
L 132.413776 93.774094 
L 133.943242 103.616718 
L 137.002173 87.62245 
L 138.531638 90.903324 
L 140.061104 109.358251 
L 141.590569 95.824639 
L 143.120035 79.010155 
L 144.6495 105.667264 
L 146.178966 125.352517 
L 147.708431 94.1842 
L 149.237897 104.436938 
L 150.767362 99.925736 
L 152.296828 92.543764 
L 153.826293 83.931461 
L 155.355759 97.875187 
L 156.885224 83.521353 
L 158.41469 76.139386 
L 159.944155 126.992956 
L 161.473621 98.285298 
L 163.003086 107.307705 
L 164.532552 114.27956 
L 166.062017 88.852781 
L 167.591483 76.139386 
L 169.120948 90.903323 
L 170.650414 85.161796 
L 172.17988 76.959606 
L 173.709345 75.729282 
L 175.238811 61.375449 
L 176.768276 88.032559 
L 178.297742 96.64486 
L 179.827207 84.341576 
L 181.356673 68.347311 
L 182.886138 76.549496 
L 184.415604 54.813704 
L 185.945069 54.813701 
L 187.474535 63.015888 
L 189.004 56.864245 
L 190.533466 76.139388 
L 192.062931 59.324901 
L 193.592397 74.49895 
L 195.121862 48.66206 
L 196.651328 72.038293 
L 198.180793 97.465075 
L 199.710259 84.751684 
L 201.239724 62.605778 
L 202.76919 71.628185 
L 204.298655 58.914799 
L 205.828121 66.706873 
L 207.357586 65.066433 
L 208.887052 61.785563 
L 210.416517 56.454138 
L 211.945983 61.78556 
L 213.475448 104.026829 
L 215.004914 59.324901 
L 216.534379 42.100305 
L 218.063845 57.274351 
L 219.59331 87.622455 
L 222.652241 69.577636 
L 224.181707 105.667262 
L 225.711172 110.178469 
L 227.240638 103.61672 
L 228.770103 75.729275 
L 230.299569 104.026828 
L 231.829034 89.262889 
L 233.3585 56.044024 
L 234.887965 65.476544 
L 236.417431 61.375455 
L 237.946896 50.712602 
L 239.476362 50.302493 
L 241.005827 60.555229 
L 242.535293 41.280091 
L 244.064758 52.353046 
L 245.594224 40.869978 
L 247.123689 42.920525 
L 248.653155 38.409326 
L 250.18262 49.482281 
L 251.712086 48.662055 
L 253.241552 55.223803 
L 254.771017 53.17326 
L 256.300483 54.813693 
L 257.829948 55.223811 
L 259.359414 58.094572 
L 260.888879 45.381182 
L 262.418345 47.021621 
L 263.94781 35.948672 
L 265.477276 35.948672 
L 267.006741 60.55523 
L 268.536207 37.99921 
L 270.065672 33.077897 
L 271.595138 40.869983 
L 273.124603 30.617247 
L 274.654069 36.768883 
L 276.183534 17.083636 
L 277.713 51.942936 
L 279.242465 41.690198 
L 280.771931 58.504681 
L 283.830862 35.128451 
L 285.360327 41.280092 
L 286.889793 49.892388 
L 288.419258 34.308229 
L 289.948724 35.12845 
L 291.478189 26.516149 
L 293.007655 38.409322 
L 294.53712 36.358776 
L 296.066586 24.87571 
L 297.596051 30.207135 
L 299.125517 35.128448 
L 300.654982 41.280089 
L 302.184448 40.86998 
L 303.713913 44.150854 
L 305.243379 39.63965 
L 306.772844 34.718342 
L 308.30231 22.004949 
L 309.831775 27.74648 
L 311.361241 46.201403 
L 312.890706 48.251948 
L 314.420172 42.100305 
L 315.949637 31.437463 
L 317.479103 34.308229 
L 319.008568 19.544293 
L 320.538034 29.79703 
L 322.067499 26.926262 
L 323.596965 33.077899 
L 325.12643 32.667796 
L 326.655896 36.768885 
L 328.185361 29.386921 
L 329.714827 25.285823 
L 331.244292 31.847573 
L 332.773758 30.207137 
L 334.303224 32.667795 
L 335.832689 33.89812 
L 337.362155 33.898122 
L 338.89162 30.207141 
L 341.950551 42.920521 
L 343.480017 37.99921 
L 345.009482 40.049758 
L 346.538948 41.28009 
L 348.068413 29.79702 
L 349.597879 44.971071 
L 351.127344 48.251951 
L 352.65681 29.386916 
L 354.186275 37.178993 
L 355.715741 36.768885 
L 357.245206 35.948667 
L 358.774672 29.797031 
L 360.304137 31.847571 
L 361.833603 27.746481 
L 363.363068 19.954403 
L 363.363068 19.954403 
" style="fill:none;stroke:#1f77b4;stroke-linecap:square;stroke-width:1.5;"/>
   </g>
   <g id="line2d_16">
    <path clip-path="url(#p9fd692ef32)" d="M 58.999432 214.756364 
L 60.528897 190.970019 
L 62.058363 177.846517 
L 63.587828 174.56564 
L 65.117294 178.666737 
L 66.646759 178.666737 
L 68.176225 180.307175 
L 69.70569 172.925206 
L 71.235156 180.307175 
L 72.764621 118.790766 
L 74.294087 152.419738 
L 75.823552 153.239955 
L 77.353018 134.374922 
L 78.882483 135.195142 
L 80.411949 120.431204 
L 81.941414 126.992949 
L 83.47088 114.68967 
L 85.000345 133.554703 
L 86.529811 114.689672 
L 88.059276 118.790763 
L 89.588742 135.195136 
L 91.118208 116.330106 
L 92.647673 123.712081 
L 94.177139 118.790768 
L 95.706604 124.532299 
L 97.23607 111.408798 
L 98.765535 119.610981 
L 100.295001 124.532298 
L 101.824466 126.172735 
L 103.353932 117.150324 
L 104.883397 128.633391 
L 106.412863 110.588582 
L 107.942328 122.891858 
L 109.471794 121.251422 
L 111.001259 121.251426 
L 112.530725 122.071639 
L 114.06019 119.610986 
L 115.589656 110.588582 
L 117.119121 132.734481 
L 118.648587 125.352517 
L 120.178052 118.790771 
L 121.707518 117.970546 
L 123.236983 129.453613 
L 124.766449 117.15033 
L 126.295914 122.071642 
L 127.82538 115.509893 
L 129.354845 110.58858 
L 130.884311 126.172736 
L 132.413776 110.58858 
L 133.943242 123.712075 
L 135.472707 116.330111 
L 137.002173 108.127919 
L 138.531638 114.689673 
L 140.061104 126.172737 
L 141.590569 122.891859 
L 143.120035 108.12792 
L 144.6495 131.914266 
L 146.178966 122.891862 
L 147.708431 117.970545 
L 149.237897 120.431202 
L 150.767362 117.970549 
L 152.296828 117.150333 
L 153.826293 106.487484 
L 155.355759 126.992953 
L 156.885224 116.330111 
L 158.41469 109.768361 
L 159.944155 140.936669 
L 161.473621 110.588575 
L 163.003086 126.172736 
L 164.532552 117.970546 
L 166.062017 117.970549 
L 167.591483 108.948139 
L 169.120948 117.97054 
L 170.650414 108.127915 
L 172.17988 99.105516 
L 173.709345 108.948137 
L 175.238811 101.566172 
L 176.768276 114.689671 
L 178.297742 130.27383 
L 179.827207 112.229019 
L 181.356673 113.869455 
L 182.886138 119.610987 
L 184.415604 105.667268 
L 185.945069 108.948141 
L 187.474535 106.487478 
L 190.533466 116.330112 
L 192.062931 109.768356 
L 193.592397 117.970546 
L 195.121862 104.026834 
L 196.651328 103.206605 
L 198.180793 122.071638 
L 199.710259 122.07164 
L 201.239724 113.869455 
L 202.76919 103.206609 
L 204.298655 108.948139 
L 205.828121 115.509893 
L 207.357586 117.150328 
L 208.887052 116.330109 
L 210.416517 112.229012 
L 211.945983 121.251421 
L 213.475448 131.914264 
L 215.004914 108.948139 
L 216.534379 105.667265 
L 218.063845 112.229013 
L 219.59331 127.81317 
L 221.122776 121.25142 
L 222.652241 110.588574 
L 224.181707 119.610984 
L 225.711172 138.476018 
L 227.240638 127.813172 
L 228.770103 124.532292 
L 230.299569 122.07164 
L 231.829034 139.296234 
L 233.3585 108.127925 
L 234.887965 115.509888 
L 236.417431 109.768356 
L 237.946896 108.948138 
L 239.476362 109.768361 
L 241.005827 119.610981 
L 242.535293 94.184204 
L 244.064758 113.869449 
L 245.594224 97.465076 
L 247.123689 104.026827 
L 248.653155 99.925736 
L 250.18262 114.689673 
L 251.712086 110.588574 
L 253.241552 121.251422 
L 254.771017 122.071638 
L 257.829948 113.869455 
L 259.359414 117.970546 
L 260.888879 109.768358 
L 262.418345 114.689675 
L 265.477276 111.4088 
L 267.006741 123.712078 
L 268.536207 117.150322 
L 270.065672 113.049232 
L 271.595138 115.509894 
L 273.124603 111.408794 
L 274.654069 110.588575 
L 276.183534 98.285298 
L 277.713 109.768361 
L 279.242465 107.307701 
L 280.771931 121.251423 
L 282.301396 117.970545 
L 283.830862 109.768361 
L 285.360327 108.12792 
L 286.889793 122.071644 
L 288.419258 111.408795 
L 289.948724 110.588577 
L 291.478189 105.667263 
L 293.007655 114.689672 
L 294.53712 113.049234 
L 296.066586 104.847048 
L 297.596051 106.487481 
L 299.125517 115.509893 
L 300.654982 113.049234 
L 302.184448 108.948143 
L 303.713913 121.25142 
L 305.243379 115.509893 
L 306.772844 113.869457 
L 308.30231 108.948139 
L 309.831775 108.127922 
L 311.361241 115.509891 
L 312.890706 120.431201 
L 314.420172 118.790766 
L 315.949637 108.127922 
L 317.479103 113.049237 
L 319.008568 105.667261 
L 320.538034 117.970546 
L 322.067499 111.408799 
L 323.596965 117.970546 
L 325.12643 115.509893 
L 326.655896 119.610987 
L 328.185361 111.408801 
L 329.714827 102.386388 
L 331.244292 116.330107 
L 332.773758 114.689671 
L 334.303224 119.610988 
L 335.832689 120.431204 
L 337.362155 117.970548 
L 338.89162 117.970543 
L 340.421086 117.15033 
L 341.950551 127.813171 
L 343.480017 127.813173 
L 345.009482 122.89186 
L 346.538948 120.431203 
L 348.068413 113.049231 
L 349.597879 123.712077 
L 352.65681 117.150328 
L 354.186275 113.049232 
L 355.715741 117.150328 
L 357.245206 113.049235 
L 358.774672 117.150326 
L 360.304137 122.071642 
L 361.833603 116.330106 
L 363.363068 99.105512 
L 363.363068 99.105512 
" style="fill:none;stroke:#ff7f0e;stroke-linecap:square;stroke-width:1.5;"/>
   </g>
   <g id="patch_3">
    <path d="M 43.78125 224.64 
L 43.78125 7.2 
" style="fill:none;stroke:#000000;stroke-linecap:square;stroke-linejoin:miter;stroke-width:0.8;"/>
   </g>
   <g id="patch_4">
    <path d="M 378.58125 224.64 
L 378.58125 7.2 
" style="fill:none;stroke:#000000;stroke-linecap:square;stroke-linejoin:miter;stroke-width:0.8;"/>
   </g>
   <g id="patch_5">
    <path d="M 43.78125 224.64 
L 378.58125 224.64 
" style="fill:none;stroke:#000000;stroke-linecap:square;stroke-linejoin:miter;stroke-width:0.8;"/>
   </g>
   <g id="patch_6">
    <path d="M 43.78125 7.2 
L 378.58125 7.2 
" style="fill:none;stroke:#000000;stroke-linecap:square;stroke-linejoin:miter;stroke-width:0.8;"/>
   </g>
   <g id="legend_1">
    <g id="patch_7">
     <path d="M 50.78125 45.1125 
L 129.471875 45.1125 
Q 131.471875 45.1125 131.471875 43.1125 
L 131.471875 14.2 
Q 131.471875 12.2 129.471875 12.2 
L 50.78125 12.2 
Q 48.78125 12.2 48.78125 14.2 
L 48.78125 43.1125 
Q 48.78125 45.1125 50.78125 45.1125 
z
" style="fill:#ffffff;opacity:0.8;stroke:#cccccc;stroke-linejoin:miter;"/>
    </g>
    <g id="line2d_17">
     <path d="M 52.78125 20.298437 
L 72.78125 20.298437 
" style="fill:none;stroke:#1f77b4;stroke-linecap:square;stroke-width:1.5;"/>
    </g>
    <g id="line2d_18"/>
    <g id="text_17">
     <!-- score_tr -->
     <g transform="translate(80.78125 23.798437)scale(0.1 -0.1)">
      <defs>
       <path d="M 50.984375 -16.609375 
L 50.984375 -23.578125 
L -0.984375 -23.578125 
L -0.984375 -16.609375 
z
" id="DejaVuSans-95"/>
       <path d="M 18.3125 70.21875 
L 18.3125 54.6875 
L 36.8125 54.6875 
L 36.8125 47.703125 
L 18.3125 47.703125 
L 18.3125 18.015625 
Q 18.3125 11.328125 20.140625 9.421875 
Q 21.96875 7.515625 27.59375 7.515625 
L 36.8125 7.515625 
L 36.8125 0 
L 27.59375 0 
Q 17.1875 0 13.234375 3.875 
Q 9.28125 7.765625 9.28125 18.015625 
L 9.28125 47.703125 
L 2.6875 47.703125 
L 2.6875 54.6875 
L 9.28125 54.6875 
L 9.28125 70.21875 
z
" id="DejaVuSans-116"/>
      </defs>
      <use xlink:href="#DejaVuSans-115"/>
      <use x="52.099609" xlink:href="#DejaVuSans-99"/>
      <use x="107.080078" xlink:href="#DejaVuSans-111"/>
      <use x="168.261719" xlink:href="#DejaVuSans-114"/>
      <use x="207.125" xlink:href="#DejaVuSans-101"/>
      <use x="268.648438" xlink:href="#DejaVuSans-95"/>
      <use x="318.648438" xlink:href="#DejaVuSans-116"/>
      <use x="357.857422" xlink:href="#DejaVuSans-114"/>
     </g>
    </g>
    <g id="line2d_19">
     <path d="M 52.78125 35.254687 
L 72.78125 35.254687 
" style="fill:none;stroke:#ff7f0e;stroke-linecap:square;stroke-width:1.5;"/>
    </g>
    <g id="line2d_20"/>
    <g id="text_18">
     <!-- score_val -->
     <g transform="translate(80.78125 38.754687)scale(0.1 -0.1)">
      <defs>
       <path d="M 2.984375 54.6875 
L 12.5 54.6875 
L 29.59375 8.796875 
L 46.6875 54.6875 
L 56.203125 54.6875 
L 35.6875 0 
L 23.484375 0 
z
" id="DejaVuSans-118"/>
       <path d="M 34.28125 27.484375 
Q 23.390625 27.484375 19.1875 25 
Q 14.984375 22.515625 14.984375 16.5 
Q 14.984375 11.71875 18.140625 8.90625 
Q 21.296875 6.109375 26.703125 6.109375 
Q 34.1875 6.109375 38.703125 11.40625 
Q 43.21875 16.703125 43.21875 25.484375 
L 43.21875 27.484375 
z
M 52.203125 31.203125 
L 52.203125 0 
L 43.21875 0 
L 43.21875 8.296875 
Q 40.140625 3.328125 35.546875 0.953125 
Q 30.953125 -1.421875 24.3125 -1.421875 
Q 15.921875 -1.421875 10.953125 3.296875 
Q 6 8.015625 6 15.921875 
Q 6 25.140625 12.171875 29.828125 
Q 18.359375 34.515625 30.609375 34.515625 
L 43.21875 34.515625 
L 43.21875 35.40625 
Q 43.21875 41.609375 39.140625 45 
Q 35.0625 48.390625 27.6875 48.390625 
Q 23 48.390625 18.546875 47.265625 
Q 14.109375 46.140625 10.015625 43.890625 
L 10.015625 52.203125 
Q 14.9375 54.109375 19.578125 55.046875 
Q 24.21875 56 28.609375 56 
Q 40.484375 56 46.34375 49.84375 
Q 52.203125 43.703125 52.203125 31.203125 
z
" id="DejaVuSans-97"/>
       <path d="M 9.421875 75.984375 
L 18.40625 75.984375 
L 18.40625 0 
L 9.421875 0 
z
" id="DejaVuSans-108"/>
      </defs>
      <use xlink:href="#DejaVuSans-115"/>
      <use x="52.099609" xlink:href="#DejaVuSans-99"/>
      <use x="107.080078" xlink:href="#DejaVuSans-111"/>
      <use x="168.261719" xlink:href="#DejaVuSans-114"/>
      <use x="207.125" xlink:href="#DejaVuSans-101"/>
      <use x="268.648438" xlink:href="#DejaVuSans-95"/>
      <use x="318.648438" xlink:href="#DejaVuSans-118"/>
      <use x="377.828125" xlink:href="#DejaVuSans-97"/>
      <use x="439.107422" xlink:href="#DejaVuSans-108"/>
     </g>
    </g>
   </g>
  </g>
 </g>
 <defs>
  <clipPath id="p9fd692ef32">
   <rect height="217.44" width="334.8" x="43.78125" y="7.2"/>
  </clipPath>
 </defs>
</svg>
