<?xml version="1.0" encoding="utf-8" standalone="no"?>
<!DOCTYPE svg PUBLIC "-//W3C//DTD SVG 1.1//EN"
  "http://www.w3.org/Graphics/SVG/1.1/DTD/svg11.dtd">
<!-- Created with matplotlib (https://matplotlib.org/) -->
<svg height="262.19625pt" version="1.1" viewBox="0 0 385.78125 262.19625" width="385.78125pt" xmlns="http://www.w3.org/2000/svg" xmlns:xlink="http://www.w3.org/1999/xlink">
 <metadata>
  <rdf:RDF xmlns:cc="http://creativecommons.org/ns#" xmlns:dc="http://purl.org/dc/elements/1.1/" xmlns:rdf="http://www.w3.org/1999/02/22-rdf-syntax-ns#">
   <cc:Work>
    <dc:type rdf:resource="http://purl.org/dc/dcmitype/StillImage"/>
    <dc:date>2020-12-16T14:55:49.524187</dc:date>
    <dc:format>image/svg+xml</dc:format>
    <dc:creator>
     <cc:Agent>
      <dc:title>Matplotlib v3.3.3, https://matplotlib.org/</dc:title>
     </cc:Agent>
    </dc:creator>
   </cc:Work>
  </rdf:RDF>
 </metadata>
 <defs>
  <style type="text/css">*{stroke-linecap:butt;stroke-linejoin:round;}</style>
 </defs>
 <g id="figure_1">
  <g id="patch_1">
   <path d="M 0 262.19625 
L 385.78125 262.19625 
L 385.78125 0 
L 0 0 
z
" style="fill:none;"/>
  </g>
  <g id="axes_1">
   <g id="patch_2">
    <path d="M 43.78125 224.64 
L 378.58125 224.64 
L 378.58125 7.2 
L 43.78125 7.2 
z
" style="fill:#ffffff;"/>
   </g>
   <g id="matplotlib.axis_1">
    <g id="xtick_1">
     <g id="line2d_1">
      <defs>
       <path d="M 0 0 
L 0 3.5 
" id="ma5d4586bdd" style="stroke:#000000;stroke-width:0.8;"/>
      </defs>
      <g>
       <use style="stroke:#000000;stroke-width:0.8;" x="58.999432" xlink:href="#ma5d4586bdd" y="224.64"/>
      </g>
     </g>
     <g id="text_1">
      <!-- 0 -->
      <g transform="translate(55.818182 239.238438)scale(0.1 -0.1)">
       <defs>
        <path d="M 31.78125 66.40625 
Q 24.171875 66.40625 20.328125 58.90625 
Q 16.5 51.421875 16.5 36.375 
Q 16.5 21.390625 20.328125 13.890625 
Q 24.171875 6.390625 31.78125 6.390625 
Q 39.453125 6.390625 43.28125 13.890625 
Q 47.125 21.390625 47.125 36.375 
Q 47.125 51.421875 43.28125 58.90625 
Q 39.453125 66.40625 31.78125 66.40625 
z
M 31.78125 74.21875 
Q 44.046875 74.21875 50.515625 64.515625 
Q 56.984375 54.828125 56.984375 36.375 
Q 56.984375 17.96875 50.515625 8.265625 
Q 44.046875 -1.421875 31.78125 -1.421875 
Q 19.53125 -1.421875 13.0625 8.265625 
Q 6.59375 17.96875 6.59375 36.375 
Q 6.59375 54.828125 13.0625 64.515625 
Q 19.53125 74.21875 31.78125 74.21875 
z
" id="DejaVuSans-48"/>
       </defs>
       <use xlink:href="#DejaVuSans-48"/>
      </g>
     </g>
    </g>
    <g id="xtick_2">
     <g id="line2d_2">
      <g>
       <use style="stroke:#000000;stroke-width:0.8;" x="97.23607" xlink:href="#ma5d4586bdd" y="224.64"/>
      </g>
     </g>
     <g id="text_2">
      <!-- 25 -->
      <g transform="translate(90.87357 239.238438)scale(0.1 -0.1)">
       <defs>
        <path d="M 19.1875 8.296875 
L 53.609375 8.296875 
L 53.609375 0 
L 7.328125 0 
L 7.328125 8.296875 
Q 12.9375 14.109375 22.625 23.890625 
Q 32.328125 33.6875 34.8125 36.53125 
Q 39.546875 41.84375 41.421875 45.53125 
Q 43.3125 49.21875 43.3125 52.78125 
Q 43.3125 58.59375 39.234375 62.25 
Q 35.15625 65.921875 28.609375 65.921875 
Q 23.96875 65.921875 18.8125 64.3125 
Q 13.671875 62.703125 7.8125 59.421875 
L 7.8125 69.390625 
Q 13.765625 71.78125 18.9375 73 
Q 24.125 74.21875 28.421875 74.21875 
Q 39.75 74.21875 46.484375 68.546875 
Q 53.21875 62.890625 53.21875 53.421875 
Q 53.21875 48.921875 51.53125 44.890625 
Q 49.859375 40.875 45.40625 35.40625 
Q 44.1875 33.984375 37.640625 27.21875 
Q 31.109375 20.453125 19.1875 8.296875 
z
" id="DejaVuSans-50"/>
        <path d="M 10.796875 72.90625 
L 49.515625 72.90625 
L 49.515625 64.59375 
L 19.828125 64.59375 
L 19.828125 46.734375 
Q 21.96875 47.46875 24.109375 47.828125 
Q 26.265625 48.1875 28.421875 48.1875 
Q 40.625 48.1875 47.75 41.5 
Q 54.890625 34.8125 54.890625 23.390625 
Q 54.890625 11.625 47.5625 5.09375 
Q 40.234375 -1.421875 26.90625 -1.421875 
Q 22.3125 -1.421875 17.546875 -0.640625 
Q 12.796875 0.140625 7.71875 1.703125 
L 7.71875 11.625 
Q 12.109375 9.234375 16.796875 8.0625 
Q 21.484375 6.890625 26.703125 6.890625 
Q 35.15625 6.890625 40.078125 11.328125 
Q 45.015625 15.765625 45.015625 23.390625 
Q 45.015625 31 40.078125 35.4375 
Q 35.15625 39.890625 26.703125 39.890625 
Q 22.75 39.890625 18.8125 39.015625 
Q 14.890625 38.140625 10.796875 36.28125 
z
" id="DejaVuSans-53"/>
       </defs>
       <use xlink:href="#DejaVuSans-50"/>
       <use x="63.623047" xlink:href="#DejaVuSans-53"/>
      </g>
     </g>
    </g>
    <g id="xtick_3">
     <g id="line2d_3">
      <g>
       <use style="stroke:#000000;stroke-width:0.8;" x="135.472707" xlink:href="#ma5d4586bdd" y="224.64"/>
      </g>
     </g>
     <g id="text_3">
      <!-- 50 -->
      <g transform="translate(129.110207 239.238438)scale(0.1 -0.1)">
       <use xlink:href="#DejaVuSans-53"/>
       <use x="63.623047" xlink:href="#DejaVuSans-48"/>
      </g>
     </g>
    </g>
    <g id="xtick_4">
     <g id="line2d_4">
      <g>
       <use style="stroke:#000000;stroke-width:0.8;" x="173.709345" xlink:href="#ma5d4586bdd" y="224.64"/>
      </g>
     </g>
     <g id="text_4">
      <!-- 75 -->
      <g transform="translate(167.346845 239.238438)scale(0.1 -0.1)">
       <defs>
        <path d="M 8.203125 72.90625 
L 55.078125 72.90625 
L 55.078125 68.703125 
L 28.609375 0 
L 18.3125 0 
L 43.21875 64.59375 
L 8.203125 64.59375 
z
" id="DejaVuSans-55"/>
       </defs>
       <use xlink:href="#DejaVuSans-55"/>
       <use x="63.623047" xlink:href="#DejaVuSans-53"/>
      </g>
     </g>
    </g>
    <g id="xtick_5">
     <g id="line2d_5">
      <g>
       <use style="stroke:#000000;stroke-width:0.8;" x="211.945983" xlink:href="#ma5d4586bdd" y="224.64"/>
      </g>
     </g>
     <g id="text_5">
      <!-- 100 -->
      <g transform="translate(202.402233 239.238438)scale(0.1 -0.1)">
       <defs>
        <path d="M 12.40625 8.296875 
L 28.515625 8.296875 
L 28.515625 63.921875 
L 10.984375 60.40625 
L 10.984375 69.390625 
L 28.421875 72.90625 
L 38.28125 72.90625 
L 38.28125 8.296875 
L 54.390625 8.296875 
L 54.390625 0 
L 12.40625 0 
z
" id="DejaVuSans-49"/>
       </defs>
       <use xlink:href="#DejaVuSans-49"/>
       <use x="63.623047" xlink:href="#DejaVuSans-48"/>
       <use x="127.246094" xlink:href="#DejaVuSans-48"/>
      </g>
     </g>
    </g>
    <g id="xtick_6">
     <g id="line2d_6">
      <g>
       <use style="stroke:#000000;stroke-width:0.8;" x="250.18262" xlink:href="#ma5d4586bdd" y="224.64"/>
      </g>
     </g>
     <g id="text_6">
      <!-- 125 -->
      <g transform="translate(240.63887 239.238438)scale(0.1 -0.1)">
       <use xlink:href="#DejaVuSans-49"/>
       <use x="63.623047" xlink:href="#DejaVuSans-50"/>
       <use x="127.246094" xlink:href="#DejaVuSans-53"/>
      </g>
     </g>
    </g>
    <g id="xtick_7">
     <g id="line2d_7">
      <g>
       <use style="stroke:#000000;stroke-width:0.8;" x="288.419258" xlink:href="#ma5d4586bdd" y="224.64"/>
      </g>
     </g>
     <g id="text_7">
      <!-- 150 -->
      <g transform="translate(278.875508 239.238438)scale(0.1 -0.1)">
       <use xlink:href="#DejaVuSans-49"/>
       <use x="63.623047" xlink:href="#DejaVuSans-53"/>
       <use x="127.246094" xlink:href="#DejaVuSans-48"/>
      </g>
     </g>
    </g>
    <g id="xtick_8">
     <g id="line2d_8">
      <g>
       <use style="stroke:#000000;stroke-width:0.8;" x="326.655896" xlink:href="#ma5d4586bdd" y="224.64"/>
      </g>
     </g>
     <g id="text_8">
      <!-- 175 -->
      <g transform="translate(317.112146 239.238438)scale(0.1 -0.1)">
       <use xlink:href="#DejaVuSans-49"/>
       <use x="63.623047" xlink:href="#DejaVuSans-55"/>
       <use x="127.246094" xlink:href="#DejaVuSans-53"/>
      </g>
     </g>
    </g>
    <g id="xtick_9">
     <g id="line2d_9">
      <g>
       <use style="stroke:#000000;stroke-width:0.8;" x="364.892534" xlink:href="#ma5d4586bdd" y="224.64"/>
      </g>
     </g>
     <g id="text_9">
      <!-- 200 -->
      <g transform="translate(355.348784 239.238438)scale(0.1 -0.1)">
       <use xlink:href="#DejaVuSans-50"/>
       <use x="63.623047" xlink:href="#DejaVuSans-48"/>
       <use x="127.246094" xlink:href="#DejaVuSans-48"/>
      </g>
     </g>
    </g>
    <g id="text_10">
     <!-- epoch -->
     <g transform="translate(195.953125 252.916563)scale(0.1 -0.1)">
      <defs>
       <path d="M 56.203125 29.59375 
L 56.203125 25.203125 
L 14.890625 25.203125 
Q 15.484375 15.921875 20.484375 11.0625 
Q 25.484375 6.203125 34.421875 6.203125 
Q 39.59375 6.203125 44.453125 7.46875 
Q 49.3125 8.734375 54.109375 11.28125 
L 54.109375 2.78125 
Q 49.265625 0.734375 44.1875 -0.34375 
Q 39.109375 -1.421875 33.890625 -1.421875 
Q 20.796875 -1.421875 13.15625 6.1875 
Q 5.515625 13.8125 5.515625 26.8125 
Q 5.515625 40.234375 12.765625 48.109375 
Q 20.015625 56 32.328125 56 
Q 43.359375 56 49.78125 48.890625 
Q 56.203125 41.796875 56.203125 29.59375 
z
M 47.21875 32.234375 
Q 47.125 39.59375 43.09375 43.984375 
Q 39.0625 48.390625 32.421875 48.390625 
Q 24.90625 48.390625 20.390625 44.140625 
Q 15.875 39.890625 15.1875 32.171875 
z
" id="DejaVuSans-101"/>
       <path d="M 18.109375 8.203125 
L 18.109375 -20.796875 
L 9.078125 -20.796875 
L 9.078125 54.6875 
L 18.109375 54.6875 
L 18.109375 46.390625 
Q 20.953125 51.265625 25.265625 53.625 
Q 29.59375 56 35.59375 56 
Q 45.5625 56 51.78125 48.09375 
Q 58.015625 40.1875 58.015625 27.296875 
Q 58.015625 14.40625 51.78125 6.484375 
Q 45.5625 -1.421875 35.59375 -1.421875 
Q 29.59375 -1.421875 25.265625 0.953125 
Q 20.953125 3.328125 18.109375 8.203125 
z
M 48.6875 27.296875 
Q 48.6875 37.203125 44.609375 42.84375 
Q 40.53125 48.484375 33.40625 48.484375 
Q 26.265625 48.484375 22.1875 42.84375 
Q 18.109375 37.203125 18.109375 27.296875 
Q 18.109375 17.390625 22.1875 11.75 
Q 26.265625 6.109375 33.40625 6.109375 
Q 40.53125 6.109375 44.609375 11.75 
Q 48.6875 17.390625 48.6875 27.296875 
z
" id="DejaVuSans-112"/>
       <path d="M 30.609375 48.390625 
Q 23.390625 48.390625 19.1875 42.75 
Q 14.984375 37.109375 14.984375 27.296875 
Q 14.984375 17.484375 19.15625 11.84375 
Q 23.34375 6.203125 30.609375 6.203125 
Q 37.796875 6.203125 41.984375 11.859375 
Q 46.1875 17.53125 46.1875 27.296875 
Q 46.1875 37.015625 41.984375 42.703125 
Q 37.796875 48.390625 30.609375 48.390625 
z
M 30.609375 56 
Q 42.328125 56 49.015625 48.375 
Q 55.71875 40.765625 55.71875 27.296875 
Q 55.71875 13.875 49.015625 6.21875 
Q 42.328125 -1.421875 30.609375 -1.421875 
Q 18.84375 -1.421875 12.171875 6.21875 
Q 5.515625 13.875 5.515625 27.296875 
Q 5.515625 40.765625 12.171875 48.375 
Q 18.84375 56 30.609375 56 
z
" id="DejaVuSans-111"/>
       <path d="M 48.78125 52.59375 
L 48.78125 44.1875 
Q 44.96875 46.296875 41.140625 47.34375 
Q 37.3125 48.390625 33.40625 48.390625 
Q 24.65625 48.390625 19.8125 42.84375 
Q 14.984375 37.3125 14.984375 27.296875 
Q 14.984375 17.28125 19.8125 11.734375 
Q 24.65625 6.203125 33.40625 6.203125 
Q 37.3125 6.203125 41.140625 7.25 
Q 44.96875 8.296875 48.78125 10.40625 
L 48.78125 2.09375 
Q 45.015625 0.34375 40.984375 -0.53125 
Q 36.96875 -1.421875 32.421875 -1.421875 
Q 20.0625 -1.421875 12.78125 6.34375 
Q 5.515625 14.109375 5.515625 27.296875 
Q 5.515625 40.671875 12.859375 48.328125 
Q 20.21875 56 33.015625 56 
Q 37.15625 56 41.109375 55.140625 
Q 45.0625 54.296875 48.78125 52.59375 
z
" id="DejaVuSans-99"/>
       <path d="M 54.890625 33.015625 
L 54.890625 0 
L 45.90625 0 
L 45.90625 32.71875 
Q 45.90625 40.484375 42.875 44.328125 
Q 39.84375 48.1875 33.796875 48.1875 
Q 26.515625 48.1875 22.3125 43.546875 
Q 18.109375 38.921875 18.109375 30.90625 
L 18.109375 0 
L 9.078125 0 
L 9.078125 75.984375 
L 18.109375 75.984375 
L 18.109375 46.1875 
Q 21.34375 51.125 25.703125 53.5625 
Q 30.078125 56 35.796875 56 
Q 45.21875 56 50.046875 50.171875 
Q 54.890625 44.34375 54.890625 33.015625 
z
" id="DejaVuSans-104"/>
      </defs>
      <use xlink:href="#DejaVuSans-101"/>
      <use x="61.523438" xlink:href="#DejaVuSans-112"/>
      <use x="125" xlink:href="#DejaVuSans-111"/>
      <use x="186.181641" xlink:href="#DejaVuSans-99"/>
      <use x="241.162109" xlink:href="#DejaVuSans-104"/>
     </g>
    </g>
   </g>
   <g id="matplotlib.axis_2">
    <g id="ytick_1">
     <g id="line2d_10">
      <defs>
       <path d="M 0 0 
L -3.5 0 
" id="md7a8c8785a" style="stroke:#000000;stroke-width:0.8;"/>
      </defs>
      <g>
       <use style="stroke:#000000;stroke-width:0.8;" x="43.78125" xlink:href="#md7a8c8785a" y="220.09887"/>
      </g>
     </g>
     <g id="text_11">
      <!-- 0.0 -->
      <g transform="translate(20.878125 223.898089)scale(0.1 -0.1)">
       <defs>
        <path d="M 10.6875 12.40625 
L 21 12.40625 
L 21 0 
L 10.6875 0 
z
" id="DejaVuSans-46"/>
       </defs>
       <use xlink:href="#DejaVuSans-48"/>
       <use x="63.623047" xlink:href="#DejaVuSans-46"/>
       <use x="95.410156" xlink:href="#DejaVuSans-48"/>
      </g>
     </g>
    </g>
    <g id="ytick_2">
     <g id="line2d_11">
      <g>
       <use style="stroke:#000000;stroke-width:0.8;" x="43.78125" xlink:href="#md7a8c8785a" y="193.386341"/>
      </g>
     </g>
     <g id="text_12">
      <!-- 0.1 -->
      <g transform="translate(20.878125 197.18556)scale(0.1 -0.1)">
       <use xlink:href="#DejaVuSans-48"/>
       <use x="63.623047" xlink:href="#DejaVuSans-46"/>
       <use x="95.410156" xlink:href="#DejaVuSans-49"/>
      </g>
     </g>
    </g>
    <g id="ytick_3">
     <g id="line2d_12">
      <g>
       <use style="stroke:#000000;stroke-width:0.8;" x="43.78125" xlink:href="#md7a8c8785a" y="166.673812"/>
      </g>
     </g>
     <g id="text_13">
      <!-- 0.2 -->
      <g transform="translate(20.878125 170.473031)scale(0.1 -0.1)">
       <use xlink:href="#DejaVuSans-48"/>
       <use x="63.623047" xlink:href="#DejaVuSans-46"/>
       <use x="95.410156" xlink:href="#DejaVuSans-50"/>
      </g>
     </g>
    </g>
    <g id="ytick_4">
     <g id="line2d_13">
      <g>
       <use style="stroke:#000000;stroke-width:0.8;" x="43.78125" xlink:href="#md7a8c8785a" y="139.961283"/>
      </g>
     </g>
     <g id="text_14">
      <!-- 0.3 -->
      <g transform="translate(20.878125 143.760502)scale(0.1 -0.1)">
       <defs>
        <path d="M 40.578125 39.3125 
Q 47.65625 37.796875 51.625 33 
Q 55.609375 28.21875 55.609375 21.1875 
Q 55.609375 10.40625 48.1875 4.484375 
Q 40.765625 -1.421875 27.09375 -1.421875 
Q 22.515625 -1.421875 17.65625 -0.515625 
Q 12.796875 0.390625 7.625 2.203125 
L 7.625 11.71875 
Q 11.71875 9.328125 16.59375 8.109375 
Q 21.484375 6.890625 26.8125 6.890625 
Q 36.078125 6.890625 40.9375 10.546875 
Q 45.796875 14.203125 45.796875 21.1875 
Q 45.796875 27.640625 41.28125 31.265625 
Q 36.765625 34.90625 28.71875 34.90625 
L 20.21875 34.90625 
L 20.21875 43.015625 
L 29.109375 43.015625 
Q 36.375 43.015625 40.234375 45.921875 
Q 44.09375 48.828125 44.09375 54.296875 
Q 44.09375 59.90625 40.109375 62.90625 
Q 36.140625 65.921875 28.71875 65.921875 
Q 24.65625 65.921875 20.015625 65.03125 
Q 15.375 64.15625 9.8125 62.3125 
L 9.8125 71.09375 
Q 15.4375 72.65625 20.34375 73.4375 
Q 25.25 74.21875 29.59375 74.21875 
Q 40.828125 74.21875 47.359375 69.109375 
Q 53.90625 64.015625 53.90625 55.328125 
Q 53.90625 49.265625 50.4375 45.09375 
Q 46.96875 40.921875 40.578125 39.3125 
z
" id="DejaVuSans-51"/>
       </defs>
       <use xlink:href="#DejaVuSans-48"/>
       <use x="63.623047" xlink:href="#DejaVuSans-46"/>
       <use x="95.410156" xlink:href="#DejaVuSans-51"/>
      </g>
     </g>
    </g>
    <g id="ytick_5">
     <g id="line2d_14">
      <g>
       <use style="stroke:#000000;stroke-width:0.8;" x="43.78125" xlink:href="#md7a8c8785a" y="113.248754"/>
      </g>
     </g>
     <g id="text_15">
      <!-- 0.4 -->
      <g transform="translate(20.878125 117.047973)scale(0.1 -0.1)">
       <defs>
        <path d="M 37.796875 64.3125 
L 12.890625 25.390625 
L 37.796875 25.390625 
z
M 35.203125 72.90625 
L 47.609375 72.90625 
L 47.609375 25.390625 
L 58.015625 25.390625 
L 58.015625 17.1875 
L 47.609375 17.1875 
L 47.609375 0 
L 37.796875 0 
L 37.796875 17.1875 
L 4.890625 17.1875 
L 4.890625 26.703125 
z
" id="DejaVuSans-52"/>
       </defs>
       <use xlink:href="#DejaVuSans-48"/>
       <use x="63.623047" xlink:href="#DejaVuSans-46"/>
       <use x="95.410156" xlink:href="#DejaVuSans-52"/>
      </g>
     </g>
    </g>
    <g id="ytick_6">
     <g id="line2d_15">
      <g>
       <use style="stroke:#000000;stroke-width:0.8;" x="43.78125" xlink:href="#md7a8c8785a" y="86.536225"/>
      </g>
     </g>
     <g id="text_16">
      <!-- 0.5 -->
      <g transform="translate(20.878125 90.335444)scale(0.1 -0.1)">
       <use xlink:href="#DejaVuSans-48"/>
       <use x="63.623047" xlink:href="#DejaVuSans-46"/>
       <use x="95.410156" xlink:href="#DejaVuSans-53"/>
      </g>
     </g>
    </g>
    <g id="ytick_7">
     <g id="line2d_16">
      <g>
       <use style="stroke:#000000;stroke-width:0.8;" x="43.78125" xlink:href="#md7a8c8785a" y="59.823696"/>
      </g>
     </g>
     <g id="text_17">
      <!-- 0.6 -->
      <g transform="translate(20.878125 63.622915)scale(0.1 -0.1)">
       <defs>
        <path d="M 33.015625 40.375 
Q 26.375 40.375 22.484375 35.828125 
Q 18.609375 31.296875 18.609375 23.390625 
Q 18.609375 15.53125 22.484375 10.953125 
Q 26.375 6.390625 33.015625 6.390625 
Q 39.65625 6.390625 43.53125 10.953125 
Q 47.40625 15.53125 47.40625 23.390625 
Q 47.40625 31.296875 43.53125 35.828125 
Q 39.65625 40.375 33.015625 40.375 
z
M 52.59375 71.296875 
L 52.59375 62.3125 
Q 48.875 64.0625 45.09375 64.984375 
Q 41.3125 65.921875 37.59375 65.921875 
Q 27.828125 65.921875 22.671875 59.328125 
Q 17.53125 52.734375 16.796875 39.40625 
Q 19.671875 43.65625 24.015625 45.921875 
Q 28.375 48.1875 33.59375 48.1875 
Q 44.578125 48.1875 50.953125 41.515625 
Q 57.328125 34.859375 57.328125 23.390625 
Q 57.328125 12.15625 50.6875 5.359375 
Q 44.046875 -1.421875 33.015625 -1.421875 
Q 20.359375 -1.421875 13.671875 8.265625 
Q 6.984375 17.96875 6.984375 36.375 
Q 6.984375 53.65625 15.1875 63.9375 
Q 23.390625 74.21875 37.203125 74.21875 
Q 40.921875 74.21875 44.703125 73.484375 
Q 48.484375 72.75 52.59375 71.296875 
z
" id="DejaVuSans-54"/>
       </defs>
       <use xlink:href="#DejaVuSans-48"/>
       <use x="63.623047" xlink:href="#DejaVuSans-46"/>
       <use x="95.410156" xlink:href="#DejaVuSans-54"/>
      </g>
     </g>
    </g>
    <g id="ytick_8">
     <g id="line2d_17">
      <g>
       <use style="stroke:#000000;stroke-width:0.8;" x="43.78125" xlink:href="#md7a8c8785a" y="33.111167"/>
      </g>
     </g>
     <g id="text_18">
      <!-- 0.7 -->
      <g transform="translate(20.878125 36.910386)scale(0.1 -0.1)">
       <use xlink:href="#DejaVuSans-48"/>
       <use x="63.623047" xlink:href="#DejaVuSans-46"/>
       <use x="95.410156" xlink:href="#DejaVuSans-55"/>
      </g>
     </g>
    </g>
    <g id="text_19">
     <!-- score -->
     <g transform="translate(14.798438 129.352813)rotate(-90)scale(0.1 -0.1)">
      <defs>
       <path d="M 44.28125 53.078125 
L 44.28125 44.578125 
Q 40.484375 46.53125 36.375 47.5 
Q 32.28125 48.484375 27.875 48.484375 
Q 21.1875 48.484375 17.84375 46.4375 
Q 14.5 44.390625 14.5 40.28125 
Q 14.5 37.15625 16.890625 35.375 
Q 19.28125 33.59375 26.515625 31.984375 
L 29.59375 31.296875 
Q 39.15625 29.25 43.1875 25.515625 
Q 47.21875 21.78125 47.21875 15.09375 
Q 47.21875 7.46875 41.1875 3.015625 
Q 35.15625 -1.421875 24.609375 -1.421875 
Q 20.21875 -1.421875 15.453125 -0.5625 
Q 10.6875 0.296875 5.421875 2 
L 5.421875 11.28125 
Q 10.40625 8.6875 15.234375 7.390625 
Q 20.0625 6.109375 24.8125 6.109375 
Q 31.15625 6.109375 34.5625 8.28125 
Q 37.984375 10.453125 37.984375 14.40625 
Q 37.984375 18.0625 35.515625 20.015625 
Q 33.0625 21.96875 24.703125 23.78125 
L 21.578125 24.515625 
Q 13.234375 26.265625 9.515625 29.90625 
Q 5.8125 33.546875 5.8125 39.890625 
Q 5.8125 47.609375 11.28125 51.796875 
Q 16.75 56 26.8125 56 
Q 31.78125 56 36.171875 55.265625 
Q 40.578125 54.546875 44.28125 53.078125 
z
" id="DejaVuSans-115"/>
       <path d="M 41.109375 46.296875 
Q 39.59375 47.171875 37.8125 47.578125 
Q 36.03125 48 33.890625 48 
Q 26.265625 48 22.1875 43.046875 
Q 18.109375 38.09375 18.109375 28.8125 
L 18.109375 0 
L 9.078125 0 
L 9.078125 54.6875 
L 18.109375 54.6875 
L 18.109375 46.1875 
Q 20.953125 51.171875 25.484375 53.578125 
Q 30.03125 56 36.53125 56 
Q 37.453125 56 38.578125 55.875 
Q 39.703125 55.765625 41.0625 55.515625 
z
" id="DejaVuSans-114"/>
      </defs>
      <use xlink:href="#DejaVuSans-115"/>
      <use x="52.099609" xlink:href="#DejaVuSans-99"/>
      <use x="107.080078" xlink:href="#DejaVuSans-111"/>
      <use x="168.261719" xlink:href="#DejaVuSans-114"/>
      <use x="207.125" xlink:href="#DejaVuSans-101"/>
     </g>
    </g>
   </g>
   <g id="line2d_18">
    <path clip-path="url(#p260d41fc7a)" d="M 58.999432 142.098283 
L 60.528897 123.933762 
L 62.058363 138.892778 
L 63.587828 119.659756 
L 65.117294 90.275976 
L 66.646759 137.824278 
L 68.176225 89.741721 
L 69.70569 81.193713 
L 71.235156 91.34448 
L 72.764621 85.467717 
L 74.294087 87.604716 
L 75.823552 76.385456 
L 77.353018 83.864968 
L 78.882483 77.453963 
L 80.411949 92.412979 
L 81.941414 87.604725 
L 85.000345 66.234698 
L 86.529811 81.72797 
L 88.059276 86.53622 
L 89.588742 98.289735 
L 91.118208 93.481479 
L 92.647673 81.727963 
L 94.177139 73.179956 
L 95.706604 94.549979 
L 97.23607 87.604716 
L 98.765535 77.453961 
L 100.295001 84.399218 
L 101.824466 79.05671 
L 103.353932 82.79646 
L 106.412863 73.179954 
L 107.942328 94.549981 
L 109.471794 79.056707 
L 111.001259 81.727965 
L 112.530725 82.262212 
L 114.06019 80.659458 
L 115.589656 82.796467 
L 117.119121 80.125215 
L 118.648587 80.125211 
L 120.178052 89.207472 
L 121.707518 85.46772 
L 123.236983 77.453956 
L 124.766449 87.07047 
L 126.295914 89.207471 
L 127.82538 68.90595 
L 129.354845 66.234703 
L 130.884311 82.796467 
L 132.413776 72.111464 
L 133.943242 65.166187 
L 135.472707 71.577206 
L 137.002173 73.179959 
L 138.531638 80.125208 
L 140.061104 74.248454 
L 141.590569 78.522461 
L 143.120035 76.385463 
L 144.6495 71.042951 
L 146.178966 63.563443 
L 147.708431 63.029196 
L 149.237897 76.919709 
L 150.767362 58.220935 
L 152.296828 69.440199 
L 153.826293 61.960693 
L 155.355759 68.90595 
L 156.885224 66.2347 
L 158.41469 75.316958 
L 159.944155 58.755186 
L 161.473621 59.28944 
L 163.003086 67.303191 
L 164.532552 79.590958 
L 166.062017 67.3032 
L 167.591483 75.316958 
L 169.120948 87.07047 
L 170.650414 70.508705 
L 172.17988 58.755193 
L 173.709345 72.645706 
L 175.238811 48.604429 
L 176.768276 53.412679 
L 178.297742 58.755191 
L 179.827207 52.344176 
L 181.356673 52.878431 
L 182.886138 47.001663 
L 184.415604 41.659168 
L 185.945069 87.60472 
L 187.474535 45.398928 
L 189.004 35.248167 
L 190.533466 37.385164 
L 192.062931 37.919415 
L 193.592397 42.193418 
L 195.121862 33.645404 
L 196.651328 33.111158 
L 198.180793 35.782417 
L 199.710259 31.508411 
L 201.239724 43.796172 
L 202.76919 34.179661 
L 204.298655 66.768953 
L 205.828121 42.727668 
L 207.357586 45.398919 
L 208.887052 44.864672 
L 210.416517 34.179661 
L 211.945983 37.919411 
L 213.475448 33.645408 
L 215.004914 30.97416 
L 216.534379 32.576904 
L 218.063845 20.823403 
L 219.59331 38.987918 
L 221.122776 20.289143 
L 222.652241 29.371404 
L 224.181707 27.234407 
L 225.711172 26.1659 
L 227.240638 21.357646 
L 228.770103 23.49465 
L 230.299569 21.89189 
L 231.829034 23.494647 
L 233.3585 27.768654 
L 234.887965 27.768654 
L 236.417431 26.70015 
L 237.946896 27.768654 
L 239.476362 33.111161 
L 241.005827 23.494647 
L 242.535293 28.302904 
L 244.064758 25.631653 
L 245.594224 27.234407 
L 247.123689 23.494647 
L 248.653155 23.494656 
L 250.18262 26.70015 
L 251.712086 25.631647 
L 253.241552 20.289146 
L 254.771017 23.49465 
L 256.300483 22.426147 
L 257.829948 28.302901 
L 259.359414 22.960403 
L 260.888879 19.754903 
L 262.418345 22.42615 
L 265.477276 24.563153 
L 267.006741 26.165903 
L 268.536207 28.837151 
L 270.065672 26.16591 
L 271.595138 25.097403 
L 273.124603 22.960403 
L 274.654069 26.165907 
L 276.183534 25.097407 
L 277.713 25.097403 
L 279.242465 19.754896 
L 280.771931 23.494656 
L 282.301396 22.426143 
L 283.830862 18.152149 
L 285.360327 21.357653 
L 286.889793 23.49465 
L 288.419258 18.686393 
L 289.948724 18.686399 
L 291.478189 17.617896 
L 293.007655 19.220643 
L 294.53712 17.61789 
L 297.596051 20.823393 
L 299.125517 18.686399 
L 300.654982 20.8234 
L 302.184448 17.617893 
L 303.713913 17.083646 
L 305.243379 17.083636 
L 306.772844 20.289146 
L 308.30231 19.220646 
L 309.831775 20.289146 
L 311.361241 20.823393 
L 312.890706 19.220649 
L 314.420172 19.220649 
L 315.949637 22.426147 
L 317.479103 18.15214 
L 319.008568 20.28914 
L 320.538034 20.823393 
L 322.067499 20.28915 
L 323.596965 19.220646 
L 325.12643 19.754899 
L 326.655896 20.8234 
L 328.185361 22.42615 
L 329.714827 20.8234 
L 331.244292 20.823393 
L 332.773758 20.289143 
L 334.303224 20.823396 
L 337.362155 19.754899 
L 338.89162 18.686393 
L 340.421086 18.68639 
L 341.950551 17.617896 
L 343.480017 19.754893 
L 345.009482 19.754893 
L 346.538948 20.823403 
L 348.068413 19.220649 
L 349.597879 19.754903 
L 351.127344 21.8919 
L 352.65681 21.357646 
L 354.186275 20.289146 
L 355.715741 19.754903 
L 357.245206 24.0289 
L 358.774672 27.768657 
L 360.304137 20.82339 
L 361.833603 60.35794 
L 363.363068 112.180252 
L 363.363068 112.180252 
" style="fill:none;stroke:#1f77b4;stroke-linecap:square;stroke-width:1.5;"/>
   </g>
   <g id="line2d_19">
    <path clip-path="url(#p260d41fc7a)" d="M 58.999432 180.564325 
L 60.528897 160.797056 
L 62.058363 170.947815 
L 63.587828 153.317544 
L 65.117294 151.180542 
L 66.646759 175.756069 
L 68.176225 161.865556 
L 69.70569 200.331598 
L 71.235156 165.071061 
L 72.764621 214.756364 
L 74.294087 207.811106 
L 75.823552 211.01661 
L 77.353018 205.139853 
L 78.882483 209.413858 
L 80.411949 201.934349 
L 81.941414 202.4686 
L 83.47088 202.468601 
L 85.000345 203.537101 
L 86.529811 194.989091 
L 88.059276 196.057592 
L 89.588742 192.852088 
L 91.118208 196.591844 
L 92.647673 189.646585 
L 94.177139 191.783588 
L 95.706604 197.126094 
L 97.23607 186.975332 
L 98.765535 200.865848 
L 100.295001 186.975333 
L 101.824466 182.167079 
L 103.353932 196.057593 
L 106.412863 194.989092 
L 107.942328 196.057592 
L 109.471794 190.715086 
L 111.001259 190.715088 
L 112.530725 185.906831 
L 114.06019 186.441081 
L 115.589656 196.057593 
L 117.119121 199.797346 
L 118.648587 186.975333 
L 120.178052 168.276562 
L 121.707518 192.852089 
L 123.236983 174.153317 
L 124.766449 191.249338 
L 126.295914 165.605309 
L 127.82538 187.509584 
L 129.354845 199.263097 
L 130.884311 196.591844 
L 132.413776 186.975331 
L 133.943242 197.126094 
L 135.472707 193.92059 
L 137.002173 199.263096 
L 138.531638 198.194595 
L 140.061104 196.591843 
L 141.590569 194.454841 
L 143.120035 182.701329 
L 144.6495 183.769828 
L 146.178966 186.441083 
L 147.708431 196.591844 
L 149.237897 197.126094 
L 150.767362 189.646585 
L 153.826293 200.331598 
L 155.355759 199.797347 
L 156.885224 196.591843 
L 158.41469 197.126094 
L 159.944155 200.331598 
L 161.473621 194.454841 
L 163.003086 198.194595 
L 164.532552 194.989091 
L 166.062017 199.263096 
L 167.591483 200.865848 
L 169.120948 194.989092 
L 170.650414 184.83833 
L 173.709345 193.386341 
L 175.238811 186.975333 
L 176.768276 193.920589 
L 178.297742 195.523343 
L 179.827207 198.194595 
L 181.356673 192.317838 
L 182.886138 189.112335 
L 184.415604 188.578085 
L 187.474535 199.263097 
L 189.004 193.386341 
L 190.533466 192.852089 
L 192.062931 184.30408 
L 193.592397 199.797347 
L 195.121862 201.400099 
L 196.651328 197.126094 
L 198.180793 196.591844 
L 199.710259 199.263096 
L 201.239724 194.454841 
L 202.76919 194.989091 
L 204.298655 200.865849 
L 205.828121 198.194595 
L 207.357586 193.38634 
L 208.887052 186.975332 
L 210.416517 189.112336 
L 211.945983 192.317839 
L 213.475448 200.865849 
L 215.004914 198.728847 
L 216.534379 202.4686 
L 218.063845 197.660345 
L 219.59331 201.400099 
L 221.122776 200.331598 
L 222.652241 201.934349 
L 224.181707 200.331598 
L 225.711172 201.93435 
L 227.240638 198.728846 
L 228.770103 194.454841 
L 230.299569 202.4686 
L 231.829034 202.4686 
L 233.3585 200.331597 
L 234.887965 199.263096 
L 236.417431 199.263096 
L 237.946896 200.865848 
L 239.476362 201.400098 
L 241.005827 200.331597 
L 242.535293 201.93435 
L 244.064758 202.4686 
L 245.594224 201.934349 
L 247.123689 197.660345 
L 248.653155 202.4686 
L 250.18262 202.4686 
L 251.712086 199.797347 
L 253.241552 201.93435 
L 254.771017 201.400099 
L 256.300483 199.797348 
L 257.829948 200.331598 
L 259.359414 201.934349 
L 260.888879 202.4686 
L 262.418345 202.4686 
L 263.94781 200.331597 
L 265.477276 202.4686 
L 267.006741 202.4686 
L 268.536207 201.93435 
L 270.065672 194.989092 
L 271.595138 199.797347 
L 273.124603 199.263097 
L 274.654069 201.93435 
L 276.183534 201.400099 
L 277.713 202.4686 
L 279.242465 202.4686 
L 280.771931 200.865849 
L 282.301396 202.4686 
L 285.360327 202.4686 
L 286.889793 203.00285 
L 288.419258 202.4686 
L 289.948724 200.865848 
L 291.478189 201.93435 
L 293.007655 198.194595 
L 294.53712 202.4686 
L 296.066586 200.865848 
L 297.596051 199.797347 
L 299.125517 200.865847 
L 300.654982 202.4686 
L 302.184448 197.126094 
L 303.713913 202.4686 
L 305.243379 199.263096 
L 306.772844 202.4686 
L 308.30231 201.934349 
L 309.831775 200.865849 
L 311.361241 202.468601 
L 312.890706 201.93435 
L 314.420172 202.4686 
L 315.949637 202.4686 
L 317.479103 203.00285 
L 319.008568 201.934349 
L 320.538034 202.468599 
L 322.067499 202.4686 
L 323.596965 201.934348 
L 325.12643 202.468601 
L 329.714827 202.4686 
L 331.244292 198.194595 
L 332.773758 200.865849 
L 334.303224 202.4686 
L 335.832689 202.4686 
L 337.362155 199.263097 
L 338.89162 201.93435 
L 341.950551 203.002851 
L 343.480017 202.468601 
L 349.597879 202.4686 
L 351.127344 201.93435 
L 352.65681 202.4686 
L 363.363068 202.4686 
L 363.363068 202.4686 
" style="fill:none;stroke:#ff7f0e;stroke-linecap:square;stroke-width:1.5;"/>
   </g>
   <g id="line2d_20">
    <path clip-path="url(#p260d41fc7a)" d="M 58.999432 175.75607 
L 60.528897 209.413858 
L 62.058363 150.112041 
L 63.587828 153.317547 
L 65.117294 140.495531 
L 66.646759 210.482359 
L 68.176225 143.701036 
L 69.70569 118.057006 
L 71.235156 111.111749 
L 72.764621 141.564034 
L 74.294087 79.590963 
L 75.823552 92.947226 
L 77.353018 84.399215 
L 78.882483 74.782703 
L 81.941414 89.207474 
L 83.47088 111.645997 
L 85.000345 74.248454 
L 86.529811 84.399218 
L 88.059276 74.782698 
L 89.588742 66.768949 
L 91.118208 76.919713 
L 92.647673 72.111459 
L 94.177139 74.248462 
L 95.706604 67.837447 
L 97.23607 72.645701 
L 98.765535 76.919713 
L 100.295001 79.590961 
L 101.824466 79.590961 
L 103.353932 77.45396 
L 104.883397 78.52246 
L 106.412863 99.892488 
L 107.942328 74.248458 
L 109.471794 79.590965 
L 111.001259 74.248456 
L 112.530725 74.782703 
L 114.06019 76.385458 
L 115.589656 82.262213 
L 117.119121 89.741724 
L 118.648587 76.385455 
L 120.178052 82.262218 
L 121.707518 72.645706 
L 123.236983 77.453956 
L 124.766449 69.440202 
L 126.295914 79.056707 
L 127.82538 71.577207 
L 129.354845 70.508704 
L 130.884311 71.577201 
L 132.413776 75.851209 
L 133.943242 89.207472 
L 135.472707 86.001966 
L 137.002173 76.385461 
L 138.531638 87.604725 
L 140.061104 80.659466 
L 141.590569 86.001969 
L 143.120035 79.056711 
L 144.6495 86.536217 
L 146.178966 73.714203 
L 147.708431 71.577198 
L 149.237897 84.933464 
L 150.767362 67.303194 
L 152.296828 76.385456 
L 153.826293 73.179957 
L 155.355759 81.727965 
L 156.885224 83.864967 
L 158.41469 75.851211 
L 159.944155 72.111454 
L 161.473621 71.577198 
L 163.003086 82.796465 
L 164.532552 105.234989 
L 166.062017 80.125213 
L 167.591483 76.385453 
L 169.120948 76.919706 
L 170.650414 81.193716 
L 172.17988 75.851208 
L 173.709345 77.988211 
L 175.238811 67.837447 
L 176.768276 82.796467 
L 179.827207 81.727963 
L 181.356673 84.93347 
L 182.886138 83.864965 
L 184.415604 86.001972 
L 185.945069 72.645706 
L 189.004 73.714206 
L 190.533466 87.070466 
L 192.062931 74.248459 
L 193.592397 66.234695 
L 195.121862 72.645707 
L 196.651328 82.262218 
L 198.180793 73.714206 
L 199.710259 92.947227 
L 201.239724 83.330717 
L 202.76919 69.974452 
L 204.298655 86.536217 
L 205.828121 71.042954 
L 207.357586 69.440199 
L 208.887052 65.166197 
L 211.945983 84.399215 
L 213.475448 71.042946 
L 215.004914 165.071058 
L 216.534379 139.961281 
L 218.063845 141.564033 
L 219.59331 92.947226 
L 221.122776 102.56374 
L 222.652241 107.906242 
L 224.181707 96.68698 
L 225.711172 112.180243 
L 227.240638 90.275974 
L 228.770103 92.947224 
L 230.299569 86.001975 
L 231.829034 81.727965 
L 233.3585 73.714209 
L 234.887965 81.727963 
L 236.417431 88.138977 
L 237.946896 78.52246 
L 239.476362 82.796463 
L 241.005827 88.673228 
L 242.535293 79.056708 
L 244.064758 87.07047 
L 245.594224 82.262218 
L 247.123689 93.481478 
L 248.653155 86.001967 
L 250.18262 76.385458 
L 251.712086 61.960688 
L 253.241552 74.782706 
L 254.771017 86.536222 
L 256.300483 74.782704 
L 257.829948 71.577207 
L 259.359414 77.988206 
L 260.888879 83.330717 
L 262.418345 82.796465 
L 263.94781 80.659465 
L 265.477276 82.262209 
L 267.006741 88.138969 
L 268.536207 80.659465 
L 270.065672 78.522461 
L 271.595138 83.330717 
L 273.124603 87.604722 
L 274.654069 83.330717 
L 276.183534 86.536225 
L 277.713 80.65946 
L 279.242465 84.399214 
L 280.771931 90.275976 
L 282.301396 76.385461 
L 283.830862 88.138969 
L 285.360327 83.864965 
L 286.889793 82.262218 
L 288.419258 89.207477 
L 289.948724 80.659463 
L 291.478189 84.93347 
L 293.007655 83.86497 
L 294.53712 94.015728 
L 296.066586 83.864968 
L 297.596051 82.796467 
L 299.125517 81.193712 
L 300.654982 92.412974 
L 302.184448 79.590961 
L 303.713913 76.919711 
L 305.243379 92.412974 
L 306.772844 88.138972 
L 308.30231 87.070472 
L 309.831775 83.864965 
L 311.361241 92.412979 
L 312.890706 80.659458 
L 314.420172 94.015724 
L 315.949637 79.056718 
L 317.479103 91.344472 
L 319.008568 84.399215 
L 320.538034 86.001969 
L 322.067499 94.549978 
L 323.596965 72.111454 
L 325.12643 80.659462 
L 326.655896 86.001969 
L 328.185361 88.673224 
L 329.714827 76.919708 
L 331.244292 81.193717 
L 332.773758 67.303203 
L 334.303224 115.385751 
L 335.832689 73.714207 
L 337.362155 95.084233 
L 338.89162 85.467715 
L 340.421086 71.577206 
L 341.950551 80.659462 
L 343.480017 79.056711 
L 345.009482 76.919705 
L 346.538948 82.262218 
L 349.597879 86.536219 
L 351.127344 74.782708 
L 352.65681 92.947226 
L 354.186275 79.056713 
L 355.715741 89.741722 
L 357.245206 91.878727 
L 358.774672 79.590961 
L 360.304137 83.330717 
L 361.833603 81.193716 
L 363.363068 90.275976 
L 363.363068 90.275976 
" style="fill:none;stroke:#2ca02c;stroke-linecap:square;stroke-width:1.5;"/>
   </g>
   <g id="line2d_21">
    <path clip-path="url(#p260d41fc7a)" d="M 58.999432 169.879314 
L 60.528897 205.674104 
L 62.058363 189.112335 
L 63.587828 178.961575 
L 65.117294 170.413565 
L 66.646759 167.208062 
L 68.176225 170.413564 
L 69.70569 152.783295 
L 71.235156 158.125801 
L 72.764621 164.002558 
L 74.294087 154.386048 
L 75.823552 163.468308 
L 77.353018 157.057299 
L 78.882483 167.208062 
L 80.411949 160.262805 
L 81.941414 157.591549 
L 83.47088 153.851795 
L 85.000345 146.906539 
L 86.529811 158.1258 
L 88.059276 146.372287 
L 89.588742 155.454548 
L 91.118208 166.139559 
L 92.647673 159.728552 
L 95.706604 152.249043 
L 97.23607 158.660052 
L 98.765535 150.112041 
L 100.295001 158.1258 
L 101.824466 169.879314 
L 103.353932 152.783295 
L 104.883397 166.139558 
L 106.412863 156.523052 
L 107.942328 151.714795 
L 109.471794 152.783296 
L 111.001259 154.920298 
L 112.530725 160.262801 
L 114.06019 150.646295 
L 115.589656 151.714792 
L 117.119121 158.125802 
L 118.648587 154.386044 
L 120.178052 159.194302 
L 121.707518 158.1258 
L 123.236983 153.317546 
L 124.766449 160.262805 
L 126.295914 150.112041 
L 127.82538 155.988799 
L 129.354845 159.194301 
L 130.884311 153.317544 
L 132.413776 157.591551 
L 135.472707 151.180544 
L 137.002173 160.262802 
L 138.531638 157.057298 
L 140.061104 148.50929 
L 141.590569 164.002558 
L 143.120035 146.372288 
L 144.6495 161.865555 
L 146.178966 152.249044 
L 147.708431 152.783295 
L 149.237897 149.577789 
L 150.767362 151.180543 
L 152.296828 149.043541 
L 153.826293 152.783294 
L 155.355759 153.317543 
L 156.885224 155.454546 
L 158.41469 155.454548 
L 159.944155 149.043543 
L 161.473621 160.797054 
L 163.003086 150.646295 
L 164.532552 162.399807 
L 166.062017 152.249045 
L 167.591483 158.66005 
L 169.120948 157.59155 
L 170.650414 155.988797 
L 172.17988 152.249043 
L 173.709345 165.071059 
L 175.238811 146.906538 
L 176.768276 153.851795 
L 178.297742 153.851795 
L 179.827207 152.249043 
L 181.356673 152.783293 
L 182.886138 148.509291 
L 184.415604 160.797054 
L 185.945069 151.180543 
L 187.474535 162.399807 
L 190.533466 155.988797 
L 192.062931 158.660049 
L 193.592397 151.714792 
L 195.121862 150.646293 
L 196.651328 154.920293 
L 198.180793 151.180542 
L 199.710259 156.523049 
L 201.239724 160.797053 
L 202.76919 145.303787 
L 204.298655 151.180541 
L 205.828121 159.728551 
L 207.357586 144.769532 
L 208.887052 140.495531 
L 210.416517 146.906537 
L 211.945983 158.125801 
L 213.475448 141.564035 
L 215.004914 143.166782 
L 216.534379 151.180546 
L 218.063845 150.646292 
L 219.59331 149.577791 
L 221.122776 145.838035 
L 222.652241 143.701035 
L 224.181707 150.112043 
L 225.711172 150.112043 
L 227.240638 152.783297 
L 228.770103 138.358526 
L 230.299569 154.920297 
L 231.829034 152.783296 
L 233.3585 139.427033 
L 234.887965 151.714792 
L 236.417431 159.728554 
L 237.946896 145.303786 
L 239.476362 140.495529 
L 241.005827 142.632532 
L 242.535293 148.50929 
L 244.064758 143.701036 
L 245.594224 146.37229 
L 247.123689 144.769534 
L 248.653155 145.838035 
L 250.18262 136.221528 
L 251.712086 140.495532 
L 253.241552 152.249043 
L 254.771017 153.851798 
L 256.300483 151.714794 
L 257.829948 150.646295 
L 259.359414 135.153027 
L 260.888879 138.89278 
L 262.418345 138.35853 
L 263.94781 153.851795 
L 265.477276 144.769538 
L 267.006741 145.303786 
L 268.536207 146.90654 
L 270.065672 143.701033 
L 271.595138 151.180542 
L 273.124603 143.166785 
L 274.654069 144.235282 
L 276.183534 142.098285 
L 277.713 137.290025 
L 279.242465 139.427029 
L 280.771931 136.221524 
L 282.301396 143.701035 
L 283.830862 134.084523 
L 285.360327 157.057299 
L 286.889793 152.783294 
L 288.419258 139.427032 
L 289.948724 140.495528 
L 291.478189 142.632534 
L 293.007655 127.673517 
L 294.53712 136.221524 
L 296.066586 136.221524 
L 297.596051 145.838038 
L 299.125517 135.153024 
L 300.654982 142.098283 
L 302.184448 134.084523 
L 303.713913 138.892774 
L 305.243379 134.084523 
L 306.772844 139.961279 
L 308.30231 130.879017 
L 309.831775 122.865261 
L 311.361241 128.207765 
L 312.890706 137.290027 
L 314.420172 135.687273 
L 315.949637 138.358526 
L 317.479103 151.714791 
L 319.008568 155.454547 
L 322.067499 140.495527 
L 323.596965 142.632533 
L 325.12643 138.892778 
L 326.655896 144.769532 
L 328.185361 135.687277 
L 329.714827 155.454545 
L 331.244292 145.838037 
L 332.773758 134.084524 
L 334.303224 146.906537 
L 335.832689 149.57779 
L 337.362155 141.564028 
L 338.89162 132.481773 
L 340.421086 132.481774 
L 341.950551 135.153026 
L 343.480017 133.016022 
L 345.009482 139.427031 
L 346.538948 140.495532 
L 348.068413 131.947523 
L 349.597879 130.879019 
L 351.127344 143.166782 
L 352.65681 142.098282 
L 354.186275 125.536514 
L 355.715741 134.618774 
L 357.245206 137.290027 
L 358.774672 130.344766 
L 360.304137 130.879019 
L 361.833603 127.139265 
L 363.363068 131.947522 
L 363.363068 131.947522 
" style="fill:none;stroke:#d62728;stroke-linecap:square;stroke-width:1.5;"/>
   </g>
   <g id="patch_3">
    <path d="M 43.78125 224.64 
L 43.78125 7.2 
" style="fill:none;stroke:#000000;stroke-linecap:square;stroke-linejoin:miter;stroke-width:0.8;"/>
   </g>
   <g id="patch_4">
    <path d="M 378.58125 224.64 
L 378.58125 7.2 
" style="fill:none;stroke:#000000;stroke-linecap:square;stroke-linejoin:miter;stroke-width:0.8;"/>
   </g>
   <g id="patch_5">
    <path d="M 43.78125 224.64 
L 378.58125 224.64 
" style="fill:none;stroke:#000000;stroke-linecap:square;stroke-linejoin:miter;stroke-width:0.8;"/>
   </g>
   <g id="patch_6">
    <path d="M 43.78125 7.2 
L 378.58125 7.2 
" style="fill:none;stroke:#000000;stroke-linecap:square;stroke-linejoin:miter;stroke-width:0.8;"/>
   </g>
   <g id="legend_1">
    <g id="patch_7">
     <path d="M 50.78125 75.025 
L 222.235938 75.025 
Q 224.235938 75.025 224.235938 73.025 
L 224.235938 14.2 
Q 224.235938 12.2 222.235938 12.2 
L 50.78125 12.2 
Q 48.78125 12.2 48.78125 14.2 
L 48.78125 73.025 
Q 48.78125 75.025 50.78125 75.025 
z
" style="fill:#ffffff;opacity:0.8;stroke:#cccccc;stroke-linejoin:miter;"/>
    </g>
    <g id="line2d_22">
     <path d="M 52.78125 20.298438 
L 72.78125 20.298438 
" style="fill:none;stroke:#1f77b4;stroke-linecap:square;stroke-width:1.5;"/>
    </g>
    <g id="line2d_23"/>
    <g id="text_20">
     <!-- unet2_bce_score_val -->
     <g transform="translate(80.78125 23.798438)scale(0.1 -0.1)">
      <defs>
       <path d="M 8.5 21.578125 
L 8.5 54.6875 
L 17.484375 54.6875 
L 17.484375 21.921875 
Q 17.484375 14.15625 20.5 10.265625 
Q 23.53125 6.390625 29.59375 6.390625 
Q 36.859375 6.390625 41.078125 11.03125 
Q 45.3125 15.671875 45.3125 23.6875 
L 45.3125 54.6875 
L 54.296875 54.6875 
L 54.296875 0 
L 45.3125 0 
L 45.3125 8.40625 
Q 42.046875 3.421875 37.71875 1 
Q 33.40625 -1.421875 27.6875 -1.421875 
Q 18.265625 -1.421875 13.375 4.4375 
Q 8.5 10.296875 8.5 21.578125 
z
M 31.109375 56 
z
" id="DejaVuSans-117"/>
       <path d="M 54.890625 33.015625 
L 54.890625 0 
L 45.90625 0 
L 45.90625 32.71875 
Q 45.90625 40.484375 42.875 44.328125 
Q 39.84375 48.1875 33.796875 48.1875 
Q 26.515625 48.1875 22.3125 43.546875 
Q 18.109375 38.921875 18.109375 30.90625 
L 18.109375 0 
L 9.078125 0 
L 9.078125 54.6875 
L 18.109375 54.6875 
L 18.109375 46.1875 
Q 21.34375 51.125 25.703125 53.5625 
Q 30.078125 56 35.796875 56 
Q 45.21875 56 50.046875 50.171875 
Q 54.890625 44.34375 54.890625 33.015625 
z
" id="DejaVuSans-110"/>
       <path d="M 18.3125 70.21875 
L 18.3125 54.6875 
L 36.8125 54.6875 
L 36.8125 47.703125 
L 18.3125 47.703125 
L 18.3125 18.015625 
Q 18.3125 11.328125 20.140625 9.421875 
Q 21.96875 7.515625 27.59375 7.515625 
L 36.8125 7.515625 
L 36.8125 0 
L 27.59375 0 
Q 17.1875 0 13.234375 3.875 
Q 9.28125 7.765625 9.28125 18.015625 
L 9.28125 47.703125 
L 2.6875 47.703125 
L 2.6875 54.6875 
L 9.28125 54.6875 
L 9.28125 70.21875 
z
" id="DejaVuSans-116"/>
       <path d="M 50.984375 -16.609375 
L 50.984375 -23.578125 
L -0.984375 -23.578125 
L -0.984375 -16.609375 
z
" id="DejaVuSans-95"/>
       <path d="M 48.6875 27.296875 
Q 48.6875 37.203125 44.609375 42.84375 
Q 40.53125 48.484375 33.40625 48.484375 
Q 26.265625 48.484375 22.1875 42.84375 
Q 18.109375 37.203125 18.109375 27.296875 
Q 18.109375 17.390625 22.1875 11.75 
Q 26.265625 6.109375 33.40625 6.109375 
Q 40.53125 6.109375 44.609375 11.75 
Q 48.6875 17.390625 48.6875 27.296875 
z
M 18.109375 46.390625 
Q 20.953125 51.265625 25.265625 53.625 
Q 29.59375 56 35.59375 56 
Q 45.5625 56 51.78125 48.09375 
Q 58.015625 40.1875 58.015625 27.296875 
Q 58.015625 14.40625 51.78125 6.484375 
Q 45.5625 -1.421875 35.59375 -1.421875 
Q 29.59375 -1.421875 25.265625 0.953125 
Q 20.953125 3.328125 18.109375 8.203125 
L 18.109375 0 
L 9.078125 0 
L 9.078125 75.984375 
L 18.109375 75.984375 
z
" id="DejaVuSans-98"/>
       <path d="M 2.984375 54.6875 
L 12.5 54.6875 
L 29.59375 8.796875 
L 46.6875 54.6875 
L 56.203125 54.6875 
L 35.6875 0 
L 23.484375 0 
z
" id="DejaVuSans-118"/>
       <path d="M 34.28125 27.484375 
Q 23.390625 27.484375 19.1875 25 
Q 14.984375 22.515625 14.984375 16.5 
Q 14.984375 11.71875 18.140625 8.90625 
Q 21.296875 6.109375 26.703125 6.109375 
Q 34.1875 6.109375 38.703125 11.40625 
Q 43.21875 16.703125 43.21875 25.484375 
L 43.21875 27.484375 
z
M 52.203125 31.203125 
L 52.203125 0 
L 43.21875 0 
L 43.21875 8.296875 
Q 40.140625 3.328125 35.546875 0.953125 
Q 30.953125 -1.421875 24.3125 -1.421875 
Q 15.921875 -1.421875 10.953125 3.296875 
Q 6 8.015625 6 15.921875 
Q 6 25.140625 12.171875 29.828125 
Q 18.359375 34.515625 30.609375 34.515625 
L 43.21875 34.515625 
L 43.21875 35.40625 
Q 43.21875 41.609375 39.140625 45 
Q 35.0625 48.390625 27.6875 48.390625 
Q 23 48.390625 18.546875 47.265625 
Q 14.109375 46.140625 10.015625 43.890625 
L 10.015625 52.203125 
Q 14.9375 54.109375 19.578125 55.046875 
Q 24.21875 56 28.609375 56 
Q 40.484375 56 46.34375 49.84375 
Q 52.203125 43.703125 52.203125 31.203125 
z
" id="DejaVuSans-97"/>
       <path d="M 9.421875 75.984375 
L 18.40625 75.984375 
L 18.40625 0 
L 9.421875 0 
z
" id="DejaVuSans-108"/>
      </defs>
      <use xlink:href="#DejaVuSans-117"/>
      <use x="63.378906" xlink:href="#DejaVuSans-110"/>
      <use x="126.757812" xlink:href="#DejaVuSans-101"/>
      <use x="188.28125" xlink:href="#DejaVuSans-116"/>
      <use x="227.490234" xlink:href="#DejaVuSans-50"/>
      <use x="291.113281" xlink:href="#DejaVuSans-95"/>
      <use x="341.113281" xlink:href="#DejaVuSans-98"/>
      <use x="404.589844" xlink:href="#DejaVuSans-99"/>
      <use x="459.570312" xlink:href="#DejaVuSans-101"/>
      <use x="521.09375" xlink:href="#DejaVuSans-95"/>
      <use x="571.09375" xlink:href="#DejaVuSans-115"/>
      <use x="623.193359" xlink:href="#DejaVuSans-99"/>
      <use x="678.173828" xlink:href="#DejaVuSans-111"/>
      <use x="739.355469" xlink:href="#DejaVuSans-114"/>
      <use x="778.21875" xlink:href="#DejaVuSans-101"/>
      <use x="839.742188" xlink:href="#DejaVuSans-95"/>
      <use x="889.742188" xlink:href="#DejaVuSans-118"/>
      <use x="948.921875" xlink:href="#DejaVuSans-97"/>
      <use x="1010.201172" xlink:href="#DejaVuSans-108"/>
     </g>
    </g>
    <g id="line2d_24">
     <path d="M 52.78125 35.254687 
L 72.78125 35.254687 
" style="fill:none;stroke:#ff7f0e;stroke-linecap:square;stroke-width:1.5;"/>
    </g>
    <g id="line2d_25"/>
    <g id="text_21">
     <!-- unet2_dice_score_val -->
     <g transform="translate(80.78125 38.754687)scale(0.1 -0.1)">
      <defs>
       <path d="M 45.40625 46.390625 
L 45.40625 75.984375 
L 54.390625 75.984375 
L 54.390625 0 
L 45.40625 0 
L 45.40625 8.203125 
Q 42.578125 3.328125 38.25 0.953125 
Q 33.9375 -1.421875 27.875 -1.421875 
Q 17.96875 -1.421875 11.734375 6.484375 
Q 5.515625 14.40625 5.515625 27.296875 
Q 5.515625 40.1875 11.734375 48.09375 
Q 17.96875 56 27.875 56 
Q 33.9375 56 38.25 53.625 
Q 42.578125 51.265625 45.40625 46.390625 
z
M 14.796875 27.296875 
Q 14.796875 17.390625 18.875 11.75 
Q 22.953125 6.109375 30.078125 6.109375 
Q 37.203125 6.109375 41.296875 11.75 
Q 45.40625 17.390625 45.40625 27.296875 
Q 45.40625 37.203125 41.296875 42.84375 
Q 37.203125 48.484375 30.078125 48.484375 
Q 22.953125 48.484375 18.875 42.84375 
Q 14.796875 37.203125 14.796875 27.296875 
z
" id="DejaVuSans-100"/>
       <path d="M 9.421875 54.6875 
L 18.40625 54.6875 
L 18.40625 0 
L 9.421875 0 
z
M 9.421875 75.984375 
L 18.40625 75.984375 
L 18.40625 64.59375 
L 9.421875 64.59375 
z
" id="DejaVuSans-105"/>
      </defs>
      <use xlink:href="#DejaVuSans-117"/>
      <use x="63.378906" xlink:href="#DejaVuSans-110"/>
      <use x="126.757812" xlink:href="#DejaVuSans-101"/>
      <use x="188.28125" xlink:href="#DejaVuSans-116"/>
      <use x="227.490234" xlink:href="#DejaVuSans-50"/>
      <use x="291.113281" xlink:href="#DejaVuSans-95"/>
      <use x="341.113281" xlink:href="#DejaVuSans-100"/>
      <use x="404.589844" xlink:href="#DejaVuSans-105"/>
      <use x="432.373047" xlink:href="#DejaVuSans-99"/>
      <use x="487.353516" xlink:href="#DejaVuSans-101"/>
      <use x="548.876953" xlink:href="#DejaVuSans-95"/>
      <use x="598.876953" xlink:href="#DejaVuSans-115"/>
      <use x="650.976562" xlink:href="#DejaVuSans-99"/>
      <use x="705.957031" xlink:href="#DejaVuSans-111"/>
      <use x="767.138672" xlink:href="#DejaVuSans-114"/>
      <use x="806.001953" xlink:href="#DejaVuSans-101"/>
      <use x="867.525391" xlink:href="#DejaVuSans-95"/>
      <use x="917.525391" xlink:href="#DejaVuSans-118"/>
      <use x="976.705078" xlink:href="#DejaVuSans-97"/>
      <use x="1037.984375" xlink:href="#DejaVuSans-108"/>
     </g>
    </g>
    <g id="line2d_26">
     <path d="M 52.78125 50.210938 
L 72.78125 50.210938 
" style="fill:none;stroke:#2ca02c;stroke-linecap:square;stroke-width:1.5;"/>
    </g>
    <g id="line2d_27"/>
    <g id="text_22">
     <!-- unet2_focal_score_val -->
     <g transform="translate(80.78125 53.710938)scale(0.1 -0.1)">
      <defs>
       <path d="M 37.109375 75.984375 
L 37.109375 68.5 
L 28.515625 68.5 
Q 23.6875 68.5 21.796875 66.546875 
Q 19.921875 64.59375 19.921875 59.515625 
L 19.921875 54.6875 
L 34.71875 54.6875 
L 34.71875 47.703125 
L 19.921875 47.703125 
L 19.921875 0 
L 10.890625 0 
L 10.890625 47.703125 
L 2.296875 47.703125 
L 2.296875 54.6875 
L 10.890625 54.6875 
L 10.890625 58.5 
Q 10.890625 67.625 15.140625 71.796875 
Q 19.390625 75.984375 28.609375 75.984375 
z
" id="DejaVuSans-102"/>
      </defs>
      <use xlink:href="#DejaVuSans-117"/>
      <use x="63.378906" xlink:href="#DejaVuSans-110"/>
      <use x="126.757812" xlink:href="#DejaVuSans-101"/>
      <use x="188.28125" xlink:href="#DejaVuSans-116"/>
      <use x="227.490234" xlink:href="#DejaVuSans-50"/>
      <use x="291.113281" xlink:href="#DejaVuSans-95"/>
      <use x="341.113281" xlink:href="#DejaVuSans-102"/>
      <use x="376.318359" xlink:href="#DejaVuSans-111"/>
      <use x="437.5" xlink:href="#DejaVuSans-99"/>
      <use x="492.480469" xlink:href="#DejaVuSans-97"/>
      <use x="553.759766" xlink:href="#DejaVuSans-108"/>
      <use x="581.542969" xlink:href="#DejaVuSans-95"/>
      <use x="631.542969" xlink:href="#DejaVuSans-115"/>
      <use x="683.642578" xlink:href="#DejaVuSans-99"/>
      <use x="738.623047" xlink:href="#DejaVuSans-111"/>
      <use x="799.804688" xlink:href="#DejaVuSans-114"/>
      <use x="838.667969" xlink:href="#DejaVuSans-101"/>
      <use x="900.191406" xlink:href="#DejaVuSans-95"/>
      <use x="950.191406" xlink:href="#DejaVuSans-118"/>
      <use x="1009.371094" xlink:href="#DejaVuSans-97"/>
      <use x="1070.650391" xlink:href="#DejaVuSans-108"/>
     </g>
    </g>
    <g id="line2d_28">
     <path d="M 52.78125 65.167188 
L 72.78125 65.167188 
" style="fill:none;stroke:#d62728;stroke-linecap:square;stroke-width:1.5;"/>
    </g>
    <g id="line2d_29"/>
    <g id="text_23">
     <!-- unet2_correlation_score_val -->
     <g transform="translate(80.78125 68.667188)scale(0.1 -0.1)">
      <use xlink:href="#DejaVuSans-117"/>
      <use x="63.378906" xlink:href="#DejaVuSans-110"/>
      <use x="126.757812" xlink:href="#DejaVuSans-101"/>
      <use x="188.28125" xlink:href="#DejaVuSans-116"/>
      <use x="227.490234" xlink:href="#DejaVuSans-50"/>
      <use x="291.113281" xlink:href="#DejaVuSans-95"/>
      <use x="341.113281" xlink:href="#DejaVuSans-99"/>
      <use x="396.09375" xlink:href="#DejaVuSans-111"/>
      <use x="457.275391" xlink:href="#DejaVuSans-114"/>
      <use x="496.638672" xlink:href="#DejaVuSans-114"/>
      <use x="535.501953" xlink:href="#DejaVuSans-101"/>
      <use x="597.025391" xlink:href="#DejaVuSans-108"/>
      <use x="624.808594" xlink:href="#DejaVuSans-97"/>
      <use x="686.087891" xlink:href="#DejaVuSans-116"/>
      <use x="725.296875" xlink:href="#DejaVuSans-105"/>
      <use x="753.080078" xlink:href="#DejaVuSans-111"/>
      <use x="814.261719" xlink:href="#DejaVuSans-110"/>
      <use x="877.640625" xlink:href="#DejaVuSans-95"/>
      <use x="927.640625" xlink:href="#DejaVuSans-115"/>
      <use x="979.740234" xlink:href="#DejaVuSans-99"/>
      <use x="1034.720703" xlink:href="#DejaVuSans-111"/>
      <use x="1095.902344" xlink:href="#DejaVuSans-114"/>
      <use x="1134.765625" xlink:href="#DejaVuSans-101"/>
      <use x="1196.289062" xlink:href="#DejaVuSans-95"/>
      <use x="1246.289062" xlink:href="#DejaVuSans-118"/>
      <use x="1305.46875" xlink:href="#DejaVuSans-97"/>
      <use x="1366.748047" xlink:href="#DejaVuSans-108"/>
     </g>
    </g>
   </g>
  </g>
 </g>
 <defs>
  <clipPath id="p260d41fc7a">
   <rect height="217.44" width="334.8" x="43.78125" y="7.2"/>
  </clipPath>
 </defs>
</svg>
