<?xml version="1.0" encoding="utf-8" standalone="no"?>
<!DOCTYPE svg PUBLIC "-//W3C//DTD SVG 1.1//EN"
  "http://www.w3.org/Graphics/SVG/1.1/DTD/svg11.dtd">
<!-- Created with matplotlib (https://matplotlib.org/) -->
<svg height="262.19625pt" version="1.1" viewBox="0 0 385.78125 262.19625" width="385.78125pt" xmlns="http://www.w3.org/2000/svg" xmlns:xlink="http://www.w3.org/1999/xlink">
 <metadata>
  <rdf:RDF xmlns:cc="http://creativecommons.org/ns#" xmlns:dc="http://purl.org/dc/elements/1.1/" xmlns:rdf="http://www.w3.org/1999/02/22-rdf-syntax-ns#">
   <cc:Work>
    <dc:type rdf:resource="http://purl.org/dc/dcmitype/StillImage"/>
    <dc:date>2020-12-16T14:55:46.249344</dc:date>
    <dc:format>image/svg+xml</dc:format>
    <dc:creator>
     <cc:Agent>
      <dc:title>Matplotlib v3.3.3, https://matplotlib.org/</dc:title>
     </cc:Agent>
    </dc:creator>
   </cc:Work>
  </rdf:RDF>
 </metadata>
 <defs>
  <style type="text/css">*{stroke-linecap:butt;stroke-linejoin:round;}</style>
 </defs>
 <g id="figure_1">
  <g id="patch_1">
   <path d="M 0 262.19625 
L 385.78125 262.19625 
L 385.78125 0 
L 0 0 
z
" style="fill:none;"/>
  </g>
  <g id="axes_1">
   <g id="patch_2">
    <path d="M 43.78125 224.64 
L 378.58125 224.64 
L 378.58125 7.2 
L 43.78125 7.2 
z
" style="fill:#ffffff;"/>
   </g>
   <g id="matplotlib.axis_1">
    <g id="xtick_1">
     <g id="line2d_1">
      <defs>
       <path d="M 0 0 
L 0 3.5 
" id="m4a8ddbec25" style="stroke:#000000;stroke-width:0.8;"/>
      </defs>
      <g>
       <use style="stroke:#000000;stroke-width:0.8;" x="58.999432" xlink:href="#m4a8ddbec25" y="224.64"/>
      </g>
     </g>
     <g id="text_1">
      <!-- 0 -->
      <g transform="translate(55.818182 239.238437)scale(0.1 -0.1)">
       <defs>
        <path d="M 31.78125 66.40625 
Q 24.171875 66.40625 20.328125 58.90625 
Q 16.5 51.421875 16.5 36.375 
Q 16.5 21.390625 20.328125 13.890625 
Q 24.171875 6.390625 31.78125 6.390625 
Q 39.453125 6.390625 43.28125 13.890625 
Q 47.125 21.390625 47.125 36.375 
Q 47.125 51.421875 43.28125 58.90625 
Q 39.453125 66.40625 31.78125 66.40625 
z
M 31.78125 74.21875 
Q 44.046875 74.21875 50.515625 64.515625 
Q 56.984375 54.828125 56.984375 36.375 
Q 56.984375 17.96875 50.515625 8.265625 
Q 44.046875 -1.421875 31.78125 -1.421875 
Q 19.53125 -1.421875 13.0625 8.265625 
Q 6.59375 17.96875 6.59375 36.375 
Q 6.59375 54.828125 13.0625 64.515625 
Q 19.53125 74.21875 31.78125 74.21875 
z
" id="DejaVuSans-48"/>
       </defs>
       <use xlink:href="#DejaVuSans-48"/>
      </g>
     </g>
    </g>
    <g id="xtick_2">
     <g id="line2d_2">
      <g>
       <use style="stroke:#000000;stroke-width:0.8;" x="97.23607" xlink:href="#m4a8ddbec25" y="224.64"/>
      </g>
     </g>
     <g id="text_2">
      <!-- 25 -->
      <g transform="translate(90.87357 239.238437)scale(0.1 -0.1)">
       <defs>
        <path d="M 19.1875 8.296875 
L 53.609375 8.296875 
L 53.609375 0 
L 7.328125 0 
L 7.328125 8.296875 
Q 12.9375 14.109375 22.625 23.890625 
Q 32.328125 33.6875 34.8125 36.53125 
Q 39.546875 41.84375 41.421875 45.53125 
Q 43.3125 49.21875 43.3125 52.78125 
Q 43.3125 58.59375 39.234375 62.25 
Q 35.15625 65.921875 28.609375 65.921875 
Q 23.96875 65.921875 18.8125 64.3125 
Q 13.671875 62.703125 7.8125 59.421875 
L 7.8125 69.390625 
Q 13.765625 71.78125 18.9375 73 
Q 24.125 74.21875 28.421875 74.21875 
Q 39.75 74.21875 46.484375 68.546875 
Q 53.21875 62.890625 53.21875 53.421875 
Q 53.21875 48.921875 51.53125 44.890625 
Q 49.859375 40.875 45.40625 35.40625 
Q 44.1875 33.984375 37.640625 27.21875 
Q 31.109375 20.453125 19.1875 8.296875 
z
" id="DejaVuSans-50"/>
        <path d="M 10.796875 72.90625 
L 49.515625 72.90625 
L 49.515625 64.59375 
L 19.828125 64.59375 
L 19.828125 46.734375 
Q 21.96875 47.46875 24.109375 47.828125 
Q 26.265625 48.1875 28.421875 48.1875 
Q 40.625 48.1875 47.75 41.5 
Q 54.890625 34.8125 54.890625 23.390625 
Q 54.890625 11.625 47.5625 5.09375 
Q 40.234375 -1.421875 26.90625 -1.421875 
Q 22.3125 -1.421875 17.546875 -0.640625 
Q 12.796875 0.140625 7.71875 1.703125 
L 7.71875 11.625 
Q 12.109375 9.234375 16.796875 8.0625 
Q 21.484375 6.890625 26.703125 6.890625 
Q 35.15625 6.890625 40.078125 11.328125 
Q 45.015625 15.765625 45.015625 23.390625 
Q 45.015625 31 40.078125 35.4375 
Q 35.15625 39.890625 26.703125 39.890625 
Q 22.75 39.890625 18.8125 39.015625 
Q 14.890625 38.140625 10.796875 36.28125 
z
" id="DejaVuSans-53"/>
       </defs>
       <use xlink:href="#DejaVuSans-50"/>
       <use x="63.623047" xlink:href="#DejaVuSans-53"/>
      </g>
     </g>
    </g>
    <g id="xtick_3">
     <g id="line2d_3">
      <g>
       <use style="stroke:#000000;stroke-width:0.8;" x="135.472707" xlink:href="#m4a8ddbec25" y="224.64"/>
      </g>
     </g>
     <g id="text_3">
      <!-- 50 -->
      <g transform="translate(129.110207 239.238437)scale(0.1 -0.1)">
       <use xlink:href="#DejaVuSans-53"/>
       <use x="63.623047" xlink:href="#DejaVuSans-48"/>
      </g>
     </g>
    </g>
    <g id="xtick_4">
     <g id="line2d_4">
      <g>
       <use style="stroke:#000000;stroke-width:0.8;" x="173.709345" xlink:href="#m4a8ddbec25" y="224.64"/>
      </g>
     </g>
     <g id="text_4">
      <!-- 75 -->
      <g transform="translate(167.346845 239.238437)scale(0.1 -0.1)">
       <defs>
        <path d="M 8.203125 72.90625 
L 55.078125 72.90625 
L 55.078125 68.703125 
L 28.609375 0 
L 18.3125 0 
L 43.21875 64.59375 
L 8.203125 64.59375 
z
" id="DejaVuSans-55"/>
       </defs>
       <use xlink:href="#DejaVuSans-55"/>
       <use x="63.623047" xlink:href="#DejaVuSans-53"/>
      </g>
     </g>
    </g>
    <g id="xtick_5">
     <g id="line2d_5">
      <g>
       <use style="stroke:#000000;stroke-width:0.8;" x="211.945983" xlink:href="#m4a8ddbec25" y="224.64"/>
      </g>
     </g>
     <g id="text_5">
      <!-- 100 -->
      <g transform="translate(202.402233 239.238437)scale(0.1 -0.1)">
       <defs>
        <path d="M 12.40625 8.296875 
L 28.515625 8.296875 
L 28.515625 63.921875 
L 10.984375 60.40625 
L 10.984375 69.390625 
L 28.421875 72.90625 
L 38.28125 72.90625 
L 38.28125 8.296875 
L 54.390625 8.296875 
L 54.390625 0 
L 12.40625 0 
z
" id="DejaVuSans-49"/>
       </defs>
       <use xlink:href="#DejaVuSans-49"/>
       <use x="63.623047" xlink:href="#DejaVuSans-48"/>
       <use x="127.246094" xlink:href="#DejaVuSans-48"/>
      </g>
     </g>
    </g>
    <g id="xtick_6">
     <g id="line2d_6">
      <g>
       <use style="stroke:#000000;stroke-width:0.8;" x="250.18262" xlink:href="#m4a8ddbec25" y="224.64"/>
      </g>
     </g>
     <g id="text_6">
      <!-- 125 -->
      <g transform="translate(240.63887 239.238437)scale(0.1 -0.1)">
       <use xlink:href="#DejaVuSans-49"/>
       <use x="63.623047" xlink:href="#DejaVuSans-50"/>
       <use x="127.246094" xlink:href="#DejaVuSans-53"/>
      </g>
     </g>
    </g>
    <g id="xtick_7">
     <g id="line2d_7">
      <g>
       <use style="stroke:#000000;stroke-width:0.8;" x="288.419258" xlink:href="#m4a8ddbec25" y="224.64"/>
      </g>
     </g>
     <g id="text_7">
      <!-- 150 -->
      <g transform="translate(278.875508 239.238437)scale(0.1 -0.1)">
       <use xlink:href="#DejaVuSans-49"/>
       <use x="63.623047" xlink:href="#DejaVuSans-53"/>
       <use x="127.246094" xlink:href="#DejaVuSans-48"/>
      </g>
     </g>
    </g>
    <g id="xtick_8">
     <g id="line2d_8">
      <g>
       <use style="stroke:#000000;stroke-width:0.8;" x="326.655896" xlink:href="#m4a8ddbec25" y="224.64"/>
      </g>
     </g>
     <g id="text_8">
      <!-- 175 -->
      <g transform="translate(317.112146 239.238437)scale(0.1 -0.1)">
       <use xlink:href="#DejaVuSans-49"/>
       <use x="63.623047" xlink:href="#DejaVuSans-55"/>
       <use x="127.246094" xlink:href="#DejaVuSans-53"/>
      </g>
     </g>
    </g>
    <g id="xtick_9">
     <g id="line2d_9">
      <g>
       <use style="stroke:#000000;stroke-width:0.8;" x="364.892534" xlink:href="#m4a8ddbec25" y="224.64"/>
      </g>
     </g>
     <g id="text_9">
      <!-- 200 -->
      <g transform="translate(355.348784 239.238437)scale(0.1 -0.1)">
       <use xlink:href="#DejaVuSans-50"/>
       <use x="63.623047" xlink:href="#DejaVuSans-48"/>
       <use x="127.246094" xlink:href="#DejaVuSans-48"/>
      </g>
     </g>
    </g>
    <g id="text_10">
     <!-- epoch -->
     <g transform="translate(195.953125 252.916562)scale(0.1 -0.1)">
      <defs>
       <path d="M 56.203125 29.59375 
L 56.203125 25.203125 
L 14.890625 25.203125 
Q 15.484375 15.921875 20.484375 11.0625 
Q 25.484375 6.203125 34.421875 6.203125 
Q 39.59375 6.203125 44.453125 7.46875 
Q 49.3125 8.734375 54.109375 11.28125 
L 54.109375 2.78125 
Q 49.265625 0.734375 44.1875 -0.34375 
Q 39.109375 -1.421875 33.890625 -1.421875 
Q 20.796875 -1.421875 13.15625 6.1875 
Q 5.515625 13.8125 5.515625 26.8125 
Q 5.515625 40.234375 12.765625 48.109375 
Q 20.015625 56 32.328125 56 
Q 43.359375 56 49.78125 48.890625 
Q 56.203125 41.796875 56.203125 29.59375 
z
M 47.21875 32.234375 
Q 47.125 39.59375 43.09375 43.984375 
Q 39.0625 48.390625 32.421875 48.390625 
Q 24.90625 48.390625 20.390625 44.140625 
Q 15.875 39.890625 15.1875 32.171875 
z
" id="DejaVuSans-101"/>
       <path d="M 18.109375 8.203125 
L 18.109375 -20.796875 
L 9.078125 -20.796875 
L 9.078125 54.6875 
L 18.109375 54.6875 
L 18.109375 46.390625 
Q 20.953125 51.265625 25.265625 53.625 
Q 29.59375 56 35.59375 56 
Q 45.5625 56 51.78125 48.09375 
Q 58.015625 40.1875 58.015625 27.296875 
Q 58.015625 14.40625 51.78125 6.484375 
Q 45.5625 -1.421875 35.59375 -1.421875 
Q 29.59375 -1.421875 25.265625 0.953125 
Q 20.953125 3.328125 18.109375 8.203125 
z
M 48.6875 27.296875 
Q 48.6875 37.203125 44.609375 42.84375 
Q 40.53125 48.484375 33.40625 48.484375 
Q 26.265625 48.484375 22.1875 42.84375 
Q 18.109375 37.203125 18.109375 27.296875 
Q 18.109375 17.390625 22.1875 11.75 
Q 26.265625 6.109375 33.40625 6.109375 
Q 40.53125 6.109375 44.609375 11.75 
Q 48.6875 17.390625 48.6875 27.296875 
z
" id="DejaVuSans-112"/>
       <path d="M 30.609375 48.390625 
Q 23.390625 48.390625 19.1875 42.75 
Q 14.984375 37.109375 14.984375 27.296875 
Q 14.984375 17.484375 19.15625 11.84375 
Q 23.34375 6.203125 30.609375 6.203125 
Q 37.796875 6.203125 41.984375 11.859375 
Q 46.1875 17.53125 46.1875 27.296875 
Q 46.1875 37.015625 41.984375 42.703125 
Q 37.796875 48.390625 30.609375 48.390625 
z
M 30.609375 56 
Q 42.328125 56 49.015625 48.375 
Q 55.71875 40.765625 55.71875 27.296875 
Q 55.71875 13.875 49.015625 6.21875 
Q 42.328125 -1.421875 30.609375 -1.421875 
Q 18.84375 -1.421875 12.171875 6.21875 
Q 5.515625 13.875 5.515625 27.296875 
Q 5.515625 40.765625 12.171875 48.375 
Q 18.84375 56 30.609375 56 
z
" id="DejaVuSans-111"/>
       <path d="M 48.78125 52.59375 
L 48.78125 44.1875 
Q 44.96875 46.296875 41.140625 47.34375 
Q 37.3125 48.390625 33.40625 48.390625 
Q 24.65625 48.390625 19.8125 42.84375 
Q 14.984375 37.3125 14.984375 27.296875 
Q 14.984375 17.28125 19.8125 11.734375 
Q 24.65625 6.203125 33.40625 6.203125 
Q 37.3125 6.203125 41.140625 7.25 
Q 44.96875 8.296875 48.78125 10.40625 
L 48.78125 2.09375 
Q 45.015625 0.34375 40.984375 -0.53125 
Q 36.96875 -1.421875 32.421875 -1.421875 
Q 20.0625 -1.421875 12.78125 6.34375 
Q 5.515625 14.109375 5.515625 27.296875 
Q 5.515625 40.671875 12.859375 48.328125 
Q 20.21875 56 33.015625 56 
Q 37.15625 56 41.109375 55.140625 
Q 45.0625 54.296875 48.78125 52.59375 
z
" id="DejaVuSans-99"/>
       <path d="M 54.890625 33.015625 
L 54.890625 0 
L 45.90625 0 
L 45.90625 32.71875 
Q 45.90625 40.484375 42.875 44.328125 
Q 39.84375 48.1875 33.796875 48.1875 
Q 26.515625 48.1875 22.3125 43.546875 
Q 18.109375 38.921875 18.109375 30.90625 
L 18.109375 0 
L 9.078125 0 
L 9.078125 75.984375 
L 18.109375 75.984375 
L 18.109375 46.1875 
Q 21.34375 51.125 25.703125 53.5625 
Q 30.078125 56 35.796875 56 
Q 45.21875 56 50.046875 50.171875 
Q 54.890625 44.34375 54.890625 33.015625 
z
" id="DejaVuSans-104"/>
      </defs>
      <use xlink:href="#DejaVuSans-101"/>
      <use x="61.523438" xlink:href="#DejaVuSans-112"/>
      <use x="125" xlink:href="#DejaVuSans-111"/>
      <use x="186.181641" xlink:href="#DejaVuSans-99"/>
      <use x="241.162109" xlink:href="#DejaVuSans-104"/>
     </g>
    </g>
   </g>
   <g id="matplotlib.axis_2">
    <g id="ytick_1">
     <g id="line2d_10">
      <defs>
       <path d="M 0 0 
L -3.5 0 
" id="m14b11ad201" style="stroke:#000000;stroke-width:0.8;"/>
      </defs>
      <g>
       <use style="stroke:#000000;stroke-width:0.8;" x="43.78125" xlink:href="#m14b11ad201" y="199.428801"/>
      </g>
     </g>
     <g id="text_11">
      <!-- 0.1 -->
      <g transform="translate(20.878125 203.228019)scale(0.1 -0.1)">
       <defs>
        <path d="M 10.6875 12.40625 
L 21 12.40625 
L 21 0 
L 10.6875 0 
z
" id="DejaVuSans-46"/>
       </defs>
       <use xlink:href="#DejaVuSans-48"/>
       <use x="63.623047" xlink:href="#DejaVuSans-46"/>
       <use x="95.410156" xlink:href="#DejaVuSans-49"/>
      </g>
     </g>
    </g>
    <g id="ytick_2">
     <g id="line2d_11">
      <g>
       <use style="stroke:#000000;stroke-width:0.8;" x="43.78125" xlink:href="#m14b11ad201" y="173.001966"/>
      </g>
     </g>
     <g id="text_12">
      <!-- 0.2 -->
      <g transform="translate(20.878125 176.801185)scale(0.1 -0.1)">
       <use xlink:href="#DejaVuSans-48"/>
       <use x="63.623047" xlink:href="#DejaVuSans-46"/>
       <use x="95.410156" xlink:href="#DejaVuSans-50"/>
      </g>
     </g>
    </g>
    <g id="ytick_3">
     <g id="line2d_12">
      <g>
       <use style="stroke:#000000;stroke-width:0.8;" x="43.78125" xlink:href="#m14b11ad201" y="146.575131"/>
      </g>
     </g>
     <g id="text_13">
      <!-- 0.3 -->
      <g transform="translate(20.878125 150.37435)scale(0.1 -0.1)">
       <defs>
        <path d="M 40.578125 39.3125 
Q 47.65625 37.796875 51.625 33 
Q 55.609375 28.21875 55.609375 21.1875 
Q 55.609375 10.40625 48.1875 4.484375 
Q 40.765625 -1.421875 27.09375 -1.421875 
Q 22.515625 -1.421875 17.65625 -0.515625 
Q 12.796875 0.390625 7.625 2.203125 
L 7.625 11.71875 
Q 11.71875 9.328125 16.59375 8.109375 
Q 21.484375 6.890625 26.8125 6.890625 
Q 36.078125 6.890625 40.9375 10.546875 
Q 45.796875 14.203125 45.796875 21.1875 
Q 45.796875 27.640625 41.28125 31.265625 
Q 36.765625 34.90625 28.71875 34.90625 
L 20.21875 34.90625 
L 20.21875 43.015625 
L 29.109375 43.015625 
Q 36.375 43.015625 40.234375 45.921875 
Q 44.09375 48.828125 44.09375 54.296875 
Q 44.09375 59.90625 40.109375 62.90625 
Q 36.140625 65.921875 28.71875 65.921875 
Q 24.65625 65.921875 20.015625 65.03125 
Q 15.375 64.15625 9.8125 62.3125 
L 9.8125 71.09375 
Q 15.4375 72.65625 20.34375 73.4375 
Q 25.25 74.21875 29.59375 74.21875 
Q 40.828125 74.21875 47.359375 69.109375 
Q 53.90625 64.015625 53.90625 55.328125 
Q 53.90625 49.265625 50.4375 45.09375 
Q 46.96875 40.921875 40.578125 39.3125 
z
" id="DejaVuSans-51"/>
       </defs>
       <use xlink:href="#DejaVuSans-48"/>
       <use x="63.623047" xlink:href="#DejaVuSans-46"/>
       <use x="95.410156" xlink:href="#DejaVuSans-51"/>
      </g>
     </g>
    </g>
    <g id="ytick_4">
     <g id="line2d_13">
      <g>
       <use style="stroke:#000000;stroke-width:0.8;" x="43.78125" xlink:href="#m14b11ad201" y="120.148297"/>
      </g>
     </g>
     <g id="text_14">
      <!-- 0.4 -->
      <g transform="translate(20.878125 123.947516)scale(0.1 -0.1)">
       <defs>
        <path d="M 37.796875 64.3125 
L 12.890625 25.390625 
L 37.796875 25.390625 
z
M 35.203125 72.90625 
L 47.609375 72.90625 
L 47.609375 25.390625 
L 58.015625 25.390625 
L 58.015625 17.1875 
L 47.609375 17.1875 
L 47.609375 0 
L 37.796875 0 
L 37.796875 17.1875 
L 4.890625 17.1875 
L 4.890625 26.703125 
z
" id="DejaVuSans-52"/>
       </defs>
       <use xlink:href="#DejaVuSans-48"/>
       <use x="63.623047" xlink:href="#DejaVuSans-46"/>
       <use x="95.410156" xlink:href="#DejaVuSans-52"/>
      </g>
     </g>
    </g>
    <g id="ytick_5">
     <g id="line2d_14">
      <g>
       <use style="stroke:#000000;stroke-width:0.8;" x="43.78125" xlink:href="#m14b11ad201" y="93.721462"/>
      </g>
     </g>
     <g id="text_15">
      <!-- 0.5 -->
      <g transform="translate(20.878125 97.520681)scale(0.1 -0.1)">
       <use xlink:href="#DejaVuSans-48"/>
       <use x="63.623047" xlink:href="#DejaVuSans-46"/>
       <use x="95.410156" xlink:href="#DejaVuSans-53"/>
      </g>
     </g>
    </g>
    <g id="ytick_6">
     <g id="line2d_15">
      <g>
       <use style="stroke:#000000;stroke-width:0.8;" x="43.78125" xlink:href="#m14b11ad201" y="67.294628"/>
      </g>
     </g>
     <g id="text_16">
      <!-- 0.6 -->
      <g transform="translate(20.878125 71.093846)scale(0.1 -0.1)">
       <defs>
        <path d="M 33.015625 40.375 
Q 26.375 40.375 22.484375 35.828125 
Q 18.609375 31.296875 18.609375 23.390625 
Q 18.609375 15.53125 22.484375 10.953125 
Q 26.375 6.390625 33.015625 6.390625 
Q 39.65625 6.390625 43.53125 10.953125 
Q 47.40625 15.53125 47.40625 23.390625 
Q 47.40625 31.296875 43.53125 35.828125 
Q 39.65625 40.375 33.015625 40.375 
z
M 52.59375 71.296875 
L 52.59375 62.3125 
Q 48.875 64.0625 45.09375 64.984375 
Q 41.3125 65.921875 37.59375 65.921875 
Q 27.828125 65.921875 22.671875 59.328125 
Q 17.53125 52.734375 16.796875 39.40625 
Q 19.671875 43.65625 24.015625 45.921875 
Q 28.375 48.1875 33.59375 48.1875 
Q 44.578125 48.1875 50.953125 41.515625 
Q 57.328125 34.859375 57.328125 23.390625 
Q 57.328125 12.15625 50.6875 5.359375 
Q 44.046875 -1.421875 33.015625 -1.421875 
Q 20.359375 -1.421875 13.671875 8.265625 
Q 6.984375 17.96875 6.984375 36.375 
Q 6.984375 53.65625 15.1875 63.9375 
Q 23.390625 74.21875 37.203125 74.21875 
Q 40.921875 74.21875 44.703125 73.484375 
Q 48.484375 72.75 52.59375 71.296875 
z
" id="DejaVuSans-54"/>
       </defs>
       <use xlink:href="#DejaVuSans-48"/>
       <use x="63.623047" xlink:href="#DejaVuSans-46"/>
       <use x="95.410156" xlink:href="#DejaVuSans-54"/>
      </g>
     </g>
    </g>
    <g id="ytick_7">
     <g id="line2d_16">
      <g>
       <use style="stroke:#000000;stroke-width:0.8;" x="43.78125" xlink:href="#m14b11ad201" y="40.867793"/>
      </g>
     </g>
     <g id="text_17">
      <!-- 0.7 -->
      <g transform="translate(20.878125 44.667012)scale(0.1 -0.1)">
       <use xlink:href="#DejaVuSans-48"/>
       <use x="63.623047" xlink:href="#DejaVuSans-46"/>
       <use x="95.410156" xlink:href="#DejaVuSans-55"/>
      </g>
     </g>
    </g>
    <g id="ytick_8">
     <g id="line2d_17">
      <g>
       <use style="stroke:#000000;stroke-width:0.8;" x="43.78125" xlink:href="#m14b11ad201" y="14.440959"/>
      </g>
     </g>
     <g id="text_18">
      <!-- 0.8 -->
      <g transform="translate(20.878125 18.240177)scale(0.1 -0.1)">
       <defs>
        <path d="M 31.78125 34.625 
Q 24.75 34.625 20.71875 30.859375 
Q 16.703125 27.09375 16.703125 20.515625 
Q 16.703125 13.921875 20.71875 10.15625 
Q 24.75 6.390625 31.78125 6.390625 
Q 38.8125 6.390625 42.859375 10.171875 
Q 46.921875 13.96875 46.921875 20.515625 
Q 46.921875 27.09375 42.890625 30.859375 
Q 38.875 34.625 31.78125 34.625 
z
M 21.921875 38.8125 
Q 15.578125 40.375 12.03125 44.71875 
Q 8.5 49.078125 8.5 55.328125 
Q 8.5 64.0625 14.71875 69.140625 
Q 20.953125 74.21875 31.78125 74.21875 
Q 42.671875 74.21875 48.875 69.140625 
Q 55.078125 64.0625 55.078125 55.328125 
Q 55.078125 49.078125 51.53125 44.71875 
Q 48 40.375 41.703125 38.8125 
Q 48.828125 37.15625 52.796875 32.3125 
Q 56.78125 27.484375 56.78125 20.515625 
Q 56.78125 9.90625 50.3125 4.234375 
Q 43.84375 -1.421875 31.78125 -1.421875 
Q 19.734375 -1.421875 13.25 4.234375 
Q 6.78125 9.90625 6.78125 20.515625 
Q 6.78125 27.484375 10.78125 32.3125 
Q 14.796875 37.15625 21.921875 38.8125 
z
M 18.3125 54.390625 
Q 18.3125 48.734375 21.84375 45.5625 
Q 25.390625 42.390625 31.78125 42.390625 
Q 38.140625 42.390625 41.71875 45.5625 
Q 45.3125 48.734375 45.3125 54.390625 
Q 45.3125 60.0625 41.71875 63.234375 
Q 38.140625 66.40625 31.78125 66.40625 
Q 25.390625 66.40625 21.84375 63.234375 
Q 18.3125 60.0625 18.3125 54.390625 
z
" id="DejaVuSans-56"/>
       </defs>
       <use xlink:href="#DejaVuSans-48"/>
       <use x="63.623047" xlink:href="#DejaVuSans-46"/>
       <use x="95.410156" xlink:href="#DejaVuSans-56"/>
      </g>
     </g>
    </g>
    <g id="text_19">
     <!-- score -->
     <g transform="translate(14.798438 129.352812)rotate(-90)scale(0.1 -0.1)">
      <defs>
       <path d="M 44.28125 53.078125 
L 44.28125 44.578125 
Q 40.484375 46.53125 36.375 47.5 
Q 32.28125 48.484375 27.875 48.484375 
Q 21.1875 48.484375 17.84375 46.4375 
Q 14.5 44.390625 14.5 40.28125 
Q 14.5 37.15625 16.890625 35.375 
Q 19.28125 33.59375 26.515625 31.984375 
L 29.59375 31.296875 
Q 39.15625 29.25 43.1875 25.515625 
Q 47.21875 21.78125 47.21875 15.09375 
Q 47.21875 7.46875 41.1875 3.015625 
Q 35.15625 -1.421875 24.609375 -1.421875 
Q 20.21875 -1.421875 15.453125 -0.5625 
Q 10.6875 0.296875 5.421875 2 
L 5.421875 11.28125 
Q 10.40625 8.6875 15.234375 7.390625 
Q 20.0625 6.109375 24.8125 6.109375 
Q 31.15625 6.109375 34.5625 8.28125 
Q 37.984375 10.453125 37.984375 14.40625 
Q 37.984375 18.0625 35.515625 20.015625 
Q 33.0625 21.96875 24.703125 23.78125 
L 21.578125 24.515625 
Q 13.234375 26.265625 9.515625 29.90625 
Q 5.8125 33.546875 5.8125 39.890625 
Q 5.8125 47.609375 11.28125 51.796875 
Q 16.75 56 26.8125 56 
Q 31.78125 56 36.171875 55.265625 
Q 40.578125 54.546875 44.28125 53.078125 
z
" id="DejaVuSans-115"/>
       <path d="M 41.109375 46.296875 
Q 39.59375 47.171875 37.8125 47.578125 
Q 36.03125 48 33.890625 48 
Q 26.265625 48 22.1875 43.046875 
Q 18.109375 38.09375 18.109375 28.8125 
L 18.109375 0 
L 9.078125 0 
L 9.078125 54.6875 
L 18.109375 54.6875 
L 18.109375 46.1875 
Q 20.953125 51.171875 25.484375 53.578125 
Q 30.03125 56 36.53125 56 
Q 37.453125 56 38.578125 55.875 
Q 39.703125 55.765625 41.0625 55.515625 
z
" id="DejaVuSans-114"/>
      </defs>
      <use xlink:href="#DejaVuSans-115"/>
      <use x="52.099609" xlink:href="#DejaVuSans-99"/>
      <use x="107.080078" xlink:href="#DejaVuSans-111"/>
      <use x="168.261719" xlink:href="#DejaVuSans-114"/>
      <use x="207.125" xlink:href="#DejaVuSans-101"/>
     </g>
    </g>
   </g>
   <g id="line2d_18">
    <path clip-path="url(#pe74874f025)" d="M 58.999432 156.088789 
L 60.528897 167.18806 
L 62.058363 130.719029 
L 63.587828 126.490733 
L 65.117294 92.135846 
L 66.646759 87.379017 
L 68.176225 81.565113 
L 69.70569 83.150717 
L 71.235156 88.964627 
L 72.764621 90.021701 
L 74.294087 83.679259 
L 75.823552 95.835604 
L 77.353018 91.078778 
L 78.882483 93.192925 
L 81.941414 81.56511 
L 83.47088 83.679261 
L 85.000345 90.550239 
L 86.529811 73.637068 
L 88.059276 82.622191 
L 89.588742 86.32194 
L 91.118208 81.565113 
L 92.647673 77.865353 
L 94.177139 73.637062 
L 95.706604 85.793405 
L 97.23607 83.679261 
L 98.765535 77.865355 
L 100.295001 73.108526 
L 101.824466 83.150721 
L 103.353932 64.651937 
L 104.883397 69.408769 
L 106.412863 67.823158 
L 107.942328 64.651939 
L 109.471794 68.351691 
L 111.001259 84.736333 
L 112.530725 60.952179 
L 114.06019 65.709016 
L 115.589656 79.450973 
L 117.119121 53.552668 
L 118.648587 65.180474 
L 120.178052 89.493163 
L 121.707518 57.780964 
L 123.236983 46.681688 
L 124.766449 64.123398 
L 126.295914 76.279738 
L 127.82538 54.081204 
L 129.354845 54.60974 
L 130.884311 65.709007 
L 132.413776 37.696563 
L 133.943242 48.2673 
L 135.472707 48.795834 
L 137.002173 48.267297 
L 138.531638 67.823158 
L 140.061104 37.168034 
L 141.590569 31.882662 
L 143.120035 75.222675 
L 144.6495 60.952178 
L 146.178966 43.510471 
L 147.708431 29.239981 
L 149.237897 29.768514 
L 150.767362 54.081204 
L 152.296828 28.182912 
L 153.826293 22.368992 
L 155.355759 30.82559 
L 156.885224 47.73876 
L 158.41469 62.537794 
L 159.944155 27.12583 
L 161.473621 22.897541 
L 163.003086 36.639494 
L 164.532552 24.483146 
L 166.062017 32.939738 
L 167.591483 25.540228 
L 169.120948 39.282178 
L 170.650414 39.282181 
L 172.17988 30.825587 
L 173.709345 25.011692 
L 175.238811 31.354132 
L 176.768276 26.597297 
L 178.297742 19.197784 
L 179.827207 27.65437 
L 181.356673 37.168037 
L 182.886138 47.738764 
L 184.415604 69.937312 
L 185.945069 33.99681 
L 187.474535 67.294626 
L 189.004 37.696563 
L 190.533466 23.426086 
L 192.062931 22.897547 
L 193.592397 24.48314 
L 195.121862 21.311929 
L 196.651328 30.82559 
L 198.180793 20.78339 
L 199.710259 25.540222 
L 201.239724 22.897541 
L 202.76919 24.483152 
L 204.298655 22.897534 
L 205.828121 20.25486 
L 207.357586 26.068764 
L 208.887052 20.25485 
L 211.945983 29.768521 
L 213.475448 20.254857 
L 215.004914 25.540228 
L 216.534379 18.669248 
L 218.063845 33.996813 
L 219.59331 20.783396 
L 221.122776 33.468274 
L 222.652241 26.068761 
L 224.181707 24.483152 
L 225.711172 24.483149 
L 227.240638 25.540215 
L 228.770103 36.110958 
L 230.299569 19.726317 
L 231.829034 18.140706 
L 233.3585 20.783396 
L 234.887965 23.954607 
L 236.417431 18.669251 
L 237.946896 20.254857 
L 239.476362 23.426083 
L 241.005827 20.783387 
L 242.535293 22.369005 
L 244.064758 26.5973 
L 245.594224 22.369001 
L 247.123689 19.72632 
L 248.653155 17.61216 
L 250.18262 20.783387 
L 251.712086 17.083636 
L 253.241552 21.311929 
L 254.771017 17.612166 
L 256.300483 20.254857 
L 257.829948 21.311932 
L 259.359414 20.78339 
L 260.888879 21.311932 
L 262.418345 19.197775 
L 263.94781 20.254857 
L 265.477276 21.840472 
L 267.006741 19.197778 
L 270.065672 20.254857 
L 271.595138 21.311929 
L 273.124603 20.783393 
L 274.654069 20.783387 
L 276.183534 19.726311 
L 277.713 18.140706 
L 279.242465 17.612176 
L 280.771931 20.783393 
L 282.301396 18.669239 
L 283.830862 21.311923 
L 285.360327 20.254857 
L 286.889793 19.726317 
L 288.419258 20.78339 
L 289.948724 21.311929 
L 291.478189 20.783393 
L 293.007655 23.426071 
L 294.53712 18.669242 
L 296.066586 22.897531 
L 297.596051 23.954607 
L 299.125517 19.726317 
L 302.184448 20.783393 
L 305.243379 19.726314 
L 306.772844 19.726308 
L 308.30231 20.254853 
L 309.831775 19.72632 
L 311.361241 19.726317 
L 312.890706 20.254853 
L 314.420172 19.197781 
L 315.949637 20.254857 
L 317.479103 19.72632 
L 319.008568 19.726317 
L 320.538034 22.897538 
L 322.067499 19.72632 
L 323.596965 19.726324 
L 325.12643 20.783396 
L 326.655896 20.78339 
L 329.714827 19.72632 
L 331.244292 20.78339 
L 332.773758 23.426071 
L 334.303224 22.369001 
L 335.832689 22.369005 
L 337.362155 20.783393 
L 338.89162 19.726317 
L 340.421086 20.783393 
L 341.950551 21.311932 
L 343.480017 18.669245 
L 345.009482 21.311932 
L 346.538948 18.669239 
L 348.068413 18.669248 
L 349.597879 22.368998 
L 351.127344 18.669251 
L 352.65681 19.197778 
L 354.186275 20.25485 
L 355.715741 20.783393 
L 357.245206 21.840472 
L 358.774672 19.726317 
L 360.304137 21.311926 
L 361.833603 18.669248 
L 363.363068 19.726317 
L 363.363068 19.726317 
" style="fill:none;stroke:#1f77b4;stroke-linecap:square;stroke-width:1.5;"/>
   </g>
   <g id="line2d_19">
    <path clip-path="url(#pe74874f025)" d="M 58.999432 159.26001 
L 60.528897 154.503178 
L 62.058363 158.202937 
L 63.587828 158.202935 
L 65.117294 151.331955 
L 66.646759 130.190489 
L 68.176225 131.776102 
L 69.70569 142.875375 
L 71.235156 127.547805 
L 72.764621 126.490733 
L 74.294087 125.962198 
L 75.823552 114.334388 
L 77.353018 125.962198 
L 78.882483 122.790979 
L 80.411949 123.319512 
L 81.941414 107.46341 
L 83.47088 128.076347 
L 85.000345 124.376586 
L 86.529811 135.475861 
L 88.059276 123.848052 
L 89.588742 128.604881 
L 91.118208 127.547811 
L 92.647673 124.376586 
L 94.177139 118.562683 
L 95.706604 118.562684 
L 97.23607 133.890249 
L 98.765535 134.418781 
L 100.295001 124.905126 
L 101.824466 117.50561 
L 104.883397 123.848047 
L 106.412863 125.433659 
L 107.942328 131.247569 
L 109.471794 132.304637 
L 111.001259 133.890246 
L 112.530725 132.833173 
L 114.06019 124.376586 
L 115.589656 128.076341 
L 117.119121 113.805852 
L 118.648587 127.019274 
L 120.178052 130.190492 
L 121.707518 134.947323 
L 123.236983 136.532934 
L 124.766449 133.361709 
L 126.295914 127.019274 
L 127.82538 117.50561 
L 129.354845 127.019274 
L 130.884311 129.133418 
L 132.413776 137.590006 
L 133.943242 124.905127 
L 135.472707 132.833175 
L 137.002173 126.490731 
L 138.531638 133.890247 
L 140.061104 133.361709 
L 141.590569 134.418783 
L 143.120035 136.004394 
L 144.6495 138.647078 
L 146.178966 129.661957 
L 147.708431 139.704152 
L 149.237897 118.562685 
L 150.767362 135.475856 
L 152.296828 143.403906 
L 153.826293 130.719028 
L 155.355759 141.818298 
L 156.885224 124.905124 
L 158.41469 122.790977 
L 159.944155 106.934875 
L 161.473621 128.07634 
L 163.003086 143.932443 
L 164.532552 114.862929 
L 166.062017 146.046592 
L 167.591483 138.118542 
L 169.120948 140.761226 
L 170.650414 143.932445 
L 172.17988 131.247562 
L 173.709345 134.94732 
L 175.238811 142.875373 
L 176.768276 119.09122 
L 178.297742 120.148295 
L 179.827207 133.890248 
L 181.356673 139.704154 
L 182.886138 144.46098 
L 184.415604 116.448534 
L 185.945069 121.733906 
L 187.474535 141.289763 
L 189.004 150.274883 
L 190.533466 148.689276 
L 192.062931 133.361713 
L 193.592397 124.905126 
L 195.121862 139.175616 
L 196.651328 127.019273 
L 198.180793 120.676833 
L 199.710259 114.862925 
L 201.239724 142.346836 
L 202.76919 135.475855 
L 204.298655 134.418789 
L 205.828121 134.418784 
L 207.357586 133.361709 
L 208.887052 129.661957 
L 210.416517 129.133414 
L 211.945983 108.52049 
L 213.475448 130.190493 
L 215.004914 112.220241 
L 216.534379 131.247564 
L 218.063845 124.905122 
L 219.59331 135.475856 
L 221.122776 153.446107 
L 222.652241 139.704154 
L 224.181707 129.133419 
L 225.711172 138.647081 
L 227.240638 132.833173 
L 228.770103 128.604879 
L 230.299569 113.277312 
L 231.829034 136.004395 
L 233.3585 112.748777 
L 234.887965 123.848049 
L 236.417431 128.604878 
L 237.946896 111.691705 
L 239.476362 127.547808 
L 241.005827 118.034147 
L 242.535293 128.604882 
L 244.064758 103.763652 
L 245.594224 128.076344 
L 247.123689 106.934873 
L 248.653155 108.520484 
L 250.18262 125.962199 
L 251.712086 162.43123 
L 253.241552 165.602449 
L 254.771017 161.374155 
L 256.300483 149.746349 
L 257.829948 146.575132 
L 259.359414 127.54781 
L 260.888879 125.433658 
L 262.418345 141.289764 
L 263.94781 143.403907 
L 265.477276 125.962196 
L 267.006741 144.460983 
L 268.536207 129.661958 
L 270.065672 123.319515 
L 271.595138 136.532929 
L 273.124603 132.30464 
L 274.654069 129.661956 
L 276.183534 125.43366 
L 277.713 114.862927 
L 279.242465 133.361715 
L 280.771931 128.604879 
L 282.301396 136.00439 
L 283.830862 139.175616 
L 285.360327 132.833173 
L 286.889793 132.833172 
L 288.419258 109.577561 
L 289.948724 131.776099 
L 291.478189 130.19049 
L 293.007655 138.118535 
L 294.53712 130.719027 
L 296.066586 131.776102 
L 297.596051 148.689274 
L 299.125517 134.418784 
L 300.654982 142.346834 
L 302.184448 143.403908 
L 303.713913 139.704149 
L 305.243379 149.74635 
L 306.772844 145.518058 
L 308.30231 149.74635 
L 309.831775 152.917569 
L 311.361241 143.403905 
L 312.890706 151.33196 
L 314.420172 132.833173 
L 315.949637 160.845621 
L 317.479103 162.95977 
L 319.008568 145.518058 
L 320.538034 140.761224 
L 322.067499 146.046591 
L 323.596965 138.118541 
L 325.12643 153.446111 
L 326.655896 153.974641 
L 328.185361 149.74635 
L 329.714827 156.617328 
L 331.244292 139.175612 
L 332.773758 166.659523 
L 334.303224 151.331959 
L 335.832689 160.317085 
L 337.362155 151.860493 
L 338.89162 146.57513 
L 340.421086 178.815867 
L 341.950551 160.317083 
L 343.480017 157.674399 
L 345.009482 160.845618 
L 346.538948 167.188059 
L 348.068413 159.788547 
L 349.597879 171.416353 
L 351.127344 155.560253 
L 352.65681 154.503177 
L 354.186275 173.530503 
L 355.715741 168.773672 
L 357.245206 170.359281 
L 358.774672 167.18806 
L 360.304137 187.800991 
L 361.833603 155.031718 
L 363.363068 174.587575 
L 363.363068 174.587575 
" style="fill:none;stroke:#ff7f0e;stroke-linecap:square;stroke-width:1.5;"/>
   </g>
   <g id="line2d_20">
    <path clip-path="url(#pe74874f025)" d="M 58.999432 137.590007 
L 60.528897 130.190491 
L 62.058363 90.550242 
L 63.587828 102.17804 
L 65.117294 95.835607 
L 66.646759 95.835602 
L 68.176225 79.450958 
L 69.70569 93.192923 
L 71.235156 78.922427 
L 72.764621 87.907555 
L 74.294087 77.865356 
L 75.823552 77.86535 
L 77.353018 69.937301 
L 78.882483 81.56511 
L 80.411949 76.808284 
L 81.941414 86.850479 
L 83.47088 83.679262 
L 85.000345 81.565117 
L 86.529811 86.321943 
L 88.059276 73.108527 
L 89.588742 78.393891 
L 91.118208 79.450968 
L 92.647673 74.165598 
L 94.177139 82.622185 
L 95.706604 74.694138 
L 97.23607 86.321946 
L 98.765535 76.808273 
L 100.295001 83.15072 
L 101.824466 81.036575 
L 103.353932 87.379009 
L 104.883397 82.09365 
L 106.412863 68.88023 
L 107.942328 88.436083 
L 109.471794 87.379019 
L 111.001259 73.108526 
L 112.530725 89.493163 
L 114.06019 66.237546 
L 115.589656 93.19292 
L 117.119121 82.622183 
L 118.648587 75.751208 
L 120.178052 85.264868 
L 121.707518 72.57999 
L 123.236983 58.3095 
L 124.766449 71.522916 
L 126.295914 70.994375 
L 127.82538 77.865356 
L 129.354845 74.165595 
L 130.884311 59.895109 
L 132.413776 85.79341 
L 133.943242 73.637059 
L 135.472707 84.736335 
L 137.002173 71.522913 
L 138.531638 63.594862 
L 140.061104 75.222669 
L 141.590569 75.751211 
L 143.120035 73.108523 
L 144.6495 80.508037 
L 146.178966 62.009255 
L 147.708431 80.508043 
L 149.237897 61.480717 
L 150.767362 69.937301 
L 152.296828 53.552665 
L 153.826293 55.138273 
L 155.355759 54.081204 
L 156.885224 57.252421 
L 158.41469 56.723888 
L 159.944155 40.867784 
L 161.473621 49.852908 
L 163.003086 48.795845 
L 164.532552 53.552668 
L 166.062017 56.195349 
L 167.591483 42.981938 
L 169.120948 50.909984 
L 170.650414 55.666816 
L 172.17988 41.396323 
L 173.709345 33.996813 
L 175.238811 36.110952 
L 176.768276 46.681691 
L 178.297742 51.967059 
L 179.827207 44.567543 
L 181.356673 48.267303 
L 182.886138 46.153152 
L 184.415604 39.282181 
L 185.945069 42.453395 
L 187.474535 39.810711 
L 189.004 43.510468 
L 190.533466 35.582412 
L 192.062931 34.525343 
L 193.592397 32.939741 
L 195.121862 35.582422 
L 196.651328 35.582425 
L 198.180793 37.168027 
L 199.710259 35.582419 
L 201.239724 31.354126 
L 202.76919 36.639488 
L 204.298655 29.768514 
L 205.828121 35.053886 
L 207.357586 29.768517 
L 208.887052 36.110958 
L 210.416517 30.825584 
L 211.945983 24.483149 
L 213.475448 25.011685 
L 215.004914 31.354132 
L 216.534379 28.711442 
L 218.063845 27.654376 
L 219.59331 36.110958 
L 221.122776 30.297057 
L 222.652241 27.12584 
L 224.181707 25.540228 
L 225.711172 27.125833 
L 227.240638 24.483149 
L 228.770103 26.068761 
L 230.299569 24.483146 
L 231.829034 20.25485 
L 233.3585 24.483143 
L 234.887965 25.011682 
L 236.417431 22.897541 
L 237.946896 22.897534 
L 239.476362 25.540215 
L 241.005827 23.95461 
L 242.535293 27.654373 
L 244.064758 23.42608 
L 245.594224 27.12583 
L 247.123689 23.426071 
L 250.18262 23.42608 
L 251.712086 25.540219 
L 253.241552 25.540222 
L 254.771017 26.068758 
L 256.300483 30.297051 
L 257.829948 22.897534 
L 259.359414 23.95461 
L 260.888879 23.95461 
L 262.418345 23.426083 
L 263.94781 27.125837 
L 265.477276 22.897541 
L 267.006741 24.483146 
L 268.536207 23.426077 
L 270.065672 27.125833 
L 271.595138 25.011685 
L 273.124603 22.368992 
L 274.654069 25.540228 
L 276.183534 23.426071 
L 277.713 22.897538 
L 279.242465 28.711442 
L 280.771931 24.483143 
L 282.301396 22.897541 
L 283.830862 26.068761 
L 285.360327 24.483152 
L 286.889793 23.426074 
L 288.419258 25.540225 
L 289.948724 23.426077 
L 291.478189 23.954607 
L 293.007655 23.426077 
L 294.53712 24.483149 
L 296.066586 23.95461 
L 297.596051 22.897538 
L 299.125517 25.011685 
L 300.654982 23.426077 
L 302.184448 25.011679 
L 303.713913 23.954613 
L 306.772844 26.068752 
L 308.30231 24.483137 
L 309.831775 23.426077 
L 311.361241 25.011679 
L 312.890706 81.565111 
L 314.420172 86.321942 
L 315.949637 84.207794 
L 317.479103 60.952184 
L 319.008568 59.895112 
L 320.538034 77.865355 
L 322.067499 56.195352 
L 323.596965 39.810718 
L 325.12643 42.453399 
L 326.655896 38.753639 
L 328.185361 52.495592 
L 329.714827 50.909984 
L 331.244292 34.525346 
L 332.773758 40.867784 
L 334.303224 34.525346 
L 335.832689 38.225106 
L 337.362155 40.867784 
L 338.89162 36.110958 
L 340.421086 36.639497 
L 341.950551 35.053882 
L 343.480017 39.810714 
L 345.009482 36.639494 
L 346.538948 31.882665 
L 348.068413 32.411195 
L 349.597879 30.297051 
L 351.127344 32.411198 
L 352.65681 30.825584 
L 354.186275 31.882662 
L 355.715741 27.125827 
L 357.245206 30.825587 
L 358.774672 29.768514 
L 360.304137 32.411195 
L 361.833603 31.354126 
L 363.363068 31.882665 
L 363.363068 31.882665 
" style="fill:none;stroke:#2ca02c;stroke-linecap:square;stroke-width:1.5;"/>
   </g>
   <g id="line2d_21">
    <path clip-path="url(#pe74874f025)" d="M 58.999432 170.887819 
L 60.528897 162.431229 
L 62.058363 166.659525 
L 63.587828 214.756364 
L 65.117294 170.887815 
L 66.646759 165.073914 
L 68.176225 147.632203 
L 69.70569 165.602451 
L 71.235156 155.560254 
L 72.764621 164.016841 
L 74.294087 156.088788 
L 75.823552 169.302206 
L 77.353018 167.18806 
L 78.882483 160.317081 
L 80.411949 160.317083 
L 81.941414 151.860495 
L 83.47088 159.788546 
L 85.000345 159.788548 
L 86.529811 161.374155 
L 88.059276 142.875373 
L 89.588742 149.217811 
L 91.118208 161.374158 
L 92.647673 157.674399 
L 94.177139 159.26001 
L 95.706604 158.202934 
L 97.23607 159.260011 
L 98.765535 150.274888 
L 101.824466 165.073913 
L 103.353932 146.575128 
L 104.883397 145.518054 
L 106.412863 159.260007 
L 107.942328 148.689277 
L 109.471794 149.746351 
L 111.001259 160.317085 
L 112.530725 153.446107 
L 114.06019 147.103662 
L 115.589656 143.40391 
L 117.119121 159.260011 
L 118.648587 158.731475 
L 120.178052 150.274887 
L 121.707518 161.374156 
L 123.236983 141.818299 
L 124.766449 155.560255 
L 126.295914 167.188058 
L 127.82538 157.674398 
L 129.354845 151.331959 
L 130.884311 160.845622 
L 132.413776 144.989516 
L 133.943242 158.202937 
L 135.472707 161.374156 
L 137.002173 153.974643 
L 138.531638 153.974641 
L 140.061104 160.317084 
L 141.590569 150.274885 
L 143.120035 155.560251 
L 144.6495 144.98952 
L 146.178966 159.260007 
L 147.708431 152.38903 
L 149.237897 166.659526 
L 150.767362 162.431231 
L 152.296828 151.860497 
L 153.826293 158.731472 
L 155.355759 161.374157 
L 156.885224 166.130989 
L 158.41469 138.647078 
L 159.944155 174.059038 
L 161.473621 157.145864 
L 163.003086 161.902694 
L 164.532552 156.08879 
L 166.062017 161.902693 
L 169.120948 159.788544 
L 170.650414 157.145865 
L 172.17988 153.974645 
L 173.709345 166.659522 
L 175.238811 168.245134 
L 176.768276 158.731473 
L 178.297742 158.202936 
L 179.827207 155.031714 
L 181.356673 156.088789 
L 182.886138 145.518052 
L 184.415604 168.245133 
L 185.945069 164.016839 
L 187.474535 157.145865 
L 189.004 157.145862 
L 190.533466 159.788544 
L 192.062931 154.503183 
L 193.592397 157.6744 
L 195.121862 161.374154 
L 196.651328 154.503181 
L 198.180793 152.917568 
L 199.710259 149.74635 
L 201.239724 160.84562 
L 202.76919 164.545375 
L 204.298655 150.803425 
L 205.828121 147.632202 
L 207.357586 165.602449 
L 208.887052 147.632202 
L 210.416517 158.202936 
L 211.945983 153.446105 
L 213.475448 144.460983 
L 215.004914 159.260011 
L 216.534379 155.031714 
L 218.063845 155.560254 
L 219.59331 157.145863 
L 221.122776 148.160738 
L 222.652241 152.389033 
L 224.181707 162.431231 
L 225.711172 159.260013 
L 227.240638 148.160737 
L 228.770103 146.046591 
L 230.299569 157.145862 
L 231.829034 157.674398 
L 233.3585 156.088793 
L 234.887965 152.91757 
L 236.417431 155.031718 
L 237.946896 159.26001 
L 239.476362 151.331959 
L 241.005827 151.860498 
L 242.535293 160.317085 
L 244.064758 153.446107 
L 245.594224 166.130989 
L 247.123689 165.073915 
L 248.653155 181.458553 
L 250.18262 171.416353 
L 251.712086 165.602448 
L 253.241552 156.088789 
L 254.771017 162.959766 
L 257.829948 144.460981 
L 259.359414 146.575129 
L 260.888879 153.446107 
L 262.418345 161.374156 
L 263.94781 152.917569 
L 265.477276 152.91757 
L 267.006741 167.188061 
L 268.536207 149.746349 
L 270.065672 158.202939 
L 271.595138 155.560254 
L 273.124603 150.803421 
L 274.654069 157.674397 
L 276.183534 150.274886 
L 277.713 152.389032 
L 279.242465 165.073912 
L 280.771931 152.917569 
L 282.301396 157.145865 
L 283.830862 158.731475 
L 285.360327 158.202939 
L 286.889793 148.689275 
L 288.419258 138.118542 
L 289.948724 166.659525 
L 291.478189 160.84562 
L 293.007655 157.674399 
L 294.53712 161.902696 
L 296.066586 161.374156 
L 297.596051 145.518054 
L 299.125517 151.33196 
L 300.654982 149.746345 
L 302.184448 156.088792 
L 303.713913 152.917568 
L 305.243379 151.860498 
L 306.772844 156.08879 
L 308.30231 155.560251 
L 309.831775 152.917568 
L 311.361241 153.974641 
L 312.890706 153.446104 
L 314.420172 144.460983 
L 315.949637 157.145863 
L 317.479103 160.845621 
L 319.008568 149.746349 
L 320.538034 157.6744 
L 322.067499 148.160739 
L 323.596965 158.731476 
L 325.12643 159.788546 
L 326.655896 165.073912 
L 328.185361 147.632205 
L 329.714827 149.217814 
L 331.244292 151.331958 
L 332.773758 144.989516 
L 334.303224 139.704151 
L 337.362155 153.446107 
L 338.89162 148.160742 
L 340.421086 154.503178 
L 341.950551 151.860496 
L 343.480017 141.289761 
L 345.009482 143.932443 
L 346.538948 145.518056 
L 348.068413 139.175612 
L 349.597879 154.503179 
L 351.127344 138.64708 
L 352.65681 142.346834 
L 354.186275 143.932443 
L 357.245206 150.274886 
L 358.774672 144.460982 
L 360.304137 129.661956 
L 361.833603 155.560251 
L 363.363068 136.532934 
L 363.363068 136.532934 
" style="fill:none;stroke:#d62728;stroke-linecap:square;stroke-width:1.5;"/>
   </g>
   <g id="patch_3">
    <path d="M 43.78125 224.64 
L 43.78125 7.2 
" style="fill:none;stroke:#000000;stroke-linecap:square;stroke-linejoin:miter;stroke-width:0.8;"/>
   </g>
   <g id="patch_4">
    <path d="M 378.58125 224.64 
L 378.58125 7.2 
" style="fill:none;stroke:#000000;stroke-linecap:square;stroke-linejoin:miter;stroke-width:0.8;"/>
   </g>
   <g id="patch_5">
    <path d="M 43.78125 224.64 
L 378.58125 224.64 
" style="fill:none;stroke:#000000;stroke-linecap:square;stroke-linejoin:miter;stroke-width:0.8;"/>
   </g>
   <g id="patch_6">
    <path d="M 43.78125 7.2 
L 378.58125 7.2 
" style="fill:none;stroke:#000000;stroke-linecap:square;stroke-linejoin:miter;stroke-width:0.8;"/>
   </g>
   <g id="legend_1">
    <g id="patch_7">
     <path d="M 50.78125 75.025 
L 215.873437 75.025 
Q 217.873437 75.025 217.873437 73.025 
L 217.873437 14.2 
Q 217.873437 12.2 215.873437 12.2 
L 50.78125 12.2 
Q 48.78125 12.2 48.78125 14.2 
L 48.78125 73.025 
Q 48.78125 75.025 50.78125 75.025 
z
" style="fill:#ffffff;opacity:0.8;stroke:#cccccc;stroke-linejoin:miter;"/>
    </g>
    <g id="line2d_22">
     <path d="M 52.78125 20.298437 
L 72.78125 20.298437 
" style="fill:none;stroke:#1f77b4;stroke-linecap:square;stroke-width:1.5;"/>
    </g>
    <g id="line2d_23"/>
    <g id="text_20">
     <!-- unet_bce_score_val -->
     <g transform="translate(80.78125 23.798437)scale(0.1 -0.1)">
      <defs>
       <path d="M 8.5 21.578125 
L 8.5 54.6875 
L 17.484375 54.6875 
L 17.484375 21.921875 
Q 17.484375 14.15625 20.5 10.265625 
Q 23.53125 6.390625 29.59375 6.390625 
Q 36.859375 6.390625 41.078125 11.03125 
Q 45.3125 15.671875 45.3125 23.6875 
L 45.3125 54.6875 
L 54.296875 54.6875 
L 54.296875 0 
L 45.3125 0 
L 45.3125 8.40625 
Q 42.046875 3.421875 37.71875 1 
Q 33.40625 -1.421875 27.6875 -1.421875 
Q 18.265625 -1.421875 13.375 4.4375 
Q 8.5 10.296875 8.5 21.578125 
z
M 31.109375 56 
z
" id="DejaVuSans-117"/>
       <path d="M 54.890625 33.015625 
L 54.890625 0 
L 45.90625 0 
L 45.90625 32.71875 
Q 45.90625 40.484375 42.875 44.328125 
Q 39.84375 48.1875 33.796875 48.1875 
Q 26.515625 48.1875 22.3125 43.546875 
Q 18.109375 38.921875 18.109375 30.90625 
L 18.109375 0 
L 9.078125 0 
L 9.078125 54.6875 
L 18.109375 54.6875 
L 18.109375 46.1875 
Q 21.34375 51.125 25.703125 53.5625 
Q 30.078125 56 35.796875 56 
Q 45.21875 56 50.046875 50.171875 
Q 54.890625 44.34375 54.890625 33.015625 
z
" id="DejaVuSans-110"/>
       <path d="M 18.3125 70.21875 
L 18.3125 54.6875 
L 36.8125 54.6875 
L 36.8125 47.703125 
L 18.3125 47.703125 
L 18.3125 18.015625 
Q 18.3125 11.328125 20.140625 9.421875 
Q 21.96875 7.515625 27.59375 7.515625 
L 36.8125 7.515625 
L 36.8125 0 
L 27.59375 0 
Q 17.1875 0 13.234375 3.875 
Q 9.28125 7.765625 9.28125 18.015625 
L 9.28125 47.703125 
L 2.6875 47.703125 
L 2.6875 54.6875 
L 9.28125 54.6875 
L 9.28125 70.21875 
z
" id="DejaVuSans-116"/>
       <path d="M 50.984375 -16.609375 
L 50.984375 -23.578125 
L -0.984375 -23.578125 
L -0.984375 -16.609375 
z
" id="DejaVuSans-95"/>
       <path d="M 48.6875 27.296875 
Q 48.6875 37.203125 44.609375 42.84375 
Q 40.53125 48.484375 33.40625 48.484375 
Q 26.265625 48.484375 22.1875 42.84375 
Q 18.109375 37.203125 18.109375 27.296875 
Q 18.109375 17.390625 22.1875 11.75 
Q 26.265625 6.109375 33.40625 6.109375 
Q 40.53125 6.109375 44.609375 11.75 
Q 48.6875 17.390625 48.6875 27.296875 
z
M 18.109375 46.390625 
Q 20.953125 51.265625 25.265625 53.625 
Q 29.59375 56 35.59375 56 
Q 45.5625 56 51.78125 48.09375 
Q 58.015625 40.1875 58.015625 27.296875 
Q 58.015625 14.40625 51.78125 6.484375 
Q 45.5625 -1.421875 35.59375 -1.421875 
Q 29.59375 -1.421875 25.265625 0.953125 
Q 20.953125 3.328125 18.109375 8.203125 
L 18.109375 0 
L 9.078125 0 
L 9.078125 75.984375 
L 18.109375 75.984375 
z
" id="DejaVuSans-98"/>
       <path d="M 2.984375 54.6875 
L 12.5 54.6875 
L 29.59375 8.796875 
L 46.6875 54.6875 
L 56.203125 54.6875 
L 35.6875 0 
L 23.484375 0 
z
" id="DejaVuSans-118"/>
       <path d="M 34.28125 27.484375 
Q 23.390625 27.484375 19.1875 25 
Q 14.984375 22.515625 14.984375 16.5 
Q 14.984375 11.71875 18.140625 8.90625 
Q 21.296875 6.109375 26.703125 6.109375 
Q 34.1875 6.109375 38.703125 11.40625 
Q 43.21875 16.703125 43.21875 25.484375 
L 43.21875 27.484375 
z
M 52.203125 31.203125 
L 52.203125 0 
L 43.21875 0 
L 43.21875 8.296875 
Q 40.140625 3.328125 35.546875 0.953125 
Q 30.953125 -1.421875 24.3125 -1.421875 
Q 15.921875 -1.421875 10.953125 3.296875 
Q 6 8.015625 6 15.921875 
Q 6 25.140625 12.171875 29.828125 
Q 18.359375 34.515625 30.609375 34.515625 
L 43.21875 34.515625 
L 43.21875 35.40625 
Q 43.21875 41.609375 39.140625 45 
Q 35.0625 48.390625 27.6875 48.390625 
Q 23 48.390625 18.546875 47.265625 
Q 14.109375 46.140625 10.015625 43.890625 
L 10.015625 52.203125 
Q 14.9375 54.109375 19.578125 55.046875 
Q 24.21875 56 28.609375 56 
Q 40.484375 56 46.34375 49.84375 
Q 52.203125 43.703125 52.203125 31.203125 
z
" id="DejaVuSans-97"/>
       <path d="M 9.421875 75.984375 
L 18.40625 75.984375 
L 18.40625 0 
L 9.421875 0 
z
" id="DejaVuSans-108"/>
      </defs>
      <use xlink:href="#DejaVuSans-117"/>
      <use x="63.378906" xlink:href="#DejaVuSans-110"/>
      <use x="126.757812" xlink:href="#DejaVuSans-101"/>
      <use x="188.28125" xlink:href="#DejaVuSans-116"/>
      <use x="227.490234" xlink:href="#DejaVuSans-95"/>
      <use x="277.490234" xlink:href="#DejaVuSans-98"/>
      <use x="340.966797" xlink:href="#DejaVuSans-99"/>
      <use x="395.947266" xlink:href="#DejaVuSans-101"/>
      <use x="457.470703" xlink:href="#DejaVuSans-95"/>
      <use x="507.470703" xlink:href="#DejaVuSans-115"/>
      <use x="559.570312" xlink:href="#DejaVuSans-99"/>
      <use x="614.550781" xlink:href="#DejaVuSans-111"/>
      <use x="675.732422" xlink:href="#DejaVuSans-114"/>
      <use x="714.595703" xlink:href="#DejaVuSans-101"/>
      <use x="776.119141" xlink:href="#DejaVuSans-95"/>
      <use x="826.119141" xlink:href="#DejaVuSans-118"/>
      <use x="885.298828" xlink:href="#DejaVuSans-97"/>
      <use x="946.578125" xlink:href="#DejaVuSans-108"/>
     </g>
    </g>
    <g id="line2d_24">
     <path d="M 52.78125 35.254687 
L 72.78125 35.254687 
" style="fill:none;stroke:#ff7f0e;stroke-linecap:square;stroke-width:1.5;"/>
    </g>
    <g id="line2d_25"/>
    <g id="text_21">
     <!-- unet_dice_score_val -->
     <g transform="translate(80.78125 38.754687)scale(0.1 -0.1)">
      <defs>
       <path d="M 45.40625 46.390625 
L 45.40625 75.984375 
L 54.390625 75.984375 
L 54.390625 0 
L 45.40625 0 
L 45.40625 8.203125 
Q 42.578125 3.328125 38.25 0.953125 
Q 33.9375 -1.421875 27.875 -1.421875 
Q 17.96875 -1.421875 11.734375 6.484375 
Q 5.515625 14.40625 5.515625 27.296875 
Q 5.515625 40.1875 11.734375 48.09375 
Q 17.96875 56 27.875 56 
Q 33.9375 56 38.25 53.625 
Q 42.578125 51.265625 45.40625 46.390625 
z
M 14.796875 27.296875 
Q 14.796875 17.390625 18.875 11.75 
Q 22.953125 6.109375 30.078125 6.109375 
Q 37.203125 6.109375 41.296875 11.75 
Q 45.40625 17.390625 45.40625 27.296875 
Q 45.40625 37.203125 41.296875 42.84375 
Q 37.203125 48.484375 30.078125 48.484375 
Q 22.953125 48.484375 18.875 42.84375 
Q 14.796875 37.203125 14.796875 27.296875 
z
" id="DejaVuSans-100"/>
       <path d="M 9.421875 54.6875 
L 18.40625 54.6875 
L 18.40625 0 
L 9.421875 0 
z
M 9.421875 75.984375 
L 18.40625 75.984375 
L 18.40625 64.59375 
L 9.421875 64.59375 
z
" id="DejaVuSans-105"/>
      </defs>
      <use xlink:href="#DejaVuSans-117"/>
      <use x="63.378906" xlink:href="#DejaVuSans-110"/>
      <use x="126.757812" xlink:href="#DejaVuSans-101"/>
      <use x="188.28125" xlink:href="#DejaVuSans-116"/>
      <use x="227.490234" xlink:href="#DejaVuSans-95"/>
      <use x="277.490234" xlink:href="#DejaVuSans-100"/>
      <use x="340.966797" xlink:href="#DejaVuSans-105"/>
      <use x="368.75" xlink:href="#DejaVuSans-99"/>
      <use x="423.730469" xlink:href="#DejaVuSans-101"/>
      <use x="485.253906" xlink:href="#DejaVuSans-95"/>
      <use x="535.253906" xlink:href="#DejaVuSans-115"/>
      <use x="587.353516" xlink:href="#DejaVuSans-99"/>
      <use x="642.333984" xlink:href="#DejaVuSans-111"/>
      <use x="703.515625" xlink:href="#DejaVuSans-114"/>
      <use x="742.378906" xlink:href="#DejaVuSans-101"/>
      <use x="803.902344" xlink:href="#DejaVuSans-95"/>
      <use x="853.902344" xlink:href="#DejaVuSans-118"/>
      <use x="913.082031" xlink:href="#DejaVuSans-97"/>
      <use x="974.361328" xlink:href="#DejaVuSans-108"/>
     </g>
    </g>
    <g id="line2d_26">
     <path d="M 52.78125 50.210937 
L 72.78125 50.210937 
" style="fill:none;stroke:#2ca02c;stroke-linecap:square;stroke-width:1.5;"/>
    </g>
    <g id="line2d_27"/>
    <g id="text_22">
     <!-- unet_focal_score_val -->
     <g transform="translate(80.78125 53.710937)scale(0.1 -0.1)">
      <defs>
       <path d="M 37.109375 75.984375 
L 37.109375 68.5 
L 28.515625 68.5 
Q 23.6875 68.5 21.796875 66.546875 
Q 19.921875 64.59375 19.921875 59.515625 
L 19.921875 54.6875 
L 34.71875 54.6875 
L 34.71875 47.703125 
L 19.921875 47.703125 
L 19.921875 0 
L 10.890625 0 
L 10.890625 47.703125 
L 2.296875 47.703125 
L 2.296875 54.6875 
L 10.890625 54.6875 
L 10.890625 58.5 
Q 10.890625 67.625 15.140625 71.796875 
Q 19.390625 75.984375 28.609375 75.984375 
z
" id="DejaVuSans-102"/>
      </defs>
      <use xlink:href="#DejaVuSans-117"/>
      <use x="63.378906" xlink:href="#DejaVuSans-110"/>
      <use x="126.757812" xlink:href="#DejaVuSans-101"/>
      <use x="188.28125" xlink:href="#DejaVuSans-116"/>
      <use x="227.490234" xlink:href="#DejaVuSans-95"/>
      <use x="277.490234" xlink:href="#DejaVuSans-102"/>
      <use x="312.695312" xlink:href="#DejaVuSans-111"/>
      <use x="373.876953" xlink:href="#DejaVuSans-99"/>
      <use x="428.857422" xlink:href="#DejaVuSans-97"/>
      <use x="490.136719" xlink:href="#DejaVuSans-108"/>
      <use x="517.919922" xlink:href="#DejaVuSans-95"/>
      <use x="567.919922" xlink:href="#DejaVuSans-115"/>
      <use x="620.019531" xlink:href="#DejaVuSans-99"/>
      <use x="675" xlink:href="#DejaVuSans-111"/>
      <use x="736.181641" xlink:href="#DejaVuSans-114"/>
      <use x="775.044922" xlink:href="#DejaVuSans-101"/>
      <use x="836.568359" xlink:href="#DejaVuSans-95"/>
      <use x="886.568359" xlink:href="#DejaVuSans-118"/>
      <use x="945.748047" xlink:href="#DejaVuSans-97"/>
      <use x="1007.027344" xlink:href="#DejaVuSans-108"/>
     </g>
    </g>
    <g id="line2d_28">
     <path d="M 52.78125 65.167187 
L 72.78125 65.167187 
" style="fill:none;stroke:#d62728;stroke-linecap:square;stroke-width:1.5;"/>
    </g>
    <g id="line2d_29"/>
    <g id="text_23">
     <!-- unet_correlation_score_val -->
     <g transform="translate(80.78125 68.667187)scale(0.1 -0.1)">
      <use xlink:href="#DejaVuSans-117"/>
      <use x="63.378906" xlink:href="#DejaVuSans-110"/>
      <use x="126.757812" xlink:href="#DejaVuSans-101"/>
      <use x="188.28125" xlink:href="#DejaVuSans-116"/>
      <use x="227.490234" xlink:href="#DejaVuSans-95"/>
      <use x="277.490234" xlink:href="#DejaVuSans-99"/>
      <use x="332.470703" xlink:href="#DejaVuSans-111"/>
      <use x="393.652344" xlink:href="#DejaVuSans-114"/>
      <use x="433.015625" xlink:href="#DejaVuSans-114"/>
      <use x="471.878906" xlink:href="#DejaVuSans-101"/>
      <use x="533.402344" xlink:href="#DejaVuSans-108"/>
      <use x="561.185547" xlink:href="#DejaVuSans-97"/>
      <use x="622.464844" xlink:href="#DejaVuSans-116"/>
      <use x="661.673828" xlink:href="#DejaVuSans-105"/>
      <use x="689.457031" xlink:href="#DejaVuSans-111"/>
      <use x="750.638672" xlink:href="#DejaVuSans-110"/>
      <use x="814.017578" xlink:href="#DejaVuSans-95"/>
      <use x="864.017578" xlink:href="#DejaVuSans-115"/>
      <use x="916.117188" xlink:href="#DejaVuSans-99"/>
      <use x="971.097656" xlink:href="#DejaVuSans-111"/>
      <use x="1032.279297" xlink:href="#DejaVuSans-114"/>
      <use x="1071.142578" xlink:href="#DejaVuSans-101"/>
      <use x="1132.666016" xlink:href="#DejaVuSans-95"/>
      <use x="1182.666016" xlink:href="#DejaVuSans-118"/>
      <use x="1241.845703" xlink:href="#DejaVuSans-97"/>
      <use x="1303.125" xlink:href="#DejaVuSans-108"/>
     </g>
    </g>
   </g>
  </g>
 </g>
 <defs>
  <clipPath id="pe74874f025">
   <rect height="217.44" width="334.8" x="43.78125" y="7.2"/>
  </clipPath>
 </defs>
</svg>
