<?xml version="1.0" encoding="utf-8" standalone="no"?>
<!DOCTYPE svg PUBLIC "-//W3C//DTD SVG 1.1//EN"
  "http://www.w3.org/Graphics/SVG/1.1/DTD/svg11.dtd">
<!-- Created with matplotlib (https://matplotlib.org/) -->
<svg height="262.19625pt" version="1.1" viewBox="0 0 392.14375 262.19625" width="392.14375pt" xmlns="http://www.w3.org/2000/svg" xmlns:xlink="http://www.w3.org/1999/xlink">
 <metadata>
  <rdf:RDF xmlns:cc="http://creativecommons.org/ns#" xmlns:dc="http://purl.org/dc/elements/1.1/" xmlns:rdf="http://www.w3.org/1999/02/22-rdf-syntax-ns#">
   <cc:Work>
    <dc:type rdf:resource="http://purl.org/dc/dcmitype/StillImage"/>
    <dc:date>2020-12-16T14:55:30.047581</dc:date>
    <dc:format>image/svg+xml</dc:format>
    <dc:creator>
     <cc:Agent>
      <dc:title>Matplotlib v3.3.3, https://matplotlib.org/</dc:title>
     </cc:Agent>
    </dc:creator>
   </cc:Work>
  </rdf:RDF>
 </metadata>
 <defs>
  <style type="text/css">*{stroke-linecap:butt;stroke-linejoin:round;}</style>
 </defs>
 <g id="figure_1">
  <g id="patch_1">
   <path d="M 0 262.19625 
L 392.14375 262.19625 
L 392.14375 0 
L 0 0 
z
" style="fill:none;"/>
  </g>
  <g id="axes_1">
   <g id="patch_2">
    <path d="M 50.14375 224.64 
L 384.94375 224.64 
L 384.94375 7.2 
L 50.14375 7.2 
z
" style="fill:#ffffff;"/>
   </g>
   <g id="matplotlib.axis_1">
    <g id="xtick_1">
     <g id="line2d_1">
      <defs>
       <path d="M 0 0 
L 0 3.5 
" id="mc6789e0d82" style="stroke:#000000;stroke-width:0.8;"/>
      </defs>
      <g>
       <use style="stroke:#000000;stroke-width:0.8;" x="65.361932" xlink:href="#mc6789e0d82" y="224.64"/>
      </g>
     </g>
     <g id="text_1">
      <!-- 0 -->
      <g transform="translate(62.180682 239.238437)scale(0.1 -0.1)">
       <defs>
        <path d="M 31.78125 66.40625 
Q 24.171875 66.40625 20.328125 58.90625 
Q 16.5 51.421875 16.5 36.375 
Q 16.5 21.390625 20.328125 13.890625 
Q 24.171875 6.390625 31.78125 6.390625 
Q 39.453125 6.390625 43.28125 13.890625 
Q 47.125 21.390625 47.125 36.375 
Q 47.125 51.421875 43.28125 58.90625 
Q 39.453125 66.40625 31.78125 66.40625 
z
M 31.78125 74.21875 
Q 44.046875 74.21875 50.515625 64.515625 
Q 56.984375 54.828125 56.984375 36.375 
Q 56.984375 17.96875 50.515625 8.265625 
Q 44.046875 -1.421875 31.78125 -1.421875 
Q 19.53125 -1.421875 13.0625 8.265625 
Q 6.59375 17.96875 6.59375 36.375 
Q 6.59375 54.828125 13.0625 64.515625 
Q 19.53125 74.21875 31.78125 74.21875 
z
" id="DejaVuSans-48"/>
       </defs>
       <use xlink:href="#DejaVuSans-48"/>
      </g>
     </g>
    </g>
    <g id="xtick_2">
     <g id="line2d_2">
      <g>
       <use style="stroke:#000000;stroke-width:0.8;" x="103.59857" xlink:href="#mc6789e0d82" y="224.64"/>
      </g>
     </g>
     <g id="text_2">
      <!-- 25 -->
      <g transform="translate(97.23607 239.238437)scale(0.1 -0.1)">
       <defs>
        <path d="M 19.1875 8.296875 
L 53.609375 8.296875 
L 53.609375 0 
L 7.328125 0 
L 7.328125 8.296875 
Q 12.9375 14.109375 22.625 23.890625 
Q 32.328125 33.6875 34.8125 36.53125 
Q 39.546875 41.84375 41.421875 45.53125 
Q 43.3125 49.21875 43.3125 52.78125 
Q 43.3125 58.59375 39.234375 62.25 
Q 35.15625 65.921875 28.609375 65.921875 
Q 23.96875 65.921875 18.8125 64.3125 
Q 13.671875 62.703125 7.8125 59.421875 
L 7.8125 69.390625 
Q 13.765625 71.78125 18.9375 73 
Q 24.125 74.21875 28.421875 74.21875 
Q 39.75 74.21875 46.484375 68.546875 
Q 53.21875 62.890625 53.21875 53.421875 
Q 53.21875 48.921875 51.53125 44.890625 
Q 49.859375 40.875 45.40625 35.40625 
Q 44.1875 33.984375 37.640625 27.21875 
Q 31.109375 20.453125 19.1875 8.296875 
z
" id="DejaVuSans-50"/>
        <path d="M 10.796875 72.90625 
L 49.515625 72.90625 
L 49.515625 64.59375 
L 19.828125 64.59375 
L 19.828125 46.734375 
Q 21.96875 47.46875 24.109375 47.828125 
Q 26.265625 48.1875 28.421875 48.1875 
Q 40.625 48.1875 47.75 41.5 
Q 54.890625 34.8125 54.890625 23.390625 
Q 54.890625 11.625 47.5625 5.09375 
Q 40.234375 -1.421875 26.90625 -1.421875 
Q 22.3125 -1.421875 17.546875 -0.640625 
Q 12.796875 0.140625 7.71875 1.703125 
L 7.71875 11.625 
Q 12.109375 9.234375 16.796875 8.0625 
Q 21.484375 6.890625 26.703125 6.890625 
Q 35.15625 6.890625 40.078125 11.328125 
Q 45.015625 15.765625 45.015625 23.390625 
Q 45.015625 31 40.078125 35.4375 
Q 35.15625 39.890625 26.703125 39.890625 
Q 22.75 39.890625 18.8125 39.015625 
Q 14.890625 38.140625 10.796875 36.28125 
z
" id="DejaVuSans-53"/>
       </defs>
       <use xlink:href="#DejaVuSans-50"/>
       <use x="63.623047" xlink:href="#DejaVuSans-53"/>
      </g>
     </g>
    </g>
    <g id="xtick_3">
     <g id="line2d_3">
      <g>
       <use style="stroke:#000000;stroke-width:0.8;" x="141.835207" xlink:href="#mc6789e0d82" y="224.64"/>
      </g>
     </g>
     <g id="text_3">
      <!-- 50 -->
      <g transform="translate(135.472707 239.238437)scale(0.1 -0.1)">
       <use xlink:href="#DejaVuSans-53"/>
       <use x="63.623047" xlink:href="#DejaVuSans-48"/>
      </g>
     </g>
    </g>
    <g id="xtick_4">
     <g id="line2d_4">
      <g>
       <use style="stroke:#000000;stroke-width:0.8;" x="180.071845" xlink:href="#mc6789e0d82" y="224.64"/>
      </g>
     </g>
     <g id="text_4">
      <!-- 75 -->
      <g transform="translate(173.709345 239.238437)scale(0.1 -0.1)">
       <defs>
        <path d="M 8.203125 72.90625 
L 55.078125 72.90625 
L 55.078125 68.703125 
L 28.609375 0 
L 18.3125 0 
L 43.21875 64.59375 
L 8.203125 64.59375 
z
" id="DejaVuSans-55"/>
       </defs>
       <use xlink:href="#DejaVuSans-55"/>
       <use x="63.623047" xlink:href="#DejaVuSans-53"/>
      </g>
     </g>
    </g>
    <g id="xtick_5">
     <g id="line2d_5">
      <g>
       <use style="stroke:#000000;stroke-width:0.8;" x="218.308483" xlink:href="#mc6789e0d82" y="224.64"/>
      </g>
     </g>
     <g id="text_5">
      <!-- 100 -->
      <g transform="translate(208.764733 239.238437)scale(0.1 -0.1)">
       <defs>
        <path d="M 12.40625 8.296875 
L 28.515625 8.296875 
L 28.515625 63.921875 
L 10.984375 60.40625 
L 10.984375 69.390625 
L 28.421875 72.90625 
L 38.28125 72.90625 
L 38.28125 8.296875 
L 54.390625 8.296875 
L 54.390625 0 
L 12.40625 0 
z
" id="DejaVuSans-49"/>
       </defs>
       <use xlink:href="#DejaVuSans-49"/>
       <use x="63.623047" xlink:href="#DejaVuSans-48"/>
       <use x="127.246094" xlink:href="#DejaVuSans-48"/>
      </g>
     </g>
    </g>
    <g id="xtick_6">
     <g id="line2d_6">
      <g>
       <use style="stroke:#000000;stroke-width:0.8;" x="256.54512" xlink:href="#mc6789e0d82" y="224.64"/>
      </g>
     </g>
     <g id="text_6">
      <!-- 125 -->
      <g transform="translate(247.00137 239.238437)scale(0.1 -0.1)">
       <use xlink:href="#DejaVuSans-49"/>
       <use x="63.623047" xlink:href="#DejaVuSans-50"/>
       <use x="127.246094" xlink:href="#DejaVuSans-53"/>
      </g>
     </g>
    </g>
    <g id="xtick_7">
     <g id="line2d_7">
      <g>
       <use style="stroke:#000000;stroke-width:0.8;" x="294.781758" xlink:href="#mc6789e0d82" y="224.64"/>
      </g>
     </g>
     <g id="text_7">
      <!-- 150 -->
      <g transform="translate(285.238008 239.238437)scale(0.1 -0.1)">
       <use xlink:href="#DejaVuSans-49"/>
       <use x="63.623047" xlink:href="#DejaVuSans-53"/>
       <use x="127.246094" xlink:href="#DejaVuSans-48"/>
      </g>
     </g>
    </g>
    <g id="xtick_8">
     <g id="line2d_8">
      <g>
       <use style="stroke:#000000;stroke-width:0.8;" x="333.018396" xlink:href="#mc6789e0d82" y="224.64"/>
      </g>
     </g>
     <g id="text_8">
      <!-- 175 -->
      <g transform="translate(323.474646 239.238437)scale(0.1 -0.1)">
       <use xlink:href="#DejaVuSans-49"/>
       <use x="63.623047" xlink:href="#DejaVuSans-55"/>
       <use x="127.246094" xlink:href="#DejaVuSans-53"/>
      </g>
     </g>
    </g>
    <g id="xtick_9">
     <g id="line2d_9">
      <g>
       <use style="stroke:#000000;stroke-width:0.8;" x="371.255034" xlink:href="#mc6789e0d82" y="224.64"/>
      </g>
     </g>
     <g id="text_9">
      <!-- 200 -->
      <g transform="translate(361.711284 239.238437)scale(0.1 -0.1)">
       <use xlink:href="#DejaVuSans-50"/>
       <use x="63.623047" xlink:href="#DejaVuSans-48"/>
       <use x="127.246094" xlink:href="#DejaVuSans-48"/>
      </g>
     </g>
    </g>
    <g id="text_10">
     <!-- epoch -->
     <g transform="translate(202.315625 252.916562)scale(0.1 -0.1)">
      <defs>
       <path d="M 56.203125 29.59375 
L 56.203125 25.203125 
L 14.890625 25.203125 
Q 15.484375 15.921875 20.484375 11.0625 
Q 25.484375 6.203125 34.421875 6.203125 
Q 39.59375 6.203125 44.453125 7.46875 
Q 49.3125 8.734375 54.109375 11.28125 
L 54.109375 2.78125 
Q 49.265625 0.734375 44.1875 -0.34375 
Q 39.109375 -1.421875 33.890625 -1.421875 
Q 20.796875 -1.421875 13.15625 6.1875 
Q 5.515625 13.8125 5.515625 26.8125 
Q 5.515625 40.234375 12.765625 48.109375 
Q 20.015625 56 32.328125 56 
Q 43.359375 56 49.78125 48.890625 
Q 56.203125 41.796875 56.203125 29.59375 
z
M 47.21875 32.234375 
Q 47.125 39.59375 43.09375 43.984375 
Q 39.0625 48.390625 32.421875 48.390625 
Q 24.90625 48.390625 20.390625 44.140625 
Q 15.875 39.890625 15.1875 32.171875 
z
" id="DejaVuSans-101"/>
       <path d="M 18.109375 8.203125 
L 18.109375 -20.796875 
L 9.078125 -20.796875 
L 9.078125 54.6875 
L 18.109375 54.6875 
L 18.109375 46.390625 
Q 20.953125 51.265625 25.265625 53.625 
Q 29.59375 56 35.59375 56 
Q 45.5625 56 51.78125 48.09375 
Q 58.015625 40.1875 58.015625 27.296875 
Q 58.015625 14.40625 51.78125 6.484375 
Q 45.5625 -1.421875 35.59375 -1.421875 
Q 29.59375 -1.421875 25.265625 0.953125 
Q 20.953125 3.328125 18.109375 8.203125 
z
M 48.6875 27.296875 
Q 48.6875 37.203125 44.609375 42.84375 
Q 40.53125 48.484375 33.40625 48.484375 
Q 26.265625 48.484375 22.1875 42.84375 
Q 18.109375 37.203125 18.109375 27.296875 
Q 18.109375 17.390625 22.1875 11.75 
Q 26.265625 6.109375 33.40625 6.109375 
Q 40.53125 6.109375 44.609375 11.75 
Q 48.6875 17.390625 48.6875 27.296875 
z
" id="DejaVuSans-112"/>
       <path d="M 30.609375 48.390625 
Q 23.390625 48.390625 19.1875 42.75 
Q 14.984375 37.109375 14.984375 27.296875 
Q 14.984375 17.484375 19.15625 11.84375 
Q 23.34375 6.203125 30.609375 6.203125 
Q 37.796875 6.203125 41.984375 11.859375 
Q 46.1875 17.53125 46.1875 27.296875 
Q 46.1875 37.015625 41.984375 42.703125 
Q 37.796875 48.390625 30.609375 48.390625 
z
M 30.609375 56 
Q 42.328125 56 49.015625 48.375 
Q 55.71875 40.765625 55.71875 27.296875 
Q 55.71875 13.875 49.015625 6.21875 
Q 42.328125 -1.421875 30.609375 -1.421875 
Q 18.84375 -1.421875 12.171875 6.21875 
Q 5.515625 13.875 5.515625 27.296875 
Q 5.515625 40.765625 12.171875 48.375 
Q 18.84375 56 30.609375 56 
z
" id="DejaVuSans-111"/>
       <path d="M 48.78125 52.59375 
L 48.78125 44.1875 
Q 44.96875 46.296875 41.140625 47.34375 
Q 37.3125 48.390625 33.40625 48.390625 
Q 24.65625 48.390625 19.8125 42.84375 
Q 14.984375 37.3125 14.984375 27.296875 
Q 14.984375 17.28125 19.8125 11.734375 
Q 24.65625 6.203125 33.40625 6.203125 
Q 37.3125 6.203125 41.140625 7.25 
Q 44.96875 8.296875 48.78125 10.40625 
L 48.78125 2.09375 
Q 45.015625 0.34375 40.984375 -0.53125 
Q 36.96875 -1.421875 32.421875 -1.421875 
Q 20.0625 -1.421875 12.78125 6.34375 
Q 5.515625 14.109375 5.515625 27.296875 
Q 5.515625 40.671875 12.859375 48.328125 
Q 20.21875 56 33.015625 56 
Q 37.15625 56 41.109375 55.140625 
Q 45.0625 54.296875 48.78125 52.59375 
z
" id="DejaVuSans-99"/>
       <path d="M 54.890625 33.015625 
L 54.890625 0 
L 45.90625 0 
L 45.90625 32.71875 
Q 45.90625 40.484375 42.875 44.328125 
Q 39.84375 48.1875 33.796875 48.1875 
Q 26.515625 48.1875 22.3125 43.546875 
Q 18.109375 38.921875 18.109375 30.90625 
L 18.109375 0 
L 9.078125 0 
L 9.078125 75.984375 
L 18.109375 75.984375 
L 18.109375 46.1875 
Q 21.34375 51.125 25.703125 53.5625 
Q 30.078125 56 35.796875 56 
Q 45.21875 56 50.046875 50.171875 
Q 54.890625 44.34375 54.890625 33.015625 
z
" id="DejaVuSans-104"/>
      </defs>
      <use xlink:href="#DejaVuSans-101"/>
      <use x="61.523438" xlink:href="#DejaVuSans-112"/>
      <use x="125" xlink:href="#DejaVuSans-111"/>
      <use x="186.181641" xlink:href="#DejaVuSans-99"/>
      <use x="241.162109" xlink:href="#DejaVuSans-104"/>
     </g>
    </g>
   </g>
   <g id="matplotlib.axis_2">
    <g id="ytick_1">
     <g id="line2d_10">
      <defs>
       <path d="M 0 0 
L -3.5 0 
" id="mdee16ed9dd" style="stroke:#000000;stroke-width:0.8;"/>
      </defs>
      <g>
       <use style="stroke:#000000;stroke-width:0.8;" x="50.14375" xlink:href="#mdee16ed9dd" y="216.728162"/>
      </g>
     </g>
     <g id="text_11">
      <!-- 0.05 -->
      <g transform="translate(20.878125 220.527381)scale(0.1 -0.1)">
       <defs>
        <path d="M 10.6875 12.40625 
L 21 12.40625 
L 21 0 
L 10.6875 0 
z
" id="DejaVuSans-46"/>
       </defs>
       <use xlink:href="#DejaVuSans-48"/>
       <use x="63.623047" xlink:href="#DejaVuSans-46"/>
       <use x="95.410156" xlink:href="#DejaVuSans-48"/>
       <use x="159.033203" xlink:href="#DejaVuSans-53"/>
      </g>
     </g>
    </g>
    <g id="ytick_2">
     <g id="line2d_11">
      <g>
       <use style="stroke:#000000;stroke-width:0.8;" x="50.14375" xlink:href="#mdee16ed9dd" y="192.08069"/>
      </g>
     </g>
     <g id="text_12">
      <!-- 0.10 -->
      <g transform="translate(20.878125 195.879909)scale(0.1 -0.1)">
       <use xlink:href="#DejaVuSans-48"/>
       <use x="63.623047" xlink:href="#DejaVuSans-46"/>
       <use x="95.410156" xlink:href="#DejaVuSans-49"/>
       <use x="159.033203" xlink:href="#DejaVuSans-48"/>
      </g>
     </g>
    </g>
    <g id="ytick_3">
     <g id="line2d_12">
      <g>
       <use style="stroke:#000000;stroke-width:0.8;" x="50.14375" xlink:href="#mdee16ed9dd" y="167.433218"/>
      </g>
     </g>
     <g id="text_13">
      <!-- 0.15 -->
      <g transform="translate(20.878125 171.232437)scale(0.1 -0.1)">
       <use xlink:href="#DejaVuSans-48"/>
       <use x="63.623047" xlink:href="#DejaVuSans-46"/>
       <use x="95.410156" xlink:href="#DejaVuSans-49"/>
       <use x="159.033203" xlink:href="#DejaVuSans-53"/>
      </g>
     </g>
    </g>
    <g id="ytick_4">
     <g id="line2d_13">
      <g>
       <use style="stroke:#000000;stroke-width:0.8;" x="50.14375" xlink:href="#mdee16ed9dd" y="142.785746"/>
      </g>
     </g>
     <g id="text_14">
      <!-- 0.20 -->
      <g transform="translate(20.878125 146.584965)scale(0.1 -0.1)">
       <use xlink:href="#DejaVuSans-48"/>
       <use x="63.623047" xlink:href="#DejaVuSans-46"/>
       <use x="95.410156" xlink:href="#DejaVuSans-50"/>
       <use x="159.033203" xlink:href="#DejaVuSans-48"/>
      </g>
     </g>
    </g>
    <g id="ytick_5">
     <g id="line2d_14">
      <g>
       <use style="stroke:#000000;stroke-width:0.8;" x="50.14375" xlink:href="#mdee16ed9dd" y="118.138274"/>
      </g>
     </g>
     <g id="text_15">
      <!-- 0.25 -->
      <g transform="translate(20.878125 121.937493)scale(0.1 -0.1)">
       <use xlink:href="#DejaVuSans-48"/>
       <use x="63.623047" xlink:href="#DejaVuSans-46"/>
       <use x="95.410156" xlink:href="#DejaVuSans-50"/>
       <use x="159.033203" xlink:href="#DejaVuSans-53"/>
      </g>
     </g>
    </g>
    <g id="ytick_6">
     <g id="line2d_15">
      <g>
       <use style="stroke:#000000;stroke-width:0.8;" x="50.14375" xlink:href="#mdee16ed9dd" y="93.490802"/>
      </g>
     </g>
     <g id="text_16">
      <!-- 0.30 -->
      <g transform="translate(20.878125 97.290021)scale(0.1 -0.1)">
       <defs>
        <path d="M 40.578125 39.3125 
Q 47.65625 37.796875 51.625 33 
Q 55.609375 28.21875 55.609375 21.1875 
Q 55.609375 10.40625 48.1875 4.484375 
Q 40.765625 -1.421875 27.09375 -1.421875 
Q 22.515625 -1.421875 17.65625 -0.515625 
Q 12.796875 0.390625 7.625 2.203125 
L 7.625 11.71875 
Q 11.71875 9.328125 16.59375 8.109375 
Q 21.484375 6.890625 26.8125 6.890625 
Q 36.078125 6.890625 40.9375 10.546875 
Q 45.796875 14.203125 45.796875 21.1875 
Q 45.796875 27.640625 41.28125 31.265625 
Q 36.765625 34.90625 28.71875 34.90625 
L 20.21875 34.90625 
L 20.21875 43.015625 
L 29.109375 43.015625 
Q 36.375 43.015625 40.234375 45.921875 
Q 44.09375 48.828125 44.09375 54.296875 
Q 44.09375 59.90625 40.109375 62.90625 
Q 36.140625 65.921875 28.71875 65.921875 
Q 24.65625 65.921875 20.015625 65.03125 
Q 15.375 64.15625 9.8125 62.3125 
L 9.8125 71.09375 
Q 15.4375 72.65625 20.34375 73.4375 
Q 25.25 74.21875 29.59375 74.21875 
Q 40.828125 74.21875 47.359375 69.109375 
Q 53.90625 64.015625 53.90625 55.328125 
Q 53.90625 49.265625 50.4375 45.09375 
Q 46.96875 40.921875 40.578125 39.3125 
z
" id="DejaVuSans-51"/>
       </defs>
       <use xlink:href="#DejaVuSans-48"/>
       <use x="63.623047" xlink:href="#DejaVuSans-46"/>
       <use x="95.410156" xlink:href="#DejaVuSans-51"/>
       <use x="159.033203" xlink:href="#DejaVuSans-48"/>
      </g>
     </g>
    </g>
    <g id="ytick_7">
     <g id="line2d_16">
      <g>
       <use style="stroke:#000000;stroke-width:0.8;" x="50.14375" xlink:href="#mdee16ed9dd" y="68.84333"/>
      </g>
     </g>
     <g id="text_17">
      <!-- 0.35 -->
      <g transform="translate(20.878125 72.642549)scale(0.1 -0.1)">
       <use xlink:href="#DejaVuSans-48"/>
       <use x="63.623047" xlink:href="#DejaVuSans-46"/>
       <use x="95.410156" xlink:href="#DejaVuSans-51"/>
       <use x="159.033203" xlink:href="#DejaVuSans-53"/>
      </g>
     </g>
    </g>
    <g id="ytick_8">
     <g id="line2d_17">
      <g>
       <use style="stroke:#000000;stroke-width:0.8;" x="50.14375" xlink:href="#mdee16ed9dd" y="44.195858"/>
      </g>
     </g>
     <g id="text_18">
      <!-- 0.40 -->
      <g transform="translate(20.878125 47.995076)scale(0.1 -0.1)">
       <defs>
        <path d="M 37.796875 64.3125 
L 12.890625 25.390625 
L 37.796875 25.390625 
z
M 35.203125 72.90625 
L 47.609375 72.90625 
L 47.609375 25.390625 
L 58.015625 25.390625 
L 58.015625 17.1875 
L 47.609375 17.1875 
L 47.609375 0 
L 37.796875 0 
L 37.796875 17.1875 
L 4.890625 17.1875 
L 4.890625 26.703125 
z
" id="DejaVuSans-52"/>
       </defs>
       <use xlink:href="#DejaVuSans-48"/>
       <use x="63.623047" xlink:href="#DejaVuSans-46"/>
       <use x="95.410156" xlink:href="#DejaVuSans-52"/>
       <use x="159.033203" xlink:href="#DejaVuSans-48"/>
      </g>
     </g>
    </g>
    <g id="ytick_9">
     <g id="line2d_18">
      <g>
       <use style="stroke:#000000;stroke-width:0.8;" x="50.14375" xlink:href="#mdee16ed9dd" y="19.548386"/>
      </g>
     </g>
     <g id="text_19">
      <!-- 0.45 -->
      <g transform="translate(20.878125 23.347604)scale(0.1 -0.1)">
       <use xlink:href="#DejaVuSans-48"/>
       <use x="63.623047" xlink:href="#DejaVuSans-46"/>
       <use x="95.410156" xlink:href="#DejaVuSans-52"/>
       <use x="159.033203" xlink:href="#DejaVuSans-53"/>
      </g>
     </g>
    </g>
    <g id="text_20">
     <!-- score -->
     <g transform="translate(14.798438 129.352812)rotate(-90)scale(0.1 -0.1)">
      <defs>
       <path d="M 44.28125 53.078125 
L 44.28125 44.578125 
Q 40.484375 46.53125 36.375 47.5 
Q 32.28125 48.484375 27.875 48.484375 
Q 21.1875 48.484375 17.84375 46.4375 
Q 14.5 44.390625 14.5 40.28125 
Q 14.5 37.15625 16.890625 35.375 
Q 19.28125 33.59375 26.515625 31.984375 
L 29.59375 31.296875 
Q 39.15625 29.25 43.1875 25.515625 
Q 47.21875 21.78125 47.21875 15.09375 
Q 47.21875 7.46875 41.1875 3.015625 
Q 35.15625 -1.421875 24.609375 -1.421875 
Q 20.21875 -1.421875 15.453125 -0.5625 
Q 10.6875 0.296875 5.421875 2 
L 5.421875 11.28125 
Q 10.40625 8.6875 15.234375 7.390625 
Q 20.0625 6.109375 24.8125 6.109375 
Q 31.15625 6.109375 34.5625 8.28125 
Q 37.984375 10.453125 37.984375 14.40625 
Q 37.984375 18.0625 35.515625 20.015625 
Q 33.0625 21.96875 24.703125 23.78125 
L 21.578125 24.515625 
Q 13.234375 26.265625 9.515625 29.90625 
Q 5.8125 33.546875 5.8125 39.890625 
Q 5.8125 47.609375 11.28125 51.796875 
Q 16.75 56 26.8125 56 
Q 31.78125 56 36.171875 55.265625 
Q 40.578125 54.546875 44.28125 53.078125 
z
" id="DejaVuSans-115"/>
       <path d="M 41.109375 46.296875 
Q 39.59375 47.171875 37.8125 47.578125 
Q 36.03125 48 33.890625 48 
Q 26.265625 48 22.1875 43.046875 
Q 18.109375 38.09375 18.109375 28.8125 
L 18.109375 0 
L 9.078125 0 
L 9.078125 54.6875 
L 18.109375 54.6875 
L 18.109375 46.1875 
Q 20.953125 51.171875 25.484375 53.578125 
Q 30.03125 56 36.53125 56 
Q 37.453125 56 38.578125 55.875 
Q 39.703125 55.765625 41.0625 55.515625 
z
" id="DejaVuSans-114"/>
      </defs>
      <use xlink:href="#DejaVuSans-115"/>
      <use x="52.099609" xlink:href="#DejaVuSans-99"/>
      <use x="107.080078" xlink:href="#DejaVuSans-111"/>
      <use x="168.261719" xlink:href="#DejaVuSans-114"/>
      <use x="207.125" xlink:href="#DejaVuSans-101"/>
     </g>
    </g>
   </g>
   <g id="line2d_19">
    <path clip-path="url(#p69b6b018ea)" d="M 65.361932 136.870348 
L 66.891397 194.052486 
L 68.420863 161.02487 
L 69.950328 146.729339 
L 71.479794 139.828047 
L 73.009259 119.12417 
L 74.538725 123.560713 
L 76.06819 102.363889 
L 77.597656 118.138273 
L 79.127121 124.546615 
L 80.656587 113.701723 
L 82.186052 119.124171 
L 83.715518 104.335682 
L 85.244983 120.110067 
L 86.774449 109.758129 
L 88.303914 114.687624 
L 89.83338 103.349788 
L 91.362845 80.181159 
L 92.892311 105.814534 
L 94.421776 98.913245 
L 95.951242 93.490797 
L 97.480708 117.15237 
L 99.010173 102.856834 
L 100.539639 105.814536 
L 102.069104 98.420289 
L 103.59857 116.659421 
L 105.128035 97.434392 
L 106.657501 103.349787 
L 108.186966 113.701727 
L 109.716432 102.856835 
L 111.245897 107.786329 
L 112.775363 99.899144 
L 114.304828 100.885043 
L 115.834294 98.913238 
L 117.363759 105.321581 
L 118.893225 106.30748 
L 120.42269 105.321587 
L 121.952156 95.462595 
L 123.481621 108.77223 
L 125.011087 99.406192 
L 126.540552 106.307482 
L 128.070018 97.92734 
L 129.599483 101.87094 
L 131.128949 115.673524 
L 132.658414 91.026047 
L 134.18788 110.251077 
L 137.246811 90.040146 
L 138.776276 97.927341 
L 140.305742 106.800433 
L 141.835207 92.011945 
L 143.364673 98.913239 
L 144.894138 103.842734 
L 146.423604 91.02605 
L 147.953069 99.899137 
L 149.482535 83.631809 
L 151.012 101.870937 
L 152.541466 88.561303 
L 154.070931 88.068356 
L 155.600397 94.969645 
L 157.129862 82.645905 
L 158.659328 92.011948 
L 160.188793 85.603607 
L 161.718259 85.110649 
L 163.247724 83.138858 
L 164.77719 95.955542 
L 166.306655 82.152959 
L 167.836121 98.42029 
L 169.365586 94.47669 
L 170.895052 92.997847 
L 172.424517 81.167059 
L 173.953983 96.448494 
L 175.483448 92.504897 
L 177.012914 92.011951 
L 178.54238 80.674108 
L 180.071845 94.476695 
L 181.601311 82.152961 
L 183.130776 96.941441 
L 184.660242 84.617706 
L 186.189707 79.688216 
L 187.719173 86.096552 
L 189.248638 66.871526 
L 190.778104 95.462596 
L 192.307569 82.152958 
L 193.837035 98.913239 
L 195.3665 91.026048 
L 196.895966 87.575405 
L 198.425431 90.040152 
L 199.954897 78.209363 
L 201.484362 69.336271 
L 203.013828 82.64591 
L 204.543293 76.730518 
L 206.072759 90.533097 
L 207.602224 82.645908 
L 209.13169 68.843325 
L 210.661155 80.181164 
L 212.190621 87.082448 
L 213.720086 72.293968 
L 215.249552 66.871524 
L 216.779017 70.322173 
L 218.308483 77.223465 
L 219.837948 70.322169 
L 221.367414 55.533686 
L 222.896879 65.392676 
L 224.426345 71.308071 
L 225.95581 73.77282 
L 227.485276 57.505484 
L 229.014741 59.970236 
L 230.544207 67.36447 
L 232.073672 65.392677 
L 233.603138 67.857426 
L 235.132603 59.970229 
L 236.662069 69.829224 
L 238.191534 71.308076 
L 239.721 61.942029 
L 241.250465 67.857424 
L 242.779931 77.716415 
L 244.309396 61.94203 
L 245.838862 48.139444 
L 247.368327 57.012535 
L 248.897793 53.561889 
L 250.427258 59.970234 
L 251.956724 59.970226 
L 253.486189 55.533683 
L 255.015655 56.519586 
L 256.54512 49.125341 
L 258.074586 54.054839 
L 259.604052 64.406777 
L 261.133517 66.378575 
L 262.662983 61.942032 
L 264.192448 62.43498 
L 265.721914 33.843912 
L 267.251379 45.674694 
L 268.780845 50.11124 
L 270.31031 67.364476 
L 271.839776 57.012535 
L 273.369241 48.632396 
L 274.898707 57.012532 
L 276.428172 51.590095 
L 277.957638 64.899726 
L 279.487103 60.46318 
L 281.016569 49.125345 
L 282.546034 39.7593 
L 284.0755 38.773405 
L 285.604965 50.604191 
L 287.134431 31.379161 
L 288.663896 42.717002 
L 290.193362 47.646497 
L 291.722827 67.364479 
L 293.252293 76.237568 
L 294.781758 46.167649 
L 296.311224 48.139448 
L 297.840689 43.209954 
L 299.370155 44.688803 
L 300.89962 49.125347 
L 302.429086 34.829808 
L 303.958551 42.224055 
L 305.488017 43.702898 
L 307.017482 38.773408 
L 308.546948 36.801607 
L 310.076413 35.815707 
L 311.605879 37.29456 
L 314.66481 23.984921 
L 316.194275 25.956721 
L 317.723741 22.013129 
L 319.253206 32.85802 
L 320.782672 37.294559 
L 322.312137 48.139443 
L 323.841603 59.970233 
L 325.371068 75.744623 
L 326.900534 64.406777 
L 328.429999 51.09714 
L 329.959465 50.604196 
L 331.48893 48.632398 
L 333.018396 47.153548 
L 334.547861 44.688802 
L 336.077327 64.899724 
L 337.606792 55.040737 
L 339.136258 49.618293 
L 340.665724 57.998438 
L 342.195189 56.02664 
L 343.724655 55.533688 
L 345.25412 32.365065 
L 346.783586 47.646498 
L 348.313051 33.350965 
L 349.842517 29.407365 
L 351.371982 34.829807 
L 352.901448 30.886217 
L 354.430913 21.027225 
L 355.960379 35.815711 
L 357.489844 43.702896 
L 359.01931 32.365066 
L 360.548775 28.914426 
L 362.078241 17.083636 
L 363.607706 20.534276 
L 365.137172 23.491974 
L 366.666637 30.886212 
L 368.196103 22.013122 
L 369.725568 26.942617 
L 369.725568 26.942617 
" style="fill:none;stroke:#1f77b4;stroke-linecap:square;stroke-width:1.5;"/>
   </g>
   <g id="line2d_20">
    <path clip-path="url(#p69b6b018ea)" d="M 65.361932 148.701137 
L 66.891397 214.756364 
L 68.420863 184.193497 
L 69.950328 165.461419 
L 71.479794 149.687036 
L 73.009259 143.771643 
L 74.538725 149.687035 
L 76.06819 117.152372 
L 77.597656 127.011361 
L 79.127121 137.85625 
L 80.656587 120.110071 
L 82.186052 136.870353 
L 83.715518 125.039563 
L 85.244983 143.771643 
L 86.774449 130.954961 
L 88.303914 126.02546 
L 89.83338 119.124168 
L 91.362845 106.307484 
L 92.892311 127.01136 
L 94.421776 105.321583 
L 95.951242 122.081867 
L 97.480708 141.799844 
L 99.010173 129.969056 
L 102.069104 116.166471 
L 103.59857 127.997261 
L 105.128035 112.222876 
L 106.657501 127.011358 
L 108.186966 148.701137 
L 109.716432 117.152372 
L 111.245897 141.799841 
L 112.775363 124.053669 
L 114.304828 115.180576 
L 115.834294 117.152373 
L 117.363759 121.095969 
L 118.893225 130.954952 
L 120.42269 113.208781 
L 121.952156 115.180571 
L 123.481621 127.011363 
L 125.011087 120.110064 
L 126.540552 128.983158 
L 128.070018 127.011358 
L 129.599483 118.138271 
L 131.128949 130.954959 
L 132.658414 112.222875 
L 134.18788 123.067765 
L 135.717345 128.983156 
L 137.246811 118.138267 
L 138.776276 126.025463 
L 141.835207 114.194676 
L 143.364673 130.954955 
L 144.894138 125.039559 
L 146.423604 109.265181 
L 147.953069 137.856251 
L 149.482535 105.321585 
L 151.012 133.912653 
L 152.541466 116.166472 
L 154.070931 117.152372 
L 155.600397 111.236974 
L 157.129862 114.194675 
L 158.659328 110.25108 
L 160.188793 117.15237 
L 161.718259 118.138267 
L 163.247724 122.081863 
L 164.77719 122.081866 
L 166.306655 110.251083 
L 167.836121 131.940856 
L 169.365586 113.20878 
L 170.895052 134.898554 
L 172.424517 116.166474 
L 173.953983 127.997256 
L 175.483448 126.025461 
L 177.012914 123.067762 
L 178.54238 116.166471 
L 180.071845 139.828048 
L 181.601311 106.307483 
L 183.130776 119.124168 
L 184.660242 119.124168 
L 186.189707 116.166471 
L 187.719173 117.152367 
L 189.248638 109.265182 
L 190.778104 131.940856 
L 192.307569 114.194675 
L 193.837035 134.898555 
L 196.895966 123.067762 
L 198.425431 127.997255 
L 199.954897 115.180571 
L 201.484362 113.208778 
L 203.013828 121.09596 
L 204.543293 114.194672 
L 206.072759 124.053663 
L 207.602224 131.940854 
L 209.13169 103.349787 
L 210.661155 114.194671 
L 212.190621 129.969055 
L 213.720086 102.36388 
L 215.249552 94.476697 
L 216.779017 106.307481 
L 218.308483 127.011361 
L 219.837948 96.448499 
L 221.367414 99.406187 
L 222.896879 114.194679 
L 224.426345 113.208776 
L 225.95581 111.236977 
L 227.485276 104.335682 
L 229.014741 100.39209 
L 230.544207 112.222879 
L 232.073672 112.222878 
L 233.603138 117.152375 
L 235.132603 90.533096 
L 236.662069 121.095967 
L 238.191534 117.152373 
L 239.721 92.504904 
L 241.250465 115.180571 
L 242.779931 129.96906 
L 244.309396 103.349786 
L 245.838862 94.476693 
L 247.368327 98.42029 
L 248.897793 109.265179 
L 250.427258 100.392092 
L 251.956724 105.321589 
L 253.486189 102.363885 
L 255.015655 104.335682 
L 256.54512 86.589508 
L 258.074586 94.476698 
L 259.604052 116.166471 
L 261.133517 119.124173 
L 262.662983 115.180574 
L 264.192448 113.208781 
L 265.721914 84.61771 
L 267.251379 91.519002 
L 268.780845 90.533102 
L 270.31031 119.124168 
L 271.839776 102.363892 
L 273.369241 103.349787 
L 274.898707 106.307486 
L 276.428172 100.392086 
L 277.957638 114.194673 
L 279.487103 99.406193 
L 281.016569 101.377983 
L 282.546034 97.434397 
L 284.0755 88.561299 
L 285.604965 92.504897 
L 287.134431 86.589502 
L 288.663896 100.39209 
L 290.193362 82.645907 
L 291.722827 125.039563 
L 293.252293 117.15237 
L 294.781758 92.504903 
L 296.311224 94.476691 
L 297.840689 98.420293 
L 299.370155 70.815123 
L 300.89962 86.589501 
L 302.429086 86.589502 
L 303.958551 104.335687 
L 305.488017 84.617704 
L 307.017482 97.434393 
L 308.546948 82.645907 
L 310.076413 91.518989 
L 311.605879 82.645907 
L 313.135344 93.490795 
L 314.66481 76.73051 
L 316.194275 61.942031 
L 317.723741 71.801018 
L 319.253206 88.561301 
L 320.782672 85.603601 
L 322.312137 90.533095 
L 323.841603 115.180569 
L 325.371068 122.081865 
L 328.429999 94.47669 
L 329.959465 98.420292 
L 331.48893 91.518997 
L 333.018396 102.363881 
L 334.547861 85.603608 
L 336.077327 122.08186 
L 337.606792 104.335685 
L 339.136258 82.64591 
L 340.665724 106.307481 
L 342.195189 111.236975 
L 343.724655 96.448485 
L 345.25412 79.688215 
L 346.783586 79.688216 
L 348.313051 84.617709 
L 349.842517 80.674111 
L 351.371982 92.504901 
L 352.901448 94.476698 
L 354.430913 78.702317 
L 355.960379 76.730513 
L 357.489844 99.406187 
L 359.01931 97.434391 
L 360.548775 66.871525 
L 362.078241 83.631808 
L 363.607706 88.561302 
L 365.137172 75.74461 
L 366.666637 76.730514 
L 368.196103 69.82922 
L 369.725568 78.702315 
L 369.725568 78.702315 
" style="fill:none;stroke:#ff7f0e;stroke-linecap:square;stroke-width:1.5;"/>
   </g>
   <g id="patch_3">
    <path d="M 50.14375 224.64 
L 50.14375 7.2 
" style="fill:none;stroke:#000000;stroke-linecap:square;stroke-linejoin:miter;stroke-width:0.8;"/>
   </g>
   <g id="patch_4">
    <path d="M 384.94375 224.64 
L 384.94375 7.2 
" style="fill:none;stroke:#000000;stroke-linecap:square;stroke-linejoin:miter;stroke-width:0.8;"/>
   </g>
   <g id="patch_5">
    <path d="M 50.14375 224.64 
L 384.94375 224.64 
" style="fill:none;stroke:#000000;stroke-linecap:square;stroke-linejoin:miter;stroke-width:0.8;"/>
   </g>
   <g id="patch_6">
    <path d="M 50.14375 7.2 
L 384.94375 7.2 
" style="fill:none;stroke:#000000;stroke-linecap:square;stroke-linejoin:miter;stroke-width:0.8;"/>
   </g>
   <g id="legend_1">
    <g id="patch_7">
     <path d="M 57.14375 45.1125 
L 135.834375 45.1125 
Q 137.834375 45.1125 137.834375 43.1125 
L 137.834375 14.2 
Q 137.834375 12.2 135.834375 12.2 
L 57.14375 12.2 
Q 55.14375 12.2 55.14375 14.2 
L 55.14375 43.1125 
Q 55.14375 45.1125 57.14375 45.1125 
z
" style="fill:#ffffff;opacity:0.8;stroke:#cccccc;stroke-linejoin:miter;"/>
    </g>
    <g id="line2d_21">
     <path d="M 59.14375 20.298437 
L 79.14375 20.298437 
" style="fill:none;stroke:#1f77b4;stroke-linecap:square;stroke-width:1.5;"/>
    </g>
    <g id="line2d_22"/>
    <g id="text_21">
     <!-- score_tr -->
     <g transform="translate(87.14375 23.798437)scale(0.1 -0.1)">
      <defs>
       <path d="M 50.984375 -16.609375 
L 50.984375 -23.578125 
L -0.984375 -23.578125 
L -0.984375 -16.609375 
z
" id="DejaVuSans-95"/>
       <path d="M 18.3125 70.21875 
L 18.3125 54.6875 
L 36.8125 54.6875 
L 36.8125 47.703125 
L 18.3125 47.703125 
L 18.3125 18.015625 
Q 18.3125 11.328125 20.140625 9.421875 
Q 21.96875 7.515625 27.59375 7.515625 
L 36.8125 7.515625 
L 36.8125 0 
L 27.59375 0 
Q 17.1875 0 13.234375 3.875 
Q 9.28125 7.765625 9.28125 18.015625 
L 9.28125 47.703125 
L 2.6875 47.703125 
L 2.6875 54.6875 
L 9.28125 54.6875 
L 9.28125 70.21875 
z
" id="DejaVuSans-116"/>
      </defs>
      <use xlink:href="#DejaVuSans-115"/>
      <use x="52.099609" xlink:href="#DejaVuSans-99"/>
      <use x="107.080078" xlink:href="#DejaVuSans-111"/>
      <use x="168.261719" xlink:href="#DejaVuSans-114"/>
      <use x="207.125" xlink:href="#DejaVuSans-101"/>
      <use x="268.648438" xlink:href="#DejaVuSans-95"/>
      <use x="318.648438" xlink:href="#DejaVuSans-116"/>
      <use x="357.857422" xlink:href="#DejaVuSans-114"/>
     </g>
    </g>
    <g id="line2d_23">
     <path d="M 59.14375 35.254687 
L 79.14375 35.254687 
" style="fill:none;stroke:#ff7f0e;stroke-linecap:square;stroke-width:1.5;"/>
    </g>
    <g id="line2d_24"/>
    <g id="text_22">
     <!-- score_val -->
     <g transform="translate(87.14375 38.754687)scale(0.1 -0.1)">
      <defs>
       <path d="M 2.984375 54.6875 
L 12.5 54.6875 
L 29.59375 8.796875 
L 46.6875 54.6875 
L 56.203125 54.6875 
L 35.6875 0 
L 23.484375 0 
z
" id="DejaVuSans-118"/>
       <path d="M 34.28125 27.484375 
Q 23.390625 27.484375 19.1875 25 
Q 14.984375 22.515625 14.984375 16.5 
Q 14.984375 11.71875 18.140625 8.90625 
Q 21.296875 6.109375 26.703125 6.109375 
Q 34.1875 6.109375 38.703125 11.40625 
Q 43.21875 16.703125 43.21875 25.484375 
L 43.21875 27.484375 
z
M 52.203125 31.203125 
L 52.203125 0 
L 43.21875 0 
L 43.21875 8.296875 
Q 40.140625 3.328125 35.546875 0.953125 
Q 30.953125 -1.421875 24.3125 -1.421875 
Q 15.921875 -1.421875 10.953125 3.296875 
Q 6 8.015625 6 15.921875 
Q 6 25.140625 12.171875 29.828125 
Q 18.359375 34.515625 30.609375 34.515625 
L 43.21875 34.515625 
L 43.21875 35.40625 
Q 43.21875 41.609375 39.140625 45 
Q 35.0625 48.390625 27.6875 48.390625 
Q 23 48.390625 18.546875 47.265625 
Q 14.109375 46.140625 10.015625 43.890625 
L 10.015625 52.203125 
Q 14.9375 54.109375 19.578125 55.046875 
Q 24.21875 56 28.609375 56 
Q 40.484375 56 46.34375 49.84375 
Q 52.203125 43.703125 52.203125 31.203125 
z
" id="DejaVuSans-97"/>
       <path d="M 9.421875 75.984375 
L 18.40625 75.984375 
L 18.40625 0 
L 9.421875 0 
z
" id="DejaVuSans-108"/>
      </defs>
      <use xlink:href="#DejaVuSans-115"/>
      <use x="52.099609" xlink:href="#DejaVuSans-99"/>
      <use x="107.080078" xlink:href="#DejaVuSans-111"/>
      <use x="168.261719" xlink:href="#DejaVuSans-114"/>
      <use x="207.125" xlink:href="#DejaVuSans-101"/>
      <use x="268.648438" xlink:href="#DejaVuSans-95"/>
      <use x="318.648438" xlink:href="#DejaVuSans-118"/>
      <use x="377.828125" xlink:href="#DejaVuSans-97"/>
      <use x="439.107422" xlink:href="#DejaVuSans-108"/>
     </g>
    </g>
   </g>
  </g>
 </g>
 <defs>
  <clipPath id="p69b6b018ea">
   <rect height="217.44" width="334.8" x="50.14375" y="7.2"/>
  </clipPath>
 </defs>
</svg>
