<?xml version="1.0" encoding="utf-8" standalone="no"?>
<!DOCTYPE svg PUBLIC "-//W3C//DTD SVG 1.1//EN"
  "http://www.w3.org/Graphics/SVG/1.1/DTD/svg11.dtd">
<!-- Created with matplotlib (https://matplotlib.org/) -->
<svg height="262.19625pt" version="1.1" viewBox="0 0 392.14375 262.19625" width="392.14375pt" xmlns="http://www.w3.org/2000/svg" xmlns:xlink="http://www.w3.org/1999/xlink">
 <metadata>
  <rdf:RDF xmlns:cc="http://creativecommons.org/ns#" xmlns:dc="http://purl.org/dc/elements/1.1/" xmlns:rdf="http://www.w3.org/1999/02/22-rdf-syntax-ns#">
   <cc:Work>
    <dc:type rdf:resource="http://purl.org/dc/dcmitype/StillImage"/>
    <dc:date>2020-12-16T14:55:19.050812</dc:date>
    <dc:format>image/svg+xml</dc:format>
    <dc:creator>
     <cc:Agent>
      <dc:title>Matplotlib v3.3.3, https://matplotlib.org/</dc:title>
     </cc:Agent>
    </dc:creator>
   </cc:Work>
  </rdf:RDF>
 </metadata>
 <defs>
  <style type="text/css">*{stroke-linecap:butt;stroke-linejoin:round;}</style>
 </defs>
 <g id="figure_1">
  <g id="patch_1">
   <path d="M 0 262.19625 
L 392.14375 262.19625 
L 392.14375 0 
L 0 0 
z
" style="fill:none;"/>
  </g>
  <g id="axes_1">
   <g id="patch_2">
    <path d="M 50.14375 224.64 
L 384.94375 224.64 
L 384.94375 7.2 
L 50.14375 7.2 
z
" style="fill:#ffffff;"/>
   </g>
   <g id="matplotlib.axis_1">
    <g id="xtick_1">
     <g id="line2d_1">
      <defs>
       <path d="M 0 0 
L 0 3.5 
" id="mb9d9c11726" style="stroke:#000000;stroke-width:0.8;"/>
      </defs>
      <g>
       <use style="stroke:#000000;stroke-width:0.8;" x="65.361932" xlink:href="#mb9d9c11726" y="224.64"/>
      </g>
     </g>
     <g id="text_1">
      <!-- 0 -->
      <g transform="translate(62.180682 239.238437)scale(0.1 -0.1)">
       <defs>
        <path d="M 31.78125 66.40625 
Q 24.171875 66.40625 20.328125 58.90625 
Q 16.5 51.421875 16.5 36.375 
Q 16.5 21.390625 20.328125 13.890625 
Q 24.171875 6.390625 31.78125 6.390625 
Q 39.453125 6.390625 43.28125 13.890625 
Q 47.125 21.390625 47.125 36.375 
Q 47.125 51.421875 43.28125 58.90625 
Q 39.453125 66.40625 31.78125 66.40625 
z
M 31.78125 74.21875 
Q 44.046875 74.21875 50.515625 64.515625 
Q 56.984375 54.828125 56.984375 36.375 
Q 56.984375 17.96875 50.515625 8.265625 
Q 44.046875 -1.421875 31.78125 -1.421875 
Q 19.53125 -1.421875 13.0625 8.265625 
Q 6.59375 17.96875 6.59375 36.375 
Q 6.59375 54.828125 13.0625 64.515625 
Q 19.53125 74.21875 31.78125 74.21875 
z
" id="DejaVuSans-48"/>
       </defs>
       <use xlink:href="#DejaVuSans-48"/>
      </g>
     </g>
    </g>
    <g id="xtick_2">
     <g id="line2d_2">
      <g>
       <use style="stroke:#000000;stroke-width:0.8;" x="103.59857" xlink:href="#mb9d9c11726" y="224.64"/>
      </g>
     </g>
     <g id="text_2">
      <!-- 25 -->
      <g transform="translate(97.23607 239.238437)scale(0.1 -0.1)">
       <defs>
        <path d="M 19.1875 8.296875 
L 53.609375 8.296875 
L 53.609375 0 
L 7.328125 0 
L 7.328125 8.296875 
Q 12.9375 14.109375 22.625 23.890625 
Q 32.328125 33.6875 34.8125 36.53125 
Q 39.546875 41.84375 41.421875 45.53125 
Q 43.3125 49.21875 43.3125 52.78125 
Q 43.3125 58.59375 39.234375 62.25 
Q 35.15625 65.921875 28.609375 65.921875 
Q 23.96875 65.921875 18.8125 64.3125 
Q 13.671875 62.703125 7.8125 59.421875 
L 7.8125 69.390625 
Q 13.765625 71.78125 18.9375 73 
Q 24.125 74.21875 28.421875 74.21875 
Q 39.75 74.21875 46.484375 68.546875 
Q 53.21875 62.890625 53.21875 53.421875 
Q 53.21875 48.921875 51.53125 44.890625 
Q 49.859375 40.875 45.40625 35.40625 
Q 44.1875 33.984375 37.640625 27.21875 
Q 31.109375 20.453125 19.1875 8.296875 
z
" id="DejaVuSans-50"/>
        <path d="M 10.796875 72.90625 
L 49.515625 72.90625 
L 49.515625 64.59375 
L 19.828125 64.59375 
L 19.828125 46.734375 
Q 21.96875 47.46875 24.109375 47.828125 
Q 26.265625 48.1875 28.421875 48.1875 
Q 40.625 48.1875 47.75 41.5 
Q 54.890625 34.8125 54.890625 23.390625 
Q 54.890625 11.625 47.5625 5.09375 
Q 40.234375 -1.421875 26.90625 -1.421875 
Q 22.3125 -1.421875 17.546875 -0.640625 
Q 12.796875 0.140625 7.71875 1.703125 
L 7.71875 11.625 
Q 12.109375 9.234375 16.796875 8.0625 
Q 21.484375 6.890625 26.703125 6.890625 
Q 35.15625 6.890625 40.078125 11.328125 
Q 45.015625 15.765625 45.015625 23.390625 
Q 45.015625 31 40.078125 35.4375 
Q 35.15625 39.890625 26.703125 39.890625 
Q 22.75 39.890625 18.8125 39.015625 
Q 14.890625 38.140625 10.796875 36.28125 
z
" id="DejaVuSans-53"/>
       </defs>
       <use xlink:href="#DejaVuSans-50"/>
       <use x="63.623047" xlink:href="#DejaVuSans-53"/>
      </g>
     </g>
    </g>
    <g id="xtick_3">
     <g id="line2d_3">
      <g>
       <use style="stroke:#000000;stroke-width:0.8;" x="141.835207" xlink:href="#mb9d9c11726" y="224.64"/>
      </g>
     </g>
     <g id="text_3">
      <!-- 50 -->
      <g transform="translate(135.472707 239.238437)scale(0.1 -0.1)">
       <use xlink:href="#DejaVuSans-53"/>
       <use x="63.623047" xlink:href="#DejaVuSans-48"/>
      </g>
     </g>
    </g>
    <g id="xtick_4">
     <g id="line2d_4">
      <g>
       <use style="stroke:#000000;stroke-width:0.8;" x="180.071845" xlink:href="#mb9d9c11726" y="224.64"/>
      </g>
     </g>
     <g id="text_4">
      <!-- 75 -->
      <g transform="translate(173.709345 239.238437)scale(0.1 -0.1)">
       <defs>
        <path d="M 8.203125 72.90625 
L 55.078125 72.90625 
L 55.078125 68.703125 
L 28.609375 0 
L 18.3125 0 
L 43.21875 64.59375 
L 8.203125 64.59375 
z
" id="DejaVuSans-55"/>
       </defs>
       <use xlink:href="#DejaVuSans-55"/>
       <use x="63.623047" xlink:href="#DejaVuSans-53"/>
      </g>
     </g>
    </g>
    <g id="xtick_5">
     <g id="line2d_5">
      <g>
       <use style="stroke:#000000;stroke-width:0.8;" x="218.308483" xlink:href="#mb9d9c11726" y="224.64"/>
      </g>
     </g>
     <g id="text_5">
      <!-- 100 -->
      <g transform="translate(208.764733 239.238437)scale(0.1 -0.1)">
       <defs>
        <path d="M 12.40625 8.296875 
L 28.515625 8.296875 
L 28.515625 63.921875 
L 10.984375 60.40625 
L 10.984375 69.390625 
L 28.421875 72.90625 
L 38.28125 72.90625 
L 38.28125 8.296875 
L 54.390625 8.296875 
L 54.390625 0 
L 12.40625 0 
z
" id="DejaVuSans-49"/>
       </defs>
       <use xlink:href="#DejaVuSans-49"/>
       <use x="63.623047" xlink:href="#DejaVuSans-48"/>
       <use x="127.246094" xlink:href="#DejaVuSans-48"/>
      </g>
     </g>
    </g>
    <g id="xtick_6">
     <g id="line2d_6">
      <g>
       <use style="stroke:#000000;stroke-width:0.8;" x="256.54512" xlink:href="#mb9d9c11726" y="224.64"/>
      </g>
     </g>
     <g id="text_6">
      <!-- 125 -->
      <g transform="translate(247.00137 239.238437)scale(0.1 -0.1)">
       <use xlink:href="#DejaVuSans-49"/>
       <use x="63.623047" xlink:href="#DejaVuSans-50"/>
       <use x="127.246094" xlink:href="#DejaVuSans-53"/>
      </g>
     </g>
    </g>
    <g id="xtick_7">
     <g id="line2d_7">
      <g>
       <use style="stroke:#000000;stroke-width:0.8;" x="294.781758" xlink:href="#mb9d9c11726" y="224.64"/>
      </g>
     </g>
     <g id="text_7">
      <!-- 150 -->
      <g transform="translate(285.238008 239.238437)scale(0.1 -0.1)">
       <use xlink:href="#DejaVuSans-49"/>
       <use x="63.623047" xlink:href="#DejaVuSans-53"/>
       <use x="127.246094" xlink:href="#DejaVuSans-48"/>
      </g>
     </g>
    </g>
    <g id="xtick_8">
     <g id="line2d_8">
      <g>
       <use style="stroke:#000000;stroke-width:0.8;" x="333.018396" xlink:href="#mb9d9c11726" y="224.64"/>
      </g>
     </g>
     <g id="text_8">
      <!-- 175 -->
      <g transform="translate(323.474646 239.238437)scale(0.1 -0.1)">
       <use xlink:href="#DejaVuSans-49"/>
       <use x="63.623047" xlink:href="#DejaVuSans-55"/>
       <use x="127.246094" xlink:href="#DejaVuSans-53"/>
      </g>
     </g>
    </g>
    <g id="xtick_9">
     <g id="line2d_9">
      <g>
       <use style="stroke:#000000;stroke-width:0.8;" x="371.255034" xlink:href="#mb9d9c11726" y="224.64"/>
      </g>
     </g>
     <g id="text_9">
      <!-- 200 -->
      <g transform="translate(361.711284 239.238437)scale(0.1 -0.1)">
       <use xlink:href="#DejaVuSans-50"/>
       <use x="63.623047" xlink:href="#DejaVuSans-48"/>
       <use x="127.246094" xlink:href="#DejaVuSans-48"/>
      </g>
     </g>
    </g>
    <g id="text_10">
     <!-- epoch -->
     <g transform="translate(202.315625 252.916562)scale(0.1 -0.1)">
      <defs>
       <path d="M 56.203125 29.59375 
L 56.203125 25.203125 
L 14.890625 25.203125 
Q 15.484375 15.921875 20.484375 11.0625 
Q 25.484375 6.203125 34.421875 6.203125 
Q 39.59375 6.203125 44.453125 7.46875 
Q 49.3125 8.734375 54.109375 11.28125 
L 54.109375 2.78125 
Q 49.265625 0.734375 44.1875 -0.34375 
Q 39.109375 -1.421875 33.890625 -1.421875 
Q 20.796875 -1.421875 13.15625 6.1875 
Q 5.515625 13.8125 5.515625 26.8125 
Q 5.515625 40.234375 12.765625 48.109375 
Q 20.015625 56 32.328125 56 
Q 43.359375 56 49.78125 48.890625 
Q 56.203125 41.796875 56.203125 29.59375 
z
M 47.21875 32.234375 
Q 47.125 39.59375 43.09375 43.984375 
Q 39.0625 48.390625 32.421875 48.390625 
Q 24.90625 48.390625 20.390625 44.140625 
Q 15.875 39.890625 15.1875 32.171875 
z
" id="DejaVuSans-101"/>
       <path d="M 18.109375 8.203125 
L 18.109375 -20.796875 
L 9.078125 -20.796875 
L 9.078125 54.6875 
L 18.109375 54.6875 
L 18.109375 46.390625 
Q 20.953125 51.265625 25.265625 53.625 
Q 29.59375 56 35.59375 56 
Q 45.5625 56 51.78125 48.09375 
Q 58.015625 40.1875 58.015625 27.296875 
Q 58.015625 14.40625 51.78125 6.484375 
Q 45.5625 -1.421875 35.59375 -1.421875 
Q 29.59375 -1.421875 25.265625 0.953125 
Q 20.953125 3.328125 18.109375 8.203125 
z
M 48.6875 27.296875 
Q 48.6875 37.203125 44.609375 42.84375 
Q 40.53125 48.484375 33.40625 48.484375 
Q 26.265625 48.484375 22.1875 42.84375 
Q 18.109375 37.203125 18.109375 27.296875 
Q 18.109375 17.390625 22.1875 11.75 
Q 26.265625 6.109375 33.40625 6.109375 
Q 40.53125 6.109375 44.609375 11.75 
Q 48.6875 17.390625 48.6875 27.296875 
z
" id="DejaVuSans-112"/>
       <path d="M 30.609375 48.390625 
Q 23.390625 48.390625 19.1875 42.75 
Q 14.984375 37.109375 14.984375 27.296875 
Q 14.984375 17.484375 19.15625 11.84375 
Q 23.34375 6.203125 30.609375 6.203125 
Q 37.796875 6.203125 41.984375 11.859375 
Q 46.1875 17.53125 46.1875 27.296875 
Q 46.1875 37.015625 41.984375 42.703125 
Q 37.796875 48.390625 30.609375 48.390625 
z
M 30.609375 56 
Q 42.328125 56 49.015625 48.375 
Q 55.71875 40.765625 55.71875 27.296875 
Q 55.71875 13.875 49.015625 6.21875 
Q 42.328125 -1.421875 30.609375 -1.421875 
Q 18.84375 -1.421875 12.171875 6.21875 
Q 5.515625 13.875 5.515625 27.296875 
Q 5.515625 40.765625 12.171875 48.375 
Q 18.84375 56 30.609375 56 
z
" id="DejaVuSans-111"/>
       <path d="M 48.78125 52.59375 
L 48.78125 44.1875 
Q 44.96875 46.296875 41.140625 47.34375 
Q 37.3125 48.390625 33.40625 48.390625 
Q 24.65625 48.390625 19.8125 42.84375 
Q 14.984375 37.3125 14.984375 27.296875 
Q 14.984375 17.28125 19.8125 11.734375 
Q 24.65625 6.203125 33.40625 6.203125 
Q 37.3125 6.203125 41.140625 7.25 
Q 44.96875 8.296875 48.78125 10.40625 
L 48.78125 2.09375 
Q 45.015625 0.34375 40.984375 -0.53125 
Q 36.96875 -1.421875 32.421875 -1.421875 
Q 20.0625 -1.421875 12.78125 6.34375 
Q 5.515625 14.109375 5.515625 27.296875 
Q 5.515625 40.671875 12.859375 48.328125 
Q 20.21875 56 33.015625 56 
Q 37.15625 56 41.109375 55.140625 
Q 45.0625 54.296875 48.78125 52.59375 
z
" id="DejaVuSans-99"/>
       <path d="M 54.890625 33.015625 
L 54.890625 0 
L 45.90625 0 
L 45.90625 32.71875 
Q 45.90625 40.484375 42.875 44.328125 
Q 39.84375 48.1875 33.796875 48.1875 
Q 26.515625 48.1875 22.3125 43.546875 
Q 18.109375 38.921875 18.109375 30.90625 
L 18.109375 0 
L 9.078125 0 
L 9.078125 75.984375 
L 18.109375 75.984375 
L 18.109375 46.1875 
Q 21.34375 51.125 25.703125 53.5625 
Q 30.078125 56 35.796875 56 
Q 45.21875 56 50.046875 50.171875 
Q 54.890625 44.34375 54.890625 33.015625 
z
" id="DejaVuSans-104"/>
      </defs>
      <use xlink:href="#DejaVuSans-101"/>
      <use x="61.523438" xlink:href="#DejaVuSans-112"/>
      <use x="125" xlink:href="#DejaVuSans-111"/>
      <use x="186.181641" xlink:href="#DejaVuSans-99"/>
      <use x="241.162109" xlink:href="#DejaVuSans-104"/>
     </g>
    </g>
   </g>
   <g id="matplotlib.axis_2">
    <g id="ytick_1">
     <g id="line2d_10">
      <defs>
       <path d="M 0 0 
L -3.5 0 
" id="m9a06226a6b" style="stroke:#000000;stroke-width:0.8;"/>
      </defs>
      <g>
       <use style="stroke:#000000;stroke-width:0.8;" x="50.14375" xlink:href="#m9a06226a6b" y="191.035638"/>
      </g>
     </g>
     <g id="text_11">
      <!-- 0.05 -->
      <g transform="translate(20.878125 194.834857)scale(0.1 -0.1)">
       <defs>
        <path d="M 10.6875 12.40625 
L 21 12.40625 
L 21 0 
L 10.6875 0 
z
" id="DejaVuSans-46"/>
       </defs>
       <use xlink:href="#DejaVuSans-48"/>
       <use x="63.623047" xlink:href="#DejaVuSans-46"/>
       <use x="95.410156" xlink:href="#DejaVuSans-48"/>
       <use x="159.033203" xlink:href="#DejaVuSans-53"/>
      </g>
     </g>
    </g>
    <g id="ytick_2">
     <g id="line2d_11">
      <g>
       <use style="stroke:#000000;stroke-width:0.8;" x="50.14375" xlink:href="#m9a06226a6b" y="151.501093"/>
      </g>
     </g>
     <g id="text_12">
      <!-- 0.10 -->
      <g transform="translate(20.878125 155.300312)scale(0.1 -0.1)">
       <use xlink:href="#DejaVuSans-48"/>
       <use x="63.623047" xlink:href="#DejaVuSans-46"/>
       <use x="95.410156" xlink:href="#DejaVuSans-49"/>
       <use x="159.033203" xlink:href="#DejaVuSans-48"/>
      </g>
     </g>
    </g>
    <g id="ytick_3">
     <g id="line2d_12">
      <g>
       <use style="stroke:#000000;stroke-width:0.8;" x="50.14375" xlink:href="#m9a06226a6b" y="111.966549"/>
      </g>
     </g>
     <g id="text_13">
      <!-- 0.15 -->
      <g transform="translate(20.878125 115.765767)scale(0.1 -0.1)">
       <use xlink:href="#DejaVuSans-48"/>
       <use x="63.623047" xlink:href="#DejaVuSans-46"/>
       <use x="95.410156" xlink:href="#DejaVuSans-49"/>
       <use x="159.033203" xlink:href="#DejaVuSans-53"/>
      </g>
     </g>
    </g>
    <g id="ytick_4">
     <g id="line2d_13">
      <g>
       <use style="stroke:#000000;stroke-width:0.8;" x="50.14375" xlink:href="#m9a06226a6b" y="72.432004"/>
      </g>
     </g>
     <g id="text_14">
      <!-- 0.20 -->
      <g transform="translate(20.878125 76.231223)scale(0.1 -0.1)">
       <use xlink:href="#DejaVuSans-48"/>
       <use x="63.623047" xlink:href="#DejaVuSans-46"/>
       <use x="95.410156" xlink:href="#DejaVuSans-50"/>
       <use x="159.033203" xlink:href="#DejaVuSans-48"/>
      </g>
     </g>
    </g>
    <g id="ytick_5">
     <g id="line2d_14">
      <g>
       <use style="stroke:#000000;stroke-width:0.8;" x="50.14375" xlink:href="#m9a06226a6b" y="32.897459"/>
      </g>
     </g>
     <g id="text_15">
      <!-- 0.25 -->
      <g transform="translate(20.878125 36.696678)scale(0.1 -0.1)">
       <use xlink:href="#DejaVuSans-48"/>
       <use x="63.623047" xlink:href="#DejaVuSans-46"/>
       <use x="95.410156" xlink:href="#DejaVuSans-50"/>
       <use x="159.033203" xlink:href="#DejaVuSans-53"/>
      </g>
     </g>
    </g>
    <g id="text_16">
     <!-- score -->
     <g transform="translate(14.798438 129.352812)rotate(-90)scale(0.1 -0.1)">
      <defs>
       <path d="M 44.28125 53.078125 
L 44.28125 44.578125 
Q 40.484375 46.53125 36.375 47.5 
Q 32.28125 48.484375 27.875 48.484375 
Q 21.1875 48.484375 17.84375 46.4375 
Q 14.5 44.390625 14.5 40.28125 
Q 14.5 37.15625 16.890625 35.375 
Q 19.28125 33.59375 26.515625 31.984375 
L 29.59375 31.296875 
Q 39.15625 29.25 43.1875 25.515625 
Q 47.21875 21.78125 47.21875 15.09375 
Q 47.21875 7.46875 41.1875 3.015625 
Q 35.15625 -1.421875 24.609375 -1.421875 
Q 20.21875 -1.421875 15.453125 -0.5625 
Q 10.6875 0.296875 5.421875 2 
L 5.421875 11.28125 
Q 10.40625 8.6875 15.234375 7.390625 
Q 20.0625 6.109375 24.8125 6.109375 
Q 31.15625 6.109375 34.5625 8.28125 
Q 37.984375 10.453125 37.984375 14.40625 
Q 37.984375 18.0625 35.515625 20.015625 
Q 33.0625 21.96875 24.703125 23.78125 
L 21.578125 24.515625 
Q 13.234375 26.265625 9.515625 29.90625 
Q 5.8125 33.546875 5.8125 39.890625 
Q 5.8125 47.609375 11.28125 51.796875 
Q 16.75 56 26.8125 56 
Q 31.78125 56 36.171875 55.265625 
Q 40.578125 54.546875 44.28125 53.078125 
z
" id="DejaVuSans-115"/>
       <path d="M 41.109375 46.296875 
Q 39.59375 47.171875 37.8125 47.578125 
Q 36.03125 48 33.890625 48 
Q 26.265625 48 22.1875 43.046875 
Q 18.109375 38.09375 18.109375 28.8125 
L 18.109375 0 
L 9.078125 0 
L 9.078125 54.6875 
L 18.109375 54.6875 
L 18.109375 46.1875 
Q 20.953125 51.171875 25.484375 53.578125 
Q 30.03125 56 36.53125 56 
Q 37.453125 56 38.578125 55.875 
Q 39.703125 55.765625 41.0625 55.515625 
z
" id="DejaVuSans-114"/>
      </defs>
      <use xlink:href="#DejaVuSans-115"/>
      <use x="52.099609" xlink:href="#DejaVuSans-99"/>
      <use x="107.080078" xlink:href="#DejaVuSans-111"/>
      <use x="168.261719" xlink:href="#DejaVuSans-114"/>
      <use x="207.125" xlink:href="#DejaVuSans-101"/>
     </g>
    </g>
   </g>
   <g id="line2d_15">
    <path clip-path="url(#p16ec3a4fd1)" d="M 65.361932 91.408578 
L 66.891397 66.897165 
L 68.420863 62.943706 
L 69.950328 33.688138 
L 71.479794 17.083636 
L 73.009259 60.571638 
L 74.538725 44.757814 
L 76.06819 139.640726 
L 77.597656 69.269236 
L 79.127121 195.779781 
L 80.656587 171.268363 
L 82.186052 185.5008 
L 83.715518 162.570762 
L 85.244983 179.175273 
L 86.774449 149.919707 
L 88.303914 150.710399 
L 89.83338 153.082471 
L 91.362845 156.245237 
L 92.892311 112.757239 
L 94.421776 110.385164 
L 95.951242 105.641019 
L 97.480708 115.129306 
L 99.010173 91.408577 
L 100.539639 101.687564 
L 102.069104 114.338615 
L 103.59857 97.734106 
L 105.128035 126.989674 
L 106.657501 86.664436 
L 108.186966 72.432004 
L 109.716432 107.2224 
L 111.245897 113.547926 
L 112.775363 112.757237 
L 114.304828 112.757235 
L 115.834294 111.175852 
L 117.363759 91.408582 
L 118.893225 89.827199 
L 120.42269 74.804072 
L 121.952156 88.245817 
L 123.481621 125.40829 
L 126.540552 63.734399 
L 128.070018 97.734108 
L 129.599483 43.967124 
L 131.128949 72.432 
L 132.658414 40.013675 
L 134.18788 80.338906 
L 135.717345 124.6176 
L 137.246811 118.292073 
L 138.776276 88.245816 
L 140.305742 118.292077 
L 141.835207 109.594473 
L 143.364673 124.617601 
L 144.894138 120.664145 
L 146.423604 113.547927 
L 147.953069 111.966547 
L 149.482535 78.757526 
L 151.012 85.083052 
L 152.541466 98.524798 
L 154.070931 108.80378 
L 155.600397 123.826911 
L 157.129862 92.989961 
L 158.659328 105.641014 
L 160.188793 126.198986 
L 161.718259 129.361742 
L 163.247724 109.594472 
L 164.77719 114.338618 
L 166.306655 134.105892 
L 167.836121 102.478252 
L 169.365586 108.01309 
L 170.895052 106.431706 
L 172.424517 115.129307 
L 173.953983 130.943129 
L 177.012914 68.478546 
L 178.54238 94.571344 
L 180.071845 113.547926 
L 181.601311 92.199273 
L 183.130776 111.966544 
L 184.660242 108.80378 
L 186.189707 100.10618 
L 187.719173 100.106183 
L 189.248638 90.617891 
L 190.778104 81.920292 
L 192.307569 104.059633 
L 193.837035 107.2224 
L 195.3665 89.036507 
L 196.895966 86.664437 
L 198.425431 87.455129 
L 199.954897 115.919999 
L 201.484362 118.29207 
L 203.013828 109.594471 
L 204.543293 109.594474 
L 206.072759 115.129307 
L 207.602224 111.175853 
L 209.13169 114.338619 
L 210.661155 130.152437 
L 212.190621 114.338617 
L 213.720086 111.966544 
L 215.249552 85.873747 
L 216.779017 84.292361 
L 218.308483 114.338616 
L 219.837948 124.617599 
L 221.367414 127.780364 
L 222.896879 143.594182 
L 224.426345 121.454838 
L 225.95581 128.571056 
L 227.485276 126.98967 
L 229.014741 120.664138 
L 230.544207 130.152436 
L 232.073672 136.477967 
L 233.603138 115.92 
L 235.132603 99.315486 
L 236.662069 149.129019 
L 238.191534 147.547638 
L 239.721 134.105891 
L 241.250465 104.850328 
L 242.779931 119.873452 
L 244.309396 119.873454 
L 245.838862 149.129018 
L 247.368327 126.198982 
L 248.897793 128.571054 
L 250.427258 145.175563 
L 251.956724 124.617601 
L 253.486189 131.733818 
L 255.015655 141.222109 
L 256.54512 146.756945 
L 258.074586 126.198982 
L 259.604052 136.477963 
L 261.133517 131.733819 
L 262.662983 129.361743 
L 264.192448 119.082762 
L 265.721914 136.477961 
L 267.251379 147.547636 
L 268.780845 142.012797 
L 270.31031 119.873454 
L 271.839776 126.198981 
L 273.369241 143.594181 
L 274.898707 142.0128 
L 276.428172 116.710694 
L 277.957638 113.547926 
L 279.487103 134.10589 
L 281.016569 133.3152 
L 282.546034 123.036219 
L 284.0755 145.966255 
L 285.604965 139.640727 
L 287.134431 138.059345 
L 288.663896 140.431416 
L 290.193362 138.850035 
L 291.722827 145.175561 
L 293.252293 145.175562 
L 294.781758 151.50109 
L 296.311224 139.640727 
L 297.840689 129.361743 
L 299.370155 133.315196 
L 300.89962 142.0128 
L 302.429086 128.571053 
L 303.958551 123.036216 
L 307.017482 145.966255 
L 308.546948 126.989671 
L 310.076413 149.91971 
L 311.605879 125.408292 
L 313.135344 150.710398 
L 316.194275 126.989669 
L 317.723741 150.710398 
L 319.253206 140.431419 
L 320.782672 142.012799 
L 322.312137 140.43142 
L 323.841603 139.640727 
L 325.371068 138.059343 
L 326.900534 143.594183 
L 328.429999 144.384872 
L 329.959465 126.198982 
L 331.48893 151.501089 
L 333.018396 148.338326 
L 334.547861 150.710401 
L 336.077327 141.222111 
L 337.606792 137.268653 
L 339.136258 132.524506 
L 340.665724 145.966253 
L 342.195189 151.501091 
L 343.724655 138.850035 
L 345.25412 147.547633 
L 346.783586 150.7104 
L 348.313051 144.384873 
L 349.842517 144.384871 
L 352.901448 150.710402 
L 354.430913 150.7104 
L 355.960379 148.338328 
L 357.489844 134.105892 
L 359.01931 144.384872 
L 360.548775 149.919707 
L 362.078241 145.175562 
L 363.607706 145.966253 
L 365.137172 149.129017 
L 366.666637 148.338327 
L 368.196103 142.80349 
L 369.725568 144.384872 
L 369.725568 144.384872 
" style="fill:none;stroke:#1f77b4;stroke-linecap:square;stroke-width:1.5;"/>
   </g>
   <g id="line2d_16">
    <path clip-path="url(#p16ec3a4fd1)" d="M 65.361932 113.547923 
L 66.891397 55.036805 
L 68.420863 85.083054 
L 69.950328 32.89745 
L 71.479794 26.571924 
L 73.009259 99.315487 
L 74.538725 58.199565 
L 76.06819 172.059055 
L 77.597656 67.687861 
L 79.127121 214.756364 
L 80.656587 194.198399 
L 82.186052 203.686691 
L 83.715518 186.291492 
L 85.244983 198.942546 
L 86.774449 176.803199 
L 88.303914 178.384581 
L 89.83338 178.384583 
L 91.362845 181.547345 
L 92.892311 156.245234 
L 94.421776 159.407998 
L 95.951242 149.919705 
L 97.480708 160.989382 
L 99.010173 140.431417 
L 100.539639 146.756946 
L 102.069104 162.570762 
L 103.59857 132.524506 
L 105.128035 173.640436 
L 106.657501 132.52451 
L 108.186966 118.292076 
L 109.716432 159.408 
L 112.775363 156.245237 
L 114.304828 159.407998 
L 115.834294 143.594179 
L 117.363759 143.594184 
L 118.893225 129.361742 
L 120.42269 130.943124 
L 121.952156 159.407999 
L 123.481621 170.477669 
L 125.011087 132.524509 
L 126.540552 77.176145 
L 128.070018 149.919707 
L 129.599483 94.571341 
L 131.128949 145.175563 
L 132.658414 69.269234 
L 134.18788 134.105893 
L 135.717345 168.896291 
L 137.246811 160.989383 
L 138.776276 132.524505 
L 140.305742 162.570763 
L 141.835207 153.082469 
L 143.364673 168.89629 
L 144.894138 165.733525 
L 146.423604 160.98938 
L 147.953069 154.663854 
L 149.482535 119.873456 
L 151.012 123.036214 
L 152.541466 130.943128 
L 154.070931 160.989382 
L 155.600397 162.570764 
L 157.129862 140.431416 
L 160.188793 172.059055 
L 161.718259 170.477673 
L 163.247724 160.989381 
L 164.77719 162.570762 
L 166.306655 172.059055 
L 167.836121 154.663854 
L 169.365586 165.733525 
L 170.895052 156.245235 
L 172.424517 168.896291 
L 173.953983 173.640436 
L 175.483448 156.245236 
L 177.012914 126.19898 
L 180.071845 151.501093 
L 181.601311 132.524509 
L 183.130776 153.082468 
L 184.660242 157.826619 
L 186.189707 165.733526 
L 187.719173 148.338326 
L 189.248638 138.850036 
L 190.778104 137.268657 
L 193.837035 168.896291 
L 195.3665 151.501093 
L 196.895966 149.919708 
L 198.425431 124.6176 
L 199.954897 170.477671 
L 201.484362 175.221817 
L 203.013828 162.570764 
L 204.543293 160.989382 
L 206.072759 168.89629 
L 207.602224 154.663854 
L 209.13169 156.245234 
L 210.661155 173.640437 
L 212.190621 165.733526 
L 213.720086 151.50109 
L 215.249552 132.524507 
L 216.779017 138.850037 
L 218.308483 148.338328 
L 219.837948 173.640438 
L 221.367414 167.314912 
L 222.896879 178.384582 
L 224.426345 164.152146 
L 225.95581 175.221818 
L 227.485276 172.059054 
L 229.014741 176.803199 
L 230.544207 172.059054 
L 232.073672 176.803201 
L 233.603138 167.314908 
L 235.132603 154.663853 
L 236.662069 178.384581 
L 238.191534 178.384582 
L 239.721 172.059054 
L 241.250465 168.89629 
L 242.779931 168.89629 
L 244.309396 173.640435 
L 245.838862 175.221817 
L 247.368327 172.059053 
L 248.897793 176.8032 
L 250.427258 178.384582 
L 251.956724 176.803199 
L 253.486189 164.152146 
L 255.015655 178.384582 
L 256.54512 178.384582 
L 258.074586 170.477672 
L 259.604052 176.803201 
L 261.133517 175.221817 
L 262.662983 170.477675 
L 264.192448 172.059055 
L 265.721914 176.803199 
L 267.251379 178.384581 
L 268.780845 178.384581 
L 270.31031 172.059053 
L 271.839776 178.384581 
L 273.369241 178.384582 
L 274.898707 176.803201 
L 276.428172 156.245237 
L 277.957638 170.477672 
L 279.487103 168.896293 
L 281.016569 176.8032 
L 282.546034 175.22182 
L 284.0755 178.384582 
L 285.604965 178.384582 
L 287.134431 173.640438 
L 288.663896 178.384582 
L 291.722827 178.384581 
L 293.252293 179.965961 
L 294.781758 178.384581 
L 296.311224 173.640436 
L 297.840689 176.8032 
L 299.370155 165.733528 
L 300.89962 178.384582 
L 302.429086 173.640436 
L 303.958551 170.477671 
L 305.488017 173.640434 
L 307.017482 178.384583 
L 308.546948 162.570764 
L 310.076413 178.384582 
L 311.605879 168.896289 
L 313.135344 178.384582 
L 314.66481 176.8032 
L 316.194275 173.640437 
L 317.723741 178.384584 
L 319.253206 176.803201 
L 320.782672 178.384582 
L 322.312137 178.384581 
L 323.841603 179.965962 
L 325.371068 176.8032 
L 326.900534 178.38458 
L 328.429999 178.384582 
L 329.959465 176.803197 
L 331.48893 178.384584 
L 336.077327 178.384583 
L 337.606792 165.733525 
L 339.136258 173.640439 
L 340.665724 178.384582 
L 342.195189 178.384581 
L 343.724655 168.896292 
L 345.25412 176.8032 
L 348.313051 179.965963 
L 349.842517 178.384584 
L 355.960379 178.384582 
L 357.489844 176.803202 
L 359.01931 178.384581 
L 369.725568 178.384582 
L 369.725568 178.384582 
" style="fill:none;stroke:#ff7f0e;stroke-linecap:square;stroke-width:1.5;"/>
   </g>
   <g id="patch_3">
    <path d="M 50.14375 224.64 
L 50.14375 7.2 
" style="fill:none;stroke:#000000;stroke-linecap:square;stroke-linejoin:miter;stroke-width:0.8;"/>
   </g>
   <g id="patch_4">
    <path d="M 384.94375 224.64 
L 384.94375 7.2 
" style="fill:none;stroke:#000000;stroke-linecap:square;stroke-linejoin:miter;stroke-width:0.8;"/>
   </g>
   <g id="patch_5">
    <path d="M 50.14375 224.64 
L 384.94375 224.64 
" style="fill:none;stroke:#000000;stroke-linecap:square;stroke-linejoin:miter;stroke-width:0.8;"/>
   </g>
   <g id="patch_6">
    <path d="M 50.14375 7.2 
L 384.94375 7.2 
" style="fill:none;stroke:#000000;stroke-linecap:square;stroke-linejoin:miter;stroke-width:0.8;"/>
   </g>
   <g id="legend_1">
    <g id="patch_7">
     <path d="M 299.253125 45.1125 
L 377.94375 45.1125 
Q 379.94375 45.1125 379.94375 43.1125 
L 379.94375 14.2 
Q 379.94375 12.2 377.94375 12.2 
L 299.253125 12.2 
Q 297.253125 12.2 297.253125 14.2 
L 297.253125 43.1125 
Q 297.253125 45.1125 299.253125 45.1125 
z
" style="fill:#ffffff;opacity:0.8;stroke:#cccccc;stroke-linejoin:miter;"/>
    </g>
    <g id="line2d_17">
     <path d="M 301.253125 20.298437 
L 321.253125 20.298437 
" style="fill:none;stroke:#1f77b4;stroke-linecap:square;stroke-width:1.5;"/>
    </g>
    <g id="line2d_18"/>
    <g id="text_17">
     <!-- score_tr -->
     <g transform="translate(329.253125 23.798437)scale(0.1 -0.1)">
      <defs>
       <path d="M 50.984375 -16.609375 
L 50.984375 -23.578125 
L -0.984375 -23.578125 
L -0.984375 -16.609375 
z
" id="DejaVuSans-95"/>
       <path d="M 18.3125 70.21875 
L 18.3125 54.6875 
L 36.8125 54.6875 
L 36.8125 47.703125 
L 18.3125 47.703125 
L 18.3125 18.015625 
Q 18.3125 11.328125 20.140625 9.421875 
Q 21.96875 7.515625 27.59375 7.515625 
L 36.8125 7.515625 
L 36.8125 0 
L 27.59375 0 
Q 17.1875 0 13.234375 3.875 
Q 9.28125 7.765625 9.28125 18.015625 
L 9.28125 47.703125 
L 2.6875 47.703125 
L 2.6875 54.6875 
L 9.28125 54.6875 
L 9.28125 70.21875 
z
" id="DejaVuSans-116"/>
      </defs>
      <use xlink:href="#DejaVuSans-115"/>
      <use x="52.099609" xlink:href="#DejaVuSans-99"/>
      <use x="107.080078" xlink:href="#DejaVuSans-111"/>
      <use x="168.261719" xlink:href="#DejaVuSans-114"/>
      <use x="207.125" xlink:href="#DejaVuSans-101"/>
      <use x="268.648438" xlink:href="#DejaVuSans-95"/>
      <use x="318.648438" xlink:href="#DejaVuSans-116"/>
      <use x="357.857422" xlink:href="#DejaVuSans-114"/>
     </g>
    </g>
    <g id="line2d_19">
     <path d="M 301.253125 35.254687 
L 321.253125 35.254687 
" style="fill:none;stroke:#ff7f0e;stroke-linecap:square;stroke-width:1.5;"/>
    </g>
    <g id="line2d_20"/>
    <g id="text_18">
     <!-- score_val -->
     <g transform="translate(329.253125 38.754687)scale(0.1 -0.1)">
      <defs>
       <path d="M 2.984375 54.6875 
L 12.5 54.6875 
L 29.59375 8.796875 
L 46.6875 54.6875 
L 56.203125 54.6875 
L 35.6875 0 
L 23.484375 0 
z
" id="DejaVuSans-118"/>
       <path d="M 34.28125 27.484375 
Q 23.390625 27.484375 19.1875 25 
Q 14.984375 22.515625 14.984375 16.5 
Q 14.984375 11.71875 18.140625 8.90625 
Q 21.296875 6.109375 26.703125 6.109375 
Q 34.1875 6.109375 38.703125 11.40625 
Q 43.21875 16.703125 43.21875 25.484375 
L 43.21875 27.484375 
z
M 52.203125 31.203125 
L 52.203125 0 
L 43.21875 0 
L 43.21875 8.296875 
Q 40.140625 3.328125 35.546875 0.953125 
Q 30.953125 -1.421875 24.3125 -1.421875 
Q 15.921875 -1.421875 10.953125 3.296875 
Q 6 8.015625 6 15.921875 
Q 6 25.140625 12.171875 29.828125 
Q 18.359375 34.515625 30.609375 34.515625 
L 43.21875 34.515625 
L 43.21875 35.40625 
Q 43.21875 41.609375 39.140625 45 
Q 35.0625 48.390625 27.6875 48.390625 
Q 23 48.390625 18.546875 47.265625 
Q 14.109375 46.140625 10.015625 43.890625 
L 10.015625 52.203125 
Q 14.9375 54.109375 19.578125 55.046875 
Q 24.21875 56 28.609375 56 
Q 40.484375 56 46.34375 49.84375 
Q 52.203125 43.703125 52.203125 31.203125 
z
" id="DejaVuSans-97"/>
       <path d="M 9.421875 75.984375 
L 18.40625 75.984375 
L 18.40625 0 
L 9.421875 0 
z
" id="DejaVuSans-108"/>
      </defs>
      <use xlink:href="#DejaVuSans-115"/>
      <use x="52.099609" xlink:href="#DejaVuSans-99"/>
      <use x="107.080078" xlink:href="#DejaVuSans-111"/>
      <use x="168.261719" xlink:href="#DejaVuSans-114"/>
      <use x="207.125" xlink:href="#DejaVuSans-101"/>
      <use x="268.648438" xlink:href="#DejaVuSans-95"/>
      <use x="318.648438" xlink:href="#DejaVuSans-118"/>
      <use x="377.828125" xlink:href="#DejaVuSans-97"/>
      <use x="439.107422" xlink:href="#DejaVuSans-108"/>
     </g>
    </g>
   </g>
  </g>
 </g>
 <defs>
  <clipPath id="p16ec3a4fd1">
   <rect height="217.44" width="334.8" x="50.14375" y="7.2"/>
  </clipPath>
 </defs>
</svg>
