<?xml version="1.0" encoding="utf-8" standalone="no"?>
<!DOCTYPE svg PUBLIC "-//W3C//DTD SVG 1.1//EN"
  "http://www.w3.org/Graphics/SVG/1.1/DTD/svg11.dtd">
<!-- Created with matplotlib (https://matplotlib.org/) -->
<svg height="277.314375pt" version="1.1" viewBox="0 0 398.50625 277.314375" width="398.50625pt" xmlns="http://www.w3.org/2000/svg" xmlns:xlink="http://www.w3.org/1999/xlink">
 <metadata>
  <rdf:RDF xmlns:cc="http://creativecommons.org/ns#" xmlns:dc="http://purl.org/dc/elements/1.1/" xmlns:rdf="http://www.w3.org/1999/02/22-rdf-syntax-ns#">
   <cc:Work>
    <dc:type rdf:resource="http://purl.org/dc/dcmitype/StillImage"/>
    <dc:date>2020-12-16T14:55:36.159756</dc:date>
    <dc:format>image/svg+xml</dc:format>
    <dc:creator>
     <cc:Agent>
      <dc:title>Matplotlib v3.3.3, https://matplotlib.org/</dc:title>
     </cc:Agent>
    </dc:creator>
   </cc:Work>
  </rdf:RDF>
 </metadata>
 <defs>
  <style type="text/css">*{stroke-linecap:butt;stroke-linejoin:round;}</style>
 </defs>
 <g id="figure_1">
  <g id="patch_1">
   <path d="M 0 277.314375 
L 398.50625 277.314375 
L 398.50625 0 
L 0 0 
z
" style="fill:none;"/>
  </g>
  <g id="axes_1">
   <g id="patch_2">
    <path d="M 56.50625 239.758125 
L 391.30625 239.758125 
L 391.30625 22.318125 
L 56.50625 22.318125 
z
" style="fill:#ffffff;"/>
   </g>
   <g id="matplotlib.axis_1">
    <g id="xtick_1">
     <g id="line2d_1">
      <defs>
       <path d="M 0 0 
L 0 3.5 
" id="m8a4d6b6b21" style="stroke:#000000;stroke-width:0.8;"/>
      </defs>
      <g>
       <use style="stroke:#000000;stroke-width:0.8;" x="67.065805" xlink:href="#m8a4d6b6b21" y="239.758125"/>
      </g>
     </g>
     <g id="text_1">
      <!-- 0 -->
      <g transform="translate(63.884555 254.356562)scale(0.1 -0.1)">
       <defs>
        <path d="M 31.78125 66.40625 
Q 24.171875 66.40625 20.328125 58.90625 
Q 16.5 51.421875 16.5 36.375 
Q 16.5 21.390625 20.328125 13.890625 
Q 24.171875 6.390625 31.78125 6.390625 
Q 39.453125 6.390625 43.28125 13.890625 
Q 47.125 21.390625 47.125 36.375 
Q 47.125 51.421875 43.28125 58.90625 
Q 39.453125 66.40625 31.78125 66.40625 
z
M 31.78125 74.21875 
Q 44.046875 74.21875 50.515625 64.515625 
Q 56.984375 54.828125 56.984375 36.375 
Q 56.984375 17.96875 50.515625 8.265625 
Q 44.046875 -1.421875 31.78125 -1.421875 
Q 19.53125 -1.421875 13.0625 8.265625 
Q 6.59375 17.96875 6.59375 36.375 
Q 6.59375 54.828125 13.0625 64.515625 
Q 19.53125 74.21875 31.78125 74.21875 
z
" id="DejaVuSans-48"/>
       </defs>
       <use xlink:href="#DejaVuSans-48"/>
      </g>
     </g>
    </g>
    <g id="xtick_2">
     <g id="line2d_2">
      <g>
       <use style="stroke:#000000;stroke-width:0.8;" x="105.887697" xlink:href="#m8a4d6b6b21" y="239.758125"/>
      </g>
     </g>
     <g id="text_2">
      <!-- 25 -->
      <g transform="translate(99.525197 254.356562)scale(0.1 -0.1)">
       <defs>
        <path d="M 19.1875 8.296875 
L 53.609375 8.296875 
L 53.609375 0 
L 7.328125 0 
L 7.328125 8.296875 
Q 12.9375 14.109375 22.625 23.890625 
Q 32.328125 33.6875 34.8125 36.53125 
Q 39.546875 41.84375 41.421875 45.53125 
Q 43.3125 49.21875 43.3125 52.78125 
Q 43.3125 58.59375 39.234375 62.25 
Q 35.15625 65.921875 28.609375 65.921875 
Q 23.96875 65.921875 18.8125 64.3125 
Q 13.671875 62.703125 7.8125 59.421875 
L 7.8125 69.390625 
Q 13.765625 71.78125 18.9375 73 
Q 24.125 74.21875 28.421875 74.21875 
Q 39.75 74.21875 46.484375 68.546875 
Q 53.21875 62.890625 53.21875 53.421875 
Q 53.21875 48.921875 51.53125 44.890625 
Q 49.859375 40.875 45.40625 35.40625 
Q 44.1875 33.984375 37.640625 27.21875 
Q 31.109375 20.453125 19.1875 8.296875 
z
" id="DejaVuSans-50"/>
        <path d="M 10.796875 72.90625 
L 49.515625 72.90625 
L 49.515625 64.59375 
L 19.828125 64.59375 
L 19.828125 46.734375 
Q 21.96875 47.46875 24.109375 47.828125 
Q 26.265625 48.1875 28.421875 48.1875 
Q 40.625 48.1875 47.75 41.5 
Q 54.890625 34.8125 54.890625 23.390625 
Q 54.890625 11.625 47.5625 5.09375 
Q 40.234375 -1.421875 26.90625 -1.421875 
Q 22.3125 -1.421875 17.546875 -0.640625 
Q 12.796875 0.140625 7.71875 1.703125 
L 7.71875 11.625 
Q 12.109375 9.234375 16.796875 8.0625 
Q 21.484375 6.890625 26.703125 6.890625 
Q 35.15625 6.890625 40.078125 11.328125 
Q 45.015625 15.765625 45.015625 23.390625 
Q 45.015625 31 40.078125 35.4375 
Q 35.15625 39.890625 26.703125 39.890625 
Q 22.75 39.890625 18.8125 39.015625 
Q 14.890625 38.140625 10.796875 36.28125 
z
" id="DejaVuSans-53"/>
       </defs>
       <use xlink:href="#DejaVuSans-50"/>
       <use x="63.623047" xlink:href="#DejaVuSans-53"/>
      </g>
     </g>
    </g>
    <g id="xtick_3">
     <g id="line2d_3">
      <g>
       <use style="stroke:#000000;stroke-width:0.8;" x="144.70959" xlink:href="#m8a4d6b6b21" y="239.758125"/>
      </g>
     </g>
     <g id="text_3">
      <!-- 50 -->
      <g transform="translate(138.34709 254.356562)scale(0.1 -0.1)">
       <use xlink:href="#DejaVuSans-53"/>
       <use x="63.623047" xlink:href="#DejaVuSans-48"/>
      </g>
     </g>
    </g>
    <g id="xtick_4">
     <g id="line2d_4">
      <g>
       <use style="stroke:#000000;stroke-width:0.8;" x="183.531482" xlink:href="#m8a4d6b6b21" y="239.758125"/>
      </g>
     </g>
     <g id="text_4">
      <!-- 75 -->
      <g transform="translate(177.168982 254.356562)scale(0.1 -0.1)">
       <defs>
        <path d="M 8.203125 72.90625 
L 55.078125 72.90625 
L 55.078125 68.703125 
L 28.609375 0 
L 18.3125 0 
L 43.21875 64.59375 
L 8.203125 64.59375 
z
" id="DejaVuSans-55"/>
       </defs>
       <use xlink:href="#DejaVuSans-55"/>
       <use x="63.623047" xlink:href="#DejaVuSans-53"/>
      </g>
     </g>
    </g>
    <g id="xtick_5">
     <g id="line2d_5">
      <g>
       <use style="stroke:#000000;stroke-width:0.8;" x="222.353374" xlink:href="#m8a4d6b6b21" y="239.758125"/>
      </g>
     </g>
     <g id="text_5">
      <!-- 100 -->
      <g transform="translate(212.809624 254.356562)scale(0.1 -0.1)">
       <defs>
        <path d="M 12.40625 8.296875 
L 28.515625 8.296875 
L 28.515625 63.921875 
L 10.984375 60.40625 
L 10.984375 69.390625 
L 28.421875 72.90625 
L 38.28125 72.90625 
L 38.28125 8.296875 
L 54.390625 8.296875 
L 54.390625 0 
L 12.40625 0 
z
" id="DejaVuSans-49"/>
       </defs>
       <use xlink:href="#DejaVuSans-49"/>
       <use x="63.623047" xlink:href="#DejaVuSans-48"/>
       <use x="127.246094" xlink:href="#DejaVuSans-48"/>
      </g>
     </g>
    </g>
    <g id="xtick_6">
     <g id="line2d_6">
      <g>
       <use style="stroke:#000000;stroke-width:0.8;" x="261.175267" xlink:href="#m8a4d6b6b21" y="239.758125"/>
      </g>
     </g>
     <g id="text_6">
      <!-- 125 -->
      <g transform="translate(251.631517 254.356562)scale(0.1 -0.1)">
       <use xlink:href="#DejaVuSans-49"/>
       <use x="63.623047" xlink:href="#DejaVuSans-50"/>
       <use x="127.246094" xlink:href="#DejaVuSans-53"/>
      </g>
     </g>
    </g>
    <g id="xtick_7">
     <g id="line2d_7">
      <g>
       <use style="stroke:#000000;stroke-width:0.8;" x="299.997159" xlink:href="#m8a4d6b6b21" y="239.758125"/>
      </g>
     </g>
     <g id="text_7">
      <!-- 150 -->
      <g transform="translate(290.453409 254.356562)scale(0.1 -0.1)">
       <use xlink:href="#DejaVuSans-49"/>
       <use x="63.623047" xlink:href="#DejaVuSans-53"/>
       <use x="127.246094" xlink:href="#DejaVuSans-48"/>
      </g>
     </g>
    </g>
    <g id="xtick_8">
     <g id="line2d_8">
      <g>
       <use style="stroke:#000000;stroke-width:0.8;" x="338.819051" xlink:href="#m8a4d6b6b21" y="239.758125"/>
      </g>
     </g>
     <g id="text_8">
      <!-- 175 -->
      <g transform="translate(329.275301 254.356562)scale(0.1 -0.1)">
       <use xlink:href="#DejaVuSans-49"/>
       <use x="63.623047" xlink:href="#DejaVuSans-55"/>
       <use x="127.246094" xlink:href="#DejaVuSans-53"/>
      </g>
     </g>
    </g>
    <g id="xtick_9">
     <g id="line2d_9">
      <g>
       <use style="stroke:#000000;stroke-width:0.8;" x="377.640944" xlink:href="#m8a4d6b6b21" y="239.758125"/>
      </g>
     </g>
     <g id="text_9">
      <!-- 200 -->
      <g transform="translate(368.097194 254.356562)scale(0.1 -0.1)">
       <use xlink:href="#DejaVuSans-50"/>
       <use x="63.623047" xlink:href="#DejaVuSans-48"/>
       <use x="127.246094" xlink:href="#DejaVuSans-48"/>
      </g>
     </g>
    </g>
    <g id="text_10">
     <!-- epoch -->
     <g transform="translate(208.678125 268.034687)scale(0.1 -0.1)">
      <defs>
       <path d="M 56.203125 29.59375 
L 56.203125 25.203125 
L 14.890625 25.203125 
Q 15.484375 15.921875 20.484375 11.0625 
Q 25.484375 6.203125 34.421875 6.203125 
Q 39.59375 6.203125 44.453125 7.46875 
Q 49.3125 8.734375 54.109375 11.28125 
L 54.109375 2.78125 
Q 49.265625 0.734375 44.1875 -0.34375 
Q 39.109375 -1.421875 33.890625 -1.421875 
Q 20.796875 -1.421875 13.15625 6.1875 
Q 5.515625 13.8125 5.515625 26.8125 
Q 5.515625 40.234375 12.765625 48.109375 
Q 20.015625 56 32.328125 56 
Q 43.359375 56 49.78125 48.890625 
Q 56.203125 41.796875 56.203125 29.59375 
z
M 47.21875 32.234375 
Q 47.125 39.59375 43.09375 43.984375 
Q 39.0625 48.390625 32.421875 48.390625 
Q 24.90625 48.390625 20.390625 44.140625 
Q 15.875 39.890625 15.1875 32.171875 
z
" id="DejaVuSans-101"/>
       <path d="M 18.109375 8.203125 
L 18.109375 -20.796875 
L 9.078125 -20.796875 
L 9.078125 54.6875 
L 18.109375 54.6875 
L 18.109375 46.390625 
Q 20.953125 51.265625 25.265625 53.625 
Q 29.59375 56 35.59375 56 
Q 45.5625 56 51.78125 48.09375 
Q 58.015625 40.1875 58.015625 27.296875 
Q 58.015625 14.40625 51.78125 6.484375 
Q 45.5625 -1.421875 35.59375 -1.421875 
Q 29.59375 -1.421875 25.265625 0.953125 
Q 20.953125 3.328125 18.109375 8.203125 
z
M 48.6875 27.296875 
Q 48.6875 37.203125 44.609375 42.84375 
Q 40.53125 48.484375 33.40625 48.484375 
Q 26.265625 48.484375 22.1875 42.84375 
Q 18.109375 37.203125 18.109375 27.296875 
Q 18.109375 17.390625 22.1875 11.75 
Q 26.265625 6.109375 33.40625 6.109375 
Q 40.53125 6.109375 44.609375 11.75 
Q 48.6875 17.390625 48.6875 27.296875 
z
" id="DejaVuSans-112"/>
       <path d="M 30.609375 48.390625 
Q 23.390625 48.390625 19.1875 42.75 
Q 14.984375 37.109375 14.984375 27.296875 
Q 14.984375 17.484375 19.15625 11.84375 
Q 23.34375 6.203125 30.609375 6.203125 
Q 37.796875 6.203125 41.984375 11.859375 
Q 46.1875 17.53125 46.1875 27.296875 
Q 46.1875 37.015625 41.984375 42.703125 
Q 37.796875 48.390625 30.609375 48.390625 
z
M 30.609375 56 
Q 42.328125 56 49.015625 48.375 
Q 55.71875 40.765625 55.71875 27.296875 
Q 55.71875 13.875 49.015625 6.21875 
Q 42.328125 -1.421875 30.609375 -1.421875 
Q 18.84375 -1.421875 12.171875 6.21875 
Q 5.515625 13.875 5.515625 27.296875 
Q 5.515625 40.765625 12.171875 48.375 
Q 18.84375 56 30.609375 56 
z
" id="DejaVuSans-111"/>
       <path d="M 48.78125 52.59375 
L 48.78125 44.1875 
Q 44.96875 46.296875 41.140625 47.34375 
Q 37.3125 48.390625 33.40625 48.390625 
Q 24.65625 48.390625 19.8125 42.84375 
Q 14.984375 37.3125 14.984375 27.296875 
Q 14.984375 17.28125 19.8125 11.734375 
Q 24.65625 6.203125 33.40625 6.203125 
Q 37.3125 6.203125 41.140625 7.25 
Q 44.96875 8.296875 48.78125 10.40625 
L 48.78125 2.09375 
Q 45.015625 0.34375 40.984375 -0.53125 
Q 36.96875 -1.421875 32.421875 -1.421875 
Q 20.0625 -1.421875 12.78125 6.34375 
Q 5.515625 14.109375 5.515625 27.296875 
Q 5.515625 40.671875 12.859375 48.328125 
Q 20.21875 56 33.015625 56 
Q 37.15625 56 41.109375 55.140625 
Q 45.0625 54.296875 48.78125 52.59375 
z
" id="DejaVuSans-99"/>
       <path d="M 54.890625 33.015625 
L 54.890625 0 
L 45.90625 0 
L 45.90625 32.71875 
Q 45.90625 40.484375 42.875 44.328125 
Q 39.84375 48.1875 33.796875 48.1875 
Q 26.515625 48.1875 22.3125 43.546875 
Q 18.109375 38.921875 18.109375 30.90625 
L 18.109375 0 
L 9.078125 0 
L 9.078125 75.984375 
L 18.109375 75.984375 
L 18.109375 46.1875 
Q 21.34375 51.125 25.703125 53.5625 
Q 30.078125 56 35.796875 56 
Q 45.21875 56 50.046875 50.171875 
Q 54.890625 44.34375 54.890625 33.015625 
z
" id="DejaVuSans-104"/>
      </defs>
      <use xlink:href="#DejaVuSans-101"/>
      <use x="61.523438" xlink:href="#DejaVuSans-112"/>
      <use x="125" xlink:href="#DejaVuSans-111"/>
      <use x="186.181641" xlink:href="#DejaVuSans-99"/>
      <use x="241.162109" xlink:href="#DejaVuSans-104"/>
     </g>
    </g>
   </g>
   <g id="matplotlib.axis_2">
    <g id="ytick_1">
     <g id="line2d_10">
      <defs>
       <path d="M 0 0 
L -3.5 0 
" id="mfb92aa86e2" style="stroke:#000000;stroke-width:0.8;"/>
      </defs>
      <g>
       <use style="stroke:#000000;stroke-width:0.8;" x="56.50625" xlink:href="#mfb92aa86e2" y="224.768357"/>
      </g>
     </g>
     <g id="text_11">
      <!-- 0.025 -->
      <g transform="translate(20.878125 228.567575)scale(0.1 -0.1)">
       <defs>
        <path d="M 10.6875 12.40625 
L 21 12.40625 
L 21 0 
L 10.6875 0 
z
" id="DejaVuSans-46"/>
       </defs>
       <use xlink:href="#DejaVuSans-48"/>
       <use x="63.623047" xlink:href="#DejaVuSans-46"/>
       <use x="95.410156" xlink:href="#DejaVuSans-48"/>
       <use x="159.033203" xlink:href="#DejaVuSans-50"/>
       <use x="222.65625" xlink:href="#DejaVuSans-53"/>
      </g>
     </g>
    </g>
    <g id="ytick_2">
     <g id="line2d_11">
      <g>
       <use style="stroke:#000000;stroke-width:0.8;" x="56.50625" xlink:href="#mfb92aa86e2" y="197.731073"/>
      </g>
     </g>
     <g id="text_12">
      <!-- 0.050 -->
      <g transform="translate(20.878125 201.530292)scale(0.1 -0.1)">
       <use xlink:href="#DejaVuSans-48"/>
       <use x="63.623047" xlink:href="#DejaVuSans-46"/>
       <use x="95.410156" xlink:href="#DejaVuSans-48"/>
       <use x="159.033203" xlink:href="#DejaVuSans-53"/>
       <use x="222.65625" xlink:href="#DejaVuSans-48"/>
      </g>
     </g>
    </g>
    <g id="ytick_3">
     <g id="line2d_12">
      <g>
       <use style="stroke:#000000;stroke-width:0.8;" x="56.50625" xlink:href="#mfb92aa86e2" y="170.693789"/>
      </g>
     </g>
     <g id="text_13">
      <!-- 0.075 -->
      <g transform="translate(20.878125 174.493008)scale(0.1 -0.1)">
       <use xlink:href="#DejaVuSans-48"/>
       <use x="63.623047" xlink:href="#DejaVuSans-46"/>
       <use x="95.410156" xlink:href="#DejaVuSans-48"/>
       <use x="159.033203" xlink:href="#DejaVuSans-55"/>
       <use x="222.65625" xlink:href="#DejaVuSans-53"/>
      </g>
     </g>
    </g>
    <g id="ytick_4">
     <g id="line2d_13">
      <g>
       <use style="stroke:#000000;stroke-width:0.8;" x="56.50625" xlink:href="#mfb92aa86e2" y="143.656506"/>
      </g>
     </g>
     <g id="text_14">
      <!-- 0.100 -->
      <g transform="translate(20.878125 147.455724)scale(0.1 -0.1)">
       <use xlink:href="#DejaVuSans-48"/>
       <use x="63.623047" xlink:href="#DejaVuSans-46"/>
       <use x="95.410156" xlink:href="#DejaVuSans-49"/>
       <use x="159.033203" xlink:href="#DejaVuSans-48"/>
       <use x="222.65625" xlink:href="#DejaVuSans-48"/>
      </g>
     </g>
    </g>
    <g id="ytick_5">
     <g id="line2d_14">
      <g>
       <use style="stroke:#000000;stroke-width:0.8;" x="56.50625" xlink:href="#mfb92aa86e2" y="116.619222"/>
      </g>
     </g>
     <g id="text_15">
      <!-- 0.125 -->
      <g transform="translate(20.878125 120.418441)scale(0.1 -0.1)">
       <use xlink:href="#DejaVuSans-48"/>
       <use x="63.623047" xlink:href="#DejaVuSans-46"/>
       <use x="95.410156" xlink:href="#DejaVuSans-49"/>
       <use x="159.033203" xlink:href="#DejaVuSans-50"/>
       <use x="222.65625" xlink:href="#DejaVuSans-53"/>
      </g>
     </g>
    </g>
    <g id="ytick_6">
     <g id="line2d_15">
      <g>
       <use style="stroke:#000000;stroke-width:0.8;" x="56.50625" xlink:href="#mfb92aa86e2" y="89.581938"/>
      </g>
     </g>
     <g id="text_16">
      <!-- 0.150 -->
      <g transform="translate(20.878125 93.381157)scale(0.1 -0.1)">
       <use xlink:href="#DejaVuSans-48"/>
       <use x="63.623047" xlink:href="#DejaVuSans-46"/>
       <use x="95.410156" xlink:href="#DejaVuSans-49"/>
       <use x="159.033203" xlink:href="#DejaVuSans-53"/>
       <use x="222.65625" xlink:href="#DejaVuSans-48"/>
      </g>
     </g>
    </g>
    <g id="ytick_7">
     <g id="line2d_16">
      <g>
       <use style="stroke:#000000;stroke-width:0.8;" x="56.50625" xlink:href="#mfb92aa86e2" y="62.544655"/>
      </g>
     </g>
     <g id="text_17">
      <!-- 0.175 -->
      <g transform="translate(20.878125 66.343874)scale(0.1 -0.1)">
       <use xlink:href="#DejaVuSans-48"/>
       <use x="63.623047" xlink:href="#DejaVuSans-46"/>
       <use x="95.410156" xlink:href="#DejaVuSans-49"/>
       <use x="159.033203" xlink:href="#DejaVuSans-55"/>
       <use x="222.65625" xlink:href="#DejaVuSans-53"/>
      </g>
     </g>
    </g>
    <g id="ytick_8">
     <g id="line2d_17">
      <g>
       <use style="stroke:#000000;stroke-width:0.8;" x="56.50625" xlink:href="#mfb92aa86e2" y="35.507371"/>
      </g>
     </g>
     <g id="text_18">
      <!-- 0.200 -->
      <g transform="translate(20.878125 39.30659)scale(0.1 -0.1)">
       <use xlink:href="#DejaVuSans-48"/>
       <use x="63.623047" xlink:href="#DejaVuSans-46"/>
       <use x="95.410156" xlink:href="#DejaVuSans-50"/>
       <use x="159.033203" xlink:href="#DejaVuSans-48"/>
       <use x="222.65625" xlink:href="#DejaVuSans-48"/>
      </g>
     </g>
    </g>
    <g id="text_19">
     <!-- loss -->
     <g transform="translate(14.798438 140.695937)rotate(-90)scale(0.1 -0.1)">
      <defs>
       <path d="M 9.421875 75.984375 
L 18.40625 75.984375 
L 18.40625 0 
L 9.421875 0 
z
" id="DejaVuSans-108"/>
       <path d="M 44.28125 53.078125 
L 44.28125 44.578125 
Q 40.484375 46.53125 36.375 47.5 
Q 32.28125 48.484375 27.875 48.484375 
Q 21.1875 48.484375 17.84375 46.4375 
Q 14.5 44.390625 14.5 40.28125 
Q 14.5 37.15625 16.890625 35.375 
Q 19.28125 33.59375 26.515625 31.984375 
L 29.59375 31.296875 
Q 39.15625 29.25 43.1875 25.515625 
Q 47.21875 21.78125 47.21875 15.09375 
Q 47.21875 7.46875 41.1875 3.015625 
Q 35.15625 -1.421875 24.609375 -1.421875 
Q 20.21875 -1.421875 15.453125 -0.5625 
Q 10.6875 0.296875 5.421875 2 
L 5.421875 11.28125 
Q 10.40625 8.6875 15.234375 7.390625 
Q 20.0625 6.109375 24.8125 6.109375 
Q 31.15625 6.109375 34.5625 8.28125 
Q 37.984375 10.453125 37.984375 14.40625 
Q 37.984375 18.0625 35.515625 20.015625 
Q 33.0625 21.96875 24.703125 23.78125 
L 21.578125 24.515625 
Q 13.234375 26.265625 9.515625 29.90625 
Q 5.8125 33.546875 5.8125 39.890625 
Q 5.8125 47.609375 11.28125 51.796875 
Q 16.75 56 26.8125 56 
Q 31.78125 56 36.171875 55.265625 
Q 40.578125 54.546875 44.28125 53.078125 
z
" id="DejaVuSans-115"/>
      </defs>
      <use xlink:href="#DejaVuSans-108"/>
      <use x="27.783203" xlink:href="#DejaVuSans-111"/>
      <use x="88.964844" xlink:href="#DejaVuSans-115"/>
      <use x="141.064453" xlink:href="#DejaVuSans-115"/>
     </g>
    </g>
   </g>
   <g id="line2d_18">
    <path clip-path="url(#p1a7d1d264f)" d="M 71.724432 82.180384 
L 73.277308 91.910199 
L 74.830183 108.956377 
L 76.383059 106.404508 
L 77.935935 113.823912 
L 79.48881 117.51015 
L 81.041686 113.15325 
L 84.147437 129.01934 
L 85.700313 131.452938 
L 87.253189 135.613689 
L 88.806064 132.42757 
L 90.35894 138.351039 
L 91.911816 139.052119 
L 93.464692 134.292977 
L 95.017567 137.117537 
L 96.570443 143.719161 
L 98.123319 145.389651 
L 99.676194 147.792678 
L 101.22907 141.374432 
L 102.781946 151.860047 
L 104.334821 151.862666 
L 105.887697 147.785636 
L 107.440573 148.606236 
L 108.993449 154.06898 
L 110.546324 148.67301 
L 112.0992 146.424813 
L 113.652076 153.439517 
L 115.204951 154.438709 
L 116.757827 153.501965 
L 118.310703 157.807069 
L 119.863578 154.989979 
L 121.416454 155.451945 
L 122.96933 156.906561 
L 124.522205 155.292241 
L 126.075081 154.542114 
L 127.627957 162.951242 
L 129.180833 151.637976 
L 130.733708 156.325275 
L 132.286584 156.638028 
L 133.83946 158.760686 
L 135.392335 157.844941 
L 136.945211 160.813146 
L 138.498087 167.504324 
L 140.050962 163.05812 
L 141.603838 159.319096 
L 143.156714 169.518041 
L 144.70959 162.265037 
L 146.262465 161.31947 
L 147.815341 163.948976 
L 149.368217 168.230737 
L 150.921092 165.07419 
L 152.473968 164.388106 
L 154.026844 162.611794 
L 155.579719 167.864352 
L 157.132595 167.549375 
L 158.685471 168.445161 
L 160.238346 171.033605 
L 161.791222 179.188463 
L 163.344098 170.788352 
L 164.896974 170.295637 
L 166.449849 172.143567 
L 168.002725 176.83222 
L 169.555601 175.780717 
L 171.108476 175.702388 
L 172.661352 171.765643 
L 174.214228 173.755195 
L 175.767103 177.434632 
L 177.319979 176.560384 
L 178.872855 175.940325 
L 180.425731 176.558595 
L 181.978606 179.404105 
L 183.531482 178.257569 
L 185.084358 177.9816 
L 186.637233 177.208508 
L 188.190109 178.648087 
L 189.742985 181.859692 
L 191.29586 178.919536 
L 192.848736 184.413971 
L 194.401612 182.020372 
L 195.954487 178.770219 
L 197.507363 182.864299 
L 199.060239 177.837189 
L 200.613115 179.591769 
L 202.16599 183.546475 
L 203.718866 184.346363 
L 205.271742 183.560939 
L 206.824617 186.261691 
L 208.377493 187.378852 
L 209.930369 182.970532 
L 211.483244 186.09847 
L 213.03612 186.075691 
L 214.588996 184.467378 
L 216.141872 186.309929 
L 217.694747 189.498956 
L 219.247623 192.332089 
L 220.800499 189.091005 
L 222.353374 189.381124 
L 223.90625 196.027727 
L 225.459126 190.245832 
L 227.012001 192.651192 
L 228.564877 192.721596 
L 230.117753 193.715337 
L 231.670628 194.57038 
L 233.223504 190.681006 
L 234.77638 188.654952 
L 236.329256 191.71064 
L 237.882131 191.829025 
L 239.435007 193.150844 
L 240.987883 196.907849 
L 242.540758 193.571732 
L 244.093634 195.277878 
L 245.64651 198.789331 
L 247.199385 196.298652 
L 248.752261 196.34944 
L 250.305137 197.63361 
L 251.858013 200.585864 
L 253.410888 197.636051 
L 254.963764 198.771499 
L 256.51664 196.044704 
L 258.069515 198.414211 
L 259.622391 199.120541 
L 261.175267 197.941033 
L 262.728142 202.033232 
L 264.281018 199.430441 
L 265.833894 197.725214 
L 267.386769 200.720352 
L 268.939645 201.332776 
L 270.492521 202.072751 
L 272.045397 203.964478 
L 273.598272 202.233801 
L 275.151148 201.463122 
L 276.704024 202.77402 
L 278.256899 202.239937 
L 279.809775 203.815305 
L 281.362651 203.685966 
L 282.915526 204.417226 
L 284.468402 206.700576 
L 286.021278 204.269069 
L 287.574154 202.141076 
L 289.127029 204.294926 
L 290.679905 206.085871 
L 292.232781 205.443005 
L 293.785656 206.647189 
L 295.338532 207.677186 
L 296.891408 208.306072 
L 298.444283 200.5752 
L 299.997159 201.416247 
L 301.550035 205.958164 
L 303.10291 202.947575 
L 304.655786 207.988356 
L 306.208662 208.805241 
L 307.761538 208.660576 
L 309.314413 204.887557 
L 310.867289 206.77953 
L 312.420165 206.646464 
L 315.525916 210.497656 
L 317.078792 209.365371 
L 318.631667 209.461838 
L 320.184543 210.659315 
L 321.737419 211.208047 
L 323.290295 210.681618 
L 324.84317 209.984556 
L 326.396046 210.027515 
L 327.948922 209.602921 
L 329.501797 212.459015 
L 331.054673 209.022248 
L 332.607549 206.483456 
L 334.160424 209.462696 
L 335.7133 211.479524 
L 337.266176 206.694053 
L 338.819051 210.211264 
L 340.371927 208.657958 
L 341.924803 207.705062 
L 343.477679 207.496628 
L 345.030554 210.784121 
L 346.58343 206.906689 
L 348.136306 206.937985 
L 349.689181 210.543106 
L 351.242057 210.8845 
L 352.794933 213.345261 
L 354.347808 211.37103 
L 355.900684 212.454627 
L 357.45356 212.436433 
L 359.006436 214.557109 
L 360.559311 212.818188 
L 362.112187 211.976513 
L 363.665063 213.751343 
L 365.217938 213.58182 
L 366.770814 213.016731 
L 368.32369 215.22796 
L 369.876565 214.081287 
L 371.429441 215.162116 
L 372.982317 213.599052 
L 374.535192 216.036042 
L 376.088068 214.428149 
L 376.088068 214.428149 
" style="fill:none;stroke:#1f77b4;stroke-linecap:square;stroke-width:1.5;"/>
   </g>
   <g id="line2d_19">
    <path clip-path="url(#p1a7d1d264f)" d="M 71.724432 60.392984 
L 73.277308 32.201761 
L 74.830183 116.007511 
L 76.383059 79.828394 
L 77.935935 164.743146 
L 79.48881 137.653014 
L 81.041686 179.062851 
L 82.594562 171.263976 
L 84.147437 185.283607 
L 85.700313 197.72486 
L 87.253189 136.618618 
L 88.806064 193.30521 
L 90.35894 184.846619 
L 91.911816 179.305115 
L 93.464692 170.32645 
L 95.017567 200.076901 
L 96.570443 192.698382 
L 98.123319 171.063121 
L 99.676194 190.174094 
L 101.22907 187.21667 
L 102.781946 182.382889 
L 105.887697 194.908088 
L 107.440573 191.648036 
L 108.993449 190.487862 
L 110.546324 192.137849 
L 112.0992 157.105345 
L 113.652076 195.866572 
L 115.204951 192.948708 
L 116.757827 187.349675 
L 118.310703 196.382731 
L 119.863578 193.911378 
L 121.416454 198.412418 
L 122.96933 191.599967 
L 124.522205 188.018713 
L 126.075081 186.933284 
L 127.627957 193.223323 
L 129.180833 186.897358 
L 130.733708 196.167686 
L 132.286584 187.599099 
L 133.83946 194.673285 
L 135.392335 208.39455 
L 136.945211 200.256698 
L 138.498087 195.462206 
L 140.050962 186.406843 
L 141.603838 199.332237 
L 143.156714 183.959354 
L 144.70959 194.593417 
L 146.262465 189.65551 
L 147.815341 182.460776 
L 149.368217 191.16524 
L 150.921092 193.090685 
L 152.473968 180.426728 
L 154.026844 195.759118 
L 155.579719 191.453941 
L 157.132595 198.893123 
L 158.685471 196.790021 
L 160.238346 197.517522 
L 161.791222 196.141969 
L 163.344098 197.053912 
L 164.896974 195.51963 
L 166.449849 197.719594 
L 168.002725 199.039032 
L 169.555601 201.463775 
L 171.108476 194.004054 
L 172.661352 192.640415 
L 175.767103 203.323062 
L 177.319979 199.317174 
L 178.872855 203.73472 
L 180.425731 201.089614 
L 181.978606 202.887167 
L 183.531482 190.385311 
L 185.084358 200.135497 
L 186.637233 202.806166 
L 188.190109 198.560564 
L 189.742985 202.030073 
L 191.29586 201.98086 
L 192.848736 205.527978 
L 194.401612 202.572834 
L 195.954487 198.473734 
L 197.507363 198.178913 
L 199.060239 201.944846 
L 200.613115 198.613789 
L 202.16599 202.111376 
L 203.718866 200.503776 
L 205.271742 204.981562 
L 206.824617 210.363281 
L 208.377493 210.143789 
L 209.930369 200.230236 
L 211.483244 207.146576 
L 213.03612 209.637972 
L 214.588996 207.650358 
L 216.141872 207.297135 
L 217.694747 210.45518 
L 219.247623 214.671416 
L 220.800499 210.117718 
L 222.353374 209.247414 
L 223.90625 215.679181 
L 227.012001 217.026955 
L 228.564877 210.073388 
L 230.117753 210.656664 
L 231.670628 203.262496 
L 233.223504 209.891767 
L 234.77638 209.539474 
L 236.329256 204.041268 
L 237.882131 211.346418 
L 239.435007 217.927479 
L 242.540758 213.68697 
L 244.093634 214.623021 
L 245.64651 215.93171 
L 247.199385 214.382997 
L 248.752261 218.740255 
L 250.305137 213.968894 
L 251.858013 214.564344 
L 253.410888 218.344066 
L 254.963764 216.615716 
L 256.51664 214.088515 
L 258.069515 219.508964 
L 259.622391 218.676593 
L 261.175267 220.43181 
L 262.728142 219.792616 
L 264.281018 218.767934 
L 265.833894 216.22498 
L 267.386769 218.586852 
L 268.939645 215.862635 
L 272.045397 223.859756 
L 273.598272 222.92737 
L 275.151148 219.132037 
L 276.704024 218.46286 
L 279.809775 217.583418 
L 281.362651 220.958216 
L 282.915526 221.155427 
L 284.468402 221.699625 
L 286.021278 224.5263 
L 287.574154 221.775072 
L 289.127029 223.147169 
L 290.679905 223.834156 
L 292.232781 224.324171 
L 293.785656 221.006992 
L 295.338532 222.509412 
L 296.891408 216.808489 
L 298.444283 212.303021 
L 299.997159 220.125171 
L 301.550035 224.495676 
L 303.10291 224.112875 
L 304.655786 225.038643 
L 306.208662 227.602333 
L 307.761538 227.11564 
L 309.314413 224.621856 
L 310.867289 224.724651 
L 312.420165 222.895581 
L 313.97304 225.414671 
L 315.525916 223.471302 
L 317.078792 224.656303 
L 318.631667 220.48709 
L 320.184543 220.560845 
L 321.737419 226.664578 
L 323.290295 221.817687 
L 324.84317 221.551717 
L 326.396046 225.93758 
L 327.948922 227.358371 
L 329.501797 227.773584 
L 331.054673 220.764212 
L 334.160424 228.366723 
L 335.7133 227.32866 
L 337.266176 223.471377 
L 338.819051 227.488526 
L 340.371927 227.108303 
L 341.924803 224.672806 
L 343.477679 223.953362 
L 345.030554 224.729312 
L 346.58343 223.933127 
L 348.136306 226.270589 
L 349.689181 223.572733 
L 351.242057 221.91865 
L 352.794933 227.381245 
L 354.347808 221.926664 
L 357.45356 225.765318 
L 359.006436 229.292508 
L 360.559311 227.247513 
L 362.112187 225.722259 
L 363.665063 226.187884 
L 365.217938 222.800586 
L 366.770814 226.101974 
L 368.32369 228.745642 
L 369.876565 227.612776 
L 371.429441 226.668371 
L 372.982317 229.874489 
L 374.535192 227.748229 
L 376.088068 228.840733 
L 376.088068 228.840733 
" style="fill:none;stroke:#ff7f0e;stroke-linecap:square;stroke-width:1.5;"/>
   </g>
   <g id="patch_3">
    <path d="M 56.50625 239.758125 
L 56.50625 22.318125 
" style="fill:none;stroke:#000000;stroke-linecap:square;stroke-linejoin:miter;stroke-width:0.8;"/>
   </g>
   <g id="patch_4">
    <path d="M 391.30625 239.758125 
L 391.30625 22.318125 
" style="fill:none;stroke:#000000;stroke-linecap:square;stroke-linejoin:miter;stroke-width:0.8;"/>
   </g>
   <g id="patch_5">
    <path d="M 56.50625 239.758125 
L 391.30625 239.758125 
" style="fill:none;stroke:#000000;stroke-linecap:square;stroke-linejoin:miter;stroke-width:0.8;"/>
   </g>
   <g id="patch_6">
    <path d="M 56.50625 22.318125 
L 391.30625 22.318125 
" style="fill:none;stroke:#000000;stroke-linecap:square;stroke-linejoin:miter;stroke-width:0.8;"/>
   </g>
   <g id="text_20">
    <!-- UNet2 Correlation -->
    <g transform="translate(170.175313 16.318125)scale(0.12 -0.12)">
     <defs>
      <path d="M 8.6875 72.90625 
L 18.609375 72.90625 
L 18.609375 28.609375 
Q 18.609375 16.890625 22.84375 11.734375 
Q 27.09375 6.59375 36.625 6.59375 
Q 46.09375 6.59375 50.34375 11.734375 
Q 54.59375 16.890625 54.59375 28.609375 
L 54.59375 72.90625 
L 64.5 72.90625 
L 64.5 27.390625 
Q 64.5 13.140625 57.4375 5.859375 
Q 50.390625 -1.421875 36.625 -1.421875 
Q 22.796875 -1.421875 15.734375 5.859375 
Q 8.6875 13.140625 8.6875 27.390625 
z
" id="DejaVuSans-85"/>
      <path d="M 9.8125 72.90625 
L 23.09375 72.90625 
L 55.421875 11.921875 
L 55.421875 72.90625 
L 64.984375 72.90625 
L 64.984375 0 
L 51.703125 0 
L 19.390625 60.984375 
L 19.390625 0 
L 9.8125 0 
z
" id="DejaVuSans-78"/>
      <path d="M 18.3125 70.21875 
L 18.3125 54.6875 
L 36.8125 54.6875 
L 36.8125 47.703125 
L 18.3125 47.703125 
L 18.3125 18.015625 
Q 18.3125 11.328125 20.140625 9.421875 
Q 21.96875 7.515625 27.59375 7.515625 
L 36.8125 7.515625 
L 36.8125 0 
L 27.59375 0 
Q 17.1875 0 13.234375 3.875 
Q 9.28125 7.765625 9.28125 18.015625 
L 9.28125 47.703125 
L 2.6875 47.703125 
L 2.6875 54.6875 
L 9.28125 54.6875 
L 9.28125 70.21875 
z
" id="DejaVuSans-116"/>
      <path id="DejaVuSans-32"/>
      <path d="M 64.40625 67.28125 
L 64.40625 56.890625 
Q 59.421875 61.53125 53.78125 63.8125 
Q 48.140625 66.109375 41.796875 66.109375 
Q 29.296875 66.109375 22.65625 58.46875 
Q 16.015625 50.828125 16.015625 36.375 
Q 16.015625 21.96875 22.65625 14.328125 
Q 29.296875 6.6875 41.796875 6.6875 
Q 48.140625 6.6875 53.78125 8.984375 
Q 59.421875 11.28125 64.40625 15.921875 
L 64.40625 5.609375 
Q 59.234375 2.09375 53.4375 0.328125 
Q 47.65625 -1.421875 41.21875 -1.421875 
Q 24.65625 -1.421875 15.125 8.703125 
Q 5.609375 18.84375 5.609375 36.375 
Q 5.609375 53.953125 15.125 64.078125 
Q 24.65625 74.21875 41.21875 74.21875 
Q 47.75 74.21875 53.53125 72.484375 
Q 59.328125 70.75 64.40625 67.28125 
z
" id="DejaVuSans-67"/>
      <path d="M 41.109375 46.296875 
Q 39.59375 47.171875 37.8125 47.578125 
Q 36.03125 48 33.890625 48 
Q 26.265625 48 22.1875 43.046875 
Q 18.109375 38.09375 18.109375 28.8125 
L 18.109375 0 
L 9.078125 0 
L 9.078125 54.6875 
L 18.109375 54.6875 
L 18.109375 46.1875 
Q 20.953125 51.171875 25.484375 53.578125 
Q 30.03125 56 36.53125 56 
Q 37.453125 56 38.578125 55.875 
Q 39.703125 55.765625 41.0625 55.515625 
z
" id="DejaVuSans-114"/>
      <path d="M 34.28125 27.484375 
Q 23.390625 27.484375 19.1875 25 
Q 14.984375 22.515625 14.984375 16.5 
Q 14.984375 11.71875 18.140625 8.90625 
Q 21.296875 6.109375 26.703125 6.109375 
Q 34.1875 6.109375 38.703125 11.40625 
Q 43.21875 16.703125 43.21875 25.484375 
L 43.21875 27.484375 
z
M 52.203125 31.203125 
L 52.203125 0 
L 43.21875 0 
L 43.21875 8.296875 
Q 40.140625 3.328125 35.546875 0.953125 
Q 30.953125 -1.421875 24.3125 -1.421875 
Q 15.921875 -1.421875 10.953125 3.296875 
Q 6 8.015625 6 15.921875 
Q 6 25.140625 12.171875 29.828125 
Q 18.359375 34.515625 30.609375 34.515625 
L 43.21875 34.515625 
L 43.21875 35.40625 
Q 43.21875 41.609375 39.140625 45 
Q 35.0625 48.390625 27.6875 48.390625 
Q 23 48.390625 18.546875 47.265625 
Q 14.109375 46.140625 10.015625 43.890625 
L 10.015625 52.203125 
Q 14.9375 54.109375 19.578125 55.046875 
Q 24.21875 56 28.609375 56 
Q 40.484375 56 46.34375 49.84375 
Q 52.203125 43.703125 52.203125 31.203125 
z
" id="DejaVuSans-97"/>
      <path d="M 9.421875 54.6875 
L 18.40625 54.6875 
L 18.40625 0 
L 9.421875 0 
z
M 9.421875 75.984375 
L 18.40625 75.984375 
L 18.40625 64.59375 
L 9.421875 64.59375 
z
" id="DejaVuSans-105"/>
      <path d="M 54.890625 33.015625 
L 54.890625 0 
L 45.90625 0 
L 45.90625 32.71875 
Q 45.90625 40.484375 42.875 44.328125 
Q 39.84375 48.1875 33.796875 48.1875 
Q 26.515625 48.1875 22.3125 43.546875 
Q 18.109375 38.921875 18.109375 30.90625 
L 18.109375 0 
L 9.078125 0 
L 9.078125 54.6875 
L 18.109375 54.6875 
L 18.109375 46.1875 
Q 21.34375 51.125 25.703125 53.5625 
Q 30.078125 56 35.796875 56 
Q 45.21875 56 50.046875 50.171875 
Q 54.890625 44.34375 54.890625 33.015625 
z
" id="DejaVuSans-110"/>
     </defs>
     <use xlink:href="#DejaVuSans-85"/>
     <use x="73.193359" xlink:href="#DejaVuSans-78"/>
     <use x="147.998047" xlink:href="#DejaVuSans-101"/>
     <use x="209.521484" xlink:href="#DejaVuSans-116"/>
     <use x="248.730469" xlink:href="#DejaVuSans-50"/>
     <use x="312.353516" xlink:href="#DejaVuSans-32"/>
     <use x="344.140625" xlink:href="#DejaVuSans-67"/>
     <use x="413.964844" xlink:href="#DejaVuSans-111"/>
     <use x="475.146484" xlink:href="#DejaVuSans-114"/>
     <use x="514.509766" xlink:href="#DejaVuSans-114"/>
     <use x="553.373047" xlink:href="#DejaVuSans-101"/>
     <use x="614.896484" xlink:href="#DejaVuSans-108"/>
     <use x="642.679688" xlink:href="#DejaVuSans-97"/>
     <use x="703.958984" xlink:href="#DejaVuSans-116"/>
     <use x="743.167969" xlink:href="#DejaVuSans-105"/>
     <use x="770.951172" xlink:href="#DejaVuSans-111"/>
     <use x="832.132812" xlink:href="#DejaVuSans-110"/>
    </g>
   </g>
   <g id="legend_1">
    <g id="patch_7">
     <path d="M 313.165625 60.230625 
L 384.30625 60.230625 
Q 386.30625 60.230625 386.30625 58.230625 
L 386.30625 29.318125 
Q 386.30625 27.318125 384.30625 27.318125 
L 313.165625 27.318125 
Q 311.165625 27.318125 311.165625 29.318125 
L 311.165625 58.230625 
Q 311.165625 60.230625 313.165625 60.230625 
z
" style="fill:#ffffff;opacity:0.8;stroke:#cccccc;stroke-linejoin:miter;"/>
    </g>
    <g id="line2d_20">
     <path d="M 315.165625 35.416562 
L 335.165625 35.416562 
" style="fill:none;stroke:#1f77b4;stroke-linecap:square;stroke-width:1.5;"/>
    </g>
    <g id="line2d_21"/>
    <g id="text_21">
     <!-- loss_tr -->
     <g transform="translate(343.165625 38.916562)scale(0.1 -0.1)">
      <defs>
       <path d="M 50.984375 -16.609375 
L 50.984375 -23.578125 
L -0.984375 -23.578125 
L -0.984375 -16.609375 
z
" id="DejaVuSans-95"/>
      </defs>
      <use xlink:href="#DejaVuSans-108"/>
      <use x="27.783203" xlink:href="#DejaVuSans-111"/>
      <use x="88.964844" xlink:href="#DejaVuSans-115"/>
      <use x="141.064453" xlink:href="#DejaVuSans-115"/>
      <use x="193.164062" xlink:href="#DejaVuSans-95"/>
      <use x="243.164062" xlink:href="#DejaVuSans-116"/>
      <use x="282.373047" xlink:href="#DejaVuSans-114"/>
     </g>
    </g>
    <g id="line2d_22">
     <path d="M 315.165625 50.372812 
L 335.165625 50.372812 
" style="fill:none;stroke:#ff7f0e;stroke-linecap:square;stroke-width:1.5;"/>
    </g>
    <g id="line2d_23"/>
    <g id="text_22">
     <!-- loss_val -->
     <g transform="translate(343.165625 53.872812)scale(0.1 -0.1)">
      <defs>
       <path d="M 2.984375 54.6875 
L 12.5 54.6875 
L 29.59375 8.796875 
L 46.6875 54.6875 
L 56.203125 54.6875 
L 35.6875 0 
L 23.484375 0 
z
" id="DejaVuSans-118"/>
      </defs>
      <use xlink:href="#DejaVuSans-108"/>
      <use x="27.783203" xlink:href="#DejaVuSans-111"/>
      <use x="88.964844" xlink:href="#DejaVuSans-115"/>
      <use x="141.064453" xlink:href="#DejaVuSans-115"/>
      <use x="193.164062" xlink:href="#DejaVuSans-95"/>
      <use x="243.164062" xlink:href="#DejaVuSans-118"/>
      <use x="302.34375" xlink:href="#DejaVuSans-97"/>
      <use x="363.623047" xlink:href="#DejaVuSans-108"/>
     </g>
    </g>
   </g>
  </g>
 </g>
 <defs>
  <clipPath id="p1a7d1d264f">
   <rect height="217.44" width="334.8" x="56.50625" y="22.318125"/>
  </clipPath>
 </defs>
</svg>
